<svg xmlns="http://www.w3.org/2000/svg" xmlns:xlink="http://www.w3.org/1999/xlink" xmlns:lucid="lucid" width="840" height="718.4"><g transform="translate(-60 -140)" lucid:page-tab-id="0_0"><path d="M0 0h1870.4v1323.2H0z" fill="#fff"/><path d="M550 560h250v278.4H550z" stroke="#000" stroke-width="2" fill="#fff"/><use xlink:href="#a" transform="matrix(1,0,0,1,555,565) translate(0 14.4)"/><use xlink:href="#b" transform="matrix(1,0,0,1,555,565) translate(71.9 14.4)"/><use xlink:href="#c" transform="matrix(1,0,0,1,555,565) translate(121.85000000000001 14.4)"/><path d="M475 160h70v340h-70z" stroke="#000" stroke-width="2" fill="#e5e5e5"/><use xlink:href="#d" transform="matrix(1,0,0,1,480,165) translate(0 14.4)"/><path d="M330 160h60v340h-60z" stroke="#000" stroke-width="2" fill="#e5e5e5"/><use xlink:href="#e" transform="matrix(1,0,0,1,335,165) translate(0 14.4)"/><path d="M210 160h40v340h-40z" stroke="#000" stroke-width="2" fill="#e5e5e5"/><use xlink:href="#f" transform="matrix(1,0,0,1,215,165) translate(0 14.4)"/><path d="M80 220h40v20H80zM80 260h40v20H80zM80 340h40v20H80zM80 300h40v20H80zM80 380h40v20H80zM80 420h40v20H80zM80 460h40v20H80zM140 220h60v20h-60zM140 260h60v20h-60zM140 300h60v20h-60zM140 340h60v20h-60zM140 380h60v20h-60zM140 420h60v20h-60zM140 460h60v20h-60zM220 220h20v20h-20zM220 260h20v20h-20zM220 300h20v20h-20zM220 340h20v20h-20zM220 380h20v20h-20zM220 420h20v20h-20zM220 460h20v20h-20zM260 220h60v20h-60zM260 260h60v20h-60zM260 300h60v20h-60zM260 340h60v20h-60zM260 380h60v20h-60zM260 420h60v20h-60zM260 460h60v20h-60zM340 220h40v20h-40zM340 260h40v20h-40zM340 300h40v20h-40zM340 340h40v20h-40zM340 380h40v20h-40zM340 420h40v20h-40zM340 460h40v20h-40zM560 220h320v20H560zM560 260h200v20H560zM560 300h260v20H560zM560 340h120v20H560zM560 380h280v20H560zM560 420h300v20H560zM560 460h240v20H560zM400 220h60v20h-60zM400 260h60v20h-60zM400 300h60v20h-60zM400 340h60v20h-60zM400 380h60v20h-60zM400 420h60v20h-60zM400 460h60v20h-60zM480 220h60v20h-60zM480 260h60v20h-60zM480 300h60v20h-60zM480 340h60v20h-60zM480 380h60v20h-60zM480 420h60v20h-60zM480 460h60v20h-60z" stroke="#000" stroke-width="2" fill="#fff"/><path d="M560 598.4h100v100H560z" stroke="#000" stroke-width="2" fill="#e5e5e5"/><path d="M580 608.4h60v20h-60zM580 638.4h60v20h-60zM580 668.4h60v20h-60z" stroke="#000" stroke-width="2" fill="#fff"/><path d="M680 598.4h100v100H680z" stroke="#000" stroke-width="2" fill="#e5e5e5"/><path d="M700 608.4h60v20h-60zM700 638.4h60v20h-60zM700 668.4h60v20h-60z" stroke="#000" stroke-width="2" fill="#fff"/><path d="M560 718.4h100v100H560z" stroke="#000" stroke-width="2" fill="#e5e5e5"/><path d="M580 728.4h60v20h-60zM580 758.4h60v20h-60zM580 788.4h60v20h-60z" stroke="#000" stroke-width="2" fill="#fff"/><path d="M680 718.4h100v100H680z" stroke="#000" stroke-width="2" fill="#e5e5e5"/><path d="M700 728.4h60v20h-60zM700 758.4h60v20h-60zM700 788.4h60v20h-60zM240 560h250v278.4H240z" stroke="#000" stroke-width="2" fill="#fff"/><use xlink:href="#a" transform="matrix(1,0,0,1,245,565) translate(0 14.4)"/><use xlink:href="#c" transform="matrix(1,0,0,1,245,565) translate(71.9 14.4)"/><path d="M250 598.4h100v100H250z" stroke="#000" stroke-width="2" fill="#e5e5e5"/><path d="M270 608.4h20v20h-20zM270 638.4h20v20h-20zM270 668.4h20v20h-20z" stroke="#000" stroke-width="2" fill="#fff"/><path d="M370 598.4h100v100H370z" stroke="#000" stroke-width="2" fill="#e5e5e5"/><path d="M390 608.4h60v20h-60zM390 638.4h60v20h-60zM390 668.4h60v20h-60z" stroke="#000" stroke-width="2" fill="#fff"/><path d="M250 718.4h100v100H250z" stroke="#000" stroke-width="2" fill="#e5e5e5"/><path d="M270 728.4h30v20h-30zM270 758.4h30v20h-30zM270 788.4h30v20h-30z" stroke="#000" stroke-width="2" fill="#fff"/><path d="M360 502v39.5" stroke="#000" stroke-width="2" fill="none"/><path d="M361 502.03h-2V501h2z"/><path d="M360 556.76l-4.64-14.26h9.28z" stroke="#000" stroke-width="2"/><path d="M510.94 501.33l151.58 52.6" stroke="#000" stroke-width="2" fill="none"/><path d="M510.64 502.28l-3.7-1.28h4.15z"/><path d="M676.94 558.94l-15-.3 3.05-8.76z" stroke="#000" stroke-width="2"/><defs><path d="M205 0l-28-72H64L36 0H1l101-248h38L239 0h-34zm-38-99l-47-123c-12 45-31 82-46 123h93" id="g"/><path d="M59-47c-2 24 18 29 38 22v24C64 9 27 4 27-40v-127H5v-23h24l9-43h21v43h35v23H59v120" id="h"/><path d="M114-163C36-179 61-72 57 0H25l-1-190h30c1 12-1 29 2 39 6-27 23-49 58-41v29" id="i"/><path d="M24-231v-30h32v30H24zM24 0v-190h32V0H24" id="j"/><path d="M115-194c53 0 69 39 70 98 0 66-23 100-70 100C84 3 66-7 56-30L54 0H23l1-261h32v101c10-23 28-34 59-34zm-8 174c40 0 45-34 45-75 0-40-5-75-45-74-42 0-51 32-51 76 0 43 10 73 51 73" id="k"/><path d="M84 4C-5 8 30-112 23-190h32v120c0 31 7 50 39 49 72-2 45-101 50-169h31l1 190h-30c-1-10 1-25-2-33-11 22-28 36-60 37" id="l"/><path d="M100-194c63 0 86 42 84 106H49c0 40 14 67 53 68 26 1 43-12 49-29l28 8c-11 28-37 45-77 45C44 4 14-33 15-96c1-61 26-98 85-98zm52 81c6-60-76-77-97-28-3 7-6 17-6 28h103" id="m"/><g id="a"><use transform="matrix(0.05,0,0,0.05,0,0)" xlink:href="#g"/><use transform="matrix(0.05,0,0,0.05,12,0)" xlink:href="#h"/><use transform="matrix(0.05,0,0,0.05,17,0)" xlink:href="#h"/><use transform="matrix(0.05,0,0,0.05,22,0)" xlink:href="#i"/><use transform="matrix(0.05,0,0,0.05,27.950000000000003,0)" xlink:href="#j"/><use transform="matrix(0.05,0,0,0.05,31.899999999999995,0)" xlink:href="#k"/><use transform="matrix(0.05,0,0,0.05,41.9,0)" xlink:href="#l"/><use transform="matrix(0.05,0,0,0.05,51.900000000000006,0)" xlink:href="#h"/><use transform="matrix(0.05,0,0,0.05,56.900000000000006,0)" xlink:href="#m"/></g><path d="M117-194c89-4 53 116 60 194h-32v-121c0-31-8-49-39-48C34-167 62-67 57 0H25l-1-190h30c1 10-1 24 2 32 11-22 29-35 61-36" id="n"/><path d="M210-169c-67 3-38 105-44 169h-31v-121c0-29-5-50-35-48C34-165 62-65 56 0H25l-1-190h30c1 10-1 24 2 32 10-44 99-50 107 0 11-21 27-35 58-36 85-2 47 119 55 194h-31v-121c0-29-5-49-35-48" id="o"/><g id="b"><use transform="matrix(0.05,0,0,0.05,0,0)" xlink:href="#m"/><use transform="matrix(0.05,0,0,0.05,10,0)" xlink:href="#n"/><use transform="matrix(0.05,0,0,0.05,20,0)" xlink:href="#l"/><use transform="matrix(0.05,0,0,0.05,30,0)" xlink:href="#o"/></g><path d="M135-143c-3-34-86-38-87 0 15 53 115 12 119 90S17 21 10-45l28-5c4 36 97 45 98 0-10-56-113-15-118-90-4-57 82-63 122-42 12 7 21 19 24 35" id="p"/><path d="M100-194c62-1 85 37 85 99 1 63-27 99-86 99S16-35 15-95c0-66 28-99 85-99zM99-20c44 1 53-31 53-75 0-43-8-75-51-75s-53 32-53 75 10 74 51 75" id="q"/><g id="c"><use transform="matrix(0.05,0,0,0.05,0,0)" xlink:href="#p"/><use transform="matrix(0.05,0,0,0.05,9,0)" xlink:href="#h"/><use transform="matrix(0.05,0,0,0.05,14,0)" xlink:href="#q"/><use transform="matrix(0.05,0,0,0.05,24,0)" xlink:href="#i"/><use transform="matrix(0.05,0,0,0.05,29.950000000000003,0)" xlink:href="#m"/></g><path d="M212-179c-10-28-35-45-73-45-59 0-87 40-87 99 0 60 29 101 89 101 43 0 62-24 78-52l27 14C228-24 195 4 139 4 59 4 22-46 18-125c-6-104 99-153 187-111 19 9 31 26 39 46" id="r"/><use transform="matrix(0.05,0,0,0.05,0,0)" xlink:href="#r" id="d"/><path d="M160-131c35 5 61 23 61 61C221 17 115-2 30 0v-248c76 3 177-17 177 60 0 33-19 50-47 57zm-97-11c50-1 110 9 110-42 0-47-63-36-110-37v79zm0 115c55-2 124 14 124-45 0-56-70-42-124-44v89" id="s"/><use transform="matrix(0.05,0,0,0.05,0,0)" xlink:href="#s" id="e"/><use transform="matrix(0.05,0,0,0.05,0,0)" xlink:href="#g" id="f"/></defs></g></svg>