<svg version="1.1" viewBox="0.0 0.0 600.0 371.0" fill="none" stroke="none" stroke-linecap="square" stroke-miterlimit="10" width="600" height="371" xmlns:xlink="http://www.w3.org/1999/xlink" xmlns="http://www.w3.org/2000/svg"><path fill="#ffffff" d="M0 0L600.0 0L600.0 371.0L0 371.0L0 0Z" fill-rule="nonzero"/><path stroke="#cccccc" stroke-width="1.0" stroke-linecap="butt" d="M128.5 85.5L128.5 300.5" fill-rule="nonzero"/><path stroke="#cccccc" stroke-width="1.0" stroke-linecap="butt" d="M227.5 85.5L227.5 300.5" fill-rule="nonzero"/><path stroke="#cccccc" stroke-width="1.0" stroke-linecap="butt" d="M326.5 85.5L326.5 300.5" fill-rule="nonzero"/><path stroke="#cccccc" stroke-width="1.0" stroke-linecap="butt" d="M424.5 85.5L424.5 300.5" fill-rule="nonzero"/><path stroke="#cccccc" stroke-width="1.0" stroke-linecap="butt" d="M523.5 85.5L523.5 300.5" fill-rule="nonzero"/><path stroke="#333333" stroke-width="1.0" stroke-linecap="butt" d="M77.5 300.5L525.5 300.5" fill-rule="nonzero"/><path stroke="#cccccc" stroke-width="1.0" stroke-linecap="butt" d="M77.5 246.5L525.5 246.5" fill-rule="nonzero"/><path stroke="#cccccc" stroke-width="1.0" stroke-linecap="butt" d="M77.5 193.5L525.5 193.5" fill-rule="nonzero"/><path stroke="#cccccc" stroke-width="1.0" stroke-linecap="butt" d="M77.5 139.5L525.5 139.5" fill-rule="nonzero"/><path stroke="#cccccc" stroke-width="1.0" stroke-linecap="butt" d="M77.5 85.5L525.5 85.5" fill-rule="nonzero"/><clipPath id="id_0"><path d="M77.55 85.916664L525.16 85.916664L525.16 300.45L77.55 300.45L77.55 85.916664Z" clip-rule="nonzero"/></clipPath><path stroke="#3c78d8" stroke-width="1.0" stroke-linecap="butt" clip-path="url(#id_0)" d="M79.53229 268.27L128.82622 255.398L178.12016 229.654L227.4141 214.63667L276.70804 191.038L326.00195 167.43933L375.2959 141.69533L424.58984 122.38734L473.8838 98.788666L523.17773 88.062" fill-rule="nonzero"/><path stroke="#f1c232" stroke-width="1.0" stroke-linecap="butt" clip-path="url(#id_0)" d="M79.53229 289.72333L128.82622 289.72333L178.12016 288.65067L227.4141 287.578L276.70804 285.43268L326.00195 284.36L375.2959 283.28732L424.58984 281.142L473.8838 280.06934L523.17773 278.99667" fill-rule="nonzero"/><path fill="#3c78d8" clip-path="url(#id_0)" d="M81.53229 268.27C81.53229 269.37457 80.636856 270.27 79.53229 270.27C78.42772 270.27 77.53229 269.37457 77.53229 268.27C77.53229 267.16544 78.42772 266.27 79.53229 266.27C80.636856 266.27 81.53229 267.16544 81.53229 268.27Z" fill-rule="nonzero"/><path fill="#3c78d8" clip-path="url(#id_0)" d="M130.82622 255.398C130.82622 256.50256 129.93079 257.398 128.82622 257.398C127.72165 257.398 126.826225 256.50256 126.826225 255.398C126.826225 254.29343 127.72165 253.398 128.82622 253.398C129.93079 253.398 130.82622 254.29343 130.82622 255.398Z" fill-rule="nonzero"/><path fill="#3c78d8" clip-path="url(#id_0)" d="M180.12016 229.654C180.12016 230.75858 179.22473 231.654 178.12016 231.654C177.0156 231.654 176.12016 230.75858 176.12016 229.654C176.12016 228.54942 177.0156 227.654 178.12016 227.654C179.22473 227.654 180.12016 228.54942 180.12016 229.654Z" fill-rule="nonzero"/><path fill="#3c78d8" clip-path="url(#id_0)" d="M229.4141 214.63667C229.4141 215.74124 228.51866 216.63667 227.4141 216.63667C226.30952 216.63667 225.4141 215.74124 225.4141 214.63667C225.4141 213.5321 226.30952 212.63667 227.4141 212.63667C228.51866 212.63667 229.4141 213.5321 229.4141 214.63667Z" fill-rule="nonzero"/><path fill="#3c78d8" clip-path="url(#id_0)" d="M278.70804 191.038C278.70804 192.14256 277.8126 193.038 276.70804 193.038C275.60345 193.038 274.70804 192.14256 274.70804 191.038C274.70804 189.93343 275.60345 189.038 276.70804 189.038C277.8126 189.038 278.70804 189.93343 278.70804 191.038Z" fill-rule="nonzero"/><path fill="#3c78d8" clip-path="url(#id_0)" d="M328.00195 167.43933C328.00195 168.5439 327.10654 169.43933 326.00195 169.43933C324.8974 169.43933 324.00195 168.5439 324.00195 167.43933C324.00195 166.33476 324.8974 165.43933 326.00195 165.43933C327.10654 165.43933 328.00195 166.33476 328.00195 167.43933Z" fill-rule="nonzero"/><path fill="#3c78d8" clip-path="url(#id_0)" d="M377.2959 141.69533C377.2959 142.7999 376.40048 143.69533 375.2959 143.69533C374.19135 143.69533 373.2959 142.7999 373.2959 141.69533C373.2959 140.59076 374.19135 139.69533 375.2959 139.69533C376.40048 139.69533 377.2959 140.59076 377.2959 141.69533Z" fill-rule="nonzero"/><path fill="#3c78d8" clip-path="url(#id_0)" d="M426.58984 122.38734C426.58984 123.491905 425.6944 124.38734 424.58984 124.38734C423.48526 124.38734 422.58984 123.491905 422.58984 122.38734C422.58984 121.28276 423.48526 120.38734 424.58984 120.38734C425.6944 120.38734 426.58984 121.28276 426.58984 122.38734Z" fill-rule="nonzero"/><path fill="#3c78d8" clip-path="url(#id_0)" d="M475.8838 98.788666C475.8838 99.893234 474.98834 100.788666 473.8838 100.788666C472.7792 100.788666 471.8838 99.893234 471.8838 98.788666C471.8838 97.6841 472.7792 96.788666 473.8838 96.788666C474.98834 96.788666 475.8838 97.6841 475.8838 98.788666Z" fill-rule="nonzero"/><path fill="#3c78d8" clip-path="url(#id_0)" d="M525.17773 88.062C525.17773 89.16657 524.2823 90.062 523.17773 90.062C522.0731 90.062 521.17773 89.16657 521.17773 88.062C521.17773 86.95743 522.0731 86.062 523.17773 86.062C524.2823 86.062 525.17773 86.95743 525.17773 88.062Z" fill-rule="nonzero"/><path fill="#f1c232" clip-path="url(#id_0)" d="M81.53229 289.72333C81.53229 290.8279 80.636856 291.72333 79.53229 291.72333C78.42772 291.72333 77.53229 290.8279 77.53229 289.72333C77.53229 288.61877 78.42772 287.72333 79.53229 287.72333C80.636856 287.72333 81.53229 288.61877 81.53229 289.72333Z" fill-rule="nonzero"/><path fill="#f1c232" clip-path="url(#id_0)" d="M130.82622 289.72333C130.82622 290.8279 129.93079 291.72333 128.82622 291.72333C127.72165 291.72333 126.826225 290.8279 126.826225 289.72333C126.826225 288.61877 127.72165 287.72333 128.82622 287.72333C129.93079 287.72333 130.82622 288.61877 130.82622 289.72333Z" fill-rule="nonzero"/><path fill="#f1c232" clip-path="url(#id_0)" d="M180.12016 288.65067C180.12016 289.75525 179.22473 290.65067 178.12016 290.65067C177.0156 290.65067 176.12016 289.75525 176.12016 288.65067C176.12016 287.5461 177.0156 286.65067 178.12016 286.65067C179.22473 286.65067 180.12016 287.5461 180.12016 288.65067Z" fill-rule="nonzero"/><path fill="#f1c232" clip-path="url(#id_0)" d="M229.4141 287.578C229.4141 288.68256 228.51866 289.578 227.4141 289.578C226.30952 289.578 225.4141 288.68256 225.4141 287.578C225.4141 286.47342 226.30952 285.578 227.4141 285.578C228.51866 285.578 229.4141 286.47342 229.4141 287.578Z" fill-rule="nonzero"/><path fill="#f1c232" clip-path="url(#id_0)" d="M278.70804 285.43268C278.70804 286.53723 277.8126 287.43268 276.70804 287.43268C275.60345 287.43268 274.70804 286.53723 274.70804 285.43268C274.70804 284.3281 275.60345 283.43268 276.70804 283.43268C277.8126 283.43268 278.70804 284.3281 278.70804 285.43268Z" fill-rule="nonzero"/><path fill="#f1c232" clip-path="url(#id_0)" d="M328.00195 284.36C328.00195 285.46457 327.10654 286.36 326.00195 286.36C324.8974 286.36 324.00195 285.46457 324.00195 284.36C324.00195 283.25543 324.8974 282.36 326.00195 282.36C327.10654 282.36 328.00195 283.25543 328.00195 284.36Z" fill-rule="nonzero"/><path fill="#f1c232" clip-path="url(#id_0)" d="M377.2959 283.28732C377.2959 284.3919 376.40048 285.28732 375.2959 285.28732C374.19135 285.28732 373.2959 284.3919 373.2959 283.28732C373.2959 282.18277 374.19135 281.28732 375.2959 281.28732C376.40048 281.28732 377.2959 282.18277 377.2959 283.28732Z" fill-rule="nonzero"/><path fill="#f1c232" clip-path="url(#id_0)" d="M426.58984 281.142C426.58984 282.24658 425.6944 283.142 424.58984 283.142C423.48526 283.142 422.58984 282.24658 422.58984 281.142C422.58984 280.03745 423.48526 279.142 424.58984 279.142C425.6944 279.142 426.58984 280.03745 426.58984 281.142Z" fill-rule="nonzero"/><path fill="#f1c232" clip-path="url(#id_0)" d="M475.8838 280.06934C475.8838 281.1739 474.98834 282.06934 473.8838 282.06934C472.7792 282.06934 471.8838 281.1739 471.8838 280.06934C471.8838 278.96475 472.7792 278.06934 473.8838 278.06934C474.98834 278.06934 475.8838 278.96475 475.8838 280.06934Z" fill-rule="nonzero"/><path fill="#f1c232" clip-path="url(#id_0)" d="M525.17773 278.99667C525.17773 280.10123 524.2823 280.99667 523.17773 280.99667C522.0731 280.99667 521.17773 280.10123 521.17773 278.99667C521.17773 277.8921 522.0731 276.99667 523.17773 276.99667C524.2823 276.99667 525.17773 277.8921 525.17773 278.99667Z" fill-rule="nonzero"/><path fill="#000000" d="M218.77687 349.45L218.77687 340.85626L221.74562 340.85626Q222.74562 340.85626 223.27687 340.98126Q224.01125 341.15314 224.52687 341.59064Q225.21437 342.16876 225.5425 343.075Q225.88625 343.96564 225.88625 345.10626Q225.88625 346.09064 225.65187 346.84064Q225.43312 347.59064 225.07375 348.09064Q224.71437 348.59064 224.27687 348.8719Q223.855 349.15314 223.26125 349.3094Q222.6675 349.45 221.88625 349.45L218.77687 349.45ZM219.9175 348.4344L221.74562 348.4344Q222.605 348.4344 223.08937 348.27814Q223.57375 348.1219 223.855 347.825Q224.26125 347.4344 224.48 346.7469Q224.71437 346.0594 224.71437 345.09064Q224.71437 343.7469 224.26125 343.02814Q223.82375 342.29376 223.19875 342.04376Q222.73 341.8719 221.73 341.8719L219.9175 341.8719L219.9175 348.4344ZM227.26125 346.34064Q227.26125 344.60626 228.21437 343.77814Q229.01125 343.09064 230.1675 343.09064Q231.44875 343.09064 232.26125 343.9344Q233.08937 344.7625 233.08937 346.2469Q233.08937 347.45 232.73 348.1375Q232.37062 348.825 231.6675 349.21564Q230.98 349.59064 230.1675 349.59064Q228.87062 349.59064 228.05812 348.7625Q227.26125 347.91876 227.26125 346.34064ZM228.33937 346.34064Q228.33937 347.52814 228.855 348.1219Q229.38625 348.71564 230.1675 348.71564Q230.96437 348.71564 231.48 348.1219Q231.99562 347.52814 231.99562 346.3094Q231.99562 345.15314 231.46437 344.5594Q230.94875 343.96564 230.1675 343.96564Q229.38625 343.96564 228.855 344.5594Q228.33937 345.1375 228.33937 346.34064ZM238.71437 347.16876L239.74562 347.3094Q239.57375 348.3719 238.87062 348.98126Q238.1675 349.59064 237.15187 349.59064Q235.87062 349.59064 235.08937 348.7625Q234.32375 347.91876 234.32375 346.35626Q234.32375 345.35626 234.65187 344.60626Q234.99562 343.84064 235.6675 343.46564Q236.355 343.09064 237.1675 343.09064Q238.1675 343.09064 238.80812 343.60626Q239.46437 344.10626 239.65187 345.0594L238.62062 345.21564Q238.48 344.59064 238.105 344.27814Q237.73 343.95 237.19875 343.95Q236.40187 343.95 235.90187 344.52814Q235.40187 345.09064 235.40187 346.325Q235.40187 347.59064 235.88625 348.15314Q236.37062 348.71564 237.13625 348.71564Q237.76125 348.71564 238.1675 348.34064Q238.58937 347.96564 238.71437 347.16876ZM244.73 349.45L244.73 348.52814Q243.99562 349.59064 242.74562 349.59064Q242.19875 349.59064 241.71437 349.3875Q241.24562 349.16876 241.01125 348.85626Q240.77687 348.52814 240.68312 348.0594Q240.62062 347.7625 240.62062 347.075L240.62062 343.23126L241.68312 343.23126L241.68312 346.6844Q241.68312 347.4969 241.74562 347.79376Q241.83937 348.2 242.15187 348.45Q242.48 348.6844 242.96437 348.6844Q243.43312 348.6844 243.83937 348.45Q244.26125 348.2 244.43312 347.77814Q244.62062 347.35626 244.62062 346.5594L244.62062 343.23126L245.6675 343.23126L245.6675 349.45L244.73 349.45ZM247.65187 349.45L247.65187 343.23126L248.58937 343.23126L248.58937 344.10626Q248.88625 343.6375 249.37062 343.3719Q249.855 343.09064 250.48 343.09064Q251.1675 343.09064 251.605 343.3719Q252.05812 343.65314 252.23 344.16876Q252.98 343.09064 254.15187 343.09064Q255.08937 343.09064 255.57375 343.60626Q256.07373 344.10626 256.07373 345.1844L256.07373 349.45L255.02687 349.45L255.02687 345.52814Q255.02687 344.90314 254.9175 344.6219Q254.82375 344.34064 254.55812 344.16876Q254.2925 343.9969 253.9175 343.9969Q253.26125 343.9969 252.82375 344.4344Q252.40187 344.8719 252.40187 345.84064L252.40187 349.45L251.33937 349.45L251.33937 345.40314Q251.33937 344.7 251.07375 344.35626Q250.82375 343.9969 250.24562 343.9969Q249.7925 343.9969 249.4175 344.23126Q249.0425 344.46564 248.87062 344.91876Q248.69875 345.3719 248.69875 346.21564L248.69875 349.45L247.65187 349.45ZM261.90186 347.45L262.9956 347.575Q262.7456 348.52814 262.04248 349.0594Q261.33936 349.59064 260.26123 349.59064Q258.90186 349.59064 258.08936 348.7469Q257.29248 347.90314 257.29248 346.3875Q257.29248 344.825 258.10498 343.96564Q258.91748 343.09064 260.19873 343.09064Q261.44873 343.09064 262.22998 343.9344Q263.02686 344.77814 263.02686 346.325Q263.02686 346.41876 263.02686 346.60626L258.38623 346.60626Q258.44873 347.6375 258.96436 348.1844Q259.47998 348.71564 260.26123 348.71564Q260.83936 348.71564 261.2456 348.41876Q261.66748 348.10626 261.90186 347.45ZM258.44873 345.7469L261.91748 345.7469Q261.85498 344.95 261.52686 344.5594Q261.01123 343.95 260.21436 343.95Q259.47998 343.95 258.97998 344.4344Q258.4956 344.91876 258.44873 345.7469ZM264.65186 349.45L264.65186 343.23126L265.58936 343.23126L265.58936 344.10626Q266.27686 343.09064 267.57373 343.09064Q268.13623 343.09064 268.60498 343.29376Q269.08936 343.4969 269.32373 343.825Q269.5581 344.15314 269.65186 344.59064Q269.69873 344.8875 269.69873 345.6219L269.69873 349.45L268.65186 349.45L268.65186 345.66876Q268.65186 345.0125 268.52686 344.7Q268.40186 344.3875 268.08936 344.2Q267.77686 343.9969 267.35498 343.9969Q266.6831 343.9969 266.1831 344.4344Q265.69873 344.85626 265.69873 346.04376L265.69873 349.45L264.65186 349.45ZM273.94873 348.5125L274.10498 349.4344Q273.65186 349.52814 273.3081 349.52814Q272.72998 349.52814 272.41748 349.35626Q272.10498 349.16876 271.96436 348.8719Q271.83936 348.575 271.83936 347.6219L271.83936 344.04376L271.07373 344.04376L271.07373 343.23126L271.83936 343.23126L271.83936 341.6844L272.88623 341.0594L272.88623 343.23126L273.94873 343.23126L273.94873 344.04376L272.88623 344.04376L272.88623 347.6844Q272.88623 348.1375 272.9331 348.2625Q272.9956 348.3875 273.1206 348.46564Q273.2456 348.54376 273.47998 348.54376Q273.66748 348.54376 273.94873 348.5125ZM274.22998 347.59064L275.26123 347.4344Q275.35498 348.0594 275.7456 348.3875Q276.15186 348.71564 276.88623 348.71564Q277.60498 348.71564 277.94873 348.4344Q278.3081 348.1375 278.3081 347.73126Q278.3081 347.3719 277.9956 347.16876Q277.77686 347.02814 276.91748 346.8094Q275.76123 346.5125 275.3081 346.3094Q274.8706 346.09064 274.63623 345.71564Q274.40186 345.34064 274.40186 344.8719Q274.40186 344.46564 274.58936 344.10626Q274.77686 343.7469 275.10498 343.5125Q275.35498 343.34064 275.77686 343.21564Q276.19873 343.09064 276.69873 343.09064Q277.41748 343.09064 277.96436 343.3094Q278.52686 343.5125 278.79248 343.8719Q279.0581 344.23126 279.15186 344.825L278.1206 344.96564Q278.0581 344.4969 277.71436 344.23126Q277.38623 343.95 276.76123 343.95Q276.04248 343.95 275.72998 344.2Q275.41748 344.4344 275.41748 344.7625Q275.41748 344.96564 275.54248 345.1219Q275.6831 345.29376 275.94873 345.40314Q276.10498 345.46564 276.88623 345.66876Q278.01123 345.98126 278.44873 346.16876Q278.88623 346.35626 279.13623 346.71564Q279.38623 347.075 279.38623 347.6219Q279.38623 348.15314 279.07373 348.6219Q278.77686 349.075 278.19873 349.34064Q277.6206 349.59064 276.88623 349.59064Q275.66748 349.59064 275.02686 349.09064Q274.40186 348.575 274.22998 347.59064ZM283.65186 342.075L283.65186 340.85626L284.71436 340.85626L284.71436 342.075L283.65186 342.075ZM283.65186 349.45L283.65186 343.23126L284.71436 343.23126L284.71436 349.45L283.65186 349.45ZM286.65186 349.45L286.65186 343.23126L287.58936 343.23126L287.58936 344.10626Q288.27686 343.09064 289.57373 343.09064Q290.13623 343.09064 290.60498 343.29376Q291.08936 343.4969 291.32373 343.825Q291.5581 344.15314 291.65186 344.59064Q291.69873 344.8875 291.69873 345.6219L291.69873 349.45L290.65186 349.45L290.65186 345.66876Q290.65186 345.0125 290.52686 344.7Q290.40186 344.3875 290.08936 344.2Q289.77686 343.9969 289.35498 343.9969Q288.6831 343.9969 288.1831 344.4344Q287.69873 344.85626 287.69873 346.04376L287.69873 349.45L286.65186 349.45ZM297.6831 349.45L297.6831 348.66876Q297.08936 349.59064 295.94873 349.59064Q295.19873 349.59064 294.57373 349.1844Q293.94873 348.7625 293.60498 348.02814Q293.26123 347.29376 293.26123 346.34064Q293.26123 345.41876 293.57373 344.65314Q293.88623 343.8875 294.51123 343.4969Q295.13623 343.09064 295.90186 343.09064Q296.46436 343.09064 296.90186 343.325Q297.33936 343.5594 297.6206 343.9344L297.6206 340.85626L298.66748 340.85626L298.66748 349.45L297.6831 349.45ZM294.35498 346.34064Q294.35498 347.54376 294.85498 348.1375Q295.35498 348.71564 296.04248 348.71564Q296.72998 348.71564 297.21436 348.15314Q297.69873 347.59064 297.69873 346.4344Q297.69873 345.15314 297.19873 344.5594Q296.71436 343.96564 295.9956 343.96564Q295.29248 343.96564 294.82373 344.54376Q294.35498 345.10626 294.35498 346.34064ZM304.90186 347.45L305.9956 347.575Q305.7456 348.52814 305.04248 349.0594Q304.33936 349.59064 303.26123 349.59064Q301.90186 349.59064 301.08936 348.7469Q300.29248 347.90314 300.29248 346.3875Q300.29248 344.825 301.10498 343.96564Q301.91748 343.09064 303.19873 343.09064Q304.44873 343.09064 305.22998 343.9344Q306.02686 344.77814 306.02686 346.325Q306.02686 346.41876 306.02686 346.60626L301.38623 346.60626Q301.44873 347.6375 301.96436 348.1844Q302.47998 348.71564 303.26123 348.71564Q303.83936 348.71564 304.2456 348.41876Q304.66748 348.10626 304.90186 347.45ZM301.44873 345.7469L304.91748 345.7469Q304.85498 344.95 304.52686 344.5594Q304.01123 343.95 303.21436 343.95Q302.47998 343.95 301.97998 344.4344Q301.4956 344.91876 301.44873 345.7469ZM306.94873 349.45L309.21436 346.21564L307.1206 343.23126L308.4331 343.23126L309.38623 344.6844Q309.65186 345.10626 309.82373 345.3875Q310.07373 344.9969 310.29248 344.7L311.33936 343.23126L312.60498 343.23126L310.44873 346.15314L312.76123 349.45L311.47998 349.45L310.19873 347.5125L309.85498 346.9969L308.21436 349.45L306.94873 349.45ZM317.90186 347.45L318.9956 347.575Q318.7456 348.52814 318.04248 349.0594Q317.33936 349.59064 316.26123 349.59064Q314.90186 349.59064 314.08936 348.7469Q313.29248 347.90314 313.29248 346.3875Q313.29248 344.825 314.10498 343.96564Q314.91748 343.09064 316.19873 343.09064Q317.44873 343.09064 318.22998 343.9344Q319.02686 344.77814 319.02686 346.325Q319.02686 346.41876 319.02686 346.60626L314.38623 346.60626Q314.44873 347.6375 314.96436 348.1844Q315.47998 348.71564 316.26123 348.71564Q316.83936 348.71564 317.2456 348.41876Q317.66748 348.10626 317.90186 347.45ZM314.44873 345.7469L317.91748 345.7469Q317.85498 344.95 317.52686 344.5594Q317.01123 343.95 316.21436 343.95Q315.47998 343.95 314.97998 344.4344Q314.4956 344.91876 314.44873 345.7469ZM324.6831 349.45L324.6831 348.66876Q324.08936 349.59064 322.94873 349.59064Q322.19873 349.59064 321.57373 349.1844Q320.94873 348.7625 320.60498 348.02814Q320.26123 347.29376 320.26123 346.34064Q320.26123 345.41876 320.57373 344.65314Q320.88623 343.8875 321.51123 343.4969Q322.13623 343.09064 322.90186 343.09064Q323.46436 343.09064 323.90186 343.325Q324.33936 343.5594 324.6206 343.9344L324.6206 340.85626L325.66748 340.85626L325.66748 349.45L324.6831 349.45ZM321.35498 346.34064Q321.35498 347.54376 321.85498 348.1375Q322.35498 348.71564 323.04248 348.71564Q323.72998 348.71564 324.21436 348.15314Q324.69873 347.59064 324.69873 346.4344Q324.69873 345.15314 324.19873 344.5594Q323.71436 343.96564 322.9956 343.96564Q322.29248 343.96564 321.82373 344.54376Q321.35498 345.10626 321.35498 346.34064ZM330.65186 342.075L330.65186 340.85626L331.71436 340.85626L331.71436 342.075L330.65186 342.075ZM330.65186 349.45L330.65186 343.23126L331.71436 343.23126L331.71436 349.45L330.65186 349.45ZM333.65186 349.45L333.65186 343.23126L334.58936 343.23126L334.58936 344.10626Q335.27686 343.09064 336.57373 343.09064Q337.13623 343.09064 337.60498 343.29376Q338.08936 343.4969 338.32373 343.825Q338.5581 344.15314 338.65186 344.59064Q338.69873 344.8875 338.69873 345.6219L338.69873 349.45L337.65186 349.45L337.65186 345.66876Q337.65186 345.0125 337.52686 344.7Q337.40186 344.3875 337.08936 344.2Q336.77686 343.9969 336.35498 343.9969Q335.6831 343.9969 335.1831 344.4344Q334.69873 344.85626 334.69873 346.04376L334.69873 349.45L333.65186 349.45ZM343.7456 349.45L343.7456 340.85626L345.46436 340.85626L347.4956 346.9344Q347.77686 347.79376 347.90186 348.21564Q348.04248 347.7469 348.35498 346.84064L350.41748 340.85626L351.94873 340.85626L351.94873 349.45L350.85498 349.45L350.85498 342.2625L348.35498 349.45L347.32373 349.45L344.83936 342.1375L344.83936 349.45L343.7456 349.45ZM353.65186 342.075L353.65186 340.85626L354.71436 340.85626L354.71436 342.075L353.65186 342.075ZM353.65186 349.45L353.65186 343.23126L354.71436 343.23126L354.71436 349.45L353.65186 349.45ZM356.6206 349.45L356.6206 340.85626L357.6831 340.85626L357.6831 349.45L356.6206 349.45ZM359.6206 349.45L359.6206 340.85626L360.6831 340.85626L360.6831 349.45L359.6206 349.45ZM362.65186 342.075L362.65186 340.85626L363.71436 340.85626L363.71436 342.075L362.65186 342.075ZM362.65186 349.45L362.65186 343.23126L363.71436 343.23126L363.71436 349.45L362.65186 349.45ZM365.26123 346.34064Q365.26123 344.60626 366.21436 343.77814Q367.01123 343.09064 368.16748 343.09064Q369.44873 343.09064 370.26123 343.9344Q371.08936 344.7625 371.08936 346.2469Q371.08936 347.45 370.72998 348.1375Q370.3706 348.825 369.66748 349.21564Q368.97998 349.59064 368.16748 349.59064Q366.8706 349.59064 366.0581 348.7625Q365.26123 347.91876 365.26123 346.34064ZM366.33936 346.34064Q366.33936 347.52814 366.85498 348.1219Q367.38623 348.71564 368.16748 348.71564Q368.96436 348.71564 369.47998 348.1219Q369.9956 347.52814 369.9956 346.3094Q369.9956 345.15314 369.46436 344.5594Q368.94873 343.96564 368.16748 343.96564Q367.38623 343.96564 366.85498 344.5594Q366.33936 345.1375 366.33936 346.34064ZM372.65186 349.45L372.65186 343.23126L373.58936 343.23126L373.58936 344.10626Q374.27686 343.09064 375.57373 343.09064Q376.13623 343.09064 376.60498 343.29376Q377.08936 343.4969 377.32373 343.825Q377.5581 344.15314 377.65186 344.59064Q377.69873 344.8875 377.69873 345.6219L377.69873 349.45L376.65186 349.45L376.65186 345.66876Q376.65186 345.0125 376.52686 344.7Q376.40186 344.3875 376.08936 344.2Q375.77686 343.9969 375.35498 343.9969Q374.6831 343.9969 374.1831 344.4344Q373.69873 344.85626 373.69873 346.04376L373.69873 349.45L372.65186 349.45ZM379.22998 347.59064L380.26123 347.4344Q380.35498 348.0594 380.7456 348.3875Q381.15186 348.71564 381.88623 348.71564Q382.60498 348.71564 382.94873 348.4344Q383.3081 348.1375 383.3081 347.73126Q383.3081 347.3719 382.9956 347.16876Q382.77686 347.02814 381.91748 346.8094Q380.76123 346.5125 380.3081 346.3094Q379.8706 346.09064 379.63623 345.71564Q379.40186 345.34064 379.40186 344.8719Q379.40186 344.46564 379.58936 344.10626Q379.77686 343.7469 380.10498 343.5125Q380.35498 343.34064 380.77686 343.21564Q381.19873 343.09064 381.69873 343.09064Q382.41748 343.09064 382.96436 343.3094Q383.52686 343.5125 383.79248 343.8719Q384.0581 344.23126 384.15186 344.825L383.1206 344.96564Q383.0581 344.4969 382.71436 344.23126Q382.38623 343.95 381.76123 343.95Q381.04248 343.95 380.72998 344.2Q380.41748 344.4344 380.41748 344.7625Q380.41748 344.96564 380.54248 345.1219Q380.6831 345.29376 380.94873 345.40314Q381.10498 345.46564 381.88623 345.66876Q383.01123 345.98126 383.44873 346.16876Q383.88623 346.35626 384.13623 346.71564Q384.38623 347.075 384.38623 347.6219Q384.38623 348.15314 384.07373 348.6219Q383.77686 349.075 383.19873 349.34064Q382.6206 349.59064 381.88623 349.59064Q380.66748 349.59064 380.02686 349.09064Q379.40186 348.575 379.22998 347.59064Z" fill-rule="nonzero"/><path fill="#000000" d="M27.565638 271.52707L27.471888 270.51144Q28.190638 270.38644 28.518763 270.02707Q28.831263 269.65207 28.831263 269.08957Q28.831263 268.6052 28.612513 268.24582Q28.378138 267.87082 28.018763 267.63644Q27.643763 267.40207 27.018763 267.24582Q26.378138 267.08957 25.721888 267.08957Q25.643763 267.08957 25.503138 267.08957Q26.003138 267.40207 26.331263 267.94894Q26.643763 268.49582 26.643763 269.13644Q26.643763 270.21457 25.878138 270.94894Q25.096888 271.68332 23.831263 271.68332Q22.518763 271.68332 21.721888 270.9177Q20.925013 270.13644 20.925013 268.9802Q20.925013 268.15207 21.378138 267.46457Q21.831263 266.76144 22.675013 266.40207Q23.503138 266.0427 25.081263 266.0427Q26.721888 266.0427 27.706263 266.40207Q28.675013 266.74582 29.190638 267.46457Q29.690638 268.1677 29.690638 269.1052Q29.690638 270.12082 29.143763 270.76144Q28.581263 271.40207 27.565638 271.52707ZM23.768763 267.21457Q22.862513 267.21457 22.331263 267.69894Q21.800013 268.1677 21.800013 268.8552Q21.800013 269.55832 22.378138 270.08957Q22.940638 270.6052 23.862513 270.6052Q24.675013 270.6052 25.190638 270.1052Q25.706263 269.6052 25.706263 268.88644Q25.706263 268.15207 25.190638 267.68332Q24.675013 267.21457 23.768763 267.21457ZM27.300013 264.68332L27.206263 263.57394Q28.018763 263.44894 28.425013 263.01144Q28.831263 262.55832 28.831263 261.9177Q28.831263 261.1677 28.253138 260.63644Q27.675013 260.1052 26.737513 260.1052Q25.831263 260.1052 25.315638 260.62082Q24.784388 261.12082 24.784388 261.94894Q24.784388 262.44894 25.018763 262.87082Q25.253138 263.27707 25.612513 263.51144L25.487513 264.49582L21.081263 263.6677L21.081263 259.38644L22.081263 259.38644L22.081263 262.82394L24.393763 263.27707Q23.846888 262.51144 23.846888 261.6677Q23.846888 260.5427 24.628138 259.77707Q25.409388 258.99582 26.643763 258.99582Q27.800013 258.99582 28.659388 259.6677Q29.690638 260.49582 29.690638 261.9177Q29.690638 263.08957 29.034388 263.83957Q28.378138 264.57394 27.300013 264.68332ZM31.940638 254.38646L23.331263 254.38646L23.331263 253.43333L24.128138 253.43333Q23.659388 253.08958 23.425013 252.66771Q23.190638 252.23021 23.190638 251.62083Q23.190638 250.82396 23.596888 250.21458Q24.003138 249.60521 24.753138 249.30833Q25.503138 248.99583 26.393763 248.99583Q27.346888 248.99583 28.112513 249.33958Q28.878138 249.66771 29.284388 250.32396Q29.690638 250.98021 29.690638 251.69896Q29.690638 252.23021 29.471888 252.65208Q29.237513 253.07396 28.909388 253.33958L31.940638 253.33958L31.940638 254.38646ZM26.471888 253.43333Q27.675013 253.43333 28.253138 252.94896Q28.815638 252.46458 28.815638 251.77708Q28.815638 251.07396 28.221888 250.57396Q27.628138 250.07396 26.378138 250.07396Q25.190638 250.07396 24.612513 250.55833Q24.018763 251.04271 24.018763 251.73021Q24.018763 252.40208 24.643763 252.91771Q25.268763 253.43333 26.471888 253.43333ZM27.550013 243.13646L27.675013 242.04271Q28.628138 242.29271 29.159388 242.99583Q29.690638 243.69896 29.690638 244.77708Q29.690638 246.13646 28.846888 246.94896Q28.003138 247.74583 26.487513 247.74583Q24.925013 247.74583 24.065638 246.93333Q23.190638 246.12083 23.190638 244.83958Q23.190638 243.58958 24.034388 242.80833Q24.878138 242.01146 26.425013 242.01146Q26.518763 242.01146 26.706263 242.01146L26.706263 246.65208Q27.737513 246.58958 28.284388 246.07396Q28.815638 245.55833 28.815638 244.77708Q28.815638 244.19896 28.518763 243.79271Q28.206263 243.37083 27.550013 243.13646ZM25.846888 246.58958L25.846888 243.12083Q25.050013 243.18333 24.659388 243.51146Q24.050013 244.02708 24.050013 244.82396Q24.050013 245.55833 24.534388 246.05833Q25.018763 246.54271 25.846888 246.58958ZM29.550013 240.40208L23.331263 240.40208L23.331263 239.44896L24.268763 239.44896Q23.612513 239.08958 23.409388 238.79271Q23.190638 238.48021 23.190638 238.10521Q23.190638 237.57396 23.518763 237.02708L24.503138 237.38646Q24.268763 237.77708 24.268763 238.15208Q24.268763 238.51146 24.487513 238.79271Q24.690638 239.05833 25.065638 239.16771Q25.628138 239.35521 26.284388 239.35521L29.550013 239.35521L29.550013 240.40208ZM27.268763 232.32396L27.409388 231.29271Q28.471888 231.46458 29.081263 232.16771Q29.690638 232.87083 29.690638 233.88646Q29.690638 235.16771 28.862513 235.94896Q28.018763 236.71458 26.456263 236.71458Q25.456263 236.71458 24.706263 236.38646Q23.940638 236.04271 23.565638 235.37083Q23.190638 234.68333 23.190638 233.87083Q23.190638 232.87083 23.706263 232.23021Q24.206263 231.57396 25.159388 231.38646L25.315638 232.41771Q24.690638 232.55833 24.378138 232.93333Q24.050013 233.30833 24.050013 233.83958Q24.050013 234.63646 24.628138 235.13646Q25.190638 235.63646 26.425013 235.63646Q27.690638 235.63646 28.253138 235.15208Q28.815638 234.66771 28.815638 233.90208Q28.815638 233.27708 28.440638 232.87083Q28.065638 232.44896 27.268763 232.32396ZM27.550013 226.13646L27.675013 225.04271Q28.628138 225.29271 29.159388 225.99583Q29.690638 226.69896 29.690638 227.77708Q29.690638 229.13646 28.846888 229.94896Q28.003138 230.74583 26.487513 230.74583Q24.925013 230.74583 24.065638 229.93333Q23.190638 229.12083 23.190638 227.83958Q23.190638 226.58958 24.034388 225.80833Q24.878138 225.01146 26.425013 225.01146Q26.518763 225.01146 26.706263 225.01146L26.706263 229.65208Q27.737513 229.58958 28.284388 229.07396Q28.815638 228.55833 28.815638 227.77708Q28.815638 227.19896 28.518763 226.79271Q28.206263 226.37083 27.550013 226.13646ZM25.846888 229.58958L25.846888 226.12083Q25.050013 226.18333 24.659388 226.51146Q24.050013 227.02708 24.050013 227.82396Q24.050013 228.55833 24.534388 229.05833Q25.018763 229.54271 25.846888 229.58958ZM29.550013 223.38646L23.331263 223.38646L23.331263 222.44896L24.206263 222.44896Q23.190638 221.76146 23.190638 220.46458Q23.190638 219.90208 23.393763 219.43333Q23.596888 218.94896 23.925013 218.71458Q24.253138 218.48021 24.690638 218.38646Q24.987513 218.33958 25.721888 218.33958L29.550013 218.33958L29.550013 219.38646L25.768763 219.38646Q25.112513 219.38646 24.800013 219.51146Q24.487513 219.63646 24.300013 219.94896Q24.096888 220.26146 24.096888 220.68333Q24.096888 221.35521 24.534388 221.85521Q24.956263 222.33958 26.143763 222.33958L29.550013 222.33958L29.550013 223.38646ZM28.612513 214.08958L29.534388 213.93333Q29.628138 214.38646 29.628138 214.73021Q29.628138 215.30833 29.456263 215.62083Q29.268763 215.93333 28.971888 216.07396Q28.675013 216.19896 27.721888 216.19896L24.143763 216.19896L24.143763 216.96458L23.331263 216.96458L23.331263 216.19896L21.784388 216.19896L21.159388 215.15208L23.331263 215.15208L23.331263 214.08958L24.143763 214.08958L24.143763 215.15208L27.784388 215.15208Q28.237513 215.15208 28.362513 215.10521Q28.487513 215.04271 28.565638 214.91771Q28.643763 214.79271 28.643763 214.55833Q28.643763 214.37083 28.612513 214.08958ZM22.175013 213.38646L20.956263 213.38646L20.956263 212.32396L22.175013 212.32396L22.175013 213.38646ZM29.550013 213.38646L23.331263 213.38646L23.331263 212.32396L29.550013 212.32396L29.550013 213.38646ZM29.550013 210.41771L20.956263 210.41771L20.956263 209.35521L29.550013 209.35521L29.550013 210.41771ZM27.550013 203.13646L27.675013 202.04271Q28.628138 202.29271 29.159388 202.99583Q29.690638 203.69896 29.690638 204.77708Q29.690638 206.13646 28.846888 206.94896Q28.003138 207.74583 26.487513 207.74583Q24.925013 207.74583 24.065638 206.93333Q23.190638 206.12083 23.190638 204.83958Q23.190638 203.58958 24.034388 202.80833Q24.878138 202.01146 26.425013 202.01146Q26.518763 202.01146 26.706263 202.01146L26.706263 206.65208Q27.737513 206.58958 28.284388 206.07396Q28.815638 205.55833 28.815638 204.77708Q28.815638 204.19896 28.518763 203.79271Q28.206263 203.37083 27.550013 203.13646ZM25.846888 206.58958L25.846888 203.12083Q25.050013 203.18333 24.659388 203.51146Q24.050013 204.02708 24.050013 204.82396Q24.050013 205.55833 24.534388 206.05833Q25.018763 206.54271 25.846888 206.58958ZM29.550013 197.41771L20.956263 197.41771L20.956263 196.35521L29.550013 196.35521L29.550013 197.41771ZM28.784388 190.32396Q29.284388 190.91771 29.487513 191.46458Q29.690638 191.99583 29.690638 192.62083Q29.690638 193.65208 29.190638 194.19896Q28.690638 194.74583 27.909388 194.74583Q27.456263 194.74583 27.081263 194.54271Q26.690638 194.33958 26.471888 193.99583Q26.237513 193.65208 26.128138 193.23021Q26.034388 192.93333 25.956263 192.29271Q25.815638 191.02708 25.596888 190.41771Q25.378138 190.41771 25.331263 190.41771Q24.675013 190.41771 24.409388 190.71458Q24.065638 191.12083 24.065638 191.91771Q24.065638 192.65208 24.331263 193.01146Q24.581263 193.37083 25.237513 193.54271L25.096888 194.57396Q24.440638 194.43333 24.034388 194.10521Q23.628138 193.77708 23.409388 193.16771Q23.190638 192.55833 23.190638 191.76146Q23.190638 190.96458 23.378138 190.46458Q23.565638 189.96458 23.846888 189.73021Q24.128138 189.49583 24.565638 189.40208Q24.831263 189.35521 25.534388 189.35521L26.940638 189.35521Q28.409388 189.35521 28.800013 189.29271Q29.190638 189.21458 29.550013 189.01146L29.550013 190.12083Q29.221888 190.27708 28.784388 190.32396ZM26.425013 190.41771Q26.659388 190.99583 26.831263 192.13646Q26.925013 192.79271 27.050013 193.05833Q27.159388 193.32396 27.378138 193.48021Q27.596888 193.62083 27.878138 193.62083Q28.300013 193.62083 28.581263 193.30833Q28.862513 192.98021 28.862513 192.37083Q28.862513 191.76146 28.596888 191.29271Q28.331263 190.80833 27.862513 190.58958Q27.503138 190.41771 26.815638 190.41771L26.425013 190.41771ZM28.612513 185.08958L29.534388 184.93333Q29.628138 185.38646 29.628138 185.73021Q29.628138 186.30833 29.456263 186.62083Q29.268763 186.93333 28.971888 187.07396Q28.675013 187.19896 27.721888 187.19896L24.143763 187.19896L24.143763 187.96458L23.331263 187.96458L23.331263 187.19896L21.784388 187.19896L21.159388 186.15208L23.331263 186.15208L23.331263 185.08958L24.143763 185.08958L24.143763 186.15208L27.784388 186.15208Q28.237513 186.15208 28.362513 186.10521Q28.487513 186.04271 28.565638 185.91771Q28.643763 185.79271 28.643763 185.55833Q28.643763 185.37083 28.612513 185.08958ZM27.550013 180.13646L27.675013 179.04271Q28.628138 179.29271 29.159388 179.99583Q29.690638 180.69896 29.690638 181.77708Q29.690638 183.13646 28.846888 183.94896Q28.003138 184.74583 26.487513 184.74583Q24.925013 184.74583 24.065638 183.93333Q23.190638 183.12083 23.190638 181.83958Q23.190638 180.58958 24.034388 179.80833Q24.878138 179.01146 26.425013 179.01146Q26.518763 179.01146 26.706263 179.01146L26.706263 183.65208Q27.737513 183.58958 28.284388 183.07396Q28.815638 182.55833 28.815638 181.77708Q28.815638 181.19896 28.518763 180.79271Q28.206263 180.37083 27.550013 180.13646ZM25.846888 183.58958L25.846888 180.12083Q25.050013 180.18333 24.659388 180.51146Q24.050013 181.02708 24.050013 181.82396Q24.050013 182.55833 24.534388 183.05833Q25.018763 183.54271 25.846888 183.58958ZM29.550013 177.38646L23.331263 177.38646L23.331263 176.44896L24.206263 176.44896Q23.190638 175.76146 23.190638 174.46458Q23.190638 173.90208 23.393763 173.43333Q23.596888 172.94896 23.925013 172.71458Q24.253138 172.48021 24.690638 172.38646Q24.987513 172.33958 25.721888 172.33958L29.550013 172.33958L29.550013 173.38646L25.768763 173.38646Q25.112513 173.38646 24.800013 173.51146Q24.487513 173.63646 24.300013 173.94896Q24.096888 174.26146 24.096888 174.68333Q24.096888 175.35521 24.534388 175.85521Q24.956263 176.33958 26.143763 176.33958L29.550013 176.33958L29.550013 177.38646ZM27.268763 166.32396L27.409388 165.29271Q28.471888 165.46458 29.081263 166.16771Q29.690638 166.87083 29.690638 167.88646Q29.690638 169.16771 28.862513 169.94896Q28.018763 170.71458 26.456263 170.71458Q25.456263 170.71458 24.706263 170.38646Q23.940638 170.04271 23.565638 169.37083Q23.190638 168.68333 23.190638 167.87083Q23.190638 166.87083 23.706263 166.23021Q24.206263 165.57396 25.159388 165.38646L25.315638 166.41771Q24.690638 166.55833 24.378138 166.93333Q24.050013 167.30833 24.050013 167.83958Q24.050013 168.63646 24.628138 169.13646Q25.190638 169.63646 26.425013 169.63646Q27.690638 169.63646 28.253138 169.15208Q28.815638 168.66771 28.815638 167.90208Q28.815638 167.27708 28.440638 166.87083Q28.065638 166.44896 27.268763 166.32396ZM31.940638 164.43333L30.956263 164.55833Q31.050013 164.21458 31.050013 163.94896Q31.050013 163.60521 30.925013 163.40208Q30.815638 163.18333 30.612513 163.04271Q30.440638 162.94896 29.815638 162.71458Q29.737513 162.69896 29.565638 162.62083L23.331263 164.99583L23.331263 163.85521L26.925013 162.55833Q27.612513 162.30833 28.378138 162.10521Q27.643763 161.91771 26.956263 161.66771L23.331263 160.33958L23.331263 159.29271L29.659388 161.65208Q30.675013 162.04271 31.065638 162.24583Q31.596888 162.52708 31.831263 162.90208Q32.08126 163.26146 32.08126 163.76146Q32.08126 164.05833 31.940638 164.43333ZM22.175013 155.38646L20.956263 155.38646L20.956263 154.32396L22.175013 154.32396L22.175013 155.38646ZM29.550013 155.38646L23.331263 155.38646L23.331263 154.32396L29.550013 154.32396L29.550013 155.38646ZM29.550013 152.38646L23.331263 152.38646L23.331263 151.44896L24.206263 151.44896Q23.190638 150.76146 23.190638 149.46458Q23.190638 148.90208 23.393763 148.43333Q23.596888 147.94896 23.925013 147.71458Q24.253138 147.48021 24.690638 147.38646Q24.987513 147.33958 25.721888 147.33958L29.550013 147.33958L29.550013 148.38646L25.768763 148.38646Q25.112513 148.38646 24.800013 148.51146Q24.487513 148.63646 24.300013 148.94896Q24.096888 149.26146 24.096888 149.68333Q24.096888 150.35521 24.534388 150.85521Q24.956263 151.33958 26.143763 151.33958L29.550013 151.33958L29.550013 152.38646ZM29.550013 142.38646L23.331263 142.38646L23.331263 141.44896L24.206263 141.44896Q23.737513 141.15208 23.471888 140.66771Q23.190638 140.18333 23.190638 139.55833Q23.190638 138.87083 23.471888 138.43333Q23.753138 137.98021 24.268763 137.80833Q23.190638 137.05833 23.190638 135.88646Q23.190638 134.94896 23.706263 134.46458Q24.206263 133.96458 25.284388 133.96458L29.550013 133.96458L29.550013 135.01146L25.628138 135.01146Q25.003138 135.01146 24.721888 135.12083Q24.440638 135.21458 24.268763 135.48021Q24.096888 135.74583 24.096888 136.12083Q24.096888 136.77708 24.534388 137.21458Q24.971888 137.63646 25.940638 137.63646L29.550013 137.63646L29.550013 138.69896L25.503138 138.69896Q24.800013 138.69896 24.456263 138.96458Q24.096888 139.21458 24.096888 139.79271Q24.096888 140.24583 24.331263 140.62083Q24.565638 140.99583 25.018763 141.16771Q25.471888 141.33958 26.315638 141.33958L29.550013 141.33958L29.550013 142.38646ZM27.690638 132.80833L27.534388 131.77708Q28.159388 131.68333 28.487513 131.29271Q28.815638 130.88646 28.815638 130.15208Q28.815638 129.43333 28.534388 129.08958Q28.237513 128.73021 27.831263 128.73021Q27.471888 128.73021 27.268763 129.04271Q27.128138 129.26146 26.909388 130.12083Q26.612513 131.27708 26.409388 131.73021Q26.190638 132.16771 25.815638 132.40208Q25.440638 132.63646 24.971888 132.63646Q24.565638 132.63646 24.206263 132.44896Q23.846888 132.26146 23.612513 131.93333Q23.440638 131.68333 23.315638 131.26146Q23.190638 130.83958 23.190638 130.33958Q23.190638 129.62083 23.409388 129.07396Q23.612513 128.51146 23.971888 128.24583Q24.331263 127.98021 24.925013 127.88646L25.065638 128.91771Q24.596888 128.98021 24.331263 129.32396Q24.050013 129.65208 24.050013 130.27708Q24.050013 130.99583 24.300013 131.30833Q24.534388 131.62083 24.862513 131.62083Q25.065638 131.62083 25.221888 131.49583Q25.393763 131.35521 25.503138 131.08958Q25.565638 130.93333 25.768763 130.15208Q26.081263 129.02708 26.268763 128.58958Q26.456263 128.15208 26.815638 127.902084Q27.175013 127.652084 27.721888 127.652084Q28.253138 127.652084 28.721888 127.964584Q29.175013 128.26146 29.440638 128.83958Q29.690638 129.41771 29.690638 130.15208Q29.690638 131.37083 29.190638 132.01146Q28.675013 132.63646 27.690638 132.80833Z" fill-rule="nonzero"/><path fill="#000000" d="M65.05 300.21564Q65.05 298.6844 65.3625 297.7625Q65.675 296.825 66.28438 296.325Q66.90938 295.825 67.84688 295.825Q68.53438 295.825 69.05 296.10626Q69.58125 296.3875 69.925 296.91876Q70.26875 297.4344 70.45625 298.1844Q70.64375 298.9344 70.64375 300.21564Q70.64375 301.73126 70.33125 302.65314Q70.03438 303.575 69.40938 304.09064Q68.8 304.59064 67.84688 304.59064Q66.6125 304.59064 65.89375 303.7Q65.05 302.6375 65.05 300.21564ZM66.12813 300.21564Q66.12813 302.325 66.62813 303.02814Q67.12813 303.73126 67.84688 303.73126Q68.58125 303.73126 69.06563 303.02814Q69.56563 302.325 69.56563 300.21564Q69.56563 298.09064 69.06563 297.40314Q68.58125 296.7 67.83125 296.7Q67.1125 296.7 66.675 297.3094Q66.12813 298.09064 66.12813 300.21564Z" fill-rule="nonzero"/><path fill="#000000" d="M63.596874 249.80104L63.596874 250.81667L57.909374 250.81667Q57.909374 250.44167 58.034374 250.08229Q58.253124 249.50417 58.721874 248.94167Q59.20625 248.37917 60.1125 247.64479Q61.51875 246.48854 62.003124 245.81667Q62.503124 245.14479 62.503124 244.55104Q62.503124 243.92604 62.05 243.50417Q61.596874 243.06667 60.878124 243.06667Q60.1125 243.06667 59.659374 243.51979Q59.20625 243.97292 59.190624 244.78542L58.1125 244.67604Q58.221874 243.45729 58.940624 242.83229Q59.675 242.19167 60.909374 242.19167Q62.14375 242.19167 62.8625 242.87917Q63.58125 243.56667 63.58125 244.58229Q63.58125 245.09792 63.3625 245.59792Q63.159374 246.08229 62.659374 246.64479Q62.175 247.19167 61.05 248.14479Q60.096874 248.94167 59.815624 249.23854Q59.55 249.51979 59.378124 249.80104L63.596874 249.80104ZM65.05 248.56667L66.15938 248.47292Q66.28438 249.28542 66.72188 249.69167Q67.175 250.09792 67.81563 250.09792Q68.56563 250.09792 69.09688 249.51979Q69.62813 248.94167 69.62813 248.00417Q69.62813 247.09792 69.1125 246.58229Q68.6125 246.05104 67.78438 246.05104Q67.28438 246.05104 66.8625 246.28542Q66.45625 246.51979 66.22188 246.87917L65.2375 246.75417L66.06563 242.34792L70.34688 242.34792L70.34688 243.34792L66.90938 243.34792L66.45625 245.66042Q67.22188 245.11354 68.06563 245.11354Q69.19063 245.11354 69.95625 245.89479Q70.7375 246.67604 70.7375 247.91042Q70.7375 249.06667 70.06563 249.92604Q69.2375 250.95729 67.81563 250.95729Q66.64375 250.95729 65.89375 250.30104Q65.15938 249.64479 65.05 248.56667Z" fill-rule="nonzero"/><path fill="#000000" d="M58.05 194.93333L59.159374 194.83958Q59.284374 195.65208 59.721874 196.05833Q60.175 196.46458 60.815624 196.46458Q61.565624 196.46458 62.096874 195.88646Q62.628124 195.30833 62.628124 194.37083Q62.628124 193.46458 62.1125 192.94896Q61.6125 192.41771 60.784374 192.41771Q60.284374 192.41771 59.8625 192.65208Q59.45625 192.88646 59.221874 193.24583L58.2375 193.12083L59.065624 188.71458L63.346874 188.71458L63.346874 189.71458L59.909374 189.71458L59.45625 192.02708Q60.221874 191.48021 61.065624 191.48021Q62.190624 191.48021 62.95625 192.26146Q63.7375 193.04271 63.7375 194.27708Q63.7375 195.43333 63.065624 196.29271Q62.2375 197.32396 60.815624 197.32396Q59.64375 197.32396 58.89375 196.66771Q58.159374 196.01146 58.05 194.93333ZM65.05 192.94896Q65.05 191.41771 65.3625 190.49583Q65.675 189.55833 66.28438 189.05833Q66.90938 188.55833 67.84688 188.55833Q68.53438 188.55833 69.05 188.83958Q69.58125 189.12083 69.925 189.65208Q70.26875 190.16771 70.45625 190.91771Q70.64375 191.66771 70.64375 192.94896Q70.64375 194.46458 70.33125 195.38646Q70.03438 196.30833 69.40938 196.82396Q68.8 197.32396 67.84688 197.32396Q66.6125 197.32396 65.89375 196.43333Q65.05 195.37083 65.05 192.94896ZM66.12813 192.94896Q66.12813 195.05833 66.62813 195.76146Q67.12813 196.46458 67.84688 196.46458Q68.58125 196.46458 69.06563 195.76146Q69.56563 195.05833 69.56563 192.94896Q69.56563 190.82396 69.06563 190.13646Q68.58125 189.43333 67.83125 189.43333Q67.1125 189.43333 66.675 190.04271Q66.12813 190.82396 66.12813 192.94896Z" fill-rule="nonzero"/><path fill="#000000" d="M58.1125 136.08125L58.1125 135.06563L63.675 135.06563L63.675 135.89375Q62.8625 136.76875 62.05 138.22188Q61.253124 139.65938 60.815624 141.19063Q60.4875 142.26875 60.409374 143.55L59.315624 143.55Q59.33125 142.53438 59.70625 141.09688Q60.096874 139.65938 60.8 138.33125Q61.51875 137.00313 62.33125 136.08125L58.1125 136.08125ZM65.05 141.3L66.15938 141.20625Q66.28438 142.01875 66.72188 142.425Q67.175 142.83125 67.81563 142.83125Q68.56563 142.83125 69.09688 142.25313Q69.62813 141.675 69.62813 140.7375Q69.62813 139.83125 69.1125 139.31563Q68.6125 138.78438 67.78438 138.78438Q67.28438 138.78438 66.8625 139.01875Q66.45625 139.25313 66.22188 139.6125L65.2375 139.4875L66.06563 135.08125L70.34688 135.08125L70.34688 136.08125L66.90938 136.08125L66.45625 138.39375Q67.22188 137.84688 68.06563 137.84688Q69.19063 137.84688 69.95625 138.62813Q70.7375 139.40938 70.7375 140.64375Q70.7375 141.8 70.06563 142.65938Q69.2375 143.69063 67.81563 143.69063Q66.64375 143.69063 65.89375 143.03438Q65.15938 142.37813 65.05 141.3Z" fill-rule="nonzero"/><path fill="#000000" d="M55.01875 89.916664L53.971874 89.916664L53.971874 83.197914Q53.58125 83.55729 52.95625 83.93229Q52.346874 84.291664 51.8625 84.46354L51.8625 83.447914Q52.7375 83.02604 53.39375 82.447914Q54.065624 81.854164 54.346874 81.291664L55.01875 81.291664L55.01875 89.916664ZM58.05 85.68229Q58.05 84.15104 58.3625 83.229164Q58.675 82.291664 59.284374 81.791664Q59.909374 81.291664 60.846874 81.291664Q61.534374 81.291664 62.05 81.572914Q62.58125 81.854164 62.925 82.385414Q63.26875 82.90104 63.45625 83.65104Q63.64375 84.40104 63.64375 85.68229Q63.64375 87.197914 63.33125 88.11979Q63.034374 89.041664 62.409374 89.55729Q61.8 90.05729 60.846874 90.05729Q59.6125 90.05729 58.89375 89.166664Q58.05 88.104164 58.05 85.68229ZM59.128124 85.68229Q59.128124 87.791664 59.628124 88.49479Q60.128124 89.197914 60.846874 89.197914Q61.58125 89.197914 62.065624 88.49479Q62.565624 87.791664 62.565624 85.68229Q62.565624 83.55729 62.065624 82.86979Q61.58125 82.166664 60.83125 82.166664Q60.1125 82.166664 59.675 82.77604Q59.128124 83.55729 59.128124 85.68229ZM65.05 85.68229Q65.05 84.15104 65.3625 83.229164Q65.675 82.291664 66.28438 81.791664Q66.90938 81.291664 67.84688 81.291664Q68.53438 81.291664 69.05 81.572914Q69.58125 81.854164 69.925 82.385414Q70.26875 82.90104 70.45625 83.65104Q70.64375 84.40104 70.64375 85.68229Q70.64375 87.197914 70.33125 88.11979Q70.03438 89.041664 69.40938 89.55729Q68.8 90.05729 67.84688 90.05729Q66.6125 90.05729 65.89375 89.166664Q65.05 88.104164 65.05 85.68229ZM66.12813 85.68229Q66.12813 87.791664 66.62813 88.49479Q67.12813 89.197914 67.84688 89.197914Q68.58125 89.197914 69.06563 88.49479Q69.56563 87.791664 69.56563 85.68229Q69.56563 83.55729 69.06563 82.86979Q68.58125 82.166664 67.83125 82.166664Q67.1125 82.166664 66.675 82.77604Q66.12813 83.55729 66.12813 85.68229Z" fill-rule="nonzero"/><path fill="#000000" d="M131.37311 316.4344L131.37311 317.45L125.6856 317.45Q125.6856 317.075 125.8106 316.71564Q126.02935 316.1375 126.4981 315.575Q126.982475 315.0125 127.888725 314.27814Q129.29498 313.1219 129.77936 312.45Q130.27936 311.77814 130.27936 311.1844Q130.27936 310.5594 129.82623 310.1375Q129.37311 309.7 128.65436 309.7Q127.888725 309.7 127.4356 310.15314Q126.982475 310.60626 126.96685 311.41876L125.888725 311.3094Q125.9981 310.09064 126.71685 309.46564Q127.451225 308.825 128.68561 308.825Q129.91998 308.825 130.63873 309.5125Q131.35748 310.2 131.35748 311.21564Q131.35748 311.73126 131.13873 312.23126Q130.93561 312.71564 130.43561 313.27814Q129.95123 313.825 128.82623 314.77814Q127.8731 315.575 127.59185 315.8719Q127.326225 316.15314 127.15435 316.4344L131.37311 316.4344Z" fill-rule="nonzero"/><path fill="#000000" d="M227.7891 317.45L227.7891 315.3875L224.07034 315.3875L224.07034 314.41876L227.99222 308.85626L228.8516 308.85626L228.8516 314.41876L230.00784 314.41876L230.00784 315.3875L228.8516 315.3875L228.8516 317.45L227.7891 317.45ZM227.7891 314.41876L227.7891 310.5594L225.1016 314.41876L227.7891 314.41876Z" fill-rule="nonzero"/><path fill="#000000" d="M328.4707 310.96564L327.42383 311.04376Q327.2832 310.41876 327.0332 310.1375Q326.5957 309.6844 325.9707 309.6844Q325.4707 309.6844 325.08008 309.96564Q324.5957 310.34064 324.29883 311.04376Q324.01758 311.73126 324.00195 313.0125Q324.37695 312.4344 324.92383 312.15314Q325.48633 311.8719 326.0957 311.8719Q327.14258 311.8719 327.87695 312.65314Q328.62695 313.4344 328.62695 314.65314Q328.62695 315.46564 328.26758 316.16876Q327.92383 316.85626 327.31445 317.23126Q326.70508 317.59064 325.93945 317.59064Q324.61133 317.59064 323.7832 316.6219Q322.95508 315.65314 322.95508 313.4344Q322.95508 310.9344 323.87695 309.8094Q324.67383 308.825 326.0332 308.825Q327.04883 308.825 327.68945 309.40314Q328.3457 309.96564 328.4707 310.96564ZM324.17383 314.66876Q324.17383 315.21564 324.39258 315.71564Q324.62695 316.2 325.0332 316.46564Q325.45508 316.73126 325.92383 316.73126Q326.58008 316.73126 327.06445 316.2Q327.54883 315.65314 327.54883 314.73126Q327.54883 313.84064 327.06445 313.325Q326.5957 312.8094 325.87695 312.8094Q325.1582 312.8094 324.6582 313.325Q324.17383 313.84064 324.17383 314.66876Z" fill-rule="nonzero"/><path fill="#000000" d="M423.21484 312.79376Q422.5586 312.54376 422.23047 312.10626Q421.91797 311.65314 421.91797 311.04376Q421.91797 310.10626 422.58984 309.46564Q423.27734 308.825 424.38672 308.825Q425.51172 308.825 426.19922 309.48126Q426.88672 310.1375 426.88672 311.075Q426.88672 311.66876 426.57422 312.10626Q426.26172 312.54376 425.6211 312.79376Q426.41797 313.04376 426.82422 313.6219Q427.23047 314.2 427.23047 314.9969Q427.23047 316.09064 426.44922 316.84064Q425.6836 317.59064 424.40234 317.59064Q423.13672 317.59064 422.35547 316.84064Q421.57422 316.09064 421.57422 314.96564Q421.57422 314.1219 421.9961 313.5594Q422.4336 312.9969 423.21484 312.79376ZM422.9961 310.9969Q422.9961 311.60626 423.38672 311.9969Q423.79297 312.3875 424.41797 312.3875Q425.02734 312.3875 425.41797 312.0125Q425.8086 311.6219 425.8086 311.0594Q425.8086 310.48126 425.40234 310.09064Q424.9961 309.6844 424.40234 309.6844Q423.79297 309.6844 423.38672 310.075Q422.9961 310.46564 422.9961 310.9969ZM422.66797 314.96564Q422.66797 315.41876 422.8711 315.84064Q423.08984 316.2625 423.51172 316.4969Q423.9336 316.73126 424.41797 316.73126Q425.16797 316.73126 425.65234 316.2469Q426.15234 315.7625 426.15234 315.0125Q426.15234 314.2469 425.65234 313.7469Q425.15234 313.2469 424.38672 313.2469Q423.63672 313.2469 423.15234 313.7469Q422.66797 314.23126 422.66797 314.96564Z" fill-rule="nonzero"/><path fill="#000000" d="M520.6465 317.45L519.5996 317.45L519.5996 310.73126Q519.209 311.09064 518.584 311.46564Q517.9746 311.825 517.49023 311.9969L517.49023 310.98126Q518.36523 310.5594 519.0215 309.98126Q519.69336 309.3875 519.9746 308.825L520.6465 308.825L520.6465 317.45ZM523.67773 313.21564Q523.67773 311.6844 523.99023 310.7625Q524.30273 309.825 524.9121 309.325Q525.5371 308.825 526.4746 308.825Q527.1621 308.825 527.67773 309.10626Q528.209 309.3875 528.55273 309.91876Q528.8965 310.4344 529.084 311.1844Q529.2715 311.9344 529.2715 313.21564Q529.2715 314.73126 528.959 315.65314Q528.6621 316.575 528.0371 317.09064Q527.42773 317.59064 526.4746 317.59064Q525.24023 317.59064 524.5215 316.7Q523.67773 315.6375 523.67773 313.21564ZM524.75586 313.21564Q524.75586 315.325 525.25586 316.02814Q525.75586 316.73126 526.4746 316.73126Q527.209 316.73126 527.69336 316.02814Q528.19336 315.325 528.19336 313.21564Q528.19336 311.09064 527.69336 310.40314Q527.209 309.7 526.459 309.7Q525.74023 309.7 525.30273 310.3094Q524.75586 311.09064 524.75586 313.21564Z" fill-rule="nonzero"/><path fill="#3c78d8" d="M555.39557 85.916664C555.39557 89.23038 552.7093 91.916664 549.39557 91.916664C546.08185 91.916664 543.39557 89.23038 543.39557 85.916664C543.39557 82.60296 546.08185 79.916664 549.39557 79.916664C552.7093 79.916664 555.39557 82.60296 555.39557 85.916664Z" fill-rule="nonzero"/><path fill="#f1c232" d="M555.39557 109.916664C555.39557 113.23038 552.7093 115.916664 549.39557 115.916664C546.08185 115.916664 543.39557 113.23038 543.39557 109.916664C543.39557 106.60296 546.08185 103.916664 549.39557 103.916664C552.7093 103.916664 555.39557 106.60296 555.39557 109.916664Z" fill-rule="nonzero"/><path fill="#757575" d="M20.01875 37.55L20.01875 23.2375L21.909374 23.2375L21.909374 35.8625L28.95625 35.8625L28.95625 37.55L20.01875 37.55ZM37.64375 36.26875Q36.659374 37.096874 35.753124 37.440624Q34.846874 37.784374 33.815624 37.784374Q32.1125 37.784374 31.190624 36.95625Q30.26875 36.1125 30.26875 34.815624Q30.26875 34.05 30.6125 33.425Q30.971874 32.8 31.534374 32.425Q32.096874 32.034374 32.8 31.83125Q33.315624 31.70625 34.3625 31.565624Q36.4875 31.315624 37.4875 30.971874Q37.503124 30.6125 37.503124 30.503124Q37.503124 29.440624 37.003124 28.9875Q36.33125 28.39375 35.003124 28.39375Q33.753124 28.39375 33.159374 28.83125Q32.58125 29.26875 32.3 30.378124L30.58125 30.14375Q30.815624 29.034374 31.346874 28.3625Q31.878124 27.675 32.89375 27.315624Q33.909374 26.940624 35.253124 26.940624Q36.58125 26.940624 37.409374 27.253124Q38.2375 27.565624 38.628124 28.05Q39.01875 28.51875 39.175 29.2375Q39.26875 29.690624 39.26875 30.8625L39.26875 33.20625Q39.26875 35.659374 39.378124 36.315624Q39.4875 36.95625 39.83125 37.55L37.9875 37.55Q37.721874 37.003124 37.64375 36.26875ZM37.4875 32.346874Q36.534374 32.7375 34.6125 33.003124Q33.534374 33.159374 33.08125 33.3625Q32.64375 33.55 32.39375 33.925Q32.14375 34.3 32.14375 34.76875Q32.14375 35.471874 32.675 35.940624Q33.20625 36.409374 34.2375 36.409374Q35.253124 36.409374 36.034374 35.971874Q36.83125 35.51875 37.20625 34.753124Q37.4875 34.14375 37.4875 32.9875L37.4875 32.346874ZM45.70625 35.971874L45.95625 37.534374Q45.221874 37.690624 44.628124 37.690624Q43.675 37.690624 43.14375 37.39375Q42.628124 37.08125 42.409374 36.596874Q42.190624 36.096874 42.190624 34.51875L42.190624 28.55L40.909374 28.55L40.909374 27.175L42.190624 27.175L42.190624 24.6125L43.940624 23.55L43.940624 27.175L45.70625 27.175L45.70625 28.55L43.940624 28.55L43.940624 34.6125Q43.940624 35.3625 44.034374 35.58125Q44.128124 35.784374 44.33125 35.925Q44.55 36.05 44.940624 36.05Q45.221874 36.05 45.70625 35.971874ZM54.971874 34.20625L56.784374 34.440624Q56.3625 36.01875 55.190624 36.909374Q54.034374 37.784374 52.221874 37.784374Q49.95625 37.784374 48.6125 36.39375Q47.284374 34.9875 47.284374 32.45625Q47.284374 29.83125 48.628124 28.39375Q49.971874 26.940624 52.128124 26.940624Q54.20625 26.940624 55.51875 28.3625Q56.846874 29.76875 56.846874 32.346874Q56.846874 32.503124 56.83125 32.815624L49.096874 32.815624Q49.190624 34.51875 50.065624 35.425Q50.940624 36.33125 52.2375 36.33125Q53.20625 36.33125 53.878124 35.83125Q54.565624 35.315624 54.971874 34.20625ZM49.190624 31.3625L54.9875 31.3625Q54.878124 30.065624 54.33125 29.409374Q53.4875 28.39375 52.14375 28.39375Q50.940624 28.39375 50.1125 29.20625Q49.284374 30.003124 49.190624 31.3625ZM58.8625 37.55L58.8625 27.175L60.45625 27.175L60.45625 28.659374Q61.596874 26.940624 63.753124 26.940624Q64.69063 26.940624 65.47188 27.284374Q66.26875 27.6125 66.65938 28.159374Q67.05 28.70625 67.20625 29.45625Q67.3 29.95625 67.3 31.175L67.3 37.55L65.53438 37.55L65.53438 31.2375Q65.53438 30.159374 65.33125 29.628124Q65.12813 29.096874 64.59688 28.784374Q64.08125 28.471874 63.378124 28.471874Q62.253124 28.471874 61.440624 29.190624Q60.628124 29.89375 60.628124 31.878124L60.628124 37.55L58.8625 37.55ZM76.64375 33.753124L78.3625 33.971874Q78.08125 35.76875 76.90938 36.784374Q75.75313 37.784374 74.05 37.784374Q71.925 37.784374 70.62813 36.39375Q69.33125 35.003124 69.33125 32.409374Q69.33125 30.721874 69.87813 29.471874Q70.44063 28.20625 71.58125 27.58125Q72.72188 26.940624 74.06563 26.940624Q75.75313 26.940624 76.81563 27.8Q77.89375 28.659374 78.20625 30.221874L76.4875 30.4875Q76.25313 29.440624 75.62813 28.925Q75.00313 28.39375 74.12813 28.39375Q72.8 28.39375 71.97188 29.346874Q71.14375 30.3 71.14375 32.346874Q71.14375 34.440624 71.94063 35.39375Q72.7375 36.33125 74.03438 36.33125Q75.06563 36.33125 75.75313 35.70625Q76.45625 35.065624 76.64375 33.753124ZM79.78438 41.55L79.59688 39.89375Q80.175 40.05 80.59688 40.05Q81.19063 40.05 81.53438 39.846874Q81.89375 39.659374 82.1125 39.315624Q82.28438 39.05 82.65938 38.003124Q82.70625 37.846874 82.81563 37.565624L78.87813 27.175L80.76875 27.175L82.925 33.190624Q83.34688 34.33125 83.675 35.58125Q83.9875 34.378124 84.39375 33.221874L86.6125 27.175L88.37813 27.175L84.425 37.721874Q83.8 39.440624 83.44063 40.08125Q82.97188 40.95625 82.3625 41.346874Q81.76875 41.753124 80.925 41.753124Q80.40938 41.753124 79.78438 41.55ZM98.75313 37.55L94.8 27.175L96.65938 27.175L98.89375 33.39375Q99.25313 34.39375 99.55 35.471874Q99.78438 34.659374 100.20625 33.503124L102.50313 27.175L104.31563 27.175L100.39375 37.55L98.75313 37.55ZM112.97188 34.20625L114.78438 34.440624Q114.3625 36.01875 113.19063 36.909374Q112.03438 37.784374 110.22188 37.784374Q107.95625 37.784374 106.6125 36.39375Q105.28438 34.9875 105.28438 32.45625Q105.28438 29.83125 106.62813 28.39375Q107.97188 26.940624 110.12813 26.940624Q112.20625 26.940624 113.51875 28.3625Q114.84688 29.76875 114.84688 32.346874Q114.84688 32.503124 114.83125 32.815624L107.09688 32.815624Q107.19063 34.51875 108.06563 35.425Q108.94063 36.33125 110.2375 36.33125Q111.20625 36.33125 111.87813 35.83125Q112.56563 35.315624 112.97188 34.20625ZM107.19063 31.3625L112.9875 31.3625Q112.87813 30.065624 112.33125 29.409374Q111.4875 28.39375 110.14375 28.39375Q108.94063 28.39375 108.1125 29.20625Q107.28438 30.003124 107.19063 31.3625ZM116.84688 37.55L116.84688 27.175L118.425 27.175L118.425 28.753124Q119.03438 27.64375 119.55 27.3Q120.06563 26.940624 120.675 26.940624Q121.56563 26.940624 122.4875 27.503124L121.87813 29.14375Q121.2375 28.753124 120.59688 28.753124Q120.01875 28.753124 119.55 29.1125Q119.09688 29.45625 118.89375 30.065624Q118.6125 31.003124 118.6125 32.1125L118.6125 37.55L116.84688 37.55ZM123.15938 34.45625L124.90938 34.175Q125.05 35.221874 125.72188 35.784374Q126.39375 36.33125 127.59688 36.33125Q128.8 36.33125 129.37813 35.846874Q129.97188 35.346874 129.97188 34.690624Q129.97188 34.096874 129.45625 33.753124Q129.09688 33.51875 127.65938 33.159374Q125.72188 32.659374 124.97188 32.315624Q124.2375 31.95625 123.84688 31.33125Q123.45625 30.690624 123.45625 29.925Q123.45625 29.2375 123.76875 28.64375Q124.09688 28.05 124.64375 27.659374Q125.05 27.3625 125.75313 27.159374Q126.47188 26.940624 127.28438 26.940624Q128.50313 26.940624 129.425 27.3Q130.34688 27.64375 130.78438 28.253124Q131.22188 28.846874 131.39375 29.846874L129.675 30.08125Q129.55 29.284374 128.9875 28.846874Q128.425 28.39375 127.40938 28.39375Q126.19063 28.39375 125.675 28.8Q125.15938 29.190624 125.15938 29.721874Q125.15938 30.065624 125.37813 30.346874Q125.58125 30.628124 126.05 30.815624Q126.31563 30.909374 127.59688 31.253124Q129.47188 31.753124 130.20625 32.08125Q130.94063 32.39375 131.3625 33.003124Q131.78438 33.596874 131.78438 34.503124Q131.78438 35.378124 131.26875 36.159374Q130.75313 36.940624 129.78438 37.3625Q128.81563 37.784374 127.59688 37.784374Q125.58125 37.784374 124.51875 36.940624Q123.45625 36.096874 123.15938 34.45625ZM140.65938 37.55L140.65938 36.01875Q139.45625 37.784374 137.37813 37.784374Q136.45625 37.784374 135.65938 37.440624Q134.8625 37.08125 134.47188 36.55Q134.09688 36.01875 133.94063 35.2375Q133.83125 34.721874 133.83125 33.596874L133.83125 27.175L135.58125 27.175L135.58125 32.925Q135.58125 34.3 135.69063 34.784374Q135.8625 35.471874 136.39375 35.878124Q136.94063 36.26875 137.72188 36.26875Q138.51875 36.26875 139.20625 35.8625Q139.90938 35.45625 140.19063 34.76875Q140.4875 34.065624 140.4875 32.7375L140.4875 27.175L142.2375 27.175L142.2375 37.55L140.65938 37.55ZM144.15938 34.45625L145.90938 34.175Q146.05 35.221874 146.72188 35.784374Q147.39375 36.33125 148.59688 36.33125Q149.8 36.33125 150.37813 35.846874Q150.97188 35.346874 150.97188 34.690624Q150.97188 34.096874 150.45625 33.753124Q150.09688 33.51875 148.65938 33.159374Q146.72188 32.659374 145.97188 32.315624Q145.2375 31.95625 144.84688 31.33125Q144.45625 30.690624 144.45625 29.925Q144.45625 29.2375 144.76875 28.64375Q145.09688 28.05 145.64375 27.659374Q146.05 27.3625 146.75313 27.159374Q147.47188 26.940624 148.28438 26.940624Q149.50313 26.940624 150.425 27.3Q151.34688 27.64375 151.78438 28.253124Q152.22188 28.846874 152.39375 29.846874L150.675 30.08125Q150.55 29.284374 149.9875 28.846874Q149.425 28.39375 148.40938 28.39375Q147.19063 28.39375 146.675 28.8Q146.15938 29.190624 146.15938 29.721874Q146.15938 30.065624 146.37813 30.346874Q146.58125 30.628124 147.05 30.815624Q147.31563 30.909374 148.59688 31.253124Q150.47188 31.753124 151.20625 32.08125Q151.94063 32.39375 152.3625 33.003124Q152.78438 33.596874 152.78438 34.503124Q152.78438 35.378124 152.26875 36.159374Q151.75313 36.940624 150.78438 37.3625Q149.81563 37.784374 148.59688 37.784374Q146.58125 37.784374 145.51875 36.940624Q144.45625 36.096874 144.15938 34.45625ZM167.59688 37.55L167.59688 36.2375Q166.6125 37.784374 164.69063 37.784374Q163.45625 37.784374 162.40938 37.096874Q161.37813 36.409374 160.8 35.190624Q160.2375 33.971874 160.2375 32.378124Q160.2375 30.815624 160.75313 29.55Q161.26875 28.284374 162.3 27.6125Q163.34688 26.940624 164.6125 26.940624Q165.55 26.940624 166.28438 27.346874Q167.01875 27.7375 167.4875 28.3625L167.4875 23.2375L169.22188 23.2375L169.22188 37.55L167.59688 37.55ZM162.03438 32.378124Q162.03438 34.3625 162.87813 35.346874Q163.72188 36.33125 164.8625 36.33125Q166.01875 36.33125 166.81563 35.39375Q167.62813 34.45625 167.62813 32.51875Q167.62813 30.39375 166.8 29.39375Q165.9875 28.39375 164.78438 28.39375Q163.6125 28.39375 162.81563 29.3625Q162.03438 30.315624 162.03438 32.378124ZM171.22188 32.3625Q171.22188 29.4875 172.81563 28.096874Q174.15938 26.940624 176.08125 26.940624Q178.22188 26.940624 179.56563 28.346874Q180.925 29.753124 180.925 32.221874Q180.925 34.221874 180.33125 35.378124Q179.7375 36.51875 178.58125 37.159374Q177.44063 37.784374 176.08125 37.784374Q173.89375 37.784374 172.55 36.39375Q171.22188 34.9875 171.22188 32.3625ZM173.01875 32.3625Q173.01875 34.3625 173.87813 35.346874Q174.75313 36.33125 176.08125 36.33125Q177.39375 36.33125 178.25313 35.346874Q179.12813 34.346874 179.12813 32.3Q179.12813 30.378124 178.25313 29.39375Q177.37813 28.39375 176.08125 28.39375Q174.75313 28.39375 173.87813 29.39375Q173.01875 30.378124 173.01875 32.3625ZM189.64375 33.753124L191.3625 33.971874Q191.08125 35.76875 189.90938 36.784374Q188.75313 37.784374 187.05 37.784374Q184.925 37.784374 183.62813 36.39375Q182.33125 35.003124 182.33125 32.409374Q182.33125 30.721874 182.87813 29.471874Q183.44063 28.20625 184.58125 27.58125Q185.72188 26.940624 187.06563 26.940624Q188.75313 26.940624 189.81563 27.8Q190.89375 28.659374 191.20625 30.221874L189.4875 30.4875Q189.25313 29.440624 188.62813 28.925Q188.00313 28.39375 187.12813 28.39375Q185.8 28.39375 184.97188 29.346874Q184.14375 30.3 184.14375 32.346874Q184.14375 34.440624 184.94063 35.39375Q185.7375 36.33125 187.03438 36.33125Q188.06563 36.33125 188.75313 35.70625Q189.45625 35.065624 189.64375 33.753124ZM199.65938 37.55L199.65938 36.01875Q198.45625 37.784374 196.37813 37.784374Q195.45625 37.784374 194.65938 37.440624Q193.8625 37.08125 193.47188 36.55Q193.09688 36.01875 192.94063 35.2375Q192.83125 34.721874 192.83125 33.596874L192.83125 27.175L194.58125 27.175L194.58125 32.925Q194.58125 34.3 194.69063 34.784374Q194.8625 35.471874 195.39375 35.878124Q195.94063 36.26875 196.72188 36.26875Q197.51875 36.26875 198.20625 35.8625Q198.90938 35.45625 199.19063 34.76875Q199.4875 34.065624 199.4875 32.7375L199.4875 27.175L201.2375 27.175L201.2375 37.55L199.65938 37.55ZM203.8625 37.55L203.8625 27.175L205.44063 27.175L205.44063 28.628124Q205.925 27.878124 206.7375 27.409374Q207.55 26.940624 208.58125 26.940624Q209.7375 26.940624 210.47188 27.425Q211.20625 27.89375 211.51875 28.753124Q212.75313 26.940624 214.72188 26.940624Q216.26875 26.940624 217.09688 27.8Q217.925 28.659374 217.925 30.425L217.925 37.55L216.175 37.55L216.175 31.01875Q216.175 29.95625 216.00313 29.503124Q215.83125 29.034374 215.37813 28.753124Q214.94063 28.471874 214.33125 28.471874Q213.2375 28.471874 212.50313 29.20625Q211.78438 29.925 211.78438 31.51875L211.78438 37.55L210.03438 37.55L210.03438 30.815624Q210.03438 29.64375 209.59688 29.065624Q209.175 28.471874 208.19063 28.471874Q207.45625 28.471874 206.81563 28.8625Q206.19063 29.253124 205.90938 30.003124Q205.62813 30.753124 205.62813 32.175L205.62813 37.55L203.8625 37.55ZM227.97188 34.20625L229.78438 34.440624Q229.3625 36.01875 228.19063 36.909374Q227.03438 37.784374 225.22188 37.784374Q222.95625 37.784374 221.6125 36.39375Q220.28438 34.9875 220.28438 32.45625Q220.28438 29.83125 221.62813 28.39375Q222.97188 26.940624 225.12813 26.940624Q227.20625 26.940624 228.51875 28.3625Q229.84688 29.76875 229.84688 32.346874Q229.84688 32.503124 229.83125 32.815624L222.09688 32.815624Q222.19063 34.51875 223.06563 35.425Q223.94063 36.33125 225.2375 36.33125Q226.20625 36.33125 226.87813 35.83125Q227.56563 35.315624 227.97188 34.20625ZM222.19063 31.3625L227.9875 31.3625Q227.87813 30.065624 227.33125 29.409374Q226.4875 28.39375 225.14375 28.39375Q223.94063 28.39375 223.1125 29.20625Q222.28438 30.003124 222.19063 31.3625ZM231.8625 37.55L231.8625 27.175L233.45625 27.175L233.45625 28.659374Q234.59688 26.940624 236.75313 26.940624Q237.69063 26.940624 238.47188 27.284374Q239.26875 27.6125 239.65938 28.159374Q240.05 28.70625 240.20625 29.45625Q240.3 29.95625 240.3 31.175L240.3 37.55L238.53438 37.55L238.53438 31.2375Q238.53438 30.159374 238.33125 29.628124Q238.12813 29.096874 237.59688 28.784374Q237.08125 28.471874 236.37813 28.471874Q235.25313 28.471874 234.44063 29.190624Q233.62813 29.89375 233.62813 31.878124L233.62813 37.55L231.8625 37.55ZM246.70625 35.971874L246.95625 37.534374Q246.22188 37.690624 245.62813 37.690624Q244.675 37.690624 244.14375 37.39375Q243.62813 37.08125 243.40938 36.596874Q243.19063 36.096874 243.19063 34.51875L243.19063 28.55L241.90938 28.55L241.90938 27.175L243.19063 27.175L243.19063 24.6125L244.94063 23.55L244.94063 27.175L246.70625 27.175L246.70625 28.55L244.94063 28.55L244.94063 34.6125Q244.94063 35.3625 245.03438 35.58125Q245.12813 35.784374 245.33125 35.925Q245.55 36.05 245.94063 36.05Q246.22188 36.05 246.70625 35.971874ZM261.64374 33.753124L263.3625 33.971874Q263.08124 35.76875 261.90936 36.784374Q260.7531 37.784374 259.05 37.784374Q256.925 37.784374 255.62813 36.39375Q254.33125 35.003124 254.33125 32.409374Q254.33125 30.721874 254.87813 29.471874Q255.44063 28.20625 256.58124 27.58125Q257.72186 26.940624 259.0656 26.940624Q260.7531 26.940624 261.8156 27.8Q262.89374 28.659374 263.20624 30.221874L261.4875 30.4875Q261.2531 29.440624 260.6281 28.925Q260.0031 28.39375 259.1281 28.39375Q257.8 28.39375 256.97186 29.346874Q256.14374 30.3 256.14374 32.346874Q256.14374 34.440624 256.9406 35.39375Q257.7375 36.33125 259.03436 36.33125Q260.0656 36.33125 260.7531 35.70625Q261.45624 35.065624 261.64374 33.753124ZM264.22186 32.3625Q264.22186 29.4875 265.8156 28.096874Q267.15936 26.940624 269.08124 26.940624Q271.22186 26.940624 272.5656 28.346874Q273.925 29.753124 273.925 32.221874Q273.925 34.221874 273.33124 35.378124Q272.7375 36.51875 271.58124 37.159374Q270.4406 37.784374 269.08124 37.784374Q266.89374 37.784374 265.55 36.39375Q264.22186 34.9875 264.22186 32.3625ZM266.01874 32.3625Q266.01874 34.3625 266.8781 35.346874Q267.7531 36.33125 269.08124 36.33125Q270.39374 36.33125 271.2531 35.346874Q272.1281 34.346874 272.1281 32.3Q272.1281 30.378124 271.2531 29.39375Q270.3781 28.39375 269.08124 28.39375Q267.7531 28.39375 266.8781 29.39375Q266.01874 30.378124 266.01874 32.3625ZM282.65936 37.55L282.65936 36.01875Q281.45624 37.784374 279.3781 37.784374Q278.45624 37.784374 277.65936 37.440624Q276.8625 37.08125 276.47186 36.55Q276.09686 36.01875 275.9406 35.2375Q275.83124 34.721874 275.83124 33.596874L275.83124 27.175L277.58124 27.175L277.58124 32.925Q277.58124 34.3 277.6906 34.784374Q277.8625 35.471874 278.39374 35.878124Q278.9406 36.26875 279.72186 36.26875Q280.51874 36.26875 281.20624 35.8625Q281.90936 35.45625 282.1906 34.76875Q282.4875 34.065624 282.4875 32.7375L282.4875 27.175L284.2375 27.175L284.2375 37.55L282.65936 37.55ZM286.8625 37.55L286.8625 27.175L288.45624 27.175L288.45624 28.659374Q289.59686 26.940624 291.7531 26.940624Q292.6906 26.940624 293.47186 27.284374Q294.26874 27.6125 294.65936 28.159374Q295.05 28.70625 295.20624 29.45625Q295.3 29.95625 295.3 31.175L295.3 37.55L293.53436 37.55L293.53436 31.2375Q293.53436 30.159374 293.33124 29.628124Q293.1281 29.096874 292.59686 28.784374Q292.08124 28.471874 291.3781 28.471874Q290.2531 28.471874 289.4406 29.190624Q288.6281 29.89375 288.6281 31.878124L288.6281 37.55L286.8625 37.55ZM301.70624 35.971874L301.95624 37.534374Q301.22186 37.690624 300.6281 37.690624Q299.675 37.690624 299.14374 37.39375Q298.6281 37.08125 298.40936 36.596874Q298.1906 36.096874 298.1906 34.51875L298.1906 28.55L296.90936 28.55L296.90936 27.175L298.1906 27.175L298.1906 24.6125L299.9406 23.55L299.9406 27.175L301.70624 27.175L301.70624 28.55L299.9406 28.55L299.9406 34.6125Q299.9406 35.3625 300.03436 35.58125Q300.1281 35.784374 300.33124 35.925Q300.55 36.05 300.9406 36.05Q301.22186 36.05 301.70624 35.971874ZM309.8625 41.51875L309.8625 27.175L311.47186 27.175L311.47186 28.51875Q312.03436 27.7375 312.7375 27.346874Q313.45624 26.940624 314.47186 26.940624Q315.8 26.940624 316.8156 27.628124Q317.83124 28.315624 318.34686 29.565624Q318.8781 30.8 318.8781 32.284374Q318.8781 33.878124 318.3 35.159374Q317.7375 36.425 316.64374 37.1125Q315.55 37.784374 314.34686 37.784374Q313.47186 37.784374 312.76874 37.409374Q312.08124 37.034374 311.6281 36.471874L311.6281 41.51875L309.8625 41.51875ZM311.45624 32.425Q311.45624 34.425 312.26874 35.378124Q313.08124 36.33125 314.2375 36.33125Q315.40936 36.33125 316.2375 35.346874Q317.08124 34.3625 317.08124 32.26875Q317.08124 30.3 316.2531 29.315624Q315.4406 28.315624 314.3156 28.315624Q313.1906 28.315624 312.3156 29.378124Q311.45624 30.425 311.45624 32.425ZM327.97186 34.20625L329.78436 34.440624Q329.3625 36.01875 328.1906 36.909374Q327.03436 37.784374 325.22186 37.784374Q322.95624 37.784374 321.6125 36.39375Q320.28436 34.9875 320.28436 32.45625Q320.28436 29.83125 321.6281 28.39375Q322.97186 26.940624 325.1281 26.940624Q327.20624 26.940624 328.51874 28.3625Q329.84686 29.76875 329.84686 32.346874Q329.84686 32.503124 329.83124 32.815624L322.09686 32.815624Q322.1906 34.51875 323.0656 35.425Q323.9406 36.33125 325.2375 36.33125Q326.20624 36.33125 326.8781 35.83125Q327.5656 35.315624 327.97186 34.20625ZM322.1906 31.3625L327.9875 31.3625Q327.8781 30.065624 327.33124 29.409374Q326.4875 28.39375 325.14374 28.39375Q323.9406 28.39375 323.1125 29.20625Q322.28436 30.003124 322.1906 31.3625ZM331.84686 37.55L331.84686 27.175L333.425 27.175L333.425 28.753124Q334.03436 27.64375 334.55 27.3Q335.0656 26.940624 335.675 26.940624Q336.5656 26.940624 337.4875 27.503124L336.8781 29.14375Q336.2375 28.753124 335.59686 28.753124Q335.01874 28.753124 334.55 29.1125Q334.09686 29.45625 333.89374 30.065624Q333.6125 31.003124 333.6125 32.1125L333.6125 37.55L331.84686 37.55ZM344.8625 37.55L344.8625 27.175L346.45624 27.175L346.45624 28.659374Q347.59686 26.940624 349.7531 26.940624Q350.6906 26.940624 351.47186 27.284374Q352.26874 27.6125 352.65936 28.159374Q353.05 28.70625 353.20624 29.45625Q353.3 29.95625 353.3 31.175L353.3 37.55L351.53436 37.55L351.53436 31.2375Q351.53436 30.159374 351.33124 29.628124Q351.1281 29.096874 350.59686 28.784374Q350.08124 28.471874 349.3781 28.471874Q348.2531 28.471874 347.4406 29.190624Q346.6281 29.89375 346.6281 31.878124L346.6281 37.55L344.8625 37.55ZM355.22186 32.3625Q355.22186 29.4875 356.8156 28.096874Q358.15936 26.940624 360.08124 26.940624Q362.22186 26.940624 363.5656 28.346874Q364.925 29.753124 364.925 32.221874Q364.925 34.221874 364.33124 35.378124Q363.7375 36.51875 362.58124 37.159374Q361.4406 37.784374 360.08124 37.784374Q357.89374 37.784374 356.55 36.39375Q355.22186 34.9875 355.22186 32.3625ZM357.01874 32.3625Q357.01874 34.3625 357.8781 35.346874Q358.7531 36.33125 360.08124 36.33125Q361.39374 36.33125 362.2531 35.346874Q363.1281 34.346874 363.1281 32.3Q363.1281 30.378124 362.2531 29.39375Q361.3781 28.39375 360.08124 28.39375Q358.7531 28.39375 357.8781 29.39375Q357.01874 30.378124 357.01874 32.3625ZM373.59686 37.55L373.59686 36.2375Q372.6125 37.784374 370.6906 37.784374Q369.45624 37.784374 368.40936 37.096874Q367.3781 36.409374 366.8 35.190624Q366.2375 33.971874 366.2375 32.378124Q366.2375 30.815624 366.7531 29.55Q367.26874 28.284374 368.3 27.6125Q369.34686 26.940624 370.6125 26.940624Q371.55 26.940624 372.28436 27.346874Q373.01874 27.7375 373.4875 28.3625L373.4875 23.2375L375.22186 23.2375L375.22186 37.55L373.59686 37.55ZM368.03436 32.378124Q368.03436 34.3625 368.8781 35.346874Q369.72186 36.33125 370.8625 36.33125Q372.01874 36.33125 372.8156 35.39375Q373.6281 34.45625 373.6281 32.51875Q373.6281 30.39375 372.8 29.39375Q371.9875 28.39375 370.78436 28.39375Q369.6125 28.39375 368.8156 29.3625Q368.03436 30.315624 368.03436 32.378124ZM384.97186 34.20625L386.78436 34.440624Q386.3625 36.01875 385.1906 36.909374Q384.03436 37.784374 382.22186 37.784374Q379.95624 37.784374 378.6125 36.39375Q377.28436 34.9875 377.28436 32.45625Q377.28436 29.83125 378.6281 28.39375Q379.97186 26.940624 382.1281 26.940624Q384.20624 26.940624 385.51874 28.3625Q386.84686 29.76875 386.84686 32.346874Q386.84686 32.503124 386.83124 32.815624L379.09686 32.815624Q379.1906 34.51875 380.0656 35.425Q380.9406 36.33125 382.2375 36.33125Q383.20624 36.33125 383.8781 35.83125Q384.5656 35.315624 384.97186 34.20625ZM379.1906 31.3625L384.9875 31.3625Q384.8781 30.065624 384.33124 29.409374Q383.4875 28.39375 382.14374 28.39375Q380.9406 28.39375 380.1125 29.20625Q379.28436 30.003124 379.1906 31.3625ZM394.8781 25.253124L394.8781 23.2375L396.64374 23.2375L396.64374 25.253124L394.8781 25.253124ZM394.8781 37.55L394.8781 27.175L396.64374 27.175L396.64374 37.55L394.8781 37.55ZM398.83124 37.55L398.83124 23.2375L400.58124 23.2375L400.58124 37.55L398.83124 37.55ZM402.83124 37.55L402.83124 23.2375L404.58124 23.2375L404.58124 37.55L402.83124 37.55ZM413.65936 37.55L413.65936 36.01875Q412.45624 37.784374 410.3781 37.784374Q409.45624 37.784374 408.65936 37.440624Q407.8625 37.08125 407.47186 36.55Q407.09686 36.01875 406.9406 35.2375Q406.83124 34.721874 406.83124 33.596874L406.83124 27.175L408.58124 27.175L408.58124 32.925Q408.58124 34.3 408.6906 34.784374Q408.8625 35.471874 409.39374 35.878124Q409.9406 36.26875 410.72186 36.26875Q411.51874 36.26875 412.20624 35.8625Q412.90936 35.45625 413.1906 34.76875Q413.4875 34.065624 413.4875 32.7375L413.4875 27.175L415.2375 27.175L415.2375 37.55L413.65936 37.55ZM417.15936 34.45625L418.90936 34.175Q419.05 35.221874 419.72186 35.784374Q420.39374 36.33125 421.59686 36.33125Q422.8 36.33125 423.3781 35.846874Q423.97186 35.346874 423.97186 34.690624Q423.97186 34.096874 423.45624 33.753124Q423.09686 33.51875 421.65936 33.159374Q419.72186 32.659374 418.97186 32.315624Q418.2375 31.95625 417.84686 31.33125Q417.45624 30.690624 417.45624 29.925Q417.45624 29.2375 417.76874 28.64375Q418.09686 28.05 418.64374 27.659374Q419.05 27.3625 419.7531 27.159374Q420.47186 26.940624 421.28436 26.940624Q422.5031 26.940624 423.425 27.3Q424.34686 27.64375 424.78436 28.253124Q425.22186 28.846874 425.39374 29.846874L423.675 30.08125Q423.55 29.284374 422.9875 28.846874Q422.425 28.39375 421.40936 28.39375Q420.1906 28.39375 419.675 28.8Q419.15936 29.190624 419.15936 29.721874Q419.15936 30.065624 419.3781 30.346874Q419.58124 30.628124 420.05 30.815624Q420.3156 30.909374 421.59686 31.253124Q423.47186 31.753124 424.20624 32.08125Q424.9406 32.39375 425.3625 33.003124Q425.78436 33.596874 425.78436 34.503124Q425.78436 35.378124 425.26874 36.159374Q424.7531 36.940624 423.78436 37.3625Q422.8156 37.784374 421.59686 37.784374Q419.58124 37.784374 418.51874 36.940624Q417.45624 36.096874 417.15936 34.45625ZM431.70624 35.971874L431.95624 37.534374Q431.22186 37.690624 430.6281 37.690624Q429.675 37.690624 429.14374 37.39375Q428.6281 37.08125 428.40936 36.596874Q428.1906 36.096874 428.1906 34.51875L428.1906 28.55L426.90936 28.55L426.90936 27.175L428.1906 27.175L428.1906 24.6125L429.9406 23.55L429.9406 27.175L431.70624 27.175L431.70624 28.55L429.9406 28.55L429.9406 34.6125Q429.9406 35.3625 430.03436 35.58125Q430.1281 35.784374 430.33124 35.925Q430.55 36.05 430.9406 36.05Q431.22186 36.05 431.70624 35.971874ZM433.84686 37.55L433.84686 27.175L435.425 27.175L435.425 28.753124Q436.03436 27.64375 436.55 27.3Q437.0656 26.940624 437.675 26.940624Q438.5656 26.940624 439.4875 27.503124L438.8781 29.14375Q438.2375 28.753124 437.59686 28.753124Q437.01874 28.753124 436.55 29.1125Q436.09686 29.45625 435.89374 30.065624Q435.6125 31.003124 435.6125 32.1125L435.6125 37.55L433.84686 37.55ZM447.64374 36.26875Q446.65936 37.096874 445.7531 37.440624Q444.84686 37.784374 443.8156 37.784374Q442.1125 37.784374 441.1906 36.95625Q440.26874 36.1125 440.26874 34.815624Q440.26874 34.05 440.6125 33.425Q440.97186 32.8 441.53436 32.425Q442.09686 32.034374 442.8 31.83125Q443.3156 31.70625 444.3625 31.565624Q446.4875 31.315624 447.4875 30.971874Q447.5031 30.6125 447.5031 30.503124Q447.5031 29.440624 447.0031 28.9875Q446.33124 28.39375 445.0031 28.39375Q443.7531 28.39375 443.15936 28.83125Q442.58124 29.26875 442.3 30.378124L440.58124 30.14375Q440.8156 29.034374 441.34686 28.3625Q441.8781 27.675 442.89374 27.315624Q443.90936 26.940624 445.2531 26.940624Q446.58124 26.940624 447.40936 27.253124Q448.2375 27.565624 448.6281 28.05Q449.01874 28.51875 449.175 29.2375Q449.26874 29.690624 449.26874 30.8625L449.26874 33.20625Q449.26874 35.659374 449.3781 36.315624Q449.4875 36.95625 449.83124 37.55L447.9875 37.55Q447.72186 37.003124 447.64374 36.26875ZM447.4875 32.346874Q446.53436 32.7375 444.6125 33.003124Q443.53436 33.159374 443.08124 33.3625Q442.64374 33.55 442.39374 33.925Q442.14374 34.3 442.14374 34.76875Q442.14374 35.471874 442.675 35.940624Q443.20624 36.409374 444.2375 36.409374Q445.2531 36.409374 446.03436 35.971874Q446.83124 35.51875 447.20624 34.753124Q447.4875 34.14375 447.4875 32.9875L447.4875 32.346874ZM455.70624 35.971874L455.95624 37.534374Q455.22186 37.690624 454.6281 37.690624Q453.675 37.690624 453.14374 37.39375Q452.6281 37.08125 452.40936 36.596874Q452.1906 36.096874 452.1906 34.51875L452.1906 28.55L450.90936 28.55L450.90936 27.175L452.1906 27.175L452.1906 24.6125L453.9406 23.55L453.9406 27.175L455.70624 27.175L455.70624 28.55L453.9406 28.55L453.9406 34.6125Q453.9406 35.3625 454.03436 35.58125Q454.1281 35.784374 454.33124 35.925Q454.55 36.05 454.9406 36.05Q455.22186 36.05 455.70624 35.971874ZM457.8781 25.253124L457.8781 23.2375L459.64374 23.2375L459.64374 25.253124L457.8781 25.253124ZM457.8781 37.55L457.8781 27.175L459.64374 27.175L459.64374 37.55L457.8781 37.55ZM461.22186 32.3625Q461.22186 29.4875 462.8156 28.096874Q464.15936 26.940624 466.08124 26.940624Q468.22186 26.940624 469.5656 28.346874Q470.925 29.753124 470.925 32.221874Q470.925 34.221874 470.33124 35.378124Q469.7375 36.51875 468.58124 37.159374Q467.4406 37.784374 466.08124 37.784374Q463.89374 37.784374 462.55 36.39375Q461.22186 34.9875 461.22186 32.3625ZM463.01874 32.3625Q463.01874 34.3625 463.8781 35.346874Q464.7531 36.33125 466.08124 36.33125Q467.39374 36.33125 468.2531 35.346874Q469.1281 34.346874 469.1281 32.3Q469.1281 30.378124 468.2531 29.39375Q467.3781 28.39375 466.08124 28.39375Q464.7531 28.39375 463.8781 29.39375Q463.01874 30.378124 463.01874 32.3625ZM472.8625 37.55L472.8625 27.175L474.45624 27.175L474.45624 28.659374Q475.59686 26.940624 477.7531 26.940624Q478.6906 26.940624 479.47186 27.284374Q480.26874 27.6125 480.65936 28.159374Q481.05 28.70625 481.20624 29.45625Q481.3 29.95625 481.3 31.175L481.3 37.55L479.53436 37.55L479.53436 31.2375Q479.53436 30.159374 479.33124 29.628124Q479.1281 29.096874 478.59686 28.784374Q478.08124 28.471874 477.3781 28.471874Q476.2531 28.471874 475.4406 29.190624Q474.6281 29.89375 474.6281 31.878124L474.6281 37.55L472.8625 37.55ZM490.28436 37.55L490.28436 28.55L488.7375 28.55L488.7375 27.175L490.28436 27.175L490.28436 26.08125Q490.28436 25.034374 490.47186 24.51875Q490.72186 23.83125 491.3625 23.409374Q492.0031 22.9875 493.15936 22.9875Q493.90936 22.9875 494.8 23.159374L494.53436 24.690624Q493.9875 24.596874 493.5031 24.596874Q492.70624 24.596874 492.3625 24.940624Q492.03436 25.284374 492.03436 26.221874L492.03436 27.175L494.0656 27.175L494.0656 28.55L492.03436 28.55L492.03436 37.55L490.28436 37.55ZM495.22186 32.3625Q495.22186 29.4875 496.8156 28.096874Q498.15936 26.940624 500.08124 26.940624Q502.22186 26.940624 503.5656 28.346874Q504.925 29.753124 504.925 32.221874Q504.925 34.221874 504.33124 35.378124Q503.7375 36.51875 502.58124 37.159374Q501.4406 37.784374 500.08124 37.784374Q497.89374 37.784374 496.55 36.39375Q495.22186 34.9875 495.22186 32.3625ZM497.01874 32.3625Q497.01874 34.3625 497.8781 35.346874Q498.7531 36.33125 500.08124 36.33125Q501.39374 36.33125 502.2531 35.346874Q503.1281 34.346874 503.1281 32.3Q503.1281 30.378124 502.2531 29.39375Q501.3781 28.39375 500.08124 28.39375Q498.7531 28.39375 497.8781 29.39375Q497.01874 30.378124 497.01874 32.3625ZM506.84686 37.55L506.84686 27.175L508.425 27.175L508.425 28.753124Q509.03436 27.64375 509.55 27.3Q510.0656 26.940624 510.675 26.940624Q511.5656 26.940624 512.4875 27.503124L511.8781 29.14375Q511.2375 28.753124 510.59686 28.753124Q510.01874 28.753124 509.55 29.1125Q509.09686 29.45625 508.89374 30.065624Q508.6125 31.003124 508.6125 32.1125L508.6125 37.55L506.84686 37.55ZM523.70624 35.971874L523.95624 37.534374Q523.22186 37.690624 522.6281 37.690624Q521.675 37.690624 521.14374 37.39375Q520.6281 37.08125 520.40936 36.596874Q520.1906 36.096874 520.1906 34.51875L520.1906 28.55L518.90936 28.55L518.90936 27.175L520.1906 27.175L520.1906 24.6125L521.9406 23.55L521.9406 27.175L523.70624 27.175L523.70624 28.55L521.9406 28.55L521.9406 34.6125Q521.9406 35.3625 522.03436 35.58125Q522.1281 35.784374 522.33124 35.925Q522.55 36.05 522.9406 36.05Q523.22186 36.05 523.70624 35.971874ZM527.78436 37.55L524.6125 27.175L526.425 27.175L528.08124 33.159374L528.6906 35.39375Q528.7375 35.221874 529.22186 33.253124L530.8781 27.175L532.6906 27.175L534.2375 33.190624L534.7531 35.175L535.34686 33.175L537.1281 27.175L538.83124 27.175L535.59686 37.55L533.76874 37.55L532.1125 31.33125L531.72186 29.565624L529.6125 37.55L527.78436 37.55ZM539.22186 32.3625Q539.22186 29.4875 540.8156 28.096874Q542.15936 26.940624 544.08124 26.940624Q546.22186 26.940624 547.5656 28.346874Q548.925 29.753124 548.925 32.221874Q548.925 34.221874 548.33124 35.378124Q547.7375 36.51875 546.58124 37.159374Q545.4406 37.784374 544.08124 37.784374Q541.89374 37.784374 540.55 36.39375Q539.22186 34.9875 539.22186 32.3625ZM541.01874 32.3625Q541.01874 34.3625 541.8781 35.346874Q542.7531 36.33125 544.08124 36.33125Q545.39374 36.33125 546.2531 35.346874Q547.1281 34.346874 547.1281 32.3Q547.1281 30.378124 546.2531 29.39375Q545.3781 28.39375 544.08124 28.39375Q542.7531 28.39375 541.8781 29.39375Q541.01874 30.378124 541.01874 32.3625Z" fill-rule="nonzero"/><path fill="#757575" d="M26.596874 61.55L26.596874 60.2375Q25.6125 61.784374 23.690624 61.784374Q22.45625 61.784374 21.409374 61.096874Q20.378124 60.409374 19.8 59.190624Q19.2375 57.971874 19.2375 56.378124Q19.2375 54.815624 19.753124 53.55Q20.26875 52.284374 21.3 51.6125Q22.346874 50.940624 23.6125 50.940624Q24.55 50.940624 25.284374 51.346874Q26.01875 51.7375 26.4875 52.3625L26.4875 47.2375L28.221874 47.2375L28.221874 61.55L26.596874 61.55ZM21.034374 56.378124Q21.034374 58.3625 21.878124 59.346874Q22.721874 60.33125 23.8625 60.33125Q25.01875 60.33125 25.815624 59.39375Q26.628124 58.45625 26.628124 56.51875Q26.628124 54.39375 25.8 53.39375Q24.9875 52.39375 23.784374 52.39375Q22.6125 52.39375 21.815624 53.3625Q21.034374 54.315624 21.034374 56.378124ZM30.878124 49.253124L30.878124 47.2375L32.64375 47.2375L32.64375 49.253124L30.878124 49.253124ZM30.878124 61.55L30.878124 51.175L32.64375 51.175L32.64375 61.55L30.878124 61.55ZM35.284374 61.55L35.284374 52.55L33.7375 52.55L33.7375 51.175L35.284374 51.175L35.284374 50.08125Q35.284374 49.034374 35.471874 48.51875Q35.721874 47.83125 36.3625 47.409374Q37.003124 46.9875 38.159374 46.9875Q38.909374 46.9875 39.8 47.159374L39.534374 48.690624Q38.9875 48.596874 38.503124 48.596874Q37.70625 48.596874 37.3625 48.940624Q37.034374 49.284374 37.034374 50.221874L37.034374 51.175L39.065624 51.175L39.065624 52.55L37.034374 52.55L37.034374 61.55L35.284374 61.55ZM41.284374 61.55L41.284374 52.55L39.7375 52.55L39.7375 51.175L41.284374 51.175L41.284374 50.08125Q41.284374 49.034374 41.471874 48.51875Q41.721874 47.83125 42.3625 47.409374Q43.003124 46.9875 44.159374 46.9875Q44.909374 46.9875 45.8 47.159374L45.534374 48.690624Q44.9875 48.596874 44.503124 48.596874Q43.70625 48.596874 43.3625 48.940624Q43.034374 49.284374 43.034374 50.221874L43.034374 51.175L45.065624 51.175L45.065624 52.55L43.034374 52.55L43.034374 61.55L41.284374 61.55ZM53.971874 58.20625L55.784374 58.440624Q55.3625 60.01875 54.190624 60.909374Q53.034374 61.784374 51.221874 61.784374Q48.95625 61.784374 47.6125 60.39375Q46.284374 58.9875 46.284374 56.45625Q46.284374 53.83125 47.628124 52.39375Q48.971874 50.940624 51.128124 50.940624Q53.20625 50.940624 54.51875 52.3625Q55.846874 53.76875 55.846874 56.346874Q55.846874 56.503124 55.83125 56.815624L48.096874 56.815624Q48.190624 58.51875 49.065624 59.425Q49.940624 60.33125 51.2375 60.33125Q52.20625 60.33125 52.878124 59.83125Q53.565624 59.315624 53.971874 58.20625ZM48.190624 55.3625L53.9875 55.3625Q53.878124 54.065624 53.33125 53.409374Q52.4875 52.39375 51.14375 52.39375Q49.940624 52.39375 49.1125 53.20625Q48.284374 54.003124 48.190624 55.3625ZM57.846874 61.55L57.846874 51.175L59.425 51.175L59.425 52.753124Q60.034374 51.64375 60.55 51.3Q61.065624 50.940624 61.675 50.940624Q62.565624 50.940624 63.4875 51.503124L62.878124 53.14375Q62.2375 52.753124 61.596874 52.753124Q61.01875 52.753124 60.55 53.1125Q60.096874 53.45625 59.89375 54.065624Q59.6125 55.003124 59.6125 56.1125L59.6125 61.55L57.846874 61.55ZM71.97188 58.20625L73.78438 58.440624Q73.3625 60.01875 72.19063 60.909374Q71.03438 61.784374 69.22188 61.784374Q66.95625 61.784374 65.6125 60.39375Q64.28438 58.9875 64.28438 56.45625Q64.28438 53.83125 65.62813 52.39375Q66.97188 50.940624 69.12813 50.940624Q71.20625 50.940624 72.51875 52.3625Q73.84688 53.76875 73.84688 56.346874Q73.84688 56.503124 73.83125 56.815624L66.09688 56.815624Q66.19063 58.51875 67.06563 59.425Q67.94063 60.33125 69.2375 60.33125Q70.20625 60.33125 70.87813 59.83125Q71.56563 59.315624 71.97188 58.20625ZM66.19063 55.3625L71.9875 55.3625Q71.87813 54.065624 71.33125 53.409374Q70.4875 52.39375 69.14375 52.39375Q67.94063 52.39375 67.1125 53.20625Q66.28438 54.003124 66.19063 55.3625ZM75.8625 61.55L75.8625 51.175L77.45625 51.175L77.45625 52.659374Q78.59688 50.940624 80.75313 50.940624Q81.69063 50.940624 82.47188 51.284374Q83.26875 51.6125 83.65938 52.159374Q84.05 52.70625 84.20625 53.45625Q84.3 53.95625 84.3 55.175L84.3 61.55L82.53438 61.55L82.53438 55.2375Q82.53438 54.159374 82.33125 53.628124Q82.12813 53.096874 81.59688 52.784374Q81.08125 52.471874 80.37813 52.471874Q79.25313 52.471874 78.44063 53.190624Q77.62813 53.89375 77.62813 55.878124L77.62813 61.55L75.8625 61.55ZM90.70625 59.971874L90.95625 61.534374Q90.22188 61.690624 89.62813 61.690624Q88.675 61.690624 88.14375 61.39375Q87.62813 61.08125 87.40938 60.596874Q87.19063 60.096874 87.19063 58.51875L87.19063 52.55L85.90938 52.55L85.90938 51.175L87.19063 51.175L87.19063 48.6125L88.94063 47.55L88.94063 51.175L90.70625 51.175L90.70625 52.55L88.94063 52.55L88.94063 58.6125Q88.94063 59.3625 89.03438 59.58125Q89.12813 59.784374 89.33125 59.925Q89.55 60.05 89.94063 60.05Q90.22188 60.05 90.70625 59.971874ZM105.4875 65.51875L105.4875 60.440624Q105.06563 61.01875 104.33125 61.409374Q103.59688 61.784374 102.76875 61.784374Q100.925 61.784374 99.58125 60.315624Q98.25313 58.83125 98.25313 56.26875Q98.25313 54.70625 98.78438 53.471874Q99.33125 52.221874 100.3625 51.58125Q101.39375 50.940624 102.62813 50.940624Q104.55 50.940624 105.65938 52.565624L105.65938 51.175L107.2375 51.175L107.2375 65.51875L105.4875 65.51875ZM100.06563 56.33125Q100.06563 58.33125 100.89375 59.33125Q101.7375 60.33125 102.90938 60.33125Q104.03438 60.33125 104.84688 59.39375Q105.65938 58.440624 105.65938 56.4875Q105.65938 54.425 104.8 53.378124Q103.94063 52.33125 102.8 52.33125Q101.65938 52.33125 100.8625 53.3Q100.06563 54.26875 100.06563 56.33125ZM116.65938 61.55L116.65938 60.01875Q115.45625 61.784374 113.37813 61.784374Q112.45625 61.784374 111.65938 61.440624Q110.8625 61.08125 110.47188 60.55Q110.09688 60.01875 109.94063 59.2375Q109.83125 58.721874 109.83125 57.596874L109.83125 51.175L111.58125 51.175L111.58125 56.925Q111.58125 58.3 111.69063 58.784374Q111.8625 59.471874 112.39375 59.878124Q112.94063 60.26875 113.72188 60.26875Q114.51875 60.26875 115.20625 59.8625Q115.90938 59.45625 116.19063 58.76875Q116.4875 58.065624 116.4875 56.7375L116.4875 51.175L118.2375 51.175L118.2375 61.55L116.65938 61.55ZM127.97188 58.20625L129.78438 58.440624Q129.3625 60.01875 128.19063 60.909374Q127.03438 61.784374 125.22188 61.784374Q122.95625 61.784374 121.6125 60.39375Q120.28438 58.9875 120.28438 56.45625Q120.28438 53.83125 121.62813 52.39375Q122.97188 50.940624 125.12813 50.940624Q127.20625 50.940624 128.51875 52.3625Q129.84688 53.76875 129.84688 56.346874Q129.84688 56.503124 129.83125 56.815624L122.09688 56.815624Q122.19063 58.51875 123.06563 59.425Q123.94063 60.33125 125.2375 60.33125Q126.20625 60.33125 126.87813 59.83125Q127.56563 59.315624 127.97188 58.20625ZM122.19063 55.3625L127.9875 55.3625Q127.87813 54.065624 127.33125 53.409374Q126.4875 52.39375 125.14375 52.39375Q123.94063 52.39375 123.1125 53.20625Q122.28438 54.003124 122.19063 55.3625ZM131.84688 61.55L131.84688 51.175L133.425 51.175L133.425 52.753124Q134.03438 51.64375 134.55 51.3Q135.06563 50.940624 135.675 50.940624Q136.56563 50.940624 137.4875 51.503124L136.87813 53.14375Q136.2375 52.753124 135.59688 52.753124Q135.01875 52.753124 134.55 53.1125Q134.09688 53.45625 133.89375 54.065624Q133.6125 55.003124 133.6125 56.1125L133.6125 61.55L131.84688 61.55ZM138.78438 65.55L138.59688 63.89375Q139.175 64.05 139.59688 64.05Q140.19063 64.05 140.53438 63.846874Q140.89375 63.659374 141.1125 63.315624Q141.28438 63.05 141.65938 62.003124Q141.70625 61.846874 141.81563 61.565624L137.87813 51.175L139.76875 51.175L141.925 57.190624Q142.34688 58.33125 142.675 59.58125Q142.9875 58.378124 143.39375 57.221874L145.6125 51.175L147.37813 51.175L143.425 61.721874Q142.8 63.440624 142.44063 64.08125Q141.97188 64.95625 141.3625 65.34688Q140.76875 65.75313 139.925 65.75313Q139.40938 65.75313 138.78438 65.55ZM161.65938 61.55L161.65938 60.01875Q160.45625 61.784374 158.37813 61.784374Q157.45625 61.784374 156.65938 61.440624Q155.8625 61.08125 155.47188 60.55Q155.09688 60.01875 154.94063 59.2375Q154.83125 58.721874 154.83125 57.596874L154.83125 51.175L156.58125 51.175L156.58125 56.925Q156.58125 58.3 156.69063 58.784374Q156.8625 59.471874 157.39375 59.878124Q157.94063 60.26875 158.72188 60.26875Q159.51875 60.26875 160.20625 59.8625Q160.90938 59.45625 161.19063 58.76875Q161.4875 58.065624 161.4875 56.7375L161.4875 51.175L163.2375 51.175L163.2375 61.55L161.65938 61.55ZM165.15938 58.45625L166.90938 58.175Q167.05 59.221874 167.72188 59.784374Q168.39375 60.33125 169.59688 60.33125Q170.8 60.33125 171.37813 59.846874Q171.97188 59.346874 171.97188 58.690624Q171.97188 58.096874 171.45625 57.753124Q171.09688 57.51875 169.65938 57.159374Q167.72188 56.659374 166.97188 56.315624Q166.2375 55.95625 165.84688 55.33125Q165.45625 54.690624 165.45625 53.925Q165.45625 53.2375 165.76875 52.64375Q166.09688 52.05 166.64375 51.659374Q167.05 51.3625 167.75313 51.159374Q168.47188 50.940624 169.28438 50.940624Q170.50313 50.940624 171.425 51.3Q172.34688 51.64375 172.78438 52.253124Q173.22188 52.846874 173.39375 53.846874L171.675 54.08125Q171.55 53.284374 170.9875 52.846874Q170.425 52.39375 169.40938 52.39375Q168.19063 52.39375 167.675 52.8Q167.15938 53.190624 167.15938 53.721874Q167.15938 54.065624 167.37813 54.346874Q167.58125 54.628124 168.05 54.815624Q168.31563 54.909374 169.59688 55.253124Q171.47188 55.753124 172.20625 56.08125Q172.94063 56.39375 173.3625 57.003124Q173.78438 57.596874 173.78438 58.503124Q173.78438 59.378124 173.26875 60.159374Q172.75313 60.940624 171.78438 61.3625Q170.81563 61.784374 169.59688 61.784374Q167.58125 61.784374 166.51875 60.940624Q165.45625 60.096874 165.15938 58.45625ZM182.97188 58.20625L184.78438 58.440624Q184.3625 60.01875 183.19063 60.909374Q182.03438 61.784374 180.22188 61.784374Q177.95625 61.784374 176.6125 60.39375Q175.28438 58.9875 175.28438 56.45625Q175.28438 53.83125 176.62813 52.39375Q177.97188 50.940624 180.12813 50.940624Q182.20625 50.940624 183.51875 52.3625Q184.84688 53.76875 184.84688 56.346874Q184.84688 56.503124 184.83125 56.815624L177.09688 56.815624Q177.19063 58.51875 178.06563 59.425Q178.94063 60.33125 180.2375 60.33125Q181.20625 60.33125 181.87813 59.83125Q182.56563 59.315624 182.97188 58.20625ZM177.19063 55.3625L182.9875 55.3625Q182.87813 54.065624 182.33125 53.409374Q181.4875 52.39375 180.14375 52.39375Q178.94063 52.39375 178.1125 53.20625Q177.28438 54.003124 177.19063 55.3625ZM199.64375 57.753124L201.3625 57.971874Q201.08125 59.76875 199.90938 60.784374Q198.75313 61.784374 197.05 61.784374Q194.925 61.784374 193.62813 60.39375Q192.33125 59.003124 192.33125 56.409374Q192.33125 54.721874 192.87813 53.471874Q193.44063 52.20625 194.58125 51.58125Q195.72188 50.940624 197.06563 50.940624Q198.75313 50.940624 199.81563 51.8Q200.89375 52.659374 201.20625 54.221874L199.4875 54.4875Q199.25313 53.440624 198.62813 52.925Q198.00313 52.39375 197.12813 52.39375Q195.8 52.39375 194.97188 53.346874Q194.14375 54.3 194.14375 56.346874Q194.14375 58.440624 194.94063 59.39375Q195.7375 60.33125 197.03438 60.33125Q198.06563 60.33125 198.75313 59.70625Q199.45625 59.065624 199.64375 57.753124ZM209.64375 60.26875Q208.65938 61.096874 207.75313 61.440624Q206.84688 61.784374 205.81563 61.784374Q204.1125 61.784374 203.19063 60.95625Q202.26875 60.1125 202.26875 58.815624Q202.26875 58.05 202.6125 57.425Q202.97188 56.8 203.53438 56.425Q204.09688 56.034374 204.8 55.83125Q205.31563 55.70625 206.3625 55.565624Q208.4875 55.315624 209.4875 54.971874Q209.50313 54.6125 209.50313 54.503124Q209.50313 53.440624 209.00313 52.9875Q208.33125 52.39375 207.00313 52.39375Q205.75313 52.39375 205.15938 52.83125Q204.58125 53.26875 204.3 54.378124L202.58125 54.14375Q202.81563 53.034374 203.34688 52.3625Q203.87813 51.675 204.89375 51.315624Q205.90938 50.940624 207.25313 50.940624Q208.58125 50.940624 209.40938 51.253124Q210.2375 51.565624 210.62813 52.05Q211.01875 52.51875 211.175 53.2375Q211.26875 53.690624 211.26875 54.8625L211.26875 57.20625Q211.26875 59.659374 211.37813 60.315624Q211.4875 60.95625 211.83125 61.55L209.9875 61.55Q209.72188 61.003124 209.64375 60.26875ZM209.4875 56.346874Q208.53438 56.7375 206.6125 57.003124Q205.53438 57.159374 205.08125 57.3625Q204.64375 57.55 204.39375 57.925Q204.14375 58.3 204.14375 58.76875Q204.14375 59.471874 204.675 59.940624Q205.20625 60.409374 206.2375 60.409374Q207.25313 60.409374 208.03438 59.971874Q208.83125 59.51875 209.20625 58.753124Q209.4875 58.14375 209.4875 56.9875L209.4875 56.346874ZM213.15938 58.45625L214.90938 58.175Q215.05 59.221874 215.72188 59.784374Q216.39375 60.33125 217.59688 60.33125Q218.8 60.33125 219.37813 59.846874Q219.97188 59.346874 219.97188 58.690624Q219.97188 58.096874 219.45625 57.753124Q219.09688 57.51875 217.65938 57.159374Q215.72188 56.659374 214.97188 56.315624Q214.2375 55.95625 213.84688 55.33125Q213.45625 54.690624 213.45625 53.925Q213.45625 53.2375 213.76875 52.64375Q214.09688 52.05 214.64375 51.659374Q215.05 51.3625 215.75313 51.159374Q216.47188 50.940624 217.28438 50.940624Q218.50313 50.940624 219.425 51.3Q220.34688 51.64375 220.78438 52.253124Q221.22188 52.846874 221.39375 53.846874L219.675 54.08125Q219.55 53.284374 218.9875 52.846874Q218.425 52.39375 217.40938 52.39375Q216.19063 52.39375 215.675 52.8Q215.15938 53.190624 215.15938 53.721874Q215.15938 54.065624 215.37813 54.346874Q215.58125 54.628124 216.05 54.815624Q216.31563 54.909374 217.59688 55.253124Q219.47188 55.753124 220.20625 56.08125Q220.94063 56.39375 221.3625 57.003124Q221.78438 57.596874 221.78438 58.503124Q221.78438 59.378124 221.26875 60.159374Q220.75313 60.940624 219.78438 61.3625Q218.81563 61.784374 217.59688 61.784374Q215.58125 61.784374 214.51875 60.940624Q213.45625 60.096874 213.15938 58.45625ZM230.97188 58.20625L232.78438 58.440624Q232.3625 60.01875 231.19063 60.909374Q230.03438 61.784374 228.22188 61.784374Q225.95625 61.784374 224.6125 60.39375Q223.28438 58.9875 223.28438 56.45625Q223.28438 53.83125 224.62813 52.39375Q225.97188 50.940624 228.12813 50.940624Q230.20625 50.940624 231.51875 52.3625Q232.84688 53.76875 232.84688 56.346874Q232.84688 56.503124 232.83125 56.815624L225.09688 56.815624Q225.19063 58.51875 226.06563 59.425Q226.94063 60.33125 228.2375 60.33125Q229.20625 60.33125 229.87813 59.83125Q230.56563 59.315624 230.97188 58.20625ZM225.19063 55.3625L230.9875 55.3625Q230.87813 54.065624 230.33125 53.409374Q229.4875 52.39375 228.14375 52.39375Q226.94063 52.39375 226.1125 53.20625Q225.28438 54.003124 225.19063 55.3625ZM234.15938 58.45625L235.90938 58.175Q236.05 59.221874 236.72188 59.784374Q237.39375 60.33125 238.59688 60.33125Q239.8 60.33125 240.37813 59.846874Q240.97188 59.346874 240.97188 58.690624Q240.97188 58.096874 240.45625 57.753124Q240.09688 57.51875 238.65938 57.159374Q236.72188 56.659374 235.97188 56.315624Q235.2375 55.95625 234.84688 55.33125Q234.45625 54.690624 234.45625 53.925Q234.45625 53.2375 234.76875 52.64375Q235.09688 52.05 235.64375 51.659374Q236.05 51.3625 236.75313 51.159374Q237.47188 50.940624 238.28438 50.940624Q239.50313 50.940624 240.425 51.3Q241.34688 51.64375 241.78438 52.253124Q242.22188 52.846874 242.39375 53.846874L240.675 54.08125Q240.55 53.284374 239.9875 52.846874Q239.425 52.39375 238.40938 52.39375Q237.19063 52.39375 236.675 52.8Q236.15938 53.190624 236.15938 53.721874Q236.15938 54.065624 236.37813 54.346874Q236.58125 54.628124 237.05 54.815624Q237.31563 54.909374 238.59688 55.253124Q240.47188 55.753124 241.20625 56.08125Q241.94063 56.39375 242.3625 57.003124Q242.78438 57.596874 242.78438 58.503124Q242.78438 59.378124 242.26875 60.159374Q241.75313 60.940624 240.78438 61.3625Q239.81563 61.784374 238.59688 61.784374Q236.58125 61.784374 235.51875 60.940624Q234.45625 60.096874 234.15938 58.45625Z" fill-rule="nonzero"/></svg>