<svg xmlns="http://www.w3.org/2000/svg" xmlns:xlink="http://www.w3.org/1999/xlink" xmlns:lucid="lucid" width="1480" height="840"><g transform="translate(-60 -200)" lucid:page-tab-id="0_0"><path d="M0 0h1870.4v1323.2H0z" fill="#fff"/><path d="M80 640h1440v380H80z" stroke="#000" stroke-width="2" fill="#fff"/><use xlink:href="#a" transform="matrix(1,0,0,1,85,645) translate(0 14.4)"/><use xlink:href="#b" transform="matrix(1,0,0,1,85,645) translate(50.900000000000006 14.4)"/><path d="M820 820h680v180H820z" stroke="#000" stroke-width="2" fill="#e5e5e5"/><use xlink:href="#c" transform="matrix(1,0,0,1,825,825) translate(0 168.632704)"/><use xlink:href="#d" transform="matrix(1,0,0,1,825,825) translate(54.95 168.632704)"/><path d="M100 820h680v180H100z" stroke="#000" stroke-width="2" fill="#e5e5e5"/><use xlink:href="#c" transform="matrix(1,0,0,1,105,825) translate(0 168.632704)"/><use xlink:href="#e" transform="matrix(1,0,0,1,105,825) translate(54.95 168.632704)"/><path d="M80 220h760v340H80z" stroke="#000" stroke-width="2" fill="#fff"/><use xlink:href="#f" transform="matrix(1,0,0,1,85,225) translate(0 14.4)"/><use xlink:href="#g" transform="matrix(1,0,0,1,85,225) translate(34.900000000000006 14.4)"/><path d="M260 240h200v80H260z" stroke="#000" stroke-width="2" fill="#fff"/><use xlink:href="#h" transform="matrix(1,0,0,1,265,245) translate(75.525 38.4625)"/><path d="M480 240h200v80H480z" stroke="#000" stroke-width="2" fill="#fff"/><use xlink:href="#h" transform="matrix(1,0,0,1,485,245) translate(75.525 38.4625)"/><path d="M140 420h200v120H140z" stroke="#000" stroke-width="2" fill="#fff"/><use xlink:href="#i" transform="matrix(1,0,0,1,145,425) translate(43 14.4)"/><use xlink:href="#j" transform="matrix(1,0,0,1,145,425) translate(107 14.4)"/><path d="M360 420h200v120H360z" stroke="#000" stroke-width="2" fill="#fff"/><use xlink:href="#i" transform="matrix(1,0,0,1,365,425) translate(43 14.4)"/><use xlink:href="#j" transform="matrix(1,0,0,1,365,425) translate(107 14.4)"/><path d="M580 420h200v120H580z" stroke="#000" stroke-width="2" fill="#fff"/><use xlink:href="#i" transform="matrix(1,0,0,1,585,425) translate(43 14.4)"/><use xlink:href="#j" transform="matrix(1,0,0,1,585,425) translate(107 14.4)"/><path d="M359.23 321.63l-104.9 85.67" stroke="#000" stroke-width="2" fill="none"/><path d="M359.84 322.42l-1.16-1.42h2.9z"/><path d="M242.5 416.95l8.12-12.6 5.87 7.17z" stroke="#000" stroke-width="2"/><path d="M361.7 321.7l85.22 85.22" stroke="#000" stroke-width="2" fill="none"/><path d="M362.43 321.02l-1.4 1.4-1.44-1.42h2.8z"/><path d="M457.7 417.7l-13.35-6.8 6.55-6.55z" stroke="#000" stroke-width="2"/><path d="M360.96 321.3l301.35 92.28" stroke="#000" stroke-width="2" fill="none"/><path d="M360.7 322.26l-3.86-1.18.02-.08h4.2zM676.9 418.05l-15 .26 2.72-8.86z"/><path d="M680 419h-19.35l3.42-11.17zm-16.73-1.72l10.54-.18-8.62-6.05z"/><path d="M579.04 321.28l-321.26 92.6" stroke="#000" stroke-width="2" fill="none"/><path d="M583.16 321.13l-3.87 1.1-.37-1.23h4.2zM258.1 418.6l-15-.5 12.43-8.4z"/><path d="M259.26 419H240l16.1-10.9zm-13.04-1.8l10.54.36-1.8-6.26z"/><path d="M579.23 321.63l-104.9 85.67" stroke="#000" stroke-width="2" fill="none"/><path d="M579.84 322.42l-1.16-1.42h2.9z"/><path d="M462.5 416.95l8.12-12.6 5.87 7.17z" stroke="#000" stroke-width="2"/><path d="M580.7 321.7l86.1 84.35" stroke="#000" stroke-width="2" fill="none"/><path d="M581.43 321l-1.4 1.43-1.46-1.43h2.86z"/><path d="M677.7 416.73l-13.44-6.67 6.48-6.62z" stroke="#000" stroke-width="2"/><path d="M160 458.64h60v42.72c-10.02-7.13-16.26-7.13-20.04-7.13-6 0-13.98 7.13-19.98 7.13-3.72 0-10.02 0-19.98-7.13z" stroke="#000" stroke-width="2" fill="#e5e5e5"/><use xlink:href="#k" transform="matrix(1,0,0,1,165,463.64) translate(25 18.69166666666667)"/><path d="M600 458.64h60v42.72c-10.02-7.13-16.26-7.13-20.04-7.13-6 0-13.98 7.13-19.98 7.13-3.72 0-10.02 0-19.98-7.13z" stroke="#000" stroke-width="2" fill="#e5e5e5"/><use xlink:href="#k" transform="matrix(1,0,0,1,605,463.64) translate(25 18.69166666666667)"/><path d="M260 458.64h60v42.72c-10.02-7.13-16.26-7.13-20.04-7.13-6 0-13.98 7.13-19.98 7.13-3.72 0-10.02 0-19.98-7.13z" stroke="#000" stroke-width="2" fill="#99d2f2"/><use xlink:href="#k" transform="matrix(1,0,0,1,265,463.64) translate(25 18.69166666666667)"/><path d="M480 458.64h60v42.72c-10.02-7.13-16.26-7.13-20.04-7.13-6 0-13.98 7.13-19.98 7.13-3.72 0-10.02 0-19.98-7.13z" stroke="#000" stroke-width="2" fill="#99d2f2"/><use xlink:href="#k" transform="matrix(1,0,0,1,485,463.64) translate(25 18.69166666666667)"/><path d="M380 458.64h60v42.72c-10.02-7.13-16.26-7.13-20.04-7.13-6 0-13.98 7.13-19.98 7.13-3.72 0-10.02 0-19.98-7.13z" stroke="#000" stroke-width="2" fill="#666"/><use xlink:href="#k" transform="matrix(1,0,0,1,385,463.64) translate(25 18.69166666666667)"/><path d="M700 458.64h60v42.72c-10.02-7.13-16.26-7.13-20.04-7.13-6 0-13.98 7.13-19.98 7.13-3.72 0-10.02 0-19.98-7.13z" stroke="#000" stroke-width="2" fill="#666"/><use xlink:href="#k" transform="matrix(1,0,0,1,705,463.64) translate(25 18.69166666666667)"/><path d="M340 660h200v80H340z" stroke="#000" stroke-width="2" fill="#fff"/><use xlink:href="#h" transform="matrix(1,0,0,1,345,665) translate(75.525 38.4625)"/><path d="M1060 660h200v80h-200z" stroke="#000" stroke-width="2" fill="#fff"/><use xlink:href="#h" transform="matrix(1,0,0,1,1065,665) translate(75.525 38.4625)"/><path d="M120 840h200v120H120z" stroke="#000" stroke-width="2" fill="#fff"/><use xlink:href="#i" transform="matrix(1,0,0,1,125,845) translate(43 14.4)"/><use xlink:href="#j" transform="matrix(1,0,0,1,125,845) translate(107 14.4)"/><path d="M340 840h200v120H340z" stroke="#000" stroke-width="2" fill="#fff"/><use xlink:href="#i" transform="matrix(1,0,0,1,345,845) translate(43 14.4)"/><use xlink:href="#j" transform="matrix(1,0,0,1,345,845) translate(107 14.4)"/><path d="M560 840h200v120H560z" stroke="#000" stroke-width="2" fill="#fff"/><use xlink:href="#i" transform="matrix(1,0,0,1,565,845) translate(43 14.4)"/><use xlink:href="#j" transform="matrix(1,0,0,1,565,845) translate(107 14.4)"/><path d="M439.1 741.4l-202.2 90.07" stroke="#000" stroke-width="2" fill="none"/><path d="M439.47 742.33l-.6-1.33h3.6zM237.87 836.1l-14.9 1.58 11.13-10.04z"/><path d="M239.35 836.96L220 839l14.45-13.02zm-13.44-.6l10.5-1.1-2.65-5.95z"/><path d="M441 742l-.8 78.5" stroke="#000" stroke-width="2" fill="none"/><path d="M442 742.04l-2-.02V741h2z"/><path d="M440.03 835.76l-4.5-14.3 9.28.1z" stroke="#000" stroke-width="2"/><path d="M440.9 741.4l202.2 90.07" stroke="#000" stroke-width="2" fill="none"/><path d="M440.53 742.33l-3-1.33h3.6zM657.04 837.68l-14.9-1.57 3.76-8.46z"/><path d="M660 839l-19.35-2.04 4.9-10.98zm-16.4-3.74l10.5 1.1-7.85-7.05z"/><path d="M1159 741.1l-920.6 95.98" stroke="#000" stroke-width="2" fill="none"/><path d="M1163.1 741.68l-4.02.42-.1-1.1h4.04zM237.6 839h-12.8l-1.58-.34 13.7-6.1z"/><path d="M238.6 839h-2l-.52-4.95-9.64 4.28 3.14.67H220l17.78-7.9z"/><path d="M1159 741.13L458.34 836.5" stroke="#000" stroke-width="2" fill="none"/><path d="M1163.1 741.6l-3.98.53-.16-1.13h4.07zM457.66 839h-12.04l-2.4-.44 13.5-6.5z"/><path d="M458.67 839h-2.02l-.74-5.45-9.5 4.58 4.84.87H440l17.52-8.45z"/><path d="M1159.02 741.2l-480.86 94.24" stroke="#000" stroke-width="2" fill="none"/><path d="M1163.14 741.4l-3.95.78-.25-1.18h4.1zM677.83 839h-9.52l-5.12-.62 13.1-7.3z"/><path d="M678.85 839h-2.03l-1.25-6.37-9.22 5.13 10.27 1.24H660l17-9.46z"/><path d="M140 878.64h60v42.72c-10.02-7.13-16.26-7.13-20.04-7.13-6 0-13.98 7.13-19.98 7.13-3.72 0-10.02 0-19.98-7.13z" stroke="#000" stroke-width="2" fill="#e5e5e5"/><use xlink:href="#k" transform="matrix(1,0,0,1,145,883.64) translate(25 18.69166666666667)"/><path d="M460 878.64h60v42.72c-10.02-7.13-16.26-7.13-20.04-7.13-6 0-13.98 7.13-19.98 7.13-3.72 0-10.02 0-19.98-7.13z" stroke="#000" stroke-width="2" fill="#99d2f2"/><use xlink:href="#k" transform="matrix(1,0,0,1,465,883.64) translate(25 18.69166666666667)"/><path d="M680 878.64h60v42.72c-10.02-7.13-16.26-7.13-20.04-7.13-6 0-13.98 7.13-19.98 7.13-3.72 0-10.02 0-19.98-7.13z" stroke="#000" stroke-width="2" fill="#666"/><use xlink:href="#k" transform="matrix(1,0,0,1,685,883.64) translate(25 18.69166666666667)"/><path d="M840 840h200v120H840z" stroke="#000" stroke-width="2" fill="#fff"/><use xlink:href="#i" transform="matrix(1,0,0,1,845,845) translate(43 14.4)"/><use xlink:href="#j" transform="matrix(1,0,0,1,845,845) translate(107 14.4)"/><path d="M1060 840h200v120h-200z" stroke="#000" stroke-width="2" fill="#fff"/><use xlink:href="#i" transform="matrix(1,0,0,1,1065,845) translate(43 14.4)"/><use xlink:href="#j" transform="matrix(1,0,0,1,1065,845) translate(107 14.4)"/><path d="M1280 840h200v120h-200z" stroke="#000" stroke-width="2" fill="#fff"/><use xlink:href="#i" transform="matrix(1,0,0,1,1285,845) translate(43 14.4)"/><use xlink:href="#j" transform="matrix(1,0,0,1,1285,845) translate(107 14.4)"/><path d="M440.98 741.2l480.86 94.24" stroke="#000" stroke-width="2" fill="none"/><path d="M440.8 742.18l-3.94-.78.08-.4h4.1zM936.82 838.38l-5.13.62h-9.53l1.55-7.92z"/><path d="M940 839h-16.62l10.27-1.24-9.22-5.13-1.25 6.37h-2.03l1.85-9.46z"/><path d="M441 741.13l700.67 95.37" stroke="#000" stroke-width="2" fill="none"/><path d="M440.88 742.13l-4-.54.1-.6h4.06zM1156.8 838.56l-2.42.44h-12.04l.94-6.95z"/><path d="M1160 839h-11.24l4.83-.87-9.5-4.58-.75 5.45h-2.02l1.15-8.45z"/><path d="M441 741.1l920.6 95.98" stroke="#000" stroke-width="2" fill="none"/><path d="M440.92 742.1l-4-.42.06-.68h4.05zM1376.78 838.66l-1.57.34h-12.8l.67-6.43z"/><path d="M1380 839h-9.58l3.14-.67-9.64-4.28-.5 4.95h-2.02l.82-7.9z"/><path d="M1159.1 741.4l-202.2 90.07" stroke="#000" stroke-width="2" fill="none"/><path d="M1159.47 742.33l-.6-1.33h3.6zM957.87 836.1l-14.9 1.58 11.13-10.04z"/><path d="M959.35 836.96L940 839l14.45-13.02zm-13.44-.6l10.5-1.1-2.65-5.95z"/><path d="M1160 742v78.5" stroke="#000" stroke-width="2" fill="none"/><path d="M1161 742.03h-2V741h2z"/><path d="M1160 835.76l-4.64-14.26h9.28z" stroke="#000" stroke-width="2"/><path d="M1160.9 741.4l202.2 90.07" stroke="#000" stroke-width="2" fill="none"/><path d="M1160.53 742.33l-3-1.33h3.6zM1377.04 837.68l-14.9-1.57 3.76-8.46z"/><path d="M1380 839l-19.35-2.04 4.9-10.98zm-16.4-3.74l10.5 1.1-7.85-7.05z"/><path d="M1300 878.64h60v42.72c-10.02-7.13-16.26-7.13-20.04-7.13-6 0-13.98 7.13-19.98 7.13-3.72 0-10.02 0-19.98-7.13z" stroke="#000" stroke-width="2" fill="#e5e5e5"/><g><use xlink:href="#k" transform="matrix(1,0,0,1,1305,883.64) translate(25 18.69166666666667)"/></g><path d="M960 878.64h60v42.72c-10.02-7.13-16.26-7.13-20.04-7.13-6 0-13.98 7.13-19.98 7.13-3.72 0-10.02 0-19.98-7.13z" stroke="#000" stroke-width="2" fill="#99d2f2"/><g><use xlink:href="#k" transform="matrix(1,0,0,1,965,883.64) translate(25 18.69166666666667)"/></g><path d="M1080 878.64h60v42.72c-10.02-7.13-16.26-7.13-20.04-7.13-6 0-13.98 7.13-19.98 7.13-3.72 0-10.02 0-19.98-7.13z" stroke="#000" stroke-width="2" fill="#666"/><g><use xlink:href="#k" transform="matrix(1,0,0,1,1085,883.64) translate(25 18.69166666666667)"/></g><defs><path d="M232-93c-1 65-40 97-104 97C67 4 28-28 28-90v-158h33c8 89-33 224 67 224 102 0 64-133 71-224h33v155" id="l"/><path d="M135-143c-3-34-86-38-87 0 15 53 115 12 119 90S17 21 10-45l28-5c4 36 97 45 98 0-10-56-113-15-118-90-4-57 82-63 122-42 12 7 21 19 24 35" id="m"/><path d="M24-231v-30h32v30H24zM24 0v-190h32V0H24" id="n"/><path d="M117-194c89-4 53 116 60 194h-32v-121c0-31-8-49-39-48C34-167 62-67 57 0H25l-1-190h30c1 10-1 24 2 32 11-22 29-35 61-36" id="o"/><path d="M177-190C167-65 218 103 67 71c-23-6-38-20-44-43l32-5c15 47 100 32 89-28v-30C133-14 115 1 83 1 29 1 15-40 15-95c0-56 16-97 71-98 29-1 48 16 59 35 1-10 0-23 2-32h30zM94-22c36 0 50-32 50-73 0-42-14-75-50-75-39 0-46 34-46 75s6 73 46 73" id="p"/><g id="a"><use transform="matrix(0.05,0,0,0.05,0,0)" xlink:href="#l"/><use transform="matrix(0.05,0,0,0.05,12.950000000000001,0)" xlink:href="#m"/><use transform="matrix(0.05,0,0,0.05,21.950000000000003,0)" xlink:href="#n"/><use transform="matrix(0.05,0,0,0.05,25.900000000000002,0)" xlink:href="#o"/><use transform="matrix(0.05,0,0,0.05,35.900000000000006,0)" xlink:href="#p"/></g><path d="M114-163C36-179 61-72 57 0H25l-1-190h30c1 12-1 29 2 39 6-27 23-49 58-41v29" id="q"/><path d="M100-194c62-1 85 37 85 99 1 63-27 99-86 99S16-35 15-95c0-66 28-99 85-99zM99-20c44 1 53-31 53-75 0-43-8-75-51-75s-53 32-53 75 10 74 51 75" id="r"/><path d="M84 4C-5 8 30-112 23-190h32v120c0 31 7 50 39 49 72-2 45-101 50-169h31l1 190h-30c-1-10 1-25-2-33-11 22-28 36-60 37" id="s"/><path d="M115-194c55 1 70 41 70 98S169 2 115 4C84 4 66-9 55-30l1 105H24l-1-265h31l2 30c10-21 28-34 59-34zm-8 174c40 0 45-34 45-75s-6-73-45-74c-42 0-51 32-51 76 0 43 10 73 51 73" id="t"/><g id="b"><use transform="matrix(0.05,0,0,0.05,0,0)" xlink:href="#p"/><use transform="matrix(0.05,0,0,0.05,10,0)" xlink:href="#q"/><use transform="matrix(0.05,0,0,0.05,15.949999999999998,0)" xlink:href="#r"/><use transform="matrix(0.05,0,0,0.05,25.950000000000003,0)" xlink:href="#s"/><use transform="matrix(0.05,0,0,0.05,35.95,0)" xlink:href="#t"/><use transform="matrix(0.05,0,0,0.05,45.95,0)" xlink:href="#m"/></g><path d="M143 4C61 4 22-44 18-125c-5-107 100-154 193-111 17 8 29 25 37 43l-32 9c-13-25-37-40-76-40-61 0-88 39-88 99 0 61 29 100 91 101 35 0 62-11 79-27v-45h-74v-28h105v86C228-13 192 4 143 4" id="u"/><g id="c"><use transform="matrix(0.05,0,0,0.05,0,0)" xlink:href="#u"/><use transform="matrix(0.05,0,0,0.05,14,0)" xlink:href="#q"/><use transform="matrix(0.05,0,0,0.05,19.95,0)" xlink:href="#r"/><use transform="matrix(0.05,0,0,0.05,29.950000000000003,0)" xlink:href="#s"/><use transform="matrix(0.05,0,0,0.05,39.95,0)" xlink:href="#t"/></g><path d="M27 0v-27h64v-190l-56 39v-29l58-41h29v221h61V0H27" id="v"/><use transform="matrix(0.05,0,0,0.05,0,0)" xlink:href="#v" id="d"/><path d="M101-251c68 0 85 55 85 127S166 4 100 4C33 4 14-52 14-124c0-73 17-127 87-127zm-1 229c47 0 54-49 54-102s-4-102-53-102c-51 0-55 48-55 102 0 53 5 102 54 102" id="w"/><use transform="matrix(0.05,0,0,0.05,0,0)" xlink:href="#w" id="e"/><path d="M63-220v92h138v28H63V0H30v-248h175v28H63" id="x"/><path d="M24 0v-261h32V0H24" id="y"/><path d="M141-36C126-15 110 5 73 4 37 3 15-17 15-53c-1-64 63-63 125-63 3-35-9-54-41-54-24 1-41 7-42 31l-33-3c5-37 33-52 76-52 45 0 72 20 72 64v82c-1 20 7 32 28 27v20c-31 9-61-2-59-35zM48-53c0 20 12 33 32 33 41-3 63-29 60-74-43 2-92-5-92 41" id="z"/><path d="M59-47c-2 24 18 29 38 22v24C64 9 27 4 27-40v-127H5v-23h24l9-43h21v43h35v23H59v120" id="A"/><g id="f"><use transform="matrix(0.05,0,0,0.05,0,0)" xlink:href="#x"/><use transform="matrix(0.05,0,0,0.05,10.950000000000001,0)" xlink:href="#y"/><use transform="matrix(0.05,0,0,0.05,14.9,0)" xlink:href="#z"/><use transform="matrix(0.05,0,0,0.05,24.900000000000002,0)" xlink:href="#A"/></g><path d="M85-194c31 0 48 13 60 33l-1-100h32l1 261h-30c-2-10 0-23-3-31C134-8 116 4 85 4 32 4 16-35 15-94c0-66 23-100 70-100zm9 24c-40 0-46 34-46 75 0 40 6 74 45 74 42 0 51-32 51-76 0-42-9-74-50-73" id="B"/><path d="M115-194c53 0 69 39 70 98 0 66-23 100-70 100C84 3 66-7 56-30L54 0H23l1-261h32v101c10-23 28-34 59-34zm-8 174c40 0 45-34 45-75 0-40-5-75-45-74-42 0-51 32-51 76 0 43 10 73 51 73" id="C"/><g id="g"><use transform="matrix(0.05,0,0,0.05,0,0)" xlink:href="#B"/><use transform="matrix(0.05,0,0,0.05,10,0)" xlink:href="#n"/><use transform="matrix(0.05,0,0,0.05,13.949999999999998,0)" xlink:href="#m"/><use transform="matrix(0.05,0,0,0.05,22.95,0)" xlink:href="#A"/><use transform="matrix(0.05,0,0,0.05,27.950000000000003,0)" xlink:href="#q"/><use transform="matrix(0.05,0,0,0.05,33.9,0)" xlink:href="#n"/><use transform="matrix(0.05,0,0,0.05,37.85,0)" xlink:href="#C"/><use transform="matrix(0.05,0,0,0.05,47.85,0)" xlink:href="#s"/><use transform="matrix(0.05,0,0,0.05,57.85,0)" xlink:href="#A"/><use transform="matrix(0.05,0,0,0.05,62.85,0)" xlink:href="#n"/><use transform="matrix(0.05,0,0,0.05,66.8,0)" xlink:href="#r"/><use transform="matrix(0.05,0,0,0.05,76.8,0)" xlink:href="#o"/></g><path d="M140-251c81 0 123 46 123 126C263-53 228-8 163 1c7 30 30 48 69 40v23c-55 16-95-15-103-61C56-3 17-48 17-125c0-80 42-126 123-126zm0 227c63 0 89-41 89-101s-29-99-89-99c-61 0-89 39-89 99S79-25 140-24" id="D"/><path d="M233-177c-1 41-23 64-60 70L243 0h-38l-65-103H63V0H30v-248c88 3 205-21 203 71zM63-129c60-2 137 13 137-47 0-61-80-42-137-45v92" id="E"/><path d="M185-189c-5-48-123-54-124 2 14 75 158 14 163 119 3 78-121 87-175 55-17-10-28-26-33-46l33-7c5 56 141 63 141-1 0-78-155-14-162-118-5-82 145-84 179-34 5 7 8 16 11 25" id="F"/><g id="h"><use transform="matrix(0.05,0,0,0.05,0,0)" xlink:href="#D"/><use transform="matrix(0.05,0,0,0.05,14,0)" xlink:href="#E"/><use transform="matrix(0.05,0,0,0.05,26.950000000000003,0)" xlink:href="#F"/></g><path d="M96-169c-40 0-48 33-48 73s9 75 48 75c24 0 41-14 43-38l32 2c-6 37-31 61-74 61-59 0-76-41-82-99-10-93 101-131 147-64 4 7 5 14 7 22l-32 3c-4-21-16-35-41-35" id="G"/><path d="M100-194c63 0 86 42 84 106H49c0 40 14 67 53 68 26 1 43-12 49-29l28 8c-11 28-37 45-77 45C44 4 14-33 15-96c1-61 26-98 85-98zm52 81c6-60-76-77-97-28-3 7-6 17-6 28h103" id="H"/><g id="i"><use transform="matrix(0.05,0,0,0.05,0,0)" xlink:href="#G"/><use transform="matrix(0.05,0,0,0.05,9,0)" xlink:href="#r"/><use transform="matrix(0.05,0,0,0.05,19,0)" xlink:href="#o"/><use transform="matrix(0.05,0,0,0.05,29,0)" xlink:href="#A"/><use transform="matrix(0.05,0,0,0.05,34,0)" xlink:href="#H"/><use transform="matrix(0.05,0,0,0.05,44,0)" xlink:href="#o"/><use transform="matrix(0.05,0,0,0.05,54,0)" xlink:href="#A"/></g><g id="j"><use transform="matrix(0.05,0,0,0.05,0,0)" xlink:href="#o"/><use transform="matrix(0.05,0,0,0.05,10,0)" xlink:href="#r"/><use transform="matrix(0.05,0,0,0.05,20,0)" xlink:href="#B"/><use transform="matrix(0.05,0,0,0.05,30,0)" xlink:href="#H"/></g></defs></g></svg>