<svg version="1.1" viewBox="0.0 0.0 600.0 371.0" fill="none" stroke="none" stroke-linecap="square" stroke-miterlimit="10" width="600" height="371" xmlns:xlink="http://www.w3.org/1999/xlink" xmlns="http://www.w3.org/2000/svg"><path fill="#ffffff" d="M0 0L600.0 0L600.0 371.0L0 371.0L0 0Z" fill-rule="nonzero"/><path stroke="#cccccc" stroke-width="1.0" stroke-linecap="butt" d="M79.5 61.5L79.5 300.5" fill-rule="nonzero"/><path stroke="#cccccc" stroke-width="1.0" stroke-linecap="butt" d="M179.5 61.5L179.5 300.5" fill-rule="nonzero"/><path stroke="#cccccc" stroke-width="1.0" stroke-linecap="butt" d="M279.5 61.5L279.5 300.5" fill-rule="nonzero"/><path stroke="#cccccc" stroke-width="1.0" stroke-linecap="butt" d="M379.5 61.5L379.5 300.5" fill-rule="nonzero"/><path stroke="#cccccc" stroke-width="1.0" stroke-linecap="butt" d="M479.5 61.5L479.5 300.5" fill-rule="nonzero"/><path stroke="#cccccc" stroke-width="1.0" stroke-linecap="butt" d="M579.5 61.5L579.5 300.5" fill-rule="nonzero"/><path stroke="#333333" stroke-width="1.0" stroke-linecap="butt" d="M77.5 300.5L581.5 300.5" fill-rule="nonzero"/><path stroke="#cccccc" stroke-width="1.0" stroke-linecap="butt" d="M77.5 240.5L581.5 240.5" fill-rule="nonzero"/><path stroke="#cccccc" stroke-width="1.0" stroke-linecap="butt" d="M77.5 181.5L581.5 181.5" fill-rule="nonzero"/><path stroke="#cccccc" stroke-width="1.0" stroke-linecap="butt" d="M77.5 121.5L581.5 121.5" fill-rule="nonzero"/><path stroke="#cccccc" stroke-width="1.0" stroke-linecap="butt" d="M77.5 61.5L581.5 61.5" fill-rule="nonzero"/><clipPath id="id_0"><path d="M77.55 61.916668L581.45 61.916668L581.45 300.45L77.55 300.45L77.55 61.916668Z" clip-rule="nonzero"/></clipPath><path stroke="#f1c232" stroke-width="1.0" stroke-linecap="butt" clip-path="url(#id_0)" d="M79.53425 61.916668L179.52055 176.41267L279.50684 236.046L379.49316 257.514L479.47946 262.28467L579.46576 264.67" fill-rule="nonzero"/><path fill="#f1c232" clip-path="url(#id_0)" d="M81.53425 61.916668C81.53425 63.021236 80.63882 63.916668 79.53425 63.916668C78.42968 63.916668 77.53425 63.021236 77.53425 61.916668C77.53425 60.812096 78.42968 59.916668 79.53425 59.916668C80.63882 59.916668 81.53425 60.812096 81.53425 61.916668Z" fill-rule="nonzero"/><path fill="#f1c232" clip-path="url(#id_0)" d="M181.52055 176.41267C181.52055 177.51724 180.62512 178.41267 179.52055 178.41267C178.41599 178.41267 177.52055 177.51724 177.52055 176.41267C177.52055 175.30809 178.41599 174.41267 179.52055 174.41267C180.62512 174.41267 181.52055 175.30809 181.52055 176.41267Z" fill-rule="nonzero"/><path fill="#f1c232" clip-path="url(#id_0)" d="M281.50684 236.046C281.50684 237.15057 280.61142 238.046 279.50684 238.046C278.40228 238.046 277.50684 237.15057 277.50684 236.046C277.50684 234.94144 278.40228 234.046 279.50684 234.046C280.61142 234.046 281.50684 234.94144 281.50684 236.046Z" fill-rule="nonzero"/><path fill="#f1c232" clip-path="url(#id_0)" d="M381.49316 257.514C381.49316 258.61856 380.59772 259.514 379.49316 259.514C378.38858 259.514 377.49316 258.61856 377.49316 257.514C377.49316 256.40942 378.38858 255.514 379.49316 255.514C380.59772 255.514 381.49316 256.40942 381.49316 257.514Z" fill-rule="nonzero"/><path fill="#f1c232" clip-path="url(#id_0)" d="M481.47946 262.28467C481.47946 263.38922 480.584 264.28467 479.47946 264.28467C478.37488 264.28467 477.47946 263.38922 477.47946 262.28467C477.47946 261.18008 478.37488 260.28467 479.47946 260.28467C480.584 260.28467 481.47946 261.18008 481.47946 262.28467Z" fill-rule="nonzero"/><path fill="#f1c232" clip-path="url(#id_0)" d="M581.46576 264.67C581.46576 265.77457 580.5703 266.67 579.46576 266.67C578.3612 266.67 577.46576 265.77457 577.46576 264.67C577.46576 263.56543 578.3612 262.67 579.46576 262.67C580.5703 262.67 581.46576 263.56543 581.46576 264.67Z" fill-rule="nonzero"/><path fill="#000000" d="M209.60938 349.45L209.60938 341.8719L206.78125 341.8719L206.78125 340.85626L213.59375 340.85626L213.59375 341.8719L210.75 341.8719L210.75 349.45L209.60938 349.45ZM214.29688 349.45L214.29688 340.85626L215.34375 340.85626L215.34375 343.9344Q216.07812 343.09064 217.20312 343.09064Q217.90625 343.09064 218.40625 343.3719Q218.92188 343.6375 219.14062 344.1219Q219.35938 344.59064 219.35938 345.5125L219.35938 349.45L218.3125 349.45L218.3125 345.5125Q218.3125 344.71564 217.96875 344.35626Q217.625 343.9969 217.0 343.9969Q216.53125 343.9969 216.10938 344.2469Q215.70312 344.48126 215.51562 344.90314Q215.34375 345.3094 215.34375 346.04376L215.34375 349.45L214.29688 349.45ZM221.28125 349.45L221.28125 343.23126L222.23438 343.23126L222.23438 344.16876Q222.59375 343.5125 222.89062 343.3094Q223.20312 343.09064 223.57812 343.09064Q224.10938 343.09064 224.65625 343.41876L224.29688 344.40314Q223.90625 344.16876 223.53125 344.16876Q223.17188 344.16876 222.89062 344.3875Q222.625 344.59064 222.51562 344.96564Q222.32812 345.52814 222.32812 346.1844L222.32812 349.45L221.28125 349.45ZM229.54688 347.45L230.64062 347.575Q230.39062 348.52814 229.6875 349.0594Q228.98438 349.59064 227.90625 349.59064Q226.54688 349.59064 225.73438 348.7469Q224.9375 347.90314 224.9375 346.3875Q224.9375 344.825 225.75 343.96564Q226.5625 343.09064 227.84375 343.09064Q229.09375 343.09064 229.875 343.9344Q230.67188 344.77814 230.67188 346.325Q230.67188 346.41876 230.67188 346.60626L226.03125 346.60626Q226.09375 347.6375 226.60938 348.1844Q227.125 348.71564 227.90625 348.71564Q228.48438 348.71564 228.89062 348.41876Q229.3125 348.10626 229.54688 347.45ZM226.09375 345.7469L229.5625 345.7469Q229.5 344.95 229.17188 344.5594Q228.65625 343.95 227.85938 343.95Q227.125 343.95 226.625 344.4344Q226.14062 344.91876 226.09375 345.7469ZM236.35938 348.6844Q235.76562 349.1844 235.21875 349.3875Q234.6875 349.59064 234.0625 349.59064Q233.03125 349.59064 232.48438 349.09064Q231.9375 348.59064 231.9375 347.8094Q231.9375 347.35626 232.14062 346.98126Q232.34375 346.59064 232.6875 346.3719Q233.03125 346.1375 233.45312 346.02814Q233.75 345.9344 234.39062 345.85626Q235.65625 345.71564 236.26562 345.4969Q236.26562 345.27814 236.26562 345.23126Q236.26562 344.575 235.96875 344.3094Q235.5625 343.96564 234.76562 343.96564Q234.03125 343.96564 233.67188 344.23126Q233.3125 344.48126 233.14062 345.1375L232.10938 344.9969Q232.25 344.34064 232.57812 343.9344Q232.90625 343.52814 233.51562 343.3094Q234.125 343.09064 234.92188 343.09064Q235.71875 343.09064 236.21875 343.27814Q236.71875 343.46564 236.95312 343.7469Q237.1875 344.02814 237.28125 344.46564Q237.32812 344.73126 237.32812 345.4344L237.32812 346.84064Q237.32812 348.3094 237.39062 348.7Q237.46875 349.09064 237.67188 349.45L236.5625 349.45Q236.40625 349.1219 236.35938 348.6844ZM236.26562 346.325Q235.6875 346.5594 234.54688 346.73126Q233.89062 346.825 233.625 346.95Q233.35938 347.0594 233.20312 347.27814Q233.0625 347.4969 233.0625 347.77814Q233.0625 348.2 233.375 348.48126Q233.70312 348.7625 234.3125 348.7625Q234.92188 348.7625 235.39062 348.4969Q235.875 348.23126 236.09375 347.7625Q236.26562 347.40314 236.26562 346.71564L236.26562 346.325ZM243.32812 349.45L243.32812 348.66876Q242.73438 349.59064 241.59375 349.59064Q240.84375 349.59064 240.21875 349.1844Q239.59375 348.7625 239.25 348.02814Q238.90625 347.29376 238.90625 346.34064Q238.90625 345.41876 239.21875 344.65314Q239.53125 343.8875 240.15625 343.4969Q240.78125 343.09064 241.54688 343.09064Q242.10938 343.09064 242.54688 343.325Q242.98438 343.5594 243.26562 343.9344L243.26562 340.85626L244.3125 340.85626L244.3125 349.45L243.32812 349.45ZM240.0 346.34064Q240.0 347.54376 240.5 348.1375Q241.0 348.71564 241.6875 348.71564Q242.375 348.71564 242.85938 348.15314Q243.34375 347.59064 243.34375 346.4344Q243.34375 345.15314 242.84375 344.5594Q242.35938 343.96564 241.64062 343.96564Q240.9375 343.96564 240.46875 344.54376Q240.0 345.10626 240.0 346.34064ZM245.875 347.59064L246.90625 347.4344Q247.0 348.0594 247.39062 348.3875Q247.79688 348.71564 248.53125 348.71564Q249.25 348.71564 249.59375 348.4344Q249.95312 348.1375 249.95312 347.73126Q249.95312 347.3719 249.64062 347.16876Q249.42188 347.02814 248.5625 346.8094Q247.40625 346.5125 246.95312 346.3094Q246.51562 346.09064 246.28125 345.71564Q246.04688 345.34064 246.04688 344.8719Q246.04688 344.46564 246.23438 344.10626Q246.42188 343.7469 246.75 343.5125Q247.0 343.34064 247.42188 343.21564Q247.84375 343.09064 248.34375 343.09064Q249.0625 343.09064 249.60938 343.3094Q250.17188 343.5125 250.4375 343.8719Q250.70312 344.23126 250.79688 344.825L249.76562 344.96564Q249.70312 344.4969 249.35938 344.23126Q249.03125 343.95 248.40625 343.95Q247.6875 343.95 247.375 344.2Q247.0625 344.4344 247.0625 344.7625Q247.0625 344.96564 247.1875 345.1219Q247.32812 345.29376 247.59375 345.40314Q247.75 345.46564 248.53125 345.66876Q249.65625 345.98126 250.09375 346.16876Q250.53125 346.35626 250.78125 346.71564Q251.03125 347.075 251.03125 347.6219Q251.03125 348.15314 250.71875 348.6219Q250.42188 349.075 249.84375 349.34064Q249.26562 349.59064 248.53125 349.59064Q247.3125 349.59064 246.67188 349.09064Q246.04688 348.575 245.875 347.59064ZM255.29688 351.84064L255.29688 343.23126L256.25 343.23126L256.25 344.02814Q256.59375 343.5594 257.01562 343.325Q257.45312 343.09064 258.0625 343.09064Q258.85938 343.09064 259.46875 343.4969Q260.07812 343.90314 260.375 344.65314Q260.6875 345.40314 260.6875 346.29376Q260.6875 347.2469 260.34375 348.0125Q260.01562 348.77814 259.35938 349.1844Q258.70312 349.59064 257.98438 349.59064Q257.45312 349.59064 257.03125 349.3719Q256.60938 349.1375 256.34375 348.8094L256.34375 351.84064L255.29688 351.84064ZM256.25 346.3719Q256.25 347.575 256.73438 348.15314Q257.21875 348.71564 257.90625 348.71564Q258.60938 348.71564 259.10938 348.1219Q259.60938 347.52814 259.60938 346.27814Q259.60938 345.09064 259.125 344.5125Q258.64062 343.91876 257.95312 343.91876Q257.28125 343.91876 256.76562 344.54376Q256.25 345.16876 256.25 346.3719ZM266.54688 347.45L267.64062 347.575Q267.39062 348.52814 266.6875 349.0594Q265.98438 349.59064 264.90625 349.59064Q263.54688 349.59064 262.73438 348.7469Q261.9375 347.90314 261.9375 346.3875Q261.9375 344.825 262.75 343.96564Q263.5625 343.09064 264.84375 343.09064Q266.09375 343.09064 266.875 343.9344Q267.67188 344.77814 267.67188 346.325Q267.67188 346.41876 267.67188 346.60626L263.03125 346.60626Q263.09375 347.6375 263.60938 348.1844Q264.125 348.71564 264.90625 348.71564Q265.48438 348.71564 265.89062 348.41876Q266.3125 348.10626 266.54688 347.45ZM263.09375 345.7469L266.5625 345.7469Q266.5 344.95 266.17188 344.5594Q265.65625 343.95 264.85938 343.95Q264.125 343.95 263.625 344.4344Q263.14062 344.91876 263.09375 345.7469ZM269.28125 349.45L269.28125 343.23126L270.23438 343.23126L270.23438 344.16876Q270.59375 343.5125 270.89062 343.3094Q271.20312 343.09064 271.57812 343.09064Q272.10938 343.09064 272.65625 343.41876L272.29688 344.40314Q271.90625 344.16876 271.53125 344.16876Q271.17188 344.16876 270.89062 344.3875Q270.625 344.59064 270.51562 344.96564Q270.32812 345.52814 270.32812 346.1844L270.32812 349.45L269.28125 349.45ZM275.875 347.59064L276.90625 347.4344Q277.0 348.0594 277.39062 348.3875Q277.79688 348.71564 278.53125 348.71564Q279.25 348.71564 279.59375 348.4344Q279.95312 348.1375 279.95312 347.73126Q279.95312 347.3719 279.64062 347.16876Q279.42188 347.02814 278.5625 346.8094Q277.40625 346.5125 276.95312 346.3094Q276.51562 346.09064 276.28125 345.71564Q276.04688 345.34064 276.04688 344.8719Q276.04688 344.46564 276.23438 344.10626Q276.42188 343.7469 276.75 343.5125Q277.0 343.34064 277.42188 343.21564Q277.84375 343.09064 278.34375 343.09064Q279.0625 343.09064 279.60938 343.3094Q280.17188 343.5125 280.4375 343.8719Q280.70312 344.23126 280.79688 344.825L279.76562 344.96564Q279.70312 344.4969 279.35938 344.23126Q279.03125 343.95 278.40625 343.95Q277.6875 343.95 277.375 344.2Q277.0625 344.4344 277.0625 344.7625Q277.0625 344.96564 277.1875 345.1219Q277.32812 345.29376 277.59375 345.40314Q277.75 345.46564 278.53125 345.66876Q279.65625 345.98126 280.09375 346.16876Q280.53125 346.35626 280.78125 346.71564Q281.03125 347.075 281.03125 347.6219Q281.03125 348.15314 280.71875 348.6219Q280.42188 349.075 279.84375 349.34064Q279.26562 349.59064 278.53125 349.59064Q277.3125 349.59064 276.67188 349.09064Q276.04688 348.575 275.875 347.59064ZM286.54688 347.45L287.64062 347.575Q287.39062 348.52814 286.6875 349.0594Q285.98438 349.59064 284.90625 349.59064Q283.54688 349.59064 282.73438 348.7469Q281.9375 347.90314 281.9375 346.3875Q281.9375 344.825 282.75 343.96564Q283.5625 343.09064 284.84375 343.09064Q286.09375 343.09064 286.875 343.9344Q287.67188 344.77814 287.67188 346.325Q287.67188 346.41876 287.67188 346.60626L283.03125 346.60626Q283.09375 347.6375 283.60938 348.1844Q284.125 348.71564 284.90625 348.71564Q285.48438 348.71564 285.89062 348.41876Q286.3125 348.10626 286.54688 347.45ZM283.09375 345.7469L286.5625 345.7469Q286.5 344.95 286.17188 344.5594Q285.65625 343.95 284.85938 343.95Q284.125 343.95 283.625 344.4344Q283.14062 344.91876 283.09375 345.7469ZM293.35938 348.6844Q292.76562 349.1844 292.21875 349.3875Q291.6875 349.59064 291.0625 349.59064Q290.03125 349.59064 289.48438 349.09064Q288.9375 348.59064 288.9375 347.8094Q288.9375 347.35626 289.14062 346.98126Q289.34375 346.59064 289.6875 346.3719Q290.03125 346.1375 290.45312 346.02814Q290.75 345.9344 291.39062 345.85626Q292.65625 345.71564 293.26562 345.4969Q293.26562 345.27814 293.26562 345.23126Q293.26562 344.575 292.96875 344.3094Q292.5625 343.96564 291.76562 343.96564Q291.03125 343.96564 290.67188 344.23126Q290.3125 344.48126 290.14062 345.1375L289.10938 344.9969Q289.25 344.34064 289.57812 343.9344Q289.90625 343.52814 290.51562 343.3094Q291.125 343.09064 291.92188 343.09064Q292.71875 343.09064 293.21875 343.27814Q293.71875 343.46564 293.95312 343.7469Q294.1875 344.02814 294.28125 344.46564Q294.32812 344.73126 294.32812 345.4344L294.32812 346.84064Q294.32812 348.3094 294.39062 348.7Q294.46875 349.09064 294.67188 349.45L293.5625 349.45Q293.40625 349.1219 293.35938 348.6844ZM293.26562 346.325Q292.6875 346.5594 291.54688 346.73126Q290.89062 346.825 290.625 346.95Q290.35938 347.0594 290.20312 347.27814Q290.0625 347.4969 290.0625 347.77814Q290.0625 348.2 290.375 348.48126Q290.70312 348.7625 291.3125 348.7625Q291.92188 348.7625 292.39062 348.4969Q292.875 348.23126 293.09375 347.7625Q293.26562 347.40314 293.26562 346.71564L293.26562 346.325ZM296.28125 349.45L296.28125 343.23126L297.23438 343.23126L297.23438 344.16876Q297.59375 343.5125 297.89062 343.3094Q298.20312 343.09064 298.57812 343.09064Q299.10938 343.09064 299.65625 343.41876L299.29688 344.40314Q298.90625 344.16876 298.53125 344.16876Q298.17188 344.16876 297.89062 344.3875Q297.625 344.59064 297.51562 344.96564Q297.32812 345.52814 297.32812 346.1844L297.32812 349.45L296.28125 349.45ZM304.35938 347.16876L305.39062 347.3094Q305.21875 348.3719 304.51562 348.98126Q303.8125 349.59064 302.79688 349.59064Q301.51562 349.59064 300.73438 348.7625Q299.96875 347.91876 299.96875 346.35626Q299.96875 345.35626 300.29688 344.60626Q300.64062 343.84064 301.3125 343.46564Q302.0 343.09064 302.8125 343.09064Q303.8125 343.09064 304.45312 343.60626Q305.10938 344.10626 305.29688 345.0594L304.26562 345.21564Q304.125 344.59064 303.75 344.27814Q303.375 343.95 302.84375 343.95Q302.04688 343.95 301.54688 344.52814Q301.04688 345.09064 301.04688 346.325Q301.04688 347.59064 301.53125 348.15314Q302.01562 348.71564 302.78125 348.71564Q303.40625 348.71564 303.8125 348.34064Q304.23438 347.96564 304.35938 347.16876ZM306.29688 349.45L306.29688 340.85626L307.34375 340.85626L307.34375 343.9344Q308.07812 343.09064 309.20312 343.09064Q309.90625 343.09064 310.40625 343.3719Q310.92188 343.6375 311.14062 344.1219Q311.35938 344.59064 311.35938 345.5125L311.35938 349.45L310.3125 349.45L310.3125 345.5125Q310.3125 344.71564 309.96875 344.35626Q309.625 343.9969 309.0 343.9969Q308.53125 343.9969 308.10938 344.2469Q307.70312 344.48126 307.51562 344.90314Q307.34375 345.3094 307.34375 346.04376L307.34375 349.45L306.29688 349.45ZM315.875 346.8719L315.875 345.8094L319.125 345.8094L319.125 346.8719L315.875 346.8719ZM323.48438 349.45L323.48438 340.85626L329.28125 340.85626L329.28125 341.8719L324.625 341.8719L324.625 344.52814L328.65625 344.52814L328.65625 345.54376L324.625 345.54376L324.625 349.45L323.48438 349.45ZM330.29688 342.075L330.29688 340.85626L331.35938 340.85626L331.35938 342.075L330.29688 342.075ZM330.29688 349.45L330.29688 343.23126L331.35938 343.23126L331.35938 349.45L330.29688 349.45ZM332.59375 349.45L334.85938 346.21564L332.76562 343.23126L334.07812 343.23126L335.03125 344.6844Q335.29688 345.10626 335.46875 345.3875Q335.71875 344.9969 335.9375 344.7L336.98438 343.23126L338.25 343.23126L336.09375 346.15314L338.40625 349.45L337.125 349.45L335.84375 347.5125L335.5 346.9969L333.85938 349.45L332.59375 349.45ZM343.54688 347.45L344.64062 347.575Q344.39062 348.52814 343.6875 349.0594Q342.98438 349.59064 341.90625 349.59064Q340.54688 349.59064 339.73438 348.7469Q338.9375 347.90314 338.9375 346.3875Q338.9375 344.825 339.75 343.96564Q340.5625 343.09064 341.84375 343.09064Q343.09375 343.09064 343.875 343.9344Q344.67188 344.77814 344.67188 346.325Q344.67188 346.41876 344.67188 346.60626L340.03125 346.60626Q340.09375 347.6375 340.60938 348.1844Q341.125 348.71564 341.90625 348.71564Q342.48438 348.71564 342.89062 348.41876Q343.3125 348.10626 343.54688 347.45ZM340.09375 345.7469L343.5625 345.7469Q343.5 344.95 343.17188 344.5594Q342.65625 343.95 341.85938 343.95Q341.125 343.95 340.625 344.4344Q340.14062 344.91876 340.09375 345.7469ZM350.32812 349.45L350.32812 348.66876Q349.73438 349.59064 348.59375 349.59064Q347.84375 349.59064 347.21875 349.1844Q346.59375 348.7625 346.25 348.02814Q345.90625 347.29376 345.90625 346.34064Q345.90625 345.41876 346.21875 344.65314Q346.53125 343.8875 347.15625 343.4969Q347.78125 343.09064 348.54688 343.09064Q349.10938 343.09064 349.54688 343.325Q349.98438 343.5594 350.26562 343.9344L350.26562 340.85626L351.3125 340.85626L351.3125 349.45L350.32812 349.45ZM347.0 346.34064Q347.0 347.54376 347.5 348.1375Q348.0 348.71564 348.6875 348.71564Q349.375 348.71564 349.85938 348.15314Q350.34375 347.59064 350.34375 346.4344Q350.34375 345.15314 349.84375 344.5594Q349.35938 343.96564 348.64062 343.96564Q347.9375 343.96564 347.46875 344.54376Q347.0 345.10626 347.0 346.34064ZM360.32812 349.45L360.32812 348.66876Q359.73438 349.59064 358.59375 349.59064Q357.84375 349.59064 357.21875 349.1844Q356.59375 348.7625 356.25 348.02814Q355.90625 347.29376 355.90625 346.34064Q355.90625 345.41876 356.21875 344.65314Q356.53125 343.8875 357.15625 343.4969Q357.78125 343.09064 358.54688 343.09064Q359.10938 343.09064 359.54688 343.325Q359.98438 343.5594 360.26562 343.9344L360.26562 340.85626L361.3125 340.85626L361.3125 349.45L360.32812 349.45ZM357.0 346.34064Q357.0 347.54376 357.5 348.1375Q358.0 348.71564 358.6875 348.71564Q359.375 348.71564 359.85938 348.15314Q360.34375 347.59064 360.34375 346.4344Q360.34375 345.15314 359.84375 344.5594Q359.35938 343.96564 358.64062 343.96564Q357.9375 343.96564 357.46875 344.54376Q357.0 345.10626 357.0 346.34064ZM362.90625 346.34064Q362.90625 344.60626 363.85938 343.77814Q364.65625 343.09064 365.8125 343.09064Q367.09375 343.09064 367.90625 343.9344Q368.73438 344.7625 368.73438 346.2469Q368.73438 347.45 368.375 348.1375Q368.01562 348.825 367.3125 349.21564Q366.625 349.59064 365.8125 349.59064Q364.51562 349.59064 363.70312 348.7625Q362.90625 347.91876 362.90625 346.34064ZM363.98438 346.34064Q363.98438 347.52814 364.5 348.1219Q365.03125 348.71564 365.8125 348.71564Q366.60938 348.71564 367.125 348.1219Q367.64062 347.52814 367.64062 346.3094Q367.64062 345.15314 367.10938 344.5594Q366.59375 343.96564 365.8125 343.96564Q365.03125 343.96564 364.5 344.5594Q363.98438 345.1375 363.98438 346.34064ZM374.35938 347.16876L375.39062 347.3094Q375.21875 348.3719 374.51562 348.98126Q373.8125 349.59064 372.79688 349.59064Q371.51562 349.59064 370.73438 348.7625Q369.96875 347.91876 369.96875 346.35626Q369.96875 345.35626 370.29688 344.60626Q370.64062 343.84064 371.3125 343.46564Q372.0 343.09064 372.8125 343.09064Q373.8125 343.09064 374.45312 343.60626Q375.10938 344.10626 375.29688 345.0594L374.26562 345.21564Q374.125 344.59064 373.75 344.27814Q373.375 343.95 372.84375 343.95Q372.04688 343.95 371.54688 344.52814Q371.04688 345.09064 371.04688 346.325Q371.04688 347.59064 371.53125 348.15314Q372.01562 348.71564 372.78125 348.71564Q373.40625 348.71564 373.8125 348.34064Q374.23438 347.96564 374.35938 347.16876ZM380.375 349.45L380.375 348.52814Q379.64062 349.59064 378.39062 349.59064Q377.84375 349.59064 377.35938 349.3875Q376.89062 349.16876 376.65625 348.85626Q376.42188 348.52814 376.32812 348.0594Q376.26562 347.7625 376.26562 347.075L376.26562 343.23126L377.32812 343.23126L377.32812 346.6844Q377.32812 347.4969 377.39062 347.79376Q377.48438 348.2 377.79688 348.45Q378.125 348.6844 378.60938 348.6844Q379.07812 348.6844 379.48438 348.45Q379.90625 348.2 380.07812 347.77814Q380.26562 347.35626 380.26562 346.5594L380.26562 343.23126L381.3125 343.23126L381.3125 349.45L380.375 349.45ZM383.29688 349.45L383.29688 343.23126L384.23438 343.23126L384.23438 344.10626Q384.53125 343.6375 385.01562 343.3719Q385.5 343.09064 386.125 343.09064Q386.8125 343.09064 387.25 343.3719Q387.70312 343.65314 387.875 344.16876Q388.625 343.09064 389.79688 343.09064Q390.73438 343.09064 391.21875 343.60626Q391.71875 344.10626 391.71875 345.1844L391.71875 349.45L390.67188 349.45L390.67188 345.52814Q390.67188 344.90314 390.5625 344.6219Q390.46875 344.34064 390.20312 344.16876Q389.9375 343.9969 389.5625 343.9969Q388.90625 343.9969 388.46875 344.4344Q388.04688 344.8719 388.04688 345.84064L388.04688 349.45L386.98438 349.45L386.98438 345.40314Q386.98438 344.7 386.71875 344.35626Q386.46875 343.9969 385.89062 343.9969Q385.4375 343.9969 385.0625 344.23126Q384.6875 344.46564 384.51562 344.91876Q384.34375 345.3719 384.34375 346.21564L384.34375 349.45L383.29688 349.45ZM397.54688 347.45L398.64062 347.575Q398.39062 348.52814 397.6875 349.0594Q396.98438 349.59064 395.90625 349.59064Q394.54688 349.59064 393.73438 348.7469Q392.9375 347.90314 392.9375 346.3875Q392.9375 344.825 393.75 343.96564Q394.5625 343.09064 395.84375 343.09064Q397.09375 343.09064 397.875 343.9344Q398.67188 344.77814 398.67188 346.325Q398.67188 346.41876 398.67188 346.60626L394.03125 346.60626Q394.09375 347.6375 394.60938 348.1844Q395.125 348.71564 395.90625 348.71564Q396.48438 348.71564 396.89062 348.41876Q397.3125 348.10626 397.54688 347.45ZM394.09375 345.7469L397.5625 345.7469Q397.5 344.95 397.17188 344.5594Q396.65625 343.95 395.85938 343.95Q395.125 343.95 394.625 344.4344Q394.14062 344.91876 394.09375 345.7469ZM400.29688 349.45L400.29688 343.23126L401.23438 343.23126L401.23438 344.10626Q401.92188 343.09064 403.21875 343.09064Q403.78125 343.09064 404.25 343.29376Q404.73438 343.4969 404.96875 343.825Q405.20312 344.15314 405.29688 344.59064Q405.34375 344.8875 405.34375 345.6219L405.34375 349.45L404.29688 349.45L404.29688 345.66876Q404.29688 345.0125 404.17188 344.7Q404.04688 344.3875 403.73438 344.2Q403.42188 343.9969 403.0 343.9969Q402.32812 343.9969 401.82812 344.4344Q401.34375 344.85626 401.34375 346.04376L401.34375 349.45L400.29688 349.45ZM409.59375 348.5125L409.75 349.4344Q409.29688 349.52814 408.95312 349.52814Q408.375 349.52814 408.0625 349.35626Q407.75 349.16876 407.60938 348.8719Q407.48438 348.575 407.48438 347.6219L407.48438 344.04376L406.71875 344.04376L406.71875 343.23126L407.48438 343.23126L407.48438 341.6844L408.53125 341.0594L408.53125 343.23126L409.59375 343.23126L409.59375 344.04376L408.53125 344.04376L408.53125 347.6844Q408.53125 348.1375 408.57812 348.2625Q408.64062 348.3875 408.76562 348.46564Q408.89062 348.54376 409.125 348.54376Q409.3125 348.54376 409.59375 348.5125ZM415.01562 349.45L412.65625 343.23126L413.76562 343.23126L415.10938 346.95Q415.3125 347.5594 415.5 348.2Q415.64062 347.71564 415.89062 347.02814L417.28125 343.23126L418.35938 343.23126L416.0 349.45L415.01562 349.45ZM418.90625 346.34064Q418.90625 344.60626 419.85938 343.77814Q420.65625 343.09064 421.8125 343.09064Q423.09375 343.09064 423.90625 343.9344Q424.73438 344.7625 424.73438 346.2469Q424.73438 347.45 424.375 348.1375Q424.01562 348.825 423.3125 349.21564Q422.625 349.59064 421.8125 349.59064Q420.51562 349.59064 419.70312 348.7625Q418.90625 347.91876 418.90625 346.34064ZM419.98438 346.34064Q419.98438 347.52814 420.5 348.1219Q421.03125 348.71564 421.8125 348.71564Q422.60938 348.71564 423.125 348.1219Q423.64062 347.52814 423.64062 346.3094Q423.64062 345.15314 423.10938 344.5594Q422.59375 343.96564 421.8125 343.96564Q421.03125 343.96564 420.5 344.5594Q419.98438 345.1375 419.98438 346.34064ZM426.26562 349.45L426.26562 340.85626L427.32812 340.85626L427.32812 349.45L426.26562 349.45ZM433.375 349.45L433.375 348.52814Q432.64062 349.59064 431.39062 349.59064Q430.84375 349.59064 430.35938 349.3875Q429.89062 349.16876 429.65625 348.85626Q429.42188 348.52814 429.32812 348.0594Q429.26562 347.7625 429.26562 347.075L429.26562 343.23126L430.32812 343.23126L430.32812 346.6844Q430.32812 347.4969 430.39062 347.79376Q430.48438 348.2 430.79688 348.45Q431.125 348.6844 431.60938 348.6844Q432.07812 348.6844 432.48438 348.45Q432.90625 348.2 433.07812 347.77814Q433.26562 347.35626 433.26562 346.5594L433.26562 343.23126L434.3125 343.23126L434.3125 349.45L433.375 349.45ZM436.29688 349.45L436.29688 343.23126L437.23438 343.23126L437.23438 344.10626Q437.53125 343.6375 438.01562 343.3719Q438.5 343.09064 439.125 343.09064Q439.8125 343.09064 440.25 343.3719Q440.70312 343.65314 440.875 344.16876Q441.625 343.09064 442.79688 343.09064Q443.73438 343.09064 444.21875 343.60626Q444.71875 344.10626 444.71875 345.1844L444.71875 349.45L443.67188 349.45L443.67188 345.52814Q443.67188 344.90314 443.5625 344.6219Q443.46875 344.34064 443.20312 344.16876Q442.9375 343.9969 442.5625 343.9969Q441.90625 343.9969 441.46875 344.4344Q441.04688 344.8719 441.04688 345.84064L441.04688 349.45L439.98438 349.45L439.98438 345.40314Q439.98438 344.7 439.71875 344.35626Q439.46875 343.9969 438.89062 343.9969Q438.4375 343.9969 438.0625 344.23126Q437.6875 344.46564 437.51562 344.91876Q437.34375 345.3719 437.34375 346.21564L437.34375 349.45L436.29688 349.45ZM450.54688 347.45L451.64062 347.575Q451.39062 348.52814 450.6875 349.0594Q449.98438 349.59064 448.90625 349.59064Q447.54688 349.59064 446.73438 348.7469Q445.9375 347.90314 445.9375 346.3875Q445.9375 344.825 446.75 343.96564Q447.5625 343.09064 448.84375 343.09064Q450.09375 343.09064 450.875 343.9344Q451.67188 344.77814 451.67188 346.325Q451.67188 346.41876 451.67188 346.60626L447.03125 346.60626Q447.09375 347.6375 447.60938 348.1844Q448.125 348.71564 448.90625 348.71564Q449.48438 348.71564 449.89062 348.41876Q450.3125 348.10626 450.54688 347.45ZM447.09375 345.7469L450.5625 345.7469Q450.5 344.95 450.17188 344.5594Q449.65625 343.95 448.85938 343.95Q448.125 343.95 447.625 344.4344Q447.14062 344.91876 447.09375 345.7469Z" fill-rule="nonzero"/><path fill="#000000" d="M29.550013 221.80833L20.956263 221.80833L20.956263 220.66771L28.534388 220.66771L28.534388 216.43333L29.550013 216.43333L29.550013 221.80833ZM28.784388 210.82396Q29.284388 211.41771 29.487513 211.96458Q29.690638 212.49583 29.690638 213.12083Q29.690638 214.15208 29.190638 214.69896Q28.690638 215.24583 27.909388 215.24583Q27.456263 215.24583 27.081263 215.04271Q26.690638 214.83958 26.471888 214.49583Q26.237513 214.15208 26.128138 213.73021Q26.034388 213.43333 25.956263 212.79271Q25.815638 211.52708 25.596888 210.91771Q25.378138 210.91771 25.331263 210.91771Q24.675013 210.91771 24.409388 211.21458Q24.065638 211.62083 24.065638 212.41771Q24.065638 213.15208 24.331263 213.51146Q24.581263 213.87083 25.237513 214.04271L25.096888 215.07396Q24.440638 214.93333 24.034388 214.60521Q23.628138 214.27708 23.409388 213.66771Q23.190638 213.05833 23.190638 212.26146Q23.190638 211.46458 23.378138 210.96458Q23.565638 210.46458 23.846888 210.23021Q24.128138 209.99583 24.565638 209.90208Q24.831263 209.85521 25.534388 209.85521L26.940638 209.85521Q28.409388 209.85521 28.800013 209.79271Q29.190638 209.71458 29.550013 209.51146L29.550013 210.62083Q29.221888 210.77708 28.784388 210.82396ZM26.425013 210.91771Q26.659388 211.49583 26.831263 212.63646Q26.925013 213.29271 27.050013 213.55833Q27.159388 213.82396 27.378138 213.98021Q27.596888 214.12083 27.878138 214.12083Q28.300013 214.12083 28.581263 213.80833Q28.862513 213.48021 28.862513 212.87083Q28.862513 212.26146 28.596888 211.79271Q28.331263 211.30833 27.862513 211.08958Q27.503138 210.91771 26.815638 210.91771L26.425013 210.91771ZM28.612513 205.58958L29.534388 205.43333Q29.628138 205.88646 29.628138 206.23021Q29.628138 206.80833 29.456263 207.12083Q29.268763 207.43333 28.971888 207.57396Q28.675013 207.69896 27.721888 207.69896L24.143763 207.69896L24.143763 208.46458L23.331263 208.46458L23.331263 207.69896L21.784388 207.69896L21.159388 206.65208L23.331263 206.65208L23.331263 205.58958L24.143763 205.58958L24.143763 206.65208L27.784388 206.65208Q28.237513 206.65208 28.362513 206.60521Q28.487513 206.54271 28.565638 206.41771Q28.643763 206.29271 28.643763 206.05833Q28.643763 205.87083 28.612513 205.58958ZM27.550013 200.63646L27.675013 199.54271Q28.628138 199.79271 29.159388 200.49583Q29.690638 201.19896 29.690638 202.27708Q29.690638 203.63646 28.846888 204.44896Q28.003138 205.24583 26.487513 205.24583Q24.925013 205.24583 24.065638 204.43333Q23.190638 203.62083 23.190638 202.33958Q23.190638 201.08958 24.034388 200.30833Q24.878138 199.51146 26.425013 199.51146Q26.518763 199.51146 26.706263 199.51146L26.706263 204.15208Q27.737513 204.08958 28.284388 203.57396Q28.815638 203.05833 28.815638 202.27708Q28.815638 201.69896 28.518763 201.29271Q28.206263 200.87083 27.550013 200.63646ZM25.846888 204.08958L25.846888 200.62083Q25.050013 200.68333 24.659388 201.01146Q24.050013 201.52708 24.050013 202.32396Q24.050013 203.05833 24.534388 203.55833Q25.018763 204.04271 25.846888 204.08958ZM29.550013 197.88646L23.331263 197.88646L23.331263 196.94896L24.206263 196.94896Q23.190638 196.26146 23.190638 194.96458Q23.190638 194.40208 23.393763 193.93333Q23.596888 193.44896 23.925013 193.21458Q24.253138 192.98021 24.690638 192.88646Q24.987513 192.83958 25.721888 192.83958L29.550013 192.83958L29.550013 193.88646L25.768763 193.88646Q25.112513 193.88646 24.800013 194.01146Q24.487513 194.13646 24.300013 194.44896Q24.096888 194.76146 24.096888 195.18333Q24.096888 195.85521 24.534388 196.35521Q24.956263 196.83958 26.143763 196.83958L29.550013 196.83958L29.550013 197.88646ZM27.268763 186.82396L27.409388 185.79271Q28.471888 185.96458 29.081263 186.66771Q29.690638 187.37083 29.690638 188.38646Q29.690638 189.66771 28.862513 190.44896Q28.018763 191.21458 26.456263 191.21458Q25.456263 191.21458 24.706263 190.88646Q23.940638 190.54271 23.565638 189.87083Q23.190638 189.18333 23.190638 188.37083Q23.190638 187.37083 23.706263 186.73021Q24.206263 186.07396 25.159388 185.88646L25.315638 186.91771Q24.690638 187.05833 24.378138 187.43333Q24.050013 187.80833 24.050013 188.33958Q24.050013 189.13646 24.628138 189.63646Q25.190638 190.13646 26.425013 190.13646Q27.690638 190.13646 28.253138 189.65208Q28.815638 189.16771 28.815638 188.40208Q28.815638 187.77708 28.440638 187.37083Q28.065638 186.94896 27.268763 186.82396ZM31.940638 184.93333L30.956263 185.05833Q31.050013 184.71458 31.050013 184.44896Q31.050013 184.10521 30.925013 183.90208Q30.815638 183.68333 30.612513 183.54271Q30.440638 183.44896 29.815638 183.21458Q29.737513 183.19896 29.565638 183.12083L23.331263 185.49583L23.331263 184.35521L26.925013 183.05833Q27.612513 182.80833 28.378138 182.60521Q27.643763 182.41771 26.956263 182.16771L23.331263 180.83958L23.331263 179.79271L29.659388 182.15208Q30.675013 182.54271 31.065638 182.74583Q31.596888 183.02708 31.831263 183.40208Q32.08126 183.76146 32.08126 184.26146Q32.08126 184.55833 31.940638 184.93333ZM32.08126 173.87083Q30.971888 174.74583 29.503138 175.35521Q28.018763 175.94896 26.440638 175.94896Q25.050013 175.94896 23.768763 175.51146Q22.284388 174.98021 20.815638 173.87083L20.815638 173.12083Q22.034388 173.82396 22.550013 174.05833Q23.362513 174.41771 24.237513 174.62083Q25.331263 174.87083 26.440638 174.87083Q29.268763 174.87083 32.08126 173.12083L32.08126 173.87083ZM29.550013 171.88646L23.331263 171.88646L23.331263 170.94896L24.206263 170.94896Q23.737513 170.65208 23.471888 170.16771Q23.190638 169.68333 23.190638 169.05833Q23.190638 168.37083 23.471888 167.93333Q23.753138 167.48021 24.268763 167.30833Q23.190638 166.55833 23.190638 165.38646Q23.190638 164.44896 23.706263 163.96458Q24.206263 163.46458 25.284388 163.46458L29.550013 163.46458L29.550013 164.51146L25.628138 164.51146Q25.003138 164.51146 24.721888 164.62083Q24.440638 164.71458 24.268763 164.98021Q24.096888 165.24583 24.096888 165.62083Q24.096888 166.27708 24.534388 166.71458Q24.971888 167.13646 25.940638 167.13646L29.550013 167.13646L29.550013 168.19896L25.503138 168.19896Q24.800013 168.19896 24.456263 168.46458Q24.096888 168.71458 24.096888 169.29271Q24.096888 169.74583 24.331263 170.12083Q24.565638 170.49583 25.018763 170.66771Q25.471888 170.83958 26.315638 170.83958L29.550013 170.83958L29.550013 171.88646ZM27.690638 162.30833L27.534388 161.27708Q28.159388 161.18333 28.487513 160.79271Q28.815638 160.38646 28.815638 159.65208Q28.815638 158.93333 28.534388 158.58958Q28.237513 158.23021 27.831263 158.23021Q27.471888 158.23021 27.268763 158.54271Q27.128138 158.76146 26.909388 159.62083Q26.612513 160.77708 26.409388 161.23021Q26.190638 161.66771 25.815638 161.90208Q25.440638 162.13646 24.971888 162.13646Q24.565638 162.13646 24.206263 161.94896Q23.846888 161.76146 23.612513 161.43333Q23.440638 161.18333 23.315638 160.76146Q23.190638 160.33958 23.190638 159.83958Q23.190638 159.12083 23.409388 158.57396Q23.612513 158.01146 23.971888 157.74583Q24.331263 157.48021 24.925013 157.38646L25.065638 158.41771Q24.596888 158.48021 24.331263 158.82396Q24.050013 159.15208 24.050013 159.77708Q24.050013 160.49583 24.300013 160.80833Q24.534388 161.12083 24.862513 161.12083Q25.065638 161.12083 25.221888 160.99583Q25.393763 160.85521 25.503138 160.58958Q25.565638 160.43333 25.768763 159.65208Q26.081263 158.52708 26.268763 158.08958Q26.456263 157.65208 26.815638 157.40208Q27.175013 157.15208 27.721888 157.15208Q28.253138 157.15208 28.721888 157.46458Q29.175013 157.76146 29.440638 158.33958Q29.690638 158.91771 29.690638 159.65208Q29.690638 160.87083 29.190638 161.51146Q28.675013 162.13646 27.690638 162.30833ZM32.08126 155.19896L32.08126 155.94896Q29.268763 154.19896 26.440638 154.19896Q25.346888 154.19896 24.253138 154.44896Q23.378138 154.65208 22.565638 155.01146Q22.050013 155.24583 20.815638 155.94896L20.815638 155.19896Q22.284388 154.10521 23.768763 153.57396Q25.050013 153.12083 26.440638 153.12083Q28.018763 153.12083 29.503138 153.73021Q30.971888 154.33958 32.08126 155.19896Z" fill-rule="nonzero"/><path fill="#000000" d="M65.05 300.21564Q65.05 298.6844 65.3625 297.7625Q65.675 296.825 66.28438 296.325Q66.90938 295.825 67.84688 295.825Q68.53438 295.825 69.05 296.10626Q69.58125 296.3875 69.925 296.91876Q70.26875 297.4344 70.45625 298.1844Q70.64375 298.9344 70.64375 300.21564Q70.64375 301.73126 70.33125 302.65314Q70.03438 303.575 69.40938 304.09064Q68.8 304.59064 67.84688 304.59064Q66.6125 304.59064 65.89375 303.7Q65.05 302.6375 65.05 300.21564ZM66.12813 300.21564Q66.12813 302.325 66.62813 303.02814Q67.12813 303.73126 67.84688 303.73126Q68.58125 303.73126 69.06563 303.02814Q69.56563 302.325 69.56563 300.21564Q69.56563 298.09064 69.06563 297.40314Q68.58125 296.7 67.83125 296.7Q67.1125 296.7 66.675 297.3094Q66.12813 298.09064 66.12813 300.21564Z" fill-rule="nonzero"/><path fill="#000000" d="M63.596874 243.80104L63.596874 244.81667L57.909374 244.81667Q57.909374 244.44167 58.034374 244.08229Q58.253124 243.50417 58.721874 242.94167Q59.20625 242.37917 60.1125 241.64479Q61.51875 240.48854 62.003124 239.81667Q62.503124 239.14479 62.503124 238.55104Q62.503124 237.92604 62.05 237.50417Q61.596874 237.06667 60.878124 237.06667Q60.1125 237.06667 59.659374 237.51979Q59.20625 237.97292 59.190624 238.78542L58.1125 238.67604Q58.221874 237.45729 58.940624 236.83229Q59.675 236.19167 60.909374 236.19167Q62.14375 236.19167 62.8625 236.87917Q63.58125 237.56667 63.58125 238.58229Q63.58125 239.09792 63.3625 239.59792Q63.159374 240.08229 62.659374 240.64479Q62.175 241.19167 61.05 242.14479Q60.096874 242.94167 59.815624 243.23854Q59.55 243.51979 59.378124 243.80104L63.596874 243.80104ZM65.05 242.56667L66.15938 242.47292Q66.28438 243.28542 66.72188 243.69167Q67.175 244.09792 67.81563 244.09792Q68.56563 244.09792 69.09688 243.51979Q69.62813 242.94167 69.62813 242.00417Q69.62813 241.09792 69.1125 240.58229Q68.6125 240.05104 67.78438 240.05104Q67.28438 240.05104 66.8625 240.28542Q66.45625 240.51979 66.22188 240.87917L65.2375 240.75417L66.06563 236.34792L70.34688 236.34792L70.34688 237.34792L66.90938 237.34792L66.45625 239.66042Q67.22188 239.11354 68.06563 239.11354Q69.19063 239.11354 69.95625 239.89479Q70.7375 240.67604 70.7375 241.91042Q70.7375 243.06667 70.06563 243.92604Q69.2375 244.95729 67.81563 244.95729Q66.64375 244.95729 65.89375 244.30104Q65.15938 243.64479 65.05 242.56667Z" fill-rule="nonzero"/><path fill="#000000" d="M58.05 182.93333L59.159374 182.83958Q59.284374 183.65208 59.721874 184.05833Q60.175 184.46458 60.815624 184.46458Q61.565624 184.46458 62.096874 183.88646Q62.628124 183.30833 62.628124 182.37083Q62.628124 181.46458 62.1125 180.94896Q61.6125 180.41771 60.784374 180.41771Q60.284374 180.41771 59.8625 180.65208Q59.45625 180.88646 59.221874 181.24583L58.2375 181.12083L59.065624 176.71458L63.346874 176.71458L63.346874 177.71458L59.909374 177.71458L59.45625 180.02708Q60.221874 179.48021 61.065624 179.48021Q62.190624 179.48021 62.95625 180.26146Q63.7375 181.04271 63.7375 182.27708Q63.7375 183.43333 63.065624 184.29271Q62.2375 185.32396 60.815624 185.32396Q59.64375 185.32396 58.89375 184.66771Q58.159374 184.01146 58.05 182.93333ZM65.05 180.94896Q65.05 179.41771 65.3625 178.49583Q65.675 177.55833 66.28438 177.05833Q66.90938 176.55833 67.84688 176.55833Q68.53438 176.55833 69.05 176.83958Q69.58125 177.12083 69.925 177.65208Q70.26875 178.16771 70.45625 178.91771Q70.64375 179.66771 70.64375 180.94896Q70.64375 182.46458 70.33125 183.38646Q70.03438 184.30833 69.40938 184.82396Q68.8 185.32396 67.84688 185.32396Q66.6125 185.32396 65.89375 184.43333Q65.05 183.37083 65.05 180.94896ZM66.12813 180.94896Q66.12813 183.05833 66.62813 183.76146Q67.12813 184.46458 67.84688 184.46458Q68.58125 184.46458 69.06563 183.76146Q69.56563 183.05833 69.56563 180.94896Q69.56563 178.82396 69.06563 178.13646Q68.58125 177.43333 67.83125 177.43333Q67.1125 177.43333 66.675 178.04271Q66.12813 178.82396 66.12813 180.94896Z" fill-rule="nonzero"/><path fill="#000000" d="M58.1125 118.08125L58.1125 117.06563L63.675 117.06563L63.675 117.89375Q62.8625 118.76875 62.05 120.22188Q61.253124 121.65938 60.815624 123.19063Q60.4875 124.26875 60.409374 125.55L59.315624 125.55Q59.33125 124.53438 59.70625 123.09688Q60.096874 121.65938 60.8 120.33125Q61.51875 119.00313 62.33125 118.08125L58.1125 118.08125ZM65.05 123.3L66.15938 123.20625Q66.28438 124.01875 66.72188 124.425Q67.175 124.83125 67.81563 124.83125Q68.56563 124.83125 69.09688 124.25313Q69.62813 123.675 69.62813 122.7375Q69.62813 121.83125 69.1125 121.31563Q68.6125 120.78438 67.78438 120.78438Q67.28438 120.78438 66.8625 121.01875Q66.45625 121.25313 66.22188 121.6125L65.2375 121.4875L66.06563 117.08125L70.34688 117.08125L70.34688 118.08125L66.90938 118.08125L66.45625 120.39375Q67.22188 119.84688 68.06563 119.84688Q69.19063 119.84688 69.95625 120.62813Q70.7375 121.40938 70.7375 122.64375Q70.7375 123.8 70.06563 124.65938Q69.2375 125.69063 67.81563 125.69063Q66.64375 125.69063 65.89375 125.03438Q65.15938 124.37813 65.05 123.3Z" fill-rule="nonzero"/><path fill="#000000" d="M55.01875 65.916664L53.971874 65.916664L53.971874 59.197914Q53.58125 59.55729 52.95625 59.93229Q52.346874 60.291664 51.8625 60.46354L51.8625 59.447914Q52.7375 59.02604 53.39375 58.447914Q54.065624 57.854164 54.346874 57.291664L55.01875 57.291664L55.01875 65.916664ZM58.05 61.68229Q58.05 60.15104 58.3625 59.229164Q58.675 58.291664 59.284374 57.791664Q59.909374 57.291664 60.846874 57.291664Q61.534374 57.291664 62.05 57.572914Q62.58125 57.854164 62.925 58.385414Q63.26875 58.90104 63.45625 59.65104Q63.64375 60.40104 63.64375 61.68229Q63.64375 63.197914 63.33125 64.11979Q63.034374 65.041664 62.409374 65.55729Q61.8 66.05729 60.846874 66.05729Q59.6125 66.05729 58.89375 65.166664Q58.05 64.104164 58.05 61.68229ZM59.128124 61.68229Q59.128124 63.791664 59.628124 64.49479Q60.128124 65.197914 60.846874 65.197914Q61.58125 65.197914 62.065624 64.49479Q62.565624 63.791664 62.565624 61.68229Q62.565624 59.55729 62.065624 58.86979Q61.58125 58.166664 60.83125 58.166664Q60.1125 58.166664 59.675 58.77604Q59.128124 59.55729 59.128124 61.68229ZM65.05 61.68229Q65.05 60.15104 65.3625 59.229164Q65.675 58.291664 66.28438 57.791664Q66.90938 57.291664 67.84688 57.291664Q68.53438 57.291664 69.05 57.572914Q69.58125 57.854164 69.925 58.385414Q70.26875 58.90104 70.45625 59.65104Q70.64375 60.40104 70.64375 61.68229Q70.64375 63.197914 70.33125 64.11979Q70.03438 65.041664 69.40938 65.55729Q68.8 66.05729 67.84688 66.05729Q66.6125 66.05729 65.89375 65.166664Q65.05 64.104164 65.05 61.68229ZM66.12813 61.68229Q66.12813 63.791664 66.62813 64.49479Q67.12813 65.197914 67.84688 65.197914Q68.58125 65.197914 69.06563 64.49479Q69.56563 63.791664 69.56563 61.68229Q69.56563 59.55729 69.06563 58.86979Q68.58125 58.166664 67.83125 58.166664Q67.1125 58.166664 66.675 58.77604Q66.12813 59.55729 66.12813 61.68229Z" fill-rule="nonzero"/><path fill="#000000" d="M80.503 317.45L79.45612 317.45L79.45612 310.73126Q79.0655 311.09064 78.4405 311.46564Q77.83112 311.825 77.34675 311.9969L77.34675 310.98126Q78.22175 310.5594 78.878 309.98126Q79.54987 309.3875 79.83112 308.825L80.503 308.825L80.503 317.45Z" fill-rule="nonzero"/><path fill="#000000" d="M182.06743 316.4344L182.06743 317.45L176.37993 317.45Q176.37993 317.075 176.50493 316.71564Q176.72368 316.1375 177.19243 315.575Q177.6768 315.0125 178.58305 314.27814Q179.9893 313.1219 180.47368 312.45Q180.97368 311.77814 180.97368 311.1844Q180.97368 310.5594 180.52055 310.1375Q180.06743 309.7 179.34868 309.7Q178.58305 309.7 178.12993 310.15314Q177.6768 310.60626 177.66118 311.41876L176.58305 311.3094Q176.69243 310.09064 177.41118 309.46564Q178.14555 308.825 179.37993 308.825Q180.6143 308.825 181.33305 309.5125Q182.0518 310.2 182.0518 311.21564Q182.0518 311.73126 181.83305 312.23126Q181.62993 312.71564 181.12993 313.27814Q180.64555 313.825 179.52055 314.77814Q178.56743 315.575 178.28618 315.8719Q178.02055 316.15314 177.84868 316.4344L182.06743 316.4344Z" fill-rule="nonzero"/><path fill="#000000" d="M276.50684 315.1844L277.56934 315.04376Q277.7412 315.9344 278.1787 316.34064Q278.6162 316.73126 279.2412 316.73126Q279.9912 316.73126 280.50684 316.21564Q281.02246 315.7 281.02246 314.9344Q281.02246 314.21564 280.5381 313.7469Q280.06934 313.2625 279.33496 313.2625Q279.0381 313.2625 278.58496 313.3875L278.70996 312.45Q278.81934 312.46564 278.88184 312.46564Q279.5537 312.46564 280.08496 312.1219Q280.63184 311.7625 280.63184 311.02814Q280.63184 310.45 280.2412 310.075Q279.8506 309.6844 279.2256 309.6844Q278.6162 309.6844 278.19434 310.075Q277.7881 310.46564 277.6787 311.23126L276.6162 311.04376Q276.8037 309.9969 277.4912 309.41876Q278.1787 308.825 279.19434 308.825Q279.89746 308.825 280.4912 309.1375Q281.08496 309.4344 281.39746 309.95Q281.70996 310.46564 281.70996 311.0594Q281.70996 311.60626 281.4131 312.075Q281.1162 312.52814 280.5381 312.79376Q281.2881 312.96564 281.70996 313.52814Q282.13184 314.075 282.13184 314.91876Q282.13184 316.04376 281.3037 316.825Q280.4912 317.60626 279.2412 317.60626Q278.1162 317.60626 277.3662 316.9344Q276.6162 316.2469 276.50684 315.1844Z" fill-rule="nonzero"/><path fill="#000000" d="M379.86816 317.45L379.86816 315.3875L376.1494 315.3875L376.1494 314.41876L380.0713 308.85626L380.93066 308.85626L380.93066 314.41876L382.0869 314.41876L382.0869 315.3875L380.93066 315.3875L380.93066 317.45L379.86816 317.45ZM379.86816 314.41876L379.86816 310.5594L377.18066 314.41876L379.86816 314.41876Z" fill-rule="nonzero"/><path fill="#000000" d="M476.47946 315.2L477.58884 315.10626Q477.71384 315.91876 478.15134 316.325Q478.60446 316.73126 479.2451 316.73126Q479.9951 316.73126 480.52634 316.15314Q481.0576 315.575 481.0576 314.6375Q481.0576 313.73126 480.54196 313.21564Q480.04196 312.6844 479.21384 312.6844Q478.71384 312.6844 478.29196 312.91876Q477.8857 313.15314 477.65134 313.5125L476.66696 313.3875L477.4951 308.98126L481.77634 308.98126L481.77634 309.98126L478.33884 309.98126L477.8857 312.29376Q478.65134 311.7469 479.4951 311.7469Q480.6201 311.7469 481.3857 312.52814Q482.16696 313.3094 482.16696 314.54376Q482.16696 315.7 481.4951 316.5594Q480.66696 317.59064 479.2451 317.59064Q478.0732 317.59064 477.3232 316.9344Q476.58884 316.27814 476.47946 315.2Z" fill-rule="nonzero"/><path fill="#000000" d="M581.9345 310.96564L580.88763 311.04376Q580.747 310.41876 580.497 310.1375Q580.0595 309.6844 579.4345 309.6844Q578.9345 309.6844 578.5439 309.96564Q578.0595 310.34064 577.76263 311.04376Q577.4814 311.73126 577.46576 313.0125Q577.84076 312.4344 578.38763 312.15314Q578.95013 311.8719 579.5595 311.8719Q580.6064 311.8719 581.34076 312.65314Q582.09076 313.4344 582.09076 314.65314Q582.09076 315.46564 581.7314 316.16876Q581.38763 316.85626 580.77826 317.23126Q580.1689 317.59064 579.40326 317.59064Q578.07513 317.59064 577.247 316.6219Q576.4189 315.65314 576.4189 313.4344Q576.4189 310.9344 577.34076 309.8094Q578.13763 308.825 579.497 308.825Q580.51263 308.825 581.15326 309.40314Q581.8095 309.96564 581.9345 310.96564ZM577.63763 314.66876Q577.63763 315.21564 577.8564 315.71564Q578.09076 316.2 578.497 316.46564Q578.9189 316.73126 579.38763 316.73126Q580.0439 316.73126 580.52826 316.2Q581.01263 315.65314 581.01263 314.73126Q581.01263 313.84064 580.52826 313.325Q580.0595 312.8094 579.34076 312.8094Q578.622 312.8094 578.122 313.325Q577.63763 313.84064 577.63763 314.66876Z" fill-rule="nonzero"/><path fill="#757575" d="M30.315624 32.534374L32.20625 33.003124Q31.6125 35.346874 30.065624 36.58125Q28.51875 37.8 26.26875 37.8Q23.95625 37.8 22.503124 36.8625Q21.065624 35.909374 20.3 34.128124Q19.55 32.33125 19.55 30.284374Q19.55 28.05 20.39375 26.39375Q21.253124 24.721874 22.83125 23.8625Q24.409374 22.9875 26.3 22.9875Q28.45625 22.9875 29.909374 24.08125Q31.378124 25.175 31.95625 27.159374L30.096874 27.596874Q29.596874 26.034374 28.64375 25.33125Q27.70625 24.6125 26.26875 24.6125Q24.6125 24.6125 23.503124 25.409374Q22.39375 26.190624 21.940624 27.534374Q21.503124 28.8625 21.503124 30.26875Q21.503124 32.096874 22.034374 33.471874Q22.565624 34.83125 23.690624 35.503124Q24.815624 36.175 26.1125 36.175Q27.70625 36.175 28.815624 35.253124Q29.925 34.33125 30.315624 32.534374ZM33.221874 32.3625Q33.221874 29.4875 34.815624 28.096874Q36.159374 26.940624 38.08125 26.940624Q40.221874 26.940624 41.565624 28.346874Q42.925 29.753124 42.925 32.221874Q42.925 34.221874 42.33125 35.378124Q41.7375 36.51875 40.58125 37.159374Q39.440624 37.784374 38.08125 37.784374Q35.89375 37.784374 34.55 36.39375Q33.221874 34.9875 33.221874 32.3625ZM35.01875 32.3625Q35.01875 34.3625 35.878124 35.346874Q36.753124 36.33125 38.08125 36.33125Q39.39375 36.33125 40.253124 35.346874Q41.128124 34.346874 41.128124 32.3Q41.128124 30.378124 40.253124 29.39375Q39.378124 28.39375 38.08125 28.39375Q36.753124 28.39375 35.878124 29.39375Q35.01875 30.378124 35.01875 32.3625ZM44.8625 37.55L44.8625 27.175L46.45625 27.175L46.45625 28.659374Q47.596874 26.940624 49.753124 26.940624Q50.690624 26.940624 51.471874 27.284374Q52.26875 27.6125 52.659374 28.159374Q53.05 28.70625 53.20625 29.45625Q53.3 29.95625 53.3 31.175L53.3 37.55L51.534374 37.55L51.534374 31.2375Q51.534374 30.159374 51.33125 29.628124Q51.128124 29.096874 50.596874 28.784374Q50.08125 28.471874 49.378124 28.471874Q48.253124 28.471874 47.440624 29.190624Q46.628124 29.89375 46.628124 31.878124L46.628124 37.55L44.8625 37.55ZM59.70625 35.971874L59.95625 37.534374Q59.221874 37.690624 58.628124 37.690624Q57.675 37.690624 57.14375 37.39375Q56.628124 37.08125 56.409374 36.596874Q56.190624 36.096874 56.190624 34.51875L56.190624 28.55L54.909374 28.55L54.909374 27.175L56.190624 27.175L56.190624 24.6125L57.940624 23.55L57.940624 27.175L59.70625 27.175L59.70625 28.55L57.940624 28.55L57.940624 34.6125Q57.940624 35.3625 58.034374 35.58125Q58.128124 35.784374 58.33125 35.925Q58.55 36.05 58.940624 36.05Q59.221874 36.05 59.70625 35.971874ZM68.97188 34.20625L70.78438 34.440624Q70.3625 36.01875 69.19063 36.909374Q68.03438 37.784374 66.22188 37.784374Q63.95625 37.784374 62.6125 36.39375Q61.284374 34.9875 61.284374 32.45625Q61.284374 29.83125 62.628124 28.39375Q63.971874 26.940624 66.12813 26.940624Q68.20625 26.940624 69.51875 28.3625Q70.84688 29.76875 70.84688 32.346874Q70.84688 32.503124 70.83125 32.815624L63.096874 32.815624Q63.190624 34.51875 64.06563 35.425Q64.94063 36.33125 66.2375 36.33125Q67.20625 36.33125 67.87813 35.83125Q68.56563 35.315624 68.97188 34.20625ZM63.190624 31.3625L68.9875 31.3625Q68.87813 30.065624 68.33125 29.409374Q67.4875 28.39375 66.14375 28.39375Q64.94063 28.39375 64.1125 29.20625Q63.284374 30.003124 63.190624 31.3625ZM72.8625 37.55L72.8625 27.175L74.45625 27.175L74.45625 28.659374Q75.59688 26.940624 77.75313 26.940624Q78.69063 26.940624 79.47188 27.284374Q80.26875 27.6125 80.65938 28.159374Q81.05 28.70625 81.20625 29.45625Q81.3 29.95625 81.3 31.175L81.3 37.55L79.53438 37.55L79.53438 31.2375Q79.53438 30.159374 79.33125 29.628124Q79.12813 29.096874 78.59688 28.784374Q78.08125 28.471874 77.37813 28.471874Q76.25313 28.471874 75.44063 29.190624Q74.62813 29.89375 74.62813 31.878124L74.62813 37.55L72.8625 37.55ZM87.70625 35.971874L87.95625 37.534374Q87.22188 37.690624 86.62813 37.690624Q85.675 37.690624 85.14375 37.39375Q84.62813 37.08125 84.40938 36.596874Q84.19063 36.096874 84.19063 34.51875L84.19063 28.55L82.90938 28.55L82.90938 27.175L84.19063 27.175L84.19063 24.6125L85.94063 23.55L85.94063 27.175L87.70625 27.175L87.70625 28.55L85.94063 28.55L85.94063 34.6125Q85.94063 35.3625 86.03438 35.58125Q86.12813 35.784374 86.33125 35.925Q86.55 36.05 86.94063 36.05Q87.22188 36.05 87.70625 35.971874ZM96.08125 37.55L96.08125 23.2375L98.01875 23.2375L105.53438 34.471874L105.53438 23.2375L107.34688 23.2375L107.34688 37.55L105.40938 37.55L97.89375 26.3L97.89375 37.55L96.08125 37.55ZM109.22188 32.3625Q109.22188 29.4875 110.81563 28.096874Q112.15938 26.940624 114.08125 26.940624Q116.22188 26.940624 117.56563 28.346874Q118.925 29.753124 118.925 32.221874Q118.925 34.221874 118.33125 35.378124Q117.7375 36.51875 116.58125 37.159374Q115.44063 37.784374 114.08125 37.784374Q111.89375 37.784374 110.55 36.39375Q109.22188 34.9875 109.22188 32.3625ZM111.01875 32.3625Q111.01875 34.3625 111.87813 35.346874Q112.75313 36.33125 114.08125 36.33125Q115.39375 36.33125 116.25313 35.346874Q117.12813 34.346874 117.12813 32.3Q117.12813 30.378124 116.25313 29.39375Q115.37813 28.39375 114.08125 28.39375Q112.75313 28.39375 111.87813 29.39375Q111.01875 30.378124 111.01875 32.3625ZM127.59688 37.55L127.59688 36.2375Q126.6125 37.784374 124.69063 37.784374Q123.45625 37.784374 122.40938 37.096874Q121.37813 36.409374 120.8 35.190624Q120.2375 33.971874 120.2375 32.378124Q120.2375 30.815624 120.75313 29.55Q121.26875 28.284374 122.3 27.6125Q123.34688 26.940624 124.6125 26.940624Q125.55 26.940624 126.28438 27.346874Q127.01875 27.7375 127.4875 28.3625L127.4875 23.2375L129.22188 23.2375L129.22188 37.55L127.59688 37.55ZM122.03438 32.378124Q122.03438 34.3625 122.87813 35.346874Q123.72188 36.33125 124.8625 36.33125Q126.01875 36.33125 126.81563 35.39375Q127.62813 34.45625 127.62813 32.51875Q127.62813 30.39375 126.8 29.39375Q125.9875 28.39375 124.78438 28.39375Q123.6125 28.39375 122.81563 29.3625Q122.03438 30.315624 122.03438 32.378124ZM138.97188 34.20625L140.78438 34.440624Q140.3625 36.01875 139.19063 36.909374Q138.03438 37.784374 136.22188 37.784374Q133.95625 37.784374 132.6125 36.39375Q131.28438 34.9875 131.28438 32.45625Q131.28438 29.83125 132.62813 28.39375Q133.97188 26.940624 136.12813 26.940624Q138.20625 26.940624 139.51875 28.3625Q140.84688 29.76875 140.84688 32.346874Q140.84688 32.503124 140.83125 32.815624L133.09688 32.815624Q133.19063 34.51875 134.06563 35.425Q134.94063 36.33125 136.2375 36.33125Q137.20625 36.33125 137.87813 35.83125Q138.56563 35.315624 138.97188 34.20625ZM133.19063 31.3625L138.9875 31.3625Q138.87813 30.065624 138.33125 29.409374Q137.4875 28.39375 136.14375 28.39375Q134.94063 28.39375 134.1125 29.20625Q133.28438 30.003124 133.19063 31.3625ZM148.45625 32.95625L150.2375 32.8Q150.3625 33.8625 150.81563 34.55Q151.28438 35.2375 152.25313 35.675Q153.2375 36.096874 154.47188 36.096874Q155.55 36.096874 156.37813 35.784374Q157.20625 35.45625 157.6125 34.89375Q158.01875 34.33125 158.01875 33.659374Q158.01875 32.9875 157.62813 32.4875Q157.2375 31.9875 156.34688 31.64375Q155.76875 31.409374 153.78438 30.940624Q151.81563 30.471874 151.03438 30.05Q150.00313 29.51875 149.50313 28.721874Q149.00313 27.925 149.00313 26.940624Q149.00313 25.846874 149.6125 24.909374Q150.22188 23.971874 151.40938 23.4875Q152.59688 22.9875 154.03438 22.9875Q155.62813 22.9875 156.84688 23.503124Q158.06563 24.01875 158.70625 25.01875Q159.3625 26.003124 159.40938 27.26875L157.59688 27.409374Q157.45625 26.05 156.6125 25.3625Q155.76875 24.659374 154.1125 24.659374Q152.39375 24.659374 151.59688 25.3Q150.81563 25.925 150.81563 26.8Q150.81563 27.58125 151.37813 28.08125Q151.925 28.58125 154.2375 29.096874Q156.55 29.6125 157.40938 30.003124Q158.65938 30.58125 159.25313 31.471874Q159.84688 32.346874 159.84688 33.503124Q159.84688 34.64375 159.19063 35.659374Q158.53438 36.675 157.3 37.2375Q156.08125 37.8 154.55 37.8Q152.6125 37.8 151.3 37.2375Q149.9875 36.659374 149.2375 35.51875Q148.4875 34.378124 148.45625 32.95625ZM168.97188 34.20625L170.78438 34.440624Q170.3625 36.01875 169.19063 36.909374Q168.03438 37.784374 166.22188 37.784374Q163.95625 37.784374 162.6125 36.39375Q161.28438 34.9875 161.28438 32.45625Q161.28438 29.83125 162.62813 28.39375Q163.97188 26.940624 166.12813 26.940624Q168.20625 26.940624 169.51875 28.3625Q170.84688 29.76875 170.84688 32.346874Q170.84688 32.503124 170.83125 32.815624L163.09688 32.815624Q163.19063 34.51875 164.06563 35.425Q164.94063 36.33125 166.2375 36.33125Q167.20625 36.33125 167.87813 35.83125Q168.56563 35.315624 168.97188 34.20625ZM163.19063 31.3625L168.9875 31.3625Q168.87813 30.065624 168.33125 29.409374Q167.4875 28.39375 166.14375 28.39375Q164.94063 28.39375 164.1125 29.20625Q163.28438 30.003124 163.19063 31.3625ZM179.64375 36.26875Q178.65938 37.096874 177.75313 37.440624Q176.84688 37.784374 175.81563 37.784374Q174.1125 37.784374 173.19063 36.95625Q172.26875 36.1125 172.26875 34.815624Q172.26875 34.05 172.6125 33.425Q172.97188 32.8 173.53438 32.425Q174.09688 32.034374 174.8 31.83125Q175.31563 31.70625 176.3625 31.565624Q178.4875 31.315624 179.4875 30.971874Q179.50313 30.6125 179.50313 30.503124Q179.50313 29.440624 179.00313 28.9875Q178.33125 28.39375 177.00313 28.39375Q175.75313 28.39375 175.15938 28.83125Q174.58125 29.26875 174.3 30.378124L172.58125 30.14375Q172.81563 29.034374 173.34688 28.3625Q173.87813 27.675 174.89375 27.315624Q175.90938 26.940624 177.25313 26.940624Q178.58125 26.940624 179.40938 27.253124Q180.2375 27.565624 180.62813 28.05Q181.01875 28.51875 181.175 29.2375Q181.26875 29.690624 181.26875 30.8625L181.26875 33.20625Q181.26875 35.659374 181.37813 36.315624Q181.4875 36.95625 181.83125 37.55L179.9875 37.55Q179.72188 37.003124 179.64375 36.26875ZM179.4875 32.346874Q178.53438 32.7375 176.6125 33.003124Q175.53438 33.159374 175.08125 33.3625Q174.64375 33.55 174.39375 33.925Q174.14375 34.3 174.14375 34.76875Q174.14375 35.471874 174.675 35.940624Q175.20625 36.409374 176.2375 36.409374Q177.25313 36.409374 178.03438 35.971874Q178.83125 35.51875 179.20625 34.753124Q179.4875 34.14375 179.4875 32.9875L179.4875 32.346874ZM183.84688 37.55L183.84688 27.175L185.425 27.175L185.425 28.753124Q186.03438 27.64375 186.55 27.3Q187.06563 26.940624 187.675 26.940624Q188.56563 26.940624 189.4875 27.503124L188.87813 29.14375Q188.2375 28.753124 187.59688 28.753124Q187.01875 28.753124 186.55 29.1125Q186.09688 29.45625 185.89375 30.065624Q185.6125 31.003124 185.6125 32.1125L185.6125 37.55L183.84688 37.55ZM197.64375 33.753124L199.3625 33.971874Q199.08125 35.76875 197.90938 36.784374Q196.75313 37.784374 195.05 37.784374Q192.925 37.784374 191.62813 36.39375Q190.33125 35.003124 190.33125 32.409374Q190.33125 30.721874 190.87813 29.471874Q191.44063 28.20625 192.58125 27.58125Q193.72188 26.940624 195.06563 26.940624Q196.75313 26.940624 197.81563 27.8Q198.89375 28.659374 199.20625 30.221874L197.4875 30.4875Q197.25313 29.440624 196.62813 28.925Q196.00313 28.39375 195.12813 28.39375Q193.8 28.39375 192.97188 29.346874Q192.14375 30.3 192.14375 32.346874Q192.14375 34.440624 192.94063 35.39375Q193.7375 36.33125 195.03438 36.33125Q196.06563 36.33125 196.75313 35.70625Q197.45625 35.065624 197.64375 33.753124ZM200.8625 37.55L200.8625 23.2375L202.62813 23.2375L202.62813 28.3625Q203.8625 26.940624 205.7375 26.940624Q206.87813 26.940624 207.72188 27.39375Q208.58125 27.846874 208.94063 28.659374Q209.31563 29.45625 209.31563 30.971874L209.31563 37.55L207.56563 37.55L207.56563 30.971874Q207.56563 29.659374 206.9875 29.065624Q206.40938 28.45625 205.37813 28.45625Q204.59688 28.45625 203.89375 28.8625Q203.20625 29.26875 202.90938 29.971874Q202.62813 30.659374 202.62813 31.878124L202.62813 37.55L200.8625 37.55ZM218.01875 37.55L218.01875 23.2375L219.90938 23.2375L219.90938 35.8625L226.95625 35.8625L226.95625 37.55L218.01875 37.55ZM235.64375 36.26875Q234.65938 37.096874 233.75313 37.440624Q232.84688 37.784374 231.81563 37.784374Q230.1125 37.784374 229.19063 36.95625Q228.26875 36.1125 228.26875 34.815624Q228.26875 34.05 228.6125 33.425Q228.97188 32.8 229.53438 32.425Q230.09688 32.034374 230.8 31.83125Q231.31563 31.70625 232.3625 31.565624Q234.4875 31.315624 235.4875 30.971874Q235.50313 30.6125 235.50313 30.503124Q235.50313 29.440624 235.00313 28.9875Q234.33125 28.39375 233.00313 28.39375Q231.75313 28.39375 231.15938 28.83125Q230.58125 29.26875 230.3 30.378124L228.58125 30.14375Q228.81563 29.034374 229.34688 28.3625Q229.87813 27.675 230.89375 27.315624Q231.90938 26.940624 233.25313 26.940624Q234.58125 26.940624 235.40938 27.253124Q236.2375 27.565624 236.62813 28.05Q237.01875 28.51875 237.175 29.2375Q237.26875 29.690624 237.26875 30.8625L237.26875 33.20625Q237.26875 35.659374 237.37813 36.315624Q237.4875 36.95625 237.83125 37.55L235.9875 37.55Q235.72188 37.003124 235.64375 36.26875ZM235.4875 32.346874Q234.53438 32.7375 232.6125 33.003124Q231.53438 33.159374 231.08125 33.3625Q230.64375 33.55 230.39375 33.925Q230.14375 34.3 230.14375 34.76875Q230.14375 35.471874 230.675 35.940624Q231.20625 36.409374 232.2375 36.409374Q233.25313 36.409374 234.03438 35.971874Q234.83125 35.51875 235.20625 34.753124Q235.4875 34.14375 235.4875 32.9875L235.4875 32.346874ZM243.70625 35.971874L243.95625 37.534374Q243.22188 37.690624 242.62813 37.690624Q241.675 37.690624 241.14375 37.39375Q240.62813 37.08125 240.40938 36.596874Q240.19063 36.096874 240.19063 34.51875L240.19063 28.55L238.90938 28.55L238.90938 27.175L240.19063 27.175L240.19063 24.6125L241.94063 23.55L241.94063 27.175L243.70625 27.175L243.70625 28.55L241.94063 28.55L241.94063 34.6125Q241.94063 35.3625 242.03438 35.58125Q242.12813 35.784374 242.33125 35.925Q242.55 36.05 242.94063 36.05Q243.22188 36.05 243.70625 35.971874ZM252.97188 34.20625L254.78438 34.440624Q254.3625 36.01875 253.19063 36.909374Q252.03438 37.784374 250.22188 37.784374Q247.95625 37.784374 246.6125 36.39375Q245.28438 34.9875 245.28438 32.45625Q245.28438 29.83125 246.62813 28.39375Q247.97188 26.940624 250.12813 26.940624Q252.20625 26.940624 253.51875 28.3625Q254.84688 29.76875 254.84688 32.346874Q254.84688 32.503124 254.83125 32.815624L247.09688 32.815624Q247.19063 34.51875 248.06563 35.425Q248.94063 36.33125 250.2375 36.33125Q251.20625 36.33125 251.87813 35.83125Q252.56563 35.315624 252.97188 34.20625ZM247.19063 31.3625L252.9875 31.3625Q252.87813 30.065624 252.33125 29.409374Q251.4875 28.39375 250.14375 28.39375Q248.94063 28.39375 248.1125 29.20625Q247.28438 30.003124 247.19063 31.3625ZM256.8625 37.55L256.8625 27.175L258.45624 27.175L258.45624 28.659374Q259.59686 26.940624 261.7531 26.940624Q262.6906 26.940624 263.47186 27.284374Q264.26874 27.6125 264.65936 28.159374Q265.05 28.70625 265.20624 29.45625Q265.3 29.95625 265.3 31.175L265.3 37.55L263.53436 37.55L263.53436 31.2375Q263.53436 30.159374 263.33124 29.628124Q263.1281 29.096874 262.59686 28.784374Q262.08124 28.471874 261.3781 28.471874Q260.2531 28.471874 259.4406 29.190624Q258.6281 29.89375 258.6281 31.878124L258.6281 37.55L256.8625 37.55ZM274.64374 33.753124L276.3625 33.971874Q276.08124 35.76875 274.90936 36.784374Q273.7531 37.784374 272.05 37.784374Q269.925 37.784374 268.6281 36.39375Q267.33124 35.003124 267.33124 32.409374Q267.33124 30.721874 267.8781 29.471874Q268.4406 28.20625 269.58124 27.58125Q270.72186 26.940624 272.0656 26.940624Q273.7531 26.940624 274.8156 27.8Q275.89374 28.659374 276.20624 30.221874L274.4875 30.4875Q274.2531 29.440624 273.6281 28.925Q273.0031 28.39375 272.1281 28.39375Q270.8 28.39375 269.97186 29.346874Q269.14374 30.3 269.14374 32.346874Q269.14374 34.440624 269.9406 35.39375Q270.7375 36.33125 272.03436 36.33125Q273.0656 36.33125 273.7531 35.70625Q274.45624 35.065624 274.64374 33.753124ZM277.78436 41.55L277.59686 39.89375Q278.175 40.05 278.59686 40.05Q279.1906 40.05 279.53436 39.846874Q279.89374 39.659374 280.1125 39.315624Q280.28436 39.05 280.65936 38.003124Q280.70624 37.846874 280.8156 37.565624L276.8781 27.175L278.76874 27.175L280.925 33.190624Q281.34686 34.33125 281.675 35.58125Q281.9875 34.378124 282.39374 33.221874L284.6125 27.175L286.3781 27.175L282.425 37.721874Q281.8 39.440624 281.4406 40.08125Q280.97186 40.95625 280.3625 41.346874Q279.76874 41.753124 278.925 41.753124Q278.40936 41.753124 277.78436 41.55ZM296.7531 37.55L292.8 27.175L294.65936 27.175L296.89374 33.39375Q297.2531 34.39375 297.55 35.471874Q297.78436 34.659374 298.20624 33.503124L300.5031 27.175L302.3156 27.175L298.39374 37.55L296.7531 37.55ZM310.97186 34.20625L312.78436 34.440624Q312.3625 36.01875 311.1906 36.909374Q310.03436 37.784374 308.22186 37.784374Q305.95624 37.784374 304.6125 36.39375Q303.28436 34.9875 303.28436 32.45625Q303.28436 29.83125 304.6281 28.39375Q305.97186 26.940624 308.1281 26.940624Q310.20624 26.940624 311.51874 28.3625Q312.84686 29.76875 312.84686 32.346874Q312.84686 32.503124 312.83124 32.815624L305.09686 32.815624Q305.1906 34.51875 306.0656 35.425Q306.9406 36.33125 308.2375 36.33125Q309.20624 36.33125 309.8781 35.83125Q310.5656 35.315624 310.97186 34.20625ZM305.1906 31.3625L310.9875 31.3625Q310.8781 30.065624 310.33124 29.409374Q309.4875 28.39375 308.14374 28.39375Q306.9406 28.39375 306.1125 29.20625Q305.28436 30.003124 305.1906 31.3625ZM314.84686 37.55L314.84686 27.175L316.425 27.175L316.425 28.753124Q317.03436 27.64375 317.55 27.3Q318.0656 26.940624 318.675 26.940624Q319.5656 26.940624 320.4875 27.503124L319.8781 29.14375Q319.2375 28.753124 318.59686 28.753124Q318.01874 28.753124 317.55 29.1125Q317.09686 29.45625 316.89374 30.065624Q316.6125 31.003124 316.6125 32.1125L316.6125 37.55L314.84686 37.55ZM321.15936 34.45625L322.90936 34.175Q323.05 35.221874 323.72186 35.784374Q324.39374 36.33125 325.59686 36.33125Q326.8 36.33125 327.3781 35.846874Q327.97186 35.346874 327.97186 34.690624Q327.97186 34.096874 327.45624 33.753124Q327.09686 33.51875 325.65936 33.159374Q323.72186 32.659374 322.97186 32.315624Q322.2375 31.95625 321.84686 31.33125Q321.45624 30.690624 321.45624 29.925Q321.45624 29.2375 321.76874 28.64375Q322.09686 28.05 322.64374 27.659374Q323.05 27.3625 323.7531 27.159374Q324.47186 26.940624 325.28436 26.940624Q326.5031 26.940624 327.425 27.3Q328.34686 27.64375 328.78436 28.253124Q329.22186 28.846874 329.39374 29.846874L327.675 30.08125Q327.55 29.284374 326.9875 28.846874Q326.425 28.39375 325.40936 28.39375Q324.1906 28.39375 323.675 28.8Q323.15936 29.190624 323.15936 29.721874Q323.15936 30.065624 323.3781 30.346874Q323.58124 30.628124 324.05 30.815624Q324.3156 30.909374 325.59686 31.253124Q327.47186 31.753124 328.20624 32.08125Q328.9406 32.39375 329.3625 33.003124Q329.78436 33.596874 329.78436 34.503124Q329.78436 35.378124 329.26874 36.159374Q328.7531 36.940624 327.78436 37.3625Q326.8156 37.784374 325.59686 37.784374Q323.58124 37.784374 322.51874 36.940624Q321.45624 36.096874 321.15936 34.45625ZM338.65936 37.55L338.65936 36.01875Q337.45624 37.784374 335.3781 37.784374Q334.45624 37.784374 333.65936 37.440624Q332.8625 37.08125 332.47186 36.55Q332.09686 36.01875 331.9406 35.2375Q331.83124 34.721874 331.83124 33.596874L331.83124 27.175L333.58124 27.175L333.58124 32.925Q333.58124 34.3 333.6906 34.784374Q333.8625 35.471874 334.39374 35.878124Q334.9406 36.26875 335.72186 36.26875Q336.51874 36.26875 337.20624 35.8625Q337.90936 35.45625 338.1906 34.76875Q338.4875 34.065624 338.4875 32.7375L338.4875 27.175L340.2375 27.175L340.2375 37.55L338.65936 37.55ZM342.15936 34.45625L343.90936 34.175Q344.05 35.221874 344.72186 35.784374Q345.39374 36.33125 346.59686 36.33125Q347.8 36.33125 348.3781 35.846874Q348.97186 35.346874 348.97186 34.690624Q348.97186 34.096874 348.45624 33.753124Q348.09686 33.51875 346.65936 33.159374Q344.72186 32.659374 343.97186 32.315624Q343.2375 31.95625 342.84686 31.33125Q342.45624 30.690624 342.45624 29.925Q342.45624 29.2375 342.76874 28.64375Q343.09686 28.05 343.64374 27.659374Q344.05 27.3625 344.7531 27.159374Q345.47186 26.940624 346.28436 26.940624Q347.5031 26.940624 348.425 27.3Q349.34686 27.64375 349.78436 28.253124Q350.22186 28.846874 350.39374 29.846874L348.675 30.08125Q348.55 29.284374 347.9875 28.846874Q347.425 28.39375 346.40936 28.39375Q345.1906 28.39375 344.675 28.8Q344.15936 29.190624 344.15936 29.721874Q344.15936 30.065624 344.3781 30.346874Q344.58124 30.628124 345.05 30.815624Q345.3156 30.909374 346.59686 31.253124Q348.47186 31.753124 349.20624 32.08125Q349.9406 32.39375 350.3625 33.003124Q350.78436 33.596874 350.78436 34.503124Q350.78436 35.378124 350.26874 36.159374Q349.7531 36.940624 348.78436 37.3625Q347.8156 37.784374 346.59686 37.784374Q344.58124 37.784374 343.51874 36.940624Q342.45624 36.096874 342.15936 34.45625ZM362.7375 37.55L362.7375 24.925L358.01874 24.925L358.01874 23.2375L369.3625 23.2375L369.3625 24.925L364.6281 24.925L364.6281 37.55L362.7375 37.55ZM370.8625 37.55L370.8625 23.2375L372.6281 23.2375L372.6281 28.3625Q373.8625 26.940624 375.7375 26.940624Q376.8781 26.940624 377.72186 27.39375Q378.58124 27.846874 378.9406 28.659374Q379.3156 29.45625 379.3156 30.971874L379.3156 37.55L377.5656 37.55L377.5656 30.971874Q377.5656 29.659374 376.9875 29.065624Q376.40936 28.45625 375.3781 28.45625Q374.59686 28.45625 373.89374 28.8625Q373.20624 29.26875 372.90936 29.971874Q372.6281 30.659374 372.6281 31.878124L372.6281 37.55L370.8625 37.55ZM381.84686 37.55L381.84686 27.175L383.425 27.175L383.425 28.753124Q384.03436 27.64375 384.55 27.3Q385.0656 26.940624 385.675 26.940624Q386.5656 26.940624 387.4875 27.503124L386.8781 29.14375Q386.2375 28.753124 385.59686 28.753124Q385.01874 28.753124 384.55 29.1125Q384.09686 29.45625 383.89374 30.065624Q383.6125 31.003124 383.6125 32.1125L383.6125 37.55L381.84686 37.55ZM395.97186 34.20625L397.78436 34.440624Q397.3625 36.01875 396.1906 36.909374Q395.03436 37.784374 393.22186 37.784374Q390.95624 37.784374 389.6125 36.39375Q388.28436 34.9875 388.28436 32.45625Q388.28436 29.83125 389.6281 28.39375Q390.97186 26.940624 393.1281 26.940624Q395.20624 26.940624 396.51874 28.3625Q397.84686 29.76875 397.84686 32.346874Q397.84686 32.503124 397.83124 32.815624L390.09686 32.815624Q390.1906 34.51875 391.0656 35.425Q391.9406 36.33125 393.2375 36.33125Q394.20624 36.33125 394.8781 35.83125Q395.5656 35.315624 395.97186 34.20625ZM390.1906 31.3625L395.9875 31.3625Q395.8781 30.065624 395.33124 29.409374Q394.4875 28.39375 393.14374 28.39375Q391.9406 28.39375 391.1125 29.20625Q390.28436 30.003124 390.1906 31.3625ZM406.64374 36.26875Q405.65936 37.096874 404.7531 37.440624Q403.84686 37.784374 402.8156 37.784374Q401.1125 37.784374 400.1906 36.95625Q399.26874 36.1125 399.26874 34.815624Q399.26874 34.05 399.6125 33.425Q399.97186 32.8 400.53436 32.425Q401.09686 32.034374 401.8 31.83125Q402.3156 31.70625 403.3625 31.565624Q405.4875 31.315624 406.4875 30.971874Q406.5031 30.6125 406.5031 30.503124Q406.5031 29.440624 406.0031 28.9875Q405.33124 28.39375 404.0031 28.39375Q402.7531 28.39375 402.15936 28.83125Q401.58124 29.26875 401.3 30.378124L399.58124 30.14375Q399.8156 29.034374 400.34686 28.3625Q400.8781 27.675 401.89374 27.315624Q402.90936 26.940624 404.2531 26.940624Q405.58124 26.940624 406.40936 27.253124Q407.2375 27.565624 407.6281 28.05Q408.01874 28.51875 408.175 29.2375Q408.26874 29.690624 408.26874 30.8625L408.26874 33.20625Q408.26874 35.659374 408.3781 36.315624Q408.4875 36.95625 408.83124 37.55L406.9875 37.55Q406.72186 37.003124 406.64374 36.26875ZM406.4875 32.346874Q405.53436 32.7375 403.6125 33.003124Q402.53436 33.159374 402.08124 33.3625Q401.64374 33.55 401.39374 33.925Q401.14374 34.3 401.14374 34.76875Q401.14374 35.471874 401.675 35.940624Q402.20624 36.409374 403.2375 36.409374Q404.2531 36.409374 405.03436 35.971874Q405.83124 35.51875 406.20624 34.753124Q406.4875 34.14375 406.4875 32.9875L406.4875 32.346874ZM417.59686 37.55L417.59686 36.2375Q416.6125 37.784374 414.6906 37.784374Q413.45624 37.784374 412.40936 37.096874Q411.3781 36.409374 410.8 35.190624Q410.2375 33.971874 410.2375 32.378124Q410.2375 30.815624 410.7531 29.55Q411.26874 28.284374 412.3 27.6125Q413.34686 26.940624 414.6125 26.940624Q415.55 26.940624 416.28436 27.346874Q417.01874 27.7375 417.4875 28.3625L417.4875 23.2375L419.22186 23.2375L419.22186 37.55L417.59686 37.55ZM412.03436 32.378124Q412.03436 34.3625 412.8781 35.346874Q413.72186 36.33125 414.8625 36.33125Q416.01874 36.33125 416.8156 35.39375Q417.6281 34.45625 417.6281 32.51875Q417.6281 30.39375 416.8 29.39375Q415.9875 28.39375 414.78436 28.39375Q413.6125 28.39375 412.8156 29.3625Q412.03436 30.315624 412.03436 32.378124ZM421.15936 34.45625L422.90936 34.175Q423.05 35.221874 423.72186 35.784374Q424.39374 36.33125 425.59686 36.33125Q426.8 36.33125 427.3781 35.846874Q427.97186 35.346874 427.97186 34.690624Q427.97186 34.096874 427.45624 33.753124Q427.09686 33.51875 425.65936 33.159374Q423.72186 32.659374 422.97186 32.315624Q422.2375 31.95625 421.84686 31.33125Q421.45624 30.690624 421.45624 29.925Q421.45624 29.2375 421.76874 28.64375Q422.09686 28.05 422.64374 27.659374Q423.05 27.3625 423.7531 27.159374Q424.47186 26.940624 425.28436 26.940624Q426.5031 26.940624 427.425 27.3Q428.34686 27.64375 428.78436 28.253124Q429.22186 28.846874 429.39374 29.846874L427.675 30.08125Q427.55 29.284374 426.9875 28.846874Q426.425 28.39375 425.40936 28.39375Q424.1906 28.39375 423.675 28.8Q423.15936 29.190624 423.15936 29.721874Q423.15936 30.065624 423.3781 30.346874Q423.58124 30.628124 424.05 30.815624Q424.3156 30.909374 425.59686 31.253124Q427.47186 31.753124 428.20624 32.08125Q428.9406 32.39375 429.3625 33.003124Q429.78436 33.596874 429.78436 34.503124Q429.78436 35.378124 429.26874 36.159374Q428.7531 36.940624 427.78436 37.3625Q426.8156 37.784374 425.59686 37.784374Q423.58124 37.784374 422.51874 36.940624Q421.45624 36.096874 421.15936 34.45625ZM437.8625 41.51875L437.8625 27.175L439.47186 27.175L439.47186 28.51875Q440.03436 27.7375 440.7375 27.346874Q441.45624 26.940624 442.47186 26.940624Q443.8 26.940624 444.8156 27.628124Q445.83124 28.315624 446.34686 29.565624Q446.8781 30.8 446.8781 32.284374Q446.8781 33.878124 446.3 35.159374Q445.7375 36.425 444.64374 37.1125Q443.55 37.784374 442.34686 37.784374Q441.47186 37.784374 440.76874 37.409374Q440.08124 37.034374 439.6281 36.471874L439.6281 41.51875L437.8625 41.51875ZM439.45624 32.425Q439.45624 34.425 440.26874 35.378124Q441.08124 36.33125 442.2375 36.33125Q443.40936 36.33125 444.2375 35.346874Q445.08124 34.3625 445.08124 32.26875Q445.08124 30.3 444.2531 29.315624Q443.4406 28.315624 442.3156 28.315624Q441.1906 28.315624 440.3156 29.378124Q439.45624 30.425 439.45624 32.425ZM455.97186 34.20625L457.78436 34.440624Q457.3625 36.01875 456.1906 36.909374Q455.03436 37.784374 453.22186 37.784374Q450.95624 37.784374 449.6125 36.39375Q448.28436 34.9875 448.28436 32.45625Q448.28436 29.83125 449.6281 28.39375Q450.97186 26.940624 453.1281 26.940624Q455.20624 26.940624 456.51874 28.3625Q457.84686 29.76875 457.84686 32.346874Q457.84686 32.503124 457.83124 32.815624L450.09686 32.815624Q450.1906 34.51875 451.0656 35.425Q451.9406 36.33125 453.2375 36.33125Q454.20624 36.33125 454.8781 35.83125Q455.5656 35.315624 455.97186 34.20625ZM450.1906 31.3625L455.9875 31.3625Q455.8781 30.065624 455.33124 29.409374Q454.4875 28.39375 453.14374 28.39375Q451.9406 28.39375 451.1125 29.20625Q450.28436 30.003124 450.1906 31.3625ZM459.84686 37.55L459.84686 27.175L461.425 27.175L461.425 28.753124Q462.03436 27.64375 462.55 27.3Q463.0656 26.940624 463.675 26.940624Q464.5656 26.940624 465.4875 27.503124L464.8781 29.14375Q464.2375 28.753124 463.59686 28.753124Q463.01874 28.753124 462.55 29.1125Q462.09686 29.45625 461.89374 30.065624Q461.6125 31.003124 461.6125 32.1125L461.6125 37.55L459.84686 37.55ZM472.15936 34.45625L473.90936 34.175Q474.05 35.221874 474.72186 35.784374Q475.39374 36.33125 476.59686 36.33125Q477.8 36.33125 478.3781 35.846874Q478.97186 35.346874 478.97186 34.690624Q478.97186 34.096874 478.45624 33.753124Q478.09686 33.51875 476.65936 33.159374Q474.72186 32.659374 473.97186 32.315624Q473.2375 31.95625 472.84686 31.33125Q472.45624 30.690624 472.45624 29.925Q472.45624 29.2375 472.76874 28.64375Q473.09686 28.05 473.64374 27.659374Q474.05 27.3625 474.7531 27.159374Q475.47186 26.940624 476.28436 26.940624Q477.5031 26.940624 478.425 27.3Q479.34686 27.64375 479.78436 28.253124Q480.22186 28.846874 480.39374 29.846874L478.675 30.08125Q478.55 29.284374 477.9875 28.846874Q477.425 28.39375 476.40936 28.39375Q475.1906 28.39375 474.675 28.8Q474.15936 29.190624 474.15936 29.721874Q474.15936 30.065624 474.3781 30.346874Q474.58124 30.628124 475.05 30.815624Q475.3156 30.909374 476.59686 31.253124Q478.47186 31.753124 479.20624 32.08125Q479.9406 32.39375 480.3625 33.003124Q480.78436 33.596874 480.78436 34.503124Q480.78436 35.378124 480.26874 36.159374Q479.7531 36.940624 478.78436 37.3625Q477.8156 37.784374 476.59686 37.784374Q474.58124 37.784374 473.51874 36.940624Q472.45624 36.096874 472.15936 34.45625ZM489.97186 34.20625L491.78436 34.440624Q491.3625 36.01875 490.1906 36.909374Q489.03436 37.784374 487.22186 37.784374Q484.95624 37.784374 483.6125 36.39375Q482.28436 34.9875 482.28436 32.45625Q482.28436 29.83125 483.6281 28.39375Q484.97186 26.940624 487.1281 26.940624Q489.20624 26.940624 490.51874 28.3625Q491.84686 29.76875 491.84686 32.346874Q491.84686 32.503124 491.83124 32.815624L484.09686 32.815624Q484.1906 34.51875 485.0656 35.425Q485.9406 36.33125 487.2375 36.33125Q488.20624 36.33125 488.8781 35.83125Q489.5656 35.315624 489.97186 34.20625ZM484.1906 31.3625L489.9875 31.3625Q489.8781 30.065624 489.33124 29.409374Q488.4875 28.39375 487.14374 28.39375Q485.9406 28.39375 485.1125 29.20625Q484.28436 30.003124 484.1906 31.3625ZM500.64374 36.26875Q499.65936 37.096874 498.7531 37.440624Q497.84686 37.784374 496.8156 37.784374Q495.1125 37.784374 494.1906 36.95625Q493.26874 36.1125 493.26874 34.815624Q493.26874 34.05 493.6125 33.425Q493.97186 32.8 494.53436 32.425Q495.09686 32.034374 495.8 31.83125Q496.3156 31.70625 497.3625 31.565624Q499.4875 31.315624 500.4875 30.971874Q500.5031 30.6125 500.5031 30.503124Q500.5031 29.440624 500.0031 28.9875Q499.33124 28.39375 498.0031 28.39375Q496.7531 28.39375 496.15936 28.83125Q495.58124 29.26875 495.3 30.378124L493.58124 30.14375Q493.8156 29.034374 494.34686 28.3625Q494.8781 27.675 495.89374 27.315624Q496.90936 26.940624 498.2531 26.940624Q499.58124 26.940624 500.40936 27.253124Q501.2375 27.565624 501.6281 28.05Q502.01874 28.51875 502.175 29.2375Q502.26874 29.690624 502.26874 30.8625L502.26874 33.20625Q502.26874 35.659374 502.3781 36.315624Q502.4875 36.95625 502.83124 37.55L500.9875 37.55Q500.72186 37.003124 500.64374 36.26875ZM500.4875 32.346874Q499.53436 32.7375 497.6125 33.003124Q496.53436 33.159374 496.08124 33.3625Q495.64374 33.55 495.39374 33.925Q495.14374 34.3 495.14374 34.76875Q495.14374 35.471874 495.675 35.940624Q496.20624 36.409374 497.2375 36.409374Q498.2531 36.409374 499.03436 35.971874Q499.83124 35.51875 500.20624 34.753124Q500.4875 34.14375 500.4875 32.9875L500.4875 32.346874ZM504.84686 37.55L504.84686 27.175L506.425 27.175L506.425 28.753124Q507.03436 27.64375 507.55 27.3Q508.0656 26.940624 508.675 26.940624Q509.5656 26.940624 510.4875 27.503124L509.8781 29.14375Q509.2375 28.753124 508.59686 28.753124Q508.01874 28.753124 507.55 29.1125Q507.09686 29.45625 506.89374 30.065624Q506.6125 31.003124 506.6125 32.1125L506.6125 37.55L504.84686 37.55ZM518.64374 33.753124L520.3625 33.971874Q520.08124 35.76875 518.90936 36.784374Q517.7531 37.784374 516.05 37.784374Q513.925 37.784374 512.6281 36.39375Q511.33124 35.003124 511.33124 32.409374Q511.33124 30.721874 511.8781 29.471874Q512.4406 28.20625 513.58124 27.58125Q514.72186 26.940624 516.0656 26.940624Q517.7531 26.940624 518.8156 27.8Q519.89374 28.659374 520.20624 30.221874L518.4875 30.4875Q518.2531 29.440624 517.6281 28.925Q517.0031 28.39375 516.1281 28.39375Q514.8 28.39375 513.97186 29.346874Q513.14374 30.3 513.14374 32.346874Q513.14374 34.440624 513.9406 35.39375Q514.7375 36.33125 516.03436 36.33125Q517.0656 36.33125 517.7531 35.70625Q518.45624 35.065624 518.64374 33.753124ZM521.8625 37.55L521.8625 23.2375L523.6281 23.2375L523.6281 28.3625Q524.8625 26.940624 526.7375 26.940624Q527.8781 26.940624 528.72186 27.39375Q529.58124 27.846874 529.9406 28.659374Q530.3156 29.45625 530.3156 30.971874L530.3156 37.55L528.5656 37.55L528.5656 30.971874Q528.5656 29.659374 527.9875 29.065624Q527.40936 28.45625 526.3781 28.45625Q525.59686 28.45625 524.89374 28.8625Q524.20624 29.26875 523.90936 29.971874Q523.6281 30.659374 523.6281 31.878124L523.6281 37.55L521.8625 37.55Z" fill-rule="nonzero"/></svg>