<?xml version="1.0" standalone="no"?>
<!DOCTYPE svg PUBLIC "-//W3C//DTD SVG 20010904//EN"
 "http://www.w3.org/TR/2001/REC-SVG-20010904/DTD/svg10.dtd">
<svg version="1.0" xmlns="http://www.w3.org/2000/svg"
 width="912.000000pt" height="912.000000pt" viewBox="0 0 912.000000 912.000000"
 preserveAspectRatio="xMidYMid meet">
<metadata>
Created by potrace 1.14, written by Peter Selinger 2001-2017
</metadata>
<g transform="translate(0.000000,912.000000) scale(0.100000,-0.100000)"
fill="#000000" stroke="none">
<path d="M3517 7451 c-24 -25 -155 -154 -289 -286 -135 -132 -424 -416 -644
-632 -219 -215 -474 -465 -566 -556 -93 -90 -168 -166 -168 -169 0 -2 1209 -4
2688 -4 l2687 0 5 -1218 5 -1217 382 378 c210 208 597 591 860 852 l478 474 1
46 c0 26 3 52 7 58 4 5 4 13 0 17 -9 8 -10 146 -1 146 4 0 3 12 0 28 -4 15 -6
41 -5 57 2 17 3 36 3 43 0 6 0 29 0 50 0 20 0 53 -1 72 0 19 0 50 0 68 1 17 1
39 1 47 0 59 0 95 -1 125 0 19 0 50 0 68 1 17 1 39 1 47 0 59 0 95 -1 125 0
19 0 50 0 68 1 33 1 37 1 100 0 86 -1 99 -3 130 -2 18 0 35 5 38 4 3 4 15 0
27 -9 26 -8 69 2 86 4 6 3 11 -3 11 -6 0 -6 11 -1 30 5 17 6 30 2 30 -4 0 -7
25 -7 55 0 30 4 55 8 55 5 0 5 5 1 11 -10 16 -11 58 -2 92 3 15 4 27 0 27 -4
0 -7 25 -7 55 0 30 4 55 8 55 5 0 5 5 1 11 -10 16 -11 58 -2 92 3 15 4 27 0
27 -4 0 -7 25 -7 55 0 30 4 55 8 55 5 0 5 5 1 11 -10 16 -11 58 -2 92 3 15 3
27 -1 27 -8 0 -5 65 3 87 3 7 2 13 -2 13 -5 0 -7 20 -5 43 l3 44 -2699 0
-2699 0 -45 -46z"/>
<path d="M1503 5455 c-182 -181 -566 -562 -852 -846 l-521 -516 0 -1211 0
-1212 2696 0 2695 0 154 153 c84 83 467 462 849 841 383 379 696 692 696 696
0 3 -1208 6 -2685 6 -1476 0 -2687 3 -2691 7 -4 4 -6 33 -4 65 1 31 2 66 2 77
-3 119 -2 166 3 175 3 5 1 10 -5 10 -6 0 -9 4 -6 9 5 7 7 84 5 161 0 8 0 44 1
80 1 36 1 98 0 137 -1 40 1 77 5 83 3 5 1 10 -5 10 -6 0 -9 4 -6 9 5 7 7 84 5
161 0 8 0 67 0 130 1 145 1 147 2 163 0 6 0 45 -1 84 -1 40 1 77 5 83 3 5 1
10 -5 10 -6 0 -9 4 -6 9 5 7 7 84 5 161 0 8 0 67 0 130 1 63 0 122 0 130 0 8
0 44 0 80 0 36 0 74 0 85 0 11 0 98 1 194 0 95 -1 174 -2 175 -2 0 -152 -147
-335 -329z"/>
</g>
</svg>
