<svg width="165" height="39" viewBox="0 0 165 39" fill="none" xmlns="http://www.w3.org/2000/svg">
    <g clip-path="url(#clip0_86_4656)">
        <path d="M74.9543 30.946L65.3604 5.31958H69.3449L77.1683 27.1389L85.0646 5.31958H88.9763L79.3823 30.946H74.9543Z" fill="#2E2F27"/>
        <path d="M96.7996 31.3845C95.029 31.3845 93.4543 30.9822 92.077 30.1762C90.6997 29.3702 89.6231 28.2493 88.8487 26.8076C88.0742 25.3673 87.687 23.695 87.687 21.7923C87.687 19.8895 88.0742 18.1374 88.8487 16.6851C89.6231 15.2328 90.6997 14.0983 92.077 13.2803C93.4543 12.4622 95.0533 12.054 96.874 12.054C98.6947 12.054 100.256 12.4562 101.56 13.2622C102.863 14.0682 103.873 15.1348 104.587 16.4651C105.3 17.7954 105.657 19.2658 105.657 20.8763C105.657 21.1204 105.651 21.384 105.639 21.6627C105.627 21.9444 105.607 22.2548 105.584 22.5968H90.3809V19.998H101.967C101.893 18.4598 101.376 17.2591 100.417 16.3928C99.457 15.5265 98.2635 15.0927 96.8376 15.0927C95.8293 15.0927 94.906 15.3186 94.0693 15.7706C93.2326 16.2226 92.563 16.8809 92.0588 17.7472C91.5547 18.6135 91.3026 19.7057 91.3026 21.0239V22.0484C91.3026 23.4148 91.5547 24.5688 92.0588 25.5074C92.563 26.4475 93.2326 27.1556 94.0693 27.6301C94.906 28.1062 95.8156 28.3443 96.7996 28.3443C97.981 28.3443 98.9513 28.0881 99.7151 27.5759C100.477 27.0637 101.044 26.3677 101.413 25.4893H105.103C104.782 26.6117 104.242 27.6181 103.48 28.51C102.717 29.4019 101.776 30.1024 100.657 30.6146C99.5375 31.1268 98.2513 31.383 96.8011 31.383L96.7996 31.3845Z" fill="#2E2F27"/>
        <path d="M115.988 31.3845C114.413 31.3845 113.036 31.1284 111.854 30.6161C110.673 30.1039 109.739 29.3838 109.049 28.4557C108.36 27.5277 107.942 26.4415 107.795 25.1971H111.56C111.683 25.7831 111.922 26.3195 112.279 26.8076C112.636 27.2957 113.128 27.6859 113.755 27.9797C114.382 28.2719 115.127 28.4196 115.988 28.4196C116.8 28.4196 117.47 28.3036 117.998 28.0716C118.526 27.8396 118.914 27.5232 119.16 27.1194C119.406 26.7172 119.529 26.2833 119.529 25.8193C119.529 25.1368 119.363 24.6171 119.031 24.263C118.698 23.909 118.206 23.6288 117.555 23.4209C116.903 23.2145 116.121 23.0246 115.212 22.8529C114.351 22.7068 113.52 22.5049 112.721 22.2488C111.921 21.9926 111.209 21.6687 110.582 21.2785C109.954 20.8884 109.456 20.3942 109.087 19.7961C108.718 19.198 108.535 18.4598 108.535 17.5815C108.535 16.5329 108.817 15.5868 109.384 14.7446C109.948 13.9025 110.755 13.2441 111.801 12.7681C112.846 12.292 114.082 12.054 115.509 12.054C117.576 12.054 119.236 12.5421 120.491 13.5183C121.746 14.4946 122.484 15.8731 122.705 17.6553H119.126C119.028 16.8252 118.659 16.1849 118.019 15.7329C117.38 15.281 116.531 15.055 115.473 15.055C114.414 15.055 113.603 15.2629 113.037 15.6772C112.471 16.093 112.188 16.6414 112.188 17.3254C112.188 17.7653 112.348 18.1555 112.668 18.4975C112.987 18.8394 113.461 19.1257 114.089 19.3577C114.717 19.5897 115.485 19.8036 116.396 19.998C117.699 20.242 118.868 20.5479 119.901 20.914C120.933 21.2801 121.758 21.8164 122.373 22.5245C122.988 23.2325 123.295 24.2449 123.295 25.5632C123.319 26.7112 123.03 27.7236 122.428 28.6019C121.825 29.4802 120.976 30.1642 119.881 30.6523C118.786 31.1404 117.488 31.3845 115.988 31.3845Z" fill="#2E2F27"/>
        <path d="M126.687 39V12.4953H130.008L130.377 15.3502C130.77 14.7898 131.262 14.258 131.853 13.7578C132.444 13.2576 133.15 12.8494 133.974 12.5315C134.799 12.2151 135.763 12.0554 136.872 12.0554C138.642 12.0554 140.199 12.4833 141.54 13.3375C142.88 14.1917 143.925 15.3457 144.677 16.7965C145.427 18.2488 145.802 19.903 145.802 21.7576C145.802 23.6121 145.421 25.2663 144.659 26.7187C143.896 28.171 142.844 29.3114 141.503 30.1415C140.162 30.9716 138.606 31.3859 136.835 31.3859C135.384 31.3859 134.105 31.0982 132.998 30.5257C131.891 29.9532 131.018 29.1532 130.379 28.1273V39H126.689H126.687ZM136.245 28.2011C137.376 28.2011 138.378 27.9329 139.251 27.3951C140.124 26.8588 140.814 26.1025 141.318 25.1247C141.822 24.1485 142.074 23.014 142.074 21.7199C142.074 20.4258 141.822 19.2974 141.318 18.3332C140.814 17.369 140.124 16.6127 139.251 16.0628C138.378 15.5129 137.374 15.2388 136.245 15.2388C135.115 15.2388 134.073 15.5129 133.2 16.0628C132.327 16.6112 131.643 17.369 131.151 18.3332C130.659 19.2974 130.413 20.4258 130.413 21.7199C130.413 23.014 130.659 24.1485 131.151 25.1247C131.643 26.101 132.325 26.8573 133.2 27.3951C134.073 27.9329 135.087 28.2011 136.245 28.2011Z" fill="#2E2F27"/>
        <path d="M155.321 31.3844C153.795 31.3844 152.529 31.1283 151.521 30.6161C150.512 30.1039 149.762 29.4139 149.27 28.5476C148.778 27.6813 148.532 26.7488 148.532 25.7469C148.532 24.5266 148.851 23.4826 149.492 22.6163C150.131 21.7501 151.042 21.0857 152.222 20.6217C153.404 20.1576 154.817 19.9256 156.465 19.9256H161.298C161.298 18.8515 161.137 17.9611 160.819 17.253C160.498 16.5449 160.026 16.0146 159.397 15.6606C158.77 15.3066 157.976 15.1303 157.018 15.1303C155.911 15.1303 154.963 15.3924 154.177 15.9167C153.388 16.4425 152.896 17.2169 152.701 18.2413H149.011C149.158 16.9487 149.607 15.8429 150.357 14.9284C151.108 14.0124 152.073 13.3059 153.255 12.8057C154.436 12.3055 155.69 12.0554 157.019 12.0554C158.765 12.0554 160.229 12.3612 161.411 12.9714C162.592 13.5816 163.483 14.4418 164.086 15.5521C164.689 16.6624 164.99 17.9867 164.99 19.5249V30.9475H161.78L161.485 27.835C161.215 28.3231 160.894 28.7871 160.525 29.2255C160.156 29.664 159.719 30.0436 159.215 30.36C158.711 30.6779 158.132 30.9279 157.481 31.1102C156.829 31.294 156.11 31.3844 155.323 31.3844H155.321ZM156.023 28.4195C156.81 28.4195 157.523 28.2614 158.163 27.9435C158.802 27.6271 159.349 27.1932 159.804 26.6433C160.26 26.0949 160.603 25.4712 160.837 24.7767C161.071 24.0807 161.2 23.3666 161.224 22.6344V22.5244H156.832C155.774 22.5244 154.919 22.6525 154.268 22.9086C153.616 23.1647 153.142 23.5127 152.846 23.9511C152.552 24.391 152.403 24.9033 152.403 25.4893C152.403 26.0754 152.544 26.6177 152.827 27.0456C153.109 27.4734 153.522 27.8094 154.063 28.0519C154.603 28.296 155.256 28.418 156.018 28.418L156.023 28.4195Z" fill="#2E2F27"/>
        <path d="M10.6196 25.6114H44.0268L33.3973 36.1572H-0.0100098V21.0917L10.6196 10.5459V25.6114Z" fill="#2E2F27"/>
        <path d="M54.6565 0V15.0655L44.0269 25.6113V10.5458H10.6196L21.2492 0H54.6565Z" fill="#2E2F27"/>
    </g>
    <defs>
        <clipPath id="clip0_86_4656">
            <rect width="165" height="39" fill="white" transform="translate(-0.0100098)"/>
        </clipPath>
    </defs>
</svg>
