<svg xmlns="http://www.w3.org/2000/svg" xmlns:xlink="http://www.w3.org/1999/xlink" xmlns:lucid="lucid" width="1326.57" height="1076.5"><g transform="translate(-279 -97)" lucid:page-tab-id="0_0"><path d="M0 0h1870.87v1322.84H0z" fill="#fff"/><path d="M964.57 386a6 6 0 0 1 6-6h608a6 6 0 0 1 6 6v468a6 6 0 0 1-6 6h-608a6 6 0 0 1-6-6z" stroke="#ccc" stroke-width="2" fill="#c4c5b9"/><use xlink:href="#a" transform="matrix(1,0,0,1,969.5669291338584,385) translate(523.25 14.4)"/><use xlink:href="#b" transform="matrix(1,0,0,1,969.5669291338584,385) translate(556.2 14.4)"/><use xlink:href="#c" transform="matrix(1,0,0,1,969.5669291338584,385) translate(571.2 14.4)"/><path d="M300 386a6 6 0 0 1 6-6h608a6 6 0 0 1 6 6v468a6 6 0 0 1-6 6H306a6 6 0 0 1-6-6z" stroke="#ccc" stroke-width="2" fill="#c4c5b9"/><use xlink:href="#a" transform="matrix(1,0,0,1,305,385) translate(0 14.4)"/><use xlink:href="#d" transform="matrix(1,0,0,1,305,385) translate(32.95 14.4)"/><use xlink:href="#e" transform="matrix(1,0,0,1,305,385) translate(47.95 14.4)"/><path d="M320 426a6 6 0 0 1 6-6h168a6 6 0 0 1 6 6v155.6a6 6 0 0 1-6 6H326a6 6 0 0 1-6-6z" stroke="#000" stroke-opacity="0" stroke-width="3" fill="#796bb3"/><use xlink:href="#f" transform="matrix(1,0,0,1,332,432) translate(0 14.4)"/><use xlink:href="#g" transform="matrix(1,0,0,1,332,432) translate(0 36)"/><use xlink:href="#h" transform="matrix(1,0,0,1,332,432) translate(0 57.6)"/><use xlink:href="#i" transform="matrix(1,0,0,1,332,432) translate(73.9 57.6)"/><use xlink:href="#j" transform="matrix(1,0,0,1,332,432) translate(0 79.20000000000002)"/><use xlink:href="#k" transform="matrix(1,0,0,1,332,432) translate(72.01 79.20000000000002)"/><use xlink:href="#l" transform="matrix(1,0,0,1,332,432) translate(108.01 79.20000000000002)"/><use xlink:href="#m" transform="matrix(1,0,0,1,332,432) translate(0 100.80000000000001)"/><use xlink:href="#l" transform="matrix(1,0,0,1,332,432) translate(108.01 100.80000000000001)"/><use xlink:href="#g" transform="matrix(1,0,0,1,332,432) translate(0 122.4)"/><use xlink:href="#n" transform="matrix(1,0,0,1,332,432) translate(0 144)"/><use xlink:href="#o" transform="matrix(1,0,0,1,332,432) translate(72.01 144)"/><path d="M494 467.6a6 6 0 0 1 6 6v108a6 6 0 0 1-6 6h-28a6 6 0 0 1-6-6v-108a6 6 0 0 1 6-6z" stroke="#e5e5e5" stroke-width="3" fill="#e5e5e5"/><use xlink:href="#p" transform="matrix(6.123233995736766e-17,1,-1,6.123233995736766e-17,488,479.60000000000014) translate(-1.8024691358024612 14.222222222222221)"/><path d="M520 426a6 6 0 0 1 6-6h168a6 6 0 0 1 6 6v155.6a6 6 0 0 1-6 6H526a6 6 0 0 1-6-6z" stroke="#000" stroke-opacity="0" stroke-width="3" fill="#3788a5"/><use xlink:href="#q" transform="matrix(1,0,0,1,532,432) translate(0 14.4)"/><use xlink:href="#g" transform="matrix(1,0,0,1,532,432) translate(0 36)"/><use xlink:href="#h" transform="matrix(1,0,0,1,532,432) translate(0 57.6)"/><use xlink:href="#r" transform="matrix(1,0,0,1,532,432) translate(73.9 57.6)"/><use xlink:href="#j" transform="matrix(1,0,0,1,532,432) translate(0 79.20000000000002)"/><use xlink:href="#k" transform="matrix(1,0,0,1,532,432) translate(72.01 79.20000000000002)"/><use xlink:href="#l" transform="matrix(1,0,0,1,532,432) translate(108.01 79.20000000000002)"/><use xlink:href="#m" transform="matrix(1,0,0,1,532,432) translate(0 100.80000000000001)"/><use xlink:href="#l" transform="matrix(1,0,0,1,532,432) translate(108.01 100.80000000000001)"/><use xlink:href="#g" transform="matrix(1,0,0,1,532,432) translate(0 122.4)"/><use xlink:href="#n" transform="matrix(1,0,0,1,532,432) translate(0 144)"/><use xlink:href="#o" transform="matrix(1,0,0,1,532,432) translate(72.01 144)"/><path d="M694 467.6a6 6 0 0 1 6 6v108a6 6 0 0 1-6 6h-28a6 6 0 0 1-6-6v-108a6 6 0 0 1 6-6z" stroke="#e5e5e5" stroke-width="3" fill="#e5e5e5"/><use xlink:href="#p" transform="matrix(6.123233995736766e-17,1,-1,6.123233995736766e-17,688,479.60000000000014) translate(-1.8024691358024612 14.222222222222221)"/><path d="M720 426a6 6 0 0 1 6-6h168a6 6 0 0 1 6 6v155.6a6 6 0 0 1-6 6H726a6 6 0 0 1-6-6z" stroke="#000" stroke-opacity="0" stroke-width="3" fill="#de922b"/><use xlink:href="#s" transform="matrix(1,0,0,1,732,432) translate(0 14.4)"/><use xlink:href="#g" transform="matrix(1,0,0,1,732,432) translate(0 36)"/><use xlink:href="#t" transform="matrix(1,0,0,1,732,432) translate(0 57.6)"/><use xlink:href="#u" transform="matrix(1,0,0,1,732,432) translate(93.9 57.6)"/><use xlink:href="#j" transform="matrix(1,0,0,1,732,432) translate(0 79.20000000000002)"/><use xlink:href="#k" transform="matrix(1,0,0,1,732,432) translate(72.01 79.20000000000002)"/><use xlink:href="#l" transform="matrix(1,0,0,1,732,432) translate(108.01 79.20000000000002)"/><use xlink:href="#m" transform="matrix(1,0,0,1,732,432) translate(0 100.80000000000001)"/><use xlink:href="#l" transform="matrix(1,0,0,1,732,432) translate(108.01 100.80000000000001)"/><use xlink:href="#g" transform="matrix(1,0,0,1,732,432) translate(0 122.4)"/><use xlink:href="#n" transform="matrix(1,0,0,1,732,432) translate(0 144)"/><use xlink:href="#o" transform="matrix(1,0,0,1,732,432) translate(72.01 144)"/><path d="M894 467.6a6 6 0 0 1 6 6v108a6 6 0 0 1-6 6h-28a6 6 0 0 1-6-6v-108a6 6 0 0 1 6-6z" stroke="#e5e5e5" stroke-width="3" fill="#e5e5e5"/><use xlink:href="#p" transform="matrix(6.123233995736766e-17,1,-1,6.123233995736766e-17,888,479.6000000000001) translate(-1.8024691358024612 14.222222222222221)"/><path d="M984.57 426a6 6 0 0 1 6-6h168a6 6 0 0 1 6 6v155.6a6 6 0 0 1-6 6h-168a6 6 0 0 1-6-6z" stroke="#000" stroke-opacity="0" stroke-width="3" fill="#796bb3"/><use xlink:href="#v" transform="matrix(1,0,0,1,996.5669291338584,432) translate(0 14.4)"/><use xlink:href="#g" transform="matrix(1,0,0,1,996.5669291338584,432) translate(0 36)"/><use xlink:href="#h" transform="matrix(1,0,0,1,996.5669291338584,432) translate(0 57.6)"/><use xlink:href="#i" transform="matrix(1,0,0,1,996.5669291338584,432) translate(73.9 57.6)"/><use xlink:href="#j" transform="matrix(1,0,0,1,996.5669291338584,432) translate(0 79.20000000000002)"/><use xlink:href="#k" transform="matrix(1,0,0,1,996.5669291338584,432) translate(72.01 79.20000000000002)"/><use xlink:href="#w" transform="matrix(1,0,0,1,996.5669291338584,432) translate(108.01 79.20000000000002)"/><use xlink:href="#m" transform="matrix(1,0,0,1,996.5669291338584,432) translate(0 100.80000000000001)"/><use xlink:href="#l" transform="matrix(1,0,0,1,996.5669291338584,432) translate(108.01 100.80000000000001)"/><use xlink:href="#g" transform="matrix(1,0,0,1,996.5669291338584,432) translate(0 122.4)"/><use xlink:href="#n" transform="matrix(1,0,0,1,996.5669291338584,432) translate(0 144)"/><use xlink:href="#o" transform="matrix(1,0,0,1,996.5669291338584,432) translate(72.01 144)"/><path d="M1158.57 467.6a6 6 0 0 1 6 6v108a6 6 0 0 1-6 6h-28a6 6 0 0 1-6-6v-108a6 6 0 0 1 6-6z" stroke="#e5e5e5" stroke-width="3" fill="#e5e5e5"/><use xlink:href="#p" transform="matrix(6.123233995736766e-17,1,-1,6.123233995736766e-17,1152.5669291338586,479.60000000000014) translate(-1.8024691358024612 14.222222222222221)"/><path d="M1184.57 426a6 6 0 0 1 6-6h168a6 6 0 0 1 6 6v155.6a6 6 0 0 1-6 6h-168a6 6 0 0 1-6-6z" stroke="#000" stroke-opacity="0" stroke-width="3" fill="#3788a5"/><use xlink:href="#x" transform="matrix(1,0,0,1,1196.5669291338584,432) translate(0 14.4)"/><use xlink:href="#g" transform="matrix(1,0,0,1,1196.5669291338584,432) translate(0 36)"/><use xlink:href="#h" transform="matrix(1,0,0,1,1196.5669291338584,432) translate(0 57.6)"/><use xlink:href="#r" transform="matrix(1,0,0,1,1196.5669291338584,432) translate(73.9 57.6)"/><use xlink:href="#j" transform="matrix(1,0,0,1,1196.5669291338584,432) translate(0 79.20000000000002)"/><use xlink:href="#k" transform="matrix(1,0,0,1,1196.5669291338584,432) translate(72.01 79.20000000000002)"/><use xlink:href="#w" transform="matrix(1,0,0,1,1196.5669291338584,432) translate(108.01 79.20000000000002)"/><use xlink:href="#m" transform="matrix(1,0,0,1,1196.5669291338584,432) translate(0 100.80000000000001)"/><use xlink:href="#l" transform="matrix(1,0,0,1,1196.5669291338584,432) translate(108.01 100.80000000000001)"/><use xlink:href="#g" transform="matrix(1,0,0,1,1196.5669291338584,432) translate(0 122.4)"/><use xlink:href="#n" transform="matrix(1,0,0,1,1196.5669291338584,432) translate(0 144)"/><use xlink:href="#o" transform="matrix(1,0,0,1,1196.5669291338584,432) translate(72.01 144)"/><path d="M1358.57 467.6a6 6 0 0 1 6 6v108a6 6 0 0 1-6 6h-28a6 6 0 0 1-6-6v-108a6 6 0 0 1 6-6z" stroke="#e5e5e5" stroke-width="3" fill="#e5e5e5"/><use xlink:href="#p" transform="matrix(6.123233995736766e-17,1,-1,6.123233995736766e-17,1352.5669291338586,479.60000000000014) translate(-1.8024691358024612 14.222222222222221)"/><path d="M1384.57 426a6 6 0 0 1 6-6h168a6 6 0 0 1 6 6v155.6a6 6 0 0 1-6 6h-168a6 6 0 0 1-6-6z" stroke="#000" stroke-opacity="0" stroke-width="3" fill="#de922b"/><use xlink:href="#y" transform="matrix(1,0,0,1,1396.5669291338584,432) translate(0 14.4)"/><use xlink:href="#g" transform="matrix(1,0,0,1,1396.5669291338584,432) translate(0 36)"/><use xlink:href="#t" transform="matrix(1,0,0,1,1396.5669291338584,432) translate(0 57.6)"/><use xlink:href="#u" transform="matrix(1,0,0,1,1396.5669291338584,432) translate(93.9 57.6)"/><use xlink:href="#j" transform="matrix(1,0,0,1,1396.5669291338584,432) translate(0 79.20000000000002)"/><use xlink:href="#k" transform="matrix(1,0,0,1,1396.5669291338584,432) translate(72.01 79.20000000000002)"/><use xlink:href="#w" transform="matrix(1,0,0,1,1396.5669291338584,432) translate(108.01 79.20000000000002)"/><use xlink:href="#m" transform="matrix(1,0,0,1,1396.5669291338584,432) translate(0 100.80000000000001)"/><use xlink:href="#l" transform="matrix(1,0,0,1,1396.5669291338584,432) translate(108.01 100.80000000000001)"/><use xlink:href="#g" transform="matrix(1,0,0,1,1396.5669291338584,432) translate(0 122.4)"/><use xlink:href="#n" transform="matrix(1,0,0,1,1396.5669291338584,432) translate(0 144)"/><use xlink:href="#o" transform="matrix(1,0,0,1,1396.5669291338584,432) translate(72.01 144)"/><path d="M1558.57 467.6a6 6 0 0 1 6 6v108a6 6 0 0 1-6 6h-28a6 6 0 0 1-6-6v-108a6 6 0 0 1 6-6z" stroke="#e5e5e5" stroke-width="3" fill="#e5e5e5"/><use xlink:href="#p" transform="matrix(6.123233995736766e-17,1,-1,6.123233995736766e-17,1552.5669291338586,479.60000000000014) translate(-1.8024691358024612 14.222222222222221)"/><path d="M645.43 1026a6 6 0 0 1 6-6h168a6 6 0 0 1 6 6v120a6 6 0 0 1-6 6h-168a6 6 0 0 1-6-6z" stroke="#000" stroke-opacity="0" stroke-width="3" fill="#796bb3"/><use xlink:href="#z" transform="matrix(1,0,0,1,657.4330708661416,1032) translate(0 14.4)"/><use xlink:href="#g" transform="matrix(1,0,0,1,657.4330708661416,1032) translate(0 36)"/><use xlink:href="#A" transform="matrix(1,0,0,1,657.4330708661416,1032) translate(0 57.6)"/><use xlink:href="#k" transform="matrix(1,0,0,1,657.4330708661416,1032) translate(36.01 57.6)"/><use xlink:href="#B" transform="matrix(1,0,0,1,657.4330708661416,1032) translate(72.01 57.6)"/><use xlink:href="#C" transform="matrix(1,0,0,1,657.4330708661416,1032) translate(82.01 57.6)"/><use xlink:href="#j" transform="matrix(1,0,0,1,657.4330708661416,1032) translate(0 79.20000000000002)"/><use xlink:href="#B" transform="matrix(1,0,0,1,657.4330708661416,1032) translate(72.01 79.20000000000002)"/><use xlink:href="#C" transform="matrix(1,0,0,1,657.4330708661416,1032) translate(82.01 79.20000000000002)"/><use xlink:href="#D" transform="matrix(1,0,0,1,657.4330708661416,1032) translate(0 100.80000000000001)"/><use xlink:href="#E" transform="matrix(1,0,0,1,657.4330708661416,1032) translate(83.95 100.80000000000001)"/><path d="M845.43 1026a6 6 0 0 1 6-6h168a6 6 0 0 1 6 6v120a6 6 0 0 1-6 6h-168a6 6 0 0 1-6-6z" stroke="#000" stroke-opacity="0" stroke-width="3" fill="#0c7cba"/><use xlink:href="#F" transform="matrix(1,0,0,1,857.4330708661416,1032) translate(0 14.4)"/><use xlink:href="#g" transform="matrix(1,0,0,1,857.4330708661416,1032) translate(0 36)"/><use xlink:href="#A" transform="matrix(1,0,0,1,857.4330708661416,1032) translate(0 57.6)"/><use xlink:href="#k" transform="matrix(1,0,0,1,857.4330708661416,1032) translate(36.01 57.6)"/><use xlink:href="#B" transform="matrix(1,0,0,1,857.4330708661416,1032) translate(72.01 57.6)"/><use xlink:href="#C" transform="matrix(1,0,0,1,857.4330708661416,1032) translate(82.01 57.6)"/><use xlink:href="#j" transform="matrix(1,0,0,1,857.4330708661416,1032) translate(0 79.20000000000002)"/><use xlink:href="#B" transform="matrix(1,0,0,1,857.4330708661416,1032) translate(72.01 79.20000000000002)"/><use xlink:href="#C" transform="matrix(1,0,0,1,857.4330708661416,1032) translate(82.01 79.20000000000002)"/><use xlink:href="#D" transform="matrix(1,0,0,1,857.4330708661416,1032) translate(0 100.80000000000001)"/><use xlink:href="#E" transform="matrix(1,0,0,1,857.4330708661416,1032) translate(83.95 100.80000000000001)"/><path d="M1019.43 1084.4a6 6 0 0 1 6 6v55.6a6 6 0 0 1-6 6h-28a6 6 0 0 1-6-6v-55.6a6 6 0 0 1 6-6z" stroke="#e5e5e5" stroke-width="3" fill="#e5e5e5"/><use xlink:href="#G" transform="matrix(6.123233995736766e-17,1,-1,6.123233995736766e-17,1013.4330708661414,1096.3999999999999) translate(-1.6790123456790056 14.222222222222221)"/><path d="M1045.43 1026a6 6 0 0 1 6-6h168a6 6 0 0 1 6 6v120a6 6 0 0 1-6 6h-168a6 6 0 0 1-6-6z" stroke="#000" stroke-opacity="0" stroke-width="3" fill="#de922b"/><use xlink:href="#H" transform="matrix(1,0,0,1,1057.4330708661416,1032) translate(0 14.4)"/><use xlink:href="#g" transform="matrix(1,0,0,1,1057.4330708661416,1032) translate(0 36)"/><use xlink:href="#A" transform="matrix(1,0,0,1,1057.4330708661416,1032) translate(0 57.6)"/><use xlink:href="#k" transform="matrix(1,0,0,1,1057.4330708661416,1032) translate(36.01 57.6)"/><use xlink:href="#B" transform="matrix(1,0,0,1,1057.4330708661416,1032) translate(72.01 57.6)"/><use xlink:href="#C" transform="matrix(1,0,0,1,1057.4330708661416,1032) translate(82.01 57.6)"/><use xlink:href="#j" transform="matrix(1,0,0,1,1057.4330708661416,1032) translate(0 79.20000000000002)"/><use xlink:href="#B" transform="matrix(1,0,0,1,1057.4330708661416,1032) translate(72.01 79.20000000000002)"/><use xlink:href="#C" transform="matrix(1,0,0,1,1057.4330708661416,1032) translate(82.01 79.20000000000002)"/><use xlink:href="#D" transform="matrix(1,0,0,1,1057.4330708661416,1032) translate(0 100.80000000000001)"/><use xlink:href="#E" transform="matrix(1,0,0,1,1057.4330708661416,1032) translate(83.95 100.80000000000001)"/><g><path d="M1219.43 1084.4a6 6 0 0 1 6 6v55.6a6 6 0 0 1-6 6h-28a6 6 0 0 1-6-6v-55.6a6 6 0 0 1 6-6z" stroke="#e5e5e5" stroke-width="3" fill="#e5e5e5"/></g><g><use xlink:href="#G" transform="matrix(6.123233995736766e-17,1,-1,6.123233995736766e-17,1213.4330708661419,1096.3999999999999) translate(-1.6790123456790056 14.222222222222221)"/></g><path d="M860 127.5a6 6 0 0 1 6-6h168a6 6 0 0 1 6 6v163.2a6 6 0 0 1-6 6H866a6 6 0 0 1-6-6z" stroke="#2e2f27" stroke-width="3" fill="#fff"/><g><use xlink:href="#I" transform="matrix(1,0,0,1,872,133.5) translate(0 14.4)"/><use xlink:href="#J" transform="matrix(1,0,0,1,872,133.5) translate(0 36)"/><use xlink:href="#K" transform="matrix(1,0,0,1,872,133.5) translate(0 57.6)"/><use xlink:href="#L" transform="matrix(1,0,0,1,872,133.5) translate(72.01 57.6)"/><use xlink:href="#M" transform="matrix(1,0,0,1,872,133.5) translate(0 79.20000000000002)"/><use xlink:href="#N" transform="matrix(1,0,0,1,872,133.5) translate(36.01 79.20000000000002)"/><use xlink:href="#L" transform="matrix(1,0,0,1,872,133.5) translate(72.01 79.20000000000002)"/><use xlink:href="#O" transform="matrix(1,0,0,1,872,133.5) translate(0 100.80000000000001)"/><use xlink:href="#L" transform="matrix(1,0,0,1,872,133.5) translate(72.01 100.80000000000001)"/><use xlink:href="#P" transform="matrix(1,0,0,1,872,133.5) translate(0 122.4)"/><use xlink:href="#L" transform="matrix(1,0,0,1,872,133.5) translate(72.01 122.4)"/><use xlink:href="#Q" transform="matrix(1,0,0,1,872,133.5) translate(0 144)"/><use xlink:href="#R" transform="matrix(1,0,0,1,872,133.5) translate(87.9 144)"/></g><g><path d="M1034 176.7a6 6 0 0 1 6 6v108a6 6 0 0 1-6 6h-28a6 6 0 0 1-6-6v-108a6 6 0 0 1 6-6z" stroke="#e5e5e5" stroke-width="3" fill="#e5e5e5"/></g><g><use xlink:href="#S" transform="matrix(6.123233995736766e-17,1,-1,6.123233995736766e-17,1028,188.70000000000005) translate(27.283950617283956 14.222222222222221)"/></g><path d="M1160 167.5a6 6 0 0 1 6-6h168a6 6 0 0 1 6 6v120a6 6 0 0 1-6 6h-168a6 6 0 0 1-6-6z" stroke="#2e2f27" stroke-width="3" fill="#fff"/><g><use xlink:href="#T" transform="matrix(1,0,0,1,1172,173.5) translate(0 14.4)"/><use xlink:href="#J" transform="matrix(1,0,0,1,1172,173.5) translate(0 36)"/><use xlink:href="#U" transform="matrix(1,0,0,1,1172,173.5) translate(0 57.6)"/><use xlink:href="#N" transform="matrix(1,0,0,1,1172,173.5) translate(36.01 57.6)"/><use xlink:href="#V" transform="matrix(1,0,0,1,1172,173.5) translate(72.01 57.6)"/><use xlink:href="#W" transform="matrix(1,0,0,1,1172,173.5) translate(82.01 57.6)"/><use xlink:href="#P" transform="matrix(1,0,0,1,1172,173.5) translate(0 79.20000000000002)"/><use xlink:href="#V" transform="matrix(1,0,0,1,1172,173.5) translate(72.01 79.20000000000002)"/><use xlink:href="#W" transform="matrix(1,0,0,1,1172,173.5) translate(82.01 79.20000000000002)"/><use xlink:href="#X" transform="matrix(1,0,0,1,1172,173.5) translate(0 100.80000000000001)"/><use xlink:href="#R" transform="matrix(1,0,0,1,1172,173.5) translate(83.95 100.80000000000001)"/></g><g><path d="M1334 225.9a6 6 0 0 1 6 6v55.6a6 6 0 0 1-6 6h-28.72a6 6 0 0 1-6-6v-55.6a6 6 0 0 1 6-6z" stroke="#e5e5e5" stroke-width="3" fill="#e5e5e5"/></g><g><use xlink:href="#G" transform="matrix(6.123233995736766e-17,1,-1,6.123233995736766e-17,1328.0000000000002,237.9000000000001) translate(-1.6790123456790056 14.222222222222221)"/></g><g><path d="M819.43 1084.4a6 6 0 0 1 6 6v55.6a6 6 0 0 1-6 6H790.7a6 6 0 0 1-6-6v-55.6a6 6 0 0 1 6-6z" stroke="#e5e5e5" stroke-width="3" fill="#e5e5e5"/></g><g><use xlink:href="#G" transform="matrix(6.123233995736766e-17,1,-1,6.123233995736766e-17,813.4330708661416,1096.3999999999999) translate(-1.6790123456790056 14.222222222222221)"/></g><path d="M1474.57 419v-73a6 6 0 0 0-6-6H956a6 6 0 0 1-6-6v-17.3" stroke="#7b7d68" stroke-width="2" fill="none"/><path d="M1475.57 420h-2v-1.03h2z" stroke="#7b7d68" stroke-width=".05" fill="#7b7d68"/><path d="M950 301.44l4.63 14.26h-9.26z" stroke="#7b7d68" stroke-width="2" fill="#7b7d68"/><path d="M410 419v-73a6 6 0 0 1 6-6h528a6 6 0 0 0 6-6v-17.3" stroke="#7b7d68" stroke-width="2" fill="none"/><path d="M411 420h-2v-1.03h2z" stroke="#7b7d68" stroke-width=".05" fill="#7b7d68"/><path d="M950 301.44l4.63 14.26h-9.26z" stroke="#7b7d68" stroke-width="2" fill="#7b7d68"/><path d="M610 419v-73a6 6 0 0 1 6-6h328a6 6 0 0 0 6-6v-17.3" stroke="#7b7d68" stroke-width="2" fill="none"/><path d="M611 420h-2v-1.03h2z" stroke="#7b7d68" stroke-width=".05" fill="#7b7d68"/><path d="M950 301.44l4.63 14.26h-9.26z" stroke="#7b7d68" stroke-width="2" fill="#7b7d68"/><path d="M810 419v-73a6 6 0 0 1 6-6h128a6 6 0 0 0 6-6v-17.3" stroke="#7b7d68" stroke-width="2" fill="none"/><path d="M811 420h-2v-1.03h2z" stroke="#7b7d68" stroke-width=".05" fill="#7b7d68"/><path d="M950 301.44l4.63 14.26h-9.26z" stroke="#7b7d68" stroke-width="2" fill="#7b7d68"/><path d="M1077.87 419v-73a6 6 0 0 0-6-6H956a6 6 0 0 1-6-6v-17.3" stroke="#7b7d68" stroke-width="2" fill="none"/><path d="M1078.87 420h-2v-1.03h2z" stroke="#7b7d68" stroke-width=".05" fill="#7b7d68"/><path d="M950 301.44l4.63 14.26h-9.26z" stroke="#7b7d68" stroke-width="2" fill="#7b7d68"/><path d="M950 119v-13l.07-.94.22-.9.35-.88.5-.8.6-.72.72-.6.8-.5.88-.37.9-.23.95-.07h10.43m10.44 0h20.86m10.44 0h20.86m10.44 0h20.86m10.44 0h20.86m10.44 0h10.43l.94.07.9.22.88.35.8.5.72.6.6.72.5.8.37.88.23.9.07.95v9.63m0 9.62v19.25m0 9.63v19.25m0 9.62v19.25m0 9.63v9.62l.07.94.22.9.35.88.5.8.6.72.72.6.8.5.88.37.9.23.95.07h15.5" stroke="#7b7d68" stroke-width="2" fill="none"/><path d="M951 120h-2v-1.03h2z" stroke="#7b7d68" stroke-width=".05" fill="#7b7d68"/><path d="M1155.26 227.5l-14.26 4.63v-9.26z" stroke="#7b7d68" stroke-width="2" fill="#7b7d68"/><path d="M1274.57 419v-73a6 6 0 0 0-6-6H956a6 6 0 0 1-6-6v-17.3" stroke="#7b7d68" stroke-width="2" fill="none"/><path d="M1275.57 420h-2v-1.03h2z" stroke="#7b7d68" stroke-width=".05" fill="#7b7d68"/><path d="M950 301.44l4.63 14.26h-9.26z" stroke="#7b7d68" stroke-width="2" fill="#7b7d68"/><path d="M410 828.6V974a6 6 0 0 0 6 6h313.43a6 6 0 0 1 6 6v15.5" stroke="#796bb3" stroke-width="2" fill="none"/><path d="M411 828.63h-2v-1.03h2z" stroke="#796bb3" stroke-width=".05" fill="#796bb3"/><path d="M735.43 1016.76l-4.63-14.26h9.27z" stroke="#796bb3" stroke-width="2" fill="#796bb3"/><path d="M430.2 588.6V954a6 6 0 0 0 6 6h293.23a6 6 0 0 1 6 6v35.5" stroke="#796bb3" stroke-width="2" fill="none"/><path d="M431.2 588.63h-2v-1.03h2z" stroke="#796bb3" stroke-width=".05" fill="#796bb3"/><path d="M735.43 1016.76l-4.63-14.26h9.27z" stroke="#796bb3" stroke-width="2" fill="#796bb3"/><path d="M1074.57 828.6V974a6 6 0 0 1-6 6H741.43a6 6 0 0 0-6 6v15.5" stroke="#796bb3" stroke-width="2" fill="none"/><path d="M1075.57 828.63h-2v-1.03h2z" stroke="#796bb3" stroke-width=".05" fill="#796bb3"/><path d="M735.43 1016.76l-4.63-14.26h9.27z" stroke="#796bb3" stroke-width="2" fill="#796bb3"/><path d="M1049.14 588.6V954a6 6 0 0 1-6 6h-301.7a6 6 0 0 0-6 6v35.5" stroke="#796bb3" stroke-width="2" fill="none"/><path d="M1050.14 588.63h-2v-1.03h2z" stroke="#796bb3" stroke-width=".05" fill="#796bb3"/><path d="M735.43 1016.76l-4.63-14.26h9.27z" stroke="#796bb3" stroke-width="2" fill="#796bb3"/><path d="M632.86 588.6V914a6 6 0 0 0 6 6h290.57a6 6 0 0 1 6 6v75.5" stroke="#3788a5" stroke-width="2" fill="none"/><path d="M633.86 588.63h-2v-1.03h2z" stroke="#3788a5" stroke-width=".05" fill="#3788a5"/><path d="M935.43 1016.76l-4.63-14.26h9.27z" stroke="#3788a5" stroke-width="2" fill="#3788a5"/><path d="M610 828.6V934a6 6 0 0 0 6 6h313.43a6 6 0 0 1 6 6v55.5" stroke="#3788a5" stroke-width="2" fill="none"/><path d="M611 828.63h-2v-1.03h2z" stroke="#3788a5" stroke-width=".05" fill="#3788a5"/><path d="M935.43 1016.76l-4.63-14.26h9.27z" stroke="#3788a5" stroke-width="2" fill="#3788a5"/><path d="M1274.57 828.6V934a6 6 0 0 1-6 6H941.43a6 6 0 0 0-6 6v55.5" stroke="#3788a5" stroke-width="2" fill="none"/><path d="M1275.57 828.63h-2v-1.03h2z" stroke="#3788a5" stroke-width=".05" fill="#3788a5"/><path d="M935.43 1016.76l-4.63-14.26h9.27z" stroke="#3788a5" stroke-width="2" fill="#3788a5"/><path d="M1255.8 588.6V914a6 6 0 0 1-6 6H941.42a6 6 0 0 0-6 6v75.5" stroke="#3788a5" stroke-width="2" fill="none"/><path d="M1256.8 588.63h-2v-1.03h2z" stroke="#3788a5" stroke-width=".05" fill="#3788a5"/><path d="M935.43 1016.76l-4.63-14.26h9.27z" stroke="#3788a5" stroke-width="2" fill="#3788a5"/><path d="M810 828.6V894a6 6 0 0 0 6 6h313.43a6 6 0 0 1 6 6v95.5" stroke="#de922b" stroke-width="2" fill="none"/><path d="M811 828.63h-2v-1.03h2z" stroke="#de922b" stroke-width=".05" fill="#de922b"/><path d="M1135.43 1016.76l-4.63-14.26h9.27z" stroke="#de922b" stroke-width="2" fill="#de922b"/><path d="M842.3 588.6V874a6 6 0 0 0 6 6h281.13a6 6 0 0 1 6 6v115.5" stroke="#de922b" stroke-width="2" fill="none"/><path d="M843.3 588.63h-2v-1.03h2z" stroke="#de922b" stroke-width=".05" fill="#de922b"/><path d="M1135.43 1016.76l-4.63-14.26h9.27z" stroke="#de922b" stroke-width="2" fill="#de922b"/><path d="M1474.57 828.6V894a6 6 0 0 1-6 6h-327.14a6 6 0 0 0-6 6v95.5" stroke="#de922b" stroke-width="2" fill="none"/><path d="M1475.57 828.63h-2v-1.03h2z" stroke="#de922b" stroke-width=".05" fill="#de922b"/><path d="M1135.43 1016.76l-4.63-14.26h9.27z" stroke="#de922b" stroke-width="2" fill="#de922b"/><path d="M1457.5 588.6V874a6 6 0 0 1-6 6h-310.07a6 6 0 0 0-6 6v115.5" stroke="#de922b" stroke-width="2" fill="none"/><path d="M1458.5 588.63h-2v-1.03h2z" stroke="#de922b" stroke-width=".05" fill="#de922b"/><path d="M1135.43 1016.76l-4.63-14.26h9.27z" stroke="#de922b" stroke-width="2" fill="#de922b"/><path d="M520 666a6 6 0 0 1 6-6h168a6 6 0 0 1 6 6v155.6a6 6 0 0 1-6 6H526a6 6 0 0 1-6-6z" stroke="#000" stroke-opacity="0" stroke-width="3" fill="#3788a5"/><g><use xlink:href="#Y" transform="matrix(1,0,0,1,532,672) translate(0 14.4)"/><use xlink:href="#g" transform="matrix(1,0,0,1,532,672) translate(0 36)"/><use xlink:href="#h" transform="matrix(1,0,0,1,532,672) translate(0 57.6)"/><use xlink:href="#r" transform="matrix(1,0,0,1,532,672) translate(73.9 57.6)"/><use xlink:href="#j" transform="matrix(1,0,0,1,532,672) translate(0 79.20000000000002)"/><use xlink:href="#k" transform="matrix(1,0,0,1,532,672) translate(72.01 79.20000000000002)"/><use xlink:href="#l" transform="matrix(1,0,0,1,532,672) translate(108.01 79.20000000000002)"/><use xlink:href="#m" transform="matrix(1,0,0,1,532,672) translate(0 100.80000000000001)"/><use xlink:href="#l" transform="matrix(1,0,0,1,532,672) translate(108.01 100.80000000000001)"/><use xlink:href="#g" transform="matrix(1,0,0,1,532,672) translate(0 122.4)"/><use xlink:href="#n" transform="matrix(1,0,0,1,532,672) translate(0 144)"/><use xlink:href="#o" transform="matrix(1,0,0,1,532,672) translate(72.01 144)"/></g><g><path d="M694 707.6a6 6 0 0 1 6 6v108a6 6 0 0 1-6 6h-28a6 6 0 0 1-6-6v-108a6 6 0 0 1 6-6z" stroke="#e5e5e5" stroke-width="3" fill="#e5e5e5"/></g><g><use xlink:href="#p" transform="matrix(6.123233995736766e-17,1,-1,6.123233995736766e-17,687.9999999999999,719.6) translate(-1.8024691358024612 14.222222222222221)"/></g><path d="M984.57 666a6 6 0 0 1 6-6h168a6 6 0 0 1 6 6v155.6a6 6 0 0 1-6 6h-168a6 6 0 0 1-6-6z" stroke="#000" stroke-opacity="0" stroke-width="3" fill="#796bb3"/><g><use xlink:href="#Z" transform="matrix(1,0,0,1,996.5669291338584,672) translate(0 14.4)"/><use xlink:href="#g" transform="matrix(1,0,0,1,996.5669291338584,672) translate(0 36)"/><use xlink:href="#h" transform="matrix(1,0,0,1,996.5669291338584,672) translate(0 57.6)"/><use xlink:href="#i" transform="matrix(1,0,0,1,996.5669291338584,672) translate(73.9 57.6)"/><use xlink:href="#j" transform="matrix(1,0,0,1,996.5669291338584,672) translate(0 79.20000000000002)"/><use xlink:href="#k" transform="matrix(1,0,0,1,996.5669291338584,672) translate(72.01 79.20000000000002)"/><use xlink:href="#w" transform="matrix(1,0,0,1,996.5669291338584,672) translate(108.01 79.20000000000002)"/><use xlink:href="#m" transform="matrix(1,0,0,1,996.5669291338584,672) translate(0 100.80000000000001)"/><use xlink:href="#l" transform="matrix(1,0,0,1,996.5669291338584,672) translate(108.01 100.80000000000001)"/><use xlink:href="#g" transform="matrix(1,0,0,1,996.5669291338584,672) translate(0 122.4)"/><use xlink:href="#n" transform="matrix(1,0,0,1,996.5669291338584,672) translate(0 144)"/><use xlink:href="#o" transform="matrix(1,0,0,1,996.5669291338584,672) translate(72.01 144)"/></g><g><path d="M1158.57 707.6a6 6 0 0 1 6 6v108a6 6 0 0 1-6 6h-28a6 6 0 0 1-6-6v-108a6 6 0 0 1 6-6z" stroke="#e5e5e5" stroke-width="3" fill="#e5e5e5"/></g><g><use xlink:href="#p" transform="matrix(6.123233995736766e-17,1,-1,6.123233995736766e-17,1152.5669291338586,719.5999999999999) translate(-1.8024691358024612 14.222222222222221)"/></g><path d="M720 666a6 6 0 0 1 6-6h168a6 6 0 0 1 6 6v155.6a6 6 0 0 1-6 6H726a6 6 0 0 1-6-6z" stroke="#000" stroke-opacity="0" stroke-width="3" fill="#de922b"/><g><use xlink:href="#aa" transform="matrix(1,0,0,1,732,672) translate(0 14.4)"/><use xlink:href="#g" transform="matrix(1,0,0,1,732,672) translate(0 36)"/><use xlink:href="#t" transform="matrix(1,0,0,1,732,672) translate(0 57.6)"/><use xlink:href="#u" transform="matrix(1,0,0,1,732,672) translate(93.9 57.6)"/><use xlink:href="#j" transform="matrix(1,0,0,1,732,672) translate(0 79.20000000000002)"/><use xlink:href="#k" transform="matrix(1,0,0,1,732,672) translate(72.01 79.20000000000002)"/><use xlink:href="#l" transform="matrix(1,0,0,1,732,672) translate(108.01 79.20000000000002)"/><use xlink:href="#m" transform="matrix(1,0,0,1,732,672) translate(0 100.80000000000001)"/><use xlink:href="#l" transform="matrix(1,0,0,1,732,672) translate(108.01 100.80000000000001)"/><use xlink:href="#g" transform="matrix(1,0,0,1,732,672) translate(0 122.4)"/><use xlink:href="#n" transform="matrix(1,0,0,1,732,672) translate(0 144)"/><use xlink:href="#o" transform="matrix(1,0,0,1,732,672) translate(72.01 144)"/></g><g><path d="M894 707.6a6 6 0 0 1 6 6v108a6 6 0 0 1-6 6h-28a6 6 0 0 1-6-6v-108a6 6 0 0 1 6-6z" stroke="#e5e5e5" stroke-width="3" fill="#e5e5e5"/></g><g><use xlink:href="#p" transform="matrix(6.123233995736766e-17,1,-1,6.123233995736766e-17,887.9999999999999,719.6) translate(-1.8024691358024612 14.222222222222221)"/></g><path d="M320 666a6 6 0 0 1 6-6h168a6 6 0 0 1 6 6v155.6a6 6 0 0 1-6 6H326a6 6 0 0 1-6-6z" stroke="#000" stroke-opacity="0" stroke-width="3" fill="#796bb3"/><g><use xlink:href="#ab" transform="matrix(1,0,0,1,332,672) translate(0 14.4)"/><use xlink:href="#g" transform="matrix(1,0,0,1,332,672) translate(0 36)"/><use xlink:href="#h" transform="matrix(1,0,0,1,332,672) translate(0 57.6)"/><use xlink:href="#i" transform="matrix(1,0,0,1,332,672) translate(73.9 57.6)"/><use xlink:href="#j" transform="matrix(1,0,0,1,332,672) translate(0 79.20000000000002)"/><use xlink:href="#k" transform="matrix(1,0,0,1,332,672) translate(72.01 79.20000000000002)"/><use xlink:href="#l" transform="matrix(1,0,0,1,332,672) translate(108.01 79.20000000000002)"/><use xlink:href="#m" transform="matrix(1,0,0,1,332,672) translate(0 100.80000000000001)"/><use xlink:href="#l" transform="matrix(1,0,0,1,332,672) translate(108.01 100.80000000000001)"/><use xlink:href="#g" transform="matrix(1,0,0,1,332,672) translate(0 122.4)"/><use xlink:href="#n" transform="matrix(1,0,0,1,332,672) translate(0 144)"/><use xlink:href="#o" transform="matrix(1,0,0,1,332,672) translate(72.01 144)"/></g><g><path d="M494 707.6a6 6 0 0 1 6 6v108a6 6 0 0 1-6 6h-28a6 6 0 0 1-6-6v-108a6 6 0 0 1 6-6z" stroke="#e5e5e5" stroke-width="3" fill="#e5e5e5"/></g><g><use xlink:href="#p" transform="matrix(6.123233995736766e-17,1,-1,6.123233995736766e-17,487.9999999999999,719.6) translate(-1.8024691358024612 14.222222222222221)"/></g><path d="M1384.57 666a6 6 0 0 1 6-6h168a6 6 0 0 1 6 6v155.6a6 6 0 0 1-6 6h-168a6 6 0 0 1-6-6z" stroke="#000" stroke-opacity="0" stroke-width="3" fill="#de922b"/><g><use xlink:href="#ac" transform="matrix(1,0,0,1,1396.5669291338584,672) translate(0 14.4)"/><use xlink:href="#g" transform="matrix(1,0,0,1,1396.5669291338584,672) translate(0 36)"/><use xlink:href="#t" transform="matrix(1,0,0,1,1396.5669291338584,672) translate(0 57.6)"/><use xlink:href="#u" transform="matrix(1,0,0,1,1396.5669291338584,672) translate(93.9 57.6)"/><use xlink:href="#j" transform="matrix(1,0,0,1,1396.5669291338584,672) translate(0 79.20000000000002)"/><use xlink:href="#k" transform="matrix(1,0,0,1,1396.5669291338584,672) translate(72.01 79.20000000000002)"/><use xlink:href="#w" transform="matrix(1,0,0,1,1396.5669291338584,672) translate(108.01 79.20000000000002)"/><use xlink:href="#m" transform="matrix(1,0,0,1,1396.5669291338584,672) translate(0 100.80000000000001)"/><use xlink:href="#l" transform="matrix(1,0,0,1,1396.5669291338584,672) translate(108.01 100.80000000000001)"/><use xlink:href="#g" transform="matrix(1,0,0,1,1396.5669291338584,672) translate(0 122.4)"/><use xlink:href="#n" transform="matrix(1,0,0,1,1396.5669291338584,672) translate(0 144)"/><use xlink:href="#o" transform="matrix(1,0,0,1,1396.5669291338584,672) translate(72.01 144)"/></g><g><path d="M1558.57 707.6a6 6 0 0 1 6 6v108a6 6 0 0 1-6 6h-28a6 6 0 0 1-6-6v-108a6 6 0 0 1 6-6z" stroke="#e5e5e5" stroke-width="3" fill="#e5e5e5"/></g><g><use xlink:href="#p" transform="matrix(6.123233995736766e-17,1,-1,6.123233995736766e-17,1552.5669291338586,719.6) translate(-1.8024691358024612 14.222222222222221)"/></g><path d="M1184.57 666a6 6 0 0 1 6-6h168a6 6 0 0 1 6 6v155.6a6 6 0 0 1-6 6h-168a6 6 0 0 1-6-6z" stroke="#000" stroke-opacity="0" stroke-width="3" fill="#3788a5"/><g><use xlink:href="#ad" transform="matrix(1,0,0,1,1196.5669291338584,672) translate(0 14.4)"/><use xlink:href="#g" transform="matrix(1,0,0,1,1196.5669291338584,672) translate(0 36)"/><use xlink:href="#h" transform="matrix(1,0,0,1,1196.5669291338584,672) translate(0 57.6)"/><use xlink:href="#r" transform="matrix(1,0,0,1,1196.5669291338584,672) translate(73.9 57.6)"/><use xlink:href="#j" transform="matrix(1,0,0,1,1196.5669291338584,672) translate(0 79.20000000000002)"/><use xlink:href="#k" transform="matrix(1,0,0,1,1196.5669291338584,672) translate(72.01 79.20000000000002)"/><use xlink:href="#w" transform="matrix(1,0,0,1,1196.5669291338584,672) translate(108.01 79.20000000000002)"/><use xlink:href="#m" transform="matrix(1,0,0,1,1196.5669291338584,672) translate(0 100.80000000000001)"/><use xlink:href="#l" transform="matrix(1,0,0,1,1196.5669291338584,672) translate(108.01 100.80000000000001)"/><use xlink:href="#g" transform="matrix(1,0,0,1,1196.5669291338584,672) translate(0 122.4)"/><use xlink:href="#n" transform="matrix(1,0,0,1,1196.5669291338584,672) translate(0 144)"/><use xlink:href="#o" transform="matrix(1,0,0,1,1196.5669291338584,672) translate(72.01 144)"/></g><g><path d="M1358.57 707.6a6 6 0 0 1 6 6v108a6 6 0 0 1-6 6h-28a6 6 0 0 1-6-6v-108a6 6 0 0 1 6-6z" stroke="#e5e5e5" stroke-width="3" fill="#e5e5e5"/></g><g><use xlink:href="#p" transform="matrix(6.123233995736766e-17,1,-1,6.123233995736766e-17,1352.5669291338586,719.6) translate(-1.8024691358024612 14.222222222222221)"/></g><defs><path fill="#2e2f27" d="M169-182c-1-43-94-46-97-3 18 66 151 10 154 114 3 95-165 93-204 36-6-8-10-19-12-30l50-8c3 46 112 56 116 5-17-69-150-10-154-114-4-87 153-88 188-35 5 8 8 18 10 28" id="ae"/><path fill="#2e2f27" d="M185-48c-13 30-37 53-82 52C43 2 14-33 14-96s30-98 90-98c62 0 83 45 84 108H66c0 31 8 55 39 56 18 0 30-7 34-22zm-45-69c5-46-57-63-70-21-2 6-4 13-4 21h74" id="af"/><path fill="#2e2f27" d="M115-3C79 11 28 4 28-45v-112H4v-33h27l15-45h31v45h36v33H77v99c-1 23 16 31 38 25v30" id="ag"/><g id="a"><use transform="matrix(0.05,0,0,0.05,0,0)" xlink:href="#ae"/><use transform="matrix(0.05,0,0,0.05,12,0)" xlink:href="#af"/><use transform="matrix(0.05,0,0,0.05,22,0)" xlink:href="#ag"/></g><path fill="#2e2f27" d="M23 0v-37h61v-169l-59 37v-38l62-41h46v211h57V0H23" id="ah"/><use transform="matrix(0.05,0,0,0.05,0,0)" xlink:href="#ah" id="b"/><path fill="#2e2f27" d="M67-93c0 74 22 123 53 168H70C40 30 18-18 18-93s22-123 52-168h50c-32 44-53 94-53 168" id="ai"/><path fill="#2e2f27" d="M110-194c64 0 96 36 96 99 0 64-35 99-97 99-61 0-95-36-95-99 0-62 34-99 96-99zm-1 164c35 0 45-28 45-65 0-40-10-65-43-65-34 0-45 26-45 65 0 36 10 65 43 65" id="aj"/><path fill="#2e2f27" d="M25 0v-261h50V0H25" id="ak"/><path fill="#2e2f27" d="M88-194c31-1 46 15 58 34l-1-101h50l1 261h-48c-2-10 0-23-3-31C134-8 116 4 84 4 32 4 16-41 15-95c0-56 19-97 73-99zm17 164c33 0 40-30 41-66 1-37-9-64-41-64s-38 30-39 65c0 43 13 65 39 65" id="al"/><path fill="#2e2f27" d="M102-93c0 74-22 123-52 168H0C30 29 54-18 53-93c0-74-22-123-53-168h50c30 45 52 94 52 168" id="am"/><g id="c"><use transform="matrix(0.05,0,0,0.05,0,0)" xlink:href="#ai"/><use transform="matrix(0.05,0,0,0.05,5.95,0)" xlink:href="#aj"/><use transform="matrix(0.05,0,0,0.05,16.900000000000002,0)" xlink:href="#ak"/><use transform="matrix(0.05,0,0,0.05,21.900000000000002,0)" xlink:href="#al"/><use transform="matrix(0.05,0,0,0.05,32.85,0)" xlink:href="#am"/></g><path fill="#2e2f27" d="M101-251c68 0 84 54 84 127C185-50 166 4 99 4S15-52 14-124c-1-75 17-127 87-127zm-1 216c37-5 36-46 36-89s4-89-36-89c-39 0-36 45-36 89 0 43-3 85 36 89" id="an"/><use transform="matrix(0.05,0,0,0.05,0,0)" xlink:href="#an" id="d"/><path fill="#2e2f27" d="M133-34C117-15 103 5 69 4 32 3 11-16 11-54c-1-60 55-63 116-61 1-26-3-47-28-47-18 1-26 9-28 27l-52-2c7-38 36-58 82-57s74 22 75 68l1 82c-1 14 12 18 25 15v27c-30 8-71 5-69-32zm-48 3c29 0 43-24 42-57-32 0-66-3-65 30 0 17 8 27 23 27" id="ao"/><path fill="#2e2f27" d="M190-63c-7 42-38 67-86 67-59 0-84-38-90-98-12-110 154-137 174-36l-49 2c-2-19-15-32-35-32-30 0-35 28-38 64-6 74 65 87 74 30" id="ap"/><path fill="#2e2f27" d="M25-224v-37h50v37H25zM25 0v-190h50V0H25" id="aq"/><path fill="#2e2f27" d="M128 0H69L1-190h53L99-40l48-150h52" id="ar"/><g id="e"><use transform="matrix(0.05,0,0,0.05,0,0)" xlink:href="#ai"/><use transform="matrix(0.05,0,0,0.05,5.95,0)" xlink:href="#ao"/><use transform="matrix(0.05,0,0,0.05,15.949999999999998,0)" xlink:href="#ap"/><use transform="matrix(0.05,0,0,0.05,25.950000000000003,0)" xlink:href="#ag"/><use transform="matrix(0.05,0,0,0.05,31.899999999999995,0)" xlink:href="#aq"/><use transform="matrix(0.05,0,0,0.05,36.9,0)" xlink:href="#ar"/><use transform="matrix(0.05,0,0,0.05,46.9,0)" xlink:href="#af"/><use transform="matrix(0.05,0,0,0.05,56.900000000000006,0)" xlink:href="#am"/></g><path fill="#fff" d="M151-194c95 0 34 128 28 194h-49l25-134c0-29-45-25-59-9C67-111 69-48 56 0H6l36-190h47l-4 32c15-20 33-36 66-36" id="as"/><path fill="#fff" d="M114-194c63-2 87 48 72 110H63c-3 28 1 55 31 54 21-1 32-13 37-29l44 13C160-14 137 4 91 4 41 4 11-22 11-73c0-71 33-119 103-121zm30 77c14-47-50-61-67-22-3 6-6 13-8 22h75" id="at"/><path fill="#fff" d="M212 0h-52l-8-156L82 0H30L17-190h46l2 145 66-145h53l8 145 60-145h47" id="au"/><path fill="#fff" d="M144-137c-1-29-70-35-71-2 16 41 103 10 103 80C176 9 79 16 32-9 18-17 9-31 4-48l44-6c3 32 80 36 82 1-15-42-103-11-103-82 0-77 157-79 161-8" id="av"/><path fill="#fff" d="M-21 44V30h207v14H-21" id="aw"/><path fill="#fff" d="M6 0l7-41h62l31-161-67 37 8-42 70-41h48L124-41h57l-8 41H6" id="ax"/><path fill="#fff" d="M87-160c15-17 32-34 63-34 99 1 59 172-1 192-36 12-78 0-87-29L54 0H6l52-261h49zm71 38c0-24-5-37-29-37-46 0-55 46-57 89-1 25 12 40 35 40 44 0 51-50 51-92" id="ay"/><path fill="#fff" d="M166-52c-4 17 5 29 24 23l-3 27c-30 11-74 1-67-34C105-15 91 4 56 4 23 4 3-15 2-49c0-64 63-67 128-67 10-22 3-53-29-45-13 3-22 10-25 24l-46-5c5-64 156-77 153 0-1 33-11 60-17 90zM97-88c-44-9-64 57-19 57 31 0 42-28 47-57H97" id="az"/><path fill="#fff" d="M50-224l7-37h49l-7 37H50zM6 0l37-190h49L55 0H6" id="aA"/><path fill="#fff" d="M67-101c-8 29-7 73 27 71 23-2 32-16 39-37l48 9C170-19 141 4 91 4 36 4 7-28 12-86c6-75 61-124 140-103 26 7 40 29 43 59l-50 4c-1-20-9-34-29-34-35 0-41 29-49 59" id="aB"/><path fill="#fff" d="M15-80c0-86 24-171 112-171 50 0 70 31 70 82C197-84 171 4 84 4 34 4 15-29 15-80zm134-92c6-42-44-55-60-23C72-160 55-94 68-46c4 6 9 12 19 11 56-6 53-82 62-137" id="aC"/><g id="f"><use transform="matrix(0.05,0,0,0.05,0,0)" xlink:href="#as"/><use transform="matrix(0.05,0,0,0.05,10.950000000000001,0)" xlink:href="#at"/><use transform="matrix(0.05,0,0,0.05,20.950000000000003,0)" xlink:href="#au"/><use transform="matrix(0.05,0,0,0.05,34.95,0)" xlink:href="#av"/><use transform="matrix(0.05,0,0,0.05,44.95,0)" xlink:href="#aw"/><use transform="matrix(0.05,0,0,0.05,54.95,0)" xlink:href="#ax"/><use transform="matrix(0.05,0,0,0.05,64.95,0)" xlink:href="#aw"/><use transform="matrix(0.05,0,0,0.05,74.95,0)" xlink:href="#ay"/><use transform="matrix(0.05,0,0,0.05,85.9,0)" xlink:href="#az"/><use transform="matrix(0.05,0,0,0.05,95.9,0)" xlink:href="#av"/><use transform="matrix(0.05,0,0,0.05,105.9,0)" xlink:href="#aA"/><use transform="matrix(0.05,0,0,0.05,110.9,0)" xlink:href="#aB"/><use transform="matrix(0.05,0,0,0.05,120.9,0)" xlink:href="#aw"/><use transform="matrix(0.05,0,0,0.05,130.9,0)" xlink:href="#aC"/></g><path fill="#fff" d="M210-169c-67 3-38 105-44 169h-31v-121c0-29-5-50-35-48C34-165 62-65 56 0H25l-1-190h30c1 10-1 24 2 32 10-44 99-50 107 0 11-21 27-35 58-36 85-2 47 119 55 194h-31v-121c0-29-5-49-35-48" id="aD"/><path fill="#fff" d="M100-194c62-1 85 37 85 99 1 63-27 99-86 99S16-35 15-95c0-66 28-99 85-99zM99-20c44 1 53-31 53-75 0-43-8-75-51-75s-53 32-53 75 10 74 51 75" id="aE"/><path fill="#fff" d="M85-194c31 0 48 13 60 33l-1-100h32l1 261h-30c-2-10 0-23-3-31C134-8 116 4 85 4 32 4 16-35 15-94c0-66 23-100 70-100zm9 24c-40 0-46 34-46 75 0 40 6 74 45 74 42 0 51-32 51-76 0-42-9-74-50-73" id="aF"/><path fill="#fff" d="M100-194c63 0 86 42 84 106H49c0 40 14 67 53 68 26 1 43-12 49-29l28 8c-11 28-37 45-77 45C44 4 14-33 15-96c1-61 26-98 85-98zm52 81c6-60-76-77-97-28-3 7-6 17-6 28h103" id="aG"/><path fill="#fff" d="M24 0v-261h32V0H24" id="aH"/><path fill="#fff" d="M33-154v-36h34v36H33zM33 0v-36h34V0H33" id="aI"/><g id="h"><use transform="matrix(0.05,0,0,0.05,0,0)" xlink:href="#aD"/><use transform="matrix(0.05,0,0,0.05,14.950000000000001,0)" xlink:href="#aE"/><use transform="matrix(0.05,0,0,0.05,24.950000000000003,0)" xlink:href="#aF"/><use transform="matrix(0.05,0,0,0.05,34.95,0)" xlink:href="#aG"/><use transform="matrix(0.05,0,0,0.05,44.95,0)" xlink:href="#aH"/><use transform="matrix(0.05,0,0,0.05,48.900000000000006,0)" xlink:href="#aI"/></g><path fill="#fff" d="M115-194c53 0 69 39 70 98 0 66-23 100-70 100C84 3 66-7 56-30L54 0H23l1-261h32v101c10-23 28-34 59-34zm-8 174c40 0 45-34 45-75 0-40-5-75-45-74-42 0-51 32-51 76 0 43 10 73 51 73" id="aJ"/><path fill="#fff" d="M141-36C126-15 110 5 73 4 37 3 15-17 15-53c-1-64 63-63 125-63 3-35-9-54-41-54-24 1-41 7-42 31l-33-3c5-37 33-52 76-52 45 0 72 20 72 64v82c-1 20 7 32 28 27v20c-31 9-61-2-59-35zM48-53c0 20 12 33 32 33 41-3 63-29 60-74-43 2-92-5-92 41" id="aK"/><path fill="#fff" d="M135-143c-3-34-86-38-87 0 15 53 115 12 119 90S17 21 10-45l28-5c4 36 97 45 98 0-10-56-113-15-118-90-4-57 82-63 122-42 12 7 21 19 24 35" id="aL"/><path fill="#fff" d="M24-231v-30h32v30H24zM24 0v-190h32V0H24" id="aM"/><path fill="#fff" d="M96-169c-40 0-48 33-48 73s9 75 48 75c24 0 41-14 43-38l32 2c-6 37-31 61-74 61-59 0-76-41-82-99-10-93 101-131 147-64 4 7 5 14 7 22l-32 3c-4-21-16-35-41-35" id="aN"/><g id="i"><use transform="matrix(0.05,0,0,0.05,0,0)" xlink:href="#aJ"/><use transform="matrix(0.05,0,0,0.05,10,0)" xlink:href="#aK"/><use transform="matrix(0.05,0,0,0.05,20,0)" xlink:href="#aL"/><use transform="matrix(0.05,0,0,0.05,29,0)" xlink:href="#aM"/><use transform="matrix(0.05,0,0,0.05,32.95,0)" xlink:href="#aN"/></g><path fill="#fff" d="M108 0H70L1-190h34L89-25l56-165h34" id="aO"/><path fill="#fff" d="M114-163C36-179 61-72 57 0H25l-1-190h30c1 12-1 29 2 39 6-27 23-49 58-41v29" id="aP"/><path fill="#fff" d="M117-194c89-4 53 116 60 194h-32v-121c0-31-8-49-39-48C34-167 62-67 57 0H25l-1-190h30c1 10-1 24 2 32 11-22 29-35 61-36" id="aQ"/><g id="j"><use transform="matrix(0.05,0,0,0.05,0,0)" xlink:href="#aO"/><use transform="matrix(0.05,0,0,0.05,9,0)" xlink:href="#aG"/><use transform="matrix(0.05,0,0,0.05,19,0)" xlink:href="#aP"/><use transform="matrix(0.05,0,0,0.05,24.95,0)" xlink:href="#aL"/><use transform="matrix(0.05,0,0,0.05,33.95,0)" xlink:href="#aM"/><use transform="matrix(0.05,0,0,0.05,37.900000000000006,0)" xlink:href="#aE"/><use transform="matrix(0.05,0,0,0.05,47.900000000000006,0)" xlink:href="#aQ"/><use transform="matrix(0.05,0,0,0.05,57.900000000000006,0)" xlink:href="#aI"/></g><path fill="#fff" d="M54-142c48-35 137-8 131 61C196 18 31 33 14-55l32-4c7 23 22 37 52 37 35-1 51-22 54-58 4-55-73-65-99-34H22l8-134h141v27H59" id="aR"/><use transform="matrix(0.05,0,0,0.05,0,0)" xlink:href="#aR" id="l"/><path fill="#fff" d="M59-47c-2 24 18 29 38 22v24C64 9 27 4 27-40v-127H5v-23h24l9-43h21v43h35v23H59v120" id="aS"/><path fill="#fff" d="M-5 72V49h209v23H-5" id="aT"/><g id="m"><use transform="matrix(0.05,0,0,0.05,0,0)" xlink:href="#aH"/><use transform="matrix(0.05,0,0,0.05,3.95,0)" xlink:href="#aK"/><use transform="matrix(0.05,0,0,0.05,13.949999999999998,0)" xlink:href="#aS"/><use transform="matrix(0.05,0,0,0.05,18.95,0)" xlink:href="#aG"/><use transform="matrix(0.05,0,0,0.05,28.950000000000003,0)" xlink:href="#aL"/><use transform="matrix(0.05,0,0,0.05,37.95,0)" xlink:href="#aS"/><use transform="matrix(0.05,0,0,0.05,42.95,0)" xlink:href="#aT"/><use transform="matrix(0.05,0,0,0.05,52.95,0)" xlink:href="#aO"/><use transform="matrix(0.05,0,0,0.05,61.95,0)" xlink:href="#aG"/><use transform="matrix(0.05,0,0,0.05,71.95,0)" xlink:href="#aP"/><use transform="matrix(0.05,0,0,0.05,77.9,0)" xlink:href="#aI"/></g><g id="n"><use transform="matrix(0.05,0,0,0.05,0,0)" xlink:href="#aO"/><use transform="matrix(0.05,0,0,0.05,9,0)" xlink:href="#aG"/><use transform="matrix(0.05,0,0,0.05,19,0)" xlink:href="#aN"/><use transform="matrix(0.05,0,0,0.05,28,0)" xlink:href="#aS"/><use transform="matrix(0.05,0,0,0.05,33,0)" xlink:href="#aE"/><use transform="matrix(0.05,0,0,0.05,43,0)" xlink:href="#aP"/><use transform="matrix(0.05,0,0,0.05,48.95,0)" xlink:href="#aI"/></g><path fill="#fff" d="M26 75v-336h71v23H56V52h41v23H26" id="aU"/><path fill="#fff" d="M33 0v-38h34V0H33" id="aV"/><path fill="#fff" d="M3 75V52h41v-290H3v-23h71V75H3" id="aW"/><g id="o"><use transform="matrix(0.05,0,0,0.05,0,0)" xlink:href="#aU"/><use transform="matrix(0.05,0,0,0.05,5,0)" xlink:href="#aV"/><use transform="matrix(0.05,0,0,0.05,10,0)" xlink:href="#aV"/><use transform="matrix(0.05,0,0,0.05,15,0)" xlink:href="#aV"/><use transform="matrix(0.05,0,0,0.05,20,0)" xlink:href="#aW"/></g><path fill="#2e2f27" d="M117-194c89-4 53 116 60 194h-32v-121c0-31-8-49-39-48C34-167 62-67 57 0H25l-1-190h30c1 10-1 24 2 32 11-22 29-35 61-36" id="aX"/><path fill="#2e2f27" d="M100-194c63 0 86 42 84 106H49c0 40 14 67 53 68 26 1 43-12 49-29l28 8c-11 28-37 45-77 45C44 4 14-33 15-96c1-61 26-98 85-98zm52 81c6-60-76-77-97-28-3 7-6 17-6 28h103" id="aY"/><path fill="#2e2f27" d="M206 0h-36l-40-164L89 0H53L-1-190h32L70-26l43-164h34l41 164 42-164h31" id="aZ"/><path fill="#2e2f27" d="M135-143c-3-34-86-38-87 0 15 53 115 12 119 90S17 21 10-45l28-5c4 36 97 45 98 0-10-56-113-15-118-90-4-57 82-63 122-42 12 7 21 19 24 35" id="ba"/><path fill="#2e2f27" d="M-5 72V49h209v23H-5" id="bb"/><path fill="#2e2f27" d="M210-169c-67 3-38 105-44 169h-31v-121c0-29-5-50-35-48C34-165 62-65 56 0H25l-1-190h30c1 10-1 24 2 32 10-44 99-50 107 0 11-21 27-35 58-36 85-2 47 119 55 194h-31v-121c0-29-5-49-35-48" id="bc"/><path fill="#2e2f27" d="M100-194c62-1 85 37 85 99 1 63-27 99-86 99S16-35 15-95c0-66 28-99 85-99zM99-20c44 1 53-31 53-75 0-43-8-75-51-75s-53 32-53 75 10 74 51 75" id="bd"/><path fill="#2e2f27" d="M85-194c31 0 48 13 60 33l-1-100h32l1 261h-30c-2-10 0-23-3-31C134-8 116 4 85 4 32 4 16-35 15-94c0-66 23-100 70-100zm9 24c-40 0-46 34-46 75 0 40 6 74 45 74 42 0 51-32 51-76 0-42-9-74-50-73" id="be"/><path fill="#2e2f27" d="M24 0v-261h32V0H24" id="bf"/><g id="p"><use transform="matrix(0.049382716049382706,0,0,0.049382716049382706,0,0)" xlink:href="#aX"/><use transform="matrix(0.049382716049382706,0,0,0.049382716049382706,9.87654320987654,0)" xlink:href="#aY"/><use transform="matrix(0.049382716049382706,0,0,0.049382716049382706,19.75308641975308,0)" xlink:href="#aZ"/><use transform="matrix(0.049382716049382706,0,0,0.049382716049382706,32.5432098765432,0)" xlink:href="#ba"/><use transform="matrix(0.049382716049382706,0,0,0.049382716049382706,41.43209876543209,0)" xlink:href="#bb"/><use transform="matrix(0.049382716049382706,0,0,0.049382716049382706,51.30864197530863,0)" xlink:href="#bc"/><use transform="matrix(0.049382716049382706,0,0,0.049382716049382706,66.07407407407406,0)" xlink:href="#bd"/><use transform="matrix(0.049382716049382706,0,0,0.049382716049382706,75.9506172839506,0)" xlink:href="#be"/><use transform="matrix(0.049382716049382706,0,0,0.049382716049382706,85.82716049382715,0)" xlink:href="#aY"/><use transform="matrix(0.049382716049382706,0,0,0.049382716049382706,95.7037037037037,0)" xlink:href="#bf"/></g><path fill="#fff" d="M6 0l51-261h49L55 0H6" id="bg"/><path fill="#fff" d="M72-63c-8 23 5 39 32 30L98-1C54 14 12-6 23-64l18-93H15l7-33h28l24-45h31l-8 45h35l-6 33H90" id="bh"/><g id="q"><use transform="matrix(0.05,0,0,0.05,0,0)" xlink:href="#as"/><use transform="matrix(0.05,0,0,0.05,10.950000000000001,0)" xlink:href="#at"/><use transform="matrix(0.05,0,0,0.05,20.950000000000003,0)" xlink:href="#au"/><use transform="matrix(0.05,0,0,0.05,34.95,0)" xlink:href="#av"/><use transform="matrix(0.05,0,0,0.05,44.95,0)" xlink:href="#aw"/><use transform="matrix(0.05,0,0,0.05,54.95,0)" xlink:href="#ax"/><use transform="matrix(0.05,0,0,0.05,64.95,0)" xlink:href="#aw"/><use transform="matrix(0.05,0,0,0.05,74.95,0)" xlink:href="#bg"/><use transform="matrix(0.05,0,0,0.05,79.95,0)" xlink:href="#az"/><use transform="matrix(0.05,0,0,0.05,89.95,0)" xlink:href="#bh"/><use transform="matrix(0.05,0,0,0.05,95.9,0)" xlink:href="#at"/><use transform="matrix(0.05,0,0,0.05,105.9,0)" xlink:href="#av"/><use transform="matrix(0.05,0,0,0.05,115.9,0)" xlink:href="#bh"/><use transform="matrix(0.05,0,0,0.05,121.85000000000001,0)" xlink:href="#aw"/><use transform="matrix(0.05,0,0,0.05,131.85000000000002,0)" xlink:href="#aC"/></g><g id="r"><use transform="matrix(0.05,0,0,0.05,0,0)" xlink:href="#aH"/><use transform="matrix(0.05,0,0,0.05,3.95,0)" xlink:href="#aK"/><use transform="matrix(0.05,0,0,0.05,13.949999999999998,0)" xlink:href="#aS"/><use transform="matrix(0.05,0,0,0.05,18.95,0)" xlink:href="#aG"/><use transform="matrix(0.05,0,0,0.05,28.950000000000003,0)" xlink:href="#aL"/><use transform="matrix(0.05,0,0,0.05,37.95,0)" xlink:href="#aS"/></g><path fill="#fff" d="M93-157L62 0H13l31-157H16l6-33h28c2-54 40-81 100-68l-6 32c-29-8-44 9-45 36h38l-7 33H93" id="bi"/><path fill="#fff" d="M69 3c-96 0-34-126-28-193h49L65-57c6 42 62 18 71-6 14-38 17-86 28-127h50L178 0h-47c0-11 4-26 3-33-14 20-30 37-65 36" id="bj"/><g id="s"><use transform="matrix(0.05,0,0,0.05,0,0)" xlink:href="#as"/><use transform="matrix(0.05,0,0,0.05,10.950000000000001,0)" xlink:href="#at"/><use transform="matrix(0.05,0,0,0.05,20.950000000000003,0)" xlink:href="#au"/><use transform="matrix(0.05,0,0,0.05,34.95,0)" xlink:href="#av"/><use transform="matrix(0.05,0,0,0.05,44.95,0)" xlink:href="#aw"/><use transform="matrix(0.05,0,0,0.05,54.95,0)" xlink:href="#ax"/><use transform="matrix(0.05,0,0,0.05,64.95,0)" xlink:href="#aw"/><use transform="matrix(0.05,0,0,0.05,74.95,0)" xlink:href="#bi"/><use transform="matrix(0.05,0,0,0.05,80.9,0)" xlink:href="#bj"/><use transform="matrix(0.05,0,0,0.05,91.85000000000001,0)" xlink:href="#bg"/><use transform="matrix(0.05,0,0,0.05,96.85000000000001,0)" xlink:href="#bg"/><use transform="matrix(0.05,0,0,0.05,101.85000000000001,0)" xlink:href="#aw"/><use transform="matrix(0.05,0,0,0.05,111.85000000000001,0)" xlink:href="#aC"/></g><g id="t"><use transform="matrix(0.05,0,0,0.05,0,0)" xlink:href="#aD"/><use transform="matrix(0.05,0,0,0.05,14.950000000000001,0)" xlink:href="#aE"/><use transform="matrix(0.05,0,0,0.05,24.950000000000003,0)" xlink:href="#aF"/><use transform="matrix(0.05,0,0,0.05,34.95,0)" xlink:href="#aG"/><use transform="matrix(0.05,0,0,0.05,44.95,0)" xlink:href="#aH"/><use transform="matrix(0.05,0,0,0.05,48.900000000000006,0)" xlink:href="#aI"/></g><path fill="#fff" d="M101-234c-31-9-42 10-38 44h38v23H63V0H32v-167H5v-23h27c-7-52 17-82 69-68v24" id="bk"/><path fill="#fff" d="M84 4C-5 8 30-112 23-190h32v120c0 31 7 50 39 49 72-2 45-101 50-169h31l1 190h-30c-1-10 1-25-2-33-11 22-28 36-60 37" id="bl"/><g id="u"><use transform="matrix(0.05,0,0,0.05,0,0)" xlink:href="#bk"/><use transform="matrix(0.05,0,0,0.05,5,0)" xlink:href="#bl"/><use transform="matrix(0.05,0,0,0.05,15,0)" xlink:href="#aH"/><use transform="matrix(0.05,0,0,0.05,18.95,0)" xlink:href="#aH"/></g><g id="v"><use transform="matrix(0.05,0,0,0.05,0,0)" xlink:href="#as"/><use transform="matrix(0.05,0,0,0.05,10.950000000000001,0)" xlink:href="#at"/><use transform="matrix(0.05,0,0,0.05,20.950000000000003,0)" xlink:href="#au"/><use transform="matrix(0.05,0,0,0.05,34.95,0)" xlink:href="#av"/><use transform="matrix(0.05,0,0,0.05,44.95,0)" xlink:href="#aw"/><use transform="matrix(0.05,0,0,0.05,54.95,0)" xlink:href="#ax"/><use transform="matrix(0.05,0,0,0.05,64.95,0)" xlink:href="#aw"/><use transform="matrix(0.05,0,0,0.05,74.95,0)" xlink:href="#ay"/><use transform="matrix(0.05,0,0,0.05,85.9,0)" xlink:href="#az"/><use transform="matrix(0.05,0,0,0.05,95.9,0)" xlink:href="#av"/><use transform="matrix(0.05,0,0,0.05,105.9,0)" xlink:href="#aA"/><use transform="matrix(0.05,0,0,0.05,110.9,0)" xlink:href="#aB"/><use transform="matrix(0.05,0,0,0.05,120.9,0)" xlink:href="#aw"/><use transform="matrix(0.05,0,0,0.05,130.9,0)" xlink:href="#ax"/></g><path fill="#fff" d="M155-56V0h-30v-56H8v-25l114-167h33v167h35v25h-35zm-30-156c-27 46-58 90-88 131h88v-131" id="bm"/><use transform="matrix(0.05,0,0,0.05,0,0)" xlink:href="#bm" id="w"/><g id="x"><use transform="matrix(0.05,0,0,0.05,0,0)" xlink:href="#as"/><use transform="matrix(0.05,0,0,0.05,10.950000000000001,0)" xlink:href="#at"/><use transform="matrix(0.05,0,0,0.05,20.950000000000003,0)" xlink:href="#au"/><use transform="matrix(0.05,0,0,0.05,34.95,0)" xlink:href="#av"/><use transform="matrix(0.05,0,0,0.05,44.95,0)" xlink:href="#aw"/><use transform="matrix(0.05,0,0,0.05,54.95,0)" xlink:href="#ax"/><use transform="matrix(0.05,0,0,0.05,64.95,0)" xlink:href="#aw"/><use transform="matrix(0.05,0,0,0.05,74.95,0)" xlink:href="#bg"/><use transform="matrix(0.05,0,0,0.05,79.95,0)" xlink:href="#az"/><use transform="matrix(0.05,0,0,0.05,89.95,0)" xlink:href="#bh"/><use transform="matrix(0.05,0,0,0.05,95.9,0)" xlink:href="#at"/><use transform="matrix(0.05,0,0,0.05,105.9,0)" xlink:href="#av"/><use transform="matrix(0.05,0,0,0.05,115.9,0)" xlink:href="#bh"/><use transform="matrix(0.05,0,0,0.05,121.85000000000001,0)" xlink:href="#aw"/><use transform="matrix(0.05,0,0,0.05,131.85000000000002,0)" xlink:href="#ax"/></g><g id="y"><use transform="matrix(0.05,0,0,0.05,0,0)" xlink:href="#as"/><use transform="matrix(0.05,0,0,0.05,10.950000000000001,0)" xlink:href="#at"/><use transform="matrix(0.05,0,0,0.05,20.950000000000003,0)" xlink:href="#au"/><use transform="matrix(0.05,0,0,0.05,34.95,0)" xlink:href="#av"/><use transform="matrix(0.05,0,0,0.05,44.95,0)" xlink:href="#aw"/><use transform="matrix(0.05,0,0,0.05,54.95,0)" xlink:href="#ax"/><use transform="matrix(0.05,0,0,0.05,64.95,0)" xlink:href="#aw"/><use transform="matrix(0.05,0,0,0.05,74.95,0)" xlink:href="#bi"/><use transform="matrix(0.05,0,0,0.05,80.9,0)" xlink:href="#bj"/><use transform="matrix(0.05,0,0,0.05,91.85000000000001,0)" xlink:href="#bg"/><use transform="matrix(0.05,0,0,0.05,96.85000000000001,0)" xlink:href="#bg"/><use transform="matrix(0.05,0,0,0.05,101.85000000000001,0)" xlink:href="#aw"/><use transform="matrix(0.05,0,0,0.05,111.85000000000001,0)" xlink:href="#ax"/></g><path fill="#fff" d="M124-194c51 0 84 22 84 74C207-44 167 4 94 4 43 4 11-23 11-74c0-74 41-120 113-120zM99-30c46 0 58-42 58-86 0-27-11-44-37-44-44 0-55 40-57 84-1 27 10 45 36 46" id="bn"/><path fill="#fff" d="M45-171c29-32 103-29 114 14 2-11 5-23 8-33h47L176-2c-3 70-92 96-155 64C9 56 1 42-1 25l50-5c2 28 48 27 63 11 13-13 20-45 21-66-13 20-30 35-62 36-87 3-60-134-26-172zM94-35c41-3 55-43 55-86 0-24-12-39-35-39-43 0-51 48-51 90 0 22 9 37 31 35" id="bo"/><g id="z"><use transform="matrix(0.05,0,0,0.05,0,0)" xlink:href="#aB"/><use transform="matrix(0.05,0,0,0.05,10,0)" xlink:href="#bn"/><use transform="matrix(0.05,0,0,0.05,20.950000000000003,0)" xlink:href="#as"/><use transform="matrix(0.05,0,0,0.05,31.900000000000006,0)" xlink:href="#bi"/><use transform="matrix(0.05,0,0,0.05,37.85000000000001,0)" xlink:href="#aA"/><use transform="matrix(0.05,0,0,0.05,42.85000000000001,0)" xlink:href="#bo"/><use transform="matrix(0.05,0,0,0.05,53.80000000000001,0)" xlink:href="#aw"/><use transform="matrix(0.05,0,0,0.05,63.80000000000001,0)" xlink:href="#ay"/><use transform="matrix(0.05,0,0,0.05,74.75000000000001,0)" xlink:href="#az"/><use transform="matrix(0.05,0,0,0.05,84.75000000000001,0)" xlink:href="#av"/><use transform="matrix(0.05,0,0,0.05,94.75000000000001,0)" xlink:href="#aA"/><use transform="matrix(0.05,0,0,0.05,99.75000000000001,0)" xlink:href="#aB"/></g><g id="A"><use transform="matrix(0.05,0,0,0.05,0,0)" xlink:href="#aL"/><use transform="matrix(0.05,0,0,0.05,9,0)" xlink:href="#aG"/><use transform="matrix(0.05,0,0,0.05,19,0)" xlink:href="#aS"/><use transform="matrix(0.05,0,0,0.05,24,0)" xlink:href="#aI"/></g><g id="C"><use transform="matrix(0.05,0,0,0.05,0,0)" xlink:href="#aV"/><use transform="matrix(0.05,0,0,0.05,5,0)" xlink:href="#aV"/><use transform="matrix(0.05,0,0,0.05,10,0)" xlink:href="#aV"/></g><path fill="#fff" d="M141 0L90-78 38 0H4l68-98-65-92h35l48 74 47-74h35l-64 92 68 98h-35" id="bp"/><g id="D"><use transform="matrix(0.05,0,0,0.05,0,0)" xlink:href="#aQ"/><use transform="matrix(0.05,0,0,0.05,10,0)" xlink:href="#aG"/><use transform="matrix(0.05,0,0,0.05,20,0)" xlink:href="#bp"/><use transform="matrix(0.05,0,0,0.05,29,0)" xlink:href="#aS"/><use transform="matrix(0.05,0,0,0.05,34,0)" xlink:href="#aT"/><use transform="matrix(0.05,0,0,0.05,44,0)" xlink:href="#aO"/><use transform="matrix(0.05,0,0,0.05,53,0)" xlink:href="#aG"/><use transform="matrix(0.05,0,0,0.05,63,0)" xlink:href="#aP"/><use transform="matrix(0.05,0,0,0.05,68.95,0)" xlink:href="#aI"/></g><g id="E"><use transform="matrix(0.05,0,0,0.05,0,0)" xlink:href="#aV"/><use transform="matrix(0.05,0,0,0.05,5,0)" xlink:href="#aV"/><use transform="matrix(0.05,0,0,0.05,10,0)" xlink:href="#aV"/></g><g id="F"><use transform="matrix(0.05,0,0,0.05,0,0)" xlink:href="#aB"/><use transform="matrix(0.05,0,0,0.05,10,0)" xlink:href="#bn"/><use transform="matrix(0.05,0,0,0.05,20.950000000000003,0)" xlink:href="#as"/><use transform="matrix(0.05,0,0,0.05,31.900000000000006,0)" xlink:href="#bi"/><use transform="matrix(0.05,0,0,0.05,37.85000000000001,0)" xlink:href="#aA"/><use transform="matrix(0.05,0,0,0.05,42.85000000000001,0)" xlink:href="#bo"/><use transform="matrix(0.05,0,0,0.05,53.80000000000001,0)" xlink:href="#aw"/><use transform="matrix(0.05,0,0,0.05,63.80000000000001,0)" xlink:href="#bg"/><use transform="matrix(0.05,0,0,0.05,68.80000000000001,0)" xlink:href="#az"/><use transform="matrix(0.05,0,0,0.05,78.80000000000001,0)" xlink:href="#bh"/><use transform="matrix(0.05,0,0,0.05,84.75000000000001,0)" xlink:href="#at"/><use transform="matrix(0.05,0,0,0.05,94.75000000000001,0)" xlink:href="#av"/><use transform="matrix(0.05,0,0,0.05,104.75,0)" xlink:href="#bh"/></g><path fill="#2e2f27" d="M96-169c-40 0-48 33-48 73s9 75 48 75c24 0 41-14 43-38l32 2c-6 37-31 61-74 61-59 0-76-41-82-99-10-93 101-131 147-64 4 7 5 14 7 22l-32 3c-4-21-16-35-41-35" id="bq"/><path fill="#2e2f27" d="M101-234c-31-9-42 10-38 44h38v23H63V0H32v-167H5v-23h27c-7-52 17-82 69-68v24" id="br"/><path fill="#2e2f27" d="M24-231v-30h32v30H24zM24 0v-190h32V0H24" id="bs"/><path fill="#2e2f27" d="M177-190C167-65 218 103 67 71c-23-6-38-20-44-43l32-5c15 47 100 32 89-28v-30C133-14 115 1 83 1 29 1 15-40 15-95c0-56 16-97 71-98 29-1 48 16 59 35 1-10 0-23 2-32h30zM94-22c36 0 50-32 50-73 0-42-14-75-50-75-39 0-46 34-46 75s6 73 46 73" id="bt"/><g id="G"><use transform="matrix(0.049382716049382706,0,0,0.049382716049382706,0,0)" xlink:href="#bq"/><use transform="matrix(0.049382716049382706,0,0,0.049382716049382706,8.888888888888888,0)" xlink:href="#bd"/><use transform="matrix(0.049382716049382706,0,0,0.049382716049382706,18.76543209876543,0)" xlink:href="#aX"/><use transform="matrix(0.049382716049382706,0,0,0.049382716049382706,28.64197530864197,0)" xlink:href="#br"/><use transform="matrix(0.049382716049382706,0,0,0.049382716049382706,33.58024691358024,0)" xlink:href="#bs"/><use transform="matrix(0.049382716049382706,0,0,0.049382716049382706,37.481481481481474,0)" xlink:href="#bt"/></g><g id="H"><use transform="matrix(0.05,0,0,0.05,0,0)" xlink:href="#aB"/><use transform="matrix(0.05,0,0,0.05,10,0)" xlink:href="#bn"/><use transform="matrix(0.05,0,0,0.05,20.950000000000003,0)" xlink:href="#as"/><use transform="matrix(0.05,0,0,0.05,31.900000000000006,0)" xlink:href="#bi"/><use transform="matrix(0.05,0,0,0.05,37.85000000000001,0)" xlink:href="#aA"/><use transform="matrix(0.05,0,0,0.05,42.85000000000001,0)" xlink:href="#bo"/><use transform="matrix(0.05,0,0,0.05,53.80000000000001,0)" xlink:href="#aw"/><use transform="matrix(0.05,0,0,0.05,63.80000000000001,0)" xlink:href="#bi"/><use transform="matrix(0.05,0,0,0.05,69.75000000000001,0)" xlink:href="#bj"/><use transform="matrix(0.05,0,0,0.05,80.70000000000002,0)" xlink:href="#bg"/><use transform="matrix(0.05,0,0,0.05,85.70000000000002,0)" xlink:href="#bg"/></g><path fill="#2e2f27" d="M151-194c95 0 34 128 28 194h-49l25-134c0-29-45-25-59-9C67-111 69-48 56 0H6l36-190h47l-4 32c15-20 33-36 66-36" id="bu"/><path fill="#2e2f27" d="M114-194c63-2 87 48 72 110H63c-3 28 1 55 31 54 21-1 32-13 37-29l44 13C160-14 137 4 91 4 41 4 11-22 11-73c0-71 33-119 103-121zm30 77c14-47-50-61-67-22-3 6-6 13-8 22h75" id="bv"/><path fill="#2e2f27" d="M212 0h-52l-8-156L82 0H30L17-190h46l2 145 66-145h53l8 145 60-145h47" id="bw"/><path fill="#2e2f27" d="M144-137c-1-29-70-35-71-2 16 41 103 10 103 80C176 9 79 16 32-9 18-17 9-31 4-48l44-6c3 32 80 36 82 1-15-42-103-11-103-82 0-77 157-79 161-8" id="bx"/><path fill="#2e2f27" d="M-21 44V30h207v14H-21" id="by"/><path fill="#2e2f27" d="M6 0l7-41h62l31-161-67 37 8-42 70-41h48L124-41h57l-8 41H6" id="bz"/><g id="I"><use transform="matrix(0.05,0,0,0.05,0,0)" xlink:href="#bu"/><use transform="matrix(0.05,0,0,0.05,10.950000000000001,0)" xlink:href="#bv"/><use transform="matrix(0.05,0,0,0.05,20.950000000000003,0)" xlink:href="#bw"/><use transform="matrix(0.05,0,0,0.05,34.95,0)" xlink:href="#bx"/><use transform="matrix(0.05,0,0,0.05,44.95,0)" xlink:href="#by"/><use transform="matrix(0.05,0,0,0.05,54.95,0)" xlink:href="#bz"/></g><path fill="#2e2f27" d="M141-36C126-15 110 5 73 4 37 3 15-17 15-53c-1-64 63-63 125-63 3-35-9-54-41-54-24 1-41 7-42 31l-33-3c5-37 33-52 76-52 45 0 72 20 72 64v82c-1 20 7 32 28 27v20c-31 9-61-2-59-35zM48-53c0 20 12 33 32 33 41-3 63-29 60-74-43 2-92-5-92 41" id="bA"/><path fill="#2e2f27" d="M84 4C-5 8 30-112 23-190h32v120c0 31 7 50 39 49 72-2 45-101 50-169h31l1 190h-30c-1-10 1-25-2-33-11 22-28 36-60 37" id="bB"/><path fill="#2e2f27" d="M59-47c-2 24 18 29 38 22v24C64 9 27 4 27-40v-127H5v-23h24l9-43h21v43h35v23H59v120" id="bC"/><path fill="#2e2f27" d="M106-169C34-169 62-67 57 0H25v-261h32l-1 103c12-21 28-36 61-36 89 0 53 116 60 194h-32v-121c2-32-8-49-39-48" id="bD"/><path fill="#2e2f27" d="M114-163C36-179 61-72 57 0H25l-1-190h30c1 12-1 29 2 39 6-27 23-49 58-41v29" id="bE"/><path fill="#2e2f27" d="M33-154v-36h34v36H33zM33 0v-36h34V0H33" id="bF"/><g id="K"><use transform="matrix(0.05,0,0,0.05,0,0)" xlink:href="#bA"/><use transform="matrix(0.05,0,0,0.05,10,0)" xlink:href="#bB"/><use transform="matrix(0.05,0,0,0.05,20,0)" xlink:href="#bC"/><use transform="matrix(0.05,0,0,0.05,25,0)" xlink:href="#bD"/><use transform="matrix(0.05,0,0,0.05,35,0)" xlink:href="#bd"/><use transform="matrix(0.05,0,0,0.05,45,0)" xlink:href="#bE"/><use transform="matrix(0.05,0,0,0.05,50.95,0)" xlink:href="#bF"/></g><path fill="#2e2f27" d="M33 0v-38h34V0H33" id="bG"/><g id="L"><use transform="matrix(0.05,0,0,0.05,0,0)" xlink:href="#bG"/><use transform="matrix(0.05,0,0,0.05,5,0)" xlink:href="#bG"/><use transform="matrix(0.05,0,0,0.05,10,0)" xlink:href="#bG"/></g><g id="M"><use transform="matrix(0.05,0,0,0.05,0,0)" xlink:href="#bC"/><use transform="matrix(0.05,0,0,0.05,5,0)" xlink:href="#bs"/><use transform="matrix(0.05,0,0,0.05,8.95,0)" xlink:href="#bC"/><use transform="matrix(0.05,0,0,0.05,13.949999999999998,0)" xlink:href="#bf"/><use transform="matrix(0.05,0,0,0.05,17.9,0)" xlink:href="#aY"/><use transform="matrix(0.05,0,0,0.05,27.899999999999995,0)" xlink:href="#bF"/></g><g id="O"><use transform="matrix(0.05,0,0,0.05,0,0)" xlink:href="#be"/><use transform="matrix(0.05,0,0,0.05,10,0)" xlink:href="#bA"/><use transform="matrix(0.05,0,0,0.05,20,0)" xlink:href="#bC"/><use transform="matrix(0.05,0,0,0.05,25,0)" xlink:href="#aY"/><use transform="matrix(0.05,0,0,0.05,35,0)" xlink:href="#bF"/></g><path fill="#2e2f27" d="M108 0H70L1-190h34L89-25l56-165h34" id="bH"/><g id="P"><use transform="matrix(0.05,0,0,0.05,0,0)" xlink:href="#bH"/><use transform="matrix(0.05,0,0,0.05,9,0)" xlink:href="#aY"/><use transform="matrix(0.05,0,0,0.05,19,0)" xlink:href="#bE"/><use transform="matrix(0.05,0,0,0.05,24.95,0)" xlink:href="#ba"/><use transform="matrix(0.05,0,0,0.05,33.95,0)" xlink:href="#bs"/><use transform="matrix(0.05,0,0,0.05,37.900000000000006,0)" xlink:href="#bd"/><use transform="matrix(0.05,0,0,0.05,47.900000000000006,0)" xlink:href="#aX"/><use transform="matrix(0.05,0,0,0.05,57.900000000000006,0)" xlink:href="#bF"/></g><g id="Q"><use transform="matrix(0.05,0,0,0.05,0,0)" xlink:href="#bf"/><use transform="matrix(0.05,0,0,0.05,3.95,0)" xlink:href="#bA"/><use transform="matrix(0.05,0,0,0.05,13.949999999999998,0)" xlink:href="#bC"/><use transform="matrix(0.05,0,0,0.05,18.95,0)" xlink:href="#aY"/><use transform="matrix(0.05,0,0,0.05,28.950000000000003,0)" xlink:href="#ba"/><use transform="matrix(0.05,0,0,0.05,37.95,0)" xlink:href="#bC"/><use transform="matrix(0.05,0,0,0.05,42.95,0)" xlink:href="#bb"/><use transform="matrix(0.05,0,0,0.05,52.95,0)" xlink:href="#bH"/><use transform="matrix(0.05,0,0,0.05,61.95,0)" xlink:href="#aY"/><use transform="matrix(0.05,0,0,0.05,71.95,0)" xlink:href="#bE"/><use transform="matrix(0.05,0,0,0.05,77.9,0)" xlink:href="#bF"/></g><g id="R"><use transform="matrix(0.05,0,0,0.05,0,0)" xlink:href="#bG"/><use transform="matrix(0.05,0,0,0.05,5,0)" xlink:href="#bG"/><use transform="matrix(0.05,0,0,0.05,10,0)" xlink:href="#bG"/></g><g id="S"><use transform="matrix(0.049382716049382706,0,0,0.049382716049382706,0,0)" xlink:href="#aX"/><use transform="matrix(0.049382716049382706,0,0,0.049382716049382706,9.87654320987654,0)" xlink:href="#aY"/><use transform="matrix(0.049382716049382706,0,0,0.049382716049382706,19.75308641975308,0)" xlink:href="#aZ"/><use transform="matrix(0.049382716049382706,0,0,0.049382716049382706,32.5432098765432,0)" xlink:href="#ba"/></g><path fill="#2e2f27" d="M67-101c-8 29-7 73 27 71 23-2 32-16 39-37l48 9C170-19 141 4 91 4 36 4 7-28 12-86c6-75 61-124 140-103 26 7 40 29 43 59l-50 4c-1-20-9-34-29-34-35 0-41 29-49 59" id="bI"/><path fill="#2e2f27" d="M124-194c51 0 84 22 84 74C207-44 167 4 94 4 43 4 11-23 11-74c0-74 41-120 113-120zM99-30c46 0 58-42 58-86 0-27-11-44-37-44-44 0-55 40-57 84-1 27 10 45 36 46" id="bJ"/><path fill="#2e2f27" d="M93-157L62 0H13l31-157H16l6-33h28c2-54 40-81 100-68l-6 32c-29-8-44 9-45 36h38l-7 33H93" id="bK"/><path fill="#2e2f27" d="M50-224l7-37h49l-7 37H50zM6 0l37-190h49L55 0H6" id="bL"/><path fill="#2e2f27" d="M45-171c29-32 103-29 114 14 2-11 5-23 8-33h47L176-2c-3 70-92 96-155 64C9 56 1 42-1 25l50-5c2 28 48 27 63 11 13-13 20-45 21-66-13 20-30 35-62 36-87 3-60-134-26-172zM94-35c41-3 55-43 55-86 0-24-12-39-35-39-43 0-51 48-51 90 0 22 9 37 31 35" id="bM"/><g id="T"><use transform="matrix(0.05,0,0,0.05,0,0)" xlink:href="#bI"/><use transform="matrix(0.05,0,0,0.05,10,0)" xlink:href="#bJ"/><use transform="matrix(0.05,0,0,0.05,20.950000000000003,0)" xlink:href="#bu"/><use transform="matrix(0.05,0,0,0.05,31.900000000000006,0)" xlink:href="#bK"/><use transform="matrix(0.05,0,0,0.05,37.85000000000001,0)" xlink:href="#bL"/><use transform="matrix(0.05,0,0,0.05,42.85000000000001,0)" xlink:href="#bM"/><use transform="matrix(0.05,0,0,0.05,53.80000000000001,0)" xlink:href="#by"/><use transform="matrix(0.05,0,0,0.05,63.80000000000001,0)" xlink:href="#bu"/><use transform="matrix(0.05,0,0,0.05,74.75000000000001,0)" xlink:href="#bv"/><use transform="matrix(0.05,0,0,0.05,84.75000000000001,0)" xlink:href="#bw"/><use transform="matrix(0.05,0,0,0.05,98.75000000000001,0)" xlink:href="#bx"/></g><g id="U"><use transform="matrix(0.05,0,0,0.05,0,0)" xlink:href="#ba"/><use transform="matrix(0.05,0,0,0.05,9,0)" xlink:href="#aY"/><use transform="matrix(0.05,0,0,0.05,19,0)" xlink:href="#bC"/><use transform="matrix(0.05,0,0,0.05,24,0)" xlink:href="#bF"/></g><g id="W"><use transform="matrix(0.05,0,0,0.05,0,0)" xlink:href="#bG"/><use transform="matrix(0.05,0,0,0.05,5,0)" xlink:href="#bG"/><use transform="matrix(0.05,0,0,0.05,10,0)" xlink:href="#bG"/></g><path fill="#2e2f27" d="M141 0L90-78 38 0H4l68-98-65-92h35l48 74 47-74h35l-64 92 68 98h-35" id="bN"/><g id="X"><use transform="matrix(0.05,0,0,0.05,0,0)" xlink:href="#aX"/><use transform="matrix(0.05,0,0,0.05,10,0)" xlink:href="#aY"/><use transform="matrix(0.05,0,0,0.05,20,0)" xlink:href="#bN"/><use transform="matrix(0.05,0,0,0.05,29,0)" xlink:href="#bC"/><use transform="matrix(0.05,0,0,0.05,34,0)" xlink:href="#bb"/><use transform="matrix(0.05,0,0,0.05,44,0)" xlink:href="#bH"/><use transform="matrix(0.05,0,0,0.05,53,0)" xlink:href="#aY"/><use transform="matrix(0.05,0,0,0.05,63,0)" xlink:href="#bE"/><use transform="matrix(0.05,0,0,0.05,68.95,0)" xlink:href="#bF"/></g><path fill="#fff" d="M84-151c13-25 34-51 72-40l-8 41C67-170 71-64 56 0H6l36-190h47" id="bO"/><path fill="#fff" d="M33-248h181l-7 40C159-145 100-94 83 0H31c18-93 73-148 126-207H25" id="bP"/><g id="Y"><use transform="matrix(0.05,0,0,0.05,0,0)" xlink:href="#bj"/><use transform="matrix(0.05,0,0,0.05,10.950000000000001,0)" xlink:href="#av"/><use transform="matrix(0.05,0,0,0.05,20.950000000000003,0)" xlink:href="#at"/><use transform="matrix(0.05,0,0,0.05,30.950000000000003,0)" xlink:href="#bO"/><use transform="matrix(0.05,0,0,0.05,37.95,0)" xlink:href="#aw"/><use transform="matrix(0.05,0,0,0.05,47.95,0)" xlink:href="#bP"/><use transform="matrix(0.05,0,0,0.05,57.95,0)" xlink:href="#aw"/><use transform="matrix(0.05,0,0,0.05,67.95,0)" xlink:href="#bg"/><use transform="matrix(0.05,0,0,0.05,72.95,0)" xlink:href="#az"/><use transform="matrix(0.05,0,0,0.05,82.95,0)" xlink:href="#bh"/><use transform="matrix(0.05,0,0,0.05,88.9,0)" xlink:href="#at"/><use transform="matrix(0.05,0,0,0.05,98.9,0)" xlink:href="#av"/><use transform="matrix(0.05,0,0,0.05,108.9,0)" xlink:href="#bh"/><use transform="matrix(0.05,0,0,0.05,114.85000000000001,0)" xlink:href="#aw"/><use transform="matrix(0.05,0,0,0.05,124.85000000000001,0)" xlink:href="#aC"/></g><g id="Z"><use transform="matrix(0.05,0,0,0.05,0,0)" xlink:href="#bj"/><use transform="matrix(0.05,0,0,0.05,10.950000000000001,0)" xlink:href="#av"/><use transform="matrix(0.05,0,0,0.05,20.950000000000003,0)" xlink:href="#at"/><use transform="matrix(0.05,0,0,0.05,30.950000000000003,0)" xlink:href="#bO"/><use transform="matrix(0.05,0,0,0.05,37.95,0)" xlink:href="#aw"/><use transform="matrix(0.05,0,0,0.05,47.95,0)" xlink:href="#bP"/><use transform="matrix(0.05,0,0,0.05,57.95,0)" xlink:href="#aw"/><use transform="matrix(0.05,0,0,0.05,67.95,0)" xlink:href="#ay"/><use transform="matrix(0.05,0,0,0.05,78.9,0)" xlink:href="#az"/><use transform="matrix(0.05,0,0,0.05,88.9,0)" xlink:href="#av"/><use transform="matrix(0.05,0,0,0.05,98.9,0)" xlink:href="#aA"/><use transform="matrix(0.05,0,0,0.05,103.9,0)" xlink:href="#aB"/><use transform="matrix(0.05,0,0,0.05,113.9,0)" xlink:href="#aw"/><use transform="matrix(0.05,0,0,0.05,123.9,0)" xlink:href="#ax"/></g><g id="aa"><use transform="matrix(0.05,0,0,0.05,0,0)" xlink:href="#bj"/><use transform="matrix(0.05,0,0,0.05,10.950000000000001,0)" xlink:href="#av"/><use transform="matrix(0.05,0,0,0.05,20.950000000000003,0)" xlink:href="#at"/><use transform="matrix(0.05,0,0,0.05,30.950000000000003,0)" xlink:href="#bO"/><use transform="matrix(0.05,0,0,0.05,37.95,0)" xlink:href="#aw"/><use transform="matrix(0.05,0,0,0.05,47.95,0)" xlink:href="#bP"/><use transform="matrix(0.05,0,0,0.05,57.95,0)" xlink:href="#aw"/><use transform="matrix(0.05,0,0,0.05,67.95,0)" xlink:href="#bi"/><use transform="matrix(0.05,0,0,0.05,73.9,0)" xlink:href="#bj"/><use transform="matrix(0.05,0,0,0.05,84.85000000000001,0)" xlink:href="#bg"/><use transform="matrix(0.05,0,0,0.05,89.85000000000001,0)" xlink:href="#bg"/><use transform="matrix(0.05,0,0,0.05,94.85000000000001,0)" xlink:href="#aw"/><use transform="matrix(0.05,0,0,0.05,104.85000000000001,0)" xlink:href="#aC"/></g><g id="ab"><use transform="matrix(0.05,0,0,0.05,0,0)" xlink:href="#bj"/><use transform="matrix(0.05,0,0,0.05,10.950000000000001,0)" xlink:href="#av"/><use transform="matrix(0.05,0,0,0.05,20.950000000000003,0)" xlink:href="#at"/><use transform="matrix(0.05,0,0,0.05,30.950000000000003,0)" xlink:href="#bO"/><use transform="matrix(0.05,0,0,0.05,37.95,0)" xlink:href="#aw"/><use transform="matrix(0.05,0,0,0.05,47.95,0)" xlink:href="#bP"/><use transform="matrix(0.05,0,0,0.05,57.95,0)" xlink:href="#aw"/><use transform="matrix(0.05,0,0,0.05,67.95,0)" xlink:href="#ay"/><use transform="matrix(0.05,0,0,0.05,78.9,0)" xlink:href="#az"/><use transform="matrix(0.05,0,0,0.05,88.9,0)" xlink:href="#av"/><use transform="matrix(0.05,0,0,0.05,98.9,0)" xlink:href="#aA"/><use transform="matrix(0.05,0,0,0.05,103.9,0)" xlink:href="#aB"/><use transform="matrix(0.05,0,0,0.05,113.9,0)" xlink:href="#aw"/><use transform="matrix(0.05,0,0,0.05,123.9,0)" xlink:href="#aC"/></g><g id="ac"><use transform="matrix(0.05,0,0,0.05,0,0)" xlink:href="#bj"/><use transform="matrix(0.05,0,0,0.05,10.950000000000001,0)" xlink:href="#av"/><use transform="matrix(0.05,0,0,0.05,20.950000000000003,0)" xlink:href="#at"/><use transform="matrix(0.05,0,0,0.05,30.950000000000003,0)" xlink:href="#bO"/><use transform="matrix(0.05,0,0,0.05,37.95,0)" xlink:href="#aw"/><use transform="matrix(0.05,0,0,0.05,47.95,0)" xlink:href="#bP"/><use transform="matrix(0.05,0,0,0.05,57.95,0)" xlink:href="#aw"/><use transform="matrix(0.05,0,0,0.05,67.95,0)" xlink:href="#bi"/><use transform="matrix(0.05,0,0,0.05,73.9,0)" xlink:href="#bj"/><use transform="matrix(0.05,0,0,0.05,84.85000000000001,0)" xlink:href="#bg"/><use transform="matrix(0.05,0,0,0.05,89.85000000000001,0)" xlink:href="#bg"/><use transform="matrix(0.05,0,0,0.05,94.85000000000001,0)" xlink:href="#aw"/><use transform="matrix(0.05,0,0,0.05,104.85000000000001,0)" xlink:href="#ax"/></g><g id="ad"><use transform="matrix(0.05,0,0,0.05,0,0)" xlink:href="#bj"/><use transform="matrix(0.05,0,0,0.05,10.950000000000001,0)" xlink:href="#av"/><use transform="matrix(0.05,0,0,0.05,20.950000000000003,0)" xlink:href="#at"/><use transform="matrix(0.05,0,0,0.05,30.950000000000003,0)" xlink:href="#bO"/><use transform="matrix(0.05,0,0,0.05,37.95,0)" xlink:href="#aw"/><use transform="matrix(0.05,0,0,0.05,47.95,0)" xlink:href="#bP"/><use transform="matrix(0.05,0,0,0.05,57.95,0)" xlink:href="#aw"/><use transform="matrix(0.05,0,0,0.05,67.95,0)" xlink:href="#bg"/><use transform="matrix(0.05,0,0,0.05,72.95,0)" xlink:href="#az"/><use transform="matrix(0.05,0,0,0.05,82.95,0)" xlink:href="#bh"/><use transform="matrix(0.05,0,0,0.05,88.9,0)" xlink:href="#at"/><use transform="matrix(0.05,0,0,0.05,98.9,0)" xlink:href="#av"/><use transform="matrix(0.05,0,0,0.05,108.9,0)" xlink:href="#bh"/><use transform="matrix(0.05,0,0,0.05,114.85000000000001,0)" xlink:href="#aw"/><use transform="matrix(0.05,0,0,0.05,124.85000000000001,0)" xlink:href="#ax"/></g></defs></g></svg>