<svg xmlns="http://www.w3.org/2000/svg" xmlns:xlink="http://www.w3.org/1999/xlink" xmlns:lucid="lucid" width="1303" height="963"><g transform="translate(-78.5 -178.5)" lucid:page-tab-id="0_0"><path d="M0 0h1870.87v1322.84H0z" fill="#fff"/><path d="M260 546a6 6 0 0 1 6-6h68a6 6 0 0 1 6 6v28a6 6 0 0 1-6 6h-68a6 6 0 0 1-6-6z" stroke="#2e2f27" stroke-width="3" fill="#fff" fill-opacity="0"/><use xlink:href="#a" transform="matrix(1,0,0,1,265,545) translate(10.550000000000065 18.149999999999963)"/><path d="M340 546a6 6 0 0 1 6-6h48a6 6 0 0 1 6 6v28a6 6 0 0 1-6 6h-48a6 6 0 0 1-6-6z" stroke="#2e2f27" stroke-width="3" fill="#fff" fill-opacity="0"/><use xlink:href="#b" transform="matrix(1,0,0,1,344.9999999999999,545) translate(4.575000000000056 18.149999999999963)"/><path d="M640 546a6 6 0 0 1 6-6h68a6 6 0 0 1 6 6v28a6 6 0 0 1-6 6h-68a6 6 0 0 1-6-6z" stroke="#2e2f27" stroke-width="3" fill="#fff" fill-opacity="0"/><use xlink:href="#c" transform="matrix(1,0,0,1,645,545) translate(7.075000000000074 18.149999999999963)"/><use xlink:href="#d" transform="matrix(1,0,0,1,645,545) translate(17.075000000000045 18.149999999999963)"/><use xlink:href="#e" transform="matrix(1,0,0,1,645,545) translate(48.97499999999996 18.149999999999963)"/><path d="M540 206a6 6 0 0 1 6-6h37.33a6 6 0 0 1 6 6v28a6 6 0 0 1-6 6H546a6 6 0 0 1-6-6z" stroke="#2e2f27" stroke-width="3" fill="#fff" fill-opacity="0"/><path d="M1040 206a6 6 0 0 1 6-6h113.33a6 6 0 0 1 6 6v28a6 6 0 0 1-6 6H1046a6 6 0 0 1-6-6z" stroke="#fff" stroke-width="3" fill="#e8b46e"/><use xlink:href="#f" transform="matrix(1,0,0,1,1052,212) translate(34.05 14.4)"/><path d="M1037.5 220H609.34" stroke="#7b7d68" stroke-width="2" fill="none"/><path d="M1038.5 221h-1.03v-2h1.03z" stroke="#7b7d68" stroke-width=".05" fill="#7b7d68"/><path d="M594.07 220l14.26-4.63v9.26z" stroke="#7b7d68" stroke-width="2" fill="#7b7d68"/><path d="M1040 606a6 6 0 0 1 6-6h113.33a6 6 0 0 1 6 6v28a6 6 0 0 1-6 6H1046a6 6 0 0 1-6-6z" stroke="#fff" stroke-width="3" fill="#93cee1"/><use xlink:href="#g" transform="matrix(1,0,0,1,1052,612) translate(31.5 14.4)"/><path d="M1040 646a6 6 0 0 1 6-6h113.33a6 6 0 0 1 6 6v28a6 6 0 0 1-6 6H1046a6 6 0 0 1-6-6z" stroke="#fff" stroke-width="3" fill="#93cee1"/><use xlink:href="#h" transform="matrix(1,0,0,1,1052,652) translate(23.025 14.4)"/><path d="M1040 726a6 6 0 0 1 6-6h113.33a6 6 0 0 1 6 6v28a6 6 0 0 1-6 6H1046a6 6 0 0 1-6-6z" stroke="#fff" stroke-width="3" fill="#93cee1"/><use xlink:href="#i" transform="matrix(1,0,0,1,1052,732) translate(23.5 14.4)"/><path d="M1040 766a6 6 0 0 1 6-6h113.33a6 6 0 0 1 6 6v28a6 6 0 0 1-6 6H1046a6 6 0 0 1-6-6z" stroke="#fff" stroke-width="3" fill="#93cee1"/><use xlink:href="#i" transform="matrix(1,0,0,1,1052,772) translate(23.5 14.4)"/><path d="M1040 806a6 6 0 0 1 6-6h113.33a6 6 0 0 1 6 6v28a6 6 0 0 1-6 6H1046a6 6 0 0 1-6-6z" stroke="#fff" stroke-width="3" fill="#93cee1"/><use xlink:href="#j" transform="matrix(1,0,0,1,1052,812) translate(37.525 14.4)"/><path d="M1102.66 242.5l-2.84 337.5" stroke="#7b7d68" stroke-width="2" fill="none"/><path d="M1103.66 242.53h-2v-1.03h2z" stroke="#7b7d68" stroke-width=".05" fill="#7b7d68"/><path d="M1099.7 595.26l-4.52-14.3 9.27.08z" stroke="#7b7d68" stroke-width="2" fill="#7b7d68"/><path d="M440 346a6 6 0 0 1 6-6h37.33a6 6 0 0 1 6 6v28a6 6 0 0 1-6 6H446a6 6 0 0 1-6-6zM620 346a6 6 0 0 1 6-6h37.33a6 6 0 0 1 6 6v28a6 6 0 0 1-6 6H626a6 6 0 0 1-6-6zM100 546a6 6 0 0 1 6-6h68a6 6 0 0 1 6 6v28a6 6 0 0 1-6 6h-68a6 6 0 0 1-6-6z" stroke="#2e2f27" stroke-width="3" fill="#fff" fill-opacity="0"/><use xlink:href="#k" transform="matrix(1,0,0,1,105,545) translate(7.550000000000072 18.149999999999963)"/><path d="M180 546a6 6 0 0 1 6-6h68a6 6 0 0 1 6 6v28a6 6 0 0 1-6 6h-68a6 6 0 0 1-6-6z" stroke="#2e2f27" stroke-width="3" fill="#fff" fill-opacity="0"/><use xlink:href="#l" transform="matrix(1,0,0,1,185,545) translate(4.500000000000082 18.149999999999963)"/><path d="M400 546a6 6 0 0 1 6-6h68a6 6 0 0 1 6 6v28a6 6 0 0 1-6 6h-68a6 6 0 0 1-6-6z" stroke="#2e2f27" stroke-width="3" fill="#fff" fill-opacity="0"/><use xlink:href="#m" transform="matrix(1,0,0,1,405.00000000000006,545) translate(8.050000000000072 18.149999999999963)"/><path d="M560 546a6 6 0 0 1 6-6h68a6 6 0 0 1 6 6v28a6 6 0 0 1-6 6h-68a6 6 0 0 1-6-6z" stroke="#2e2f27" stroke-width="3" fill="#fff" fill-opacity="0"/><use xlink:href="#n" transform="matrix(1,0,0,1,565,545) translate(5.000000000000078 18.149999999999963)"/><path d="M480 546a6 6 0 0 1 6-6h68a6 6 0 0 1 6 6v28a6 6 0 0 1-6 6h-68a6 6 0 0 1-6-6z" stroke="#2e2f27" stroke-width="3" fill="#fff" fill-opacity="0"/><use xlink:href="#o" transform="matrix(1,0,0,1,485,545) translate(2.0000000000000853 18.149999999999963)"/><path d="M850.67 546a6 6 0 0 1 6-6h68a6 6 0 0 1 6 6v28a6 6 0 0 1-6 6h-68a6 6 0 0 1-6-6z" stroke="#2e2f27" stroke-width="3" fill="#fff" fill-opacity="0"/><use xlink:href="#p" transform="matrix(1,0,0,1,855.6666666666667,545) translate(2.5000000000000853 18.149999999999963)"/><path d="M930.67 546a6 6 0 0 1 6-6h68a6 6 0 0 1 6 6v28a6 6 0 0 1-6 6h-68a6 6 0 0 1-6-6z" stroke="#2e2f27" stroke-width="3" fill="#fff" fill-opacity="0"/><use xlink:href="#q" transform="matrix(1,0,0,1,935.6666666666667,545) translate(5.050000000000079 18.149999999999963)"/><path d="M1040 846a6 6 0 0 1 6-6h113.33a6 6 0 0 1 6 6v28a6 6 0 0 1-6 6H1046a6 6 0 0 1-6-6z" stroke="#fff" stroke-width="3" fill="#93cee1"/><use xlink:href="#r" transform="matrix(1,0,0,1,1052,852) translate(16.525 14.4)"/><path d="M1040 886a6 6 0 0 1 6-6h113.33a6 6 0 0 1 6 6v28a6 6 0 0 1-6 6H1046a6 6 0 0 1-6-6z" stroke="#fff" stroke-width="3" fill="#93cee1"/><use xlink:href="#i" transform="matrix(1,0,0,1,1052,892) translate(23.5 14.4)"/><path d="M1040 926a6 6 0 0 1 6-6h113.33a6 6 0 0 1 6 6v28a6 6 0 0 1-6 6H1046a6 6 0 0 1-6-6z" stroke="#fff" stroke-width="3" fill="#93cee1"/><use xlink:href="#i" transform="matrix(1,0,0,1,1052,932) translate(23.5 14.4)"/><path d="M1040 966a6 6 0 0 1 6-6h113.33a6 6 0 0 1 6 6v28a6 6 0 0 1-6 6H1046a6 6 0 0 1-6-6z" stroke="#fff" stroke-width="3" fill="#93cee1"/><use xlink:href="#s" transform="matrix(1,0,0,1,1052,972) translate(36.5 14.4)"/><path d="M1040 1006a6 6 0 0 1 6-6h113.33a6 6 0 0 1 6 6v28a6 6 0 0 1-6 6H1046a6 6 0 0 1-6-6z" stroke="#fff" stroke-width="3" fill="#93cee1"/><use xlink:href="#r" transform="matrix(1,0,0,1,1052,1012) translate(16.525 14.4)"/><path d="M1040 1046a6 6 0 0 1 6-6h113.33a6 6 0 0 1 6 6v28a6 6 0 0 1-6 6H1046a6 6 0 0 1-6-6z" stroke="#fff" stroke-width="3" fill="#93cee1"/><use xlink:href="#r" transform="matrix(1,0,0,1,1052,1052) translate(16.525 14.4)"/><path d="M1040 1086a6 6 0 0 1 6-6h113.33a6 6 0 0 1 6 6v28a6 6 0 0 1-6 6H1046a6 6 0 0 1-6-6z" stroke="#fff" stroke-width="3" fill="#93cee1"/><use xlink:href="#r" transform="matrix(1,0,0,1,1052,1092) translate(16.525 14.4)"/><path d="M463.82 382.04L235.57 528.5" stroke="#7b7d68" stroke-width="2" fill="none"/><path d="M464.34 382.9l-.9-1.4h3.08z" stroke="#7b7d68" stroke-width=".05" fill="#7b7d68"/><path d="M222.72 536.75l9.5-11.6 5 7.8z" stroke="#7b7d68" stroke-width="2" fill="#7b7d68"/><path d="M463.96 382.2L323 525.33" stroke="#7b7d68" stroke-width="2" fill="none"/><path d="M464.66 382.93l-1.43-1.4.03-.03h2.8z" stroke="#7b7d68" stroke-width=".05" fill="#7b7d68"/><path d="M312.27 536.2l6.7-13.42 6.6 6.5z" stroke="#7b7d68" stroke-width="2" fill="#7b7d68"/><path d="M464.15 382.36l-84.6 140.3" stroke="#7b7d68" stroke-width="2" fill="none"/><path d="M465 382.9l-1.72-1.04.22-.36h2.33z" stroke="#7b7d68" stroke-width=".05" fill="#7b7d68"/><path d="M371.67 535.73l3.4-14.6 7.94 4.77z" stroke="#7b7d68" stroke-width="2" fill="#7b7d68"/><path d="M464.5 382.5L442.88 520.2" stroke="#7b7d68" stroke-width="2" fill="none"/><path d="M465.5 382.67l-1.98-.3.13-.87h2.03z" stroke="#7b7d68" stroke-width=".05" fill="#7b7d68"/><path d="M440.5 535.3l-2.36-14.8 9.16 1.43z" stroke="#7b7d68" stroke-width="2" fill="#7b7d68"/><path d="M465 382.44l50.35 138.67" stroke="#7b7d68" stroke-width="2" fill="none"/><path d="M465.96 382.12l-1.88.7-.48-1.32h2.13z" stroke="#7b7d68" stroke-width=".05" fill="#7b7d68"/><path d="M520.56 535.46l-9.22-11.83 8.7-3.16z" stroke="#7b7d68" stroke-width="2" fill="#7b7d68"/><path d="M644.4 382.46L605.05 520.7" stroke="#7b7d68" stroke-width="2" fill="none"/><path d="M645.35 382.76l-1.93-.55.2-.7h2.1z" stroke="#7b7d68" stroke-width=".05" fill="#7b7d68"/><path d="M600.9 535.4l-.57-15 8.92 2.53z" stroke="#7b7d68" stroke-width="2" fill="#7b7d68"/><path d="M645.5 382.04l229.57 146.5" stroke="#7b7d68" stroke-width="2" fill="none"/><path d="M645 382.9l-2.2-1.4h3.08z" stroke="#7b7d68" stroke-width=".05" fill="#7b7d68"/><path d="M887.94 536.76L873.42 533l5-7.82z" stroke="#7b7d68" stroke-width="2" fill="#7b7d68"/><path d="M565.47 242.1l390.26 285.48" stroke="#7b7d68" stroke-width="2" fill="none"/><path d="M564.9 242.9l-1.93-1.4h2.97z" stroke="#7b7d68" stroke-width=".05" fill="#7b7d68"/><path d="M968.05 536.6l-14.25-4.7 5.48-7.47z" stroke="#7b7d68" stroke-width="2" fill="#7b7d68"/><path d="M565.3 242.27l67.6 81.96" stroke="#7b7d68" stroke-width="2" fill="none"/><path d="M566.1 241.66l-1.55 1.27-1.18-1.43h2.6z" stroke="#7b7d68" stroke-width=".05" fill="#7b7d68"/><path d="M642.6 336l-12.64-8.05 7.15-5.9z" stroke="#7b7d68" stroke-width="2" fill="#7b7d68"/><path d="M563.95 242.2l-86 83.42" stroke="#7b7d68" stroke-width="2" fill="none"/><path d="M564.63 242.93l-1.4-1.43h2.87z" stroke="#7b7d68" stroke-width=".05" fill="#7b7d68"/><path d="M467 336.25l7-13.26 6.46 6.64z" stroke="#7b7d68" stroke-width="2" fill="#7b7d68"/><path d="M563.85 242.07L155.15 527.9" stroke="#7b7d68" stroke-width="2" fill="none"/><path d="M564.4 242.9l-1-1.4h3z" stroke="#7b7d68" stroke-width=".05" fill="#7b7d68"/><path d="M142.65 536.64l9.04-11.97 5.3 7.6z" stroke="#7b7d68" stroke-width="2" fill="#7b7d68"/><path d="M1037.63 1099.5l-881.6-508.75" stroke="#7b7d68" stroke-width="2" fill="none"/><path d="M1038.5 1098.85v2.3l-1.4-.8 1-1.73z" stroke="#7b7d68" stroke-width=".05" fill="#7b7d68"/><path d="M142.8 583.12l14.68 3.1-4.64 8.04z" stroke="#7b7d68" stroke-width="2" fill="#7b7d68"/><path d="M1037.64 1059.5L235.97 590.83" stroke="#7b7d68" stroke-width="2" fill="none"/><path d="M1038.5 1058.84v2.32l-1.4-.8 1.02-1.74z" stroke="#7b7d68" stroke-width=".05" fill="#7b7d68"/><path d="M222.8 583.13l14.65 3.2-4.68 8z" stroke="#7b7d68" stroke-width="2" fill="#7b7d68"/><path d="M1037.64 1019.5L315.9 590.94" stroke="#7b7d68" stroke-width="2" fill="none"/><path d="M1038.5 1018.84v2.32l-1.4-.82 1.03-1.72z" stroke="#7b7d68" stroke-width=".05" fill="#7b7d68"/><path d="M302.78 583.15l14.64 3.3-4.74 7.97z" stroke="#7b7d68" stroke-width="2" fill="#7b7d68"/><path d="M1037.64 979.5L385.9 590.96" stroke="#7b7d68" stroke-width="2" fill="none"/><path d="M1038.5 978.84v2.32l-1.4-.83 1.03-1.7z" stroke="#7b7d68" stroke-width=".05" fill="#7b7d68"/><path d="M372.78 583.16l14.63 3.32-4.74 7.96z" stroke="#7b7d68" stroke-width="2" fill="#7b7d68"/><path d="M1037.64 939.5L455.87 591" stroke="#7b7d68" stroke-width="2" fill="none"/><path d="M1038.5 938.83v2.34l-1.4-.84 1.03-1.72z" stroke="#7b7d68" stroke-width=".05" fill="#7b7d68"/><path d="M442.78 583.16l14.62 3.36-4.77 7.95z" stroke="#7b7d68" stroke-width="2" fill="#7b7d68"/><path d="M1037.65 899.48l-501.9-308.3" stroke="#7b7d68" stroke-width="2" fill="none"/><path d="M1038.5 898.83v2.34l-1.4-.85 1.05-1.7z" stroke="#7b7d68" stroke-width=".05" fill="#7b7d68"/><path d="M522.76 583.2l14.58 3.5-4.85 7.9z" stroke="#7b7d68" stroke-width="2" fill="#7b7d68"/><path d="M1037.66 859.46L615.62 591.42" stroke="#7b7d68" stroke-width="2" fill="none"/><path d="M1038.5 858.82v2.36l-1.4-.9 1.07-1.67z" stroke="#7b7d68" stroke-width=".05" fill="#7b7d68"/><path d="M602.73 583.24l14.53 3.73-4.97 7.83z" stroke="#7b7d68" stroke-width="2" fill="#7b7d68"/><path d="M1037.77 819.32L798.15 594.17" stroke="#7b7d68" stroke-width="2" fill="none"/><path d="M1038.5 818.63v2.74l-1.43-1.34 1.37-1.46z" stroke="#7b7d68" stroke-width=".05" fill="#7b7d68"/><path d="M787.02 583.72l13.58 6.4-6.35 6.74z" stroke="#7b7d68" stroke-width="2" fill="#7b7d68"/><path d="M1037.9 779.2L901.72 596.34" stroke="#7b7d68" stroke-width="2" fill="none"/><path d="M1038.5 781.67l-1.4-1.9 1.4-1.05z" stroke="#7b7d68" stroke-width=".05" fill="#7b7d68"/><path d="M892.6 584.1l12.24 8.67-7.44 5.53z" stroke="#7b7d68" stroke-width="2" fill="#7b7d68"/><path d="M1038.1 739.08L977.96 598.5" stroke="#7b7d68" stroke-width="2" fill="none"/><path d="M1038.5 742.54l-1.32-3.1 1.32-.56z" stroke="#7b7d68" stroke-width=".05" fill="#7b7d68"/><path d="M971.94 584.48l9.87 11.3-8.5 3.63z" stroke="#7b7d68" stroke-width="2" fill="#7b7d68"/><path d="M1037.5 620H1026a6 6 0 0 1-6-6V366a6 6 0 0 0-6-6H689.34" stroke="#7b7d68" stroke-width="2" fill="none"/><path d="M1038.5 621h-1.03v-2h1.03z" stroke="#7b7d68" stroke-width=".05" fill="#7b7d68"/><path d="M674.07 360l14.26-4.63v9.26z" stroke="#7b7d68" stroke-width="2" fill="#7b7d68"/><path d="M1037.5 660H606a6 6 0 0 1-6-6V366a6 6 0 0 0-6-6h-84.67" stroke="#7b7d68" stroke-width="2" fill="none"/><path d="M1038.5 661h-1.03v-2h1.03z" stroke="#7b7d68" stroke-width=".05" fill="#7b7d68"/><path d="M494.07 360l14.26-4.63v9.26z" stroke="#7b7d68" stroke-width="2" fill="#7b7d68"/><path d="M720 546a6 6 0 0 1 6-6h117.33a6 6 0 0 1 6 6v28a6 6 0 0 1-6 6H726a6 6 0 0 1-6-6z" stroke="#2e2f27" stroke-width="3" fill="#fff" fill-opacity="0"/><use xlink:href="#t" transform="matrix(1,0,0,1,725,545) translate(2.575000000000152 18.149999999999963)"/><use xlink:href="#u" transform="matrix(1,0,0,1,725,545) translate(39.57500000000005 18.149999999999963)"/><path d="M1040 686a6 6 0 0 1 6-6h113.33a6 6 0 0 1 6 6v28a6 6 0 0 1-6 6H1046a6 6 0 0 1-6-6z" stroke="#fff" stroke-width="3" fill="#93cee1"/><use xlink:href="#s" transform="matrix(1,0,0,1,1052,692) translate(36.5 14.4)"/><path d="M660 446a6 6 0 0 1 6-6h37.33a6 6 0 0 1 6 6v28a6 6 0 0 1-6 6H666a6 6 0 0 1-6-6z" stroke="#2e2f27" stroke-width="3" fill="#fff" fill-opacity="0"/><path d="M685.53 482l81.62 47.23" stroke="#7b7d68" stroke-width="2" fill="none"/><path d="M685.05 482.88l-2.38-1.38h3.18z" stroke="#7b7d68" stroke-width=".05" fill="#7b7d68"/><path d="M780.37 536.88l-14.67-3.13 4.64-8.03z" stroke="#7b7d68" stroke-width="2" fill="#7b7d68"/><path d="M684.6 482.5l-3.1 37.56" stroke="#7b7d68" stroke-width="2" fill="none"/><path d="M685.58 482.6l-2-.16.08-.94h2z" stroke="#7b7d68" stroke-width=".05" fill="#7b7d68"/><path d="M680.26 535.27l-3.45-14.6 9.25.76z" stroke="#7b7d68" stroke-width="2" fill="#7b7d68"/><path d="M645.2 382.34l26.4 40.64" stroke="#7b7d68" stroke-width="2" fill="none"/><path d="M646.06 381.82l-1.67 1.08-.93-1.4h2.4z" stroke="#7b7d68" stroke-width=".05" fill="#7b7d68"/><path d="M679.9 435.8l-11.65-9.46 7.77-5.04z" stroke="#7b7d68" stroke-width="2" fill="#7b7d68"/><path d="M1200 796a6 6 0 0 1 6-6h148a6 6 0 0 1 6 6v48a6 6 0 0 1-6 6h-148a6 6 0 0 1-6-6z" stroke="#fff" stroke-width="3" fill="#b6aed5"/><use xlink:href="#v" transform="matrix(1,0,0,1,1212,802) translate(10.774999999999999 14.4)"/><use xlink:href="#w" transform="matrix(1,0,0,1,1212,802) translate(0.29999999999999716 36)"/><path d="M1197.5 820h-29.67" stroke="#7b7d68" stroke-width="2" fill="none"/><path d="M1198.5 821h-1.03v-2h1.03zM1167.86 821h-1.03v-2h1.03z" stroke="#7b7d68" stroke-width=".05" fill="#7b7d68"/><path d="M1037.5 700H756a6 6 0 0 1-6-6V466a6 6 0 0 0-6-6h-14.66" stroke="#7b7d68" stroke-width="2" fill="none"/><path d="M1038.5 701h-1.03v-2h1.03z" stroke="#7b7d68" stroke-width=".05" fill="#7b7d68"/><path d="M714.07 460l14.26-4.63v9.26z" stroke="#7b7d68" stroke-width="2" fill="#7b7d68"/><defs><path fill="#2e2f27" d="M18-100v-36l175-74v27L42-118l151 64v27" id="x"/><path fill="#2e2f27" d="M59-47c-2 24 18 29 38 22v24C64 9 27 4 27-40v-127H5v-23h24l9-43h21v43h35v23H59v120" id="y"/><path fill="#2e2f27" d="M24-231v-30h32v30H24zM24 0v-190h32V0H24" id="z"/><path fill="#2e2f27" d="M24 0v-261h32V0H24" id="A"/><path fill="#2e2f27" d="M100-194c63 0 86 42 84 106H49c0 40 14 67 53 68 26 1 43-12 49-29l28 8c-11 28-37 45-77 45C44 4 14-33 15-96c1-61 26-98 85-98zm52 81c6-60-76-77-97-28-3 7-6 17-6 28h103" id="B"/><path fill="#2e2f27" d="M18-27v-27l151-64-151-65v-27l175 74v36" id="C"/><g id="a"><use transform="matrix(0.04999999999999987,0,0,0.04999999999999987,0,0)" xlink:href="#x"/><use transform="matrix(0.04999999999999987,0,0,0.04999999999999987,10.499999999999973,0)" xlink:href="#y"/><use transform="matrix(0.04999999999999987,0,0,0.04999999999999987,15.49999999999996,0)" xlink:href="#z"/><use transform="matrix(0.04999999999999987,0,0,0.04999999999999987,19.44999999999995,0)" xlink:href="#y"/><use transform="matrix(0.04999999999999987,0,0,0.04999999999999987,24.449999999999935,0)" xlink:href="#A"/><use transform="matrix(0.04999999999999987,0,0,0.04999999999999987,28.399999999999928,0)" xlink:href="#B"/><use transform="matrix(0.04999999999999987,0,0,0.04999999999999987,38.3999999999999,0)" xlink:href="#C"/></g><path fill="#2e2f27" d="M30-248c118-7 216 8 213 122C240-48 200 0 122 0H30v-248zM63-27c89 8 146-16 146-99s-60-101-146-95v194" id="D"/><path fill="#2e2f27" d="M141-36C126-15 110 5 73 4 37 3 15-17 15-53c-1-64 63-63 125-63 3-35-9-54-41-54-24 1-41 7-42 31l-33-3c5-37 33-52 76-52 45 0 72 20 72 64v82c-1 20 7 32 28 27v20c-31 9-61-2-59-35zM48-53c0 20 12 33 32 33 41-3 63-29 60-74-43 2-92-5-92 41" id="E"/><path fill="#2e2f27" d="M114-163C36-179 61-72 57 0H25l-1-190h30c1 12-1 29 2 39 6-27 23-49 58-41v29" id="F"/><path fill="#2e2f27" d="M179-190L93 31C79 59 56 82 12 73V49c39 6 53-20 64-50L1-190h34L92-34l54-156h33" id="G"/><g id="b"><use transform="matrix(0.04999999999999987,0,0,0.04999999999999987,0,0)" xlink:href="#D"/><use transform="matrix(0.04999999999999987,0,0,0.04999999999999987,12.949999999999967,0)" xlink:href="#z"/><use transform="matrix(0.04999999999999987,0,0,0.04999999999999987,16.899999999999956,0)" xlink:href="#E"/><use transform="matrix(0.04999999999999987,0,0,0.04999999999999987,26.899999999999924,0)" xlink:href="#F"/><use transform="matrix(0.04999999999999987,0,0,0.04999999999999987,32.84999999999991,0)" xlink:href="#G"/></g><path fill="#2e2f27" d="M33 0v-248h34V0H33" id="H"/><use transform="matrix(0.04999999999999987,0,0,0.04999999999999987,0,0)" xlink:href="#H" id="c"/><path fill="#2e2f27" d="M108 0H70L1-190h34L89-25l56-165h34" id="I"/><g id="d"><use transform="matrix(0.04999999999999987,0,0,0.04999999999999987,0,0)" xlink:href="#A"/><use transform="matrix(0.04999999999999987,0,0,0.04999999999999987,3.94999999999999,0)" xlink:href="#z"/><use transform="matrix(0.04999999999999987,0,0,0.04999999999999987,7.89999999999998,0)" xlink:href="#I"/><use transform="matrix(0.04999999999999987,0,0,0.04999999999999987,16.899999999999956,0)" xlink:href="#B"/></g><path fill="#2e2f27" d="M117-194c89-4 53 116 60 194h-32v-121c0-31-8-49-39-48C34-167 62-67 57 0H25l-1-190h30c1 10-1 24 2 32 11-22 29-35 61-36" id="J"/><g id="e"><use transform="matrix(0.04999999999999987,0,0,0.04999999999999987,0,0)" xlink:href="#z"/><use transform="matrix(0.04999999999999987,0,0,0.04999999999999987,3.94999999999999,0)" xlink:href="#J"/></g><path fill="#2e2f27" d="M106-169C34-169 62-67 57 0H25v-261h32l-1 103c12-21 28-36 61-36 89 0 53 116 60 194h-32v-121c2-32-8-49-39-48" id="K"/><path fill="#2e2f27" d="M210-169c-67 3-38 105-44 169h-31v-121c0-29-5-50-35-48C34-165 62-65 56 0H25l-1-190h30c1 10-1 24 2 32 10-44 99-50 107 0 11-21 27-35 58-36 85-2 47 119 55 194h-31v-121c0-29-5-49-35-48" id="L"/><g id="f"><use transform="matrix(0.05,0,0,0.05,0,0)" xlink:href="#K"/><use transform="matrix(0.05,0,0,0.05,10,0)" xlink:href="#y"/><use transform="matrix(0.05,0,0,0.05,15,0)" xlink:href="#L"/><use transform="matrix(0.05,0,0,0.05,29.950000000000003,0)" xlink:href="#A"/></g><path fill="#2e2f27" d="M115-194c53 0 69 39 70 98 0 66-23 100-70 100C84 3 66-7 56-30L54 0H23l1-261h32v101c10-23 28-34 59-34zm-8 174c40 0 45-34 45-75 0-40-5-75-45-74-42 0-51 32-51 76 0 43 10 73 51 73" id="M"/><path fill="#2e2f27" d="M100-194c62-1 85 37 85 99 1 63-27 99-86 99S16-35 15-95c0-66 28-99 85-99zM99-20c44 1 53-31 53-75 0-43-8-75-51-75s-53 32-53 75 10 74 51 75" id="N"/><path fill="#2e2f27" d="M85-194c31 0 48 13 60 33l-1-100h32l1 261h-30c-2-10 0-23-3-31C134-8 116 4 85 4 32 4 16-35 15-94c0-66 23-100 70-100zm9 24c-40 0-46 34-46 75 0 40 6 74 45 74 42 0 51-32 51-76 0-42-9-74-50-73" id="O"/><g id="g"><use transform="matrix(0.05,0,0,0.05,0,0)" xlink:href="#M"/><use transform="matrix(0.05,0,0,0.05,10,0)" xlink:href="#N"/><use transform="matrix(0.05,0,0,0.05,20,0)" xlink:href="#O"/><use transform="matrix(0.05,0,0,0.05,30,0)" xlink:href="#G"/></g><g id="h"><use transform="matrix(0.05,0,0,0.05,0,0)" xlink:href="#K"/><use transform="matrix(0.05,0,0,0.05,10,0)" xlink:href="#B"/><use transform="matrix(0.05,0,0,0.05,20,0)" xlink:href="#E"/><use transform="matrix(0.05,0,0,0.05,30,0)" xlink:href="#O"/><use transform="matrix(0.05,0,0,0.05,40,0)" xlink:href="#B"/><use transform="matrix(0.05,0,0,0.05,50,0)" xlink:href="#F"/></g><path fill="#2e2f27" d="M177-190C167-65 218 103 67 71c-23-6-38-20-44-43l32-5c15 47 100 32 89-28v-30C133-14 115 1 83 1 29 1 15-40 15-95c0-56 16-97 71-98 29-1 48 16 59 35 1-10 0-23 2-32h30zM94-22c36 0 50-32 50-73 0-42-14-75-50-75-39 0-46 34-46 75s6 73 46 73" id="P"/><g id="i"><use transform="matrix(0.05,0,0,0.05,0,0)" xlink:href="#B"/><use transform="matrix(0.05,0,0,0.05,10,0)" xlink:href="#J"/><use transform="matrix(0.05,0,0,0.05,20,0)" xlink:href="#O"/><use transform="matrix(0.05,0,0,0.05,30,0)" xlink:href="#y"/><use transform="matrix(0.05,0,0,0.05,35,0)" xlink:href="#E"/><use transform="matrix(0.05,0,0,0.05,45,0)" xlink:href="#P"/></g><path fill="#2e2f27" d="M96-169c-40 0-48 33-48 73s9 75 48 75c24 0 41-14 43-38l32 2c-6 37-31 61-74 61-59 0-76-41-82-99-10-93 101-131 147-64 4 7 5 14 7 22l-32 3c-4-21-16-35-41-35" id="Q"/><g id="j"><use transform="matrix(0.05,0,0,0.05,0,0)" xlink:href="#Q"/><use transform="matrix(0.05,0,0,0.05,9,0)" xlink:href="#z"/><use transform="matrix(0.05,0,0,0.05,12.949999999999998,0)" xlink:href="#y"/><use transform="matrix(0.05,0,0,0.05,17.95,0)" xlink:href="#G"/></g><g id="k"><use transform="matrix(0.04999999999999987,0,0,0.04999999999999987,0,0)" xlink:href="#x"/><use transform="matrix(0.04999999999999987,0,0,0.04999999999999987,10.499999999999973,0)" xlink:href="#K"/><use transform="matrix(0.04999999999999987,0,0,0.04999999999999987,20.499999999999947,0)" xlink:href="#y"/><use transform="matrix(0.04999999999999987,0,0,0.04999999999999987,25.499999999999932,0)" xlink:href="#L"/><use transform="matrix(0.04999999999999987,0,0,0.04999999999999987,40.449999999999896,0)" xlink:href="#A"/><use transform="matrix(0.04999999999999987,0,0,0.04999999999999987,44.399999999999885,0)" xlink:href="#C"/></g><g id="l"><use transform="matrix(0.04999999999999987,0,0,0.04999999999999987,0,0)" xlink:href="#x"/><use transform="matrix(0.04999999999999987,0,0,0.04999999999999987,10.499999999999973,0)" xlink:href="#K"/><use transform="matrix(0.04999999999999987,0,0,0.04999999999999987,20.499999999999947,0)" xlink:href="#B"/><use transform="matrix(0.04999999999999987,0,0,0.04999999999999987,30.499999999999922,0)" xlink:href="#E"/><use transform="matrix(0.04999999999999987,0,0,0.04999999999999987,40.49999999999989,0)" xlink:href="#O"/><use transform="matrix(0.04999999999999987,0,0,0.04999999999999987,50.499999999999865,0)" xlink:href="#C"/></g><path fill="#2e2f27" d="M0 4l72-265h28L28 4H0" id="R"/><g id="m"><use transform="matrix(0.04999999999999987,0,0,0.04999999999999987,0,0)" xlink:href="#x"/><use transform="matrix(0.04999999999999987,0,0,0.04999999999999987,10.499999999999973,0)" xlink:href="#R"/><use transform="matrix(0.04999999999999987,0,0,0.04999999999999987,15.49999999999996,0)" xlink:href="#y"/><use transform="matrix(0.04999999999999987,0,0,0.04999999999999987,20.499999999999947,0)" xlink:href="#z"/><use transform="matrix(0.04999999999999987,0,0,0.04999999999999987,24.449999999999935,0)" xlink:href="#y"/><use transform="matrix(0.04999999999999987,0,0,0.04999999999999987,29.449999999999918,0)" xlink:href="#A"/><use transform="matrix(0.04999999999999987,0,0,0.04999999999999987,33.39999999999991,0)" xlink:href="#B"/><use transform="matrix(0.04999999999999987,0,0,0.04999999999999987,43.399999999999885,0)" xlink:href="#C"/></g><g id="n"><use transform="matrix(0.04999999999999987,0,0,0.04999999999999987,0,0)" xlink:href="#x"/><use transform="matrix(0.04999999999999987,0,0,0.04999999999999987,10.499999999999973,0)" xlink:href="#M"/><use transform="matrix(0.04999999999999987,0,0,0.04999999999999987,20.499999999999947,0)" xlink:href="#N"/><use transform="matrix(0.04999999999999987,0,0,0.04999999999999987,30.499999999999922,0)" xlink:href="#O"/><use transform="matrix(0.04999999999999987,0,0,0.04999999999999987,40.49999999999989,0)" xlink:href="#G"/><use transform="matrix(0.04999999999999987,0,0,0.04999999999999987,49.49999999999987,0)" xlink:href="#C"/></g><g id="o"><use transform="matrix(0.04999999999999987,0,0,0.04999999999999987,0,0)" xlink:href="#x"/><use transform="matrix(0.04999999999999987,0,0,0.04999999999999987,10.499999999999973,0)" xlink:href="#R"/><use transform="matrix(0.04999999999999987,0,0,0.04999999999999987,15.49999999999996,0)" xlink:href="#K"/><use transform="matrix(0.04999999999999987,0,0,0.04999999999999987,25.499999999999936,0)" xlink:href="#B"/><use transform="matrix(0.04999999999999987,0,0,0.04999999999999987,35.49999999999991,0)" xlink:href="#E"/><use transform="matrix(0.04999999999999987,0,0,0.04999999999999987,45.49999999999988,0)" xlink:href="#O"/><use transform="matrix(0.04999999999999987,0,0,0.04999999999999987,55.499999999999844,0)" xlink:href="#C"/></g><g id="p"><use transform="matrix(0.04999999999999987,0,0,0.04999999999999987,0,0)" xlink:href="#x"/><use transform="matrix(0.04999999999999987,0,0,0.04999999999999987,10.499999999999973,0)" xlink:href="#R"/><use transform="matrix(0.04999999999999987,0,0,0.04999999999999987,15.49999999999996,0)" xlink:href="#M"/><use transform="matrix(0.04999999999999987,0,0,0.04999999999999987,25.499999999999936,0)" xlink:href="#N"/><use transform="matrix(0.04999999999999987,0,0,0.04999999999999987,35.49999999999991,0)" xlink:href="#O"/><use transform="matrix(0.04999999999999987,0,0,0.04999999999999987,45.49999999999988,0)" xlink:href="#G"/><use transform="matrix(0.04999999999999987,0,0,0.04999999999999987,54.49999999999986,0)" xlink:href="#C"/></g><g id="q"><use transform="matrix(0.04999999999999987,0,0,0.04999999999999987,0,0)" xlink:href="#x"/><use transform="matrix(0.04999999999999987,0,0,0.04999999999999987,10.499999999999973,0)" xlink:href="#R"/><use transform="matrix(0.04999999999999987,0,0,0.04999999999999987,15.49999999999996,0)" xlink:href="#K"/><use transform="matrix(0.04999999999999987,0,0,0.04999999999999987,25.499999999999936,0)" xlink:href="#y"/><use transform="matrix(0.04999999999999987,0,0,0.04999999999999987,30.499999999999922,0)" xlink:href="#L"/><use transform="matrix(0.04999999999999987,0,0,0.04999999999999987,45.44999999999988,0)" xlink:href="#A"/><use transform="matrix(0.04999999999999987,0,0,0.04999999999999987,49.39999999999987,0)" xlink:href="#C"/></g><g id="r"><use transform="matrix(0.05,0,0,0.05,0,0)" xlink:href="#M"/><use transform="matrix(0.05,0,0,0.05,10,0)" xlink:href="#B"/><use transform="matrix(0.05,0,0,0.05,20,0)" xlink:href="#P"/><use transform="matrix(0.05,0,0,0.05,30,0)" xlink:href="#z"/><use transform="matrix(0.05,0,0,0.05,33.95,0)" xlink:href="#J"/><use transform="matrix(0.05,0,0,0.05,43.95,0)" xlink:href="#y"/><use transform="matrix(0.05,0,0,0.05,48.95,0)" xlink:href="#E"/><use transform="matrix(0.05,0,0,0.05,58.95,0)" xlink:href="#P"/></g><path fill="#2e2f27" d="M141 0L90-78 38 0H4l68-98-65-92h35l48 74 47-74h35l-64 92 68 98h-35" id="S"/><g id="s"><use transform="matrix(0.05,0,0,0.05,0,0)" xlink:href="#y"/><use transform="matrix(0.05,0,0,0.05,5,0)" xlink:href="#B"/><use transform="matrix(0.05,0,0,0.05,15,0)" xlink:href="#S"/><use transform="matrix(0.05,0,0,0.05,24,0)" xlink:href="#y"/></g><path fill="#2e2f27" d="M185-189c-5-48-123-54-124 2 14 75 158 14 163 119 3 78-121 87-175 55-17-10-28-26-33-46l33-7c5 56 141 63 141-1 0-78-155-14-162-118-5-82 145-84 179-34 5 7 8 16 11 25" id="T"/><g id="t"><use transform="matrix(0.04999999999999987,0,0,0.04999999999999987,0,0)" xlink:href="#T"/><use transform="matrix(0.04999999999999987,0,0,0.04999999999999987,11.99999999999997,0)" xlink:href="#E"/><use transform="matrix(0.04999999999999987,0,0,0.04999999999999987,21.999999999999943,0)" xlink:href="#J"/></g><path fill="#2e2f27" d="M63-220v92h138v28H63V0H30v-248h175v28H63" id="U"/><path fill="#2e2f27" d="M135-143c-3-34-86-38-87 0 15 53 115 12 119 90S17 21 10-45l28-5c4 36 97 45 98 0-10-56-113-15-118-90-4-57 82-63 122-42 12 7 21 19 24 35" id="V"/><g id="u"><use transform="matrix(0.04999999999999987,0,0,0.04999999999999987,0,0)" xlink:href="#U"/><use transform="matrix(0.04999999999999987,0,0,0.04999999999999987,10.94999999999997,0)" xlink:href="#F"/><use transform="matrix(0.04999999999999987,0,0,0.04999999999999987,16.899999999999956,0)" xlink:href="#E"/><use transform="matrix(0.04999999999999987,0,0,0.04999999999999987,26.899999999999924,0)" xlink:href="#J"/><use transform="matrix(0.04999999999999987,0,0,0.04999999999999987,36.8999999999999,0)" xlink:href="#Q"/><use transform="matrix(0.04999999999999987,0,0,0.04999999999999987,45.89999999999988,0)" xlink:href="#z"/><use transform="matrix(0.04999999999999987,0,0,0.04999999999999987,49.849999999999866,0)" xlink:href="#V"/><use transform="matrix(0.04999999999999987,0,0,0.04999999999999987,58.849999999999845,0)" xlink:href="#Q"/><use transform="matrix(0.04999999999999987,0,0,0.04999999999999987,67.84999999999982,0)" xlink:href="#N"/></g><path fill="#2e2f27" d="M18-150v-26h174v26H18zm0 90v-26h174v26H18" id="W"/><path fill="#2e2f27" d="M126-127c33 6 58 20 58 59 0 88-139 92-164 29-3-8-5-16-6-25l32-3c6 27 21 44 54 44 32 0 52-15 52-46 0-38-36-46-79-43v-28c39 1 72-4 72-42 0-27-17-43-46-43-28 0-47 15-49 41l-32-3c6-42 35-63 81-64 48-1 79 21 79 65 0 36-21 52-52 59" id="X"/><path fill="#2e2f27" d="M64 0c3-98 48-159 88-221H18v-27h164v26C143-157 98-101 97 0H64" id="Y"/><path fill="#2e2f27" d="M33 0v-38h34V0H33" id="Z"/><path fill="#2e2f27" d="M155-56V0h-30v-56H8v-25l114-167h33v167h35v25h-35zm-30-156c-27 46-58 90-88 131h88v-131" id="aa"/><path fill="#2e2f27" d="M99-251c64 0 84 50 84 122C183-37 130 33 47-8c-14-7-20-23-25-40l30-5c6 39 69 39 84 7 9-19 16-44 16-74-10 22-31 35-62 35-49 0-73-33-73-83 0-54 28-83 82-83zm-1 141c31-1 51-18 51-49 0-36-14-67-51-67-34 0-49 23-49 58 0 34 15 58 49 58" id="ab"/><path fill="#2e2f27" d="M101-251c82-7 93 87 43 132L82-64C71-53 59-42 53-27h129V0H18c2-99 128-94 128-182 0-28-16-43-45-43s-46 15-49 41l-32-3c6-41 34-60 81-64" id="ac"/><g id="v"><use transform="matrix(0.05,0,0,0.05,0,0)" xlink:href="#A"/><use transform="matrix(0.05,0,0,0.05,3.95,0)" xlink:href="#E"/><use transform="matrix(0.05,0,0,0.05,13.949999999999998,0)" xlink:href="#y"/><use transform="matrix(0.05,0,0,0.05,18.95,0)" xlink:href="#W"/><use transform="matrix(0.05,0,0,0.05,29.450000000000003,0)" xlink:href="#X"/><use transform="matrix(0.05,0,0,0.05,39.45,0)" xlink:href="#Y"/><use transform="matrix(0.05,0,0,0.05,49.45,0)" xlink:href="#Z"/><use transform="matrix(0.05,0,0,0.05,54.45,0)" xlink:href="#Y"/><use transform="matrix(0.05,0,0,0.05,64.45,0)" xlink:href="#Y"/><use transform="matrix(0.05,0,0,0.05,74.45,0)" xlink:href="#aa"/><use transform="matrix(0.05,0,0,0.05,84.45,0)" xlink:href="#ab"/><use transform="matrix(0.05,0,0,0.05,94.45,0)" xlink:href="#ac"/><use transform="matrix(0.05,0,0,0.05,104.45,0)" xlink:href="#ab"/></g><path fill="#2e2f27" d="M16-82v-28h88v28H16" id="ad"/><path fill="#2e2f27" d="M27 0v-27h64v-190l-56 39v-29l58-41h29v221h61V0H27" id="ae"/><path fill="#2e2f27" d="M110-160c48 1 74 30 74 79 0 53-28 85-80 85-65 0-83-55-86-122-5-90 50-162 133-122 14 7 22 21 27 39l-31 6c-5-40-67-38-82-6-9 19-15 44-15 74 11-20 30-34 60-33zm-7 138c34 0 49-23 49-58s-16-56-50-56c-29 0-50 16-49 49 1 36 15 65 50 65" id="af"/><g id="w"><use transform="matrix(0.05,0,0,0.05,0,0)" xlink:href="#A"/><use transform="matrix(0.05,0,0,0.05,3.95,0)" xlink:href="#N"/><use transform="matrix(0.05,0,0,0.05,13.949999999999998,0)" xlink:href="#J"/><use transform="matrix(0.05,0,0,0.05,23.95,0)" xlink:href="#W"/><use transform="matrix(0.05,0,0,0.05,34.45,0)" xlink:href="#ad"/><use transform="matrix(0.05,0,0,0.05,40.400000000000006,0)" xlink:href="#ae"/><use transform="matrix(0.05,0,0,0.05,50.400000000000006,0)" xlink:href="#ac"/><use transform="matrix(0.05,0,0,0.05,60.400000000000006,0)" xlink:href="#ac"/><use transform="matrix(0.05,0,0,0.05,70.4,0)" xlink:href="#Z"/><use transform="matrix(0.05,0,0,0.05,75.4,0)" xlink:href="#aa"/><use transform="matrix(0.05,0,0,0.05,85.4,0)" xlink:href="#ae"/><use transform="matrix(0.05,0,0,0.05,95.4,0)" xlink:href="#ab"/><use transform="matrix(0.05,0,0,0.05,105.4,0)" xlink:href="#aa"/><use transform="matrix(0.05,0,0,0.05,115.4,0)" xlink:href="#ae"/><use transform="matrix(0.05,0,0,0.05,125.4,0)" xlink:href="#af"/></g></defs></g></svg>