<svg xmlns="http://www.w3.org/2000/svg" xmlns:xlink="http://www.w3.org/1999/xlink" xmlns:lucid="lucid" width="748.33" height="743"><g transform="translate(-438.5 -238.5)" lucid:page-tab-id="0_0"><path d="M0 0h1870.87v1322.84H0z" fill="#fff"/><path d="M580 546a6 6 0 0 1 6-6h68a6 6 0 0 1 6 6v28a6 6 0 0 1-6 6h-68a6 6 0 0 1-6-6z" stroke="#2e2f27" stroke-width="3" fill="#fff" fill-opacity="0"/><use xlink:href="#a" transform="matrix(1,0,0,1,585,545) translate(7.075000000000074 18.149999999999963)"/><use xlink:href="#b" transform="matrix(1,0,0,1,585,545) translate(17.075000000000045 18.149999999999963)"/><use xlink:href="#c" transform="matrix(1,0,0,1,585,545) translate(48.97499999999996 18.149999999999963)"/><path d="M680 326a6 6 0 0 1 6-6h37.33a6 6 0 0 1 6 6v28a6 6 0 0 1-6 6H686a6 6 0 0 1-6-6z" stroke="#2e2f27" stroke-width="3" fill="#fff" fill-opacity="0"/><path d="M1040 266a6 6 0 0 1 6-6h113.33a6 6 0 0 1 6 6v28a6 6 0 0 1-6 6H1046a6 6 0 0 1-6-6z" stroke="#fff" stroke-width="3" fill="#e8b46e"/><use xlink:href="#d" transform="matrix(1,0,0,1,1052,272) translate(34.05 14.4)"/><path d="M1037.5 280H710.67a6 6 0 0 0-6 6v14" stroke="#7b7d68" stroke-width="2" fill="none"/><path d="M1038.5 281h-1.03v-2h1.03z" stroke="#7b7d68" stroke-width=".05" fill="#7b7d68"/><path d="M704.67 315.26L700.03 301h9.27z" stroke="#7b7d68" stroke-width="2" fill="#7b7d68"/><path d="M1040 606a6 6 0 0 1 6-6h113.33a6 6 0 0 1 6 6v28a6 6 0 0 1-6 6H1046a6 6 0 0 1-6-6z" stroke="#fff" stroke-width="3" fill="#93cee1"/><use xlink:href="#e" transform="matrix(1,0,0,1,1052,612) translate(31.5 14.4)"/><path d="M1040 646a6 6 0 0 1 6-6h113.33a6 6 0 0 1 6 6v28a6 6 0 0 1-6 6H1046a6 6 0 0 1-6-6z" stroke="#fff" stroke-width="3" fill="#93cee1"/><use xlink:href="#f" transform="matrix(1,0,0,1,1052,652) translate(10.049999999999997 14.4)"/><path d="M1040 726a6 6 0 0 1 6-6h113.33a6 6 0 0 1 6 6v28a6 6 0 0 1-6 6H1046a6 6 0 0 1-6-6z" stroke="#fff" stroke-width="3" fill="#93cee1"/><use xlink:href="#g" transform="matrix(1,0,0,1,1052,732) translate(36.5 14.4)"/><path d="M1040 766a6 6 0 0 1 6-6h113.33a6 6 0 0 1 6 6v28a6 6 0 0 1-6 6H1046a6 6 0 0 1-6-6z" stroke="#fff" stroke-width="3" fill="#93cee1"/><use xlink:href="#h" transform="matrix(1,0,0,1,1052,772) translate(23.5 14.4)"/><path d="M1040 806a6 6 0 0 1 6-6h113.33a6 6 0 0 1 6 6v28a6 6 0 0 1-6 6H1046a6 6 0 0 1-6-6z" stroke="#fff" stroke-width="3" fill="#93cee1"/><use xlink:href="#g" transform="matrix(1,0,0,1,1052,812) translate(36.5 14.4)"/><path d="M1102.66 302.5l-2.8 277.5" stroke="#7b7d68" stroke-width="2" fill="none"/><path d="M1103.66 302.54l-2-.03v-1h2z" stroke="#7b7d68" stroke-width=".05" fill="#7b7d68"/><path d="M1099.7 595.26l-4.5-14.3 9.28.1z" stroke="#7b7d68" stroke-width="2" fill="#7b7d68"/><path d="M620 426a6 6 0 0 1 6-6h37.33a6 6 0 0 1 6 6v28a6 6 0 0 1-6 6H626a6 6 0 0 1-6-6zM460 546a6 6 0 0 1 6-6h68a6 6 0 0 1 6 6v28a6 6 0 0 1-6 6h-68a6 6 0 0 1-6-6z" stroke="#2e2f27" stroke-width="3" fill="#fff" fill-opacity="0"/><use xlink:href="#i" transform="matrix(1,0,0,1,465,545) translate(5.000000000000078 18.149999999999963)"/><path d="M850.67 546a6 6 0 0 1 6-6h68a6 6 0 0 1 6 6v28a6 6 0 0 1-6 6h-68a6 6 0 0 1-6-6z" stroke="#2e2f27" stroke-width="3" fill="#fff" fill-opacity="0"/><use xlink:href="#j" transform="matrix(1,0,0,1,855.6666666666667,545) translate(2.5000000000000853 18.149999999999963)"/><path d="M1040 846a6 6 0 0 1 6-6h113.33a6 6 0 0 1 6 6v28a6 6 0 0 1-6 6H1046a6 6 0 0 1-6-6z" stroke="#fff" stroke-width="3" fill="#93cee1"/><use xlink:href="#g" transform="matrix(1,0,0,1,1052,852) translate(36.5 14.4)"/><path d="M1040 886a6 6 0 0 1 6-6h113.33a6 6 0 0 1 6 6v28a6 6 0 0 1-6 6H1046a6 6 0 0 1-6-6z" stroke="#fff" stroke-width="3" fill="#93cee1"/><use xlink:href="#k" transform="matrix(1,0,0,1,1052,892) translate(16.525 14.4)"/><path d="M1040 926a6 6 0 0 1 6-6h113.33a6 6 0 0 1 6 6v28a6 6 0 0 1-6 6H1046a6 6 0 0 1-6-6z" stroke="#fff" stroke-width="3" fill="#93cee1"/><use xlink:href="#k" transform="matrix(1,0,0,1,1052,932) translate(16.525 14.4)"/><path d="M643.93 462.17l-70.24 63.88" stroke="#7b7d68" stroke-width="2" fill="none"/><path d="M644.58 462.93l-1.3-1.43h2.87z" stroke="#7b7d68" stroke-width=".05" fill="#7b7d68"/><path d="M562.4 536.32l7.43-13.03 6.24 6.85z" stroke="#7b7d68" stroke-width="2" fill="#7b7d68"/><path d="M645.45 462.13l80.16 64.75" stroke="#7b7d68" stroke-width="2" fill="none"/><path d="M644.84 462.92l-1.76-1.42h2.9z" stroke="#7b7d68" stroke-width=".05" fill="#7b7d68"/><path d="M737.48 536.47l-14-5.36 5.82-7.2z" stroke="#7b7d68" stroke-width="2" fill="#7b7d68"/><path d="M703.94 362.2l-45.86 43.56" stroke="#7b7d68" stroke-width="2" fill="none"/><path d="M704.6 362.93l-1.35-1.43h2.87z" stroke="#7b7d68" stroke-width=".05" fill="#7b7d68"/><path d="M647 416.27l7.16-13.2 6.4 6.74z" stroke="#7b7d68" stroke-width="2" fill="#7b7d68"/><path d="M1037.67 939.45L515.4 591.75" stroke="#7b7d68" stroke-width="2" fill="none"/><path d="M1038.5 938.8v2.4l-1.4-.94 1.1-1.66z" stroke="#7b7d68" stroke-width=".05" fill="#7b7d68"/><path d="M502.7 583.3l14.44 4.04-5.14 7.72z" stroke="#7b7d68" stroke-width="2" fill="#7b7d68"/><path d="M1037.67 819.43l-332.4-227.48" stroke="#7b7d68" stroke-width="2" fill="none"/><path d="M1038.5 818.8v2.4l-1.4-.95 1.12-1.65z" stroke="#7b7d68" stroke-width=".05" fill="#7b7d68"/><path d="M692.67 583.33l14.4 4.23-5.24 7.65z" stroke="#7b7d68" stroke-width="2" fill="#7b7d68"/><path d="M1037.67 779.45L755.4 591.75" stroke="#7b7d68" stroke-width="2" fill="none"/><path d="M1038.5 778.8v2.4l-1.4-.94 1.1-1.66z" stroke="#7b7d68" stroke-width=".05" fill="#7b7d68"/><path d="M742.7 583.3l14.44 4.03-5.13 7.72z" stroke="#7b7d68" stroke-width="2" fill="#7b7d68"/><path d="M1037.5 660H1006a6 6 0 0 1-6-6V446a6 6 0 0 0-6-6H689.34" stroke="#7b7d68" stroke-width="2" fill="none"/><path d="M1038.5 661h-1.03v-2h1.03z" stroke="#7b7d68" stroke-width=".05" fill="#7b7d68"/><path d="M674.07 440l14.26-4.63v9.26z" stroke="#7b7d68" stroke-width="2" fill="#7b7d68"/><path d="M760 546a6 6 0 0 1 6-6h77.33a6 6 0 0 1 6 6v28a6 6 0 0 1-6 6H766a6 6 0 0 1-6-6z" stroke="#2e2f27" stroke-width="3" fill="#fff" fill-opacity="0"/><use xlink:href="#l" transform="matrix(1,0,0,1,765,545) translate(1.0750000000001023 18.149999999999963)"/><path d="M1040 686a6 6 0 0 1 6-6h113.33a6 6 0 0 1 6 6v28a6 6 0 0 1-6 6H1046a6 6 0 0 1-6-6z" stroke="#fff" stroke-width="3" fill="#93cee1"/><use xlink:href="#h" transform="matrix(1,0,0,1,1052,692) translate(23.5 14.4)"/><path d="M645.17 462.36l35.44 60.2" stroke="#7b7d68" stroke-width="2" fill="none"/><path d="M646.05 461.88l-1.72 1-.82-1.38h2.33z" stroke="#7b7d68" stroke-width=".05" fill="#7b7d68"/><path d="M688.36 535.7l-11.23-9.93 8-4.7z" stroke="#7b7d68" stroke-width="2" fill="#7b7d68"/><path d="M540 546a6 6 0 0 1 6-6h28a6 6 0 0 1 6 6v28a6 6 0 0 1-6 6h-28a6 6 0 0 1-6-6z" stroke="#2e2f27" stroke-width="3" fill="#fff" fill-opacity="0"/><use xlink:href="#m" transform="matrix(1,0,0,1,544.9999999999998,545) translate(-0.4999999999999609 18.59999999999999)"/><path d="M720 546a6 6 0 0 1 6-6h28a6 6 0 0 1 6 6v28a6 6 0 0 1-6 6h-28a6 6 0 0 1-6-6z" stroke="#2e2f27" stroke-width="3" fill="#fff" fill-opacity="0"/><use xlink:href="#n" transform="matrix(1,0,0,1,725,545) translate(-2.999999999999954 18.59999999999999)"/><path d="M660 546a6 6 0 0 1 6-6h48a6 6 0 0 1 6 6v28a6 6 0 0 1-6 6h-48a6 6 0 0 1-6-6z" stroke="#2e2f27" stroke-width="3" fill="#fff" fill-opacity="0"/><use xlink:href="#o" transform="matrix(1,0,0,1,665,545) translate(9.000000000000043 18.149999999999963)"/><path d="M1037.67 899.45L575.4 591.75" stroke="#7b7d68" stroke-width="2" fill="none"/><path d="M1038.5 898.8v2.4l-1.4-.94 1.1-1.66z" stroke="#7b7d68" stroke-width=".05" fill="#7b7d68"/><path d="M562.7 583.3l14.44 4.04-5.14 7.72z" stroke="#7b7d68" stroke-width="2" fill="#7b7d68"/><path d="M1037.67 859.45L635.4 591.75" stroke="#7b7d68" stroke-width="2" fill="none"/><path d="M1038.5 858.8v2.4l-1.4-.94 1.1-1.66z" stroke="#7b7d68" stroke-width=".05" fill="#7b7d68"/><path d="M622.7 583.3l14.44 4.04-5.14 7.7z" stroke="#7b7d68" stroke-width="2" fill="#7b7d68"/><path d="M1037.67 739.44l-217.7-147.56" stroke="#7b7d68" stroke-width="2" fill="none"/><path d="M1038.5 738.8v2.4l-1.4-.95 1.1-1.65z" stroke="#7b7d68" stroke-width=".05" fill="#7b7d68"/><path d="M807.35 583.32l14.4 4.16-5.2 7.68z" stroke="#7b7d68" stroke-width="2" fill="#7b7d68"/><path d="M1037.72 699.38L905.1 593.08" stroke="#7b7d68" stroke-width="2" fill="none"/><path d="M1038.5 698.72v2.56l-1.43-1.14 1.26-1.56z" stroke="#7b7d68" stroke-width=".05" fill="#7b7d68"/><path d="M893.2 583.52l14.02 5.3-5.8 7.24z" stroke="#7b7d68" stroke-width="2" fill="#7b7d68"/><path d="M1037.5 620H1026a6 6 0 0 1-6-6V346a6 6 0 0 0-6-6H749.34" stroke="#7b7d68" stroke-width="2" fill="none"/><path d="M1038.5 621h-1.03v-2h1.03z" stroke="#7b7d68" stroke-width=".05" fill="#7b7d68"/><path d="M734.07 340l14.26-4.63v9.26z" stroke="#7b7d68" stroke-width="2" fill="#7b7d68"/><path d="M645.02 463.58l-19.16 57.37M645 463.6l.33-.97" stroke="#7b7d68" stroke-width="2" fill="none"/><path d="M621.02 535.43l.13-15 8.8 2.94z" stroke="#7b7d68" stroke-width="2" fill="#7b7d68"/><path d="M677.5 340H506a6 6 0 0 0-6 6v174" stroke="#7b7d68" stroke-width="2" fill="none"/><path d="M678.5 341h-1.03v-2h1.03z" stroke="#7b7d68" stroke-width=".05" fill="#7b7d68"/><path d="M500 535.26L495.37 521h9.26z" stroke="#7b7d68" stroke-width="2" fill="#7b7d68"/><path d="M705.4 362.2l171.86 163.55" stroke="#7b7d68" stroke-width="2" fill="none"/><path d="M704.72 362.93l-1.5-1.43h2.86z" stroke="#7b7d68" stroke-width=".05" fill="#7b7d68"/><path d="M888.32 536.27l-13.53-6.48 6.38-6.72z" stroke="#7b7d68" stroke-width="2" fill="#7b7d68"/><path d="M705.16 362.37l90.4 160.02" stroke="#7b7d68" stroke-width="2" fill="none"/><path d="M706.04 361.9l-1.74 1-.78-1.4h2.3z" stroke="#7b7d68" stroke-width=".05" fill="#7b7d68"/><path d="M803.08 535.68l-11.06-10.14 8.07-4.56z" stroke="#7b7d68" stroke-width="2" fill="#7b7d68"/><defs><path fill="#2e2f27" d="M33 0v-248h34V0H33" id="p"/><use transform="matrix(0.04999999999999987,0,0,0.04999999999999987,0,0)" xlink:href="#p" id="a"/><path fill="#2e2f27" d="M24 0v-261h32V0H24" id="q"/><path fill="#2e2f27" d="M24-231v-30h32v30H24zM24 0v-190h32V0H24" id="r"/><path fill="#2e2f27" d="M108 0H70L1-190h34L89-25l56-165h34" id="s"/><path fill="#2e2f27" d="M100-194c63 0 86 42 84 106H49c0 40 14 67 53 68 26 1 43-12 49-29l28 8c-11 28-37 45-77 45C44 4 14-33 15-96c1-61 26-98 85-98zm52 81c6-60-76-77-97-28-3 7-6 17-6 28h103" id="t"/><g id="b"><use transform="matrix(0.04999999999999987,0,0,0.04999999999999987,0,0)" xlink:href="#q"/><use transform="matrix(0.04999999999999987,0,0,0.04999999999999987,3.94999999999999,0)" xlink:href="#r"/><use transform="matrix(0.04999999999999987,0,0,0.04999999999999987,7.89999999999998,0)" xlink:href="#s"/><use transform="matrix(0.04999999999999987,0,0,0.04999999999999987,16.899999999999956,0)" xlink:href="#t"/></g><path fill="#2e2f27" d="M117-194c89-4 53 116 60 194h-32v-121c0-31-8-49-39-48C34-167 62-67 57 0H25l-1-190h30c1 10-1 24 2 32 11-22 29-35 61-36" id="u"/><g id="c"><use transform="matrix(0.04999999999999987,0,0,0.04999999999999987,0,0)" xlink:href="#r"/><use transform="matrix(0.04999999999999987,0,0,0.04999999999999987,3.94999999999999,0)" xlink:href="#u"/></g><path fill="#2e2f27" d="M106-169C34-169 62-67 57 0H25v-261h32l-1 103c12-21 28-36 61-36 89 0 53 116 60 194h-32v-121c2-32-8-49-39-48" id="v"/><path fill="#2e2f27" d="M59-47c-2 24 18 29 38 22v24C64 9 27 4 27-40v-127H5v-23h24l9-43h21v43h35v23H59v120" id="w"/><path fill="#2e2f27" d="M210-169c-67 3-38 105-44 169h-31v-121c0-29-5-50-35-48C34-165 62-65 56 0H25l-1-190h30c1 10-1 24 2 32 10-44 99-50 107 0 11-21 27-35 58-36 85-2 47 119 55 194h-31v-121c0-29-5-49-35-48" id="x"/><g id="d"><use transform="matrix(0.05,0,0,0.05,0,0)" xlink:href="#v"/><use transform="matrix(0.05,0,0,0.05,10,0)" xlink:href="#w"/><use transform="matrix(0.05,0,0,0.05,15,0)" xlink:href="#x"/><use transform="matrix(0.05,0,0,0.05,29.950000000000003,0)" xlink:href="#q"/></g><path fill="#2e2f27" d="M115-194c53 0 69 39 70 98 0 66-23 100-70 100C84 3 66-7 56-30L54 0H23l1-261h32v101c10-23 28-34 59-34zm-8 174c40 0 45-34 45-75 0-40-5-75-45-74-42 0-51 32-51 76 0 43 10 73 51 73" id="y"/><path fill="#2e2f27" d="M100-194c62-1 85 37 85 99 1 63-27 99-86 99S16-35 15-95c0-66 28-99 85-99zM99-20c44 1 53-31 53-75 0-43-8-75-51-75s-53 32-53 75 10 74 51 75" id="z"/><path fill="#2e2f27" d="M85-194c31 0 48 13 60 33l-1-100h32l1 261h-30c-2-10 0-23-3-31C134-8 116 4 85 4 32 4 16-35 15-94c0-66 23-100 70-100zm9 24c-40 0-46 34-46 75 0 40 6 74 45 74 42 0 51-32 51-76 0-42-9-74-50-73" id="A"/><path fill="#2e2f27" d="M179-190L93 31C79 59 56 82 12 73V49c39 6 53-20 64-50L1-190h34L92-34l54-156h33" id="B"/><g id="e"><use transform="matrix(0.05,0,0,0.05,0,0)" xlink:href="#y"/><use transform="matrix(0.05,0,0,0.05,10,0)" xlink:href="#z"/><use transform="matrix(0.05,0,0,0.05,20,0)" xlink:href="#A"/><use transform="matrix(0.05,0,0,0.05,30,0)" xlink:href="#B"/></g><path fill="#2e2f27" d="M115-194c55 1 70 41 70 98S169 2 115 4C84 4 66-9 55-30l1 105H24l-1-265h31l2 30c10-21 28-34 59-34zm-8 174c40 0 45-34 45-75s-6-73-45-74c-42 0-51 32-51 76 0 43 10 73 51 73" id="C"/><path fill="#2e2f27" d="M141-36C126-15 110 5 73 4 37 3 15-17 15-53c-1-64 63-63 125-63 3-35-9-54-41-54-24 1-41 7-42 31l-33-3c5-37 33-52 76-52 45 0 72 20 72 64v82c-1 20 7 32 28 27v20c-31 9-61-2-59-35zM48-53c0 20 12 33 32 33 41-3 63-29 60-74-43 2-92-5-92 41" id="D"/><path fill="#2e2f27" d="M114-163C36-179 61-72 57 0H25l-1-190h30c1 12-1 29 2 39 6-27 23-49 58-41v29" id="E"/><path fill="#2e2f27" d="M177-190C167-65 218 103 67 71c-23-6-38-20-44-43l32-5c15 47 100 32 89-28v-30C133-14 115 1 83 1 29 1 15-40 15-95c0-56 16-97 71-98 29-1 48 16 59 35 1-10 0-23 2-32h30zM94-22c36 0 50-32 50-73 0-42-14-75-50-75-39 0-46 34-46 75s6 73 46 73" id="F"/><g id="f"><use transform="matrix(0.05,0,0,0.05,0,0)" xlink:href="#C"/><use transform="matrix(0.05,0,0,0.05,10,0)" xlink:href="#D"/><use transform="matrix(0.05,0,0,0.05,20,0)" xlink:href="#E"/><use transform="matrix(0.05,0,0,0.05,25.950000000000003,0)" xlink:href="#D"/><use transform="matrix(0.05,0,0,0.05,35.95,0)" xlink:href="#F"/><use transform="matrix(0.05,0,0,0.05,45.95,0)" xlink:href="#E"/><use transform="matrix(0.05,0,0,0.05,51.900000000000006,0)" xlink:href="#D"/><use transform="matrix(0.05,0,0,0.05,61.900000000000006,0)" xlink:href="#C"/><use transform="matrix(0.05,0,0,0.05,71.9,0)" xlink:href="#v"/></g><path fill="#2e2f27" d="M141 0L90-78 38 0H4l68-98-65-92h35l48 74 47-74h35l-64 92 68 98h-35" id="G"/><g id="g"><use transform="matrix(0.05,0,0,0.05,0,0)" xlink:href="#w"/><use transform="matrix(0.05,0,0,0.05,5,0)" xlink:href="#t"/><use transform="matrix(0.05,0,0,0.05,15,0)" xlink:href="#G"/><use transform="matrix(0.05,0,0,0.05,24,0)" xlink:href="#w"/></g><g id="h"><use transform="matrix(0.05,0,0,0.05,0,0)" xlink:href="#t"/><use transform="matrix(0.05,0,0,0.05,10,0)" xlink:href="#u"/><use transform="matrix(0.05,0,0,0.05,20,0)" xlink:href="#A"/><use transform="matrix(0.05,0,0,0.05,30,0)" xlink:href="#w"/><use transform="matrix(0.05,0,0,0.05,35,0)" xlink:href="#D"/><use transform="matrix(0.05,0,0,0.05,45,0)" xlink:href="#F"/></g><path fill="#2e2f27" d="M18-100v-36l175-74v27L42-118l151 64v27" id="H"/><path fill="#2e2f27" d="M18-27v-27l151-64-151-65v-27l175 74v36" id="I"/><g id="i"><use transform="matrix(0.04999999999999987,0,0,0.04999999999999987,0,0)" xlink:href="#H"/><use transform="matrix(0.04999999999999987,0,0,0.04999999999999987,10.499999999999973,0)" xlink:href="#y"/><use transform="matrix(0.04999999999999987,0,0,0.04999999999999987,20.499999999999947,0)" xlink:href="#z"/><use transform="matrix(0.04999999999999987,0,0,0.04999999999999987,30.499999999999922,0)" xlink:href="#A"/><use transform="matrix(0.04999999999999987,0,0,0.04999999999999987,40.49999999999989,0)" xlink:href="#B"/><use transform="matrix(0.04999999999999987,0,0,0.04999999999999987,49.49999999999987,0)" xlink:href="#I"/></g><path fill="#2e2f27" d="M0 4l72-265h28L28 4H0" id="J"/><g id="j"><use transform="matrix(0.04999999999999987,0,0,0.04999999999999987,0,0)" xlink:href="#H"/><use transform="matrix(0.04999999999999987,0,0,0.04999999999999987,10.499999999999973,0)" xlink:href="#J"/><use transform="matrix(0.04999999999999987,0,0,0.04999999999999987,15.49999999999996,0)" xlink:href="#y"/><use transform="matrix(0.04999999999999987,0,0,0.04999999999999987,25.499999999999936,0)" xlink:href="#z"/><use transform="matrix(0.04999999999999987,0,0,0.04999999999999987,35.49999999999991,0)" xlink:href="#A"/><use transform="matrix(0.04999999999999987,0,0,0.04999999999999987,45.49999999999988,0)" xlink:href="#B"/><use transform="matrix(0.04999999999999987,0,0,0.04999999999999987,54.49999999999986,0)" xlink:href="#I"/></g><g id="k"><use transform="matrix(0.05,0,0,0.05,0,0)" xlink:href="#y"/><use transform="matrix(0.05,0,0,0.05,10,0)" xlink:href="#t"/><use transform="matrix(0.05,0,0,0.05,20,0)" xlink:href="#F"/><use transform="matrix(0.05,0,0,0.05,30,0)" xlink:href="#r"/><use transform="matrix(0.05,0,0,0.05,33.95,0)" xlink:href="#u"/><use transform="matrix(0.05,0,0,0.05,43.95,0)" xlink:href="#w"/><use transform="matrix(0.05,0,0,0.05,48.95,0)" xlink:href="#D"/><use transform="matrix(0.05,0,0,0.05,58.95,0)" xlink:href="#F"/></g><path fill="#2e2f27" d="M63-220v92h138v28H63V0H30v-248h175v28H63" id="K"/><path fill="#2e2f27" d="M96-169c-40 0-48 33-48 73s9 75 48 75c24 0 41-14 43-38l32 2c-6 37-31 61-74 61-59 0-76-41-82-99-10-93 101-131 147-64 4 7 5 14 7 22l-32 3c-4-21-16-35-41-35" id="L"/><path fill="#2e2f27" d="M135-143c-3-34-86-38-87 0 15 53 115 12 119 90S17 21 10-45l28-5c4 36 97 45 98 0-10-56-113-15-118-90-4-57 82-63 122-42 12 7 21 19 24 35" id="M"/><g id="l"><use transform="matrix(0.04999999999999987,0,0,0.04999999999999987,0,0)" xlink:href="#K"/><use transform="matrix(0.04999999999999987,0,0,0.04999999999999987,10.94999999999997,0)" xlink:href="#E"/><use transform="matrix(0.04999999999999987,0,0,0.04999999999999987,16.899999999999956,0)" xlink:href="#D"/><use transform="matrix(0.04999999999999987,0,0,0.04999999999999987,26.899999999999924,0)" xlink:href="#u"/><use transform="matrix(0.04999999999999987,0,0,0.04999999999999987,36.8999999999999,0)" xlink:href="#L"/><use transform="matrix(0.04999999999999987,0,0,0.04999999999999987,45.89999999999988,0)" xlink:href="#r"/><use transform="matrix(0.04999999999999987,0,0,0.04999999999999987,49.849999999999866,0)" xlink:href="#M"/><use transform="matrix(0.04999999999999987,0,0,0.04999999999999987,58.849999999999845,0)" xlink:href="#L"/><use transform="matrix(0.04999999999999987,0,0,0.04999999999999987,67.84999999999982,0)" xlink:href="#z"/></g><g id="m"><use transform="matrix(0.04999999999999987,0,0,0.04999999999999987,0,0)" xlink:href="#H"/><use transform="matrix(0.04999999999999987,0,0,0.04999999999999987,10.499999999999973,0)" xlink:href="#C"/><use transform="matrix(0.04999999999999987,0,0,0.04999999999999987,20.499999999999947,0)" xlink:href="#I"/></g><g id="n"><use transform="matrix(0.04999999999999987,0,0,0.04999999999999987,0,0)" xlink:href="#H"/><use transform="matrix(0.04999999999999987,0,0,0.04999999999999987,10.499999999999973,0)" xlink:href="#J"/><use transform="matrix(0.04999999999999987,0,0,0.04999999999999987,15.49999999999996,0)" xlink:href="#C"/><use transform="matrix(0.04999999999999987,0,0,0.04999999999999987,25.499999999999936,0)" xlink:href="#I"/></g><path fill="#2e2f27" d="M185-189c-5-48-123-54-124 2 14 75 158 14 163 119 3 78-121 87-175 55-17-10-28-26-33-46l33-7c5 56 141 63 141-1 0-78-155-14-162-118-5-82 145-84 179-34 5 7 8 16 11 25" id="N"/><g id="o"><use transform="matrix(0.04999999999999987,0,0,0.04999999999999987,0,0)" xlink:href="#N"/><use transform="matrix(0.04999999999999987,0,0,0.04999999999999987,11.99999999999997,0)" xlink:href="#D"/><use transform="matrix(0.04999999999999987,0,0,0.04999999999999987,21.999999999999943,0)" xlink:href="#u"/></g></defs></g></svg>