<svg xmlns="http://www.w3.org/2000/svg" xmlns:xlink="http://www.w3.org/1999/xlink" xmlns:lucid="lucid" width="1088.33" height="1083"><g transform="translate(-138.5 -18.5)" lucid:page-tab-id="0_0"><path d="M0 0h1870.87v1322.84H0z" fill="#fff"/><path d="M300 186a6 6 0 0 1 6-6h168a6 6 0 0 1 6 6v28a6 6 0 0 1-6 6H306a6 6 0 0 1-6-6z" stroke="#2e2f27" stroke-width="3" fill="#fff" fill-opacity="0"/><use xlink:href="#a" transform="matrix(1,0,0,1,305,185) translate(2.6000000000002075 18.149999999999963)"/><path d="M918.67 186a6 6 0 0 1 6-6H1042a6 6 0 0 1 6 6v28a6 6 0 0 1-6 6H924.67a6 6 0 0 1-6-6z" stroke="#2e2f27" stroke-width="3" fill="#fff" fill-opacity="0"/><use xlink:href="#b" transform="matrix(1,0,0,1,923.6666666666667,185) translate(-2.4499999999998323 18.59999999999999)"/><path d="M480 186a6 6 0 0 1 6-6h48a6 6 0 0 1 6 6v28a6 6 0 0 1-6 6h-48a6 6 0 0 1-6-6z" stroke="#2e2f27" stroke-width="3" fill="#fff" fill-opacity="0"/><use xlink:href="#c" transform="matrix(1,0,0,1,484.9999999999999,185) translate(4.575000000000056 18.149999999999963)"/><path d="M540 186a6 6 0 0 1 6-6h177.33a6 6 0 0 1 6 6v28a6 6 0 0 1-6 6H546a6 6 0 0 1-6-6z" stroke="#2e2f27" stroke-width="3" fill="#fff" fill-opacity="0"/><use xlink:href="#d" transform="matrix(1,0,0,1,545,185) translate(0.05000000000023874 18.149999999999963)"/><path d="M729.33 186a6 6 0 0 1 6-6h177.34a6 6 0 0 1 6 6v28a6 6 0 0 1-6 6H735.33a6 6 0 0 1-6-6z" stroke="#2e2f27" stroke-width="3" fill="#fff" fill-opacity="0"/><use xlink:href="#e" transform="matrix(1,0,0,1,734.3333333333333,185) translate(2.150000000000233 18.149999999999963)"/><use xlink:href="#f" transform="matrix(1,0,0,1,734.3333333333333,185) translate(12.150000000000206 18.149999999999963)"/><use xlink:href="#g" transform="matrix(1,0,0,1,734.3333333333333,185) translate(44.05000000000012 18.149999999999963)"/><use xlink:href="#h" transform="matrix(1,0,0,1,734.3333333333333,185) translate(63.00000000000007 18.149999999999963)"/><use xlink:href="#i" transform="matrix(1,0,0,1,734.3333333333333,185) translate(99.99999999999997 18.149999999999963)"/><path d="M660 46a6 6 0 0 1 6-6h37.33a6 6 0 0 1 6 6v28a6 6 0 0 1-6 6H666a6 6 0 0 1-6-6z" stroke="#2e2f27" stroke-width="3" fill="#fff" fill-opacity="0"/><path d="M685.62 81.8l280.12 90.98" stroke="#7b7d68" stroke-width="2" fill="none"/><path d="M685.33 82.77l-3.83-1.25v-.02h4.25z" stroke="#7b7d68" stroke-width=".05" fill="#7b7d68"/><path d="M980.26 177.5h-15l2.86-8.8z" stroke="#7b7d68" stroke-width="2" fill="#7b7d68"/><path d="M683.72 81.8l-276.15 90.92" stroke="#7b7d68" stroke-width="2" fill="none"/><path d="M687.83 81.5L684 82.78l-.4-1.27h4.23z" stroke="#7b7d68" stroke-width=".05" fill="#7b7d68"/><path d="M393.07 177.5l12.1-8.88 2.9 8.8z" stroke="#7b7d68" stroke-width="2" fill="#7b7d68"/><path d="M683.8 81.98l-157.63 87.54" stroke="#7b7d68" stroke-width="2" fill="none"/><path d="M684.26 82.87l-.77-1.37h3.23z" stroke="#7b7d68" stroke-width=".05" fill="#7b7d68"/><path d="M512.83 176.93l10.22-10.98 4.5 8.1z" stroke="#7b7d68" stroke-width="2" fill="#7b7d68"/><path d="M684.2 82.4l-41.06 79.65" stroke="#7b7d68" stroke-width="2" fill="none"/><path d="M685.1 82.87l-1.8-.92.24-.45h2.25z" stroke="#7b7d68" stroke-width=".05" fill="#7b7d68"/><path d="M636.15 175.62l2.42-14.8 8.24 4.25z" stroke="#7b7d68" stroke-width="2" fill="#7b7d68"/><path d="M685.5 82.07l123.32 85.86" stroke="#7b7d68" stroke-width="2" fill="none"/><path d="M684.94 82.9l-2.02-1.4h3z" stroke="#7b7d68" stroke-width=".05" fill="#7b7d68"/><path d="M821.34 176.65L807 172.3l5.28-7.6z" stroke="#7b7d68" stroke-width="2" fill="#7b7d68"/><path d="M1080 46a6 6 0 0 1 6-6h113.33a6 6 0 0 1 6 6v28a6 6 0 0 1-6 6H1086a6 6 0 0 1-6-6z" stroke="#fff" stroke-width="3" fill="#e8b46e"/><use xlink:href="#j" transform="matrix(1,0,0,1,1092,52) translate(34.05 14.4)"/><path d="M1077.5 60H729.34" stroke="#7b7d68" stroke-width="2" fill="none"/><path d="M1078.5 61h-1.03v-2h1.03z" stroke="#7b7d68" stroke-width=".05" fill="#7b7d68"/><path d="M714.07 60l14.26-4.63v9.27z" stroke="#7b7d68" stroke-width="2" fill="#7b7d68"/><path d="M1080 246a6 6 0 0 1 6-6h113.33a6 6 0 0 1 6 6v28a6 6 0 0 1-6 6H1086a6 6 0 0 1-6-6z" stroke="#fff" stroke-width="3" fill="#93cee1"/><use xlink:href="#k" transform="matrix(1,0,0,1,1092,252) translate(21.049999999999997 14.4)"/><path d="M1080 286a6 6 0 0 1 6-6h113.33a6 6 0 0 1 6 6v28a6 6 0 0 1-6 6H1086a6 6 0 0 1-6-6z" stroke="#fff" stroke-width="3" fill="#93cee1"/><use xlink:href="#l" transform="matrix(1,0,0,1,1092,292) translate(36.5 14.4)"/><path d="M1080 326a6 6 0 0 1 6-6h113.33a6 6 0 0 1 6 6v28a6 6 0 0 1-6 6H1086a6 6 0 0 1-6-6z" stroke="#fff" stroke-width="3" fill="#93cee1"/><use xlink:href="#k" transform="matrix(1,0,0,1,1092,332) translate(21.049999999999997 14.4)"/><path d="M1080 366a6 6 0 0 1 6-6h113.33a6 6 0 0 1 6 6v28a6 6 0 0 1-6 6H1086a6 6 0 0 1-6-6z" stroke="#fff" stroke-width="3" fill="#93cee1"/><use xlink:href="#l" transform="matrix(1,0,0,1,1092,372) translate(36.5 14.4)"/><path d="M1080 406a6 6 0 0 1 6-6h113.33a6 6 0 0 1 6 6v28a6 6 0 0 1-6 6H1086a6 6 0 0 1-6-6z" stroke="#fff" stroke-width="3" fill="#93cee1"/><use xlink:href="#k" transform="matrix(1,0,0,1,1092,412) translate(21.049999999999997 14.4)"/><path d="M1142.65 82.5l-2.63 137.5" stroke="#7b7d68" stroke-width="2" fill="none"/><path d="M1143.65 82.55l-2-.04.02-1h2z" stroke="#7b7d68" stroke-width=".05" fill="#7b7d68"/><path d="M1139.73 235.26l-4.36-14.35 9.27.2z" stroke="#7b7d68" stroke-width="2" fill="#7b7d68"/><path d="M1077.57 259.63l-77.08-31.2" stroke="#7b7d68" stroke-width="2" fill="none"/><path d="M1078.5 258.92v2.16l-1.33-.54.75-1.85z" stroke="#7b7d68" stroke-width=".05" fill="#7b7d68"/><path d="M986.33 222.7l14.97 1.07-3.48 8.6z" stroke="#7b7d68" stroke-width="2" fill="#7b7d68"/><path d="M1077.54 299.7l-235.86-72.75" stroke="#7b7d68" stroke-width="2" fill="none"/><path d="M1078.5 298.95v2.1l-1.28-.4.6-1.9z" stroke="#7b7d68" stroke-width=".05" fill="#7b7d68"/><path d="M827.1 222.45l15-.22-2.74 8.86z" stroke="#7b7d68" stroke-width="2" fill="#7b7d68"/><path d="M1077.53 339.74l-425-113.47" stroke="#7b7d68" stroke-width="2" fill="none"/><path d="M1078.5 338.96v2.08l-1.25-.34.52-1.93z" stroke="#7b7d68" stroke-width=".05" fill="#7b7d68"/><path d="M637.8 222.34l14.97-.8-2.4 8.95z" stroke="#7b7d68" stroke-width="2" fill="#7b7d68"/><path d="M1077.54 379.73L527.82 226.47" stroke="#7b7d68" stroke-width="2" fill="none"/><path d="M1078.5 378.96v2.08l-1.26-.35.54-1.94z" stroke="#7b7d68" stroke-width=".05" fill="#7b7d68"/><path d="M513.12 222.37l14.98-.63-2.5 8.92z" stroke="#7b7d68" stroke-width="2" fill="#7b7d68"/><path d="M1077.54 419.72l-669.76-193.1" stroke="#7b7d68" stroke-width="2" fill="none"/><path d="M1078.5 418.96v2.08l-1.26-.36.55-1.93z" stroke="#7b7d68" stroke-width=".05" fill="#7b7d68"/><path d="M393.1 222.4l15-.5-2.57 8.9z" stroke="#7b7d68" stroke-width="2" fill="#7b7d68"/><path d="M320 646a6 6 0 0 1 6-6h68a6 6 0 0 1 6 6v28a6 6 0 0 1-6 6h-68a6 6 0 0 1-6-6z" stroke="#2e2f27" stroke-width="3" fill="#fff" fill-opacity="0"/><use xlink:href="#m" transform="matrix(1,0,0,1,325,645) translate(10.550000000000065 18.149999999999963)"/><path d="M400 646a6 6 0 0 1 6-6h48a6 6 0 0 1 6 6v28a6 6 0 0 1-6 6h-48a6 6 0 0 1-6-6z" stroke="#2e2f27" stroke-width="3" fill="#fff" fill-opacity="0"/><use xlink:href="#c" transform="matrix(1,0,0,1,404.99999999999994,645) translate(4.575000000000056 18.149999999999963)"/><path d="M700 646a6 6 0 0 1 6-6h177.33a6 6 0 0 1 6 6v28a6 6 0 0 1-6 6H706a6 6 0 0 1-6-6z" stroke="#2e2f27" stroke-width="3" fill="#fff" fill-opacity="0"/><use xlink:href="#e" transform="matrix(1,0,0,1,705,645) translate(2.150000000000233 18.149999999999963)"/><use xlink:href="#f" transform="matrix(1,0,0,1,705,645) translate(12.150000000000206 18.149999999999963)"/><use xlink:href="#g" transform="matrix(1,0,0,1,705,645) translate(44.05000000000012 18.149999999999963)"/><use xlink:href="#h" transform="matrix(1,0,0,1,705,645) translate(63.00000000000007 18.149999999999963)"/><use xlink:href="#i" transform="matrix(1,0,0,1,705,645) translate(99.99999999999997 18.149999999999963)"/><path d="M540 506a6 6 0 0 1 6-6h37.33a6 6 0 0 1 6 6v28a6 6 0 0 1-6 6H546a6 6 0 0 1-6-6z" stroke="#2e2f27" stroke-width="3" fill="#fff" fill-opacity="0"/><path d="M1080 506a6 6 0 0 1 6-6h113.33a6 6 0 0 1 6 6v28a6 6 0 0 1-6 6H1086a6 6 0 0 1-6-6z" stroke="#fff" stroke-width="3" fill="#e8b46e"/><use xlink:href="#j" transform="matrix(1,0,0,1,1091.9999999999998,512) translate(34.05 14.4)"/><path d="M1077.5 520H609.34" stroke="#7b7d68" stroke-width="2" fill="none"/><path d="M1078.5 521h-1.03v-2h1.03z" stroke="#7b7d68" stroke-width=".05" fill="#7b7d68"/><path d="M594.07 520l14.26-4.63v9.26z" stroke="#7b7d68" stroke-width="2" fill="#7b7d68"/><path d="M1080 686a6 6 0 0 1 6-6h113.33a6 6 0 0 1 6 6v28a6 6 0 0 1-6 6H1086a6 6 0 0 1-6-6z" stroke="#fff" stroke-width="3" fill="#93cee1"/><use xlink:href="#n" transform="matrix(1,0,0,1,1091.9999999999998,692) translate(23.5 14.4)"/><path d="M1080 726a6 6 0 0 1 6-6h113.33a6 6 0 0 1 6 6v28a6 6 0 0 1-6 6H1086a6 6 0 0 1-6-6z" stroke="#fff" stroke-width="3" fill="#93cee1"/><use xlink:href="#n" transform="matrix(1,0,0,1,1091.9999999999998,732) translate(23.5 14.4)"/><path d="M1080 766a6 6 0 0 1 6-6h113.33a6 6 0 0 1 6 6v28a6 6 0 0 1-6 6H1086a6 6 0 0 1-6-6z" stroke="#fff" stroke-width="3" fill="#93cee1"/><use xlink:href="#l" transform="matrix(1,0,0,1,1091.9999999999998,772) translate(36.5 14.4)"/><path d="M1142.67 542.5V660" stroke="#7b7d68" stroke-width="2" fill="none"/><path d="M1143.67 542.53h-2v-1.03h2z" stroke="#7b7d68" stroke-width=".05" fill="#7b7d68"/><path d="M1142.67 675.26l-4.64-14.26h9.27z" stroke="#7b7d68" stroke-width="2" fill="#7b7d68"/><path d="M160 646a6 6 0 0 1 6-6h68a6 6 0 0 1 6 6v28a6 6 0 0 1-6 6h-68a6 6 0 0 1-6-6z" stroke="#2e2f27" stroke-width="3" fill="#fff" fill-opacity="0"/><use xlink:href="#o" transform="matrix(1,0,0,1,165,645) translate(7.550000000000072 18.149999999999963)"/><path d="M240 646a6 6 0 0 1 6-6h68a6 6 0 0 1 6 6v28a6 6 0 0 1-6 6h-68a6 6 0 0 1-6-6z" stroke="#2e2f27" stroke-width="3" fill="#fff" fill-opacity="0"/><use xlink:href="#p" transform="matrix(1,0,0,1,245,645) translate(4.500000000000082 18.149999999999963)"/><path d="M460 646a6 6 0 0 1 6-6h68a6 6 0 0 1 6 6v28a6 6 0 0 1-6 6h-68a6 6 0 0 1-6-6z" stroke="#2e2f27" stroke-width="3" fill="#fff" fill-opacity="0"/><use xlink:href="#q" transform="matrix(1,0,0,1,465.00000000000006,645) translate(8.050000000000072 18.149999999999963)"/><path d="M620 646a6 6 0 0 1 6-6h68a6 6 0 0 1 6 6v28a6 6 0 0 1-6 6h-68a6 6 0 0 1-6-6z" stroke="#2e2f27" stroke-width="3" fill="#fff" fill-opacity="0"/><use xlink:href="#r" transform="matrix(1,0,0,1,625,645) translate(5.000000000000078 18.149999999999963)"/><path d="M540 646a6 6 0 0 1 6-6h68a6 6 0 0 1 6 6v28a6 6 0 0 1-6 6h-68a6 6 0 0 1-6-6z" stroke="#2e2f27" stroke-width="3" fill="#fff" fill-opacity="0"/><use xlink:href="#s" transform="matrix(1,0,0,1,545,645) translate(2.0000000000000853 18.149999999999963)"/><path d="M890.67 646a6 6 0 0 1 6-6h68a6 6 0 0 1 6 6v28a6 6 0 0 1-6 6h-68a6 6 0 0 1-6-6z" stroke="#2e2f27" stroke-width="3" fill="#fff" fill-opacity="0"/><use xlink:href="#t" transform="matrix(1,0,0,1,895.6666666666667,645) translate(2.5000000000000853 18.149999999999963)"/><path d="M970.67 646a6 6 0 0 1 6-6h68a6 6 0 0 1 6 6v28a6 6 0 0 1-6 6h-68a6 6 0 0 1-6-6z" stroke="#2e2f27" stroke-width="3" fill="#fff" fill-opacity="0"/><use xlink:href="#u" transform="matrix(1,0,0,1,975.6666666666667,645) translate(5.050000000000079 18.149999999999963)"/><path d="M1080 806a6 6 0 0 1 6-6h113.33a6 6 0 0 1 6 6v28a6 6 0 0 1-6 6H1086a6 6 0 0 1-6-6z" stroke="#fff" stroke-width="3" fill="#93cee1"/><use xlink:href="#v" transform="matrix(1,0,0,1,1091.9999999999998,812) translate(16.525 14.4)"/><path d="M1080 846a6 6 0 0 1 6-6h113.33a6 6 0 0 1 6 6v28a6 6 0 0 1-6 6H1086a6 6 0 0 1-6-6z" stroke="#fff" stroke-width="3" fill="#93cee1"/><use xlink:href="#n" transform="matrix(1,0,0,1,1091.9999999999998,852) translate(23.5 14.4)"/><path d="M1080 886a6 6 0 0 1 6-6h113.33a6 6 0 0 1 6 6v28a6 6 0 0 1-6 6H1086a6 6 0 0 1-6-6z" stroke="#fff" stroke-width="3" fill="#93cee1"/><use xlink:href="#n" transform="matrix(1,0,0,1,1091.9999999999998,892) translate(23.5 14.4)"/><path d="M1080 926a6 6 0 0 1 6-6h113.33a6 6 0 0 1 6 6v28a6 6 0 0 1-6 6H1086a6 6 0 0 1-6-6z" stroke="#fff" stroke-width="3" fill="#93cee1"/><use xlink:href="#l" transform="matrix(1,0,0,1,1091.9999999999998,932) translate(36.5 14.4)"/><path d="M1080 966a6 6 0 0 1 6-6h113.33a6 6 0 0 1 6 6v28a6 6 0 0 1-6 6H1086a6 6 0 0 1-6-6z" stroke="#fff" stroke-width="3" fill="#93cee1"/><use xlink:href="#v" transform="matrix(1,0,0,1,1091.9999999999998,972) translate(16.525 14.4)"/><path d="M1080 1006a6 6 0 0 1 6-6h113.33a6 6 0 0 1 6 6v28a6 6 0 0 1-6 6H1086a6 6 0 0 1-6-6z" stroke="#fff" stroke-width="3" fill="#93cee1"/><use xlink:href="#v" transform="matrix(1,0,0,1,1091.9999999999998,1012) translate(16.525 14.4)"/><path d="M1080 1046a6 6 0 0 1 6-6h113.33a6 6 0 0 1 6 6v28a6 6 0 0 1-6 6H1086a6 6 0 0 1-6-6z" stroke="#fff" stroke-width="3" fill="#93cee1"/><use xlink:href="#v" transform="matrix(1,0,0,1,1091.9999999999998,1052) translate(16.525 14.4)"/><path d="M563.72 541.82l-266.2 90.7" stroke="#7b7d68" stroke-width="2" fill="none"/><path d="M564.02 542.78l-.44-1.28h4.2z" stroke="#7b7d68" stroke-width=".05" fill="#7b7d68"/><path d="M283.06 637.46l12-9 3 8.78z" stroke="#7b7d68" stroke-width="2" fill="#7b7d68"/><path d="M566.1 541.94l-179.5 88.4" stroke="#7b7d68" stroke-width="2" fill="none"/><path d="M566.52 542.85l-.66-1.35h3.4z" stroke="#7b7d68" stroke-width=".05" fill="#7b7d68"/><path d="M372.9 637.07l10.75-10.46 4.1 8.33z" stroke="#7b7d68" stroke-width="2" fill="#7b7d68"/><path d="M563.86 542.08L445 627.68" stroke="#7b7d68" stroke-width="2" fill="none"/><path d="M564.42 542.9l-1.02-1.4h2.98z" stroke="#7b7d68" stroke-width=".05" fill="#7b7d68"/><path d="M432.63 636.6l8.86-12.1 5.4 7.53z" stroke="#7b7d68" stroke-width="2" fill="#7b7d68"/><path d="M564.1 542.33l-53.84 80.78" stroke="#7b7d68" stroke-width="2" fill="none"/><path d="M564.93 542.9l-1.66-1.1.2-.3h2.4z" stroke="#7b7d68" stroke-width=".05" fill="#7b7d68"/><path d="M501.8 635.8l4.05-14.43 7.72 5.14z" stroke="#7b7d68" stroke-width="2" fill="#7b7d68"/><path d="M564.84 542.5l13.63 77.78" stroke="#7b7d68" stroke-width="2" fill="none"/><path d="M565.83 542.34l-1.97.34-.2-1.18h2.02z" stroke="#7b7d68" stroke-width=".05" fill="#7b7d68"/><path d="M581.1 635.3l-7.02-13.24 9.13-1.6z" stroke="#7b7d68" stroke-width="2" fill="#7b7d68"/><path d="M565.37 542.2l81.66 83.1" stroke="#7b7d68" stroke-width="2" fill="none"/><path d="M566.1 541.53l-1.43 1.4-1.4-1.43h2.8z" stroke="#7b7d68" stroke-width=".05" fill="#7b7d68"/><path d="M657.73 636.2l-13.3-6.93 6.6-6.5z" stroke="#7b7d68" stroke-width="2" fill="#7b7d68"/><path d="M565.56 541.95l177.23 88.3" stroke="#7b7d68" stroke-width="2" fill="none"/><path d="M565.14 542.85l-2.72-1.35h3.4z" stroke="#7b7d68" stroke-width=".05" fill="#7b7d68"/><path d="M756.45 637.06l-14.84-2.22 4.15-8.3z" stroke="#7b7d68" stroke-width="2" fill="#7b7d68"/><path d="M565.63 541.76l347.15 92" stroke="#7b7d68" stroke-width="2" fill="none"/><path d="M565.4 542.73l-3.9-1.03.06-.2h4.17z" stroke="#7b7d68" stroke-width=".05" fill="#7b7d68"/><path d="M927.54 637.67l-14.98.83 2.38-8.96z" stroke="#7b7d68" stroke-width="2" fill="#7b7d68"/><path d="M565.64 541.7l426.95 92.87" stroke="#7b7d68" stroke-width="2" fill="none"/><path d="M565.46 542.7l-3.94-.86.08-.34h4.12z" stroke="#7b7d68" stroke-width=".05" fill="#7b7d68"/><path d="M1007.5 637.8l-14.92 1.5 1.97-9.05z" stroke="#7b7d68" stroke-width="2" fill="#7b7d68"/><path d="M563.7 541.76l-345.82 91.98" stroke="#7b7d68" stroke-width="2" fill="none"/><path d="M567.82 541.7l-3.9 1.03-.3-1.23h4.15z" stroke="#7b7d68" stroke-width=".05" fill="#7b7d68"/><path d="M203.13 637.67l12.6-8.15 2.38 8.96z" stroke="#7b7d68" stroke-width="2" fill="#7b7d68"/><path d="M1077.58 1059.6l-860.6-370.78" stroke="#7b7d68" stroke-width="2" fill="none"/><path d="M1078.5 1058.9v2.2l-1.34-.6.8-1.82z" stroke="#7b7d68" stroke-width=".05" fill="#7b7d68"/><path d="M202.97 682.78l14.94 1.4-3.66 8.5z" stroke="#7b7d68" stroke-width="2" fill="#7b7d68"/><path d="M1077.58 1019.6L297.04 688.73" stroke="#7b7d68" stroke-width="2" fill="none"/><path d="M1078.5 1018.9v2.2l-1.34-.58.8-1.84z" stroke="#7b7d68" stroke-width=".05" fill="#7b7d68"/><path d="M282.98 682.76l14.94 1.3-3.62 8.54z" stroke="#7b7d68" stroke-width="2" fill="#7b7d68"/><path d="M1077.58 979.62L377.08 688.6" stroke="#7b7d68" stroke-width="2" fill="none"/><path d="M1078.5 978.92v2.16l-1.33-.55.77-1.85z" stroke="#7b7d68" stroke-width=".05" fill="#7b7d68"/><path d="M363 682.74l14.94 1.2-3.56 8.55z" stroke="#7b7d68" stroke-width="2" fill="#7b7d68"/><path d="M1077.57 939.63L447.2 688.35" stroke="#7b7d68" stroke-width="2" fill="none"/><path d="M1078.5 938.92v2.16l-1.32-.53.74-1.86z" stroke="#7b7d68" stroke-width=".05" fill="#7b7d68"/><path d="M433 682.7l14.97.97-3.43 8.62z" stroke="#7b7d68" stroke-width="2" fill="#7b7d68"/><path d="M1077.57 899.65L517.3 688.05" stroke="#7b7d68" stroke-width="2" fill="none"/><path d="M1078.5 898.93v2.14l-1.3-.5.7-1.87z" stroke="#7b7d68" stroke-width=".05" fill="#7b7d68"/><path d="M503.03 682.64l14.98.7-3.26 8.68z" stroke="#7b7d68" stroke-width="2" fill="#7b7d68"/><path d="M1077.56 859.66L597.42 687.74" stroke="#7b7d68" stroke-width="2" fill="none"/><path d="M1078.5 858.94v2.12l-1.3-.46.67-1.9z" stroke="#7b7d68" stroke-width=".05" fill="#7b7d68"/><path d="M583.05 682.6l15 .44-3.13 8.72z" stroke="#7b7d68" stroke-width="2" fill="#7b7d68"/><path d="M1077.55 819.7L677.57 687.3" stroke="#7b7d68" stroke-width="2" fill="none"/><path d="M1078.5 818.95v2.1l-1.3-.42.64-1.9z" stroke="#7b7d68" stroke-width=".05" fill="#7b7d68"/><path d="M663.07 682.52l15 .08-2.9 8.8z" stroke="#7b7d68" stroke-width="2" fill="#7b7d68"/><path d="M1077.56 779.67l-265.4-92.1" stroke="#7b7d68" stroke-width="2" fill="none"/><path d="M1078.5 778.94v2.12l-1.3-.45.66-1.88z" stroke="#7b7d68" stroke-width=".05" fill="#7b7d68"/><path d="M797.72 682.56l15 .3-3.04 8.76z" stroke="#7b7d68" stroke-width="2" fill="#7b7d68"/><path d="M1077.57 739.63l-129.7-51.32" stroke="#7b7d68" stroke-width="2" fill="none"/><path d="M1078.5 738.92v2.16l-1.32-.53.73-1.86z" stroke="#7b7d68" stroke-width=".05" fill="#7b7d68"/><path d="M933.68 682.7l14.97.93-3.4 8.62z" stroke="#7b7d68" stroke-width="2" fill="#7b7d68"/><path d="M1077.54 699.74l-49.02-13.37" stroke="#7b7d68" stroke-width="2" fill="none"/><path d="M1078.5 698.96v2.08l-1.25-.34.52-1.94z" stroke="#7b7d68" stroke-width=".05" fill="#7b7d68"/><path d="M1013.8 682.35l14.97-.72-2.44 8.95z" stroke="#7b7d68" stroke-width="2" fill="#7b7d68"/><path d="M634 320a6 6 0 0 1 6 6v36a6 6 0 0 0 6 6h28a2.3 2.3 0 0 1 1.54 4l-71.08 64a6.67 6.67 0 0 1-8.92 0l-71.08-64a2.3 2.3 0 0 1 1.54-4h28a6 6 0 0 0 6-6v-36a6 6 0 0 1 6-6z" stroke="#7b7d68" stroke-width="3" fill="#fff"/><path d="M656.5 60.03l-71.96 1.06-31.5 1.93-22.53 2.35-17.55 2.58-14.27 2.7-11.9 2.8-10.13 2.82-8.74 2.83-7.62 2.84-6.73 2.83-5.98 2.8-5.37 2.82-4.83 2.78-4.4 2.78-3.98 2.78-3.67 2.77-3.37 2.8-3.1 2.8-2.87 2.8-2.68 2.83-2.47 2.87-2.3 2.9-2.16 2.97-2 3-1.88 3.1-1.73 3.16-1.63 3.25-1.5 3.36-1.37 3.48-1.26 3.62-1.14 3.78-1.02 3.96-.8 3.7" stroke="#ae6188" stroke-width="4" stroke-linejoin="round" fill="none"/><path d="M658.5 62l-2.02.03-.06-4 2.08-.03z" stroke="#ae6188" stroke-width=".05" fill="#ae6188"/><path d="M390.6 172.06l-3.3-14.64 9.23.86z" stroke="#ae6188" stroke-width="4" fill="#ae6188"/><path d="M390.04 223.5v.43l.16 2.35.24 2.3.33 2.23.42 2.2.5 2.15.58 2.1.68 2.1.77 2.06.86 2.06.95 2.04 1.06 2.03 1.18 2.02 1.3 2.03 1.4 2.04 1.56 2.04 1.7 2.06 1.87 2.08 2.06 2.1 2.25 2.1 2.5 2.15 2.72 2.16 3 2.2 3.33 2.2 3.67 2.2 4.05 2.24 4.48 2.22 4.96 2.2 5.48 2.17 6.02 2.1 6.62 2 7.22 1.84 7.82 1.66 8.4 1.42 8.88 1.12 9.28.78 9.55.4h9.62l9.53-.4 9.3-.78 8.88-1.12 8.4-1.42 7.8-1.66 7.23-1.85 6.62-2 6.02-2.1 5.47-2.16 4.95-2.2 4.47-2.22 4.06-2.23 3.66-2.2 3.3-2.2 3.02-2.2 2.73-2.16 2.47-2.14 2.26-2.1 2.05-2.1 1.87-2.08 1.7-2.06 1.55-2.05 1.42-2.02 1.3-2.03 1.16-2.03 1.06-2.03.9-1.9" stroke="#ae6188" stroke-width="4" stroke-linejoin="round" fill="none"/><path d="M392.04 223.5l-4 .1-.04-2.1h4z" stroke="#ae6188" stroke-width=".05" fill="#ae6188"/><path d="M634 227.83l1.6 14.92-9.07-1.9z" stroke="#ae6188" stroke-width="4" fill="#ae6188"/><path d="M634.7 223.5l.02.8.17 2.67.26 2.53.35 2.4.45 2.32.52 2.22.6 2.15.68 2.06.75 2.02.83 1.97.9 1.93 1 1.9 1.07 1.86 1.17 1.84 1.27 1.82 1.37 1.8 1.5 1.82 1.63 1.8 1.78 1.82 1.94 1.8 2.13 1.85 2.33 1.84 2.58 1.87 2.86 1.9 3.2 1.94 3.57 1.96 4.04 2 4.6 2.05 5.27 2.08 6.1 2.12 7.16 2.16 8.5 2.18 10.25 2.17 12.67 2.14 16.12 2 21.58 1.8 32.55 1.3 28.9.27 41.03-.7 19.57-1.2 13.44-1.4 10.2-1.5 8.14-1.54 6.75-1.57 5.7-1.6 4.9-1.58 4.27-1.6 3.78-1.58 3.38-1.6 3.03-1.57 2.77-1.6 2.5-1.58 2.3-1.6 2.13-1.6 1.96-1.64 1.83-1.63 1.7-1.67 1.6-1.7 1.48-1.72 1.4-1.78 1.33-1.82 1.25-1.87 1.18-1.93 1.1-2 1.04-2.1.97-2.2.9-2.28.85-2.43.62-2.1" stroke="#ae6188" stroke-width="4" stroke-linejoin="round" fill="none"/><path d="M636.7 223.5l-4 .1-.03-2.1h4z" stroke="#ae6188" stroke-width=".05" fill="#ae6188"/><path d="M982.5 227.92l2.77 14.74-9.2-1.2z" stroke="#ae6188" stroke-width="4" fill="#ae6188"/><defs><path fill="#2e2f27" d="M18-100v-36l175-74v27L42-118l151 64v27" id="w"/><path fill="#2e2f27" d="M106-169C34-169 62-67 57 0H25v-261h32l-1 103c12-21 28-36 61-36 89 0 53 116 60 194h-32v-121c2-32-8-49-39-48" id="x"/><path fill="#2e2f27" d="M59-47c-2 24 18 29 38 22v24C64 9 27 4 27-40v-127H5v-23h24l9-43h21v43h35v23H59v120" id="y"/><path fill="#2e2f27" d="M210-169c-67 3-38 105-44 169h-31v-121c0-29-5-50-35-48C34-165 62-65 56 0H25l-1-190h30c1 10-1 24 2 32 10-44 99-50 107 0 11-21 27-35 58-36 85-2 47 119 55 194h-31v-121c0-29-5-49-35-48" id="z"/><path fill="#2e2f27" d="M24 0v-261h32V0H24" id="A"/><path fill="#2e2f27" d="M18-27v-27l151-64-151-65v-27l175 74v36" id="B"/><path fill="#2e2f27" d="M100-194c63 0 86 42 84 106H49c0 40 14 67 53 68 26 1 43-12 49-29l28 8c-11 28-37 45-77 45C44 4 14-33 15-96c1-61 26-98 85-98zm52 81c6-60-76-77-97-28-3 7-6 17-6 28h103" id="C"/><path fill="#2e2f27" d="M141-36C126-15 110 5 73 4 37 3 15-17 15-53c-1-64 63-63 125-63 3-35-9-54-41-54-24 1-41 7-42 31l-33-3c5-37 33-52 76-52 45 0 72 20 72 64v82c-1 20 7 32 28 27v20c-31 9-61-2-59-35zM48-53c0 20 12 33 32 33 41-3 63-29 60-74-43 2-92-5-92 41" id="D"/><path fill="#2e2f27" d="M85-194c31 0 48 13 60 33l-1-100h32l1 261h-30c-2-10 0-23-3-31C134-8 116 4 85 4 32 4 16-35 15-94c0-66 23-100 70-100zm9 24c-40 0-46 34-46 75 0 40 6 74 45 74 42 0 51-32 51-76 0-42-9-74-50-73" id="E"/><path fill="#2e2f27" d="M24-231v-30h32v30H24zM24 0v-190h32V0H24" id="F"/><g id="a"><use transform="matrix(0.04999999999999987,0,0,0.04999999999999987,0,0)" xlink:href="#w"/><use transform="matrix(0.04999999999999987,0,0,0.04999999999999987,10.499999999999973,0)" xlink:href="#x"/><use transform="matrix(0.04999999999999987,0,0,0.04999999999999987,20.499999999999947,0)" xlink:href="#y"/><use transform="matrix(0.04999999999999987,0,0,0.04999999999999987,25.499999999999932,0)" xlink:href="#z"/><use transform="matrix(0.04999999999999987,0,0,0.04999999999999987,40.449999999999896,0)" xlink:href="#A"/><use transform="matrix(0.04999999999999987,0,0,0.04999999999999987,44.399999999999885,0)" xlink:href="#B"/><use transform="matrix(0.04999999999999987,0,0,0.04999999999999987,54.89999999999986,0)" xlink:href="#w"/><use transform="matrix(0.04999999999999987,0,0,0.04999999999999987,65.39999999999984,0)" xlink:href="#x"/><use transform="matrix(0.04999999999999987,0,0,0.04999999999999987,75.3999999999998,0)" xlink:href="#C"/><use transform="matrix(0.04999999999999987,0,0,0.04999999999999987,85.39999999999978,0)" xlink:href="#D"/><use transform="matrix(0.04999999999999987,0,0,0.04999999999999987,95.39999999999975,0)" xlink:href="#E"/><use transform="matrix(0.04999999999999987,0,0,0.04999999999999987,105.39999999999972,0)" xlink:href="#B"/><use transform="matrix(0.04999999999999987,0,0,0.04999999999999987,115.89999999999971,0)" xlink:href="#w"/><use transform="matrix(0.04999999999999987,0,0,0.04999999999999987,126.39999999999968,0)" xlink:href="#y"/><use transform="matrix(0.04999999999999987,0,0,0.04999999999999987,131.39999999999966,0)" xlink:href="#F"/><use transform="matrix(0.04999999999999987,0,0,0.04999999999999987,135.34999999999965,0)" xlink:href="#y"/><use transform="matrix(0.04999999999999987,0,0,0.04999999999999987,140.34999999999965,0)" xlink:href="#A"/><use transform="matrix(0.04999999999999987,0,0,0.04999999999999987,144.29999999999964,0)" xlink:href="#C"/><use transform="matrix(0.04999999999999987,0,0,0.04999999999999987,154.2999999999996,0)" xlink:href="#B"/></g><path fill="#2e2f27" d="M0 4l72-265h28L28 4H0" id="G"/><path fill="#2e2f27" d="M115-194c53 0 69 39 70 98 0 66-23 100-70 100C84 3 66-7 56-30L54 0H23l1-261h32v101c10-23 28-34 59-34zm-8 174c40 0 45-34 45-75 0-40-5-75-45-74-42 0-51 32-51 76 0 43 10 73 51 73" id="H"/><path fill="#2e2f27" d="M100-194c62-1 85 37 85 99 1 63-27 99-86 99S16-35 15-95c0-66 28-99 85-99zM99-20c44 1 53-31 53-75 0-43-8-75-51-75s-53 32-53 75 10 74 51 75" id="I"/><path fill="#2e2f27" d="M179-190L93 31C79 59 56 82 12 73V49c39 6 53-20 64-50L1-190h34L92-34l54-156h33" id="J"/><g id="b"><use transform="matrix(0.04999999999999987,0,0,0.04999999999999987,0,0)" xlink:href="#w"/><use transform="matrix(0.04999999999999987,0,0,0.04999999999999987,10.499999999999973,0)" xlink:href="#G"/><use transform="matrix(0.04999999999999987,0,0,0.04999999999999987,15.49999999999996,0)" xlink:href="#H"/><use transform="matrix(0.04999999999999987,0,0,0.04999999999999987,25.499999999999936,0)" xlink:href="#I"/><use transform="matrix(0.04999999999999987,0,0,0.04999999999999987,35.49999999999991,0)" xlink:href="#E"/><use transform="matrix(0.04999999999999987,0,0,0.04999999999999987,45.49999999999988,0)" xlink:href="#J"/><use transform="matrix(0.04999999999999987,0,0,0.04999999999999987,54.49999999999986,0)" xlink:href="#B"/><use transform="matrix(0.04999999999999987,0,0,0.04999999999999987,64.99999999999983,0)" xlink:href="#w"/><use transform="matrix(0.04999999999999987,0,0,0.04999999999999987,75.4999999999998,0)" xlink:href="#G"/><use transform="matrix(0.04999999999999987,0,0,0.04999999999999987,80.49999999999979,0)" xlink:href="#x"/><use transform="matrix(0.04999999999999987,0,0,0.04999999999999987,90.49999999999976,0)" xlink:href="#y"/><use transform="matrix(0.04999999999999987,0,0,0.04999999999999987,95.49999999999974,0)" xlink:href="#z"/><use transform="matrix(0.04999999999999987,0,0,0.04999999999999987,110.44999999999972,0)" xlink:href="#A"/><use transform="matrix(0.04999999999999987,0,0,0.04999999999999987,114.39999999999968,0)" xlink:href="#B"/></g><path fill="#2e2f27" d="M30-248c118-7 216 8 213 122C240-48 200 0 122 0H30v-248zM63-27c89 8 146-16 146-99s-60-101-146-95v194" id="K"/><path fill="#2e2f27" d="M114-163C36-179 61-72 57 0H25l-1-190h30c1 12-1 29 2 39 6-27 23-49 58-41v29" id="L"/><g id="c"><use transform="matrix(0.04999999999999987,0,0,0.04999999999999987,0,0)" xlink:href="#K"/><use transform="matrix(0.04999999999999987,0,0,0.04999999999999987,12.949999999999967,0)" xlink:href="#F"/><use transform="matrix(0.04999999999999987,0,0,0.04999999999999987,16.899999999999956,0)" xlink:href="#D"/><use transform="matrix(0.04999999999999987,0,0,0.04999999999999987,26.899999999999924,0)" xlink:href="#L"/><use transform="matrix(0.04999999999999987,0,0,0.04999999999999987,32.84999999999991,0)" xlink:href="#J"/></g><g id="d"><use transform="matrix(0.04999999999999987,0,0,0.04999999999999987,0,0)" xlink:href="#w"/><use transform="matrix(0.04999999999999987,0,0,0.04999999999999987,10.499999999999973,0)" xlink:href="#G"/><use transform="matrix(0.04999999999999987,0,0,0.04999999999999987,15.49999999999996,0)" xlink:href="#y"/><use transform="matrix(0.04999999999999987,0,0,0.04999999999999987,20.499999999999947,0)" xlink:href="#F"/><use transform="matrix(0.04999999999999987,0,0,0.04999999999999987,24.449999999999935,0)" xlink:href="#y"/><use transform="matrix(0.04999999999999987,0,0,0.04999999999999987,29.449999999999918,0)" xlink:href="#A"/><use transform="matrix(0.04999999999999987,0,0,0.04999999999999987,33.39999999999991,0)" xlink:href="#C"/><use transform="matrix(0.04999999999999987,0,0,0.04999999999999987,43.399999999999885,0)" xlink:href="#B"/><use transform="matrix(0.04999999999999987,0,0,0.04999999999999987,53.899999999999864,0)" xlink:href="#w"/><use transform="matrix(0.04999999999999987,0,0,0.04999999999999987,64.39999999999984,0)" xlink:href="#G"/><use transform="matrix(0.04999999999999987,0,0,0.04999999999999987,69.39999999999982,0)" xlink:href="#x"/><use transform="matrix(0.04999999999999987,0,0,0.04999999999999987,79.39999999999979,0)" xlink:href="#C"/><use transform="matrix(0.04999999999999987,0,0,0.04999999999999987,89.39999999999976,0)" xlink:href="#D"/><use transform="matrix(0.04999999999999987,0,0,0.04999999999999987,99.39999999999974,0)" xlink:href="#E"/><use transform="matrix(0.04999999999999987,0,0,0.04999999999999987,109.39999999999972,0)" xlink:href="#B"/><use transform="matrix(0.04999999999999987,0,0,0.04999999999999987,119.89999999999966,0)" xlink:href="#w"/><use transform="matrix(0.04999999999999987,0,0,0.04999999999999987,130.39999999999966,0)" xlink:href="#H"/><use transform="matrix(0.04999999999999987,0,0,0.04999999999999987,140.39999999999964,0)" xlink:href="#I"/><use transform="matrix(0.04999999999999987,0,0,0.04999999999999987,150.3999999999996,0)" xlink:href="#E"/><use transform="matrix(0.04999999999999987,0,0,0.04999999999999987,160.39999999999958,0)" xlink:href="#J"/><use transform="matrix(0.04999999999999987,0,0,0.04999999999999987,169.39999999999955,0)" xlink:href="#B"/></g><path fill="#2e2f27" d="M33 0v-248h34V0H33" id="M"/><use transform="matrix(0.04999999999999987,0,0,0.04999999999999987,0,0)" xlink:href="#M" id="e"/><path fill="#2e2f27" d="M108 0H70L1-190h34L89-25l56-165h34" id="N"/><g id="f"><use transform="matrix(0.04999999999999987,0,0,0.04999999999999987,0,0)" xlink:href="#A"/><use transform="matrix(0.04999999999999987,0,0,0.04999999999999987,3.94999999999999,0)" xlink:href="#F"/><use transform="matrix(0.04999999999999987,0,0,0.04999999999999987,7.89999999999998,0)" xlink:href="#N"/><use transform="matrix(0.04999999999999987,0,0,0.04999999999999987,16.899999999999956,0)" xlink:href="#C"/></g><path fill="#2e2f27" d="M117-194c89-4 53 116 60 194h-32v-121c0-31-8-49-39-48C34-167 62-67 57 0H25l-1-190h30c1 10-1 24 2 32 11-22 29-35 61-36" id="O"/><g id="g"><use transform="matrix(0.04999999999999987,0,0,0.04999999999999987,0,0)" xlink:href="#F"/><use transform="matrix(0.04999999999999987,0,0,0.04999999999999987,3.94999999999999,0)" xlink:href="#O"/></g><path fill="#2e2f27" d="M185-189c-5-48-123-54-124 2 14 75 158 14 163 119 3 78-121 87-175 55-17-10-28-26-33-46l33-7c5 56 141 63 141-1 0-78-155-14-162-118-5-82 145-84 179-34 5 7 8 16 11 25" id="P"/><g id="h"><use transform="matrix(0.04999999999999987,0,0,0.04999999999999987,0,0)" xlink:href="#P"/><use transform="matrix(0.04999999999999987,0,0,0.04999999999999987,11.99999999999997,0)" xlink:href="#D"/><use transform="matrix(0.04999999999999987,0,0,0.04999999999999987,21.999999999999943,0)" xlink:href="#O"/></g><path fill="#2e2f27" d="M63-220v92h138v28H63V0H30v-248h175v28H63" id="Q"/><path fill="#2e2f27" d="M96-169c-40 0-48 33-48 73s9 75 48 75c24 0 41-14 43-38l32 2c-6 37-31 61-74 61-59 0-76-41-82-99-10-93 101-131 147-64 4 7 5 14 7 22l-32 3c-4-21-16-35-41-35" id="R"/><path fill="#2e2f27" d="M135-143c-3-34-86-38-87 0 15 53 115 12 119 90S17 21 10-45l28-5c4 36 97 45 98 0-10-56-113-15-118-90-4-57 82-63 122-42 12 7 21 19 24 35" id="S"/><g id="i"><use transform="matrix(0.04999999999999987,0,0,0.04999999999999987,0,0)" xlink:href="#Q"/><use transform="matrix(0.04999999999999987,0,0,0.04999999999999987,10.94999999999997,0)" xlink:href="#L"/><use transform="matrix(0.04999999999999987,0,0,0.04999999999999987,16.899999999999956,0)" xlink:href="#D"/><use transform="matrix(0.04999999999999987,0,0,0.04999999999999987,26.899999999999924,0)" xlink:href="#O"/><use transform="matrix(0.04999999999999987,0,0,0.04999999999999987,36.8999999999999,0)" xlink:href="#R"/><use transform="matrix(0.04999999999999987,0,0,0.04999999999999987,45.89999999999988,0)" xlink:href="#F"/><use transform="matrix(0.04999999999999987,0,0,0.04999999999999987,49.849999999999866,0)" xlink:href="#S"/><use transform="matrix(0.04999999999999987,0,0,0.04999999999999987,58.849999999999845,0)" xlink:href="#R"/><use transform="matrix(0.04999999999999987,0,0,0.04999999999999987,67.84999999999982,0)" xlink:href="#I"/></g><g id="j"><use transform="matrix(0.05,0,0,0.05,0,0)" xlink:href="#x"/><use transform="matrix(0.05,0,0,0.05,10,0)" xlink:href="#y"/><use transform="matrix(0.05,0,0,0.05,15,0)" xlink:href="#z"/><use transform="matrix(0.05,0,0,0.05,29.950000000000003,0)" xlink:href="#A"/></g><path fill="#2e2f27" d="M143 0L79-87 56-68V0H24v-261h32v163l83-92h37l-77 82L181 0h-38" id="T"/><path fill="#2e2f27" d="M84 4C-5 8 30-112 23-190h32v120c0 31 7 50 39 49 72-2 45-101 50-169h31l1 190h-30c-1-10 1-25-2-33-11 22-28 36-60 37" id="U"/><path fill="#2e2f27" d="M115-194c55 1 70 41 70 98S169 2 115 4C84 4 66-9 55-30l1 105H24l-1-265h31l2 30c10-21 28-34 59-34zm-8 174c40 0 45-34 45-75s-6-73-45-74c-42 0-51 32-51 76 0 43 10 73 51 73" id="V"/><g id="k"><use transform="matrix(0.05,0,0,0.05,0,0)" xlink:href="#z"/><use transform="matrix(0.05,0,0,0.05,14.950000000000001,0)" xlink:href="#D"/><use transform="matrix(0.05,0,0,0.05,24.950000000000003,0)" xlink:href="#L"/><use transform="matrix(0.05,0,0,0.05,30.900000000000002,0)" xlink:href="#T"/><use transform="matrix(0.05,0,0,0.05,39.900000000000006,0)" xlink:href="#U"/><use transform="matrix(0.05,0,0,0.05,49.900000000000006,0)" xlink:href="#V"/></g><path fill="#2e2f27" d="M141 0L90-78 38 0H4l68-98-65-92h35l48 74 47-74h35l-64 92 68 98h-35" id="W"/><g id="l"><use transform="matrix(0.05,0,0,0.05,0,0)" xlink:href="#y"/><use transform="matrix(0.05,0,0,0.05,5,0)" xlink:href="#C"/><use transform="matrix(0.05,0,0,0.05,15,0)" xlink:href="#W"/><use transform="matrix(0.05,0,0,0.05,24,0)" xlink:href="#y"/></g><g id="m"><use transform="matrix(0.04999999999999987,0,0,0.04999999999999987,0,0)" xlink:href="#w"/><use transform="matrix(0.04999999999999987,0,0,0.04999999999999987,10.499999999999973,0)" xlink:href="#y"/><use transform="matrix(0.04999999999999987,0,0,0.04999999999999987,15.49999999999996,0)" xlink:href="#F"/><use transform="matrix(0.04999999999999987,0,0,0.04999999999999987,19.44999999999995,0)" xlink:href="#y"/><use transform="matrix(0.04999999999999987,0,0,0.04999999999999987,24.449999999999935,0)" xlink:href="#A"/><use transform="matrix(0.04999999999999987,0,0,0.04999999999999987,28.399999999999928,0)" xlink:href="#C"/><use transform="matrix(0.04999999999999987,0,0,0.04999999999999987,38.3999999999999,0)" xlink:href="#B"/></g><path fill="#2e2f27" d="M177-190C167-65 218 103 67 71c-23-6-38-20-44-43l32-5c15 47 100 32 89-28v-30C133-14 115 1 83 1 29 1 15-40 15-95c0-56 16-97 71-98 29-1 48 16 59 35 1-10 0-23 2-32h30zM94-22c36 0 50-32 50-73 0-42-14-75-50-75-39 0-46 34-46 75s6 73 46 73" id="X"/><g id="n"><use transform="matrix(0.05,0,0,0.05,0,0)" xlink:href="#C"/><use transform="matrix(0.05,0,0,0.05,10,0)" xlink:href="#O"/><use transform="matrix(0.05,0,0,0.05,20,0)" xlink:href="#E"/><use transform="matrix(0.05,0,0,0.05,30,0)" xlink:href="#y"/><use transform="matrix(0.05,0,0,0.05,35,0)" xlink:href="#D"/><use transform="matrix(0.05,0,0,0.05,45,0)" xlink:href="#X"/></g><g id="o"><use transform="matrix(0.04999999999999987,0,0,0.04999999999999987,0,0)" xlink:href="#w"/><use transform="matrix(0.04999999999999987,0,0,0.04999999999999987,10.499999999999973,0)" xlink:href="#x"/><use transform="matrix(0.04999999999999987,0,0,0.04999999999999987,20.499999999999947,0)" xlink:href="#y"/><use transform="matrix(0.04999999999999987,0,0,0.04999999999999987,25.499999999999932,0)" xlink:href="#z"/><use transform="matrix(0.04999999999999987,0,0,0.04999999999999987,40.449999999999896,0)" xlink:href="#A"/><use transform="matrix(0.04999999999999987,0,0,0.04999999999999987,44.399999999999885,0)" xlink:href="#B"/></g><g id="p"><use transform="matrix(0.04999999999999987,0,0,0.04999999999999987,0,0)" xlink:href="#w"/><use transform="matrix(0.04999999999999987,0,0,0.04999999999999987,10.499999999999973,0)" xlink:href="#x"/><use transform="matrix(0.04999999999999987,0,0,0.04999999999999987,20.499999999999947,0)" xlink:href="#C"/><use transform="matrix(0.04999999999999987,0,0,0.04999999999999987,30.499999999999922,0)" xlink:href="#D"/><use transform="matrix(0.04999999999999987,0,0,0.04999999999999987,40.49999999999989,0)" xlink:href="#E"/><use transform="matrix(0.04999999999999987,0,0,0.04999999999999987,50.499999999999865,0)" xlink:href="#B"/></g><g id="q"><use transform="matrix(0.04999999999999987,0,0,0.04999999999999987,0,0)" xlink:href="#w"/><use transform="matrix(0.04999999999999987,0,0,0.04999999999999987,10.499999999999973,0)" xlink:href="#G"/><use transform="matrix(0.04999999999999987,0,0,0.04999999999999987,15.49999999999996,0)" xlink:href="#y"/><use transform="matrix(0.04999999999999987,0,0,0.04999999999999987,20.499999999999947,0)" xlink:href="#F"/><use transform="matrix(0.04999999999999987,0,0,0.04999999999999987,24.449999999999935,0)" xlink:href="#y"/><use transform="matrix(0.04999999999999987,0,0,0.04999999999999987,29.449999999999918,0)" xlink:href="#A"/><use transform="matrix(0.04999999999999987,0,0,0.04999999999999987,33.39999999999991,0)" xlink:href="#C"/><use transform="matrix(0.04999999999999987,0,0,0.04999999999999987,43.399999999999885,0)" xlink:href="#B"/></g><g id="r"><use transform="matrix(0.04999999999999987,0,0,0.04999999999999987,0,0)" xlink:href="#w"/><use transform="matrix(0.04999999999999987,0,0,0.04999999999999987,10.499999999999973,0)" xlink:href="#H"/><use transform="matrix(0.04999999999999987,0,0,0.04999999999999987,20.499999999999947,0)" xlink:href="#I"/><use transform="matrix(0.04999999999999987,0,0,0.04999999999999987,30.499999999999922,0)" xlink:href="#E"/><use transform="matrix(0.04999999999999987,0,0,0.04999999999999987,40.49999999999989,0)" xlink:href="#J"/><use transform="matrix(0.04999999999999987,0,0,0.04999999999999987,49.49999999999987,0)" xlink:href="#B"/></g><g id="s"><use transform="matrix(0.04999999999999987,0,0,0.04999999999999987,0,0)" xlink:href="#w"/><use transform="matrix(0.04999999999999987,0,0,0.04999999999999987,10.499999999999973,0)" xlink:href="#G"/><use transform="matrix(0.04999999999999987,0,0,0.04999999999999987,15.49999999999996,0)" xlink:href="#x"/><use transform="matrix(0.04999999999999987,0,0,0.04999999999999987,25.499999999999936,0)" xlink:href="#C"/><use transform="matrix(0.04999999999999987,0,0,0.04999999999999987,35.49999999999991,0)" xlink:href="#D"/><use transform="matrix(0.04999999999999987,0,0,0.04999999999999987,45.49999999999988,0)" xlink:href="#E"/><use transform="matrix(0.04999999999999987,0,0,0.04999999999999987,55.499999999999844,0)" xlink:href="#B"/></g><g id="t"><use transform="matrix(0.04999999999999987,0,0,0.04999999999999987,0,0)" xlink:href="#w"/><use transform="matrix(0.04999999999999987,0,0,0.04999999999999987,10.499999999999973,0)" xlink:href="#G"/><use transform="matrix(0.04999999999999987,0,0,0.04999999999999987,15.49999999999996,0)" xlink:href="#H"/><use transform="matrix(0.04999999999999987,0,0,0.04999999999999987,25.499999999999936,0)" xlink:href="#I"/><use transform="matrix(0.04999999999999987,0,0,0.04999999999999987,35.49999999999991,0)" xlink:href="#E"/><use transform="matrix(0.04999999999999987,0,0,0.04999999999999987,45.49999999999988,0)" xlink:href="#J"/><use transform="matrix(0.04999999999999987,0,0,0.04999999999999987,54.49999999999986,0)" xlink:href="#B"/></g><g id="u"><use transform="matrix(0.04999999999999987,0,0,0.04999999999999987,0,0)" xlink:href="#w"/><use transform="matrix(0.04999999999999987,0,0,0.04999999999999987,10.499999999999973,0)" xlink:href="#G"/><use transform="matrix(0.04999999999999987,0,0,0.04999999999999987,15.49999999999996,0)" xlink:href="#x"/><use transform="matrix(0.04999999999999987,0,0,0.04999999999999987,25.499999999999936,0)" xlink:href="#y"/><use transform="matrix(0.04999999999999987,0,0,0.04999999999999987,30.499999999999922,0)" xlink:href="#z"/><use transform="matrix(0.04999999999999987,0,0,0.04999999999999987,45.44999999999988,0)" xlink:href="#A"/><use transform="matrix(0.04999999999999987,0,0,0.04999999999999987,49.39999999999987,0)" xlink:href="#B"/></g><g id="v"><use transform="matrix(0.05,0,0,0.05,0,0)" xlink:href="#H"/><use transform="matrix(0.05,0,0,0.05,10,0)" xlink:href="#C"/><use transform="matrix(0.05,0,0,0.05,20,0)" xlink:href="#X"/><use transform="matrix(0.05,0,0,0.05,30,0)" xlink:href="#F"/><use transform="matrix(0.05,0,0,0.05,33.95,0)" xlink:href="#O"/><use transform="matrix(0.05,0,0,0.05,43.95,0)" xlink:href="#y"/><use transform="matrix(0.05,0,0,0.05,48.95,0)" xlink:href="#D"/><use transform="matrix(0.05,0,0,0.05,58.95,0)" xlink:href="#X"/></g></defs></g></svg>