<svg xmlns="http://www.w3.org/2000/svg" xmlns:xlink="http://www.w3.org/1999/xlink" xmlns:lucid="lucid" width="948.33" height="443"><g transform="translate(-278.5 -378.5)" lucid:page-tab-id="0_0"><path d="M0 0h1870.87v1322.84H0z" fill="#fff"/><path d="M300 546a6 6 0 0 1 6-6h168a6 6 0 0 1 6 6v28a6 6 0 0 1-6 6H306a6 6 0 0 1-6-6z" stroke="#2e2f27" stroke-width="3" fill="#fff" fill-opacity="0"/><use xlink:href="#a" transform="matrix(1,0,0,1,305,545) translate(2.6000000000002075 18.149999999999963)"/><path d="M918.67 546a6 6 0 0 1 6-6H1042a6 6 0 0 1 6 6v28a6 6 0 0 1-6 6H924.67a6 6 0 0 1-6-6z" stroke="#2e2f27" stroke-width="3" fill="#fff" fill-opacity="0"/><use xlink:href="#b" transform="matrix(1,0,0,1,923.6666666666667,545) translate(-2.4499999999998323 18.59999999999999)"/><path d="M480 546a6 6 0 0 1 6-6h48a6 6 0 0 1 6 6v28a6 6 0 0 1-6 6h-48a6 6 0 0 1-6-6z" stroke="#2e2f27" stroke-width="3" fill="#fff" fill-opacity="0"/><use xlink:href="#c" transform="matrix(1,0,0,1,484.9999999999999,545) translate(4.575000000000056 18.149999999999963)"/><path d="M540 546a6 6 0 0 1 6-6h177.33a6 6 0 0 1 6 6v28a6 6 0 0 1-6 6H546a6 6 0 0 1-6-6z" stroke="#2e2f27" stroke-width="3" fill="#fff" fill-opacity="0"/><use xlink:href="#d" transform="matrix(1,0,0,1,545,545) translate(0.05000000000023874 18.149999999999963)"/><path d="M729.33 546a6 6 0 0 1 6-6h177.34a6 6 0 0 1 6 6v28a6 6 0 0 1-6 6H735.33a6 6 0 0 1-6-6z" stroke="#2e2f27" stroke-width="3" fill="#fff" fill-opacity="0"/><use xlink:href="#e" transform="matrix(1,0,0,1,734.3333333333334,545) translate(2.150000000000233 18.149999999999963)"/><use xlink:href="#f" transform="matrix(1,0,0,1,734.3333333333334,545) translate(12.150000000000206 18.149999999999963)"/><use xlink:href="#g" transform="matrix(1,0,0,1,734.3333333333334,545) translate(44.05000000000012 18.149999999999963)"/><use xlink:href="#h" transform="matrix(1,0,0,1,734.3333333333334,545) translate(63.00000000000007 18.149999999999963)"/><use xlink:href="#i" transform="matrix(1,0,0,1,734.3333333333334,545) translate(99.99999999999997 18.149999999999963)"/><path d="M660 406a6 6 0 0 1 6-6h37.33a6 6 0 0 1 6 6v28a6 6 0 0 1-6 6H666a6 6 0 0 1-6-6z" stroke="#2e2f27" stroke-width="3" fill="#fff" fill-opacity="0"/><path d="M685.62 441.8l280.12 90.98" stroke="#7b7d68" stroke-width="2" fill="none"/><path d="M685.33 442.77l-3.83-1.25v-.02h4.25z" stroke="#7b7d68" stroke-width=".05" fill="#7b7d68"/><path d="M980.26 537.5h-15l2.86-8.82z" stroke="#7b7d68" stroke-width="2" fill="#7b7d68"/><path d="M683.72 441.8l-276.15 90.92" stroke="#7b7d68" stroke-width="2" fill="none"/><path d="M687.83 441.5l-3.83 1.27-.4-1.27h4.23z" stroke="#7b7d68" stroke-width=".05" fill="#7b7d68"/><path d="M393.07 537.5l12.1-8.88 2.9 8.8z" stroke="#7b7d68" stroke-width="2" fill="#7b7d68"/><path d="M683.8 442L526.16 529.5" stroke="#7b7d68" stroke-width="2" fill="none"/><path d="M684.26 442.87l-.77-1.37h3.23z" stroke="#7b7d68" stroke-width=".05" fill="#7b7d68"/><path d="M512.83 536.93l10.22-10.98 4.5 8.1z" stroke="#7b7d68" stroke-width="2" fill="#7b7d68"/><path d="M684.2 442.4l-41.06 79.65" stroke="#7b7d68" stroke-width="2" fill="none"/><path d="M685.1 442.87l-1.8-.92.24-.45h2.25z" stroke="#7b7d68" stroke-width=".05" fill="#7b7d68"/><path d="M636.15 535.62l2.42-14.8 8.24 4.25z" stroke="#7b7d68" stroke-width="2" fill="#7b7d68"/><path d="M685.5 442.07l123.32 85.86" stroke="#7b7d68" stroke-width="2" fill="none"/><path d="M684.94 442.9l-2.02-1.4h3z" stroke="#7b7d68" stroke-width=".05" fill="#7b7d68"/><path d="M821.34 536.65L807 532.3l5.28-7.6z" stroke="#7b7d68" stroke-width="2" fill="#7b7d68"/><path d="M920 406a6 6 0 0 1 6-6h113.33a6 6 0 0 1 6 6v28a6 6 0 0 1-6 6H926a6 6 0 0 1-6-6z" stroke="#fff" stroke-width="3" fill="#e8b46e"/><use xlink:href="#j" transform="matrix(1,0,0,1,932,412) translate(34.05 14.4)"/><path d="M917.5 420H729.34" stroke="#7b7d68" stroke-width="2" fill="none"/><path d="M918.5 421h-1.03v-2h1.03z" stroke="#7b7d68" stroke-width=".05" fill="#7b7d68"/><path d="M714.07 420l14.26-4.63v9.26z" stroke="#7b7d68" stroke-width="2" fill="#7b7d68"/><path d="M1080 606a6 6 0 0 1 6-6h113.33a6 6 0 0 1 6 6v28a6 6 0 0 1-6 6H1086a6 6 0 0 1-6-6z" stroke="#fff" stroke-width="3" fill="#93cee1"/><use xlink:href="#k" transform="matrix(1,0,0,1,1092,612) translate(21.049999999999997 14.4)"/><path d="M1080 646a6 6 0 0 1 6-6h113.33a6 6 0 0 1 6 6v28a6 6 0 0 1-6 6H1086a6 6 0 0 1-6-6z" stroke="#fff" stroke-width="3" fill="#93cee1"/><use xlink:href="#l" transform="matrix(1,0,0,1,1092,652) translate(36.5 14.4)"/><path d="M1080 686a6 6 0 0 1 6-6h113.33a6 6 0 0 1 6 6v28a6 6 0 0 1-6 6H1086a6 6 0 0 1-6-6z" stroke="#fff" stroke-width="3" fill="#93cee1"/><use xlink:href="#k" transform="matrix(1,0,0,1,1092,692) translate(21.049999999999997 14.4)"/><path d="M1080 726a6 6 0 0 1 6-6h113.33a6 6 0 0 1 6 6v28a6 6 0 0 1-6 6H1086a6 6 0 0 1-6-6z" stroke="#fff" stroke-width="3" fill="#93cee1"/><use xlink:href="#l" transform="matrix(1,0,0,1,1092,732) translate(36.5 14.4)"/><path d="M1080 766a6 6 0 0 1 6-6h113.33a6 6 0 0 1 6 6v28a6 6 0 0 1-6 6H1086a6 6 0 0 1-6-6z" stroke="#fff" stroke-width="3" fill="#93cee1"/><use xlink:href="#k" transform="matrix(1,0,0,1,1092,772) translate(21.049999999999997 14.4)"/><path d="M983.37 442.2l143.2 143.22" stroke="#7b7d68" stroke-width="2" fill="none"/><path d="M984.1 441.52l-1.42 1.4-1.43-1.42h2.83z" stroke="#7b7d68" stroke-width=".05" fill="#7b7d68"/><path d="M1137.38 596.2l-13.37-6.8 6.57-6.55z" stroke="#7b7d68" stroke-width="2" fill="#7b7d68"/><path d="M1077.57 619.63l-77.08-31.2" stroke="#7b7d68" stroke-width="2" fill="none"/><path d="M1078.5 618.92v2.16l-1.33-.54.75-1.85z" stroke="#7b7d68" stroke-width=".05" fill="#7b7d68"/><path d="M986.33 582.7l14.97 1.07-3.48 8.6z" stroke="#7b7d68" stroke-width="2" fill="#7b7d68"/><path d="M1077.54 659.7l-235.86-72.75" stroke="#7b7d68" stroke-width="2" fill="none"/><path d="M1078.5 658.95v2.1l-1.28-.4.6-1.9z" stroke="#7b7d68" stroke-width=".05" fill="#7b7d68"/><path d="M827.1 582.45l15-.22-2.74 8.86z" stroke="#7b7d68" stroke-width="2" fill="#7b7d68"/><path d="M1077.53 699.74l-425-113.47" stroke="#7b7d68" stroke-width="2" fill="none"/><path d="M1078.5 698.97v2.06l-1.25-.33.52-1.93z" stroke="#7b7d68" stroke-width=".05" fill="#7b7d68"/><path d="M637.8 582.34l14.97-.8-2.4 8.95z" stroke="#7b7d68" stroke-width="2" fill="#7b7d68"/><path d="M1077.54 739.73L527.82 586.47" stroke="#7b7d68" stroke-width="2" fill="none"/><path d="M1078.5 738.96v2.08l-1.26-.35.54-1.94z" stroke="#7b7d68" stroke-width=".05" fill="#7b7d68"/><path d="M513.12 582.37l14.98-.63-2.5 8.92z" stroke="#7b7d68" stroke-width="2" fill="#7b7d68"/><path d="M1077.54 779.72l-669.76-193.1" stroke="#7b7d68" stroke-width="2" fill="none"/><path d="M1078.5 778.96v2.08l-1.26-.36.55-1.92z" stroke="#7b7d68" stroke-width=".05" fill="#7b7d68"/><path d="M393.1 582.4l15-.5-2.57 8.9z" stroke="#7b7d68" stroke-width="2" fill="#7b7d68"/><defs><path fill="#2e2f27" d="M18-100v-36l175-74v27L42-118l151 64v27" id="m"/><path fill="#2e2f27" d="M106-169C34-169 62-67 57 0H25v-261h32l-1 103c12-21 28-36 61-36 89 0 53 116 60 194h-32v-121c2-32-8-49-39-48" id="n"/><path fill="#2e2f27" d="M59-47c-2 24 18 29 38 22v24C64 9 27 4 27-40v-127H5v-23h24l9-43h21v43h35v23H59v120" id="o"/><path fill="#2e2f27" d="M210-169c-67 3-38 105-44 169h-31v-121c0-29-5-50-35-48C34-165 62-65 56 0H25l-1-190h30c1 10-1 24 2 32 10-44 99-50 107 0 11-21 27-35 58-36 85-2 47 119 55 194h-31v-121c0-29-5-49-35-48" id="p"/><path fill="#2e2f27" d="M24 0v-261h32V0H24" id="q"/><path fill="#2e2f27" d="M18-27v-27l151-64-151-65v-27l175 74v36" id="r"/><path fill="#2e2f27" d="M100-194c63 0 86 42 84 106H49c0 40 14 67 53 68 26 1 43-12 49-29l28 8c-11 28-37 45-77 45C44 4 14-33 15-96c1-61 26-98 85-98zm52 81c6-60-76-77-97-28-3 7-6 17-6 28h103" id="s"/><path fill="#2e2f27" d="M141-36C126-15 110 5 73 4 37 3 15-17 15-53c-1-64 63-63 125-63 3-35-9-54-41-54-24 1-41 7-42 31l-33-3c5-37 33-52 76-52 45 0 72 20 72 64v82c-1 20 7 32 28 27v20c-31 9-61-2-59-35zM48-53c0 20 12 33 32 33 41-3 63-29 60-74-43 2-92-5-92 41" id="t"/><path fill="#2e2f27" d="M85-194c31 0 48 13 60 33l-1-100h32l1 261h-30c-2-10 0-23-3-31C134-8 116 4 85 4 32 4 16-35 15-94c0-66 23-100 70-100zm9 24c-40 0-46 34-46 75 0 40 6 74 45 74 42 0 51-32 51-76 0-42-9-74-50-73" id="u"/><path fill="#2e2f27" d="M24-231v-30h32v30H24zM24 0v-190h32V0H24" id="v"/><g id="a"><use transform="matrix(0.04999999999999987,0,0,0.04999999999999987,0,0)" xlink:href="#m"/><use transform="matrix(0.04999999999999987,0,0,0.04999999999999987,10.499999999999973,0)" xlink:href="#n"/><use transform="matrix(0.04999999999999987,0,0,0.04999999999999987,20.499999999999947,0)" xlink:href="#o"/><use transform="matrix(0.04999999999999987,0,0,0.04999999999999987,25.499999999999932,0)" xlink:href="#p"/><use transform="matrix(0.04999999999999987,0,0,0.04999999999999987,40.449999999999896,0)" xlink:href="#q"/><use transform="matrix(0.04999999999999987,0,0,0.04999999999999987,44.399999999999885,0)" xlink:href="#r"/><use transform="matrix(0.04999999999999987,0,0,0.04999999999999987,54.89999999999986,0)" xlink:href="#m"/><use transform="matrix(0.04999999999999987,0,0,0.04999999999999987,65.39999999999984,0)" xlink:href="#n"/><use transform="matrix(0.04999999999999987,0,0,0.04999999999999987,75.3999999999998,0)" xlink:href="#s"/><use transform="matrix(0.04999999999999987,0,0,0.04999999999999987,85.39999999999978,0)" xlink:href="#t"/><use transform="matrix(0.04999999999999987,0,0,0.04999999999999987,95.39999999999975,0)" xlink:href="#u"/><use transform="matrix(0.04999999999999987,0,0,0.04999999999999987,105.39999999999972,0)" xlink:href="#r"/><use transform="matrix(0.04999999999999987,0,0,0.04999999999999987,115.89999999999971,0)" xlink:href="#m"/><use transform="matrix(0.04999999999999987,0,0,0.04999999999999987,126.39999999999968,0)" xlink:href="#o"/><use transform="matrix(0.04999999999999987,0,0,0.04999999999999987,131.39999999999966,0)" xlink:href="#v"/><use transform="matrix(0.04999999999999987,0,0,0.04999999999999987,135.34999999999965,0)" xlink:href="#o"/><use transform="matrix(0.04999999999999987,0,0,0.04999999999999987,140.34999999999965,0)" xlink:href="#q"/><use transform="matrix(0.04999999999999987,0,0,0.04999999999999987,144.29999999999964,0)" xlink:href="#s"/><use transform="matrix(0.04999999999999987,0,0,0.04999999999999987,154.2999999999996,0)" xlink:href="#r"/></g><path fill="#2e2f27" d="M0 4l72-265h28L28 4H0" id="w"/><path fill="#2e2f27" d="M115-194c53 0 69 39 70 98 0 66-23 100-70 100C84 3 66-7 56-30L54 0H23l1-261h32v101c10-23 28-34 59-34zm-8 174c40 0 45-34 45-75 0-40-5-75-45-74-42 0-51 32-51 76 0 43 10 73 51 73" id="x"/><path fill="#2e2f27" d="M100-194c62-1 85 37 85 99 1 63-27 99-86 99S16-35 15-95c0-66 28-99 85-99zM99-20c44 1 53-31 53-75 0-43-8-75-51-75s-53 32-53 75 10 74 51 75" id="y"/><path fill="#2e2f27" d="M179-190L93 31C79 59 56 82 12 73V49c39 6 53-20 64-50L1-190h34L92-34l54-156h33" id="z"/><g id="b"><use transform="matrix(0.04999999999999987,0,0,0.04999999999999987,0,0)" xlink:href="#m"/><use transform="matrix(0.04999999999999987,0,0,0.04999999999999987,10.499999999999973,0)" xlink:href="#w"/><use transform="matrix(0.04999999999999987,0,0,0.04999999999999987,15.49999999999996,0)" xlink:href="#x"/><use transform="matrix(0.04999999999999987,0,0,0.04999999999999987,25.499999999999936,0)" xlink:href="#y"/><use transform="matrix(0.04999999999999987,0,0,0.04999999999999987,35.49999999999991,0)" xlink:href="#u"/><use transform="matrix(0.04999999999999987,0,0,0.04999999999999987,45.49999999999988,0)" xlink:href="#z"/><use transform="matrix(0.04999999999999987,0,0,0.04999999999999987,54.49999999999986,0)" xlink:href="#r"/><use transform="matrix(0.04999999999999987,0,0,0.04999999999999987,64.99999999999983,0)" xlink:href="#m"/><use transform="matrix(0.04999999999999987,0,0,0.04999999999999987,75.4999999999998,0)" xlink:href="#w"/><use transform="matrix(0.04999999999999987,0,0,0.04999999999999987,80.49999999999979,0)" xlink:href="#n"/><use transform="matrix(0.04999999999999987,0,0,0.04999999999999987,90.49999999999976,0)" xlink:href="#o"/><use transform="matrix(0.04999999999999987,0,0,0.04999999999999987,95.49999999999974,0)" xlink:href="#p"/><use transform="matrix(0.04999999999999987,0,0,0.04999999999999987,110.44999999999972,0)" xlink:href="#q"/><use transform="matrix(0.04999999999999987,0,0,0.04999999999999987,114.39999999999968,0)" xlink:href="#r"/></g><path fill="#2e2f27" d="M30-248c118-7 216 8 213 122C240-48 200 0 122 0H30v-248zM63-27c89 8 146-16 146-99s-60-101-146-95v194" id="A"/><path fill="#2e2f27" d="M114-163C36-179 61-72 57 0H25l-1-190h30c1 12-1 29 2 39 6-27 23-49 58-41v29" id="B"/><g id="c"><use transform="matrix(0.04999999999999987,0,0,0.04999999999999987,0,0)" xlink:href="#A"/><use transform="matrix(0.04999999999999987,0,0,0.04999999999999987,12.949999999999967,0)" xlink:href="#v"/><use transform="matrix(0.04999999999999987,0,0,0.04999999999999987,16.899999999999956,0)" xlink:href="#t"/><use transform="matrix(0.04999999999999987,0,0,0.04999999999999987,26.899999999999924,0)" xlink:href="#B"/><use transform="matrix(0.04999999999999987,0,0,0.04999999999999987,32.84999999999991,0)" xlink:href="#z"/></g><g id="d"><use transform="matrix(0.04999999999999987,0,0,0.04999999999999987,0,0)" xlink:href="#m"/><use transform="matrix(0.04999999999999987,0,0,0.04999999999999987,10.499999999999973,0)" xlink:href="#w"/><use transform="matrix(0.04999999999999987,0,0,0.04999999999999987,15.49999999999996,0)" xlink:href="#o"/><use transform="matrix(0.04999999999999987,0,0,0.04999999999999987,20.499999999999947,0)" xlink:href="#v"/><use transform="matrix(0.04999999999999987,0,0,0.04999999999999987,24.449999999999935,0)" xlink:href="#o"/><use transform="matrix(0.04999999999999987,0,0,0.04999999999999987,29.449999999999918,0)" xlink:href="#q"/><use transform="matrix(0.04999999999999987,0,0,0.04999999999999987,33.39999999999991,0)" xlink:href="#s"/><use transform="matrix(0.04999999999999987,0,0,0.04999999999999987,43.399999999999885,0)" xlink:href="#r"/><use transform="matrix(0.04999999999999987,0,0,0.04999999999999987,53.899999999999864,0)" xlink:href="#m"/><use transform="matrix(0.04999999999999987,0,0,0.04999999999999987,64.39999999999984,0)" xlink:href="#w"/><use transform="matrix(0.04999999999999987,0,0,0.04999999999999987,69.39999999999982,0)" xlink:href="#n"/><use transform="matrix(0.04999999999999987,0,0,0.04999999999999987,79.39999999999979,0)" xlink:href="#s"/><use transform="matrix(0.04999999999999987,0,0,0.04999999999999987,89.39999999999976,0)" xlink:href="#t"/><use transform="matrix(0.04999999999999987,0,0,0.04999999999999987,99.39999999999974,0)" xlink:href="#u"/><use transform="matrix(0.04999999999999987,0,0,0.04999999999999987,109.39999999999972,0)" xlink:href="#r"/><use transform="matrix(0.04999999999999987,0,0,0.04999999999999987,119.89999999999966,0)" xlink:href="#m"/><use transform="matrix(0.04999999999999987,0,0,0.04999999999999987,130.39999999999966,0)" xlink:href="#x"/><use transform="matrix(0.04999999999999987,0,0,0.04999999999999987,140.39999999999964,0)" xlink:href="#y"/><use transform="matrix(0.04999999999999987,0,0,0.04999999999999987,150.3999999999996,0)" xlink:href="#u"/><use transform="matrix(0.04999999999999987,0,0,0.04999999999999987,160.39999999999958,0)" xlink:href="#z"/><use transform="matrix(0.04999999999999987,0,0,0.04999999999999987,169.39999999999955,0)" xlink:href="#r"/></g><path fill="#2e2f27" d="M33 0v-248h34V0H33" id="C"/><use transform="matrix(0.04999999999999987,0,0,0.04999999999999987,0,0)" xlink:href="#C" id="e"/><path fill="#2e2f27" d="M108 0H70L1-190h34L89-25l56-165h34" id="D"/><g id="f"><use transform="matrix(0.04999999999999987,0,0,0.04999999999999987,0,0)" xlink:href="#q"/><use transform="matrix(0.04999999999999987,0,0,0.04999999999999987,3.94999999999999,0)" xlink:href="#v"/><use transform="matrix(0.04999999999999987,0,0,0.04999999999999987,7.89999999999998,0)" xlink:href="#D"/><use transform="matrix(0.04999999999999987,0,0,0.04999999999999987,16.899999999999956,0)" xlink:href="#s"/></g><path fill="#2e2f27" d="M117-194c89-4 53 116 60 194h-32v-121c0-31-8-49-39-48C34-167 62-67 57 0H25l-1-190h30c1 10-1 24 2 32 11-22 29-35 61-36" id="E"/><g id="g"><use transform="matrix(0.04999999999999987,0,0,0.04999999999999987,0,0)" xlink:href="#v"/><use transform="matrix(0.04999999999999987,0,0,0.04999999999999987,3.94999999999999,0)" xlink:href="#E"/></g><path fill="#2e2f27" d="M185-189c-5-48-123-54-124 2 14 75 158 14 163 119 3 78-121 87-175 55-17-10-28-26-33-46l33-7c5 56 141 63 141-1 0-78-155-14-162-118-5-82 145-84 179-34 5 7 8 16 11 25" id="F"/><g id="h"><use transform="matrix(0.04999999999999987,0,0,0.04999999999999987,0,0)" xlink:href="#F"/><use transform="matrix(0.04999999999999987,0,0,0.04999999999999987,11.99999999999997,0)" xlink:href="#t"/><use transform="matrix(0.04999999999999987,0,0,0.04999999999999987,21.999999999999943,0)" xlink:href="#E"/></g><path fill="#2e2f27" d="M63-220v92h138v28H63V0H30v-248h175v28H63" id="G"/><path fill="#2e2f27" d="M96-169c-40 0-48 33-48 73s9 75 48 75c24 0 41-14 43-38l32 2c-6 37-31 61-74 61-59 0-76-41-82-99-10-93 101-131 147-64 4 7 5 14 7 22l-32 3c-4-21-16-35-41-35" id="H"/><path fill="#2e2f27" d="M135-143c-3-34-86-38-87 0 15 53 115 12 119 90S17 21 10-45l28-5c4 36 97 45 98 0-10-56-113-15-118-90-4-57 82-63 122-42 12 7 21 19 24 35" id="I"/><g id="i"><use transform="matrix(0.04999999999999987,0,0,0.04999999999999987,0,0)" xlink:href="#G"/><use transform="matrix(0.04999999999999987,0,0,0.04999999999999987,10.94999999999997,0)" xlink:href="#B"/><use transform="matrix(0.04999999999999987,0,0,0.04999999999999987,16.899999999999956,0)" xlink:href="#t"/><use transform="matrix(0.04999999999999987,0,0,0.04999999999999987,26.899999999999924,0)" xlink:href="#E"/><use transform="matrix(0.04999999999999987,0,0,0.04999999999999987,36.8999999999999,0)" xlink:href="#H"/><use transform="matrix(0.04999999999999987,0,0,0.04999999999999987,45.89999999999988,0)" xlink:href="#v"/><use transform="matrix(0.04999999999999987,0,0,0.04999999999999987,49.849999999999866,0)" xlink:href="#I"/><use transform="matrix(0.04999999999999987,0,0,0.04999999999999987,58.849999999999845,0)" xlink:href="#H"/><use transform="matrix(0.04999999999999987,0,0,0.04999999999999987,67.84999999999982,0)" xlink:href="#y"/></g><g id="j"><use transform="matrix(0.05,0,0,0.05,0,0)" xlink:href="#n"/><use transform="matrix(0.05,0,0,0.05,10,0)" xlink:href="#o"/><use transform="matrix(0.05,0,0,0.05,15,0)" xlink:href="#p"/><use transform="matrix(0.05,0,0,0.05,29.950000000000003,0)" xlink:href="#q"/></g><path fill="#2e2f27" d="M143 0L79-87 56-68V0H24v-261h32v163l83-92h37l-77 82L181 0h-38" id="J"/><path fill="#2e2f27" d="M84 4C-5 8 30-112 23-190h32v120c0 31 7 50 39 49 72-2 45-101 50-169h31l1 190h-30c-1-10 1-25-2-33-11 22-28 36-60 37" id="K"/><path fill="#2e2f27" d="M115-194c55 1 70 41 70 98S169 2 115 4C84 4 66-9 55-30l1 105H24l-1-265h31l2 30c10-21 28-34 59-34zm-8 174c40 0 45-34 45-75s-6-73-45-74c-42 0-51 32-51 76 0 43 10 73 51 73" id="L"/><g id="k"><use transform="matrix(0.05,0,0,0.05,0,0)" xlink:href="#p"/><use transform="matrix(0.05,0,0,0.05,14.950000000000001,0)" xlink:href="#t"/><use transform="matrix(0.05,0,0,0.05,24.950000000000003,0)" xlink:href="#B"/><use transform="matrix(0.05,0,0,0.05,30.900000000000002,0)" xlink:href="#J"/><use transform="matrix(0.05,0,0,0.05,39.900000000000006,0)" xlink:href="#K"/><use transform="matrix(0.05,0,0,0.05,49.900000000000006,0)" xlink:href="#L"/></g><path fill="#2e2f27" d="M141 0L90-78 38 0H4l68-98-65-92h35l48 74 47-74h35l-64 92 68 98h-35" id="M"/><g id="l"><use transform="matrix(0.05,0,0,0.05,0,0)" xlink:href="#o"/><use transform="matrix(0.05,0,0,0.05,5,0)" xlink:href="#s"/><use transform="matrix(0.05,0,0,0.05,15,0)" xlink:href="#M"/><use transform="matrix(0.05,0,0,0.05,24,0)" xlink:href="#o"/></g></defs></g></svg>