<svg xmlns="http://www.w3.org/2000/svg" xmlns:xlink="http://www.w3.org/1999/xlink" xmlns:lucid="lucid" width="752.33" height="117.8"><g transform="translate(-418.5 -518.5)" lucid:page-tab-id="0_0"><path d="M0 0h1870.87v1322.84H0z" fill="#fff"/><path d="M440 546a6 6 0 0 1 6-6h697.33a6 6 0 0 1 6 6v62.8a6 6 0 0 1-6 6H446a6 6 0 0 1-6-6z" stroke="#000" stroke-opacity="0" stroke-width="3" fill="#fff" fill-opacity="0"/><use xlink:href="#a" transform="matrix(1,0,0,1,445,545) translate(6.4250000000006935 36.74374999999996)"/><use xlink:href="#b" transform="matrix(1,0,0,1,445,545) translate(402.9750000000001 36.74374999999996)"/><use xlink:href="#c" transform="matrix(1,0,0,1,445,545) translate(434.875 36.74374999999996)"/><use xlink:href="#d" transform="matrix(1,0,0,1,445,545) translate(453.82499999999993 36.74374999999996)"/><use xlink:href="#e" transform="matrix(1,0,0,1,445,545) translate(490.8249999999998 36.74374999999996)"/><defs><path fill="#2e2f27" d="M18-100v-36l175-74v27L42-118l151 64v27" id="f"/><path fill="#2e2f27" d="M106-169C34-169 62-67 57 0H25v-261h32l-1 103c12-21 28-36 61-36 89 0 53 116 60 194h-32v-121c2-32-8-49-39-48" id="g"/><path fill="#2e2f27" d="M59-47c-2 24 18 29 38 22v24C64 9 27 4 27-40v-127H5v-23h24l9-43h21v43h35v23H59v120" id="h"/><path fill="#2e2f27" d="M210-169c-67 3-38 105-44 169h-31v-121c0-29-5-50-35-48C34-165 62-65 56 0H25l-1-190h30c1 10-1 24 2 32 10-44 99-50 107 0 11-21 27-35 58-36 85-2 47 119 55 194h-31v-121c0-29-5-49-35-48" id="i"/><path fill="#2e2f27" d="M24 0v-261h32V0H24" id="j"/><path fill="#2e2f27" d="M18-27v-27l151-64-151-65v-27l175 74v36" id="k"/><path fill="#2e2f27" d="M100-194c63 0 86 42 84 106H49c0 40 14 67 53 68 26 1 43-12 49-29l28 8c-11 28-37 45-77 45C44 4 14-33 15-96c1-61 26-98 85-98zm52 81c6-60-76-77-97-28-3 7-6 17-6 28h103" id="l"/><path fill="#2e2f27" d="M141-36C126-15 110 5 73 4 37 3 15-17 15-53c-1-64 63-63 125-63 3-35-9-54-41-54-24 1-41 7-42 31l-33-3c5-37 33-52 76-52 45 0 72 20 72 64v82c-1 20 7 32 28 27v20c-31 9-61-2-59-35zM48-53c0 20 12 33 32 33 41-3 63-29 60-74-43 2-92-5-92 41" id="m"/><path fill="#2e2f27" d="M85-194c31 0 48 13 60 33l-1-100h32l1 261h-30c-2-10 0-23-3-31C134-8 116 4 85 4 32 4 16-35 15-94c0-66 23-100 70-100zm9 24c-40 0-46 34-46 75 0 40 6 74 45 74 42 0 51-32 51-76 0-42-9-74-50-73" id="n"/><path fill="#2e2f27" d="M24-231v-30h32v30H24zM24 0v-190h32V0H24" id="o"/><path fill="#2e2f27" d="M30-248c118-7 216 8 213 122C240-48 200 0 122 0H30v-248zM63-27c89 8 146-16 146-99s-60-101-146-95v194" id="p"/><path fill="#2e2f27" d="M114-163C36-179 61-72 57 0H25l-1-190h30c1 12-1 29 2 39 6-27 23-49 58-41v29" id="q"/><path fill="#2e2f27" d="M179-190L93 31C79 59 56 82 12 73V49c39 6 53-20 64-50L1-190h34L92-34l54-156h33" id="r"/><path fill="#2e2f27" d="M0 4l72-265h28L28 4H0" id="s"/><path fill="#2e2f27" d="M115-194c53 0 69 39 70 98 0 66-23 100-70 100C84 3 66-7 56-30L54 0H23l1-261h32v101c10-23 28-34 59-34zm-8 174c40 0 45-34 45-75 0-40-5-75-45-74-42 0-51 32-51 76 0 43 10 73 51 73" id="t"/><path fill="#2e2f27" d="M100-194c62-1 85 37 85 99 1 63-27 99-86 99S16-35 15-95c0-66 28-99 85-99zM99-20c44 1 53-31 53-75 0-43-8-75-51-75s-53 32-53 75 10 74 51 75" id="u"/><path fill="#2e2f27" d="M33 0v-248h34V0H33" id="v"/><g id="a"><use transform="matrix(0.04999999999999987,0,0,0.04999999999999987,0,0)" xlink:href="#f"/><use transform="matrix(0.04999999999999987,0,0,0.04999999999999987,10.499999999999973,0)" xlink:href="#g"/><use transform="matrix(0.04999999999999987,0,0,0.04999999999999987,20.499999999999947,0)" xlink:href="#h"/><use transform="matrix(0.04999999999999987,0,0,0.04999999999999987,25.499999999999932,0)" xlink:href="#i"/><use transform="matrix(0.04999999999999987,0,0,0.04999999999999987,40.449999999999896,0)" xlink:href="#j"/><use transform="matrix(0.04999999999999987,0,0,0.04999999999999987,44.399999999999885,0)" xlink:href="#k"/><use transform="matrix(0.04999999999999987,0,0,0.04999999999999987,54.89999999999986,0)" xlink:href="#f"/><use transform="matrix(0.04999999999999987,0,0,0.04999999999999987,65.39999999999984,0)" xlink:href="#g"/><use transform="matrix(0.04999999999999987,0,0,0.04999999999999987,75.3999999999998,0)" xlink:href="#l"/><use transform="matrix(0.04999999999999987,0,0,0.04999999999999987,85.39999999999978,0)" xlink:href="#m"/><use transform="matrix(0.04999999999999987,0,0,0.04999999999999987,95.39999999999975,0)" xlink:href="#n"/><use transform="matrix(0.04999999999999987,0,0,0.04999999999999987,105.39999999999972,0)" xlink:href="#k"/><use transform="matrix(0.04999999999999987,0,0,0.04999999999999987,115.89999999999971,0)" xlink:href="#f"/><use transform="matrix(0.04999999999999987,0,0,0.04999999999999987,126.39999999999968,0)" xlink:href="#h"/><use transform="matrix(0.04999999999999987,0,0,0.04999999999999987,131.39999999999966,0)" xlink:href="#o"/><use transform="matrix(0.04999999999999987,0,0,0.04999999999999987,135.34999999999965,0)" xlink:href="#h"/><use transform="matrix(0.04999999999999987,0,0,0.04999999999999987,140.34999999999965,0)" xlink:href="#j"/><use transform="matrix(0.04999999999999987,0,0,0.04999999999999987,144.29999999999964,0)" xlink:href="#l"/><use transform="matrix(0.04999999999999987,0,0,0.04999999999999987,154.2999999999996,0)" xlink:href="#k"/><use transform="matrix(0.04999999999999987,0,0,0.04999999999999987,164.79999999999959,0)" xlink:href="#p"/><use transform="matrix(0.04999999999999987,0,0,0.04999999999999987,177.74999999999955,0)" xlink:href="#o"/><use transform="matrix(0.04999999999999987,0,0,0.04999999999999987,181.69999999999953,0)" xlink:href="#m"/><use transform="matrix(0.04999999999999987,0,0,0.04999999999999987,191.6999999999995,0)" xlink:href="#q"/><use transform="matrix(0.04999999999999987,0,0,0.04999999999999987,197.6499999999995,0)" xlink:href="#r"/><use transform="matrix(0.04999999999999987,0,0,0.04999999999999987,206.64999999999947,0)" xlink:href="#f"/><use transform="matrix(0.04999999999999987,0,0,0.04999999999999987,217.14999999999944,0)" xlink:href="#s"/><use transform="matrix(0.04999999999999987,0,0,0.04999999999999987,222.14999999999944,0)" xlink:href="#h"/><use transform="matrix(0.04999999999999987,0,0,0.04999999999999987,227.14999999999947,0)" xlink:href="#o"/><use transform="matrix(0.04999999999999987,0,0,0.04999999999999987,231.0999999999994,0)" xlink:href="#h"/><use transform="matrix(0.04999999999999987,0,0,0.04999999999999987,236.09999999999943,0)" xlink:href="#j"/><use transform="matrix(0.04999999999999987,0,0,0.04999999999999987,240.04999999999941,0)" xlink:href="#l"/><use transform="matrix(0.04999999999999987,0,0,0.04999999999999987,250.0499999999994,0)" xlink:href="#k"/><use transform="matrix(0.04999999999999987,0,0,0.04999999999999987,260.5499999999994,0)" xlink:href="#f"/><use transform="matrix(0.04999999999999987,0,0,0.04999999999999987,271.0499999999994,0)" xlink:href="#s"/><use transform="matrix(0.04999999999999987,0,0,0.04999999999999987,276.0499999999994,0)" xlink:href="#g"/><use transform="matrix(0.04999999999999987,0,0,0.04999999999999987,286.0499999999994,0)" xlink:href="#l"/><use transform="matrix(0.04999999999999987,0,0,0.04999999999999987,296.0499999999994,0)" xlink:href="#m"/><use transform="matrix(0.04999999999999987,0,0,0.04999999999999987,306.0499999999994,0)" xlink:href="#n"/><use transform="matrix(0.04999999999999987,0,0,0.04999999999999987,316.0499999999994,0)" xlink:href="#k"/><use transform="matrix(0.04999999999999987,0,0,0.04999999999999987,326.5499999999994,0)" xlink:href="#f"/><use transform="matrix(0.04999999999999987,0,0,0.04999999999999987,337.0499999999994,0)" xlink:href="#t"/><use transform="matrix(0.04999999999999987,0,0,0.04999999999999987,347.0499999999994,0)" xlink:href="#u"/><use transform="matrix(0.04999999999999987,0,0,0.04999999999999987,357.0499999999994,0)" xlink:href="#n"/><use transform="matrix(0.04999999999999987,0,0,0.04999999999999987,367.0499999999994,0)" xlink:href="#r"/><use transform="matrix(0.04999999999999987,0,0,0.04999999999999987,376.0499999999994,0)" xlink:href="#k"/><use transform="matrix(0.04999999999999987,0,0,0.04999999999999987,386.5499999999994,0)" xlink:href="#v"/></g><path fill="#2e2f27" d="M108 0H70L1-190h34L89-25l56-165h34" id="w"/><g id="b"><use transform="matrix(0.04999999999999987,0,0,0.04999999999999987,0,0)" xlink:href="#j"/><use transform="matrix(0.04999999999999987,0,0,0.04999999999999987,3.94999999999999,0)" xlink:href="#o"/><use transform="matrix(0.04999999999999987,0,0,0.04999999999999987,7.89999999999998,0)" xlink:href="#w"/><use transform="matrix(0.04999999999999987,0,0,0.04999999999999987,16.899999999999956,0)" xlink:href="#l"/></g><path fill="#2e2f27" d="M117-194c89-4 53 116 60 194h-32v-121c0-31-8-49-39-48C34-167 62-67 57 0H25l-1-190h30c1 10-1 24 2 32 11-22 29-35 61-36" id="x"/><g id="c"><use transform="matrix(0.04999999999999987,0,0,0.04999999999999987,0,0)" xlink:href="#o"/><use transform="matrix(0.04999999999999987,0,0,0.04999999999999987,3.94999999999999,0)" xlink:href="#x"/></g><path fill="#2e2f27" d="M185-189c-5-48-123-54-124 2 14 75 158 14 163 119 3 78-121 87-175 55-17-10-28-26-33-46l33-7c5 56 141 63 141-1 0-78-155-14-162-118-5-82 145-84 179-34 5 7 8 16 11 25" id="y"/><g id="d"><use transform="matrix(0.04999999999999987,0,0,0.04999999999999987,0,0)" xlink:href="#y"/><use transform="matrix(0.04999999999999987,0,0,0.04999999999999987,11.99999999999997,0)" xlink:href="#m"/><use transform="matrix(0.04999999999999987,0,0,0.04999999999999987,21.999999999999943,0)" xlink:href="#x"/></g><path fill="#2e2f27" d="M63-220v92h138v28H63V0H30v-248h175v28H63" id="z"/><path fill="#2e2f27" d="M96-169c-40 0-48 33-48 73s9 75 48 75c24 0 41-14 43-38l32 2c-6 37-31 61-74 61-59 0-76-41-82-99-10-93 101-131 147-64 4 7 5 14 7 22l-32 3c-4-21-16-35-41-35" id="A"/><path fill="#2e2f27" d="M135-143c-3-34-86-38-87 0 15 53 115 12 119 90S17 21 10-45l28-5c4 36 97 45 98 0-10-56-113-15-118-90-4-57 82-63 122-42 12 7 21 19 24 35" id="B"/><g id="e"><use transform="matrix(0.04999999999999987,0,0,0.04999999999999987,0,0)" xlink:href="#z"/><use transform="matrix(0.04999999999999987,0,0,0.04999999999999987,10.94999999999997,0)" xlink:href="#q"/><use transform="matrix(0.04999999999999987,0,0,0.04999999999999987,16.899999999999956,0)" xlink:href="#m"/><use transform="matrix(0.04999999999999987,0,0,0.04999999999999987,26.899999999999924,0)" xlink:href="#x"/><use transform="matrix(0.04999999999999987,0,0,0.04999999999999987,36.8999999999999,0)" xlink:href="#A"/><use transform="matrix(0.04999999999999987,0,0,0.04999999999999987,45.89999999999988,0)" xlink:href="#o"/><use transform="matrix(0.04999999999999987,0,0,0.04999999999999987,49.849999999999866,0)" xlink:href="#B"/><use transform="matrix(0.04999999999999987,0,0,0.04999999999999987,58.849999999999845,0)" xlink:href="#A"/><use transform="matrix(0.04999999999999987,0,0,0.04999999999999987,67.84999999999982,0)" xlink:href="#u"/><use transform="matrix(0.04999999999999987,0,0,0.04999999999999987,77.8499999999998,0)" xlink:href="#f"/><use transform="matrix(0.04999999999999987,0,0,0.04999999999999987,88.34999999999977,0)" xlink:href="#s"/><use transform="matrix(0.04999999999999987,0,0,0.04999999999999987,93.34999999999975,0)" xlink:href="#t"/><use transform="matrix(0.04999999999999987,0,0,0.04999999999999987,103.34999999999974,0)" xlink:href="#u"/><use transform="matrix(0.04999999999999987,0,0,0.04999999999999987,113.34999999999968,0)" xlink:href="#n"/><use transform="matrix(0.04999999999999987,0,0,0.04999999999999987,123.34999999999965,0)" xlink:href="#r"/><use transform="matrix(0.04999999999999987,0,0,0.04999999999999987,132.34999999999965,0)" xlink:href="#k"/><use transform="matrix(0.04999999999999987,0,0,0.04999999999999987,142.84999999999962,0)" xlink:href="#f"/><use transform="matrix(0.04999999999999987,0,0,0.04999999999999987,153.3499999999996,0)" xlink:href="#s"/><use transform="matrix(0.04999999999999987,0,0,0.04999999999999987,158.3499999999996,0)" xlink:href="#g"/><use transform="matrix(0.04999999999999987,0,0,0.04999999999999987,168.34999999999957,0)" xlink:href="#h"/><use transform="matrix(0.04999999999999987,0,0,0.04999999999999987,173.34999999999957,0)" xlink:href="#i"/><use transform="matrix(0.04999999999999987,0,0,0.04999999999999987,188.29999999999953,0)" xlink:href="#j"/><use transform="matrix(0.04999999999999987,0,0,0.04999999999999987,192.24999999999952,0)" xlink:href="#k"/></g></defs></g></svg>