<svg xmlns="http://www.w3.org/2000/svg" xmlns:xlink="http://www.w3.org/1999/xlink" xmlns:lucid="lucid" width="1088.33" height="883"><g transform="translate(-78.5 -218.5)" lucid:page-tab-id="0_0"><path d="M0 0h1870.87v1322.84H0z" fill="#fff"/><path d="M260 546a6 6 0 0 1 6-6h68a6 6 0 0 1 6 6v28a6 6 0 0 1-6 6h-68a6 6 0 0 1-6-6z" stroke="#2e2f27" stroke-width="3" fill="#fff" fill-opacity="0"/><use xlink:href="#a" transform="matrix(1,0,0,1,265,545) translate(10.550000000000065 18.149999999999963)"/><path d="M340 546a6 6 0 0 1 6-6h48a6 6 0 0 1 6 6v28a6 6 0 0 1-6 6h-48a6 6 0 0 1-6-6z" stroke="#2e2f27" stroke-width="3" fill="#fff" fill-opacity="0"/><use xlink:href="#b" transform="matrix(1,0,0,1,344.9999999999999,545) translate(4.575000000000056 18.149999999999963)"/><path d="M640 546a6 6 0 0 1 6-6h177.33a6 6 0 0 1 6 6v28a6 6 0 0 1-6 6H646a6 6 0 0 1-6-6z" stroke="#2e2f27" stroke-width="3" fill="#fff" fill-opacity="0"/><use xlink:href="#c" transform="matrix(1,0,0,1,645,545) translate(2.150000000000233 18.149999999999963)"/><use xlink:href="#d" transform="matrix(1,0,0,1,645,545) translate(12.150000000000206 18.149999999999963)"/><use xlink:href="#e" transform="matrix(1,0,0,1,645,545) translate(44.05000000000012 18.149999999999963)"/><use xlink:href="#f" transform="matrix(1,0,0,1,645,545) translate(63.00000000000007 18.149999999999963)"/><use xlink:href="#g" transform="matrix(1,0,0,1,645,545) translate(99.99999999999997 18.149999999999963)"/><path d="M540 246a6 6 0 0 1 6-6h37.33a6 6 0 0 1 6 6v28a6 6 0 0 1-6 6H546a6 6 0 0 1-6-6z" stroke="#2e2f27" stroke-width="3" fill="#fff" fill-opacity="0"/><path d="M1020 246a6 6 0 0 1 6-6h113.33a6 6 0 0 1 6 6v28a6 6 0 0 1-6 6H1026a6 6 0 0 1-6-6z" stroke="#fff" stroke-width="3" fill="#e8b46e"/><use xlink:href="#h" transform="matrix(1,0,0,1,1032,252) translate(34.05 14.4)"/><path d="M1017.5 260H609.34" stroke="#7b7d68" stroke-width="2" fill="none"/><path d="M1018.5 261h-1.03v-2h1.03z" stroke="#7b7d68" stroke-width=".05" fill="#7b7d68"/><path d="M594.07 260l14.26-4.63v9.26z" stroke="#7b7d68" stroke-width="2" fill="#7b7d68"/><path d="M1020 606a6 6 0 0 1 6-6h113.33a6 6 0 0 1 6 6v28a6 6 0 0 1-6 6H1026a6 6 0 0 1-6-6z" stroke="#fff" stroke-width="3" fill="#93cee1"/><use xlink:href="#i" transform="matrix(1,0,0,1,1032,612) translate(31.5 14.4)"/><path d="M1020 646a6 6 0 0 1 6-6h113.33a6 6 0 0 1 6 6v28a6 6 0 0 1-6 6H1026a6 6 0 0 1-6-6z" stroke="#fff" stroke-width="3" fill="#93cee1"/><use xlink:href="#j" transform="matrix(1,0,0,1,1032,652) translate(23.025 14.4)"/><path d="M1020 686a6 6 0 0 1 6-6h113.33a6 6 0 0 1 6 6v28a6 6 0 0 1-6 6H1026a6 6 0 0 1-6-6z" stroke="#fff" stroke-width="3" fill="#93cee1"/><use xlink:href="#k" transform="matrix(1,0,0,1,1032,692) translate(23.5 14.4)"/><path d="M1020 726a6 6 0 0 1 6-6h113.33a6 6 0 0 1 6 6v28a6 6 0 0 1-6 6H1026a6 6 0 0 1-6-6z" stroke="#fff" stroke-width="3" fill="#93cee1"/><use xlink:href="#k" transform="matrix(1,0,0,1,1032,732) translate(23.5 14.4)"/><path d="M1020 766a6 6 0 0 1 6-6h113.33a6 6 0 0 1 6 6v28a6 6 0 0 1-6 6H1026a6 6 0 0 1-6-6z" stroke="#fff" stroke-width="3" fill="#93cee1"/><use xlink:href="#l" transform="matrix(1,0,0,1,1032,772) translate(36.5 14.4)"/><path d="M1082.66 282.5l-2.82 297.5" stroke="#7b7d68" stroke-width="2" fill="none"/><path d="M1083.66 282.54l-2-.02v-1.02h2z" stroke="#7b7d68" stroke-width=".05" fill="#7b7d68"/><path d="M1079.7 595.26l-4.5-14.3 9.27.08z" stroke="#7b7d68" stroke-width="2" fill="#7b7d68"/><path d="M440 386a6 6 0 0 1 6-6h37.33a6 6 0 0 1 6 6v28a6 6 0 0 1-6 6H446a6 6 0 0 1-6-6zM620 386a6 6 0 0 1 6-6h37.33a6 6 0 0 1 6 6v28a6 6 0 0 1-6 6H626a6 6 0 0 1-6-6zM100 546a6 6 0 0 1 6-6h68a6 6 0 0 1 6 6v28a6 6 0 0 1-6 6h-68a6 6 0 0 1-6-6z" stroke="#2e2f27" stroke-width="3" fill="#fff" fill-opacity="0"/><use xlink:href="#m" transform="matrix(1,0,0,1,105,545) translate(7.550000000000072 18.149999999999963)"/><path d="M180 546a6 6 0 0 1 6-6h68a6 6 0 0 1 6 6v28a6 6 0 0 1-6 6h-68a6 6 0 0 1-6-6z" stroke="#2e2f27" stroke-width="3" fill="#fff" fill-opacity="0"/><use xlink:href="#n" transform="matrix(1,0,0,1,185,545) translate(4.500000000000082 18.149999999999963)"/><path d="M400 546a6 6 0 0 1 6-6h68a6 6 0 0 1 6 6v28a6 6 0 0 1-6 6h-68a6 6 0 0 1-6-6z" stroke="#2e2f27" stroke-width="3" fill="#fff" fill-opacity="0"/><use xlink:href="#o" transform="matrix(1,0,0,1,405.00000000000006,545) translate(8.050000000000072 18.149999999999963)"/><path d="M560 546a6 6 0 0 1 6-6h68a6 6 0 0 1 6 6v28a6 6 0 0 1-6 6h-68a6 6 0 0 1-6-6z" stroke="#2e2f27" stroke-width="3" fill="#fff" fill-opacity="0"/><use xlink:href="#p" transform="matrix(1,0,0,1,565,545) translate(5.000000000000078 18.149999999999963)"/><path d="M480 546a6 6 0 0 1 6-6h68a6 6 0 0 1 6 6v28a6 6 0 0 1-6 6h-68a6 6 0 0 1-6-6z" stroke="#2e2f27" stroke-width="3" fill="#fff" fill-opacity="0"/><use xlink:href="#q" transform="matrix(1,0,0,1,485,545) translate(2.0000000000000853 18.149999999999963)"/><path d="M830.67 546a6 6 0 0 1 6-6h68a6 6 0 0 1 6 6v28a6 6 0 0 1-6 6h-68a6 6 0 0 1-6-6z" stroke="#2e2f27" stroke-width="3" fill="#fff" fill-opacity="0"/><use xlink:href="#r" transform="matrix(1,0,0,1,835.6666666666667,545) translate(2.5000000000000853 18.149999999999963)"/><path d="M910.67 546a6 6 0 0 1 6-6h68a6 6 0 0 1 6 6v28a6 6 0 0 1-6 6h-68a6 6 0 0 1-6-6z" stroke="#2e2f27" stroke-width="3" fill="#fff" fill-opacity="0"/><use xlink:href="#s" transform="matrix(1,0,0,1,915.6666666666667,545) translate(5.050000000000079 18.149999999999963)"/><path d="M1020 806a6 6 0 0 1 6-6h113.33a6 6 0 0 1 6 6v28a6 6 0 0 1-6 6H1026a6 6 0 0 1-6-6z" stroke="#fff" stroke-width="3" fill="#93cee1"/><use xlink:href="#t" transform="matrix(1,0,0,1,1032,812) translate(16.525 14.4)"/><path d="M1020 846a6 6 0 0 1 6-6h113.33a6 6 0 0 1 6 6v28a6 6 0 0 1-6 6H1026a6 6 0 0 1-6-6z" stroke="#fff" stroke-width="3" fill="#93cee1"/><use xlink:href="#k" transform="matrix(1,0,0,1,1032,852) translate(23.5 14.4)"/><path d="M1020 886a6 6 0 0 1 6-6h113.33a6 6 0 0 1 6 6v28a6 6 0 0 1-6 6H1026a6 6 0 0 1-6-6z" stroke="#fff" stroke-width="3" fill="#93cee1"/><use xlink:href="#k" transform="matrix(1,0,0,1,1032,892) translate(23.5 14.4)"/><path d="M1020 926a6 6 0 0 1 6-6h113.33a6 6 0 0 1 6 6v28a6 6 0 0 1-6 6H1026a6 6 0 0 1-6-6z" stroke="#fff" stroke-width="3" fill="#93cee1"/><use xlink:href="#l" transform="matrix(1,0,0,1,1032,932) translate(36.5 14.4)"/><path d="M1020 966a6 6 0 0 1 6-6h113.33a6 6 0 0 1 6 6v28a6 6 0 0 1-6 6H1026a6 6 0 0 1-6-6z" stroke="#fff" stroke-width="3" fill="#93cee1"/><use xlink:href="#t" transform="matrix(1,0,0,1,1032,972) translate(16.525 14.4)"/><path d="M1020 1006a6 6 0 0 1 6-6h113.33a6 6 0 0 1 6 6v28a6 6 0 0 1-6 6H1026a6 6 0 0 1-6-6z" stroke="#fff" stroke-width="3" fill="#93cee1"/><use xlink:href="#t" transform="matrix(1,0,0,1,1032,1012) translate(16.525 14.4)"/><path d="M1020 1046a6 6 0 0 1 6-6h113.33a6 6 0 0 1 6 6v28a6 6 0 0 1-6 6H1026a6 6 0 0 1-6-6z" stroke="#fff" stroke-width="3" fill="#93cee1"/><use xlink:href="#t" transform="matrix(1,0,0,1,1032,1052) translate(16.525 14.4)"/><path d="M463.76 421.93L236.7 530.53" stroke="#7b7d68" stroke-width="2" fill="none"/><path d="M464.17 422.85l-.64-1.35H467z" stroke="#7b7d68" stroke-width=".05" fill="#7b7d68"/><path d="M222.92 537.1l10.87-10.33 4 8.36z" stroke="#7b7d68" stroke-width="2" fill="#7b7d68"/><path d="M463.87 422.1l-139.1 105.24" stroke="#7b7d68" stroke-width="2" fill="none"/><path d="M464.45 422.92l-1.07-1.42h2.94z" stroke="#7b7d68" stroke-width=".05" fill="#7b7d68"/><path d="M312.58 536.55l8.58-12.3 5.6 7.4z" stroke="#7b7d68" stroke-width="2" fill="#7b7d68"/><path d="M464.04 422.28l-82.4 101.84" stroke="#7b7d68" stroke-width="2" fill="none"/><path d="M464.8 422.93l-1.56-1.26.14-.17h2.57z" stroke="#7b7d68" stroke-width=".05" fill="#7b7d68"/><path d="M372.04 535.98l5.36-14 7.2 5.83z" stroke="#7b7d68" stroke-width="2" fill="#7b7d68"/><path d="M464.46 422.48l-20.64 97.92" stroke="#7b7d68" stroke-width="2" fill="none"/><path d="M465.43 422.7l-1.95-.4.16-.8h2.05z" stroke="#7b7d68" stroke-width=".05" fill="#7b7d68"/><path d="M440.67 535.33l-1.6-14.9 9.08 1.9z" stroke="#7b7d68" stroke-width="2" fill="#7b7d68"/><path d="M465.1 422.4l48.46 99.47" stroke="#7b7d68" stroke-width="2" fill="none"/><path d="M466 421.98l-1.78.88-.67-1.36h2.23z" stroke="#7b7d68" stroke-width=".05" fill="#7b7d68"/><path d="M520.25 535.6l-10.42-10.8 8.34-4.06z" stroke="#7b7d68" stroke-width="2" fill="#7b7d68"/><path d="M644.3 422.43l-37.7 98.8" stroke="#7b7d68" stroke-width="2" fill="none"/><path d="M645.24 422.8l-1.87-.7.23-.6h2.14z" stroke="#7b7d68" stroke-width=".05" fill="#7b7d68"/><path d="M601.15 535.48l.76-14.98 8.67 3.3z" stroke="#7b7d68" stroke-width="2" fill="#7b7d68"/><path d="M645.22 422.33l67.1 100.77" stroke="#7b7d68" stroke-width="2" fill="none"/><path d="M646.07 421.8l-1.67 1.1-.93-1.4h2.4z" stroke="#7b7d68" stroke-width=".05" fill="#7b7d68"/><path d="M720.78 535.8l-11.76-9.3 7.7-5.14z" stroke="#7b7d68" stroke-width="2" fill="#7b7d68"/><path d="M645.55 421.96L854.25 530" stroke="#7b7d68" stroke-width="2" fill="none"/><path d="M645.12 422.86l-2.63-1.36h3.32z" stroke="#7b7d68" stroke-width=".05" fill="#7b7d68"/><path d="M867.8 537l-14.8-2.43 4.25-8.23z" stroke="#7b7d68" stroke-width="2" fill="#7b7d68"/><path d="M565.5 282.05l369.77 246.2" stroke="#7b7d68" stroke-width="2" fill="none"/><path d="M564.97 282.9l-2.1-1.4h3.03z" stroke="#7b7d68" stroke-width=".05" fill="#7b7d68"/><path d="M947.97 536.7l-14.44-4.04 5.14-7.72z" stroke="#7b7d68" stroke-width="2" fill="#7b7d68"/><path d="M565.3 282.27l67.6 81.96" stroke="#7b7d68" stroke-width="2" fill="none"/><path d="M566.1 281.65l-1.55 1.28-1.18-1.43h2.6z" stroke="#7b7d68" stroke-width=".05" fill="#7b7d68"/><path d="M642.6 376l-12.64-8.05 7.15-5.9z" stroke="#7b7d68" stroke-width="2" fill="#7b7d68"/><path d="M563.95 282.2l-86 83.42" stroke="#7b7d68" stroke-width="2" fill="none"/><path d="M564.63 282.93l-1.4-1.43h2.87z" stroke="#7b7d68" stroke-width=".05" fill="#7b7d68"/><path d="M467 376.25l7-13.26 6.46 6.64z" stroke="#7b7d68" stroke-width="2" fill="#7b7d68"/><path d="M563.8 282.02l-407.97 246.9" stroke="#7b7d68" stroke-width="2" fill="none"/><path d="M564.3 282.9l-.83-1.4h3.13z" stroke="#7b7d68" stroke-width=".05" fill="#7b7d68"/><path d="M142.77 536.83l9.8-11.36 4.8 7.93z" stroke="#7b7d68" stroke-width="2" fill="#7b7d68"/><path d="M1017.62 1059.52L156.25 590.35" stroke="#7b7d68" stroke-width="2" fill="none"/><path d="M1018.5 1058.86v2.28l-1.38-.75.96-1.77z" stroke="#7b7d68" stroke-width=".05" fill="#7b7d68"/><path d="M142.84 583.05l14.75 2.75-4.45 8.14z" stroke="#7b7d68" stroke-width="2" fill="#7b7d68"/><path d="M1017.62 1019.52l-781.4-429.1" stroke="#7b7d68" stroke-width="2" fill="none"/><path d="M1018.5 1018.86v2.28l-1.38-.76.96-1.75z" stroke="#7b7d68" stroke-width=".05" fill="#7b7d68"/><path d="M222.84 583.06l14.73 2.8-4.46 8.13z" stroke="#7b7d68" stroke-width="2" fill="#7b7d68"/><path d="M1017.63 979.5L316.18 590.5" stroke="#7b7d68" stroke-width="2" fill="none"/><path d="M1018.5 978.86v2.28l-1.38-.76.97-1.75z" stroke="#7b7d68" stroke-width=".05" fill="#7b7d68"/><path d="M302.83 583.07l14.72 2.86-4.5 8.1z" stroke="#7b7d68" stroke-width="2" fill="#7b7d68"/><path d="M1017.63 939.52L386.18 590.45" stroke="#7b7d68" stroke-width="2" fill="none"/><path d="M1018.5 938.86v2.28l-1.38-.76.97-1.75z" stroke="#7b7d68" stroke-width=".05" fill="#7b7d68"/><path d="M372.83 583.07l14.73 2.84-4.5 8.12z" stroke="#7b7d68" stroke-width="2" fill="#7b7d68"/><path d="M1017.62 899.52l-561.4-309.1" stroke="#7b7d68" stroke-width="2" fill="none"/><path d="M1018.5 898.86v2.28l-1.38-.76.96-1.75z" stroke="#7b7d68" stroke-width=".05" fill="#7b7d68"/><path d="M442.83 583.06l14.74 2.82-4.47 8.12z" stroke="#7b7d68" stroke-width="2" fill="#7b7d68"/><path d="M1017.63 859.5L536.15 590.53" stroke="#7b7d68" stroke-width="2" fill="none"/><path d="M1018.5 858.86v2.28l-1.38-.77.97-1.74z" stroke="#7b7d68" stroke-width=".05" fill="#7b7d68"/><path d="M522.83 583.08l14.7 2.9-4.5 8.1z" stroke="#7b7d68" stroke-width="2" fill="#7b7d68"/><path d="M1017.63 819.5L616.08 590.66" stroke="#7b7d68" stroke-width="2" fill="none"/><path d="M1018.5 818.85v2.3l-1.4-.8 1-1.73z" stroke="#7b7d68" stroke-width=".05" fill="#7b7d68"/><path d="M602.8 583.1l14.7 3.04-4.6 8.05z" stroke="#7b7d68" stroke-width="2" fill="#7b7d68"/><path d="M1017.68 779.43L749.83 592.1" stroke="#7b7d68" stroke-width="2" fill="none"/><path d="M1018.5 778.78v2.44l-1.4-1 1.13-1.63z" stroke="#7b7d68" stroke-width=".05" fill="#7b7d68"/><path d="M737.32 583.36l14.35 4.37-5.32 7.6z" stroke="#7b7d68" stroke-width="2" fill="#7b7d68"/><path d="M1017.82 739.27L883.3 595.03" stroke="#7b7d68" stroke-width="2" fill="none"/><path d="M1018.5 741.47l-1.43-1.54 1.43-1.33z" stroke="#7b7d68" stroke-width=".05" fill="#7b7d68"/><path d="M872.87 583.87l13.12 7.27-6.78 6.32z" stroke="#7b7d68" stroke-width="2" fill="#7b7d68"/><path d="M1018 699.13l-58.14-101.57" stroke="#7b7d68" stroke-width="2" fill="none"/><path d="M1018.5 702l-1.38-2.4 1.38-.78z" stroke="#7b7d68" stroke-width=".05" fill="#7b7d68"/><path d="M952.27 584.3l11.1 10.1-8.03 4.6z" stroke="#7b7d68" stroke-width="2" fill="#7b7d68"/><path d="M1017.5 620H1006a6 6 0 0 1-6-6V406a6 6 0 0 0-6-6H689.34" stroke="#7b7d68" stroke-width="2" fill="none"/><path d="M1018.5 621h-1.03v-2h1.03z" stroke="#7b7d68" stroke-width=".05" fill="#7b7d68"/><path d="M674.07 400l14.26-4.63v9.26z" stroke="#7b7d68" stroke-width="2" fill="#7b7d68"/><path d="M1017.5 660H586a6 6 0 0 1-6-6V406a6 6 0 0 0-6-6h-64.67" stroke="#7b7d68" stroke-width="2" fill="none"/><path d="M1018.5 661h-1.03v-2h1.03z" stroke="#7b7d68" stroke-width=".05" fill="#7b7d68"/><path d="M494.07 400l14.26-4.63v9.26z" stroke="#7b7d68" stroke-width="2" fill="#7b7d68"/><defs><path fill="#2e2f27" d="M18-100v-36l175-74v27L42-118l151 64v27" id="u"/><path fill="#2e2f27" d="M59-47c-2 24 18 29 38 22v24C64 9 27 4 27-40v-127H5v-23h24l9-43h21v43h35v23H59v120" id="v"/><path fill="#2e2f27" d="M24-231v-30h32v30H24zM24 0v-190h32V0H24" id="w"/><path fill="#2e2f27" d="M24 0v-261h32V0H24" id="x"/><path fill="#2e2f27" d="M100-194c63 0 86 42 84 106H49c0 40 14 67 53 68 26 1 43-12 49-29l28 8c-11 28-37 45-77 45C44 4 14-33 15-96c1-61 26-98 85-98zm52 81c6-60-76-77-97-28-3 7-6 17-6 28h103" id="y"/><path fill="#2e2f27" d="M18-27v-27l151-64-151-65v-27l175 74v36" id="z"/><g id="a"><use transform="matrix(0.04999999999999987,0,0,0.04999999999999987,0,0)" xlink:href="#u"/><use transform="matrix(0.04999999999999987,0,0,0.04999999999999987,10.499999999999973,0)" xlink:href="#v"/><use transform="matrix(0.04999999999999987,0,0,0.04999999999999987,15.49999999999996,0)" xlink:href="#w"/><use transform="matrix(0.04999999999999987,0,0,0.04999999999999987,19.44999999999995,0)" xlink:href="#v"/><use transform="matrix(0.04999999999999987,0,0,0.04999999999999987,24.449999999999935,0)" xlink:href="#x"/><use transform="matrix(0.04999999999999987,0,0,0.04999999999999987,28.399999999999928,0)" xlink:href="#y"/><use transform="matrix(0.04999999999999987,0,0,0.04999999999999987,38.3999999999999,0)" xlink:href="#z"/></g><path fill="#2e2f27" d="M30-248c118-7 216 8 213 122C240-48 200 0 122 0H30v-248zM63-27c89 8 146-16 146-99s-60-101-146-95v194" id="A"/><path fill="#2e2f27" d="M141-36C126-15 110 5 73 4 37 3 15-17 15-53c-1-64 63-63 125-63 3-35-9-54-41-54-24 1-41 7-42 31l-33-3c5-37 33-52 76-52 45 0 72 20 72 64v82c-1 20 7 32 28 27v20c-31 9-61-2-59-35zM48-53c0 20 12 33 32 33 41-3 63-29 60-74-43 2-92-5-92 41" id="B"/><path fill="#2e2f27" d="M114-163C36-179 61-72 57 0H25l-1-190h30c1 12-1 29 2 39 6-27 23-49 58-41v29" id="C"/><path fill="#2e2f27" d="M179-190L93 31C79 59 56 82 12 73V49c39 6 53-20 64-50L1-190h34L92-34l54-156h33" id="D"/><g id="b"><use transform="matrix(0.04999999999999987,0,0,0.04999999999999987,0,0)" xlink:href="#A"/><use transform="matrix(0.04999999999999987,0,0,0.04999999999999987,12.949999999999967,0)" xlink:href="#w"/><use transform="matrix(0.04999999999999987,0,0,0.04999999999999987,16.899999999999956,0)" xlink:href="#B"/><use transform="matrix(0.04999999999999987,0,0,0.04999999999999987,26.899999999999924,0)" xlink:href="#C"/><use transform="matrix(0.04999999999999987,0,0,0.04999999999999987,32.84999999999991,0)" xlink:href="#D"/></g><path fill="#2e2f27" d="M33 0v-248h34V0H33" id="E"/><use transform="matrix(0.04999999999999987,0,0,0.04999999999999987,0,0)" xlink:href="#E" id="c"/><path fill="#2e2f27" d="M108 0H70L1-190h34L89-25l56-165h34" id="F"/><g id="d"><use transform="matrix(0.04999999999999987,0,0,0.04999999999999987,0,0)" xlink:href="#x"/><use transform="matrix(0.04999999999999987,0,0,0.04999999999999987,3.94999999999999,0)" xlink:href="#w"/><use transform="matrix(0.04999999999999987,0,0,0.04999999999999987,7.89999999999998,0)" xlink:href="#F"/><use transform="matrix(0.04999999999999987,0,0,0.04999999999999987,16.899999999999956,0)" xlink:href="#y"/></g><path fill="#2e2f27" d="M117-194c89-4 53 116 60 194h-32v-121c0-31-8-49-39-48C34-167 62-67 57 0H25l-1-190h30c1 10-1 24 2 32 11-22 29-35 61-36" id="G"/><g id="e"><use transform="matrix(0.04999999999999987,0,0,0.04999999999999987,0,0)" xlink:href="#w"/><use transform="matrix(0.04999999999999987,0,0,0.04999999999999987,3.94999999999999,0)" xlink:href="#G"/></g><path fill="#2e2f27" d="M185-189c-5-48-123-54-124 2 14 75 158 14 163 119 3 78-121 87-175 55-17-10-28-26-33-46l33-7c5 56 141 63 141-1 0-78-155-14-162-118-5-82 145-84 179-34 5 7 8 16 11 25" id="H"/><g id="f"><use transform="matrix(0.04999999999999987,0,0,0.04999999999999987,0,0)" xlink:href="#H"/><use transform="matrix(0.04999999999999987,0,0,0.04999999999999987,11.99999999999997,0)" xlink:href="#B"/><use transform="matrix(0.04999999999999987,0,0,0.04999999999999987,21.999999999999943,0)" xlink:href="#G"/></g><path fill="#2e2f27" d="M63-220v92h138v28H63V0H30v-248h175v28H63" id="I"/><path fill="#2e2f27" d="M96-169c-40 0-48 33-48 73s9 75 48 75c24 0 41-14 43-38l32 2c-6 37-31 61-74 61-59 0-76-41-82-99-10-93 101-131 147-64 4 7 5 14 7 22l-32 3c-4-21-16-35-41-35" id="J"/><path fill="#2e2f27" d="M135-143c-3-34-86-38-87 0 15 53 115 12 119 90S17 21 10-45l28-5c4 36 97 45 98 0-10-56-113-15-118-90-4-57 82-63 122-42 12 7 21 19 24 35" id="K"/><path fill="#2e2f27" d="M100-194c62-1 85 37 85 99 1 63-27 99-86 99S16-35 15-95c0-66 28-99 85-99zM99-20c44 1 53-31 53-75 0-43-8-75-51-75s-53 32-53 75 10 74 51 75" id="L"/><g id="g"><use transform="matrix(0.04999999999999987,0,0,0.04999999999999987,0,0)" xlink:href="#I"/><use transform="matrix(0.04999999999999987,0,0,0.04999999999999987,10.94999999999997,0)" xlink:href="#C"/><use transform="matrix(0.04999999999999987,0,0,0.04999999999999987,16.899999999999956,0)" xlink:href="#B"/><use transform="matrix(0.04999999999999987,0,0,0.04999999999999987,26.899999999999924,0)" xlink:href="#G"/><use transform="matrix(0.04999999999999987,0,0,0.04999999999999987,36.8999999999999,0)" xlink:href="#J"/><use transform="matrix(0.04999999999999987,0,0,0.04999999999999987,45.89999999999988,0)" xlink:href="#w"/><use transform="matrix(0.04999999999999987,0,0,0.04999999999999987,49.849999999999866,0)" xlink:href="#K"/><use transform="matrix(0.04999999999999987,0,0,0.04999999999999987,58.849999999999845,0)" xlink:href="#J"/><use transform="matrix(0.04999999999999987,0,0,0.04999999999999987,67.84999999999982,0)" xlink:href="#L"/></g><path fill="#2e2f27" d="M106-169C34-169 62-67 57 0H25v-261h32l-1 103c12-21 28-36 61-36 89 0 53 116 60 194h-32v-121c2-32-8-49-39-48" id="M"/><path fill="#2e2f27" d="M210-169c-67 3-38 105-44 169h-31v-121c0-29-5-50-35-48C34-165 62-65 56 0H25l-1-190h30c1 10-1 24 2 32 10-44 99-50 107 0 11-21 27-35 58-36 85-2 47 119 55 194h-31v-121c0-29-5-49-35-48" id="N"/><g id="h"><use transform="matrix(0.05,0,0,0.05,0,0)" xlink:href="#M"/><use transform="matrix(0.05,0,0,0.05,10,0)" xlink:href="#v"/><use transform="matrix(0.05,0,0,0.05,15,0)" xlink:href="#N"/><use transform="matrix(0.05,0,0,0.05,29.950000000000003,0)" xlink:href="#x"/></g><path fill="#2e2f27" d="M115-194c53 0 69 39 70 98 0 66-23 100-70 100C84 3 66-7 56-30L54 0H23l1-261h32v101c10-23 28-34 59-34zm-8 174c40 0 45-34 45-75 0-40-5-75-45-74-42 0-51 32-51 76 0 43 10 73 51 73" id="O"/><path fill="#2e2f27" d="M85-194c31 0 48 13 60 33l-1-100h32l1 261h-30c-2-10 0-23-3-31C134-8 116 4 85 4 32 4 16-35 15-94c0-66 23-100 70-100zm9 24c-40 0-46 34-46 75 0 40 6 74 45 74 42 0 51-32 51-76 0-42-9-74-50-73" id="P"/><g id="i"><use transform="matrix(0.05,0,0,0.05,0,0)" xlink:href="#O"/><use transform="matrix(0.05,0,0,0.05,10,0)" xlink:href="#L"/><use transform="matrix(0.05,0,0,0.05,20,0)" xlink:href="#P"/><use transform="matrix(0.05,0,0,0.05,30,0)" xlink:href="#D"/></g><g id="j"><use transform="matrix(0.05,0,0,0.05,0,0)" xlink:href="#M"/><use transform="matrix(0.05,0,0,0.05,10,0)" xlink:href="#y"/><use transform="matrix(0.05,0,0,0.05,20,0)" xlink:href="#B"/><use transform="matrix(0.05,0,0,0.05,30,0)" xlink:href="#P"/><use transform="matrix(0.05,0,0,0.05,40,0)" xlink:href="#y"/><use transform="matrix(0.05,0,0,0.05,50,0)" xlink:href="#C"/></g><path fill="#2e2f27" d="M177-190C167-65 218 103 67 71c-23-6-38-20-44-43l32-5c15 47 100 32 89-28v-30C133-14 115 1 83 1 29 1 15-40 15-95c0-56 16-97 71-98 29-1 48 16 59 35 1-10 0-23 2-32h30zM94-22c36 0 50-32 50-73 0-42-14-75-50-75-39 0-46 34-46 75s6 73 46 73" id="Q"/><g id="k"><use transform="matrix(0.05,0,0,0.05,0,0)" xlink:href="#y"/><use transform="matrix(0.05,0,0,0.05,10,0)" xlink:href="#G"/><use transform="matrix(0.05,0,0,0.05,20,0)" xlink:href="#P"/><use transform="matrix(0.05,0,0,0.05,30,0)" xlink:href="#v"/><use transform="matrix(0.05,0,0,0.05,35,0)" xlink:href="#B"/><use transform="matrix(0.05,0,0,0.05,45,0)" xlink:href="#Q"/></g><path fill="#2e2f27" d="M141 0L90-78 38 0H4l68-98-65-92h35l48 74 47-74h35l-64 92 68 98h-35" id="R"/><g id="l"><use transform="matrix(0.05,0,0,0.05,0,0)" xlink:href="#v"/><use transform="matrix(0.05,0,0,0.05,5,0)" xlink:href="#y"/><use transform="matrix(0.05,0,0,0.05,15,0)" xlink:href="#R"/><use transform="matrix(0.05,0,0,0.05,24,0)" xlink:href="#v"/></g><g id="m"><use transform="matrix(0.04999999999999987,0,0,0.04999999999999987,0,0)" xlink:href="#u"/><use transform="matrix(0.04999999999999987,0,0,0.04999999999999987,10.499999999999973,0)" xlink:href="#M"/><use transform="matrix(0.04999999999999987,0,0,0.04999999999999987,20.499999999999947,0)" xlink:href="#v"/><use transform="matrix(0.04999999999999987,0,0,0.04999999999999987,25.499999999999932,0)" xlink:href="#N"/><use transform="matrix(0.04999999999999987,0,0,0.04999999999999987,40.449999999999896,0)" xlink:href="#x"/><use transform="matrix(0.04999999999999987,0,0,0.04999999999999987,44.399999999999885,0)" xlink:href="#z"/></g><g id="n"><use transform="matrix(0.04999999999999987,0,0,0.04999999999999987,0,0)" xlink:href="#u"/><use transform="matrix(0.04999999999999987,0,0,0.04999999999999987,10.499999999999973,0)" xlink:href="#M"/><use transform="matrix(0.04999999999999987,0,0,0.04999999999999987,20.499999999999947,0)" xlink:href="#y"/><use transform="matrix(0.04999999999999987,0,0,0.04999999999999987,30.499999999999922,0)" xlink:href="#B"/><use transform="matrix(0.04999999999999987,0,0,0.04999999999999987,40.49999999999989,0)" xlink:href="#P"/><use transform="matrix(0.04999999999999987,0,0,0.04999999999999987,50.499999999999865,0)" xlink:href="#z"/></g><path fill="#2e2f27" d="M0 4l72-265h28L28 4H0" id="S"/><g id="o"><use transform="matrix(0.04999999999999987,0,0,0.04999999999999987,0,0)" xlink:href="#u"/><use transform="matrix(0.04999999999999987,0,0,0.04999999999999987,10.499999999999973,0)" xlink:href="#S"/><use transform="matrix(0.04999999999999987,0,0,0.04999999999999987,15.49999999999996,0)" xlink:href="#v"/><use transform="matrix(0.04999999999999987,0,0,0.04999999999999987,20.499999999999947,0)" xlink:href="#w"/><use transform="matrix(0.04999999999999987,0,0,0.04999999999999987,24.449999999999935,0)" xlink:href="#v"/><use transform="matrix(0.04999999999999987,0,0,0.04999999999999987,29.449999999999918,0)" xlink:href="#x"/><use transform="matrix(0.04999999999999987,0,0,0.04999999999999987,33.39999999999991,0)" xlink:href="#y"/><use transform="matrix(0.04999999999999987,0,0,0.04999999999999987,43.399999999999885,0)" xlink:href="#z"/></g><g id="p"><use transform="matrix(0.04999999999999987,0,0,0.04999999999999987,0,0)" xlink:href="#u"/><use transform="matrix(0.04999999999999987,0,0,0.04999999999999987,10.499999999999973,0)" xlink:href="#O"/><use transform="matrix(0.04999999999999987,0,0,0.04999999999999987,20.499999999999947,0)" xlink:href="#L"/><use transform="matrix(0.04999999999999987,0,0,0.04999999999999987,30.499999999999922,0)" xlink:href="#P"/><use transform="matrix(0.04999999999999987,0,0,0.04999999999999987,40.49999999999989,0)" xlink:href="#D"/><use transform="matrix(0.04999999999999987,0,0,0.04999999999999987,49.49999999999987,0)" xlink:href="#z"/></g><g id="q"><use transform="matrix(0.04999999999999987,0,0,0.04999999999999987,0,0)" xlink:href="#u"/><use transform="matrix(0.04999999999999987,0,0,0.04999999999999987,10.499999999999973,0)" xlink:href="#S"/><use transform="matrix(0.04999999999999987,0,0,0.04999999999999987,15.49999999999996,0)" xlink:href="#M"/><use transform="matrix(0.04999999999999987,0,0,0.04999999999999987,25.499999999999936,0)" xlink:href="#y"/><use transform="matrix(0.04999999999999987,0,0,0.04999999999999987,35.49999999999991,0)" xlink:href="#B"/><use transform="matrix(0.04999999999999987,0,0,0.04999999999999987,45.49999999999988,0)" xlink:href="#P"/><use transform="matrix(0.04999999999999987,0,0,0.04999999999999987,55.499999999999844,0)" xlink:href="#z"/></g><g id="r"><use transform="matrix(0.04999999999999987,0,0,0.04999999999999987,0,0)" xlink:href="#u"/><use transform="matrix(0.04999999999999987,0,0,0.04999999999999987,10.499999999999973,0)" xlink:href="#S"/><use transform="matrix(0.04999999999999987,0,0,0.04999999999999987,15.49999999999996,0)" xlink:href="#O"/><use transform="matrix(0.04999999999999987,0,0,0.04999999999999987,25.499999999999936,0)" xlink:href="#L"/><use transform="matrix(0.04999999999999987,0,0,0.04999999999999987,35.49999999999991,0)" xlink:href="#P"/><use transform="matrix(0.04999999999999987,0,0,0.04999999999999987,45.49999999999988,0)" xlink:href="#D"/><use transform="matrix(0.04999999999999987,0,0,0.04999999999999987,54.49999999999986,0)" xlink:href="#z"/></g><g id="s"><use transform="matrix(0.04999999999999987,0,0,0.04999999999999987,0,0)" xlink:href="#u"/><use transform="matrix(0.04999999999999987,0,0,0.04999999999999987,10.499999999999973,0)" xlink:href="#S"/><use transform="matrix(0.04999999999999987,0,0,0.04999999999999987,15.49999999999996,0)" xlink:href="#M"/><use transform="matrix(0.04999999999999987,0,0,0.04999999999999987,25.499999999999936,0)" xlink:href="#v"/><use transform="matrix(0.04999999999999987,0,0,0.04999999999999987,30.499999999999922,0)" xlink:href="#N"/><use transform="matrix(0.04999999999999987,0,0,0.04999999999999987,45.44999999999988,0)" xlink:href="#x"/><use transform="matrix(0.04999999999999987,0,0,0.04999999999999987,49.39999999999987,0)" xlink:href="#z"/></g><g id="t"><use transform="matrix(0.05,0,0,0.05,0,0)" xlink:href="#O"/><use transform="matrix(0.05,0,0,0.05,10,0)" xlink:href="#y"/><use transform="matrix(0.05,0,0,0.05,20,0)" xlink:href="#Q"/><use transform="matrix(0.05,0,0,0.05,30,0)" xlink:href="#w"/><use transform="matrix(0.05,0,0,0.05,33.95,0)" xlink:href="#G"/><use transform="matrix(0.05,0,0,0.05,43.95,0)" xlink:href="#v"/><use transform="matrix(0.05,0,0,0.05,48.95,0)" xlink:href="#B"/><use transform="matrix(0.05,0,0,0.05,58.95,0)" xlink:href="#Q"/></g></defs></g></svg>