<svg xmlns="http://www.w3.org/2000/svg" xmlns:xlink="http://www.w3.org/1999/xlink" xmlns:lucid="lucid" width="971.83" height="800"><g transform="translate(-280 -100)" lucid:page-tab-id="0_0"><path d="M0 0h1870.87v1322.83H0z" fill="#fff"/><path d="M300 266c0-3.3 2.7-6 6-6h168c3.3 0 6 2.7 6 6v28c0 3.3-2.7 6-6 6H306c-3.3 0-6-2.7-6-6z" stroke="#333" stroke-width="3" fill="#fff" fill-opacity="0"/><use xlink:href="#a" transform="matrix(1,0,0,1,305,265) translate(2.6000000000002075 18.149999999999963)"/><path d="M918.67 266c0-3.3 2.68-6 6-6H1042c3.3 0 6 2.7 6 6v28c0 3.3-2.7 6-6 6H924.67c-3.32 0-6-2.7-6-6z" stroke="#333" stroke-width="3" fill="#fff" fill-opacity="0"/><use xlink:href="#b" transform="matrix(1,0,0,1,923.6666666666667,265) translate(-2.4499999999998323 18.59999999999999)"/><path d="M480 266c0-3.3 2.7-6 6-6h48c3.3 0 6 2.7 6 6v28c0 3.3-2.7 6-6 6h-48c-3.3 0-6-2.7-6-6z" stroke="#333" stroke-width="3" fill="#fff" fill-opacity="0"/><use xlink:href="#c" transform="matrix(1,0,0,1,484.9999999999999,265) translate(4.575000000000056 18.149999999999963)"/><path d="M540 266c0-3.3 2.7-6 6-6h177.33c3.32 0 6 2.7 6 6v28c0 3.3-2.68 6-6 6H546c-3.3 0-6-2.7-6-6z" stroke="#333" stroke-width="3" fill="#fff" fill-opacity="0"/><use xlink:href="#d" transform="matrix(1,0,0,1,545,265) translate(0.05000000000023874 18.149999999999963)"/><path d="M729.33 266c0-3.3 2.7-6 6-6h177.34c3.3 0 6 2.7 6 6v28c0 3.3-2.7 6-6 6H735.33c-3.3 0-6-2.7-6-6z" stroke="#333" stroke-width="3" fill="#fff" fill-opacity="0"/><use xlink:href="#e" transform="matrix(1,0,0,1,734.3333333333333,265) translate(2.150000000000233 18.149999999999963)"/><use xlink:href="#f" transform="matrix(1,0,0,1,734.3333333333333,265) translate(12.150000000000206 18.149999999999963)"/><use xlink:href="#g" transform="matrix(1,0,0,1,734.3333333333333,265) translate(44.05000000000012 18.149999999999963)"/><use xlink:href="#h" transform="matrix(1,0,0,1,734.3333333333333,265) translate(63.00000000000007 18.149999999999963)"/><use xlink:href="#i" transform="matrix(1,0,0,1,734.3333333333333,265) translate(99.99999999999997 18.149999999999963)"/><path d="M660 126c0-3.3 2.7-6 6-6h37.33c3.32 0 6 2.7 6 6v28c0 3.3-2.68 6-6 6H666c-3.3 0-6-2.7-6-6z" stroke="#333" stroke-width="3" fill="#fff" fill-opacity="0"/><path d="M685.62 161.8l280.12 90.98" stroke="#5e5e5e" stroke-width="2" fill="none"/><path d="M685.33 162.77l-3.83-1.25v-.02h4.25" fill="#5e5e5e"/><path d="M980.26 257.5h-15l2.86-8.8z" stroke="#5e5e5e" stroke-width="2" fill="#5e5e5e"/><path d="M683.72 161.8l-276.15 90.9" stroke="#5e5e5e" stroke-width="2" fill="none"/><path d="M687.83 161.5l-3.82 1.27-.4-1.27h4.23" fill="#5e5e5e"/><path d="M393.07 257.5l12.1-8.88 2.9 8.8z" stroke="#5e5e5e" stroke-width="2" fill="#5e5e5e"/><path d="M683.8 162L526.17 249.5" stroke="#5e5e5e" stroke-width="2" fill="none"/><path d="M684.26 162.87l-.77-1.37h3.23" fill="#5e5e5e"/><path d="M512.83 256.93l10.22-10.98 4.5 8.1z" stroke="#5e5e5e" stroke-width="2" fill="#5e5e5e"/><path d="M684.2 162.4l-41.06 79.65" stroke="#5e5e5e" stroke-width="2" fill="none"/><path d="M685.1 162.87l-1.8-.92.24-.45h2.25" fill="#5e5e5e"/><path d="M636.15 255.62l2.42-14.8 8.24 4.25z" stroke="#5e5e5e" stroke-width="2" fill="#5e5e5e"/><path d="M685.5 162.07l123.32 85.86" stroke="#5e5e5e" stroke-width="2" fill="none"/><path d="M684.94 162.9l-2.02-1.4h3" fill="#5e5e5e"/><path d="M821.34 256.65L807 252.3l5.28-7.6z" stroke="#5e5e5e" stroke-width="2" fill="#5e5e5e"/><path d="M1077 126c0-3.3 2.7-6 6-6h113.33c3.32 0 6 2.7 6 6v28c0 3.3-2.68 6-6 6H1083c-3.3 0-6-2.7-6-6z" stroke="#fff" stroke-width="3" fill="#ffdf71"/><use xlink:href="#j" transform="matrix(1,0,0,1,1089,132) translate(34.05 14.4)"/><path d="M1074.5 140H729.34" stroke="#5e5e5e" stroke-width="2" fill="none"/><path d="M1075.5 141h-1.03v-2h1.03" fill="#5e5e5e"/><path d="M714.07 140l14.27-4.64v9.28z" stroke="#5e5e5e" stroke-width="2" fill="#5e5e5e"/><path d="M1080 326c0-3.3 2.7-6 6-6h113.33c3.32 0 6 2.7 6 6v28c0 3.3-2.68 6-6 6H1086c-3.3 0-6-2.7-6-6z" stroke="#fff" stroke-width="3" fill="#83bbe5"/><use xlink:href="#k" transform="matrix(1,0,0,1,1092,332) translate(21.049999999999997 14.4)"/><path d="M1080 366c0-3.3 2.7-6 6-6h113.33c3.32 0 6 2.7 6 6v28c0 3.3-2.68 6-6 6H1086c-3.3 0-6-2.7-6-6z" stroke="#fff" stroke-width="3" fill="#83bbe5"/><use xlink:href="#l" transform="matrix(1,0,0,1,1092,372) translate(36.5 14.4)"/><path d="M1080 406c0-3.3 2.7-6 6-6h113.33c3.32 0 6 2.7 6 6v28c0 3.3-2.68 6-6 6H1086c-3.3 0-6-2.7-6-6z" stroke="#fff" stroke-width="3" fill="#83bbe5"/><use xlink:href="#k" transform="matrix(1,0,0,1,1092,412) translate(21.049999999999997 14.4)"/><path d="M1080 446c0-3.3 2.7-6 6-6h113.33c3.32 0 6 2.7 6 6v28c0 3.3-2.68 6-6 6H1086c-3.3 0-6-2.7-6-6z" stroke="#fff" stroke-width="3" fill="#83bbe5"/><use xlink:href="#l" transform="matrix(1,0,0,1,1092,452) translate(36.5 14.4)"/><path d="M1080 486c0-3.3 2.7-6 6-6h113.33c3.32 0 6 2.7 6 6v28c0 3.3-2.68 6-6 6H1086c-3.3 0-6-2.7-6-6z" stroke="#fff" stroke-width="3" fill="#83bbe5"/><use xlink:href="#k" transform="matrix(1,0,0,1,1092,492) translate(21.049999999999997 14.4)"/><path d="M1139.67 162.5V300" stroke="#5e5e5e" stroke-width="2" fill="none"/><path d="M1140.67 162.53h-2v-1.03h2" fill="#5e5e5e"/><path d="M1139.67 315.26l-4.64-14.26h9.27z" stroke="#5e5e5e" stroke-width="2" fill="#5e5e5e"/><path d="M1077.57 339.62l-77.1-31.18" stroke="#5e5e5e" stroke-width="2" fill="none"/><path d="M1078.5 338.92v2.16l-1.33-.54.75-1.85" fill="#5e5e5e"/><path d="M986.33 302.7l14.97 1.07-3.48 8.6z" stroke="#5e5e5e" stroke-width="2" fill="#5e5e5e"/><path d="M1077.54 379.7l-235.86-72.75" stroke="#5e5e5e" stroke-width="2" fill="none"/><path d="M1078.5 378.95v2.1l-1.27-.4.58-1.9" fill="#5e5e5e"/><path d="M827.1 302.45l15-.22-2.74 8.86z" stroke="#5e5e5e" stroke-width="2" fill="#5e5e5e"/><path d="M1077.53 419.74l-425-113.47" stroke="#5e5e5e" stroke-width="2" fill="none"/><path d="M1078.5 418.96v2.08l-1.25-.34.52-1.93" fill="#5e5e5e"/><path d="M637.8 302.33l14.97-.8-2.4 8.96z" stroke="#5e5e5e" stroke-width="2" fill="#5e5e5e"/><path d="M1077.54 459.73L527.82 306.47" stroke="#5e5e5e" stroke-width="2" fill="none"/><path d="M1078.5 458.96v2.08l-1.26-.35.54-1.94" fill="#5e5e5e"/><path d="M513.12 302.37l14.98-.63-2.5 8.93z" stroke="#5e5e5e" stroke-width="2" fill="#5e5e5e"/><path d="M1077.54 499.72l-669.76-193.1" stroke="#5e5e5e" stroke-width="2" fill="none"/><path d="M1078.5 498.96v2.08l-1.26-.36.55-1.92" fill="#5e5e5e"/><path d="M393.1 302.4l15-.5-2.57 8.9z" stroke="#5e5e5e" stroke-width="2" fill="#5e5e5e"/><path d="M300 746c0-3.3 2.7-6 6-6h168c3.3 0 6 2.7 6 6v28c0 3.3-2.7 6-6 6H306c-3.3 0-6-2.7-6-6z" stroke="#333" stroke-width="3" fill="#fff" fill-opacity="0"/><use xlink:href="#m" transform="matrix(1,0,0,1,305,745) translate(2.6000000000002075 18.149999999999963)"/><path d="M918.67 746c0-3.3 2.68-6 6-6H1042c3.3 0 6 2.7 6 6v28c0 3.3-2.7 6-6 6H924.67c-3.32 0-6-2.7-6-6z" stroke="#333" stroke-width="3" fill="#fff" fill-opacity="0"/><use xlink:href="#n" transform="matrix(1,0,0,1,923.6666666666667,745) translate(-2.4499999999998323 18.59999999999999)"/><path d="M480 746c0-3.3 2.7-6 6-6h48c3.3 0 6 2.7 6 6v28c0 3.3-2.7 6-6 6h-48c-3.3 0-6-2.7-6-6z" stroke="#333" stroke-width="3" fill="#fff" fill-opacity="0"/><use xlink:href="#o" transform="matrix(1,0,0,1,484.99999999999994,745) translate(4.575000000000056 18.149999999999963)"/><path d="M540 746c0-3.3 2.7-6 6-6h177.33c3.32 0 6 2.7 6 6v28c0 3.3-2.68 6-6 6H546c-3.3 0-6-2.7-6-6z" stroke="#333" stroke-width="3" fill="#fff" fill-opacity="0"/><use xlink:href="#p" transform="matrix(1,0,0,1,545,745) translate(0.05000000000023874 18.149999999999963)"/><path d="M729.33 746c0-3.3 2.7-6 6-6h177.34c3.3 0 6 2.7 6 6v28c0 3.3-2.7 6-6 6H735.33c-3.3 0-6-2.7-6-6z" stroke="#333" stroke-width="3" fill="#fff" fill-opacity="0"/><use xlink:href="#q" transform="matrix(1,0,0,1,734.3333333333333,745) translate(2.150000000000233 18.149999999999963)"/><use xlink:href="#r" transform="matrix(1,0,0,1,734.3333333333333,745) translate(12.150000000000206 18.149999999999963)"/><use xlink:href="#s" transform="matrix(1,0,0,1,734.3333333333333,745) translate(44.05000000000012 18.149999999999963)"/><use xlink:href="#t" transform="matrix(1,0,0,1,734.3333333333333,745) translate(63.00000000000007 18.149999999999963)"/><use xlink:href="#u" transform="matrix(1,0,0,1,734.3333333333333,745) translate(99.99999999999997 18.149999999999963)"/><path d="M660 606c0-3.3 2.7-6 6-6h37.33c3.32 0 6 2.7 6 6v28c0 3.3-2.68 6-6 6H666c-3.3 0-6-2.7-6-6z" stroke="#333" stroke-width="3" fill="#fff" fill-opacity="0"/><path d="M685.62 641.8l280.12 90.98" stroke="#5e5e5e" stroke-width="2" fill="none"/><path d="M685.33 642.77l-3.83-1.25v-.02h4.25" fill="#5e5e5e"/><path d="M980.26 737.5h-15l2.86-8.8z" stroke="#5e5e5e" stroke-width="2" fill="#5e5e5e"/><path d="M683.72 641.8l-276.15 90.9" stroke="#5e5e5e" stroke-width="2" fill="none"/><path d="M687.83 641.5l-3.82 1.27-.4-1.27h4.23" fill="#5e5e5e"/><path d="M393.07 737.5l12.1-8.88 2.9 8.8z" stroke="#5e5e5e" stroke-width="2" fill="#5e5e5e"/><path d="M683.8 642L526.17 729.5" stroke="#5e5e5e" stroke-width="2" fill="none"/><path d="M684.26 642.87l-.77-1.37h3.23" fill="#5e5e5e"/><path d="M512.83 736.93l10.22-10.98 4.5 8.1z" stroke="#5e5e5e" stroke-width="2" fill="#5e5e5e"/><path d="M684.2 642.4l-41.06 79.65" stroke="#5e5e5e" stroke-width="2" fill="none"/><path d="M685.1 642.87l-1.8-.92.24-.45h2.25" fill="#5e5e5e"/><path d="M636.15 735.62l2.42-14.8 8.24 4.25z" stroke="#5e5e5e" stroke-width="2" fill="#5e5e5e"/><path d="M685.5 642.07l123.32 85.86" stroke="#5e5e5e" stroke-width="2" fill="none"/><path d="M684.94 642.9l-2.02-1.4h3" fill="#5e5e5e"/><path d="M821.34 736.65L807 732.3l5.28-7.6z" stroke="#5e5e5e" stroke-width="2" fill="#5e5e5e"/><path d="M1077 606c0-3.3 2.7-6 6-6h113.33c3.32 0 6 2.7 6 6v28c0 3.3-2.68 6-6 6H1083c-3.3 0-6-2.7-6-6z" stroke="#fff" stroke-width="3" fill="#ffdf71"/><use xlink:href="#v" transform="matrix(1,0,0,1,1089,612) translate(34.05 14.4)"/><path d="M1074.5 620H729.34" stroke="#5e5e5e" stroke-width="2" fill="none"/><path d="M1075.5 621h-1.03v-2h1.03" fill="#5e5e5e"/><path d="M714.07 620l14.27-4.64v9.28z" stroke="#5e5e5e" stroke-width="2" fill="#5e5e5e"/><path d="M1080 806c0-3.3 2.7-6 6-6h113.33c3.32 0 6 2.7 6 6v28c0 3.3-2.68 6-6 6H1086c-3.3 0-6-2.7-6-6z" stroke="#fff" stroke-width="3" fill="#83bbe5"/><use xlink:href="#w" transform="matrix(1,0,0,1,1092,812) translate(36.5 14.4)"/><path d="M1080 846c0-3.3 2.7-6 6-6h113.33c3.32 0 6 2.7 6 6v28c0 3.3-2.68 6-6 6H1086c-3.3 0-6-2.7-6-6z" stroke="#fff" stroke-width="3" fill="#83bbe5"/><use xlink:href="#w" transform="matrix(1,0,0,1,1092,852) translate(36.5 14.4)"/><path d="M1139.67 642.5V780" stroke="#5e5e5e" stroke-width="2" fill="none"/><path d="M1140.67 642.53h-2v-1.03h2" fill="#5e5e5e"/><path d="M1139.67 795.26l-4.64-14.26h9.27z" stroke="#5e5e5e" stroke-width="2" fill="#5e5e5e"/><path d="M1077.5 819.85l-235.2-35.58" stroke="#5e5e5e" stroke-width="2" fill="none"/><path d="M1078.5 819v2l-1.16-.16.3-1.98" fill="#5e5e5e"/><path d="M827.2 781.98l14.8-2.45-1.4 9.17z" stroke="#5e5e5e" stroke-width="2" fill="#5e5e5e"/><path d="M1077.5 859.86l-549.17-75.83" stroke="#5e5e5e" stroke-width="2" fill="none"/><path d="M1078.5 859v2l-1.15-.15.27-1.98" fill="#5e5e5e"/><path d="M513.2 781.94l14.77-2.64-1.27 9.2z" stroke="#5e5e5e" stroke-width="2" fill="#5e5e5e"/><path d="M1208.83 340.1l.3.04 1.08.17 1.06.25 1.03.3 1 .35 1 .43.98.5 1 .58.97.68 1 .77 1 .88 1.03 1 1.03 1.18 1.07 1.35 1.07 1.56 1.08 1.82 1.08 2.1 1.07 2.43 1.03 2.82.97 3.25.85 3.68.67 4.1.45 4.44.18 4.64-.1 4.67-.4 4.5-.62 4.2-.8 3.8-.93 3.36-1.02 2.94-1.07 2.54-1.08 2.18-.15.25" stroke="#834187" stroke-width="4" fill="none"/><path d="M1208.95 338.06l-.13 4-2-.06v-4" fill="#834187"/><path d="M1212.18 416.35l9.16-11.88 5.23 7.65z" stroke="#834187" stroke-width="4" fill="#834187"/><path d="M1208.83 420.1l.3.04 1.08.17 1.06.25 1.03.3 1 .35 1 .43.98.5 1 .58.97.68 1 .77 1 .88 1.03 1 1.03 1.18 1.07 1.35 1.07 1.56 1.08 1.82 1.08 2.1 1.07 2.43 1.03 2.82.97 3.25.85 3.68.67 4.1.45 4.44.18 4.64-.1 4.67-.4 4.5-.62 4.2-.8 3.8-.93 3.36-1.02 2.94-1.07 2.54-1.08 2.18-.15.25" stroke="#834187" stroke-width="4" fill="none"/><path d="M1208.95 418.06l-.13 4-2-.06v-4" fill="#834187"/><path d="M1212.18 496.35l9.16-11.88 5.23 7.65z" stroke="#834187" stroke-width="4" fill="#834187"/><g><path d="M674 420c3.3 0 6 2.7 6 6v36c0 3.3 2.7 6 6 6h28c3.3 0 4 1.8 1.54 4l-71.08 64c-2.46 2.2-6.46 2.2-8.92 0l-71.08-64c-2.46-2.2-1.77-4 1.54-4h28c3.3 0 6-2.7 6-6v-36c0-3.3 2.7-6 6-6z" stroke="#5e5e5e" stroke-width="3" fill="#fff"/></g><defs><path fill="#333" d="M18-100v-36l175-74v27L42-118l151 64v27" id="x"/><path fill="#333" d="M106-169C34-169 62-67 57 0H25v-261h32l-1 103c12-21 28-36 61-36 89 0 53 116 60 194h-32v-121c2-32-8-49-39-48" id="y"/><path fill="#333" d="M59-47c-2 24 18 29 38 22v24C64 9 27 4 27-40v-127H5v-23h24l9-43h21v43h35v23H59v120" id="z"/><path fill="#333" d="M210-169c-67 3-38 105-44 169h-31v-121c0-29-5-50-35-48C34-165 62-65 56 0H25l-1-190h30c1 10-1 24 2 32 10-44 99-50 107 0 11-21 27-35 58-36 85-2 47 119 55 194h-31v-121c0-29-5-49-35-48" id="A"/><path fill="#333" d="M24 0v-261h32V0H24" id="B"/><path fill="#333" d="M18-27v-27l151-64-151-65v-27l175 74v36" id="C"/><path fill="#333" d="M100-194c63 0 86 42 84 106H49c0 40 14 67 53 68 26 1 43-12 49-29l28 8c-11 28-37 45-77 45C44 4 14-33 15-96c1-61 26-98 85-98zm52 81c6-60-76-77-97-28-3 7-6 17-6 28h103" id="D"/><path fill="#333" d="M141-36C126-15 110 5 73 4 37 3 15-17 15-53c-1-64 63-63 125-63 3-35-9-54-41-54-24 1-41 7-42 31l-33-3c5-37 33-52 76-52 45 0 72 20 72 64v82c-1 20 7 32 28 27v20c-31 9-61-2-59-35zM48-53c0 20 12 33 32 33 41-3 63-29 60-74-43 2-92-5-92 41" id="E"/><path fill="#333" d="M85-194c31 0 48 13 60 33l-1-100h32l1 261h-30c-2-10 0-23-3-31C134-8 116 4 85 4 32 4 16-35 15-94c0-66 23-100 70-100zm9 24c-40 0-46 34-46 75 0 40 6 74 45 74 42 0 51-32 51-76 0-42-9-74-50-73" id="F"/><path fill="#333" d="M24-231v-30h32v30H24zM24 0v-190h32V0H24" id="G"/><g id="a"><use transform="matrix(0.04999999999999987,0,0,0.04999999999999987,0,0)" xlink:href="#x"/><use transform="matrix(0.04999999999999987,0,0,0.04999999999999987,10.499999999999973,0)" xlink:href="#y"/><use transform="matrix(0.04999999999999987,0,0,0.04999999999999987,20.499999999999947,0)" xlink:href="#z"/><use transform="matrix(0.04999999999999987,0,0,0.04999999999999987,25.499999999999932,0)" xlink:href="#A"/><use transform="matrix(0.04999999999999987,0,0,0.04999999999999987,40.449999999999896,0)" xlink:href="#B"/><use transform="matrix(0.04999999999999987,0,0,0.04999999999999987,44.399999999999885,0)" xlink:href="#C"/><use transform="matrix(0.04999999999999987,0,0,0.04999999999999987,54.89999999999986,0)" xlink:href="#x"/><use transform="matrix(0.04999999999999987,0,0,0.04999999999999987,65.39999999999984,0)" xlink:href="#y"/><use transform="matrix(0.04999999999999987,0,0,0.04999999999999987,75.3999999999998,0)" xlink:href="#D"/><use transform="matrix(0.04999999999999987,0,0,0.04999999999999987,85.39999999999978,0)" xlink:href="#E"/><use transform="matrix(0.04999999999999987,0,0,0.04999999999999987,95.39999999999975,0)" xlink:href="#F"/><use transform="matrix(0.04999999999999987,0,0,0.04999999999999987,105.39999999999972,0)" xlink:href="#C"/><use transform="matrix(0.04999999999999987,0,0,0.04999999999999987,115.89999999999971,0)" xlink:href="#x"/><use transform="matrix(0.04999999999999987,0,0,0.04999999999999987,126.39999999999968,0)" xlink:href="#z"/><use transform="matrix(0.04999999999999987,0,0,0.04999999999999987,131.39999999999966,0)" xlink:href="#G"/><use transform="matrix(0.04999999999999987,0,0,0.04999999999999987,135.34999999999965,0)" xlink:href="#z"/><use transform="matrix(0.04999999999999987,0,0,0.04999999999999987,140.34999999999965,0)" xlink:href="#B"/><use transform="matrix(0.04999999999999987,0,0,0.04999999999999987,144.29999999999964,0)" xlink:href="#D"/><use transform="matrix(0.04999999999999987,0,0,0.04999999999999987,154.2999999999996,0)" xlink:href="#C"/></g><path fill="#333" d="M0 4l72-265h28L28 4H0" id="H"/><path fill="#333" d="M115-194c53 0 69 39 70 98 0 66-23 100-70 100C84 3 66-7 56-30L54 0H23l1-261h32v101c10-23 28-34 59-34zm-8 174c40 0 45-34 45-75 0-40-5-75-45-74-42 0-51 32-51 76 0 43 10 73 51 73" id="I"/><path fill="#333" d="M100-194c62-1 85 37 85 99 1 63-27 99-86 99S16-35 15-95c0-66 28-99 85-99zM99-20c44 1 53-31 53-75 0-43-8-75-51-75s-53 32-53 75 10 74 51 75" id="J"/><path fill="#333" d="M179-190L93 31C79 59 56 82 12 73V49c39 6 53-20 64-50L1-190h34L92-34l54-156h33" id="K"/><g id="b"><use transform="matrix(0.04999999999999987,0,0,0.04999999999999987,0,0)" xlink:href="#x"/><use transform="matrix(0.04999999999999987,0,0,0.04999999999999987,10.499999999999973,0)" xlink:href="#H"/><use transform="matrix(0.04999999999999987,0,0,0.04999999999999987,15.49999999999996,0)" xlink:href="#I"/><use transform="matrix(0.04999999999999987,0,0,0.04999999999999987,25.499999999999936,0)" xlink:href="#J"/><use transform="matrix(0.04999999999999987,0,0,0.04999999999999987,35.49999999999991,0)" xlink:href="#F"/><use transform="matrix(0.04999999999999987,0,0,0.04999999999999987,45.49999999999988,0)" xlink:href="#K"/><use transform="matrix(0.04999999999999987,0,0,0.04999999999999987,54.49999999999986,0)" xlink:href="#C"/><use transform="matrix(0.04999999999999987,0,0,0.04999999999999987,64.99999999999983,0)" xlink:href="#x"/><use transform="matrix(0.04999999999999987,0,0,0.04999999999999987,75.4999999999998,0)" xlink:href="#H"/><use transform="matrix(0.04999999999999987,0,0,0.04999999999999987,80.49999999999979,0)" xlink:href="#y"/><use transform="matrix(0.04999999999999987,0,0,0.04999999999999987,90.49999999999976,0)" xlink:href="#z"/><use transform="matrix(0.04999999999999987,0,0,0.04999999999999987,95.49999999999974,0)" xlink:href="#A"/><use transform="matrix(0.04999999999999987,0,0,0.04999999999999987,110.44999999999972,0)" xlink:href="#B"/><use transform="matrix(0.04999999999999987,0,0,0.04999999999999987,114.39999999999968,0)" xlink:href="#C"/></g><path fill="#333" d="M30-248c118-7 216 8 213 122C240-48 200 0 122 0H30v-248zM63-27c89 8 146-16 146-99s-60-101-146-95v194" id="L"/><path fill="#333" d="M114-163C36-179 61-72 57 0H25l-1-190h30c1 12-1 29 2 39 6-27 23-49 58-41v29" id="M"/><g id="c"><use transform="matrix(0.04999999999999987,0,0,0.04999999999999987,0,0)" xlink:href="#L"/><use transform="matrix(0.04999999999999987,0,0,0.04999999999999987,12.949999999999967,0)" xlink:href="#G"/><use transform="matrix(0.04999999999999987,0,0,0.04999999999999987,16.899999999999956,0)" xlink:href="#E"/><use transform="matrix(0.04999999999999987,0,0,0.04999999999999987,26.899999999999924,0)" xlink:href="#M"/><use transform="matrix(0.04999999999999987,0,0,0.04999999999999987,32.84999999999991,0)" xlink:href="#K"/></g><g id="d"><use transform="matrix(0.04999999999999987,0,0,0.04999999999999987,0,0)" xlink:href="#x"/><use transform="matrix(0.04999999999999987,0,0,0.04999999999999987,10.499999999999973,0)" xlink:href="#H"/><use transform="matrix(0.04999999999999987,0,0,0.04999999999999987,15.49999999999996,0)" xlink:href="#z"/><use transform="matrix(0.04999999999999987,0,0,0.04999999999999987,20.499999999999947,0)" xlink:href="#G"/><use transform="matrix(0.04999999999999987,0,0,0.04999999999999987,24.449999999999935,0)" xlink:href="#z"/><use transform="matrix(0.04999999999999987,0,0,0.04999999999999987,29.449999999999918,0)" xlink:href="#B"/><use transform="matrix(0.04999999999999987,0,0,0.04999999999999987,33.39999999999991,0)" xlink:href="#D"/><use transform="matrix(0.04999999999999987,0,0,0.04999999999999987,43.399999999999885,0)" xlink:href="#C"/><use transform="matrix(0.04999999999999987,0,0,0.04999999999999987,53.899999999999864,0)" xlink:href="#x"/><use transform="matrix(0.04999999999999987,0,0,0.04999999999999987,64.39999999999984,0)" xlink:href="#H"/><use transform="matrix(0.04999999999999987,0,0,0.04999999999999987,69.39999999999982,0)" xlink:href="#y"/><use transform="matrix(0.04999999999999987,0,0,0.04999999999999987,79.39999999999979,0)" xlink:href="#D"/><use transform="matrix(0.04999999999999987,0,0,0.04999999999999987,89.39999999999976,0)" xlink:href="#E"/><use transform="matrix(0.04999999999999987,0,0,0.04999999999999987,99.39999999999974,0)" xlink:href="#F"/><use transform="matrix(0.04999999999999987,0,0,0.04999999999999987,109.39999999999972,0)" xlink:href="#C"/><use transform="matrix(0.04999999999999987,0,0,0.04999999999999987,119.89999999999966,0)" xlink:href="#x"/><use transform="matrix(0.04999999999999987,0,0,0.04999999999999987,130.39999999999966,0)" xlink:href="#I"/><use transform="matrix(0.04999999999999987,0,0,0.04999999999999987,140.39999999999964,0)" xlink:href="#J"/><use transform="matrix(0.04999999999999987,0,0,0.04999999999999987,150.3999999999996,0)" xlink:href="#F"/><use transform="matrix(0.04999999999999987,0,0,0.04999999999999987,160.39999999999958,0)" xlink:href="#K"/><use transform="matrix(0.04999999999999987,0,0,0.04999999999999987,169.39999999999955,0)" xlink:href="#C"/></g><path fill="#333" d="M33 0v-248h34V0H33" id="N"/><use transform="matrix(0.04999999999999987,0,0,0.04999999999999987,0,0)" xlink:href="#N" id="e"/><path fill="#333" d="M108 0H70L1-190h34L89-25l56-165h34" id="O"/><g id="f"><use transform="matrix(0.04999999999999987,0,0,0.04999999999999987,0,0)" xlink:href="#B"/><use transform="matrix(0.04999999999999987,0,0,0.04999999999999987,3.94999999999999,0)" xlink:href="#G"/><use transform="matrix(0.04999999999999987,0,0,0.04999999999999987,7.89999999999998,0)" xlink:href="#O"/><use transform="matrix(0.04999999999999987,0,0,0.04999999999999987,16.899999999999956,0)" xlink:href="#D"/></g><path fill="#333" d="M117-194c89-4 53 116 60 194h-32v-121c0-31-8-49-39-48C34-167 62-67 57 0H25l-1-190h30c1 10-1 24 2 32 11-22 29-35 61-36" id="P"/><g id="g"><use transform="matrix(0.04999999999999987,0,0,0.04999999999999987,0,0)" xlink:href="#G"/><use transform="matrix(0.04999999999999987,0,0,0.04999999999999987,3.94999999999999,0)" xlink:href="#P"/></g><path fill="#333" d="M185-189c-5-48-123-54-124 2 14 75 158 14 163 119 3 78-121 87-175 55-17-10-28-26-33-46l33-7c5 56 141 63 141-1 0-78-155-14-162-118-5-82 145-84 179-34 5 7 8 16 11 25" id="Q"/><g id="h"><use transform="matrix(0.04999999999999987,0,0,0.04999999999999987,0,0)" xlink:href="#Q"/><use transform="matrix(0.04999999999999987,0,0,0.04999999999999987,11.99999999999997,0)" xlink:href="#E"/><use transform="matrix(0.04999999999999987,0,0,0.04999999999999987,21.999999999999943,0)" xlink:href="#P"/></g><path fill="#333" d="M63-220v92h138v28H63V0H30v-248h175v28H63" id="R"/><path fill="#333" d="M96-169c-40 0-48 33-48 73s9 75 48 75c24 0 41-14 43-38l32 2c-6 37-31 61-74 61-59 0-76-41-82-99-10-93 101-131 147-64 4 7 5 14 7 22l-32 3c-4-21-16-35-41-35" id="S"/><path fill="#333" d="M135-143c-3-34-86-38-87 0 15 53 115 12 119 90S17 21 10-45l28-5c4 36 97 45 98 0-10-56-113-15-118-90-4-57 82-63 122-42 12 7 21 19 24 35" id="T"/><g id="i"><use transform="matrix(0.04999999999999987,0,0,0.04999999999999987,0,0)" xlink:href="#R"/><use transform="matrix(0.04999999999999987,0,0,0.04999999999999987,10.94999999999997,0)" xlink:href="#M"/><use transform="matrix(0.04999999999999987,0,0,0.04999999999999987,16.899999999999956,0)" xlink:href="#E"/><use transform="matrix(0.04999999999999987,0,0,0.04999999999999987,26.899999999999924,0)" xlink:href="#P"/><use transform="matrix(0.04999999999999987,0,0,0.04999999999999987,36.8999999999999,0)" xlink:href="#S"/><use transform="matrix(0.04999999999999987,0,0,0.04999999999999987,45.89999999999988,0)" xlink:href="#G"/><use transform="matrix(0.04999999999999987,0,0,0.04999999999999987,49.849999999999866,0)" xlink:href="#T"/><use transform="matrix(0.04999999999999987,0,0,0.04999999999999987,58.849999999999845,0)" xlink:href="#S"/><use transform="matrix(0.04999999999999987,0,0,0.04999999999999987,67.84999999999982,0)" xlink:href="#J"/></g><g id="j"><use transform="matrix(0.05,0,0,0.05,0,0)" xlink:href="#y"/><use transform="matrix(0.05,0,0,0.05,10,0)" xlink:href="#z"/><use transform="matrix(0.05,0,0,0.05,15,0)" xlink:href="#A"/><use transform="matrix(0.05,0,0,0.05,29.950000000000003,0)" xlink:href="#B"/></g><path fill="#333" d="M143 0L79-87 56-68V0H24v-261h32v163l83-92h37l-77 82L181 0h-38" id="U"/><path fill="#333" d="M84 4C-5 8 30-112 23-190h32v120c0 31 7 50 39 49 72-2 45-101 50-169h31l1 190h-30c-1-10 1-25-2-33-11 22-28 36-60 37" id="V"/><path fill="#333" d="M115-194c55 1 70 41 70 98S169 2 115 4C84 4 66-9 55-30l1 105H24l-1-265h31l2 30c10-21 28-34 59-34zm-8 174c40 0 45-34 45-75s-6-73-45-74c-42 0-51 32-51 76 0 43 10 73 51 73" id="W"/><g id="k"><use transform="matrix(0.05,0,0,0.05,0,0)" xlink:href="#A"/><use transform="matrix(0.05,0,0,0.05,14.950000000000001,0)" xlink:href="#E"/><use transform="matrix(0.05,0,0,0.05,24.950000000000003,0)" xlink:href="#M"/><use transform="matrix(0.05,0,0,0.05,30.900000000000002,0)" xlink:href="#U"/><use transform="matrix(0.05,0,0,0.05,39.900000000000006,0)" xlink:href="#V"/><use transform="matrix(0.05,0,0,0.05,49.900000000000006,0)" xlink:href="#W"/></g><path fill="#333" d="M141 0L90-78 38 0H4l68-98-65-92h35l48 74 47-74h35l-64 92 68 98h-35" id="X"/><g id="l"><use transform="matrix(0.05,0,0,0.05,0,0)" xlink:href="#z"/><use transform="matrix(0.05,0,0,0.05,5,0)" xlink:href="#D"/><use transform="matrix(0.05,0,0,0.05,15,0)" xlink:href="#X"/><use transform="matrix(0.05,0,0,0.05,24,0)" xlink:href="#z"/></g><g id="m"><use transform="matrix(0.04999999999999987,0,0,0.04999999999999987,0,0)" xlink:href="#x"/><use transform="matrix(0.04999999999999987,0,0,0.04999999999999987,10.499999999999973,0)" xlink:href="#y"/><use transform="matrix(0.04999999999999987,0,0,0.04999999999999987,20.499999999999947,0)" xlink:href="#z"/><use transform="matrix(0.04999999999999987,0,0,0.04999999999999987,25.499999999999932,0)" xlink:href="#A"/><use transform="matrix(0.04999999999999987,0,0,0.04999999999999987,40.449999999999896,0)" xlink:href="#B"/><use transform="matrix(0.04999999999999987,0,0,0.04999999999999987,44.399999999999885,0)" xlink:href="#C"/><use transform="matrix(0.04999999999999987,0,0,0.04999999999999987,54.89999999999986,0)" xlink:href="#x"/><use transform="matrix(0.04999999999999987,0,0,0.04999999999999987,65.39999999999984,0)" xlink:href="#y"/><use transform="matrix(0.04999999999999987,0,0,0.04999999999999987,75.3999999999998,0)" xlink:href="#D"/><use transform="matrix(0.04999999999999987,0,0,0.04999999999999987,85.39999999999978,0)" xlink:href="#E"/><use transform="matrix(0.04999999999999987,0,0,0.04999999999999987,95.39999999999975,0)" xlink:href="#F"/><use transform="matrix(0.04999999999999987,0,0,0.04999999999999987,105.39999999999972,0)" xlink:href="#C"/><use transform="matrix(0.04999999999999987,0,0,0.04999999999999987,115.89999999999971,0)" xlink:href="#x"/><use transform="matrix(0.04999999999999987,0,0,0.04999999999999987,126.39999999999968,0)" xlink:href="#z"/><use transform="matrix(0.04999999999999987,0,0,0.04999999999999987,131.39999999999966,0)" xlink:href="#G"/><use transform="matrix(0.04999999999999987,0,0,0.04999999999999987,135.34999999999965,0)" xlink:href="#z"/><use transform="matrix(0.04999999999999987,0,0,0.04999999999999987,140.34999999999965,0)" xlink:href="#B"/><use transform="matrix(0.04999999999999987,0,0,0.04999999999999987,144.29999999999964,0)" xlink:href="#D"/><use transform="matrix(0.04999999999999987,0,0,0.04999999999999987,154.2999999999996,0)" xlink:href="#C"/></g><g id="n"><use transform="matrix(0.04999999999999987,0,0,0.04999999999999987,0,0)" xlink:href="#x"/><use transform="matrix(0.04999999999999987,0,0,0.04999999999999987,10.499999999999973,0)" xlink:href="#H"/><use transform="matrix(0.04999999999999987,0,0,0.04999999999999987,15.49999999999996,0)" xlink:href="#I"/><use transform="matrix(0.04999999999999987,0,0,0.04999999999999987,25.499999999999936,0)" xlink:href="#J"/><use transform="matrix(0.04999999999999987,0,0,0.04999999999999987,35.49999999999991,0)" xlink:href="#F"/><use transform="matrix(0.04999999999999987,0,0,0.04999999999999987,45.49999999999988,0)" xlink:href="#K"/><use transform="matrix(0.04999999999999987,0,0,0.04999999999999987,54.49999999999986,0)" xlink:href="#C"/><use transform="matrix(0.04999999999999987,0,0,0.04999999999999987,64.99999999999983,0)" xlink:href="#x"/><use transform="matrix(0.04999999999999987,0,0,0.04999999999999987,75.4999999999998,0)" xlink:href="#H"/><use transform="matrix(0.04999999999999987,0,0,0.04999999999999987,80.49999999999979,0)" xlink:href="#y"/><use transform="matrix(0.04999999999999987,0,0,0.04999999999999987,90.49999999999976,0)" xlink:href="#z"/><use transform="matrix(0.04999999999999987,0,0,0.04999999999999987,95.49999999999974,0)" xlink:href="#A"/><use transform="matrix(0.04999999999999987,0,0,0.04999999999999987,110.44999999999972,0)" xlink:href="#B"/><use transform="matrix(0.04999999999999987,0,0,0.04999999999999987,114.39999999999968,0)" xlink:href="#C"/></g><g id="o"><use transform="matrix(0.04999999999999987,0,0,0.04999999999999987,0,0)" xlink:href="#L"/><use transform="matrix(0.04999999999999987,0,0,0.04999999999999987,12.949999999999967,0)" xlink:href="#G"/><use transform="matrix(0.04999999999999987,0,0,0.04999999999999987,16.899999999999956,0)" xlink:href="#E"/><use transform="matrix(0.04999999999999987,0,0,0.04999999999999987,26.899999999999924,0)" xlink:href="#M"/><use transform="matrix(0.04999999999999987,0,0,0.04999999999999987,32.84999999999991,0)" xlink:href="#K"/></g><g id="p"><use transform="matrix(0.04999999999999987,0,0,0.04999999999999987,0,0)" xlink:href="#x"/><use transform="matrix(0.04999999999999987,0,0,0.04999999999999987,10.499999999999973,0)" xlink:href="#H"/><use transform="matrix(0.04999999999999987,0,0,0.04999999999999987,15.49999999999996,0)" xlink:href="#z"/><use transform="matrix(0.04999999999999987,0,0,0.04999999999999987,20.499999999999947,0)" xlink:href="#G"/><use transform="matrix(0.04999999999999987,0,0,0.04999999999999987,24.449999999999935,0)" xlink:href="#z"/><use transform="matrix(0.04999999999999987,0,0,0.04999999999999987,29.449999999999918,0)" xlink:href="#B"/><use transform="matrix(0.04999999999999987,0,0,0.04999999999999987,33.39999999999991,0)" xlink:href="#D"/><use transform="matrix(0.04999999999999987,0,0,0.04999999999999987,43.399999999999885,0)" xlink:href="#C"/><use transform="matrix(0.04999999999999987,0,0,0.04999999999999987,53.899999999999864,0)" xlink:href="#x"/><use transform="matrix(0.04999999999999987,0,0,0.04999999999999987,64.39999999999984,0)" xlink:href="#H"/><use transform="matrix(0.04999999999999987,0,0,0.04999999999999987,69.39999999999982,0)" xlink:href="#y"/><use transform="matrix(0.04999999999999987,0,0,0.04999999999999987,79.39999999999979,0)" xlink:href="#D"/><use transform="matrix(0.04999999999999987,0,0,0.04999999999999987,89.39999999999976,0)" xlink:href="#E"/><use transform="matrix(0.04999999999999987,0,0,0.04999999999999987,99.39999999999974,0)" xlink:href="#F"/><use transform="matrix(0.04999999999999987,0,0,0.04999999999999987,109.39999999999972,0)" xlink:href="#C"/><use transform="matrix(0.04999999999999987,0,0,0.04999999999999987,119.89999999999966,0)" xlink:href="#x"/><use transform="matrix(0.04999999999999987,0,0,0.04999999999999987,130.39999999999966,0)" xlink:href="#I"/><use transform="matrix(0.04999999999999987,0,0,0.04999999999999987,140.39999999999964,0)" xlink:href="#J"/><use transform="matrix(0.04999999999999987,0,0,0.04999999999999987,150.3999999999996,0)" xlink:href="#F"/><use transform="matrix(0.04999999999999987,0,0,0.04999999999999987,160.39999999999958,0)" xlink:href="#K"/><use transform="matrix(0.04999999999999987,0,0,0.04999999999999987,169.39999999999955,0)" xlink:href="#C"/></g><use transform="matrix(0.04999999999999987,0,0,0.04999999999999987,0,0)" xlink:href="#N" id="q"/><g id="r"><use transform="matrix(0.04999999999999987,0,0,0.04999999999999987,0,0)" xlink:href="#B"/><use transform="matrix(0.04999999999999987,0,0,0.04999999999999987,3.94999999999999,0)" xlink:href="#G"/><use transform="matrix(0.04999999999999987,0,0,0.04999999999999987,7.89999999999998,0)" xlink:href="#O"/><use transform="matrix(0.04999999999999987,0,0,0.04999999999999987,16.899999999999956,0)" xlink:href="#D"/></g><g id="s"><use transform="matrix(0.04999999999999987,0,0,0.04999999999999987,0,0)" xlink:href="#G"/><use transform="matrix(0.04999999999999987,0,0,0.04999999999999987,3.94999999999999,0)" xlink:href="#P"/></g><g id="t"><use transform="matrix(0.04999999999999987,0,0,0.04999999999999987,0,0)" xlink:href="#Q"/><use transform="matrix(0.04999999999999987,0,0,0.04999999999999987,11.99999999999997,0)" xlink:href="#E"/><use transform="matrix(0.04999999999999987,0,0,0.04999999999999987,21.999999999999943,0)" xlink:href="#P"/></g><g id="u"><use transform="matrix(0.04999999999999987,0,0,0.04999999999999987,0,0)" xlink:href="#R"/><use transform="matrix(0.04999999999999987,0,0,0.04999999999999987,10.94999999999997,0)" xlink:href="#M"/><use transform="matrix(0.04999999999999987,0,0,0.04999999999999987,16.899999999999956,0)" xlink:href="#E"/><use transform="matrix(0.04999999999999987,0,0,0.04999999999999987,26.899999999999924,0)" xlink:href="#P"/><use transform="matrix(0.04999999999999987,0,0,0.04999999999999987,36.8999999999999,0)" xlink:href="#S"/><use transform="matrix(0.04999999999999987,0,0,0.04999999999999987,45.89999999999988,0)" xlink:href="#G"/><use transform="matrix(0.04999999999999987,0,0,0.04999999999999987,49.849999999999866,0)" xlink:href="#T"/><use transform="matrix(0.04999999999999987,0,0,0.04999999999999987,58.849999999999845,0)" xlink:href="#S"/><use transform="matrix(0.04999999999999987,0,0,0.04999999999999987,67.84999999999982,0)" xlink:href="#J"/></g><g id="v"><use transform="matrix(0.05,0,0,0.05,0,0)" xlink:href="#y"/><use transform="matrix(0.05,0,0,0.05,10,0)" xlink:href="#z"/><use transform="matrix(0.05,0,0,0.05,15,0)" xlink:href="#A"/><use transform="matrix(0.05,0,0,0.05,29.950000000000003,0)" xlink:href="#B"/></g><g id="w"><use transform="matrix(0.05,0,0,0.05,0,0)" xlink:href="#z"/><use transform="matrix(0.05,0,0,0.05,5,0)" xlink:href="#D"/><use transform="matrix(0.05,0,0,0.05,15,0)" xlink:href="#X"/><use transform="matrix(0.05,0,0,0.05,24,0)" xlink:href="#z"/></g></defs></g></svg>