<svg xmlns="http://www.w3.org/2000/svg" width="440" height="188">
  <!-- Zone -->
  <rect x="4" y="4" width="432" height="180" rx="6" fill="white" stroke="#aaaaaa" stroke-dasharray="5,3" stroke-width="1.5"/>
  <text x="12" y="18" font-family="Helvetica Neue, Arial, sans-serif" font-size="10" fill="#777777">prod.aws-us-east-1</text>
  <!-- AZ1 box -->
  <rect x="14" y="22" width="200" height="154" rx="6" fill="#b7e2f1" stroke="#3788a5" stroke-width="1"/>
  <text x="22" y="37" font-family="Helvetica Neue, Arial, sans-serif" font-size="11" font-weight="bold" fill="#1b5878">use1-az1</text>
  <!-- AZ2 box -->
  <rect x="226" y="22" width="200" height="154" rx="6" fill="#b7e2f1" stroke="#3788a5" stroke-width="1"/>
  <text x="234" y="37" font-family="Helvetica Neue, Arial, sans-serif" font-size="11" font-weight="bold" fill="#1b5878">use1-az2</text>
  <!-- Content cluster (spans both AZs) -->
  <rect x="24" y="42" width="392" height="126" rx="6" fill="#baedce" stroke="#4a9e72" stroke-width="1" stroke-opacity="0.4"/>
  <text x="220" y="57" font-family="Helvetica Neue, Arial, sans-serif" font-size="12" font-weight="bold" fill="#1b6a3a" text-anchor="middle">Content cluster</text>
  <!-- Group 0: x=70 (in AZ1) -->
  <rect x="70" y="66" width="44" height="90" rx="4" fill="#daeef7" stroke="#93cee1" stroke-width="1"/>
  <text x="92" y="79" font-family="Helvetica Neue, Arial, sans-serif" font-size="10" fill="#2e2f27" text-anchor="middle">Group 0</text>
  <rect x="78" y="84" width="28" height="14" rx="3" fill="#1b6a3a"/>
  <rect x="78" y="103" width="28" height="14" rx="3" fill="#1b6a3a"/>
  <rect x="78" y="122" width="28" height="14" rx="3" fill="#1b6a3a"/>
  <!-- Group 1: x=124 (in AZ1) -->
  <rect x="124" y="66" width="44" height="90" rx="4" fill="#daeef7" stroke="#93cee1" stroke-width="1"/>
  <text x="146" y="79" font-family="Helvetica Neue, Arial, sans-serif" font-size="10" fill="#2e2f27" text-anchor="middle">Group 1</text>
  <rect x="132" y="84" width="28" height="14" rx="3" fill="#1b6a3a"/>
  <rect x="132" y="103" width="28" height="14" rx="3" fill="#1b6a3a"/>
  <rect x="132" y="122" width="28" height="14" rx="3" fill="#1b6a3a"/>
  <!-- Group 2: x=272 (in AZ2) -->
  <rect x="272" y="66" width="44" height="90" rx="4" fill="#daeef7" stroke="#93cee1" stroke-width="1"/>
  <text x="294" y="79" font-family="Helvetica Neue, Arial, sans-serif" font-size="10" fill="#2e2f27" text-anchor="middle">Group 2</text>
  <rect x="280" y="84" width="28" height="14" rx="3" fill="#1b6a3a"/>
  <rect x="280" y="103" width="28" height="14" rx="3" fill="#1b6a3a"/>
  <rect x="280" y="122" width="28" height="14" rx="3" fill="#1b6a3a"/>
  <!-- Group 3: x=326 (in AZ2) -->
  <rect x="326" y="66" width="44" height="90" rx="4" fill="#daeef7" stroke="#93cee1" stroke-width="1"/>
  <text x="348" y="79" font-family="Helvetica Neue, Arial, sans-serif" font-size="10" fill="#2e2f27" text-anchor="middle">Group 3</text>
  <rect x="334" y="84" width="28" height="14" rx="3" fill="#1b6a3a"/>
  <rect x="334" y="103" width="28" height="14" rx="3" fill="#1b6a3a"/>
  <rect x="334" y="122" width="28" height="14" rx="3" fill="#1b6a3a"/>
</svg>
