<svg xmlns="http://www.w3.org/2000/svg" width="280" height="188">
  <!-- Zone -->
  <rect x="4" y="4" width="272" height="180" rx="6" fill="white" stroke="#aaaaaa" stroke-dasharray="5,3" stroke-width="1.5"/>
  <text x="12" y="18" font-family="Helvetica Neue, Arial, sans-serif" font-size="10" fill="#777777">prod.aws-us-east-1c</text>
  <!-- AZ box -->
  <rect x="14" y="22" width="252" height="154" rx="6" fill="#b7e2f1" stroke="#3788a5" stroke-width="1"/>
  <text x="22" y="37" font-family="Helvetica Neue, Arial, sans-serif" font-size="11" font-weight="bold" fill="#1b5878">use1-az1</text>
  <!-- Content cluster (spans AZ) -->
  <rect x="24" y="42" width="232" height="126" rx="6" fill="#baedce" stroke="#4a9e72" stroke-width="1" stroke-opacity="0.4"/>
  <text x="140" y="57" font-family="Helvetica Neue, Arial, sans-serif" font-size="12" font-weight="bold" fill="#1b6a3a" text-anchor="middle">Content cluster</text>
  <!-- Group 0: x=37 -->
  <rect x="37" y="66" width="44" height="90" rx="4" fill="#daeef7" stroke="#93cee1" stroke-width="1"/>
  <text x="59" y="79" font-family="Helvetica Neue, Arial, sans-serif" font-size="10" fill="#2e2f27" text-anchor="middle">Group 0</text>
  <rect x="45" y="84" width="28" height="14" rx="3" fill="#1b6a3a"/>
  <rect x="45" y="103" width="28" height="14" rx="3" fill="#1b6a3a"/>
  <rect x="45" y="122" width="28" height="14" rx="3" fill="#1b6a3a"/>
  <!-- Group 1: x=91 -->
  <rect x="91" y="66" width="44" height="90" rx="4" fill="#daeef7" stroke="#93cee1" stroke-width="1"/>
  <text x="113" y="79" font-family="Helvetica Neue, Arial, sans-serif" font-size="10" fill="#2e2f27" text-anchor="middle">Group 1</text>
  <rect x="99" y="84" width="28" height="14" rx="3" fill="#1b6a3a"/>
  <rect x="99" y="103" width="28" height="14" rx="3" fill="#1b6a3a"/>
  <rect x="99" y="122" width="28" height="14" rx="3" fill="#1b6a3a"/>
  <!-- Group 2: x=145 -->
  <rect x="145" y="66" width="44" height="90" rx="4" fill="#daeef7" stroke="#93cee1" stroke-width="1"/>
  <text x="167" y="79" font-family="Helvetica Neue, Arial, sans-serif" font-size="10" fill="#2e2f27" text-anchor="middle">Group 2</text>
  <rect x="153" y="84" width="28" height="14" rx="3" fill="#1b6a3a"/>
  <rect x="153" y="103" width="28" height="14" rx="3" fill="#1b6a3a"/>
  <rect x="153" y="122" width="28" height="14" rx="3" fill="#1b6a3a"/>
  <!-- Group 3: x=199 -->
  <rect x="199" y="66" width="44" height="90" rx="4" fill="#daeef7" stroke="#93cee1" stroke-width="1"/>
  <text x="221" y="79" font-family="Helvetica Neue, Arial, sans-serif" font-size="10" fill="#2e2f27" text-anchor="middle">Group 3</text>
  <rect x="207" y="84" width="28" height="14" rx="3" fill="#1b6a3a"/>
  <rect x="207" y="103" width="28" height="14" rx="3" fill="#1b6a3a"/>
  <rect x="207" y="122" width="28" height="14" rx="3" fill="#1b6a3a"/>
</svg>
