<svg xmlns="http://www.w3.org/2000/svg" xmlns:xlink="http://www.w3.org/1999/xlink" xmlns:lucid="lucid" width="740" height="438.67"><g transform="translate(-80 -400)" lucid:page-tab-id="0_0"><path d="M0 0h1870.87v1322.83H0z" fill="#fff"/><path d="M400.67 426c0-3.3 2.68-6 6-6H514c3.3 0 6 2.7 6 6v68c0 3.3-2.7 6-6 6H406.67c-3.32 0-6-2.7-6-6z" stroke="#000" stroke-opacity="0" stroke-width="3" fill="#ef8d22"/><use xlink:href="#a" transform="matrix(1,0,0,1,412.6666666666666,432) translate(20.5 31.9)"/><use xlink:href="#b" transform="matrix(1,0,0,1,412.6666666666666,432) translate(65.5 31.9)"/><path d="M540 426c0-3.3 2.7-6 6-6h107.33c3.32 0 6 2.7 6 6v68c0 3.3-2.68 6-6 6H546c-3.3 0-6-2.7-6-6z" stroke="#000" stroke-opacity="0" stroke-width="3" fill="#ef8d22"/><use xlink:href="#a" transform="matrix(1,0,0,1,552,432) translate(20.5 31.9)"/><use xlink:href="#c" transform="matrix(1,0,0,1,552,432) translate(65.5 31.9)"/><path d="M680 426c0-3.3 2.7-6 6-6h107.33c3.32 0 6 2.7 6 6v68c0 3.3-2.68 6-6 6H686c-3.3 0-6-2.7-6-6z" stroke="#000" stroke-opacity="0" stroke-width="3" fill="#ef8d22"/><use xlink:href="#a" transform="matrix(1,0,0,1,692,432) translate(20.5 31.9)"/><use xlink:href="#d" transform="matrix(1,0,0,1,692,432) translate(65.5 31.9)"/><path d="M400 686c0-3.3 2.7-6 6-6h107.33c3.32 0 6 2.7 6 6v68c0 3.3-2.68 6-6 6H406c-3.3 0-6-2.7-6-6z" stroke="#000" stroke-opacity="0" stroke-width="3" fill="#ef8d22"/><use xlink:href="#a" transform="matrix(1,0,0,1,412.00000000000006,692) translate(20.5 31.9)"/><use xlink:href="#c" transform="matrix(1,0,0,1,412.00000000000006,692) translate(65.5 31.9)"/><path d="M539.33 686c0-3.3 2.7-6 6-6h107.34c3.3 0 6 2.7 6 6v68c0 3.3-2.7 6-6 6H545.33c-3.3 0-6-2.7-6-6z" stroke="#000" stroke-opacity="0" stroke-width="3" fill="#ef8d22"/><use xlink:href="#a" transform="matrix(1,0,0,1,551.3333333333335,692) translate(20.5 31.9)"/><use xlink:href="#b" transform="matrix(1,0,0,1,551.3333333333335,692) translate(65.5 31.9)"/><path d="M679.33 686c0-3.3 2.7-6 6-6h107.34c3.3 0 6 2.7 6 6v68c0 3.3-2.7 6-6 6H685.33c-3.3 0-6-2.7-6-6z" stroke="#000" stroke-opacity="0" stroke-width="3" fill="#ef8d22"/><use xlink:href="#a" transform="matrix(1,0,0,1,691.3333333333335,692) translate(20.5 31.9)"/><use xlink:href="#d" transform="matrix(1,0,0,1,691.3333333333335,692) translate(65.5 31.9)"/><path d="M400 526c0-3.3 2.7-6 6-6h108c3.3 0 6 2.7 6 6v26.67c0 3.3-2.7 6-6 6H406c-3.3 0-6-2.7-6-6z" stroke="#333" stroke-width="2" fill="#fff"/><use xlink:href="#e" transform="matrix(1,0,0,1,405,525) translate(32.5 18.025)"/><path d="M540 526c0-3.3 2.7-6 6-6h108c3.3 0 6 2.7 6 6v26.67c0 3.3-2.7 6-6 6H546c-3.3 0-6-2.7-6-6z" stroke="#333" stroke-width="2" fill="#fff"/><use xlink:href="#f" transform="matrix(1,0,0,1,545,525) translate(32.5 18.025)"/><path d="M680 526c0-3.3 2.7-6 6-6h108c3.3 0 6 2.7 6 6v26.67c0 3.3-2.7 6-6 6H686c-3.3 0-6-2.7-6-6z" stroke="#333" stroke-width="2" fill="#fff"/><use xlink:href="#g" transform="matrix(1,0,0,1,685,525) translate(32.5 18.025)"/><path d="M540 786c0-3.3 2.7-6 6-6h108c3.3 0 6 2.7 6 6v26.67c0 3.3-2.7 6-6 6H546c-3.3 0-6-2.7-6-6z" stroke="#333" stroke-width="2" fill="#fff"/><use xlink:href="#e" transform="matrix(1,0,0,1,545,785) translate(32.5 18.025)"/><path d="M400 786c0-3.3 2.7-6 6-6h108c3.3 0 6 2.7 6 6v26.67c0 3.3-2.7 6-6 6H406c-3.3 0-6-2.7-6-6z" stroke="#333" stroke-width="2" fill="#fff"/><use xlink:href="#f" transform="matrix(1,0,0,1,405,785) translate(32.5 18.025)"/><path d="M680 786c0-3.3 2.7-6 6-6h108c3.3 0 6 2.7 6 6v26.67c0 3.3-2.7 6-6 6H686c-3.3 0-6-2.7-6-6z" stroke="#333" stroke-width="2" fill="#fff"/><use xlink:href="#g" transform="matrix(1,0,0,1,685,785) translate(32.5 18.025)"/><path d="M740 560.67V661.5" stroke="#5e5e5e" stroke-width="2" fill="none"/><path d="M741 560.7h-2v-1.03h2" fill="#5e5e5e"/><path d="M740 676.76l-4.64-14.26h9.28z" stroke="#5e5e5e" stroke-width="2" fill="#5e5e5e"/><path d="M599.24 560.32L473.7 667.96" stroke="#5e5e5e" stroke-width="2" fill="none"/><path d="M599.87 561.1l-1.22-1.43h2.9" fill="#5e5e5e"/><path d="M462.12 677.9l7.82-12.8 6.03 7.03z" stroke="#5e5e5e" stroke-width="2" fill="#5e5e5e"/><path d="M460.42 560.32L585 667.92" stroke="#5e5e5e" stroke-width="2" fill="none"/><path d="M459.8 561.1l-1.66-1.43h2.88" fill="#5e5e5e"/><path d="M596.55 677.88l-13.83-5.8 6.06-7.03z" stroke="#5e5e5e" stroke-width="2" fill="#5e5e5e"/><path d="M100 527.33c0-3.3 2.7-6 6-6h268c3.3 0 6 2.7 6 6V554c0 3.3-2.7 6-6 6H106c-3.3 0-6-2.7-6-6z" stroke="#000" stroke-opacity="0" stroke-width="3" fill="#fff" fill-opacity="0"/><g><use xlink:href="#h" transform="matrix(1,0,0,1,105,526.3333333333334) translate(0.853703703704241 19.76805555555552)"/><use xlink:href="#i" transform="matrix(1,0,0,1,105,526.3333333333334) translate(166.5061728395064 19.76805555555552)"/></g><path d="M200 706c0-3.3 2.7-6 6-6h168c3.3 0 6 2.7 6 6v28c0 3.3-2.7 6-6 6H206c-3.3 0-6-2.7-6-6z" stroke="#000" stroke-opacity="0" stroke-width="3" fill="#fff" fill-opacity="0"/><g><use xlink:href="#j" transform="matrix(1,0,0,1,205,705) translate(6.716666666666981 19.83055555555552)"/><use xlink:href="#i" transform="matrix(1,0,0,1,205,705) translate(66.50617283950638 19.83055555555552)"/></g><defs><path fill="#fff" d="M117-194c89-4 53 116 60 194h-32v-121c0-31-8-49-39-48C34-167 62-67 57 0H25l-1-190h30c1 10-1 24 2 32 11-22 29-35 61-36" id="k"/><path fill="#fff" d="M100-194c62-1 85 37 85 99 1 63-27 99-86 99S16-35 15-95c0-66 28-99 85-99zM99-20c44 1 53-31 53-75 0-43-8-75-51-75s-53 32-53 75 10 74 51 75" id="l"/><path fill="#fff" d="M85-194c31 0 48 13 60 33l-1-100h32l1 261h-30c-2-10 0-23-3-31C134-8 116 4 85 4 32 4 16-35 15-94c0-66 23-100 70-100zm9 24c-40 0-46 34-46 75 0 40 6 74 45 74 42 0 51-32 51-76 0-42-9-74-50-73" id="m"/><path fill="#fff" d="M100-194c63 0 86 42 84 106H49c0 40 14 67 53 68 26 1 43-12 49-29l28 8c-11 28-37 45-77 45C44 4 14-33 15-96c1-61 26-98 85-98zm52 81c6-60-76-77-97-28-3 7-6 17-6 28h103" id="n"/><g id="a"><use transform="matrix(0.05,0,0,0.05,0,0)" xlink:href="#k"/><use transform="matrix(0.05,0,0,0.05,10,0)" xlink:href="#l"/><use transform="matrix(0.05,0,0,0.05,20,0)" xlink:href="#m"/><use transform="matrix(0.05,0,0,0.05,30,0)" xlink:href="#n"/></g><path fill="#fff" d="M27 0v-27h64v-190l-56 39v-29l58-41h29v221h61V0H27" id="o"/><use transform="matrix(0.05,0,0,0.05,0,0)" xlink:href="#o" id="b"/><path fill="#fff" d="M101-251c82-7 93 87 43 132L82-64C71-53 59-42 53-27h129V0H18c2-99 128-94 128-182 0-28-16-43-45-43s-46 15-49 41l-32-3c6-41 34-60 81-64" id="p"/><use transform="matrix(0.05,0,0,0.05,0,0)" xlink:href="#p" id="c"/><path fill="#fff" d="M126-127c33 6 58 20 58 59 0 88-139 92-164 29-3-8-5-16-6-25l32-3c6 27 21 44 54 44 32 0 52-15 52-46 0-38-36-46-79-43v-28c39 1 72-4 72-42 0-27-17-43-46-43-28 0-47 15-49 41l-32-3c6-42 35-63 81-64 48-1 79 21 79 65 0 36-21 52-52 59" id="q"/><use transform="matrix(0.05,0,0,0.05,0,0)" xlink:href="#q" id="d"/><path fill="#333" d="M101-251c68 0 84 54 84 127C185-50 166 4 99 4S15-52 14-124c-1-75 17-127 87-127zm-1 216c37-5 36-46 36-89s4-89-36-89c-39 0-36 45-36 89 0 43-3 85 36 89" id="r"/><path fill="#333" d="M24 0v-54h51V0H24" id="s"/><path fill="#333" d="M165-50V0h-47v-50H5v-38l105-160h55v161h33v37h-33zm-47-37l2-116L46-87h72" id="t"/><path fill="#333" d="M182-182c0 78-84 86-111 141h115V0H12c-6-101 99-100 120-180 1-22-12-31-33-32-23 0-32 14-35 34l-49-3c5-45 32-70 84-70 51 0 83 22 83 69" id="u"/><path fill="#333" d="M138-131c27 9 52 24 51 61 0 53-36 74-89 74S11-19 11-69c0-35 22-54 51-61-78-25-46-121 38-121 51 0 83 19 83 66 0 30-18 49-45 54zm-38-16c24 0 32-13 32-36 1-23-11-34-32-34-22 0-33 12-32 34 0 22 9 36 32 36zm1 116c27 0 37-17 37-43 0-25-13-39-39-39-24 0-37 15-37 40 0 27 11 42 39 42" id="v"/><g id="e"><use transform="matrix(0.05,0,0,0.05,0,0)" xlink:href="#r"/><use transform="matrix(0.05,0,0,0.05,10,0)" xlink:href="#s"/><use transform="matrix(0.05,0,0,0.05,15,0)" xlink:href="#t"/><use transform="matrix(0.05,0,0,0.05,25,0)" xlink:href="#u"/><use transform="matrix(0.05,0,0,0.05,35,0)" xlink:href="#v"/></g><path fill="#333" d="M52 0c1-96 47-148 87-207H15v-41h169v40c-36 62-79 113-81 208H52" id="w"/><path fill="#333" d="M99-251c69 0 84 53 88 123 5 99-61 162-144 118-15-8-21-25-26-45l46-6c4 31 50 33 63 7 7-15 12-36 12-60-9 18-29 28-54 28-48 0-72-32-72-82 0-55 31-83 87-83zm-1 128c24 0 37-16 37-39 0-27-10-51-37-51-25 0-35 19-35 45 0 25 10 45 35 45" id="x"/><g id="f"><use transform="matrix(0.05,0,0,0.05,0,0)" xlink:href="#r"/><use transform="matrix(0.05,0,0,0.05,10,0)" xlink:href="#s"/><use transform="matrix(0.05,0,0,0.05,15,0)" xlink:href="#w"/><use transform="matrix(0.05,0,0,0.05,25,0)" xlink:href="#v"/><use transform="matrix(0.05,0,0,0.05,35,0)" xlink:href="#x"/></g><path fill="#333" d="M23 0v-37h61v-169l-59 37v-38l62-41h46v211h57V0H23" id="y"/><g id="g"><use transform="matrix(0.05,0,0,0.05,0,0)" xlink:href="#r"/><use transform="matrix(0.05,0,0,0.05,10,0)" xlink:href="#s"/><use transform="matrix(0.05,0,0,0.05,15,0)" xlink:href="#y"/><use transform="matrix(0.05,0,0,0.05,25,0)" xlink:href="#u"/><use transform="matrix(0.05,0,0,0.05,35,0)" xlink:href="#y"/></g><path fill="#333" d="M30-248c87 1 191-15 191 75 0 78-77 80-158 76V0H30v-248zm33 125c57 0 124 11 124-50 0-59-68-47-124-48v98" id="z"/><path fill="#333" d="M135-143c-3-34-86-38-87 0 15 53 115 12 119 90S17 21 10-45l28-5c4 36 97 45 98 0-10-56-113-15-118-90-4-57 82-63 122-42 12 7 21 19 24 35" id="A"/><path fill="#333" d="M100-194c63 0 86 42 84 106H49c0 40 14 67 53 68 26 1 43-12 49-29l28 8c-11 28-37 45-77 45C44 4 14-33 15-96c1-61 26-98 85-98zm52 81c6-60-76-77-97-28-3 7-6 17-6 28h103" id="B"/><path fill="#333" d="M84 4C-5 8 30-112 23-190h32v120c0 31 7 50 39 49 72-2 45-101 50-169h31l1 190h-30c-1-10 1-25-2-33-11 22-28 36-60 37" id="C"/><path fill="#333" d="M85-194c31 0 48 13 60 33l-1-100h32l1 261h-30c-2-10 0-23-3-31C134-8 116 4 85 4 32 4 16-35 15-94c0-66 23-100 70-100zm9 24c-40 0-46 34-46 75 0 40 6 74 45 74 42 0 51-32 51-76 0-42-9-74-50-73" id="D"/><path fill="#333" d="M100-194c62-1 85 37 85 99 1 63-27 99-86 99S16-35 15-95c0-66 28-99 85-99zM99-20c44 1 53-31 53-75 0-43-8-75-51-75s-53 32-53 75 10 74 51 75" id="E"/><path fill="#333" d="M16-82v-28h88v28H16" id="F"/><path fill="#333" d="M114-163C36-179 61-72 57 0H25l-1-190h30c1 12-1 29 2 39 6-27 23-49 58-41v29" id="G"/><path fill="#333" d="M141-36C126-15 110 5 73 4 37 3 15-17 15-53c-1-64 63-63 125-63 3-35-9-54-41-54-24 1-41 7-42 31l-33-3c5-37 33-52 76-52 45 0 72 20 72 64v82c-1 20 7 32 28 27v20c-31 9-61-2-59-35zM48-53c0 20 12 33 32 33 41-3 63-29 60-74-43 2-92-5-92 41" id="H"/><path fill="#333" d="M117-194c89-4 53 116 60 194h-32v-121c0-31-8-49-39-48C34-167 62-67 57 0H25l-1-190h30c1 10-1 24 2 32 11-22 29-35 61-36" id="I"/><path fill="#333" d="M210-169c-67 3-38 105-44 169h-31v-121c0-29-5-50-35-48C34-165 62-65 56 0H25l-1-190h30c1 10-1 24 2 32 10-44 99-50 107 0 11-21 27-35 58-36 85-2 47 119 55 194h-31v-121c0-29-5-49-35-48" id="J"/><g id="h"><use transform="matrix(0.062345679012345556,0,0,0.062345679012345556,0,0)" xlink:href="#z"/><use transform="matrix(0.062345679012345556,0,0,0.062345679012345556,14.962962962962933,0)" xlink:href="#A"/><use transform="matrix(0.062345679012345556,0,0,0.062345679012345556,26.185185185185134,0)" xlink:href="#B"/><use transform="matrix(0.062345679012345556,0,0,0.062345679012345556,38.654320987654245,0)" xlink:href="#C"/><use transform="matrix(0.062345679012345556,0,0,0.062345679012345556,51.123456790123356,0)" xlink:href="#D"/><use transform="matrix(0.062345679012345556,0,0,0.062345679012345556,63.59259259259247,0)" xlink:href="#E"/><use transform="matrix(0.062345679012345556,0,0,0.062345679012345556,76.06172839506158,0)" xlink:href="#F"/><use transform="matrix(0.062345679012345556,0,0,0.062345679012345556,83.4808641975307,0)" xlink:href="#G"/><use transform="matrix(0.062345679012345556,0,0,0.062345679012345556,90.89999999999984,0)" xlink:href="#H"/><use transform="matrix(0.062345679012345556,0,0,0.062345679012345556,103.36913580246895,0)" xlink:href="#I"/><use transform="matrix(0.062345679012345556,0,0,0.062345679012345556,115.83827160493806,0)" xlink:href="#D"/><use transform="matrix(0.062345679012345556,0,0,0.062345679012345556,128.30740740740717,0)" xlink:href="#E"/><use transform="matrix(0.062345679012345556,0,0,0.062345679012345556,140.77654320987628,0)" xlink:href="#J"/></g><path fill="#333" d="M145-31C134-9 116 4 85 4 32 4 16-35 15-94c0-59 17-99 70-100 32-1 48 14 60 33 0-11-1-24 2-32h30l-1 268h-32zM93-21c41 0 51-33 51-76s-8-73-50-73c-40 0-46 35-46 75s5 74 45 74" id="K"/><path fill="#333" d="M96-169c-40 0-48 33-48 73s9 75 48 75c24 0 41-14 43-38l32 2c-6 37-31 61-74 61-59 0-76-41-82-99-10-93 101-131 147-64 4 7 5 14 7 22l-32 3c-4-21-16-35-41-35" id="L"/><path fill="#333" d="M33-154v-36h34v36H33zM33 0v-36h34V0H33" id="M"/><g id="i"><use transform="matrix(0.062345679012345556,0,0,0.062345679012345556,0,0)" xlink:href="#A"/><use transform="matrix(0.062345679012345556,0,0,0.062345679012345556,11.2222222222222,0)" xlink:href="#B"/><use transform="matrix(0.062345679012345556,0,0,0.062345679012345556,23.69135802469131,0)" xlink:href="#K"/><use transform="matrix(0.062345679012345556,0,0,0.062345679012345556,36.16049382716042,0)" xlink:href="#C"/><use transform="matrix(0.062345679012345556,0,0,0.062345679012345556,48.629629629629534,0)" xlink:href="#B"/><use transform="matrix(0.062345679012345556,0,0,0.062345679012345556,61.098765432098645,0)" xlink:href="#I"/><use transform="matrix(0.062345679012345556,0,0,0.062345679012345556,73.56790123456776,0)" xlink:href="#L"/><use transform="matrix(0.062345679012345556,0,0,0.062345679012345556,84.79012345678996,0)" xlink:href="#B"/><use transform="matrix(0.062345679012345556,0,0,0.062345679012345556,97.25925925925907,0)" xlink:href="#M"/></g><path fill="#333" d="M190 0L58-211 59 0H30v-248h39L202-35l-2-213h31V0h-41" id="N"/><g id="j"><use transform="matrix(0.062345679012345556,0,0,0.062345679012345556,0,0)" xlink:href="#N"/><use transform="matrix(0.062345679012345556,0,0,0.062345679012345556,16.1475308641975,0)" xlink:href="#E"/><use transform="matrix(0.062345679012345556,0,0,0.062345679012345556,28.61666666666661,0)" xlink:href="#D"/><use transform="matrix(0.062345679012345556,0,0,0.062345679012345556,41.08580246913572,0)" xlink:href="#B"/></g></defs></g></svg>