<svg xmlns="http://www.w3.org/2000/svg" xmlns:xlink="http://www.w3.org/1999/xlink" xmlns:lucid="lucid" width="1282" height="802"><g transform="translate(-59 -59)" lucid:page-tab-id="0_0"><path d="M0 0h1870.4v1323.2H0z" fill="#fff"/><path d="M1210 100c16.57 0 30 13.43 30 30v120c0 16.57-13.43 30-30 30H870c-16.57 0-30-13.43-30-30V130c0-16.57 13.43-30 30-30zM1210 420c16.57 0 30 13.43 30 30v320c0 16.57-13.43 30-30 30H870c-16.57 0-30-13.43-30-30V450c0-16.57 13.43-30 30-30z" stroke="#3788a5" stroke-width="2" fill="#3788a5"/><path d="M860 400h260v80H860z" stroke="#000" stroke-opacity="0" stroke-width="2" fill="#fff" fill-opacity="0"/><use xlink:href="#a" transform="matrix(1,0,0,1,865,405) translate(0 38.4625)"/><use xlink:href="#b" transform="matrix(1,0,0,1,865,405) translate(56.95 38.4625)"/><use xlink:href="#c" transform="matrix(1,0,0,1,865,405) translate(112.75000000000001 38.4625)"/><use xlink:href="#d" transform="matrix(1,0,0,1,865,405) translate(151.65000000000003 38.4625)"/><path d="M670 420c16.57 0 30 13.43 30 30v320c0 16.57-13.43 30-30 30H190c-16.57 0-30-13.43-30-30V450c0-16.57 13.43-30 30-30z" stroke="#3788a5" stroke-width="2" fill="#3788a5"/><path d="M180 380h160v112H180z" stroke="#000" stroke-opacity="0" stroke-width="2" fill="#fff" fill-opacity="0"/><use xlink:href="#e" transform="matrix(1,0,0,1,185.00000000000003,385) translate(0 55.8375)"/><use xlink:href="#f" transform="matrix(1,0,0,1,185.00000000000003,385) translate(40.550000000000004 55.8375)"/><path d="M400 500h200v80H400z" stroke="#2e2f27" stroke-width="2" fill="#fff"/><use xlink:href="#g" transform="matrix(1,0,0,1,405,505) translate(41.025 38.4625)"/><path d="M940 500h200v80H940z" stroke="#2e2f27" stroke-width="2" fill="#fff"/><use xlink:href="#h" transform="matrix(1,0,0,1,945,505) translate(58.05 38.4625)"/><path d="M940 660h200v80H940z" stroke="#2e2f27" stroke-width="2" fill="#fff"/><use xlink:href="#i" transform="matrix(1,0,0,1,945,665) translate(43 38.4625)"/><use xlink:href="#j" transform="matrix(1,0,0,1,945,665) translate(107 38.4625)"/><path d="M747.52 541H602v-2h145.52zm172.98 0H792.48v-2H920.5z" stroke="#2e2f27" stroke-width=".05" fill="#2e2f27"/><path d="M602.03 541H601v-2h1.03z" fill="#2e2f27"/><path d="M602.05 541.02h-1.07V539h1.07zm-1.02-2V541h.97V539z" stroke="#2e2f27" stroke-width=".05" fill="#2e2f27"/><path d="M935.76 540l-14.26 4.63v-9.26z" fill="#2e2f27"/><path d="M939 540l-18.5 6v-12zm-16.5 3.26l10.03-3.26-10.03-3.26z" stroke="#2e2f27" stroke-width=".05" fill="#2e2f27"/><use xlink:href="#k" transform="matrix(1,0,0,1,747.525,529.2) translate(0 14.4)"/><path d="M1040 582v58.5" stroke="#000" stroke-width="2" fill="none"/><path d="M1041 582.03h-2V581h2z" stroke="#000" stroke-width=".05"/><path d="M1040 655.76l-4.63-14.26h9.27z" stroke="#000" stroke-width="2"/><path d="M941 400.5h-2v-54.76h2zm0-76.36h-2v-72.26h2z" stroke="#2e2f27" stroke-width=".05" fill="#2e2f27"/><path d="M941 251.9h-2v-.5l2-1.02z" fill="#2e2f27"/><path d="M941.02 251.93H939v-.56l2.04-1.03zm-2-.53v.48H941v-1.46z" stroke="#2e2f27" stroke-width=".05" fill="#2e2f27"/><path d="M940 415.76l-4.63-14.26h9.26z" fill="#2e2f27"/><path d="M940 419l-6-18.5h12zm-3.26-16.5l3.26 10.03 3.26-10.03z" stroke="#2e2f27" stroke-width=".05" fill="#2e2f27"/><use xlink:href="#l" transform="matrix(1,0,0,1,913.525,324.141571239551) translate(0 14.4)"/><path d="M400 660h200v80H400z" stroke="#2e2f27" stroke-width="2" fill="#fff"/><use xlink:href="#m" transform="matrix(1,0,0,1,405,665) translate(51 38.4625)"/><use xlink:href="#n" transform="matrix(1,0,0,1,405,665) translate(104 38.4625)"/><path d="M180 480h144v102c-24.05-17.03-39.02-17.03-48.1-17.03-14.4 0-33.55 17.03-47.95 17.03-8.93 0-24.05 0-47.95-17.03z" stroke="#2e2f27" stroke-width="2" fill="#fff"/><path d="M188 489h144v102c-24.05-17.03-39.02-17.03-48.1-17.03-14.4 0-33.55 17.03-47.95 17.03-8.93 0-24.05 0-47.95-17.03z" stroke="#2e2f27" stroke-width="2" fill="#fff"/><path d="M196 498h144v102c-24.05-17.03-39.02-17.03-48.1-17.03-14.4 0-33.55 17.03-47.95 17.03-8.93 0-24.05 0-47.95-17.03z" stroke="#2e2f27" stroke-width="2" fill="#fff"/><use xlink:href="#o" transform="matrix(1,0,0,1,201,503) translate(32.05 40.18125)"/><path d="M180 640h144v102c-24.05-17.03-39.02-17.03-48.1-17.03-14.4 0-33.55 17.03-47.95 17.03-8.93 0-24.05 0-47.95-17.03z" stroke="#2e2f27" stroke-width="2" fill="#fff"/><path d="M188 649h144v102c-24.05-17.03-39.02-17.03-48.1-17.03-14.4 0-33.55 17.03-47.95 17.03-8.93 0-24.05 0-47.95-17.03z" stroke="#2e2f27" stroke-width="2" fill="#fff"/><path d="M196 658h144v102c-24.05-17.03-39.02-17.03-48.1-17.03-14.4 0-33.55 17.03-47.95 17.03-8.93 0-24.05 0-47.95-17.03z" stroke="#2e2f27" stroke-width="2" fill="#fff"/><use xlink:href="#p" transform="matrix(1,0,0,1,201,663) translate(17.525 40.18125)"/><path d="M342 540h38.5" stroke="#000" stroke-width="2" fill="none"/><path d="M342.03 541H341v-2h1.03z" stroke="#000" stroke-width=".05"/><path d="M395.76 540l-14.26 4.63v-9.26z" stroke="#000" stroke-width="2"/><path d="M342 700h38.5" stroke="#000" stroke-width="2" fill="none"/><path d="M342.03 701H341v-2h1.03z" stroke="#000" stroke-width=".05"/><path d="M395.76 700l-14.26 4.63v-9.26z" stroke="#000" stroke-width="2"/><path d="M771 701H602v-2h167v-58.2h2zm149.5-140H771v58.2h-2V559h151.5z" stroke="#2e2f27" stroke-width=".05" fill="#2e2f27"/><path d="M602.03 701H601v-2h1.03z" fill="#2e2f27"/><path d="M602.05 701.02h-1.07V699h1.07zm-1.02-2V701h.97V699z" stroke="#2e2f27" stroke-width=".05" fill="#2e2f27"/><path d="M935.76 560l-14.26 4.63v-9.26z" fill="#2e2f27"/><path d="M939 560l-18.5 6v-12zm-16.5 3.26l10.03-3.26-10.03-3.26z" stroke="#2e2f27" stroke-width=".05" fill="#2e2f27"/><use xlink:href="#p" transform="matrix(1,0,0,1,726.025,619.2) translate(0 14.4)"/><path d="M860 140h160v120c-26.72-20.04-43.36-20.04-53.44-20.04-16 0-37.28 20.04-53.28 20.04-9.92 0-26.72 0-53.28-20.04z" stroke="#2e2f27" stroke-width="2" fill="#fff"/><use xlink:href="#q" transform="matrix(1,0,0,1,865,145) translate(32.074999999999996 48.15)"/><path d="M900 80h160v80H900z" stroke="#000" stroke-opacity="0" stroke-width="2" fill="#fff" fill-opacity="0"/><use xlink:href="#r" transform="matrix(1,0,0,1,905,85) translate(0 38.4625)"/><path d="M1290 380c16.57 0 30 13.43 30 30v400c0 16.57-13.43 30-30 30H110c-16.57 0-30-13.43-30-30V410c0-16.57 13.43-30 30-30z" fill-opacity="0"/><path d="M1301.45 382.36l2.9 1.3 3.9 2.56m5.47 5.58l1.54 2 2.34 4.4.1.33m1.95 7.57l.27 1.75.08 2.15v4m0 8v8m0 8v8m0 8v8m0 8v8m0 8v8m0 8v8m0 8v8m0 8v8m0 8v8m0 8v8m0 8v8m0 8v8m0 8v8m0 8v8m0 8v8m0 8v8m0 8v8m0 8v8m0 8v8m0 8v8m0 8v8m0 8v8m0 8v8m0 8v8m0 8v4l-.33 3.9m-2.03 7.55l-1.3 2.9-2.56 3.9m-5.58 5.47l-2 1.54-4.4 2.34-.33.1m-7.57 1.95l-1.75.27-2.15.08h-4m-7.96 0h-7.97m-7.97 0h-7.98m-7.97 0h-7.97m-7.98 0h-7.97m-7.97 0h-7.98m-7.97 0h-7.96m-7.97 0h-7.98m-7.98 0h-7.97m-7.98 0h-7.97m-7.97 0h-7.98m-7.97 0h-7.97m-7.96 0h-7.98m-7.97 0h-7.98m-7.98 0h-7.97m-7.97 0h-7.98m-7.97 0h-7.97m-7.98 0h-7.97m-7.97 0H999m-8 0h-7.96m-7.97 0h-7.98m-7.98 0h-7.97m-7.97 0h-7.98m-7.97 0h-7.97m-7.98 0h-7.97m-7.96 0h-7.98m-7.97 0h-7.98m-7.97 0h-7.98m-7.97 0h-7.97m-7.98 0h-7.97m-7.97 0h-7.97m-7.97 0h-7.97m-7.98 0h-7.98m-7.97 0h-7.97m-7.98 0h-7.97m-7.97 0h-7.98m-7.97 0h-7.97m-7.97 0h-8m-7.96 0h-7.97m-7.98 0h-7.98m-7.97 0h-7.97m-7.98 0h-7.97m-7.97 0h-7.98m-7.97 0h-7.96m-7.98 0h-7.97m-7.98 0h-7.97m-7.98 0h-7.97m-7.97 0h-7.98m-7.97 0h-7.97m-7.97 0h-7.97m-7.97 0h-7.98m-7.98 0h-7.97m-7.97 0h-7.98m-7.97 0h-7.97m-7.98 0h-7.97m-7.97 0H409m-8 0h-7.96m-7.97 0h-7.97m-7.98 0h-7.97m-7.97 0h-7.98m-7.97 0h-7.97m-7.98 0h-7.97m-7.96 0h-7.97m-7.98 0h-7.98m-7.97 0h-7.98m-7.97 0h-7.97m-7.98 0h-7.97m-7.97 0h-7.97m-7.97 0h-7.97m-7.98 0h-7.98m-7.97 0h-7.97m-7.98 0h-7.97m-7.97 0h-7.97m-7.97 0h-7.97m-7.97 0h-4l-3.9-.33m-7.55-2.03l-2.9-1.3-3.9-2.56m-5.47-5.58l-1.54-2-2.34-4.4-.1-.33m-1.95-7.57l-.27-1.75L80 810v-4m0-8v-8m0-8v-8m0-8v-8m0-8v-8m0-8v-8m0-8v-8m0-8v-8m0-8v-8m0-8v-8m0-8v-8m0-8v-8m0-8v-8m0-8v-8m0-8v-8m0-8v-8m0-8v-8m0-8v-8m0-8v-8m0-8v-8m0-8v-8m0-8v-8m0-8v-8m0-8v-8m0-8v-8m0-8v-4l.33-3.9m2.03-7.55l1.3-2.9 2.56-3.9m5.58-5.47l2-1.54 4.4-2.34.33-.1m7.57-1.95l1.75-.27L110 380h4m7.96 0h7.97m7.97 0h7.98m7.97 0h7.97m7.98 0h7.97m7.97 0h7.98m7.97 0h7.96m7.97 0h7.98m7.98 0h7.97m7.98 0h7.97m7.97 0h7.98m7.97 0h7.97m7.97 0h7.97m7.97 0h7.98m7.98 0h7.97m7.97 0h7.98m7.97 0h7.97m7.98 0h7.97m7.97 0H401m8 0h7.96m7.97 0h7.97m7.98 0h7.97m7.97 0h7.98m7.97 0h7.97m7.98 0h7.97m7.96 0h7.97m7.98 0h7.98m7.97 0h7.98m7.97 0h7.97m7.98 0h7.97m7.97 0h7.97m7.97 0h7.97m7.98 0h7.98m7.97 0h7.97m7.98 0h7.97m7.97 0h7.98m7.97 0h7.97m7.97 0h8m7.96 0h7.97m7.98 0h7.98m7.97 0h7.97m7.98 0h7.97m7.97 0h7.98m7.97 0h7.96m7.98 0h7.97m7.98 0h7.97m7.98 0h7.97m7.97 0h7.98m7.97 0h7.97m7.97 0h7.97m7.97 0h7.98m7.98 0h7.97m7.97 0h7.98m7.97 0h7.97m7.98 0h7.97m7.97 0H991m8 0h7.96m7.97 0h7.98m7.98 0h7.97m7.97 0h7.98m7.97 0h7.97m7.98 0h7.97m7.96 0h7.97m7.98 0h7.98m7.97 0h7.98m7.97 0h7.97m7.98 0h7.97m7.97 0h7.96m7.98 0h7.97m7.98 0h7.98m7.97 0h7.97m7.98 0h7.97m7.97 0h7.98m7.97 0h7.97m7.97 0h4l3.9.32" stroke="#2e2f27" stroke-width="2" fill="none"/><path d="M100 360h160v80H100z" stroke="#000" stroke-opacity="0" stroke-width="2" fill="#fff" fill-opacity="0"/><use xlink:href="#s" transform="matrix(1,0,0,1,105,365) translate(0 38.4625)"/><use xlink:href="#t" transform="matrix(1,0,0,1,105,365) translate(43.900000000000006 38.4625)"/><path d="M1080 150h100v80h-100z" stroke="#2e2f27" stroke-width="2" fill="#fff"/><use xlink:href="#u" transform="matrix(1,0,0,1,1085,155) translate(30 38.4625)"/><path d="M1105.67 498h-2V346.13h2zm0-173.47h-2V249.5h2z" stroke="#2e2f27" stroke-width=".05" fill="#2e2f27"/><path d="M1105.67 499h-2v-1.03h2z" fill="#2e2f27"/><path d="M1105.7 499.02h-2.06v-1.07h2.05zm-2-1.02v.98h1.94V498z" stroke="#2e2f27" stroke-width=".05" fill="#2e2f27"/><path d="M1109.3 248.5h-9.27l4.64-14.26z" fill="#2e2f27"/><path d="M1110.68 249.5h-12.03l6.02-18.5zm-9.27-2h6.53l-3.26-10.03z" stroke="#2e2f27" stroke-width=".05" fill="#2e2f27"/><g><use xlink:href="#v" transform="matrix(1,0,0,1,1075.7416666666668,324.5333333333333) translate(0 14.4)"/></g><defs><path fill="#fff" d="M147 0H94L2-248h55l64 206c17-72 42-137 63-206h54" id="w"/><path fill="#fff" d="M185-48c-13 30-37 53-82 52C43 2 14-33 14-96s30-98 90-98c62 0 83 45 84 108H66c0 31 8 55 39 56 18 0 30-7 34-22zm-45-69c5-46-57-63-70-21-2 6-4 13-4 21h74" id="x"/><path fill="#fff" d="M137-138c1-29-70-34-71-4 15 46 118 7 119 86 1 83-164 76-172 9l43-7c4 19 20 25 44 25 33 8 57-30 24-41C81-84 22-81 20-136c-2-80 154-74 161-7" id="y"/><path fill="#fff" d="M135-194c53 0 70 44 70 98 0 56-19 98-73 100-31 1-45-17-59-34 3 33 2 69 2 105H25l-1-265h48c2 10 0 23 3 31 11-24 29-35 60-35zM114-30c33 0 39-31 40-66 0-38-9-64-40-64-56 0-55 130 0 130" id="z"/><path fill="#fff" d="M133-34C117-15 103 5 69 4 32 3 11-16 11-54c-1-60 55-63 116-61 1-26-3-47-28-47-18 1-26 9-28 27l-52-2c7-38 36-58 82-57s74 22 75 68l1 82c-1 14 12 18 25 15v27c-30 8-71 5-69-32zm-48 3c29 0 43-24 42-57-32 0-66-3-65 30 0 17 8 27 23 27" id="A"/><g id="a"><use transform="matrix(0.05,0,0,0.05,0,0)" xlink:href="#w"/><use transform="matrix(0.05,0,0,0.05,11,0)" xlink:href="#x"/><use transform="matrix(0.05,0,0,0.05,21,0)" xlink:href="#y"/><use transform="matrix(0.05,0,0,0.05,31,0)" xlink:href="#z"/><use transform="matrix(0.05,0,0,0.05,41.95,0)" xlink:href="#A"/></g><path fill="#fff" d="M67-125c0 53 21 87 73 88 37 1 54-22 65-47l45 17C233-25 199 4 140 4 58 4 20-42 15-125 8-235 124-281 211-232c18 10 29 29 36 50l-46 12c-8-25-30-41-62-41-52 0-71 34-72 86" id="B"/><path fill="#fff" d="M25 0v-261h50V0H25" id="C"/><path fill="#fff" d="M110-194c64 0 96 36 96 99 0 64-35 99-97 99-61 0-95-36-95-99 0-62 34-99 96-99zm-1 164c35 0 45-28 45-65 0-40-10-65-43-65-34 0-45 26-45 65 0 36 10 65 43 65" id="D"/><path fill="#fff" d="M85 4C-2 5 27-109 22-190h50c7 57-23 150 33 157 60-5 35-97 40-157h50l1 190h-47c-2-12 1-28-3-38-12 25-28 42-61 42" id="E"/><path fill="#fff" d="M88-194c31-1 46 15 58 34l-1-101h50l1 261h-48c-2-10 0-23-3-31C134-8 116 4 84 4 32 4 16-41 15-95c0-56 19-97 73-99zm17 164c33 0 40-30 41-66 1-37-9-64-41-64s-38 30-39 65c0 43 13 65 39 65" id="F"/><g id="b"><use transform="matrix(0.05,0,0,0.05,0,0)" xlink:href="#B"/><use transform="matrix(0.05,0,0,0.05,12.950000000000001,0)" xlink:href="#C"/><use transform="matrix(0.05,0,0,0.05,17.950000000000003,0)" xlink:href="#D"/><use transform="matrix(0.05,0,0,0.05,28.900000000000006,0)" xlink:href="#E"/><use transform="matrix(0.05,0,0,0.05,39.85000000000001,0)" xlink:href="#F"/></g><path fill="#fff" d="M135-150c-39-12-60 13-60 57V0H25l-1-190h47c2 13-1 29 3 40 6-28 27-53 61-41v41" id="G"/><path fill="#fff" d="M121-226c-27-7-43 5-38 36h38v33H83V0H34v-157H6v-33h28c-9-59 32-81 87-68v32" id="H"/><g id="c"><use transform="matrix(0.05,0,0,0.05,0,0)" xlink:href="#z"/><use transform="matrix(0.05,0,0,0.05,10.950000000000001,0)" xlink:href="#x"/><use transform="matrix(0.05,0,0,0.05,20.950000000000003,0)" xlink:href="#G"/><use transform="matrix(0.05,0,0,0.05,27.950000000000003,0)" xlink:href="#H"/></g><path fill="#fff" d="M12 0v-35l95-120H19v-35h142v35L67-36h103V0H12" id="I"/><path fill="#fff" d="M135-194c87-1 58 113 63 194h-50c-7-57 23-157-34-157-59 0-34 97-39 157H25l-1-190h47c2 12-1 28 3 38 12-26 28-41 61-42" id="J"/><g id="d"><use transform="matrix(0.05,0,0,0.05,0,0)" xlink:href="#I"/><use transform="matrix(0.05,0,0,0.05,9,0)" xlink:href="#D"/><use transform="matrix(0.05,0,0,0.05,19.950000000000003,0)" xlink:href="#J"/><use transform="matrix(0.05,0,0,0.05,30.900000000000006,0)" xlink:href="#x"/></g><path fill="#fff" d="M136-208V0H84v-208H4v-40h212v40h-80" id="K"/><path fill="#fff" d="M115-3C79 11 28 4 28-45v-112H4v-33h27l15-45h31v45h36v33H77v99c-1 23 16 31 38 25v30" id="L"/><g id="e"><use transform="matrix(0.05,0,0,0.05,0,0)" xlink:href="#K"/><use transform="matrix(0.05,0,0,0.05,9.600000000000001,0)" xlink:href="#x"/><use transform="matrix(0.05,0,0,0.05,19.6,0)" xlink:href="#y"/><use transform="matrix(0.05,0,0,0.05,29.6,0)" xlink:href="#L"/></g><path fill="#fff" d="M114-157C55-157 80-60 75 0H25v-261h50l-1 109c12-26 28-41 61-42 86-1 58 113 63 194h-50c-7-57 23-157-34-157" id="M"/><g id="f"><use transform="matrix(0.05,0,0,0.05,0,0)" xlink:href="#M"/><use transform="matrix(0.05,0,0,0.05,10.950000000000001,0)" xlink:href="#D"/><use transform="matrix(0.05,0,0,0.05,21.900000000000002,0)" xlink:href="#y"/><use transform="matrix(0.05,0,0,0.05,31.900000000000002,0)" xlink:href="#L"/></g><path fill="#2e2f27" d="M108 0H70L1-190h34L89-25l56-165h34" id="N"/><path fill="#2e2f27" d="M100-194c63 0 86 42 84 106H49c0 40 14 67 53 68 26 1 43-12 49-29l28 8c-11 28-37 45-77 45C44 4 14-33 15-96c1-61 26-98 85-98zm52 81c6-60-76-77-97-28-3 7-6 17-6 28h103" id="O"/><path fill="#2e2f27" d="M135-143c-3-34-86-38-87 0 15 53 115 12 119 90S17 21 10-45l28-5c4 36 97 45 98 0-10-56-113-15-118-90-4-57 82-63 122-42 12 7 21 19 24 35" id="P"/><path fill="#2e2f27" d="M115-194c55 1 70 41 70 98S169 2 115 4C84 4 66-9 55-30l1 105H24l-1-265h31l2 30c10-21 28-34 59-34zm-8 174c40 0 45-34 45-75s-6-73-45-74c-42 0-51 32-51 76 0 43 10 73 51 73" id="Q"/><path fill="#2e2f27" d="M141-36C126-15 110 5 73 4 37 3 15-17 15-53c-1-64 63-63 125-63 3-35-9-54-41-54-24 1-41 7-42 31l-33-3c5-37 33-52 76-52 45 0 72 20 72 64v82c-1 20 7 32 28 27v20c-31 9-61-2-59-35zM48-53c0 20 12 33 32 33 41-3 63-29 60-74-43 2-92-5-92 41" id="R"/><path fill="#2e2f27" d="M16-82v-28h88v28H16" id="S"/><path fill="#2e2f27" d="M101-234c-31-9-42 10-38 44h38v23H63V0H32v-167H5v-23h27c-7-52 17-82 69-68v24" id="T"/><path fill="#2e2f27" d="M115-194c53 0 69 39 70 98 0 66-23 100-70 100C84 3 66-7 56-30L54 0H23l1-261h32v101c10-23 28-34 59-34zm-8 174c40 0 45-34 45-75 0-40-5-75-45-74-42 0-51 32-51 76 0 43 10 73 51 73" id="U"/><path fill="#2e2f27" d="M117-194c89-4 53 116 60 194h-32v-121c0-31-8-49-39-48C34-167 62-67 57 0H25l-1-190h30c1 10-1 24 2 32 11-22 29-35 61-36" id="V"/><path fill="#2e2f27" d="M96-169c-40 0-48 33-48 73s9 75 48 75c24 0 41-14 43-38l32 2c-6 37-31 61-74 61-59 0-76-41-82-99-10-93 101-131 147-64 4 7 5 14 7 22l-32 3c-4-21-16-35-41-35" id="W"/><path fill="#2e2f27" d="M106-169C34-169 62-67 57 0H25v-261h32l-1 103c12-21 28-36 61-36 89 0 53 116 60 194h-32v-121c2-32-8-49-39-48" id="X"/><g id="g"><use transform="matrix(0.05,0,0,0.05,0,0)" xlink:href="#N"/><use transform="matrix(0.05,0,0,0.05,9,0)" xlink:href="#O"/><use transform="matrix(0.05,0,0,0.05,19,0)" xlink:href="#P"/><use transform="matrix(0.05,0,0,0.05,28,0)" xlink:href="#Q"/><use transform="matrix(0.05,0,0,0.05,38,0)" xlink:href="#R"/><use transform="matrix(0.05,0,0,0.05,48,0)" xlink:href="#S"/><use transform="matrix(0.05,0,0,0.05,53.95,0)" xlink:href="#T"/><use transform="matrix(0.05,0,0,0.05,58.95,0)" xlink:href="#U"/><use transform="matrix(0.05,0,0,0.05,68.95,0)" xlink:href="#O"/><use transform="matrix(0.05,0,0,0.05,78.95,0)" xlink:href="#V"/><use transform="matrix(0.05,0,0,0.05,88.95,0)" xlink:href="#W"/><use transform="matrix(0.05,0,0,0.05,97.95,0)" xlink:href="#X"/></g><path fill="#2e2f27" d="M100-194c62-1 85 37 85 99 1 63-27 99-86 99S16-35 15-95c0-66 28-99 85-99zM99-20c44 1 53-31 53-75 0-43-8-75-51-75s-53 32-53 75 10 74 51 75" id="Y"/><path fill="#2e2f27" d="M59-47c-2 24 18 29 38 22v24C64 9 27 4 27-40v-127H5v-23h24l9-43h21v43h35v23H59v120" id="Z"/><path fill="#2e2f27" d="M24-231v-30h32v30H24zM24 0v-190h32V0H24" id="aa"/><path fill="#2e2f27" d="M114-163C36-179 61-72 57 0H25l-1-190h30c1 12-1 29 2 39 6-27 23-49 58-41v29" id="ab"/><g id="h"><use transform="matrix(0.05,0,0,0.05,0,0)" xlink:href="#W"/><use transform="matrix(0.05,0,0,0.05,9,0)" xlink:href="#Y"/><use transform="matrix(0.05,0,0,0.05,19,0)" xlink:href="#V"/><use transform="matrix(0.05,0,0,0.05,29,0)" xlink:href="#Z"/><use transform="matrix(0.05,0,0,0.05,34,0)" xlink:href="#R"/><use transform="matrix(0.05,0,0,0.05,44,0)" xlink:href="#aa"/><use transform="matrix(0.05,0,0,0.05,47.95,0)" xlink:href="#V"/><use transform="matrix(0.05,0,0,0.05,57.95,0)" xlink:href="#O"/><use transform="matrix(0.05,0,0,0.05,67.95,0)" xlink:href="#ab"/></g><g id="i"><use transform="matrix(0.05,0,0,0.05,0,0)" xlink:href="#W"/><use transform="matrix(0.05,0,0,0.05,9,0)" xlink:href="#Y"/><use transform="matrix(0.05,0,0,0.05,19,0)" xlink:href="#V"/><use transform="matrix(0.05,0,0,0.05,29,0)" xlink:href="#Z"/><use transform="matrix(0.05,0,0,0.05,34,0)" xlink:href="#O"/><use transform="matrix(0.05,0,0,0.05,44,0)" xlink:href="#V"/><use transform="matrix(0.05,0,0,0.05,54,0)" xlink:href="#Z"/></g><path fill="#2e2f27" d="M85-194c31 0 48 13 60 33l-1-100h32l1 261h-30c-2-10 0-23-3-31C134-8 116 4 85 4 32 4 16-35 15-94c0-66 23-100 70-100zm9 24c-40 0-46 34-46 75 0 40 6 74 45 74 42 0 51-32 51-76 0-42-9-74-50-73" id="ac"/><g id="j"><use transform="matrix(0.05,0,0,0.05,0,0)" xlink:href="#V"/><use transform="matrix(0.05,0,0,0.05,10,0)" xlink:href="#Y"/><use transform="matrix(0.05,0,0,0.05,20,0)" xlink:href="#ac"/><use transform="matrix(0.05,0,0,0.05,30,0)" xlink:href="#O"/></g><path fill="#2e2f27" d="M145-31C134-9 116 4 85 4 32 4 16-35 15-94c0-59 17-99 70-100 32-1 48 14 60 33 0-11-1-24 2-32h30l-1 268h-32zM93-21c41 0 51-33 51-76s-8-73-50-73c-40 0-46 35-46 75s5 74 45 74" id="ad"/><path fill="#2e2f27" d="M84 4C-5 8 30-112 23-190h32v120c0 31 7 50 39 49 72-2 45-101 50-169h31l1 190h-30c-1-10 1-25-2-33-11 22-28 36-60 37" id="ae"/><path fill="#2e2f27" d="M179-190L93 31C79 59 56 82 12 73V49c39 6 53-20 64-50L1-190h34L92-34l54-156h33" id="af"/><g id="k"><use transform="matrix(0.05,0,0,0.05,0,0)" xlink:href="#ad"/><use transform="matrix(0.05,0,0,0.05,10,0)" xlink:href="#ae"/><use transform="matrix(0.05,0,0,0.05,20,0)" xlink:href="#O"/><use transform="matrix(0.05,0,0,0.05,30,0)" xlink:href="#ab"/><use transform="matrix(0.05,0,0,0.05,35.95,0)" xlink:href="#af"/></g><path fill="#2e2f27" d="M24 0v-261h32V0H24" id="ag"/><g id="l"><use transform="matrix(0.05,0,0,0.05,0,0)" xlink:href="#ac"/><use transform="matrix(0.05,0,0,0.05,10,0)" xlink:href="#O"/><use transform="matrix(0.05,0,0,0.05,20,0)" xlink:href="#Q"/><use transform="matrix(0.05,0,0,0.05,30,0)" xlink:href="#ag"/><use transform="matrix(0.05,0,0,0.05,33.95,0)" xlink:href="#Y"/><use transform="matrix(0.05,0,0,0.05,43.95,0)" xlink:href="#af"/></g><g id="m"><use transform="matrix(0.05,0,0,0.05,0,0)" xlink:href="#N"/><use transform="matrix(0.05,0,0,0.05,9,0)" xlink:href="#O"/><use transform="matrix(0.05,0,0,0.05,19,0)" xlink:href="#P"/><use transform="matrix(0.05,0,0,0.05,28,0)" xlink:href="#Q"/><use transform="matrix(0.05,0,0,0.05,38,0)" xlink:href="#R"/></g><g id="n"><use transform="matrix(0.05,0,0,0.05,0,0)" xlink:href="#T"/><use transform="matrix(0.05,0,0,0.05,5,0)" xlink:href="#O"/><use transform="matrix(0.05,0,0,0.05,15,0)" xlink:href="#O"/><use transform="matrix(0.05,0,0,0.05,25,0)" xlink:href="#ac"/></g><g id="o"><use transform="matrix(0.05,0,0,0.05,0,0)" xlink:href="#ad"/><use transform="matrix(0.05,0,0,0.05,10,0)" xlink:href="#ae"/><use transform="matrix(0.05,0,0,0.05,20,0)" xlink:href="#O"/><use transform="matrix(0.05,0,0,0.05,30,0)" xlink:href="#ab"/><use transform="matrix(0.05,0,0,0.05,35.95,0)" xlink:href="#aa"/><use transform="matrix(0.05,0,0,0.05,39.900000000000006,0)" xlink:href="#O"/><use transform="matrix(0.05,0,0,0.05,49.900000000000006,0)" xlink:href="#P"/></g><path fill="#2e2f27" d="M210-169c-67 3-38 105-44 169h-31v-121c0-29-5-50-35-48C34-165 62-65 56 0H25l-1-190h30c1 10-1 24 2 32 10-44 99-50 107 0 11-21 27-35 58-36 85-2 47 119 55 194h-31v-121c0-29-5-49-35-48" id="ah"/><g id="p"><use transform="matrix(0.05,0,0,0.05,0,0)" xlink:href="#ac"/><use transform="matrix(0.05,0,0,0.05,10,0)" xlink:href="#Y"/><use transform="matrix(0.05,0,0,0.05,20,0)" xlink:href="#W"/><use transform="matrix(0.05,0,0,0.05,29,0)" xlink:href="#ae"/><use transform="matrix(0.05,0,0,0.05,39,0)" xlink:href="#ah"/><use transform="matrix(0.05,0,0,0.05,53.95,0)" xlink:href="#O"/><use transform="matrix(0.05,0,0,0.05,63.95,0)" xlink:href="#V"/><use transform="matrix(0.05,0,0,0.05,73.95,0)" xlink:href="#Z"/><use transform="matrix(0.05,0,0,0.05,78.95,0)" xlink:href="#P"/></g><g id="q"><use transform="matrix(0.05,0,0,0.05,0,0)" xlink:href="#R"/><use transform="matrix(0.05,0,0,0.05,10,0)" xlink:href="#Q"/><use transform="matrix(0.05,0,0,0.05,20,0)" xlink:href="#Q"/><use transform="matrix(0.05,0,0,0.05,30,0)" xlink:href="#ag"/><use transform="matrix(0.05,0,0,0.05,33.95,0)" xlink:href="#aa"/><use transform="matrix(0.05,0,0,0.05,37.900000000000006,0)" xlink:href="#W"/><use transform="matrix(0.05,0,0,0.05,46.900000000000006,0)" xlink:href="#R"/><use transform="matrix(0.05,0,0,0.05,56.900000000000006,0)" xlink:href="#Z"/><use transform="matrix(0.05,0,0,0.05,61.900000000000006,0)" xlink:href="#aa"/><use transform="matrix(0.05,0,0,0.05,65.85000000000001,0)" xlink:href="#Y"/><use transform="matrix(0.05,0,0,0.05,75.85000000000001,0)" xlink:href="#V"/></g><path fill="#fff" d="M24 0v-248h52v208h133V0H24" id="ai"/><g id="r"><use transform="matrix(0.05,0,0,0.05,0,0)" xlink:href="#ai"/><use transform="matrix(0.05,0,0,0.05,10.950000000000001,0)" xlink:href="#A"/><use transform="matrix(0.05,0,0,0.05,20.950000000000003,0)" xlink:href="#z"/><use transform="matrix(0.05,0,0,0.05,31.900000000000006,0)" xlink:href="#L"/><use transform="matrix(0.05,0,0,0.05,37.85000000000001,0)" xlink:href="#D"/><use transform="matrix(0.05,0,0,0.05,48.80000000000001,0)" xlink:href="#z"/></g><path fill="#2e2f27" d="M24-248c120-7 223 5 221 122C244-46 201 0 124 0H24v-248zM76-40c74 7 117-18 117-86 0-67-45-88-117-82v168" id="aj"/><path fill="#2e2f27" d="M133-34C117-15 103 5 69 4 32 3 11-16 11-54c-1-60 55-63 116-61 1-26-3-47-28-47-18 1-26 9-28 27l-52-2c7-38 36-58 82-57s74 22 75 68l1 82c-1 14 12 18 25 15v27c-30 8-71 5-69-32zm-48 3c29 0 43-24 42-57-32 0-66-3-65 30 0 17 8 27 23 27" id="ak"/><path fill="#2e2f27" d="M115-3C79 11 28 4 28-45v-112H4v-33h27l15-45h31v45h36v33H77v99c-1 23 16 31 38 25v30" id="al"/><g id="s"><use transform="matrix(0.05,0,0,0.05,0,0)" xlink:href="#aj"/><use transform="matrix(0.05,0,0,0.05,12.950000000000001,0)" xlink:href="#ak"/><use transform="matrix(0.05,0,0,0.05,22.950000000000003,0)" xlink:href="#al"/><use transform="matrix(0.05,0,0,0.05,28.900000000000002,0)" xlink:href="#ak"/></g><path fill="#2e2f27" d="M67-125c0 53 21 87 73 88 37 1 54-22 65-47l45 17C233-25 199 4 140 4 58 4 20-42 15-125 8-235 124-281 211-232c18 10 29 29 36 50l-46 12c-8-25-30-41-62-41-52 0-71 34-72 86" id="am"/><path fill="#2e2f27" d="M185-48c-13 30-37 53-82 52C43 2 14-33 14-96s30-98 90-98c62 0 83 45 84 108H66c0 31 8 55 39 56 18 0 30-7 34-22zm-45-69c5-46-57-63-70-21-2 6-4 13-4 21h74" id="an"/><path fill="#2e2f27" d="M135-194c87-1 58 113 63 194h-50c-7-57 23-157-34-157-59 0-34 97-39 157H25l-1-190h47c2 12-1 28 3 38 12-26 28-41 61-42" id="ao"/><path fill="#2e2f27" d="M135-150c-39-12-60 13-60 57V0H25l-1-190h47c2 13-1 29 3 40 6-28 27-53 61-41v41" id="ap"/><g id="t"><use transform="matrix(0.05,0,0,0.05,0,0)" xlink:href="#am"/><use transform="matrix(0.05,0,0,0.05,12.950000000000001,0)" xlink:href="#an"/><use transform="matrix(0.05,0,0,0.05,22.950000000000003,0)" xlink:href="#ao"/><use transform="matrix(0.05,0,0,0.05,33.900000000000006,0)" xlink:href="#al"/><use transform="matrix(0.05,0,0,0.05,39.85000000000001,0)" xlink:href="#an"/><use transform="matrix(0.05,0,0,0.05,49.85000000000001,0)" xlink:href="#ap"/></g><g id="u"><use transform="matrix(0.05,0,0,0.05,0,0)" xlink:href="#X"/><use transform="matrix(0.05,0,0,0.05,10,0)" xlink:href="#Z"/><use transform="matrix(0.05,0,0,0.05,15,0)" xlink:href="#Z"/><use transform="matrix(0.05,0,0,0.05,20,0)" xlink:href="#Q"/></g><g id="v"><use transform="matrix(0.05,0,0,0.05,0,0)" xlink:href="#ah"/><use transform="matrix(0.05,0,0,0.05,14.950000000000001,0)" xlink:href="#O"/><use transform="matrix(0.05,0,0,0.05,24.950000000000003,0)" xlink:href="#Z"/><use transform="matrix(0.05,0,0,0.05,29.950000000000003,0)" xlink:href="#ab"/><use transform="matrix(0.05,0,0,0.05,35.900000000000006,0)" xlink:href="#aa"/><use transform="matrix(0.05,0,0,0.05,39.85000000000001,0)" xlink:href="#W"/><use transform="matrix(0.05,0,0,0.05,48.85000000000001,0)" xlink:href="#P"/></g></defs></g></svg>