<svg xmlns="http://www.w3.org/2000/svg" xmlns:xlink="http://www.w3.org/1999/xlink" xmlns:lucid="lucid" width="1200" height="800"><g transform="translate(-220 -100)" lucid:page-tab-id="0_0"><path d="M0 0h1870.87v1322.84H0z" fill="#fff"/><path d="M480 506a6 6 0 0 1 6-6h908a6 6 0 0 1 6 6v368a6 6 0 0 1-6 6H486a6 6 0 0 1-6-6z" stroke="#000" stroke-opacity="0" stroke-width="3" fill="#83bbe5"/><use xlink:href="#a" transform="matrix(1,0,0,1,492,512) translate(0 14.4)"/><path d="M980 126a6 6 0 0 1 6-6h408a6 6 0 0 1 6 6v288a6 6 0 0 1-6 6H986a6 6 0 0 1-6-6z" stroke="#000" stroke-opacity="0" stroke-width="3" fill="#b391b5"/><use xlink:href="#b" transform="matrix(1,0,0,1,992,132) translate(0 14.4)"/><use xlink:href="#c" transform="matrix(1,0,0,1,992,132) translate(35 14.4)"/><use xlink:href="#d" transform="matrix(1,0,0,1,992,132) translate(92.9 14.4)"/><path d="M480 126a6 6 0 0 1 6-6h408a6 6 0 0 1 6 6v288a6 6 0 0 1-6 6H486a6 6 0 0 1-6-6z" stroke="#000" stroke-opacity="0" stroke-width="3" fill="#b391b5"/><use xlink:href="#e" transform="matrix(1,0,0,1,492,132) translate(0 14.4)"/><use xlink:href="#c" transform="matrix(1,0,0,1,492,132) translate(56.900000000000006 14.4)"/><use xlink:href="#d" transform="matrix(1,0,0,1,492,132) translate(114.80000000000001 14.4)"/><path d="M506 166a6 6 0 0 1 6-6h148a6 6 0 0 1 6 6v68a6 6 0 0 1-6 6H512a6 6 0 0 1-6-6z" stroke="#834187" stroke-width="3" fill="#834187"/><use xlink:href="#f" transform="matrix(1,0,0,1,518.0000000000001,172) translate(16.099999999999994 31.9)"/><path d="M402.5 200H486" stroke="#5e5e5e" stroke-width="2" fill="none"/><path d="M402.53 201h-1.03v-2h1.03z" stroke="#5e5e5e" stroke-width=".05" fill="#5e5e5e"/><path d="M501.26 200L487 204.63v-9.26z" stroke="#5e5e5e" stroke-width="2" fill="#5e5e5e"/><path d="M1000 306a6 6 0 0 1 6-6h148a6 6 0 0 1 6 6v68a6 6 0 0 1-6 6h-148a6 6 0 0 1-6-6z" stroke="#834187" stroke-width="3" fill="#834187"/><use xlink:href="#g" transform="matrix(1,0,0,1,1012,312) translate(25.549999999999997 31.9)"/><use xlink:href="#h" transform="matrix(1,0,0,1,1012,312) translate(60.55 31.9)"/><path d="M880 364c0 3.3-35.82 6-80 6s-80-2.7-80-6v-48c0-3.3 35.82-6 80-6s80 2.7 80 6z" stroke="#5e5e5e" stroke-width="3" fill="#fff"/><path d="M880 316c0 3.3-35.82 6-80 6s-80-2.7-80-6" stroke="#5e5e5e" stroke-width="3" fill="none"/><use xlink:href="#i" transform="matrix(1,0,0,1,725,327) translate(50.802469135802475 23.72222222222222)"/><use xlink:href="#j" transform="matrix(1,0,0,1,725,327) translate(79.44444444444444 23.72222222222222)"/><path d="M1380 364c0 3.3-35.82 6-80 6s-80-2.7-80-6v-48c0-3.3 35.82-6 80-6s80 2.7 80 6z" stroke="#5e5e5e" stroke-width="3" fill="#fff"/><path d="M1380 316c0 3.3-35.82 6-80 6s-80-2.7-80-6" stroke="#5e5e5e" stroke-width="3" fill="none"/><use xlink:href="#k" transform="matrix(1,0,0,1,1225,327) translate(32.11111111111113 23.72222222222222)"/><use xlink:href="#l" transform="matrix(1,0,0,1,1225,327) translate(60.70370370370372 23.72222222222222)"/><path d="M1000 166a6 6 0 0 1 6-6h148a6 6 0 0 1 6 6v68a6 6 0 0 1-6 6h-148a6 6 0 0 1-6-6z" stroke="#834187" stroke-width="3" fill="#834187"/><use xlink:href="#m" transform="matrix(1,0,0,1,1012,172) translate(19.074999999999996 31.9)"/><path d="M1220 166a6 6 0 0 1 6-6h148a6 6 0 0 1 6 6v68a6 6 0 0 1-6 6h-148a6 6 0 0 1-6-6z" stroke="#834187" stroke-width="3" fill="#834187"/><use xlink:href="#n" transform="matrix(1,0,0,1,1232,172) translate(10.099999999999994 31.9)"/><path d="M240 146a6 6 0 0 1 6-6h132a6 6 0 0 1 6 6v96c-24.05-17.03-39.02-17.03-48.1-17.03-14.4 0-33.55 17.03-47.95 17.03-8.93 0-24.05 0-47.95-17.03z" stroke="#834187" stroke-width="3" fill="#fff"/><path d="M248 155a6 6 0 0 1 6-6h132a6 6 0 0 1 6 6v96c-24.05-17.03-39.02-17.03-48.1-17.03-14.4 0-33.55 17.03-47.95 17.03-8.93 0-24.05 0-47.95-17.03z" stroke="#834187" stroke-width="3" fill="#fff"/><path d="M256 164a6 6 0 0 1 6-6h132a6 6 0 0 1 6 6v96c-24.05-17.03-39.02-17.03-48.1-17.03-14.4 0-33.55 17.03-47.95 17.03-8.93 0-24.05 0-47.95-17.03z" stroke="#834187" stroke-width="3" fill="#fff"/><use xlink:href="#o" transform="matrix(1,0,0,1,261,163) translate(7.271604938271601 24.80902777777778)"/><use xlink:href="#p" transform="matrix(1,0,0,1,261,163) translate(19.52469135802469 51.47569444444445)"/><path d="M840 766a6 6 0 0 1 6-6h148a6 6 0 0 1 6 6v68a6 6 0 0 1-6 6H846a6 6 0 0 1-6-6z" stroke="#000" stroke-opacity="0" stroke-width="3" fill="#0c7cba"/><use xlink:href="#q" transform="matrix(1,0,0,1,852,772) translate(32.05 31.9)"/><use xlink:href="#r" transform="matrix(1,0,0,1,852,772) translate(93.95 31.9)"/><path d="M506 546a6 6 0 0 1 6-6h148a6 6 0 0 1 6 6v68a6 6 0 0 1-6 6H512a6 6 0 0 1-6-6z" stroke="#834187" stroke-width="3" fill="#834187"/><use xlink:href="#m" transform="matrix(1,0,0,1,518.0000000000001,552) translate(19.074999999999996 31.9)"/><path d="M506 686a6 6 0 0 1 6-6h148a6 6 0 0 1 6 6v68a6 6 0 0 1-6 6H512a6 6 0 0 1-6-6z" stroke="#834187" stroke-width="3" fill="#834187"/><use xlink:href="#n" transform="matrix(1,0,0,1,518.0000000000001,692) translate(10.099999999999994 31.9)"/><path d="M1220 546a6 6 0 0 1 6-6h148a6 6 0 0 1 6 6v68a6 6 0 0 1-6 6h-148a6 6 0 0 1-6-6z" stroke="#834187" stroke-width="3" fill="#834187"/><use xlink:href="#s" transform="matrix(1,0,0,1,1232,552) translate(51.025 31.9)"/><path d="M1380 724c0 3.3-35.82 6-80 6s-80-2.7-80-6v-48c0-3.3 35.82-6 80-6s80 2.7 80 6z" stroke="#5e5e5e" stroke-width="3" fill="#fff"/><path d="M1380 676c0 3.3-35.82 6-80 6s-80-2.7-80-6" stroke="#5e5e5e" stroke-width="3" fill="none"/><use xlink:href="#t" transform="matrix(1,0,0,1,1225,687) translate(37 23.72222222222222)"/><path d="M586 537.5V260" stroke="#5e5e5e" stroke-width="2" fill="none"/><path d="M587 538.5h-2v-1.03h2z" stroke="#5e5e5e" stroke-width=".05" fill="#5e5e5e"/><path d="M586 244.74l4.63 14.26h-9.26z" stroke="#5e5e5e" stroke-width="2" fill="#5e5e5e"/><path d="M997.5 200H686" stroke="#5e5e5e" stroke-width="2" fill="none"/><path d="M998.5 201h-1.03v-2h1.03z" stroke="#5e5e5e" stroke-width=".05" fill="#5e5e5e"/><path d="M670.74 200l14.26-4.63v9.26z" stroke="#5e5e5e" stroke-width="2" fill="#5e5e5e"/><path d="M1217.5 200H1180" stroke="#5e5e5e" stroke-width="2" fill="none"/><path d="M1218.5 201h-1.03v-2h1.03z" stroke="#5e5e5e" stroke-width=".05" fill="#5e5e5e"/><path d="M1164.74 200l14.26-4.63v9.26z" stroke="#5e5e5e" stroke-width="2" fill="#5e5e5e"/><path d="M1080 297.5V260" stroke="#5e5e5e" stroke-width="2" fill="none"/><path d="M1081 298.5h-2v-1.03h2z" stroke="#5e5e5e" stroke-width=".05" fill="#5e5e5e"/><path d="M1080 244.74l4.63 14.26h-9.27z" stroke="#5e5e5e" stroke-width="2" fill="#5e5e5e"/><path d="M1162.5 340h2.8m3.76 0h5.63m3.74 0h5.62m3.75 0h5.64m3.75 0h2.8" stroke="#5e5e5e" stroke-width="2" fill="none"/><path d="M1162.53 341h-1.03v-2h1.03z" stroke="#5e5e5e" stroke-width=".05" fill="#5e5e5e"/><path d="M1215.27 340l-14.27 4.63v-9.26z" stroke="#5e5e5e" stroke-width="2" fill="#5e5e5e"/><path d="M1300 537.5v-3.06m0-4.1v-6.12m0-4.08V514m0-4.08v-6.13m0-4.1v-6.12m0-4.1v-6.12m0-4.08v-6.13m0-4.1V466l-.07-.94-.22-.9-.35-.88m-2.63-2.63l-.87-.36-.9-.23-.95-.07h-2.97m-3.96 0h-5.95m-3.96 0h-5.94m-3.96 0h-5.95m-3.95 0h-5.94m-3.95 0h-5.94m-3.96 0h-5.94m-3.96 0h-5.95m-3.97 0h-5.94m-3.97 0h-5.94m-3.98 0h-5.94m-3.96 0h-5.94m-3.97 0h-5.93m-3.96 0h-5.93m-3.96 0h-5.94m-3.96 0h-5.94m-3.97 0h-5.95m-3.96 0h-5.95m-3.96 0h-5.96m-3.96 0h-5.94m-3.96 0h-5.95m-3.96 0H1086l-.94-.07-.9-.22-.88-.35m-2.63-2.63l-.36-.87-.23-.9-.07-.95v-3.24m0-4.32v-6.48m0-4.32v-6.48m0-4.32v-6.48m0-4.32v-6.48m0-4.32V400" stroke="#5e5e5e" stroke-width="2" fill="none"/><path d="M1301 538.5h-2v-1.03h2z" stroke="#5e5e5e" stroke-width=".05" fill="#5e5e5e"/><path d="M1080 384.74l4.63 14.26h-9.27z" stroke="#5e5e5e" stroke-width="2" fill="#5e5e5e"/><path d="M1001 700h3m3.97 0h5.96m4 0h5.96m3.97 0h5.97m3.98 0h5.97m3.97 0h5.96m3.98 0h5.98m3.98 0h5.97m3.98 0h5.98m3.98 0h5.97m3.98 0h5.98m3.98 0h5.97m3.98 0h5.98m3.98 0h5.97m3.98 0h5.98m3.98 0h5.97m3.98 0h5.98m3.98 0h5.97m3.98 0h5.98m3.98 0h5.97m3.98 0h3" stroke="#5e5e5e" stroke-width="2" fill="none"/><path d="M1001.03 701H1000v-2h1.03z" stroke="#5e5e5e" stroke-width=".05" fill="#5e5e5e"/><path d="M1215.27 700l-14.27 4.63v-9.26z" stroke="#5e5e5e" stroke-width="2" fill="#5e5e5e"/><path d="M1001 800h3.03m4.04 0h6.06m4.05 0h6.06m4.04 0h6.06m4.04 0h6.06m4.05 0h6.05m4.04 0h6.05m4.04 0h6.06m4.04 0h6.06m4.04 0h6.06m4.04 0h6.07m4.04 0h6.07m4.04 0h6.07m4.04 0h6.08m4.04 0h6.06m4.04 0h6.06m4.04 0h6.07m4.03 0h6.06m4.03 0h6.06m4.03 0h6.07m4.04 0h6.06m4.04 0h6.06m4.04 0h6.07m4.05 0h6.06m4.05 0h6.06m4.06 0h6.06m4.04 0h6.06m4.04 0h6.06m4.05 0h6.06m4.04 0h3.03l.94-.07.9-.22.88-.35m2.63-2.63l.36-.87.23-.9.07-.95v-3.3m0-4.4v-6.6m0-4.4v-6.6m0-4.4v-6.6m0-4.4V750" stroke="#5e5e5e" stroke-width="2" fill="none"/><path d="M1001.03 801H1000v-2h1.03z" stroke="#5e5e5e" stroke-width=".05" fill="#5e5e5e"/><path d="M1300 734.74l4.63 14.26h-9.27z" stroke="#5e5e5e" stroke-width="2" fill="#5e5e5e"/><path d="M1300 667.5v-2.75m0-3.67v-5.5m0-3.66v-5.5m0-3.67V640" stroke="#5e5e5e" stroke-width="2" fill="none"/><path d="M1301 668.53l-.98-.03H1299v-1.03h2z" stroke="#5e5e5e" stroke-width=".05" fill="#5e5e5e"/><path d="M1300 624.74l4.63 14.26h-9.27z" stroke="#5e5e5e" stroke-width="2" fill="#5e5e5e"/><path d="M586 677.5V640" stroke="#5e5e5e" stroke-width="2" fill="none"/><path d="M587 678.5h-2v-1.03h2z" stroke="#5e5e5e" stroke-width=".05" fill="#5e5e5e"/><path d="M586 624.74l4.63 14.26h-9.26z" stroke="#5e5e5e" stroke-width="2" fill="#5e5e5e"/><path d="M1300 242.5v7.17m0 7.16V264l-.07.94-.22.9-.35.88-.5.8-.6.72-.72.6-.8.5-.88.37-.9.23-.95.07h-9.18m-9.2 0h-18.36m-9.2 0h-18.36m-9.18 0h-18.37m-9.2 0h-18.36m-9.2 0h-18.36m-9.2 0h-9.17l-.94.07-.92.22-.86.35-.8.5-.72.6-.6.72-.5.8-.36.88-.22.9-.07.95v4" stroke="#5e5e5e" stroke-width="2" fill="none"/><path d="M1301 242.53h-2v-1.03h2z" stroke="#5e5e5e" stroke-width=".05" fill="#5e5e5e"/><path d="M1122.67 295.26l-4.64-14.26h9.27z" stroke="#5e5e5e" stroke-width="2" fill="#5e5e5e"/><path d="M668.5 700h9.47m9.47 0h18.95m9.46 0h18.95m9.48 0H765.05m11.28 0h22.58m11.3 0h11.3" stroke="#5e5e5e" stroke-width="2" fill="none"/><path d="M668.53 701h-1.03v-2h1.03z" stroke="#5e5e5e" stroke-width=".05" fill="#5e5e5e"/><path d="M836.76 700l-14.26 4.63v-9.26z" stroke="#5e5e5e" stroke-width="2" fill="#5e5e5e"/><path d="M668.5 744h8.8m8.8 0h17.62m8.8 0h17.62m8.8 0h8.8l.95.07.9.22.87.35.8.5.72.6.6.72.5.8.36.88.22.9.07.95v8m0 8v8l.07.94.22.9.36.88.5.8.6.72.72.6.8.5.88.37.9.23.95.07h10.3m10.28 0h20.58m10.3 0h10.3" stroke="#5e5e5e" stroke-width="2" fill="none"/><path d="M668.53 745h-1.03v-2h1.03z" stroke="#5e5e5e" stroke-width=".05" fill="#5e5e5e"/><path d="M836.76 780l-14.26 4.63v-9.26z" stroke="#5e5e5e" stroke-width="2" fill="#5e5e5e"/><path d="M629.33 242.5V334a6 6 0 0 0 6 6H700" stroke="#5e5e5e" stroke-width="2" fill="none"/><path d="M630.33 242.53h-2v-1.03h2z" stroke="#5e5e5e" stroke-width=".05" fill="#5e5e5e"/><path d="M715.26 340L701 344.63v-9.26z" stroke="#5e5e5e" stroke-width="2" fill="#5e5e5e"/><path d="M920 659v-73a6 6 0 0 0-6-6H686" stroke="#5e5e5e" stroke-width="2" fill="none"/><path d="M921 660h-2v-1.03h2z" stroke="#5e5e5e" stroke-width=".05" fill="#5e5e5e"/><path d="M670.74 580l14.26-4.63v9.26z" stroke="#5e5e5e" stroke-width="2" fill="#5e5e5e"/><path d="M889.33 759V610a6 6 0 0 0-6-6H686" stroke="#5e5e5e" stroke-width="2" fill="none"/><path d="M890.33 760h-2v-1.03h2z" stroke="#5e5e5e" stroke-width=".05" fill="#5e5e5e"/><path d="M670.74 604l14.26-4.63v9.26z" stroke="#5e5e5e" stroke-width="2" fill="#5e5e5e"/><path d="M840 666a6 6 0 0 1 6-6h148a6 6 0 0 1 6 6v68a6 6 0 0 1-6 6H846a6 6 0 0 1-6-6z" stroke="#000" stroke-opacity="0" stroke-width="3" fill="#0c7cba"/><use xlink:href="#q" transform="matrix(1,0,0,1,852,672) translate(32.05 31.9)"/><use xlink:href="#u" transform="matrix(1,0,0,1,852,672) translate(93.95 31.9)"/><path d="M506 786a6 6 0 0 1 6-6h148a6 6 0 0 1 6 6v68a6 6 0 0 1-6 6H512a6 6 0 0 1-6-6z" stroke="#834187" stroke-width="3" fill="#834187"/><g><use xlink:href="#v" transform="matrix(1,0,0,1,518.0000000000001,792) translate(14.124999999999993 31.9)"/></g><path d="M668.5 820h3.06m4.08 0h6.12m4.08 0h6.12m4.08 0h6.12m4.08 0h6.12m4.08 0h6.12m4.08 0h6.12m4.08 0h6.12m4.08 0h6.12m4.08 0h6.12m4.08 0h6.12m4.08 0h6.12m4.08 0h6.12m4.08 0h6.12m4.08 0h6.12m4.08 0h3.06" stroke="#5e5e5e" stroke-width="2" fill="none"/><path d="M668.53 821h-1.03v-2h1.03z" stroke="#5e5e5e" stroke-width=".05" fill="#5e5e5e"/><path d="M836.76 820l-14.26 4.63v-9.26z" stroke="#5e5e5e" stroke-width="2" fill="#5e5e5e"/><path d="M668.5 850.67h2.96m3.95 0h5.94m3.95 0h5.92m3.95 0h5.93m3.95 0h5.93m3.95 0h5.93m3.95 0h5.93m3.95 0h5.93m3.96 0h5.93m3.94 0h5.93m3.95 0h5.93m3.95 0h5.93m3.95 0H790m3.96 0h5.92m3.95 0h5.93m3.95 0h5.94m3.95 0h5.92m3.95 0h5.93m3.95 0h5.92m3.96 0h5.92m3.95 0h5.93m3.95 0h5.93m3.96 0h5.93m3.94 0h5.93m3.95 0h5.92m3.96 0h5.92m3.95 0h5.93m3.95 0h5.93m3.95 0h5.93m3.95 0h5.94m3.95 0h5.92m3.95 0h5.92m3.94 0h5.93m3.95 0h5.93m3.95 0h5.93m3.95 0h5.93m3.96 0h5.93m3.94 0h2.96l.94-.08.9-.23.88-.36m2.63-2.6l.36-.88.23-.9.07-.95v-3.06m0-4.06v-6.1m0-4.08v-6.1m0-4.08v-6.1m0-4.1v-6.1m0-4.07v-6.1m0-4.07v-6.1m0-4.08v-6.1m0-4.08v-6.1m0-4.08v-6.12m0-4.08v-6.1m0-4.08v-3.05l-.07-.94-.22-.92-.35-.86m-2.63-2.62l-.87-.36-.9-.22-.95-.07h-2.33m-3.1 0h-4.64m-3.1 0h-2.33" stroke="#5e5e5e" stroke-width="2" fill="none"/><path d="M668.53 851.67h-1.03v-2h1.03z" stroke="#5e5e5e" stroke-width=".05" fill="#5e5e5e"/><path d="M1003.24 726.67l14.26-4.64v9.27z" stroke="#5e5e5e" stroke-width="2" fill="#5e5e5e"/><defs><path fill="#333" d="M190 0L58-211 59 0H30v-248h39L202-35l-2-213h31V0h-41" id="w"/><path fill="#333" d="M100-194c62-1 85 37 85 99 1 63-27 99-86 99S16-35 15-95c0-66 28-99 85-99zM99-20c44 1 53-31 53-75 0-43-8-75-51-75s-53 32-53 75 10 74 51 75" id="x"/><path fill="#333" d="M85-194c31 0 48 13 60 33l-1-100h32l1 261h-30c-2-10 0-23-3-31C134-8 116 4 85 4 32 4 16-35 15-94c0-66 23-100 70-100zm9 24c-40 0-46 34-46 75 0 40 6 74 45 74 42 0 51-32 51-76 0-42-9-74-50-73" id="y"/><path fill="#333" d="M100-194c63 0 86 42 84 106H49c0 40 14 67 53 68 26 1 43-12 49-29l28 8c-11 28-37 45-77 45C44 4 14-33 15-96c1-61 26-98 85-98zm52 81c6-60-76-77-97-28-3 7-6 17-6 28h103" id="z"/><g id="a"><use transform="matrix(0.05,0,0,0.05,0,0)" xlink:href="#w"/><use transform="matrix(0.05,0,0,0.05,12.950000000000001,0)" xlink:href="#x"/><use transform="matrix(0.05,0,0,0.05,22.950000000000003,0)" xlink:href="#y"/><use transform="matrix(0.05,0,0,0.05,32.95,0)" xlink:href="#z"/></g><path fill="#333" d="M30 0v-248h33v221h125V0H30" id="A"/><path fill="#333" d="M177-190C167-65 218 103 67 71c-23-6-38-20-44-43l32-5c15 47 100 32 89-28v-30C133-14 115 1 83 1 29 1 15-40 15-95c0-56 16-97 71-98 29-1 48 16 59 35 1-10 0-23 2-32h30zM94-22c36 0 50-32 50-73 0-42-14-75-50-75-39 0-46 34-46 75s6 73 46 73" id="B"/><g id="b"><use transform="matrix(0.05,0,0,0.05,0,0)" xlink:href="#A"/><use transform="matrix(0.05,0,0,0.05,10,0)" xlink:href="#x"/><use transform="matrix(0.05,0,0,0.05,20,0)" xlink:href="#B"/></g><path fill="#333" d="M185-189c-5-48-123-54-124 2 14 75 158 14 163 119 3 78-121 87-175 55-17-10-28-26-33-46l33-7c5 56 141 63 141-1 0-78-155-14-162-118-5-82 145-84 179-34 5 7 8 16 11 25" id="C"/><path fill="#333" d="M114-163C36-179 61-72 57 0H25l-1-190h30c1 12-1 29 2 39 6-27 23-49 58-41v29" id="D"/><path fill="#333" d="M108 0H70L1-190h34L89-25l56-165h34" id="E"/><g id="c"><use transform="matrix(0.05,0,0,0.05,0,0)" xlink:href="#C"/><use transform="matrix(0.05,0,0,0.05,12,0)" xlink:href="#z"/><use transform="matrix(0.05,0,0,0.05,22,0)" xlink:href="#D"/><use transform="matrix(0.05,0,0,0.05,27.950000000000003,0)" xlink:href="#E"/><use transform="matrix(0.05,0,0,0.05,36.95,0)" xlink:href="#z"/><use transform="matrix(0.05,0,0,0.05,46.95,0)" xlink:href="#D"/></g><path fill="#333" d="M117-194c89-4 53 116 60 194h-32v-121c0-31-8-49-39-48C34-167 62-67 57 0H25l-1-190h30c1 10-1 24 2 32 11-22 29-35 61-36" id="F"/><g id="d"><use transform="matrix(0.05,0,0,0.05,0,0)" xlink:href="#F"/><use transform="matrix(0.05,0,0,0.05,10,0)" xlink:href="#x"/><use transform="matrix(0.05,0,0,0.05,20,0)" xlink:href="#y"/><use transform="matrix(0.05,0,0,0.05,30,0)" xlink:href="#z"/></g><path fill="#333" d="M212-179c-10-28-35-45-73-45-59 0-87 40-87 99 0 60 29 101 89 101 43 0 62-24 78-52l27 14C228-24 195 4 139 4 59 4 22-46 18-125c-6-104 99-153 187-111 19 9 31 26 39 46" id="G"/><path fill="#333" d="M101-234c-31-9-42 10-38 44h38v23H63V0H32v-167H5v-23h27c-7-52 17-82 69-68v24" id="H"/><path fill="#333" d="M24-231v-30h32v30H24zM24 0v-190h32V0H24" id="I"/><g id="e"><use transform="matrix(0.05,0,0,0.05,0,0)" xlink:href="#G"/><use transform="matrix(0.05,0,0,0.05,12.950000000000001,0)" xlink:href="#x"/><use transform="matrix(0.05,0,0,0.05,22.950000000000003,0)" xlink:href="#F"/><use transform="matrix(0.05,0,0,0.05,32.95,0)" xlink:href="#H"/><use transform="matrix(0.05,0,0,0.05,37.95,0)" xlink:href="#I"/><use transform="matrix(0.05,0,0,0.05,41.900000000000006,0)" xlink:href="#B"/></g><path fill="#fff" d="M96-169c-40 0-48 33-48 73s9 75 48 75c24 0 41-14 43-38l32 2c-6 37-31 61-74 61-59 0-76-41-82-99-10-93 101-131 147-64 4 7 5 14 7 22l-32 3c-4-21-16-35-41-35" id="J"/><path fill="#fff" d="M100-194c62-1 85 37 85 99 1 63-27 99-86 99S16-35 15-95c0-66 28-99 85-99zM99-20c44 1 53-31 53-75 0-43-8-75-51-75s-53 32-53 75 10 74 51 75" id="K"/><path fill="#fff" d="M117-194c89-4 53 116 60 194h-32v-121c0-31-8-49-39-48C34-167 62-67 57 0H25l-1-190h30c1 10-1 24 2 32 11-22 29-35 61-36" id="L"/><path fill="#fff" d="M101-234c-31-9-42 10-38 44h38v23H63V0H32v-167H5v-23h27c-7-52 17-82 69-68v24" id="M"/><path fill="#fff" d="M24-231v-30h32v30H24zM24 0v-190h32V0H24" id="N"/><path fill="#fff" d="M177-190C167-65 218 103 67 71c-23-6-38-20-44-43l32-5c15 47 100 32 89-28v-30C133-14 115 1 83 1 29 1 15-40 15-95c0-56 16-97 71-98 29-1 48 16 59 35 1-10 0-23 2-32h30zM94-22c36 0 50-32 50-73 0-42-14-75-50-75-39 0-46 34-46 75s6 73 46 73" id="O"/><path fill="#fff" d="M16-82v-28h88v28H16" id="P"/><path fill="#fff" d="M135-143c-3-34-86-38-87 0 15 53 115 12 119 90S17 21 10-45l28-5c4 36 97 45 98 0-10-56-113-15-118-90-4-57 82-63 122-42 12 7 21 19 24 35" id="Q"/><path fill="#fff" d="M100-194c63 0 86 42 84 106H49c0 40 14 67 53 68 26 1 43-12 49-29l28 8c-11 28-37 45-77 45C44 4 14-33 15-96c1-61 26-98 85-98zm52 81c6-60-76-77-97-28-3 7-6 17-6 28h103" id="R"/><path fill="#fff" d="M114-163C36-179 61-72 57 0H25l-1-190h30c1 12-1 29 2 39 6-27 23-49 58-41v29" id="S"/><path fill="#fff" d="M108 0H70L1-190h34L89-25l56-165h34" id="T"/><g id="f"><use transform="matrix(0.05,0,0,0.05,0,0)" xlink:href="#J"/><use transform="matrix(0.05,0,0,0.05,9,0)" xlink:href="#K"/><use transform="matrix(0.05,0,0,0.05,19,0)" xlink:href="#L"/><use transform="matrix(0.05,0,0,0.05,29,0)" xlink:href="#M"/><use transform="matrix(0.05,0,0,0.05,34,0)" xlink:href="#N"/><use transform="matrix(0.05,0,0,0.05,37.95,0)" xlink:href="#O"/><use transform="matrix(0.05,0,0,0.05,47.95,0)" xlink:href="#P"/><use transform="matrix(0.05,0,0,0.05,53.900000000000006,0)" xlink:href="#Q"/><use transform="matrix(0.05,0,0,0.05,62.900000000000006,0)" xlink:href="#R"/><use transform="matrix(0.05,0,0,0.05,72.9,0)" xlink:href="#S"/><use transform="matrix(0.05,0,0,0.05,78.85000000000001,0)" xlink:href="#T"/><use transform="matrix(0.05,0,0,0.05,87.85000000000001,0)" xlink:href="#R"/><use transform="matrix(0.05,0,0,0.05,97.85000000000001,0)" xlink:href="#S"/></g><path fill="#fff" d="M30 0v-248h33v221h125V0H30" id="U"/><g id="g"><use transform="matrix(0.05,0,0,0.05,0,0)" xlink:href="#U"/><use transform="matrix(0.05,0,0,0.05,10,0)" xlink:href="#K"/><use transform="matrix(0.05,0,0,0.05,20,0)" xlink:href="#O"/></g><g id="h"><use transform="matrix(0.05,0,0,0.05,0,0)" xlink:href="#Q"/><use transform="matrix(0.05,0,0,0.05,9,0)" xlink:href="#R"/><use transform="matrix(0.05,0,0,0.05,19,0)" xlink:href="#S"/><use transform="matrix(0.05,0,0,0.05,24.95,0)" xlink:href="#T"/><use transform="matrix(0.05,0,0,0.05,33.95,0)" xlink:href="#R"/><use transform="matrix(0.05,0,0,0.05,43.95,0)" xlink:href="#S"/></g><path fill="#333" d="M96-169c-40 0-48 33-48 73s9 75 48 75c24 0 41-14 43-38l32 2c-6 37-31 61-74 61-59 0-76-41-82-99-10-93 101-131 147-64 4 7 5 14 7 22l-32 3c-4-21-16-35-41-35" id="V"/><g id="i"><use transform="matrix(0.049382716049382706,0,0,0.049382716049382706,0,0)" xlink:href="#V"/><use transform="matrix(0.049382716049382706,0,0,0.049382716049382706,8.888888888888888,0)" xlink:href="#H"/><use transform="matrix(0.049382716049382706,0,0,0.049382716049382706,13.827160493827158,0)" xlink:href="#B"/></g><path fill="#333" d="M115-194c53 0 69 39 70 98 0 66-23 100-70 100C84 3 66-7 56-30L54 0H23l1-261h32v101c10-23 28-34 59-34zm-8 174c40 0 45-34 45-75 0-40-5-75-45-74-42 0-51 32-51 76 0 43 10 73 51 73" id="W"/><g id="j"><use transform="matrix(0.049382716049382706,0,0,0.049382716049382706,0,0)" xlink:href="#y"/><use transform="matrix(0.049382716049382706,0,0,0.049382716049382706,9.87654320987654,0)" xlink:href="#W"/></g><path fill="#333" d="M24 0v-261h32V0H24" id="X"/><g id="k"><use transform="matrix(0.049382716049382706,0,0,0.049382716049382706,0,0)" xlink:href="#X"/><use transform="matrix(0.049382716049382706,0,0,0.049382716049382706,3.9012345679012337,0)" xlink:href="#x"/><use transform="matrix(0.049382716049382706,0,0,0.049382716049382706,13.777777777777775,0)" xlink:href="#B"/></g><path fill="#333" d="M141-36C126-15 110 5 73 4 37 3 15-17 15-53c-1-64 63-63 125-63 3-35-9-54-41-54-24 1-41 7-42 31l-33-3c5-37 33-52 76-52 45 0 72 20 72 64v82c-1 20 7 32 28 27v20c-31 9-61-2-59-35zM48-53c0 20 12 33 32 33 41-3 63-29 60-74-43 2-92-5-92 41" id="Y"/><path fill="#333" d="M106-169C34-169 62-67 57 0H25v-261h32l-1 103c12-21 28-36 61-36 89 0 53 116 60 194h-32v-121c2-32-8-49-39-48" id="Z"/><g id="l"><use transform="matrix(0.049382716049382706,0,0,0.049382716049382706,0,0)" xlink:href="#Y"/><use transform="matrix(0.049382716049382706,0,0,0.049382716049382706,9.87654320987654,0)" xlink:href="#D"/><use transform="matrix(0.049382716049382706,0,0,0.049382716049382706,15.75308641975308,0)" xlink:href="#V"/><use transform="matrix(0.049382716049382706,0,0,0.049382716049382706,24.641975308641968,0)" xlink:href="#Z"/><use transform="matrix(0.049382716049382706,0,0,0.049382716049382706,34.518518518518505,0)" xlink:href="#I"/><use transform="matrix(0.049382716049382706,0,0,0.049382716049382706,38.41975308641974,0)" xlink:href="#E"/><use transform="matrix(0.049382716049382706,0,0,0.049382716049382706,47.308641975308625,0)" xlink:href="#z"/></g><path fill="#fff" d="M115-194c55 1 70 41 70 98S169 2 115 4C84 4 66-9 55-30l1 105H24l-1-265h31l2 30c10-21 28-34 59-34zm-8 174c40 0 45-34 45-75s-6-73-45-74c-42 0-51 32-51 76 0 43 10 73 51 73" id="aa"/><path fill="#fff" d="M141 0L90-78 38 0H4l68-98-65-92h35l48 74 47-74h35l-64 92 68 98h-35" id="ab"/><path fill="#fff" d="M179-190L93 31C79 59 56 82 12 73V49c39 6 53-20 64-50L1-190h34L92-34l54-156h33" id="ac"/><g id="m"><use transform="matrix(0.05,0,0,0.05,0,0)" xlink:href="#J"/><use transform="matrix(0.05,0,0,0.05,9,0)" xlink:href="#K"/><use transform="matrix(0.05,0,0,0.05,19,0)" xlink:href="#L"/><use transform="matrix(0.05,0,0,0.05,29,0)" xlink:href="#M"/><use transform="matrix(0.05,0,0,0.05,34,0)" xlink:href="#N"/><use transform="matrix(0.05,0,0,0.05,37.95,0)" xlink:href="#O"/><use transform="matrix(0.05,0,0,0.05,47.95,0)" xlink:href="#P"/><use transform="matrix(0.05,0,0,0.05,53.900000000000006,0)" xlink:href="#aa"/><use transform="matrix(0.05,0,0,0.05,63.900000000000006,0)" xlink:href="#S"/><use transform="matrix(0.05,0,0,0.05,69.85000000000001,0)" xlink:href="#K"/><use transform="matrix(0.05,0,0,0.05,79.85000000000001,0)" xlink:href="#ab"/><use transform="matrix(0.05,0,0,0.05,88.85000000000001,0)" xlink:href="#ac"/></g><path fill="#fff" d="M59-47c-2 24 18 29 38 22v24C64 9 27 4 27-40v-127H5v-23h24l9-43h21v43h35v23H59v120" id="ad"/><path fill="#fff" d="M24 0v-261h32V0H24" id="ae"/><g id="n"><use transform="matrix(0.05,0,0,0.05,0,0)" xlink:href="#J"/><use transform="matrix(0.05,0,0,0.05,9,0)" xlink:href="#K"/><use transform="matrix(0.05,0,0,0.05,19,0)" xlink:href="#L"/><use transform="matrix(0.05,0,0,0.05,29,0)" xlink:href="#M"/><use transform="matrix(0.05,0,0,0.05,34,0)" xlink:href="#N"/><use transform="matrix(0.05,0,0,0.05,37.95,0)" xlink:href="#O"/><use transform="matrix(0.05,0,0,0.05,47.95,0)" xlink:href="#P"/><use transform="matrix(0.05,0,0,0.05,53.900000000000006,0)" xlink:href="#Q"/><use transform="matrix(0.05,0,0,0.05,62.900000000000006,0)" xlink:href="#R"/><use transform="matrix(0.05,0,0,0.05,72.9,0)" xlink:href="#L"/><use transform="matrix(0.05,0,0,0.05,82.9,0)" xlink:href="#ad"/><use transform="matrix(0.05,0,0,0.05,87.9,0)" xlink:href="#N"/><use transform="matrix(0.05,0,0,0.05,91.85000000000001,0)" xlink:href="#L"/><use transform="matrix(0.05,0,0,0.05,101.85000000000001,0)" xlink:href="#R"/><use transform="matrix(0.05,0,0,0.05,111.85000000000001,0)" xlink:href="#ae"/></g><path fill="#834187" d="M205 0l-28-72H64L36 0H1l101-248h38L239 0h-34zm-38-99l-47-123c-12 45-31 82-46 123h93" id="af"/><path fill="#834187" d="M115-194c55 1 70 41 70 98S169 2 115 4C84 4 66-9 55-30l1 105H24l-1-265h31l2 30c10-21 28-34 59-34zm-8 174c40 0 45-34 45-75s-6-73-45-74c-42 0-51 32-51 76 0 43 10 73 51 73" id="ag"/><path fill="#834187" d="M24 0v-261h32V0H24" id="ah"/><path fill="#834187" d="M24-231v-30h32v30H24zM24 0v-190h32V0H24" id="ai"/><path fill="#834187" d="M96-169c-40 0-48 33-48 73s9 75 48 75c24 0 41-14 43-38l32 2c-6 37-31 61-74 61-59 0-76-41-82-99-10-93 101-131 147-64 4 7 5 14 7 22l-32 3c-4-21-16-35-41-35" id="aj"/><path fill="#834187" d="M141-36C126-15 110 5 73 4 37 3 15-17 15-53c-1-64 63-63 125-63 3-35-9-54-41-54-24 1-41 7-42 31l-33-3c5-37 33-52 76-52 45 0 72 20 72 64v82c-1 20 7 32 28 27v20c-31 9-61-2-59-35zM48-53c0 20 12 33 32 33 41-3 63-29 60-74-43 2-92-5-92 41" id="ak"/><path fill="#834187" d="M59-47c-2 24 18 29 38 22v24C64 9 27 4 27-40v-127H5v-23h24l9-43h21v43h35v23H59v120" id="al"/><path fill="#834187" d="M100-194c62-1 85 37 85 99 1 63-27 99-86 99S16-35 15-95c0-66 28-99 85-99zM99-20c44 1 53-31 53-75 0-43-8-75-51-75s-53 32-53 75 10 74 51 75" id="am"/><path fill="#834187" d="M117-194c89-4 53 116 60 194h-32v-121c0-31-8-49-39-48C34-167 62-67 57 0H25l-1-190h30c1 10-1 24 2 32 11-22 29-35 61-36" id="an"/><g id="o"><use transform="matrix(0.06172839506172839,0,0,0.06172839506172839,0,0)" xlink:href="#af"/><use transform="matrix(0.06172839506172839,0,0,0.06172839506172839,14.814814814814813,0)" xlink:href="#ag"/><use transform="matrix(0.06172839506172839,0,0,0.06172839506172839,27.160493827160494,0)" xlink:href="#ag"/><use transform="matrix(0.06172839506172839,0,0,0.06172839506172839,39.50617283950617,0)" xlink:href="#ah"/><use transform="matrix(0.06172839506172839,0,0,0.06172839506172839,44.382716049382715,0)" xlink:href="#ai"/><use transform="matrix(0.06172839506172839,0,0,0.06172839506172839,49.25925925925926,0)" xlink:href="#aj"/><use transform="matrix(0.06172839506172839,0,0,0.06172839506172839,60.37037037037037,0)" xlink:href="#ak"/><use transform="matrix(0.06172839506172839,0,0,0.06172839506172839,72.71604938271605,0)" xlink:href="#al"/><use transform="matrix(0.06172839506172839,0,0,0.06172839506172839,78.88888888888889,0)" xlink:href="#ai"/><use transform="matrix(0.06172839506172839,0,0,0.06172839506172839,83.76543209876543,0)" xlink:href="#am"/><use transform="matrix(0.06172839506172839,0,0,0.06172839506172839,96.11111111111111,0)" xlink:href="#an"/></g><path fill="#834187" d="M143 0L79-87 56-68V0H24v-261h32v163l83-92h37l-77 82L181 0h-38" id="ao"/><path fill="#834187" d="M177-190C167-65 218 103 67 71c-23-6-38-20-44-43l32-5c15 47 100 32 89-28v-30C133-14 115 1 83 1 29 1 15-40 15-95c0-56 16-97 71-98 29-1 48 16 59 35 1-10 0-23 2-32h30zM94-22c36 0 50-32 50-73 0-42-14-75-50-75-39 0-46 34-46 75s6 73 46 73" id="ap"/><path fill="#834187" d="M100-194c63 0 86 42 84 106H49c0 40 14 67 53 68 26 1 43-12 49-29l28 8c-11 28-37 45-77 45C44 4 14-33 15-96c1-61 26-98 85-98zm52 81c6-60-76-77-97-28-3 7-6 17-6 28h103" id="aq"/><g id="p"><use transform="matrix(0.06172839506172839,0,0,0.06172839506172839,0,0)" xlink:href="#ag"/><use transform="matrix(0.06172839506172839,0,0,0.06172839506172839,12.345679012345679,0)" xlink:href="#ak"/><use transform="matrix(0.06172839506172839,0,0,0.06172839506172839,24.691358024691358,0)" xlink:href="#aj"/><use transform="matrix(0.06172839506172839,0,0,0.06172839506172839,35.80246913580247,0)" xlink:href="#ao"/><use transform="matrix(0.06172839506172839,0,0,0.06172839506172839,46.91358024691358,0)" xlink:href="#ak"/><use transform="matrix(0.06172839506172839,0,0,0.06172839506172839,59.25925925925926,0)" xlink:href="#ap"/><use transform="matrix(0.06172839506172839,0,0,0.06172839506172839,71.60493827160494,0)" xlink:href="#aq"/></g><g id="q"><use transform="matrix(0.05,0,0,0.05,0,0)" xlink:href="#Q"/><use transform="matrix(0.05,0,0,0.05,9,0)" xlink:href="#R"/><use transform="matrix(0.05,0,0,0.05,19,0)" xlink:href="#S"/><use transform="matrix(0.05,0,0,0.05,24.95,0)" xlink:href="#T"/><use transform="matrix(0.05,0,0,0.05,33.95,0)" xlink:href="#N"/><use transform="matrix(0.05,0,0,0.05,37.900000000000006,0)" xlink:href="#J"/><use transform="matrix(0.05,0,0,0.05,46.900000000000006,0)" xlink:href="#R"/></g><use transform="matrix(0.05,0,0,0.05,0,0)" xlink:href="#L" id="r"/><path fill="#fff" d="M85-194c31 0 48 13 60 33l-1-100h32l1 261h-30c-2-10 0-23-3-31C134-8 116 4 85 4 32 4 16-35 15-94c0-66 23-100 70-100zm9 24c-40 0-46 34-46 75 0 40 6 74 45 74 42 0 51-32 51-76 0-42-9-74-50-73" id="ar"/><g id="s"><use transform="matrix(0.05,0,0,0.05,0,0)" xlink:href="#ae"/><use transform="matrix(0.05,0,0,0.05,3.95,0)" xlink:href="#K"/><use transform="matrix(0.05,0,0,0.05,13.949999999999998,0)" xlink:href="#O"/><use transform="matrix(0.05,0,0,0.05,23.95,0)" xlink:href="#ar"/></g><path fill="#333" d="M135-143c-3-34-86-38-87 0 15 53 115 12 119 90S17 21 10-45l28-5c4 36 97 45 98 0-10-56-113-15-118-90-4-57 82-63 122-42 12 7 21 19 24 35" id="as"/><path fill="#333" d="M115-194c55 1 70 41 70 98S169 2 115 4C84 4 66-9 55-30l1 105H24l-1-265h31l2 30c10-21 28-34 59-34zm-8 174c40 0 45-34 45-75s-6-73-45-74c-42 0-51 32-51 76 0 43 10 73 51 73" id="at"/><path fill="#333" d="M33 0v-38h34V0H33" id="au"/><g id="t"><use transform="matrix(0.049382716049382706,0,0,0.049382716049382706,0,0)" xlink:href="#E"/><use transform="matrix(0.049382716049382706,0,0,0.049382716049382706,8.888888888888888,0)" xlink:href="#z"/><use transform="matrix(0.049382716049382706,0,0,0.049382716049382706,18.76543209876543,0)" xlink:href="#as"/><use transform="matrix(0.049382716049382706,0,0,0.049382716049382706,27.654320987654316,0)" xlink:href="#at"/><use transform="matrix(0.049382716049382706,0,0,0.049382716049382706,37.53086419753086,0)" xlink:href="#Y"/><use transform="matrix(0.049382716049382706,0,0,0.049382716049382706,47.407407407407405,0)" xlink:href="#au"/><use transform="matrix(0.049382716049382706,0,0,0.049382716049382706,52.34567901234568,0)" xlink:href="#X"/><use transform="matrix(0.049382716049382706,0,0,0.049382716049382706,56.24691358024691,0)" xlink:href="#x"/><use transform="matrix(0.049382716049382706,0,0,0.049382716049382706,66.12345679012346,0)" xlink:href="#B"/></g><path fill="#fff" d="M101-251c68 0 85 55 85 127S166 4 100 4C33 4 14-52 14-124c0-73 17-127 87-127zm-1 229c47 0 54-49 54-102s-4-102-53-102c-51 0-55 48-55 102 0 53 5 102 54 102" id="av"/><use transform="matrix(0.05,0,0,0.05,0,0)" xlink:href="#av" id="u"/><path fill="#fff" d="M210-169c-67 3-38 105-44 169h-31v-121c0-29-5-50-35-48C34-165 62-65 56 0H25l-1-190h30c1 10-1 24 2 32 10-44 99-50 107 0 11-21 27-35 58-36 85-2 47 119 55 194h-31v-121c0-29-5-49-35-48" id="aw"/><g id="v"><use transform="matrix(0.05,0,0,0.05,0,0)" xlink:href="#aw"/><use transform="matrix(0.05,0,0,0.05,14.950000000000001,0)" xlink:href="#R"/><use transform="matrix(0.05,0,0,0.05,24.950000000000003,0)" xlink:href="#ad"/><use transform="matrix(0.05,0,0,0.05,29.950000000000003,0)" xlink:href="#S"/><use transform="matrix(0.05,0,0,0.05,35.900000000000006,0)" xlink:href="#N"/><use transform="matrix(0.05,0,0,0.05,39.85000000000001,0)" xlink:href="#J"/><use transform="matrix(0.05,0,0,0.05,48.85000000000001,0)" xlink:href="#Q"/><use transform="matrix(0.05,0,0,0.05,57.85,0)" xlink:href="#P"/><use transform="matrix(0.05,0,0,0.05,63.80000000000001,0)" xlink:href="#aa"/><use transform="matrix(0.05,0,0,0.05,73.80000000000001,0)" xlink:href="#S"/><use transform="matrix(0.05,0,0,0.05,79.75000000000001,0)" xlink:href="#K"/><use transform="matrix(0.05,0,0,0.05,89.75000000000001,0)" xlink:href="#ab"/><use transform="matrix(0.05,0,0,0.05,98.75000000000001,0)" xlink:href="#ac"/></g></defs></g></svg>