<svg xmlns="http://www.w3.org/2000/svg" xmlns:xlink="http://www.w3.org/1999/xlink" xmlns:lucid="lucid" width="1062.5" height="470.03"><g transform="translate(-239 -211.16666666666669)" lucid:page-tab-id="0_0"><path d="M0 0h1870.87v1322.84H0z" fill="#fff"/><path d="M260 242.53a6 6 0 0 1 6-6h268a6 6 0 0 1 6 6V494a6 6 0 0 1-6 6H266a6 6 0 0 1-6-6z" stroke="#ae6188" stroke-width="2" fill="#fff"/><use xlink:href="#a" transform="matrix(1,0,0,1,265,241.53333333333325) translate(0 14.4)"/><use xlink:href="#b" transform="matrix(1,0,0,1,265,241.53333333333325) translate(61.75000000000001 14.4)"/><use xlink:href="#c" transform="matrix(1,0,0,1,265,241.53333333333325) translate(120.75 14.4)"/><use xlink:href="#d" transform="matrix(1,0,0,1,265,241.53333333333325) translate(0 36)"/><use xlink:href="#e" transform="matrix(1,0,0,1,265,241.53333333333325) translate(48.900000000000006 36)"/><path d="M280 306a6 6 0 0 1 6-6h148a6 6 0 0 1 6 6v68a6 6 0 0 1-6 6H286a6 6 0 0 1-6-6z" stroke="#fff" stroke-width="3" fill="#ae6188"/><path d="M300 326a6 6 0 0 1 6-6h148a6 6 0 0 1 6 6v68a6 6 0 0 1-6 6H306a6 6 0 0 1-6-6z" stroke="#fff" stroke-width="3" fill="#ae6188"/><path d="M320 346a6 6 0 0 1 6-6h148a6 6 0 0 1 6 6v68a6 6 0 0 1-6 6H326a6 6 0 0 1-6-6z" stroke="#fff" stroke-width="3" fill="#ae6188"/><use xlink:href="#f" transform="matrix(1,0,0,1,332,352) translate(0 14.4)"/><use xlink:href="#g" transform="matrix(1,0,0,1,332,352) translate(56.900000000000006 14.4)"/><use xlink:href="#h" transform="matrix(1,0,0,1,332,352) translate(0 36)"/><path d="M600 238.67a6 6 0 0 1 6-6h668a6 6 0 0 1 6 6V494a6 6 0 0 1-6 6H606a6 6 0 0 1-6-6z" stroke="#000" stroke-opacity="0" stroke-width="3" fill="#3788a5"/><use xlink:href="#i" transform="matrix(1,0,0,1,612,244.66666666666669) translate(0 14.4)"/><path d="M620 286a6 6 0 0 1 6-6h165.33a6 6 0 0 1 6 6v188a6 6 0 0 1-6 6H626a6 6 0 0 1-6-6z" stroke="#3788a5" stroke-width="2" fill="#b7e2f1"/><use xlink:href="#j" transform="matrix(1,0,0,1,625,285.00000000000006) translate(0 14.4)"/><use xlink:href="#k" transform="matrix(1,0,0,1,625,285.00000000000006) translate(61.75000000000001 14.4)"/><path d="M637.33 318.67a6 6 0 0 1 6-6h128a6 6 0 0 1 6 6v48a6 6 0 0 1-6 6h-128a6 6 0 0 1-6-6z" stroke="#2e2f27" stroke-width="3" fill="#fff"/><use xlink:href="#l" transform="matrix(1,0,0,1,642.3333333333335,317.6666666666667) translate(0 17.95555555555552)"/><path d="M637.33 398.67a6 6 0 0 1 6-6h128a6 6 0 0 1 6 6v51.86a6 6 0 0 1-6 6h-128a6 6 0 0 1-6-6z" stroke="#2e2f27" stroke-width="3" fill="#fff"/><use xlink:href="#m" transform="matrix(1,0,0,1,642.3333333333335,397.6666666666667) translate(0 17.95555555555552)"/><use xlink:href="#n" transform="matrix(1,0,0,1,642.3333333333335,397.6666666666667) translate(0 44.8888888888888)"/><path d="M860 286a6 6 0 0 1 6-6h388a6 6 0 0 1 6 6v180.67a6 6 0 0 1-6 6H866a6 6 0 0 1-6-6z" stroke="#3788a5" stroke-width="2" fill="#b7e2f1"/><use xlink:href="#o" transform="matrix(1,0,0,1,865,285) translate(0 14.4)"/><path d="M880 356a6 6 0 0 1 6-6h128a6 6 0 0 1 6 6v48a6 6 0 0 1-6 6H886a6 6 0 0 1-6-6z" stroke="#2e2f27" stroke-width="3" fill="#fff"/><use xlink:href="#p" transform="matrix(1,0,0,1,885,355.00000000000006) translate(0 17.95555555555552)"/><use xlink:href="#q" transform="matrix(1,0,0,1,885,355.00000000000006) translate(70.94938271604924 17.95555555555552)"/><path d="M1080 354.07a6 6 0 0 1 6-6h128a6 6 0 0 1 6 6v51.86a6 6 0 0 1-6 6h-128a6 6 0 0 1-6-6z" stroke="#2e2f27" stroke-width="3" fill="#fff"/><path d="M1100 366a6 6 0 0 1 6-6h128a6 6 0 0 1 6 6v51.87a6 6 0 0 1-6 6h-128a6 6 0 0 1-6-6z" stroke="#2e2f27" stroke-width="3" fill="#fff"/><use xlink:href="#r" transform="matrix(1,0,0,1,1105,365.00000000000006) translate(0 17.95555555555552)"/><path d="M1077.5 380H1040" stroke="#7b7d68" stroke-width="2" fill="none"/><path d="M1078.5 381h-1.03v-2h1.03z" stroke="#7b7d68" stroke-width=".05" fill="#7b7d68"/><path d="M1024.74 380l14.26-4.63v9.26z" stroke="#7b7d68" stroke-width="2" fill="#7b7d68"/><path d="M877.5 380h-60.66" stroke="#7b7d68" stroke-width="2" fill="none"/><path d="M878.5 381h-1.03v-2h1.03z" stroke="#7b7d68" stroke-width=".05" fill="#7b7d68"/><path d="M801.57 380l14.26-4.63v9.26z" stroke="#7b7d68" stroke-width="2" fill="#7b7d68"/><path d="M618 380H500" stroke="#7b7d68" stroke-width="2" fill="none"/><path d="M619 381h-1.03v-2H619z" stroke="#7b7d68" stroke-width=".05" fill="#7b7d68"/><path d="M484.74 380l14.26-4.63v9.26z" stroke="#7b7d68" stroke-width="2" fill="#7b7d68"/><path d="M707.33 459.03v62.24" stroke="#7b7d68" stroke-width="2" fill="none"/><path d="M708.33 459.06h-2v-1.03h2z" stroke="#7b7d68" stroke-width=".05" fill="#7b7d68"/><path d="M707.33 536.53l-4.63-14.26h9.27z" stroke="#7b7d68" stroke-width="2" fill="#7b7d68"/><path d="M634.94 624c-13.25 0-24-10.75-24-24 0-10.6 6.5-19.55 16.6-22.83-.6-31.17 39.4-37.17 55.4-25.17 8-18 48-12 48 6 24-6 48 18 32 48 16 24 0 54-32 42-8 15.6-40 15.6-48 0-16 12-48 6-48-24z" stroke="#7b7d68" stroke-width="3" fill="#fff"/><defs><path fill="#ae6188" d="M67-125c0 53 21 87 73 88 37 1 54-22 65-47l45 17C233-25 199 4 140 4 58 4 20-42 15-125 8-235 124-281 211-232c18 10 29 29 36 50l-46 12c-8-25-30-41-62-41-52 0-71 34-72 86" id="s"/><path fill="#ae6188" d="M110-194c64 0 96 36 96 99 0 64-35 99-97 99-61 0-95-36-95-99 0-62 34-99 96-99zm-1 164c35 0 45-28 45-65 0-40-10-65-43-65-34 0-45 26-45 65 0 36 10 65 43 65" id="t"/><path fill="#ae6188" d="M135-194c87-1 58 113 63 194h-50c-7-57 23-157-34-157-59 0-34 97-39 157H25l-1-190h47c2 12-1 28 3 38 12-26 28-41 61-42" id="u"/><path fill="#ae6188" d="M121-226c-27-7-43 5-38 36h38v33H83V0H34v-157H6v-33h28c-9-59 32-81 87-68v32" id="v"/><path fill="#ae6188" d="M25-224v-37h50v37H25zM25 0v-190h50V0H25" id="w"/><path fill="#ae6188" d="M195-6C206 82 75 100 31 46c-4-6-6-13-8-21l49-6c3 16 16 24 34 25 40 0 42-37 40-79-11 22-30 35-61 35-53 0-70-43-70-97 0-56 18-96 73-97 30 0 46 14 59 34l2-30h47zm-90-29c32 0 41-27 41-63 0-35-9-62-40-62-32 0-39 29-40 63 0 36 9 62 39 62" id="x"/><g id="a"><use transform="matrix(0.05,0,0,0.05,0,0)" xlink:href="#s"/><use transform="matrix(0.05,0,0,0.05,12.950000000000001,0)" xlink:href="#t"/><use transform="matrix(0.05,0,0,0.05,23.900000000000002,0)" xlink:href="#u"/><use transform="matrix(0.05,0,0,0.05,34.85,0)" xlink:href="#v"/><use transform="matrix(0.05,0,0,0.05,40.800000000000004,0)" xlink:href="#w"/><use transform="matrix(0.05,0,0,0.05,45.800000000000004,0)" xlink:href="#x"/></g><path fill="#ae6188" d="M137-138c1-29-70-34-71-4 15 46 118 7 119 86 1 83-164 76-172 9l43-7c4 19 20 25 44 25 33 8 57-30 24-41C81-84 22-81 20-136c-2-80 154-74 161-7" id="y"/><path fill="#ae6188" d="M185-48c-13 30-37 53-82 52C43 2 14-33 14-96s30-98 90-98c62 0 83 45 84 108H66c0 31 8 55 39 56 18 0 30-7 34-22zm-45-69c5-46-57-63-70-21-2 6-4 13-4 21h74" id="z"/><path fill="#ae6188" d="M135-150c-39-12-60 13-60 57V0H25l-1-190h47c2 13-1 29 3 40 6-28 27-53 61-41v41" id="A"/><path fill="#ae6188" d="M128 0H69L1-190h53L99-40l48-150h52" id="B"/><g id="b"><use transform="matrix(0.05,0,0,0.05,0,0)" xlink:href="#y"/><use transform="matrix(0.05,0,0,0.05,10,0)" xlink:href="#z"/><use transform="matrix(0.05,0,0,0.05,20,0)" xlink:href="#A"/><use transform="matrix(0.05,0,0,0.05,27,0)" xlink:href="#B"/><use transform="matrix(0.05,0,0,0.05,37,0)" xlink:href="#z"/><use transform="matrix(0.05,0,0,0.05,47,0)" xlink:href="#A"/></g><path fill="#ae6188" d="M190-63c-7 42-38 67-86 67-59 0-84-38-90-98-12-110 154-137 174-36l-49 2c-2-19-15-32-35-32-30 0-35 28-38 64-6 74 65 87 74 30" id="C"/><path fill="#ae6188" d="M25 0v-261h50V0H25" id="D"/><path fill="#ae6188" d="M85 4C-2 5 27-109 22-190h50c7 57-23 150 33 157 60-5 35-97 40-157h50l1 190h-47c-2-12 1-28-3-38-12 25-28 42-61 42" id="E"/><path fill="#ae6188" d="M115-3C79 11 28 4 28-45v-112H4v-33h27l15-45h31v45h36v33H77v99c-1 23 16 31 38 25v30" id="F"/><g id="c"><use transform="matrix(0.05,0,0,0.05,0,0)" xlink:href="#C"/><use transform="matrix(0.05,0,0,0.05,10,0)" xlink:href="#D"/><use transform="matrix(0.05,0,0,0.05,15,0)" xlink:href="#E"/><use transform="matrix(0.05,0,0,0.05,25.950000000000003,0)" xlink:href="#y"/><use transform="matrix(0.05,0,0,0.05,35.95,0)" xlink:href="#F"/><use transform="matrix(0.05,0,0,0.05,41.900000000000006,0)" xlink:href="#z"/><use transform="matrix(0.05,0,0,0.05,51.900000000000006,0)" xlink:href="#A"/></g><path fill="#ae6188" d="M67-93c0 74 22 123 53 168H70C40 30 18-18 18-93s22-123 52-168h50c-32 44-53 94-53 168" id="G"/><g id="d"><use transform="matrix(0.05,0,0,0.05,0,0)" xlink:href="#G"/><use transform="matrix(0.05,0,0,0.05,5.95,0)" xlink:href="#t"/><use transform="matrix(0.05,0,0,0.05,16.900000000000002,0)" xlink:href="#B"/><use transform="matrix(0.05,0,0,0.05,26.900000000000002,0)" xlink:href="#z"/><use transform="matrix(0.05,0,0,0.05,36.900000000000006,0)" xlink:href="#A"/></g><path fill="#ae6188" d="M210 0H11v-37l134-170H24v-41h178v36L68-41h142V0" id="H"/><path fill="#ae6188" d="M195 0l-88-114-31 24V0H24v-248h52v113l112-113h60L142-143 257 0h-62" id="I"/><path fill="#ae6188" d="M135-194c53 0 70 44 70 98 0 56-19 98-73 100-31 1-45-17-59-34 3 33 2 69 2 105H25l-1-265h48c2 10 0 23 3 31 11-24 29-35 60-35zM114-30c33 0 39-31 40-66 0-38-9-64-40-64-56 0-55 130 0 130" id="J"/><path fill="#ae6188" d="M102-93c0 74-22 123-52 168H0C30 29 54-18 53-93c0-74-22-123-53-168h50c30 45 52 94 52 168" id="K"/><g id="e"><use transform="matrix(0.05,0,0,0.05,0,0)" xlink:href="#H"/><use transform="matrix(0.05,0,0,0.05,10.950000000000001,0)" xlink:href="#t"/><use transform="matrix(0.05,0,0,0.05,21.900000000000002,0)" xlink:href="#t"/><use transform="matrix(0.05,0,0,0.05,32.85,0)" xlink:href="#I"/><use transform="matrix(0.05,0,0,0.05,45.800000000000004,0)" xlink:href="#z"/><use transform="matrix(0.05,0,0,0.05,55.800000000000004,0)" xlink:href="#z"/><use transform="matrix(0.05,0,0,0.05,65.80000000000001,0)" xlink:href="#J"/><use transform="matrix(0.05,0,0,0.05,76.75000000000001,0)" xlink:href="#z"/><use transform="matrix(0.05,0,0,0.05,86.75000000000001,0)" xlink:href="#A"/><use transform="matrix(0.05,0,0,0.05,93.75000000000001,0)" xlink:href="#K"/></g><path fill="#fff" d="M212-179c-10-28-35-45-73-45-59 0-87 40-87 99 0 60 29 101 89 101 43 0 62-24 78-52l27 14C228-24 195 4 139 4 59 4 22-46 18-125c-6-104 99-153 187-111 19 9 31 26 39 46" id="L"/><path fill="#fff" d="M100-194c62-1 85 37 85 99 1 63-27 99-86 99S16-35 15-95c0-66 28-99 85-99zM99-20c44 1 53-31 53-75 0-43-8-75-51-75s-53 32-53 75 10 74 51 75" id="M"/><path fill="#fff" d="M117-194c89-4 53 116 60 194h-32v-121c0-31-8-49-39-48C34-167 62-67 57 0H25l-1-190h30c1 10-1 24 2 32 11-22 29-35 61-36" id="N"/><path fill="#fff" d="M101-234c-31-9-42 10-38 44h38v23H63V0H32v-167H5v-23h27c-7-52 17-82 69-68v24" id="O"/><path fill="#fff" d="M24-231v-30h32v30H24zM24 0v-190h32V0H24" id="P"/><path fill="#fff" d="M177-190C167-65 218 103 67 71c-23-6-38-20-44-43l32-5c15 47 100 32 89-28v-30C133-14 115 1 83 1 29 1 15-40 15-95c0-56 16-97 71-98 29-1 48 16 59 35 1-10 0-23 2-32h30zM94-22c36 0 50-32 50-73 0-42-14-75-50-75-39 0-46 34-46 75s6 73 46 73" id="Q"/><g id="f"><use transform="matrix(0.05,0,0,0.05,0,0)" xlink:href="#L"/><use transform="matrix(0.05,0,0,0.05,12.950000000000001,0)" xlink:href="#M"/><use transform="matrix(0.05,0,0,0.05,22.950000000000003,0)" xlink:href="#N"/><use transform="matrix(0.05,0,0,0.05,32.95,0)" xlink:href="#O"/><use transform="matrix(0.05,0,0,0.05,37.95,0)" xlink:href="#P"/><use transform="matrix(0.05,0,0,0.05,41.900000000000006,0)" xlink:href="#Q"/></g><path fill="#fff" d="M135-143c-3-34-86-38-87 0 15 53 115 12 119 90S17 21 10-45l28-5c4 36 97 45 98 0-10-56-113-15-118-90-4-57 82-63 122-42 12 7 21 19 24 35" id="R"/><path fill="#fff" d="M100-194c63 0 86 42 84 106H49c0 40 14 67 53 68 26 1 43-12 49-29l28 8c-11 28-37 45-77 45C44 4 14-33 15-96c1-61 26-98 85-98zm52 81c6-60-76-77-97-28-3 7-6 17-6 28h103" id="S"/><path fill="#fff" d="M114-163C36-179 61-72 57 0H25l-1-190h30c1 12-1 29 2 39 6-27 23-49 58-41v29" id="T"/><path fill="#fff" d="M108 0H70L1-190h34L89-25l56-165h34" id="U"/><g id="g"><use transform="matrix(0.05,0,0,0.05,0,0)" xlink:href="#R"/><use transform="matrix(0.05,0,0,0.05,9,0)" xlink:href="#S"/><use transform="matrix(0.05,0,0,0.05,19,0)" xlink:href="#T"/><use transform="matrix(0.05,0,0,0.05,24.95,0)" xlink:href="#U"/><use transform="matrix(0.05,0,0,0.05,33.95,0)" xlink:href="#S"/><use transform="matrix(0.05,0,0,0.05,43.95,0)" xlink:href="#T"/></g><path fill="#fff" d="M85-194c31 0 48 13 60 33l-1-100h32l1 261h-30c-2-10 0-23-3-31C134-8 116 4 85 4 32 4 16-35 15-94c0-66 23-100 70-100zm9 24c-40 0-46 34-46 75 0 40 6 74 45 74 42 0 51-32 51-76 0-42-9-74-50-73" id="V"/><g id="h"><use transform="matrix(0.05,0,0,0.05,0,0)" xlink:href="#N"/><use transform="matrix(0.05,0,0,0.05,10,0)" xlink:href="#M"/><use transform="matrix(0.05,0,0,0.05,20,0)" xlink:href="#V"/><use transform="matrix(0.05,0,0,0.05,30,0)" xlink:href="#S"/></g><path fill="#fff" d="M190 0L58-211 59 0H30v-248h39L202-35l-2-213h31V0h-41" id="W"/><g id="i"><use transform="matrix(0.05,0,0,0.05,0,0)" xlink:href="#W"/><use transform="matrix(0.05,0,0,0.05,12.950000000000001,0)" xlink:href="#M"/><use transform="matrix(0.05,0,0,0.05,22.950000000000003,0)" xlink:href="#V"/><use transform="matrix(0.05,0,0,0.05,32.95,0)" xlink:href="#S"/></g><path fill="#3788a5" d="M67-125c0 53 21 87 73 88 37 1 54-22 65-47l45 17C233-25 199 4 140 4 58 4 20-42 15-125 8-235 124-281 211-232c18 10 29 29 36 50l-46 12c-8-25-30-41-62-41-52 0-71 34-72 86" id="X"/><path fill="#3788a5" d="M110-194c64 0 96 36 96 99 0 64-35 99-97 99-61 0-95-36-95-99 0-62 34-99 96-99zm-1 164c35 0 45-28 45-65 0-40-10-65-43-65-34 0-45 26-45 65 0 36 10 65 43 65" id="Y"/><path fill="#3788a5" d="M135-194c87-1 58 113 63 194h-50c-7-57 23-157-34-157-59 0-34 97-39 157H25l-1-190h47c2 12-1 28 3 38 12-26 28-41 61-42" id="Z"/><path fill="#3788a5" d="M121-226c-27-7-43 5-38 36h38v33H83V0H34v-157H6v-33h28c-9-59 32-81 87-68v32" id="aa"/><path fill="#3788a5" d="M25-224v-37h50v37H25zM25 0v-190h50V0H25" id="ab"/><path fill="#3788a5" d="M195-6C206 82 75 100 31 46c-4-6-6-13-8-21l49-6c3 16 16 24 34 25 40 0 42-37 40-79-11 22-30 35-61 35-53 0-70-43-70-97 0-56 18-96 73-97 30 0 46 14 59 34l2-30h47zm-90-29c32 0 41-27 41-63 0-35-9-62-40-62-32 0-39 29-40 63 0 36 9 62 39 62" id="ac"/><g id="j"><use transform="matrix(0.05,0,0,0.05,0,0)" xlink:href="#X"/><use transform="matrix(0.05,0,0,0.05,12.950000000000001,0)" xlink:href="#Y"/><use transform="matrix(0.05,0,0,0.05,23.900000000000002,0)" xlink:href="#Z"/><use transform="matrix(0.05,0,0,0.05,34.85,0)" xlink:href="#aa"/><use transform="matrix(0.05,0,0,0.05,40.800000000000004,0)" xlink:href="#ab"/><use transform="matrix(0.05,0,0,0.05,45.800000000000004,0)" xlink:href="#ac"/></g><path fill="#3788a5" d="M24-248c93 1 206-16 204 79-1 75-69 88-152 82V0H24v-248zm52 121c47 0 100 7 100-41 0-47-54-39-100-39v80" id="ad"/><path fill="#3788a5" d="M135-150c-39-12-60 13-60 57V0H25l-1-190h47c2 13-1 29 3 40 6-28 27-53 61-41v41" id="ae"/><path fill="#3788a5" d="M144 0l-44-69L55 0H2l70-98-66-92h53l41 62 40-62h54l-67 91 71 99h-54" id="af"/><path fill="#3788a5" d="M123 10C108 53 80 86 19 72V37c35 8 53-11 59-39L3-190h52l48 148c12-52 28-100 44-148h51" id="ag"/><g id="k"><use transform="matrix(0.05,0,0,0.05,0,0)" xlink:href="#ad"/><use transform="matrix(0.05,0,0,0.05,12,0)" xlink:href="#ae"/><use transform="matrix(0.05,0,0,0.05,19,0)" xlink:href="#Y"/><use transform="matrix(0.05,0,0,0.05,29.950000000000003,0)" xlink:href="#af"/><use transform="matrix(0.05,0,0,0.05,39.95,0)" xlink:href="#ag"/></g><path fill="#2e2f27" d="M212-179c-10-28-35-45-73-45-59 0-87 40-87 99 0 60 29 101 89 101 43 0 62-24 78-52l27 14C228-24 195 4 139 4 59 4 22-46 18-125c-6-104 99-153 187-111 19 9 31 26 39 46" id="ah"/><path fill="#2e2f27" d="M141-36C126-15 110 5 73 4 37 3 15-17 15-53c-1-64 63-63 125-63 3-35-9-54-41-54-24 1-41 7-42 31l-33-3c5-37 33-52 76-52 45 0 72 20 72 64v82c-1 20 7 32 28 27v20c-31 9-61-2-59-35zM48-53c0 20 12 33 32 33 41-3 63-29 60-74-43 2-92-5-92 41" id="ai"/><path fill="#2e2f27" d="M96-169c-40 0-48 33-48 73s9 75 48 75c24 0 41-14 43-38l32 2c-6 37-31 61-74 61-59 0-76-41-82-99-10-93 101-131 147-64 4 7 5 14 7 22l-32 3c-4-21-16-35-41-35" id="aj"/><path fill="#2e2f27" d="M106-169C34-169 62-67 57 0H25v-261h32l-1 103c12-21 28-36 61-36 89 0 53 116 60 194h-32v-121c2-32-8-49-39-48" id="ak"/><path fill="#2e2f27" d="M100-194c63 0 86 42 84 106H49c0 40 14 67 53 68 26 1 43-12 49-29l28 8c-11 28-37 45-77 45C44 4 14-33 15-96c1-61 26-98 85-98zm52 81c6-60-76-77-97-28-3 7-6 17-6 28h103" id="al"/><g id="l"><use transform="matrix(0.062345679012345556,0,0,0.062345679012345556,0,0)" xlink:href="#ah"/><use transform="matrix(0.062345679012345556,0,0,0.062345679012345556,16.1475308641975,0)" xlink:href="#ai"/><use transform="matrix(0.062345679012345556,0,0,0.062345679012345556,28.61666666666661,0)" xlink:href="#aj"/><use transform="matrix(0.062345679012345556,0,0,0.062345679012345556,39.83888888888881,0)" xlink:href="#ak"/><use transform="matrix(0.062345679012345556,0,0,0.062345679012345556,52.30802469135792,0)" xlink:href="#al"/></g><path fill="#2e2f27" d="M232-93c-1 65-40 97-104 97C67 4 28-28 28-90v-158h33c8 89-33 224 67 224 102 0 64-133 71-224h33v155" id="am"/><path fill="#2e2f27" d="M233-177c-1 41-23 64-60 70L243 0h-38l-65-103H63V0H30v-248c88 3 205-21 203 71zM63-129c60-2 137 13 137-47 0-61-80-42-137-45v92" id="an"/><path fill="#2e2f27" d="M30 0v-248h33v221h125V0H30" id="ao"/><g id="m"><use transform="matrix(0.062345679012345556,0,0,0.062345679012345556,0,0)" xlink:href="#am"/><use transform="matrix(0.062345679012345556,0,0,0.062345679012345556,16.1475308641975,0)" xlink:href="#an"/><use transform="matrix(0.062345679012345556,0,0,0.062345679012345556,32.295061728395,0)" xlink:href="#ao"/></g><path fill="#2e2f27" d="M85-194c31 0 48 13 60 33l-1-100h32l1 261h-30c-2-10 0-23-3-31C134-8 116 4 85 4 32 4 16-35 15-94c0-66 23-100 70-100zm9 24c-40 0-46 34-46 75 0 40 6 74 45 74 42 0 51-32 51-76 0-42-9-74-50-73" id="ap"/><path fill="#2e2f27" d="M100-194c62-1 85 37 85 99 1 63-27 99-86 99S16-35 15-95c0-66 28-99 85-99zM99-20c44 1 53-31 53-75 0-43-8-75-51-75s-53 32-53 75 10 74 51 75" id="aq"/><path fill="#2e2f27" d="M206 0h-36l-40-164L89 0H53L-1-190h32L70-26l43-164h34l41 164 42-164h31" id="ar"/><path fill="#2e2f27" d="M117-194c89-4 53 116 60 194h-32v-121c0-31-8-49-39-48C34-167 62-67 57 0H25l-1-190h30c1 10-1 24 2 32 11-22 29-35 61-36" id="as"/><path fill="#2e2f27" d="M24 0v-261h32V0H24" id="at"/><g id="n"><use transform="matrix(0.062345679012345556,0,0,0.062345679012345556,0,0)" xlink:href="#ap"/><use transform="matrix(0.062345679012345556,0,0,0.062345679012345556,12.469135802469111,0)" xlink:href="#aq"/><use transform="matrix(0.062345679012345556,0,0,0.062345679012345556,24.938271604938222,0)" xlink:href="#ar"/><use transform="matrix(0.062345679012345556,0,0,0.062345679012345556,41.08580246913572,0)" xlink:href="#as"/><use transform="matrix(0.062345679012345556,0,0,0.062345679012345556,53.55493827160483,0)" xlink:href="#at"/><use transform="matrix(0.062345679012345556,0,0,0.062345679012345556,58.48024691358013,0)" xlink:href="#aq"/><use transform="matrix(0.062345679012345556,0,0,0.062345679012345556,70.94938271604924,0)" xlink:href="#ai"/><use transform="matrix(0.062345679012345556,0,0,0.062345679012345556,83.41851851851835,0)" xlink:href="#ap"/></g><path fill="#3788a5" d="M190-63c-7 42-38 67-86 67-59 0-84-38-90-98-12-110 154-137 174-36l-49 2c-2-19-15-32-35-32-30 0-35 28-38 64-6 74 65 87 74 30" id="au"/><path fill="#3788a5" d="M185-48c-13 30-37 53-82 52C43 2 14-33 14-96s30-98 90-98c62 0 83 45 84 108H66c0 31 8 55 39 56 18 0 30-7 34-22zm-45-69c5-46-57-63-70-21-2 6-4 13-4 21h74" id="av"/><path fill="#3788a5" d="M137-138c1-29-70-34-71-4 15 46 118 7 119 86 1 83-164 76-172 9l43-7c4 19 20 25 44 25 33 8 57-30 24-41C81-84 22-81 20-136c-2-80 154-74 161-7" id="aw"/><g id="o"><use transform="matrix(0.05,0,0,0.05,0,0)" xlink:href="#ad"/><use transform="matrix(0.05,0,0,0.05,12,0)" xlink:href="#ae"/><use transform="matrix(0.05,0,0,0.05,19,0)" xlink:href="#Y"/><use transform="matrix(0.05,0,0,0.05,29.950000000000003,0)" xlink:href="#au"/><use transform="matrix(0.05,0,0,0.05,39.95,0)" xlink:href="#av"/><use transform="matrix(0.05,0,0,0.05,49.95,0)" xlink:href="#aw"/><use transform="matrix(0.05,0,0,0.05,59.95,0)" xlink:href="#aw"/></g><path fill="#2e2f27" d="M101-234c-31-9-42 10-38 44h38v23H63V0H32v-167H5v-23h27c-7-52 17-82 69-68v24" id="ax"/><path fill="#2e2f27" d="M24-231v-30h32v30H24zM24 0v-190h32V0H24" id="ay"/><path fill="#2e2f27" d="M177-190C167-65 218 103 67 71c-23-6-38-20-44-43l32-5c15 47 100 32 89-28v-30C133-14 115 1 83 1 29 1 15-40 15-95c0-56 16-97 71-98 29-1 48 16 59 35 1-10 0-23 2-32h30zM94-22c36 0 50-32 50-73 0-42-14-75-50-75-39 0-46 34-46 75s6 73 46 73" id="az"/><g id="p"><use transform="matrix(0.062345679012345556,0,0,0.062345679012345556,0,0)" xlink:href="#ah"/><use transform="matrix(0.062345679012345556,0,0,0.062345679012345556,16.1475308641975,0)" xlink:href="#aq"/><use transform="matrix(0.062345679012345556,0,0,0.062345679012345556,28.61666666666661,0)" xlink:href="#as"/><use transform="matrix(0.062345679012345556,0,0,0.062345679012345556,41.08580246913572,0)" xlink:href="#ax"/><use transform="matrix(0.062345679012345556,0,0,0.062345679012345556,47.32037037037028,0)" xlink:href="#ay"/><use transform="matrix(0.062345679012345556,0,0,0.062345679012345556,52.245679012345576,0)" xlink:href="#az"/></g><path fill="#2e2f27" d="M205 0l-28-72H64L36 0H1l101-248h38L239 0h-34zm-38-99l-47-123c-12 45-31 82-46 123h93" id="aA"/><path fill="#2e2f27" d="M30-248c87 1 191-15 191 75 0 78-77 80-158 76V0H30v-248zm33 125c57 0 124 11 124-50 0-59-68-47-124-48v98" id="aB"/><path fill="#2e2f27" d="M33 0v-248h34V0H33" id="aC"/><g id="q"><use transform="matrix(0.062345679012345556,0,0,0.062345679012345556,0,0)" xlink:href="#aA"/><use transform="matrix(0.062345679012345556,0,0,0.062345679012345556,14.962962962962933,0)" xlink:href="#aB"/><use transform="matrix(0.062345679012345556,0,0,0.062345679012345556,29.925925925925867,0)" xlink:href="#aC"/></g><path fill="#2e2f27" d="M210-169c-67 3-38 105-44 169h-31v-121c0-29-5-50-35-48C34-165 62-65 56 0H25l-1-190h30c1 10-1 24 2 32 10-44 99-50 107 0 11-21 27-35 58-36 85-2 47 119 55 194h-31v-121c0-29-5-49-35-48" id="aD"/><path fill="#2e2f27" d="M115-194c55 1 70 41 70 98S169 2 115 4C84 4 66-9 55-30l1 105H24l-1-265h31l2 30c10-21 28-34 59-34zm-8 174c40 0 45-34 45-75s-6-73-45-74c-42 0-51 32-51 76 0 43 10 73 51 73" id="aE"/><path fill="#2e2f27" d="M59-47c-2 24 18 29 38 22v24C64 9 27 4 27-40v-127H5v-23h24l9-43h21v43h35v23H59v120" id="aF"/><g id="r"><use transform="matrix(0.062345679012345556,0,0,0.062345679012345556,0,0)" xlink:href="#ah"/><use transform="matrix(0.062345679012345556,0,0,0.062345679012345556,16.1475308641975,0)" xlink:href="#aq"/><use transform="matrix(0.062345679012345556,0,0,0.062345679012345556,28.61666666666661,0)" xlink:href="#aD"/><use transform="matrix(0.062345679012345556,0,0,0.062345679012345556,47.25802469135793,0)" xlink:href="#aE"/><use transform="matrix(0.062345679012345556,0,0,0.062345679012345556,59.72716049382704,0)" xlink:href="#aq"/><use transform="matrix(0.062345679012345556,0,0,0.062345679012345556,72.19629629629615,0)" xlink:href="#as"/><use transform="matrix(0.062345679012345556,0,0,0.062345679012345556,84.66543209876527,0)" xlink:href="#al"/><use transform="matrix(0.062345679012345556,0,0,0.062345679012345556,97.13456790123438,0)" xlink:href="#as"/><use transform="matrix(0.062345679012345556,0,0,0.062345679012345556,109.60370370370349,0)" xlink:href="#aF"/></g></defs></g></svg>