<svg xmlns="http://www.w3.org/2000/svg" xmlns:xlink="http://www.w3.org/1999/xlink" xmlns:lucid="lucid" width="1563" height="1282.5"><g transform="translate(-138.5 21)" lucid:page-tab-id="0_0"><path d="M0 0h1870.87v1322.84H0z" fill="#fff"/><path d="M700 6a6 6 0 0 1 6-6h568a6 6 0 0 1 6 6v188a6 6 0 0 1-6 6H706a6 6 0 0 1-6-6z" stroke="#3788a5" stroke-width="2" fill="#fff"/><use xlink:href="#a" transform="matrix(1,0,0,1,705,5) translate(0 14.4)"/><use xlink:href="#b" transform="matrix(1,0,0,1,705,5) translate(75.85000000000001 14.4)"/><path d="M740 46a6 6 0 0 1 6-6h329.43a6 6 0 0 1 6 6v108a6 6 0 0 1-6 6H746a6 6 0 0 1-6-6z" stroke="#000" stroke-opacity="0" stroke-width="3" fill="#93cee1"/><path d="M160 706a6 6 0 0 1 6-6h1508a6 6 0 0 1 6 6v528a6 6 0 0 1-6 6H166a6 6 0 0 1-6-6z" fill="#93cee1"/><path d="M195.57 700h29.57m14.78 0h29.57m14.77 0h29.57m14.8 0h29.56m14.78 0h29.57m14.78 0h29.57m14.8 0h29.56m14.78 0h29.57m14.8 0h29.56m14.78 0h29.57m14.8 0h29.57m14.78 0h29.57m14.78 0h29.57m14.8 0h29.56m14.78 0h29.58m14.78 0h29.57m14.8 0h29.55m14.8 0h29.56m14.78 0h29.57m14.78 0h29.56m14.8 0h29.56m14.78 0h29.57m14.78 0h29.57m14.8 0h29.56m14.78 0h29.57m14.8 0h29.56m14.78 0h29.57m14.8 0h29.57m14.78 0h29.57m14.78 0h29.57m14.8 0h29.55m14.8 0h29.56m14.78 0h29.57m14.8 0H1674l.94.07.9.22.88.35.8.5.72.6.6.72.5.8.37.88.23.9.07.95v14.67m0 14.66v29.34m0 14.66v29.34m0 14.66v29.34m0 14.66v29.34m0 14.66v29.34m0 14.66v29.34m0 14.66v29.34m0 14.66v29.34m0 14.66v29.34m0 14.66v29.34m0 14.66v29.34m0 14.66V1234l-.07.94-.22.9-.35.88-.5.8-.6.72-.72.6-.8.5-.88.37-.9.23-.95.07h-14.78m-14.8 0h-29.56m-14.78 0h-29.57m-14.78 0h-29.56m-14.8 0h-29.56m-14.78 0h-29.57m-14.78 0h-29.57m-14.8 0h-29.56m-14.78 0h-29.57m-14.8 0h-29.56m-14.78 0h-29.57m-14.8 0h-29.57m-14.78 0h-29.57m-14.78 0h-29.57m-14.8 0h-29.55m-14.8 0h-29.56m-14.78 0h-29.57m-14.8 0h-29.55m-14.8 0h-29.56m-14.78 0H816.5m-14.77 0h-29.57m-14.8 0H727.8m-14.78 0h-29.57m-14.78 0H639.1m-14.8 0h-29.55m-14.8 0H550.4m-14.8 0h-29.56m-14.8 0H461.7m-14.8 0h-29.57m-14.78 0h-29.57m-14.78 0h-29.57m-14.8 0h-29.56m-14.78 0H239.9m-14.78 0h-29.57m-14.8 0H166l-.94-.07-.9-.22-.88-.35-.8-.5-.72-.6-.6-.72-.5-.8-.37-.88-.23-.9-.07-.95v-14.67m0-14.66v-29.34m0-14.66v-29.34m0-14.66v-29.34m0-14.66v-29.34m0-14.66v-29.34m0-14.66v-29.34m0-14.66v-29.34m0-14.66v-29.34m0-14.66v-29.34m0-14.66v-29.34m0-14.66v-29.34m0-14.66V706l.07-.94.22-.9.35-.88.5-.8.6-.72.72-.6.8-.5.88-.37.9-.23.95-.07h14.78" stroke="#3788a5" stroke-width="3" fill="none"/><use xlink:href="#c" transform="matrix(1,0,0,1,172,712) translate(1313.5 14.4)"/><use xlink:href="#d" transform="matrix(1,0,0,1,172,712) translate(1389.3 14.4)"/><path d="M160 326a6 6 0 0 1 6-6h1508a6 6 0 0 1 6 6v328a6 6 0 0 1-6 6H166a6 6 0 0 1-6-6z" fill="#93cee1"/><path d="M195.57 320h29.57m14.78 0h29.57m14.77 0h29.57m14.8 0h29.56m14.78 0h29.57m14.78 0h29.57m14.8 0h29.56m14.78 0h29.57m14.8 0h29.56m14.78 0h29.57m14.8 0h29.57m14.78 0h29.57m14.78 0h29.57m14.8 0h29.56m14.78 0h29.58m14.78 0h29.57m14.8 0h29.55m14.8 0h29.56m14.78 0h29.57m14.78 0h29.56m14.8 0h29.56m14.78 0h29.57m14.78 0h29.57m14.8 0h29.56m14.78 0h29.57m14.8 0h29.56m14.78 0h29.57m14.8 0h29.57m14.78 0h29.57m14.78 0h29.57m14.8 0h29.55m14.8 0h29.56m14.78 0h29.57m14.8 0H1674l.94.07.9.22.88.35.8.5.72.6.6.72.5.8.37.88.23.9.07.95v15.62m0 15.62v31.24m0 15.62v31.23m0 15.62v31.24m0 15.6v31.25m0 15.62v31.24m0 15.62v31.24m0 15.62V654l-.07.94-.22.9-.35.88-.5.8-.6.72-.72.6-.8.5-.88.37-.9.23-.95.07h-14.78m-14.8 0h-29.56m-14.78 0h-29.57m-14.78 0h-29.56m-14.8 0h-29.56m-14.78 0h-29.57m-14.78 0h-29.57m-14.8 0h-29.56m-14.78 0h-29.57m-14.8 0h-29.56m-14.78 0h-29.57m-14.8 0h-29.57m-14.78 0h-29.57m-14.78 0h-29.57m-14.8 0h-29.55m-14.8 0h-29.56m-14.78 0h-29.57m-14.8 0h-29.55m-14.8 0h-29.56m-14.78 0H816.5m-14.77 0h-29.57m-14.8 0H727.8m-14.78 0h-29.57m-14.78 0H639.1m-14.8 0h-29.55m-14.8 0H550.4m-14.8 0h-29.56m-14.8 0H461.7m-14.8 0h-29.57m-14.78 0h-29.57m-14.78 0h-29.57m-14.8 0h-29.56m-14.78 0H239.9m-14.78 0h-29.57m-14.8 0H166l-.94-.07-.9-.22-.88-.35-.8-.5-.72-.6-.6-.72-.5-.8-.37-.88-.23-.9-.07-.95v-15.62m0-15.62v-31.24m0-15.62v-31.23m0-15.62V497.8m0-15.6v-31.25m0-15.62V404.1m0-15.62v-31.24m0-15.62V326l.07-.94.22-.9.35-.88.5-.8.6-.72.72-.6.8-.5.88-.37.9-.23.95-.07h14.78" stroke="#3788a5" stroke-width="3" fill="none"/><use xlink:href="#e" transform="matrix(1,0,0,1,172,332) translate(1345.35 14.4)"/><use xlink:href="#f" transform="matrix(1,0,0,1,172,332) translate(1421.1499999999999 14.4)"/><path d="M980 366a6 6 0 0 1 6-6h368a6 6 0 0 1 6 6v268a6 6 0 0 1-6 6H986a6 6 0 0 1-6-6z" stroke="#3788a5" stroke-width="2" fill="#fff"/><use xlink:href="#g" transform="matrix(1,0,0,1,985,365) translate(0 14.4)"/><path d="M580 366a6 6 0 0 1 6-6h368a6 6 0 0 1 6 6v268a6 6 0 0 1-6 6H586a6 6 0 0 1-6-6z" stroke="#3788a5" stroke-width="2" fill="#fff"/><use xlink:href="#h" transform="matrix(1,0,0,1,585,365) translate(0 14.4)"/><path d="M1160 386a6 6 0 0 1 6-6h168a6 6 0 0 1 6 6v228a6 6 0 0 1-6 6h-168a6 6 0 0 1-6-6z" stroke="#000" stroke-opacity="0" stroke-width="3" fill="#93cee1"/><use xlink:href="#i" transform="matrix(1,0,0,1,1172,392) translate(0 14.4)"/><use xlink:href="#j" transform="matrix(1,0,0,1,1172,392) translate(70.85000000000001 14.4)"/><path d="M760 386a6 6 0 0 1 6-6h168a6 6 0 0 1 6 6v228a6 6 0 0 1-6 6H766a6 6 0 0 1-6-6z" stroke="#000" stroke-opacity="0" stroke-width="3" fill="#93cee1"/><use xlink:href="#i" transform="matrix(1,0,0,1,772,392) translate(0 14.4)"/><use xlink:href="#j" transform="matrix(1,0,0,1,772,392) translate(70.85000000000001 14.4)"/><path d="M180 366a6 6 0 0 1 6-6h368a6 6 0 0 1 6 6v268a6 6 0 0 1-6 6H186a6 6 0 0 1-6-6z" stroke="#3788a5" stroke-width="2" fill="#fff"/><use xlink:href="#k" transform="matrix(1,0,0,1,185,365) translate(0 14.4)"/><path d="M1100 726a6 6 0 0 1 6-6h129.43a6 6 0 0 1 6 6v68a6 6 0 0 1-6 6H1106a6 6 0 0 1-6-6z" stroke="#000" stroke-opacity="0" stroke-width="3" fill="#3788a5"/><use xlink:href="#l" transform="matrix(1,0,0,1,1112,732) translate(18.049999999999997 21.4)"/><use xlink:href="#m" transform="matrix(1,0,0,1,1112,732) translate(18.549999999999997 43)"/><path d="M1020 866a6 6 0 0 1 6-6h129.43a6 6 0 0 1 6 6v68a6 6 0 0 1-6 6H1026a6 6 0 0 1-6-6z" stroke="#000" stroke-opacity="0" stroke-width="3" fill="#3788a5"/><use xlink:href="#n" transform="matrix(1,0,0,1,1032,872) translate(18.049999999999997 31.9)"/><path d="M1180 866a6 6 0 0 1 6-6h129.43a6 6 0 0 1 6 6v68a6 6 0 0 1-6 6H1186a6 6 0 0 1-6-6z" stroke="#000" stroke-opacity="0" stroke-width="3" fill="#3788a5"/><use xlink:href="#o" transform="matrix(1,0,0,1,1192,872) translate(23.049999999999997 31.9)"/><path d="M1100 1006a6 6 0 0 1 6-6h129.43a6 6 0 0 1 6 6v68a6 6 0 0 1-6 6H1106a6 6 0 0 1-6-6z" stroke="#000" stroke-opacity="0" stroke-width="3" fill="#3788a5"/><use xlink:href="#l" transform="matrix(1,0,0,1,1112,1012) translate(18.049999999999997 21.4)"/><use xlink:href="#m" transform="matrix(1,0,0,1,1112,1012) translate(18.549999999999997 43)"/><path d="M1100 1146a6 6 0 0 1 6-6h129.43a6 6 0 0 1 6 6v68a6 6 0 0 1-6 6H1106a6 6 0 0 1-6-6z" stroke="#000" stroke-opacity="0" stroke-width="3" fill="#3788a5"/><use xlink:href="#l" transform="matrix(1,0,0,1,1112,1152) translate(18.049999999999997 21.4)"/><use xlink:href="#m" transform="matrix(1,0,0,1,1112,1152) translate(18.549999999999997 43)"/><path d="M700 726a6 6 0 0 1 6-6h128a6 6 0 0 1 6 6v68a6 6 0 0 1-6 6H706a6 6 0 0 1-6-6z" stroke="#000" stroke-opacity="0" stroke-width="3" fill="#3788a5"/><use xlink:href="#p" transform="matrix(1,0,0,1,712,732) translate(21.549999999999997 31.9)"/><path d="M620 866a6 6 0 0 1 6-6h128a6 6 0 0 1 6 6v68a6 6 0 0 1-6 6H626a6 6 0 0 1-6-6z" stroke="#000" stroke-opacity="0" stroke-width="3" fill="#3788a5"/><use xlink:href="#q" transform="matrix(1,0,0,1,632,872) translate(33.525 31.9)"/><path d="M780 866a6 6 0 0 1 6-6h129.43a6 6 0 0 1 6 6v68a6 6 0 0 1-6 6H786a6 6 0 0 1-6-6z" stroke="#000" stroke-opacity="0" stroke-width="3" fill="#3788a5"/><use xlink:href="#r" transform="matrix(1,0,0,1,792,872) translate(33.55 31.9)"/><path d="M700 1006a6 6 0 0 1 6-6h129.43a6 6 0 0 1 6 6v68a6 6 0 0 1-6 6H706a6 6 0 0 1-6-6z" stroke="#000" stroke-opacity="0" stroke-width="3" fill="#3788a5"/><use xlink:href="#p" transform="matrix(1,0,0,1,712,1012) translate(22.549999999999997 31.9)"/><path d="M700 1146a6 6 0 0 1 6-6h129.43a6 6 0 0 1 6 6v68a6 6 0 0 1-6 6H706a6 6 0 0 1-6-6z" stroke="#000" stroke-opacity="0" stroke-width="3" fill="#3788a5"/><use xlink:href="#p" transform="matrix(1,0,0,1,712,1152) translate(22.549999999999997 31.9)"/><path d="M300 726a6 6 0 0 1 6-6h128a6 6 0 0 1 6 6v68a6 6 0 0 1-6 6H306a6 6 0 0 1-6-6z" stroke="#000" stroke-opacity="0" stroke-width="3" fill="#3788a5"/><use xlink:href="#m" transform="matrix(1,0,0,1,312,732) translate(17.549999999999997 31.9)"/><path d="M220 866a6 6 0 0 1 6-6h128a6 6 0 0 1 6 6v68a6 6 0 0 1-6 6H226a6 6 0 0 1-6-6z" stroke="#000" stroke-opacity="0" stroke-width="3" fill="#3788a5"/><use xlink:href="#s" transform="matrix(1,0,0,1,232,872) translate(24.525 31.9)"/><path d="M380 866a6 6 0 0 1 6-6h128a6 6 0 0 1 6 6v68a6 6 0 0 1-6 6H386a6 6 0 0 1-6-6z" stroke="#000" stroke-opacity="0" stroke-width="3" fill="#3788a5"/><use xlink:href="#t" transform="matrix(1,0,0,1,392,872) translate(17.525 31.9)"/><path d="M300 1006a6 6 0 0 1 6-6h128a6 6 0 0 1 6 6v68a6 6 0 0 1-6 6H306a6 6 0 0 1-6-6z" stroke="#000" stroke-opacity="0" stroke-width="3" fill="#3788a5"/><use xlink:href="#m" transform="matrix(1,0,0,1,312,1012) translate(17.549999999999997 31.9)"/><path d="M300 1146a6 6 0 0 1 6-6h128a6 6 0 0 1 6 6v68a6 6 0 0 1-6 6H306a6 6 0 0 1-6-6z" stroke="#000" stroke-opacity="0" stroke-width="3" fill="#3788a5"/><use xlink:href="#m" transform="matrix(1,0,0,1,312,1152) translate(17.549999999999997 31.9)"/><path d="M198.57 466a6 6 0 0 1 6-6H334a6 6 0 0 1 6 6v68a6 6 0 0 1-6 6H204.57a6 6 0 0 1-6-6z" stroke="#000" stroke-opacity="0" stroke-width="3" fill="#3788a5"/><use xlink:href="#s" transform="matrix(1,0,0,1,210.57142857142856,472) translate(25.525 31.9)"/><path d="M360 386a6 6 0 0 1 6-6h168a6 6 0 0 1 6 6v228a6 6 0 0 1-6 6H366a6 6 0 0 1-6-6z" stroke="#000" stroke-opacity="0" stroke-width="3" fill="#93cee1"/><use xlink:href="#i" transform="matrix(1,0,0,1,372,392) translate(0 14.4)"/><use xlink:href="#j" transform="matrix(1,0,0,1,372,392) translate(70.85000000000001 14.4)"/><path d="M380 526a6 6 0 0 1 6-6h129.43a6 6 0 0 1 6 6v68a6 6 0 0 1-6 6H386a6 6 0 0 1-6-6z" stroke="#000" stroke-opacity="0" stroke-width="3" fill="#3788a5"/><use xlink:href="#t" transform="matrix(1,0,0,1,392,532) translate(18.525 31.9)"/><path d="M380 426a6 6 0 0 1 6-6h129.43a6 6 0 0 1 6 6v68a6 6 0 0 1-6 6H386a6 6 0 0 1-6-6z" stroke="#000" stroke-opacity="0" stroke-width="3" fill="#3788a5"/><use xlink:href="#u" transform="matrix(1,0,0,1,392,432) translate(21.574999999999996 31.9)"/><path d="M598.57 466a6 6 0 0 1 6-6H734a6 6 0 0 1 6 6v68a6 6 0 0 1-6 6H604.57a6 6 0 0 1-6-6z" stroke="#000" stroke-opacity="0" stroke-width="3" fill="#3788a5"/><use xlink:href="#q" transform="matrix(1,0,0,1,610.5714285714286,472) translate(34.525 31.9)"/><path d="M780 526a6 6 0 0 1 6-6h129.43a6 6 0 0 1 6 6v68a6 6 0 0 1-6 6H786a6 6 0 0 1-6-6z" stroke="#000" stroke-opacity="0" stroke-width="3" fill="#3788a5"/><use xlink:href="#r" transform="matrix(1,0,0,1,792,532) translate(33.55 31.9)"/><path d="M780 426a6 6 0 0 1 6-6h129.43a6 6 0 0 1 6 6v68a6 6 0 0 1-6 6H786a6 6 0 0 1-6-6z" stroke="#000" stroke-opacity="0" stroke-width="3" fill="#3788a5"/><use xlink:href="#u" transform="matrix(1,0,0,1,792,432) translate(21.574999999999996 31.9)"/><path d="M1000 466a6 6 0 0 1 6-6h129.43a6 6 0 0 1 6 6v68a6 6 0 0 1-6 6H1006a6 6 0 0 1-6-6z" stroke="#000" stroke-opacity="0" stroke-width="3" fill="#3788a5"/><use xlink:href="#n" transform="matrix(1,0,0,1,1012.0000000000001,472) translate(18.049999999999997 31.9)"/><path d="M1180 466a6 6 0 0 1 6-6h129.43a6 6 0 0 1 6 6v68a6 6 0 0 1-6 6H1186a6 6 0 0 1-6-6z" stroke="#000" stroke-opacity="0" stroke-width="3" fill="#3788a5"/><use xlink:href="#o" transform="matrix(1,0,0,1,1192,472) translate(23.049999999999997 31.9)"/><path d="M1380 366a6 6 0 0 1 6-6h268a6 6 0 0 1 6 6v268a6 6 0 0 1-6 6h-268a6 6 0 0 1-6-6z" stroke="#3788a5" stroke-width="2" fill="#fff"/><use xlink:href="#v" transform="matrix(1,0,0,1,1385,365) translate(0 14.4)"/><use xlink:href="#w" transform="matrix(1,0,0,1,1385,365) translate(71.80000000000001 14.4)"/><path d="M1420 466a6 6 0 0 1 6-6h129.43a6 6 0 0 1 6 6v68a6 6 0 0 1-6 6H1426a6 6 0 0 1-6-6z" stroke="#000" stroke-opacity="0" stroke-width="3" fill="#3788a5"/><use xlink:href="#x" transform="matrix(1,0,0,1,1432,472) translate(3.124999999999993 21.4)"/><use xlink:href="#y" transform="matrix(1,0,0,1,1432,472) translate(75.92500000000001 21.4)"/><use xlink:href="#z" transform="matrix(1,0,0,1,1432,472) translate(16.5 43)"/><use xlink:href="#A" transform="matrix(1,0,0,1,1432,472) translate(51.5 43)"/><path d="M760 66a6 6 0 0 1 6-6h129.43a6 6 0 0 1 6 6v68a6 6 0 0 1-6 6H766a6 6 0 0 1-6-6z" stroke="#000" stroke-opacity="0" stroke-width="3" fill="#3788a5"/><use xlink:href="#s" transform="matrix(1,0,0,1,772,72) translate(25.525 31.9)"/><path d="M920 66a6 6 0 0 1 6-6h129.43a6 6 0 0 1 6 6v68a6 6 0 0 1-6 6H926a6 6 0 0 1-6-6z" stroke="#000" stroke-opacity="0" stroke-width="3" fill="#3788a5"/><use xlink:href="#B" transform="matrix(1,0,0,1,932,72) translate(18.525 21.4)"/><use xlink:href="#C" transform="matrix(1,0,0,1,932,72) translate(27.574999999999996 43)"/><path d="M1100 66a6 6 0 0 1 6-6h129.43a6 6 0 0 1 6 6v68a6 6 0 0 1-6 6H1106a6 6 0 0 1-6-6z" stroke="#000" stroke-opacity="0" stroke-width="3" fill="#3788a5"/><use xlink:href="#D" transform="matrix(1,0,0,1,1112,72) translate(19.599999999999994 21.4)"/><use xlink:href="#E" transform="matrix(1,0,0,1,1112,72) translate(41.5 43)"/><path d="M325.9 1081v40.5" stroke="#7b7d68" stroke-width="2" fill="none"/><path d="M326.9 1081.03h-2V1080h2z" stroke="#7b7d68" stroke-width=".05" fill="#7b7d68"/><path d="M325.9 1136.76l-4.65-14.26h9.27z" stroke="#7b7d68" stroke-width="2" fill="#7b7d68"/><path d="M325.9 941v40.5M325.9 941.03V940" stroke="#7b7d68" stroke-width="2" fill="none"/><path d="M325.9 996.76l-4.65-14.26h9.27z" stroke="#7b7d68" stroke-width="2" fill="#7b7d68"/><path d="M720 941v40.5M720 941.03V940" stroke="#7b7d68" stroke-width="2" fill="none"/><path d="M720 996.76l-4.63-14.26h9.26z" stroke="#7b7d68" stroke-width="2" fill="#7b7d68"/><path d="M720 1081v40.5M720 1081.03V1080" stroke="#7b7d68" stroke-width="2" fill="none"/><path d="M720 1136.76l-4.63-14.26h9.26z" stroke="#7b7d68" stroke-width="2" fill="#7b7d68"/><path d="M1120 1081v40.5M1120 1081.03V1080" stroke="#7b7d68" stroke-width="2" fill="none"/><path d="M1120 1136.76l-4.63-14.26h9.27z" stroke="#7b7d68" stroke-width="2" fill="#7b7d68"/><path d="M1120 941v40.5M1120 941.03V940" stroke="#7b7d68" stroke-width="2" fill="none"/><path d="M1120 996.76l-4.63-14.26h9.27z" stroke="#7b7d68" stroke-width="2" fill="#7b7d68"/><path d="M1120 801v40.5M1120 801.03V800" stroke="#7b7d68" stroke-width="2" fill="none"/><path d="M1120 856.76l-4.63-14.26h9.27z" stroke="#7b7d68" stroke-width="2" fill="#7b7d68"/><path d="M1220 818.5V859" stroke="#7b7d68" stroke-width="2" fill="none"/><path d="M1220 803.24l4.63 14.26h-9.27z" stroke="#7b7d68" stroke-width="2" fill="#7b7d68"/><path d="M1220 858.97V860M1220 958.5V999" stroke="#7b7d68" stroke-width="2" fill="none"/><path d="M1220 943.24l4.63 14.26h-9.27z" stroke="#7b7d68" stroke-width="2" fill="#7b7d68"/><path d="M1220 998.97v1.03M1220 1098.5v40.5" stroke="#7b7d68" stroke-width="2" fill="none"/><path d="M1220 1083.24l4.63 14.26h-9.27z" stroke="#7b7d68" stroke-width="2" fill="#7b7d68"/><path d="M1220 1138.97v1.03M420 1098.5v40.5" stroke="#7b7d68" stroke-width="2" fill="none"/><path d="M420 1083.24l4.63 14.26h-9.26z" stroke="#7b7d68" stroke-width="2" fill="#7b7d68"/><path d="M420 1138.97v1.03M820 958.5V999" stroke="#7b7d68" stroke-width="2" fill="none"/><path d="M820 943.24l4.63 14.26h-9.26z" stroke="#7b7d68" stroke-width="2" fill="#7b7d68"/><path d="M820 998.97v1.03M820 818.5V859" stroke="#7b7d68" stroke-width="2" fill="none"/><path d="M820 803.24l4.63 14.26h-9.26z" stroke="#7b7d68" stroke-width="2" fill="#7b7d68"/><path d="M820 858.97V860M720 801v40.5M720 801.03V800" stroke="#7b7d68" stroke-width="2" fill="none"/><path d="M720 856.76l-4.63-14.26h9.26z" stroke="#7b7d68" stroke-width="2" fill="#7b7d68"/><path d="M325.9 801v40.5M325.9 801.03V800" stroke="#7b7d68" stroke-width="2" fill="none"/><path d="M325.9 856.76l-4.65-14.26h9.27z" stroke="#7b7d68" stroke-width="2" fill="#7b7d68"/><path d="M420 958.5V999" stroke="#7b7d68" stroke-width="2" fill="none"/><path d="M420 943.24l4.63 14.26h-9.26z" stroke="#7b7d68" stroke-width="2" fill="#7b7d68"/><path d="M420 998.97v1.03M420 818.5V859" stroke="#7b7d68" stroke-width="2" fill="none"/><path d="M420 803.24l4.63 14.26h-9.26z" stroke="#7b7d68" stroke-width="2" fill="#7b7d68"/><path d="M420 858.97V860M269.3 541v133a6 6 0 0 0 6 6H316a6 6 0 0 1 6 6v15.5" stroke="#7b7d68" stroke-width="2" fill="none"/><path d="M270.3 541.03h-2V540h2z" stroke="#7b7d68" stroke-width=".05" fill="#7b7d68"/><path d="M322 716.76l-4.65-14.26h9.27z" stroke="#7b7d68" stroke-width="2" fill="#7b7d68"/><path d="M450 638.5V674a6 6 0 0 1-6 6h-18a6 6 0 0 0-6 6v33" stroke="#7b7d68" stroke-width="2" fill="none"/><path d="M450 623.24l4.63 14.26h-9.26z" stroke="#7b7d68" stroke-width="2" fill="#7b7d68"/><path d="M420 718.97V720M850 638.5V674a6 6 0 0 1-6 6h-16.43a6 6 0 0 0-6 6v33" stroke="#7b7d68" stroke-width="2" fill="none"/><path d="M850 623.24l4.63 14.26h-9.26z" stroke="#7b7d68" stroke-width="2" fill="#7b7d68"/><path d="M822.57 720h-2v-1.03h2z" stroke="#7b7d68" stroke-width=".05" fill="#7b7d68"/><path d="M669.3 541v133a6 6 0 0 0 6 6h40.64a6 6 0 0 1 6 6v15.5" stroke="#7b7d68" stroke-width="2" fill="none"/><path d="M670.3 541.03h-2V540h2z" stroke="#7b7d68" stroke-width=".05" fill="#7b7d68"/><path d="M721.94 716.76l-4.63-14.26h9.28z" stroke="#7b7d68" stroke-width="2" fill="#7b7d68"/><path d="M1070.7 541v133a6 6 0 0 0 6 6h37.75a6 6 0 0 1 6 6v15.5" stroke="#7b7d68" stroke-width="2" fill="none"/><path d="M1071.7 541.03h-2V540h2z" stroke="#7b7d68" stroke-width=".05" fill="#7b7d68"/><path d="M1120.45 716.76l-4.63-14.26h9.27z" stroke="#7b7d68" stroke-width="2" fill="#7b7d68"/><path d="M1250 638.5V674a6 6 0 0 1-6 6h-16.47a6 6 0 0 0-6 6v33" stroke="#7b7d68" stroke-width="2" fill="none"/><path d="M1250 623.24l4.63 14.26h-9.27z" stroke="#7b7d68" stroke-width="2" fill="#7b7d68"/><path d="M1222.53 720h-2v-1.03h2z" stroke="#7b7d68" stroke-width=".05" fill="#7b7d68"/><path d="M781.14 161v53a6 6 0 0 1-6 6H275.3a6 6 0 0 0-6 6v215.5" stroke="#7b7d68" stroke-width="2" fill="none"/><path d="M782.14 161.03h-2V160h2z" stroke="#7b7d68" stroke-width=".05" fill="#7b7d68"/><path d="M269.3 456.76l-4.65-14.26h9.27z" stroke="#7b7d68" stroke-width="2" fill="#7b7d68"/><path d="M799.9 161v73a6 6 0 0 1-6 6H675.3a6 6 0 0 0-6 6v195.5" stroke="#7b7d68" stroke-width="2" fill="none"/><path d="M800.9 161.03h-2V160h2z" stroke="#7b7d68" stroke-width=".05" fill="#7b7d68"/><path d="M669.3 456.76l-4.65-14.26h9.27z" stroke="#7b7d68" stroke-width="2" fill="#7b7d68"/><path d="M820.13 161v73a6 6 0 0 0 6 6h238.58a6 6 0 0 1 6 6v195.5" stroke="#7b7d68" stroke-width="2" fill="none"/><path d="M821.13 161.03h-2V160h2z" stroke="#7b7d68" stroke-width=".05" fill="#7b7d68"/><path d="M1070.7 456.76l-4.62-14.26h9.27z" stroke="#7b7d68" stroke-width="2" fill="#7b7d68"/><path d="M840.34 161v53a6 6 0 0 0 6 6h597.32a6 6 0 0 1 6 6v215.5" stroke="#7b7d68" stroke-width="2" fill="none"/><path d="M841.34 161.03h-2V160h2z" stroke="#7b7d68" stroke-width=".05" fill="#7b7d68"/><path d="M1449.66 456.76l-4.64-14.26h9.27z" stroke="#7b7d68" stroke-width="2" fill="#7b7d68"/><path d="M450 379v-93a6 6 0 0 1 6-6h661.34a6 6 0 0 0 6-6V158.5" stroke="#7b7d68" stroke-width="2" fill="none"/><path d="M451 380h-2v-1.03h2z" stroke="#7b7d68" stroke-width=".05" fill="#7b7d68"/><path d="M1123.34 143.24l4.64 14.26h-9.27z" stroke="#7b7d68" stroke-width="2" fill="#7b7d68"/><path d="M850 379v-73a6 6 0 0 1 6-6h280.1a6 6 0 0 0 6-6V158.5" stroke="#7b7d68" stroke-width="2" fill="none"/><path d="M851 380h-2v-1.03h2z" stroke="#7b7d68" stroke-width=".05" fill="#7b7d68"/><path d="M1142.1 143.24l4.65 14.26h-9.27z" stroke="#7b7d68" stroke-width="2" fill="#7b7d68"/><path d="M1250 379v-73a6 6 0 0 0-6-6h-38.13a6 6 0 0 1-6-6V158.5" stroke="#7b7d68" stroke-width="2" fill="none"/><path d="M1251 380h-2v-1.03h2z" stroke="#7b7d68" stroke-width=".05" fill="#7b7d68"/><path d="M1199.87 143.24l4.63 14.26h-9.27z" stroke="#7b7d68" stroke-width="2" fill="#7b7d68"/><path d="M1490.7 459V286a6 6 0 0 0-6-6h-253.96a6 6 0 0 1-6-6V158.5" stroke="#7b7d68" stroke-width="2" fill="none"/><path d="M1491.7 460h-2v-1.03h2z" stroke="#7b7d68" stroke-width=".05" fill="#7b7d68"/><path d="M1224.74 143.24l4.64 14.26h-9.28z" stroke="#7b7d68" stroke-width="2" fill="#7b7d68"/><path d="M820 1098.5v40.5" stroke="#7b7d68" stroke-width="2" fill="none"/><path d="M820 1083.24l4.63 14.26h-9.26z" stroke="#7b7d68" stroke-width="2" fill="#7b7d68"/><path d="M820 1138.97v1.03" stroke="#7b7d68" stroke-width="2" fill="none"/><defs><path fill="#2e2f27" d="M175 0L67-191c6 58 2 128 3 191H24v-248h59L193-55c-6-58-2-129-3-193h46V0h-61" id="F"/><path fill="#2e2f27" d="M185-48c-13 30-37 53-82 52C43 2 14-33 14-96s30-98 90-98c62 0 83 45 84 108H66c0 31 8 55 39 56 18 0 30-7 34-22zm-45-69c5-46-57-63-70-21-2 6-4 13-4 21h74" id="G"/><path fill="#2e2f27" d="M115-3C79 11 28 4 28-45v-112H4v-33h27l15-45h31v45h36v33H77v99c-1 23 16 31 38 25v30" id="H"/><path fill="#2e2f27" d="M231 0h-52l-39-155L100 0H48L-1-190h46L77-45c9-52 24-97 36-145h53l37 145 32-145h46" id="I"/><path fill="#2e2f27" d="M110-194c64 0 96 36 96 99 0 64-35 99-97 99-61 0-95-36-95-99 0-62 34-99 96-99zm-1 164c35 0 45-28 45-65 0-40-10-65-43-65-34 0-45 26-45 65 0 36 10 65 43 65" id="J"/><path fill="#2e2f27" d="M135-150c-39-12-60 13-60 57V0H25l-1-190h47c2 13-1 29 3 40 6-28 27-53 61-41v41" id="K"/><path fill="#2e2f27" d="M147 0L96-86 75-71V0H25v-261h50v150l67-79h53l-66 74L201 0h-54" id="L"/><g id="a"><use transform="matrix(0.05,0,0,0.05,0,0)" xlink:href="#F"/><use transform="matrix(0.05,0,0,0.05,12.950000000000001,0)" xlink:href="#G"/><use transform="matrix(0.05,0,0,0.05,22.950000000000003,0)" xlink:href="#H"/><use transform="matrix(0.05,0,0,0.05,28.900000000000002,0)" xlink:href="#I"/><use transform="matrix(0.05,0,0,0.05,42.900000000000006,0)" xlink:href="#J"/><use transform="matrix(0.05,0,0,0.05,53.85,0)" xlink:href="#K"/><use transform="matrix(0.05,0,0,0.05,60.85,0)" xlink:href="#L"/></g><path fill="#2e2f27" d="M25 0v-261h50V0H25" id="M"/><path fill="#2e2f27" d="M133-34C117-15 103 5 69 4 32 3 11-16 11-54c-1-60 55-63 116-61 1-26-3-47-28-47-18 1-26 9-28 27l-52-2c7-38 36-58 82-57s74 22 75 68l1 82c-1 14 12 18 25 15v27c-30 8-71 5-69-32zm-48 3c29 0 43-24 42-57-32 0-66-3-65 30 0 17 8 27 23 27" id="N"/><path fill="#2e2f27" d="M123 10C108 53 80 86 19 72V37c35 8 53-11 59-39L3-190h52l48 148c12-52 28-100 44-148h51" id="O"/><g id="b"><use transform="matrix(0.05,0,0,0.05,0,0)" xlink:href="#M"/><use transform="matrix(0.05,0,0,0.05,5,0)" xlink:href="#N"/><use transform="matrix(0.05,0,0,0.05,15,0)" xlink:href="#O"/><use transform="matrix(0.05,0,0,0.05,25,0)" xlink:href="#G"/><use transform="matrix(0.05,0,0,0.05,35,0)" xlink:href="#K"/></g><path fill="#fff" d="M67-125c0 53 21 87 73 88 37 1 54-22 65-47l45 17C233-25 199 4 140 4 58 4 20-42 15-125 8-235 124-281 211-232c18 10 29 29 36 50l-46 12c-8-25-30-41-62-41-52 0-71 34-72 86" id="P"/><path fill="#fff" d="M114-157C55-157 80-60 75 0H25v-261h50l-1 109c12-26 28-41 61-42 86-1 58 113 63 194h-50c-7-57 23-157-34-157" id="Q"/><path fill="#fff" d="M133-34C117-15 103 5 69 4 32 3 11-16 11-54c-1-60 55-63 116-61 1-26-3-47-28-47-18 1-26 9-28 27l-52-2c7-38 36-58 82-57s74 22 75 68l1 82c-1 14 12 18 25 15v27c-30 8-71 5-69-32zm-48 3c29 0 43-24 42-57-32 0-66-3-65 30 0 17 8 27 23 27" id="R"/><path fill="#fff" d="M25-224v-37h50v37H25zM25 0v-190h50V0H25" id="S"/><path fill="#fff" d="M135-194c87-1 58 113 63 194h-50c-7-57 23-157-34-157-59 0-34 97-39 157H25l-1-190h47c2 12-1 28 3 38 12-26 28-41 61-42" id="T"/><path fill="#fff" d="M185-48c-13 30-37 53-82 52C43 2 14-33 14-96s30-98 90-98c62 0 83 45 84 108H66c0 31 8 55 39 56 18 0 30-7 34-22zm-45-69c5-46-57-63-70-21-2 6-4 13-4 21h74" id="U"/><path fill="#fff" d="M88-194c31-1 46 15 58 34l-1-101h50l1 261h-48c-2-10 0-23-3-31C134-8 116 4 84 4 32 4 16-41 15-95c0-56 19-97 73-99zm17 164c33 0 40-30 41-66 1-37-9-64-41-64s-38 30-39 65c0 43 13 65 39 65" id="V"/><g id="c"><use transform="matrix(0.05,0,0,0.05,0,0)" xlink:href="#P"/><use transform="matrix(0.05,0,0,0.05,12.950000000000001,0)" xlink:href="#Q"/><use transform="matrix(0.05,0,0,0.05,23.900000000000002,0)" xlink:href="#R"/><use transform="matrix(0.05,0,0,0.05,33.900000000000006,0)" xlink:href="#S"/><use transform="matrix(0.05,0,0,0.05,38.900000000000006,0)" xlink:href="#T"/><use transform="matrix(0.05,0,0,0.05,49.85000000000001,0)" xlink:href="#U"/><use transform="matrix(0.05,0,0,0.05,59.85,0)" xlink:href="#V"/></g><path fill="#fff" d="M190-63c-7 42-38 67-86 67-59 0-84-38-90-98-12-110 154-137 174-36l-49 2c-2-19-15-32-35-32-30 0-35 28-38 64-6 74 65 87 74 30" id="W"/><path fill="#fff" d="M110-194c64 0 96 36 96 99 0 64-35 99-97 99-61 0-95-36-95-99 0-62 34-99 96-99zm-1 164c35 0 45-28 45-65 0-40-10-65-43-65-34 0-45 26-45 65 0 36 10 65 43 65" id="X"/><path fill="#fff" d="M220-157c-53 9-28 100-34 157h-49v-107c1-27-5-49-29-50C55-147 81-57 75 0H25l-1-190h47c2 12-1 28 3 38 10-53 101-56 108 0 13-22 24-43 59-42 82 1 51 116 57 194h-49v-107c-1-25-5-48-29-50" id="Y"/><path fill="#fff" d="M135-194c53 0 70 44 70 98 0 56-19 98-73 100-31 1-45-17-59-34 3 33 2 69 2 105H25l-1-265h48c2 10 0 23 3 31 11-24 29-35 60-35zM114-30c33 0 39-31 40-66 0-38-9-64-40-64-56 0-55 130 0 130" id="Z"/><path fill="#fff" d="M115-3C79 11 28 4 28-45v-112H4v-33h27l15-45h31v45h36v33H77v99c-1 23 16 31 38 25v30" id="aa"/><path fill="#fff" d="M137-138c1-29-70-34-71-4 15 46 118 7 119 86 1 83-164 76-172 9l43-7c4 19 20 25 44 25 33 8 57-30 24-41C81-84 22-81 20-136c-2-80 154-74 161-7" id="ab"/><g id="d"><use transform="matrix(0.05,0,0,0.05,0,0)" xlink:href="#W"/><use transform="matrix(0.05,0,0,0.05,10,0)" xlink:href="#X"/><use transform="matrix(0.05,0,0,0.05,20.950000000000003,0)" xlink:href="#Y"/><use transform="matrix(0.05,0,0,0.05,36.95,0)" xlink:href="#Z"/><use transform="matrix(0.05,0,0,0.05,47.900000000000006,0)" xlink:href="#X"/><use transform="matrix(0.05,0,0,0.05,58.85,0)" xlink:href="#T"/><use transform="matrix(0.05,0,0,0.05,69.80000000000001,0)" xlink:href="#U"/><use transform="matrix(0.05,0,0,0.05,79.80000000000001,0)" xlink:href="#T"/><use transform="matrix(0.05,0,0,0.05,90.75000000000001,0)" xlink:href="#aa"/><use transform="matrix(0.05,0,0,0.05,96.70000000000002,0)" xlink:href="#ab"/></g><path fill="#fff" d="M240-174c0 40-23 61-54 70L253 0h-59l-57-94H76V0H24v-248c93 4 217-23 216 74zM76-134c48-2 112 12 112-38 0-48-66-32-112-35v73" id="ac"/><path fill="#fff" d="M84 4C32 4 15-41 15-95c0-55 18-99 73-99 29 0 47 12 58 34l2-30h48l-1 265h-49V-32C136-9 114 4 84 4zm21-34c32 0 41-29 41-66 0-36-9-64-40-64-33 0-39 30-40 65 0 43 13 65 39 65" id="ad"/><path fill="#fff" d="M85 4C-2 5 27-109 22-190h50c7 57-23 150 33 157 60-5 35-97 40-157h50l1 190h-47c-2-12 1-28-3-38-12 25-28 42-61 42" id="ae"/><g id="e"><use transform="matrix(0.05,0,0,0.05,0,0)" xlink:href="#ac"/><use transform="matrix(0.05,0,0,0.05,12.950000000000001,0)" xlink:href="#U"/><use transform="matrix(0.05,0,0,0.05,22.950000000000003,0)" xlink:href="#ad"/><use transform="matrix(0.05,0,0,0.05,33.900000000000006,0)" xlink:href="#ae"/><use transform="matrix(0.05,0,0,0.05,44.85000000000001,0)" xlink:href="#U"/><use transform="matrix(0.05,0,0,0.05,54.85,0)" xlink:href="#ab"/><use transform="matrix(0.05,0,0,0.05,64.85000000000001,0)" xlink:href="#aa"/></g><path fill="#fff" d="M25 0v-261h50V0H25" id="af"/><path fill="#fff" d="M135-150c-39-12-60 13-60 57V0H25l-1-190h47c2 13-1 29 3 40 6-28 27-53 61-41v41" id="ag"/><g id="f"><use transform="matrix(0.05,0,0,0.05,0,0)" xlink:href="#Q"/><use transform="matrix(0.05,0,0,0.05,10.950000000000001,0)" xlink:href="#R"/><use transform="matrix(0.05,0,0,0.05,20.950000000000003,0)" xlink:href="#T"/><use transform="matrix(0.05,0,0,0.05,31.900000000000006,0)" xlink:href="#V"/><use transform="matrix(0.05,0,0,0.05,42.85000000000001,0)" xlink:href="#af"/><use transform="matrix(0.05,0,0,0.05,47.85000000000001,0)" xlink:href="#U"/><use transform="matrix(0.05,0,0,0.05,57.85,0)" xlink:href="#ag"/><use transform="matrix(0.05,0,0,0.05,64.85000000000001,0)" xlink:href="#ab"/></g><path fill="#2e2f27" d="M24-248c120-7 223 5 221 122C244-46 201 0 124 0H24v-248zM76-40c74 7 117-18 117-86 0-67-45-88-117-82v168" id="ah"/><path fill="#2e2f27" d="M190-63c-7 42-38 67-86 67-59 0-84-38-90-98-12-110 154-137 174-36l-49 2c-2-19-15-32-35-32-30 0-35 28-38 64-6 74 65 87 74 30" id="ai"/><path fill="#2e2f27" d="M85 4C-2 5 27-109 22-190h50c7 57-23 150 33 157 60-5 35-97 40-157h50l1 190h-47c-2-12 1-28-3-38-12 25-28 42-61 42" id="aj"/><path fill="#2e2f27" d="M220-157c-53 9-28 100-34 157h-49v-107c1-27-5-49-29-50C55-147 81-57 75 0H25l-1-190h47c2 12-1 28 3 38 10-53 101-56 108 0 13-22 24-43 59-42 82 1 51 116 57 194h-49v-107c-1-25-5-48-29-50" id="ak"/><path fill="#2e2f27" d="M135-194c87-1 58 113 63 194h-50c-7-57 23-157-34-157-59 0-34 97-39 157H25l-1-190h47c2 12-1 28 3 38 12-26 28-41 61-42" id="al"/><path fill="#2e2f27" d="M24-248c93 1 206-16 204 79-1 75-69 88-152 82V0H24v-248zm52 121c47 0 100 7 100-41 0-47-54-39-100-39v80" id="am"/><path fill="#2e2f27" d="M137-138c1-29-70-34-71-4 15 46 118 7 119 86 1 83-164 76-172 9l43-7c4 19 20 25 44 25 33 8 57-30 24-41C81-84 22-81 20-136c-2-80 154-74 161-7" id="an"/><path fill="#2e2f27" d="M25-224v-37h50v37H25zM25 0v-190h50V0H25" id="ao"/><path fill="#2e2f27" d="M195-6C206 82 75 100 31 46c-4-6-6-13-8-21l49-6c3 16 16 24 34 25 40 0 42-37 40-79-11 22-30 35-61 35-53 0-70-43-70-97 0-56 18-96 73-97 30 0 46 14 59 34l2-30h47zm-90-29c32 0 41-27 41-63 0-35-9-62-40-62-32 0-39 29-40 63 0 36 9 62 39 62" id="ap"/><path fill="#2e2f27" d="M186 0v-106H76V0H24v-248h52v99h110v-99h50V0h-50" id="aq"/><path fill="#2e2f27" d="M88-194c31-1 46 15 58 34l-1-101h50l1 261h-48c-2-10 0-23-3-31C134-8 116 4 84 4 32 4 16-41 15-95c0-56 19-97 73-99zm17 164c33 0 40-30 41-66 1-37-9-64-41-64s-38 30-39 65c0 43 13 65 39 65" id="ar"/><g id="g"><use transform="matrix(0.05,0,0,0.05,0,0)" xlink:href="#ah"/><use transform="matrix(0.05,0,0,0.05,12.950000000000001,0)" xlink:href="#J"/><use transform="matrix(0.05,0,0,0.05,23.900000000000002,0)" xlink:href="#ai"/><use transform="matrix(0.05,0,0,0.05,33.900000000000006,0)" xlink:href="#aj"/><use transform="matrix(0.05,0,0,0.05,44.85000000000001,0)" xlink:href="#ak"/><use transform="matrix(0.05,0,0,0.05,60.85,0)" xlink:href="#G"/><use transform="matrix(0.05,0,0,0.05,70.85000000000001,0)" xlink:href="#al"/><use transform="matrix(0.05,0,0,0.05,81.80000000000001,0)" xlink:href="#H"/><use transform="matrix(0.05,0,0,0.05,87.75000000000001,0)" xlink:href="#am"/><use transform="matrix(0.05,0,0,0.05,99.75000000000001,0)" xlink:href="#K"/><use transform="matrix(0.05,0,0,0.05,106.75,0)" xlink:href="#J"/><use transform="matrix(0.05,0,0,0.05,117.7,0)" xlink:href="#ai"/><use transform="matrix(0.05,0,0,0.05,127.7,0)" xlink:href="#G"/><use transform="matrix(0.05,0,0,0.05,137.70000000000002,0)" xlink:href="#an"/><use transform="matrix(0.05,0,0,0.05,147.70000000000002,0)" xlink:href="#an"/><use transform="matrix(0.05,0,0,0.05,157.70000000000002,0)" xlink:href="#ao"/><use transform="matrix(0.05,0,0,0.05,162.70000000000002,0)" xlink:href="#al"/><use transform="matrix(0.05,0,0,0.05,173.65,0)" xlink:href="#ap"/><use transform="matrix(0.05,0,0,0.05,184.6,0)" xlink:href="#aq"/><use transform="matrix(0.05,0,0,0.05,197.54999999999998,0)" xlink:href="#N"/><use transform="matrix(0.05,0,0,0.05,207.54999999999995,0)" xlink:href="#al"/><use transform="matrix(0.05,0,0,0.05,218.49999999999997,0)" xlink:href="#ar"/><use transform="matrix(0.05,0,0,0.05,229.44999999999996,0)" xlink:href="#M"/><use transform="matrix(0.05,0,0,0.05,234.44999999999996,0)" xlink:href="#G"/><use transform="matrix(0.05,0,0,0.05,244.44999999999996,0)" xlink:href="#K"/></g><path fill="#2e2f27" d="M169-182c-1-43-94-46-97-3 18 66 151 10 154 114 3 95-165 93-204 36-6-8-10-19-12-30l50-8c3 46 112 56 116 5-17-69-150-10-154-114-4-87 153-88 188-35 5 8 8 18 10 28" id="as"/><path fill="#2e2f27" d="M114-157C55-157 80-60 75 0H25v-261h50l-1 109c12-26 28-41 61-42 86-1 58 113 63 194h-50c-7-57 23-157-34-157" id="at"/><g id="h"><use transform="matrix(0.05,0,0,0.05,0,0)" xlink:href="#as"/><use transform="matrix(0.05,0,0,0.05,12,0)" xlink:href="#G"/><use transform="matrix(0.05,0,0,0.05,22,0)" xlink:href="#N"/><use transform="matrix(0.05,0,0,0.05,32,0)" xlink:href="#K"/><use transform="matrix(0.05,0,0,0.05,39,0)" xlink:href="#ai"/><use transform="matrix(0.05,0,0,0.05,49,0)" xlink:href="#at"/><use transform="matrix(0.05,0,0,0.05,59.95,0)" xlink:href="#aq"/><use transform="matrix(0.05,0,0,0.05,72.9,0)" xlink:href="#N"/><use transform="matrix(0.05,0,0,0.05,82.9,0)" xlink:href="#al"/><use transform="matrix(0.05,0,0,0.05,93.85000000000001,0)" xlink:href="#ar"/><use transform="matrix(0.05,0,0,0.05,104.80000000000001,0)" xlink:href="#M"/><use transform="matrix(0.05,0,0,0.05,109.80000000000001,0)" xlink:href="#G"/><use transform="matrix(0.05,0,0,0.05,119.80000000000001,0)" xlink:href="#K"/></g><path fill="#2e2f27" d="M190 0L58-211 59 0H30v-248h39L202-35l-2-213h31V0h-41" id="au"/><path fill="#2e2f27" d="M100-194c63 0 86 42 84 106H49c0 40 14 67 53 68 26 1 43-12 49-29l28 8c-11 28-37 45-77 45C44 4 14-33 15-96c1-61 26-98 85-98zm52 81c6-60-76-77-97-28-3 7-6 17-6 28h103" id="av"/><path fill="#2e2f27" d="M59-47c-2 24 18 29 38 22v24C64 9 27 4 27-40v-127H5v-23h24l9-43h21v43h35v23H59v120" id="aw"/><path fill="#2e2f27" d="M206 0h-36l-40-164L89 0H53L-1-190h32L70-26l43-164h34l41 164 42-164h31" id="ax"/><path fill="#2e2f27" d="M100-194c62-1 85 37 85 99 1 63-27 99-86 99S16-35 15-95c0-66 28-99 85-99zM99-20c44 1 53-31 53-75 0-43-8-75-51-75s-53 32-53 75 10 74 51 75" id="ay"/><path fill="#2e2f27" d="M114-163C36-179 61-72 57 0H25l-1-190h30c1 12-1 29 2 39 6-27 23-49 58-41v29" id="az"/><path fill="#2e2f27" d="M143 0L79-87 56-68V0H24v-261h32v163l83-92h37l-77 82L181 0h-38" id="aA"/><g id="i"><use transform="matrix(0.05,0,0,0.05,0,0)" xlink:href="#au"/><use transform="matrix(0.05,0,0,0.05,12.950000000000001,0)" xlink:href="#av"/><use transform="matrix(0.05,0,0,0.05,22.950000000000003,0)" xlink:href="#aw"/><use transform="matrix(0.05,0,0,0.05,27.950000000000003,0)" xlink:href="#ax"/><use transform="matrix(0.05,0,0,0.05,40.900000000000006,0)" xlink:href="#ay"/><use transform="matrix(0.05,0,0,0.05,50.900000000000006,0)" xlink:href="#az"/><use transform="matrix(0.05,0,0,0.05,56.85,0)" xlink:href="#aA"/></g><path fill="#2e2f27" d="M135-143c-3-34-86-38-87 0 15 53 115 12 119 90S17 21 10-45l28-5c4 36 97 45 98 0-10-56-113-15-118-90-4-57 82-63 122-42 12 7 21 19 24 35" id="aB"/><path fill="#2e2f27" d="M115-194c55 1 70 41 70 98S169 2 115 4C84 4 66-9 55-30l1 105H24l-1-265h31l2 30c10-21 28-34 59-34zm-8 174c40 0 45-34 45-75s-6-73-45-74c-42 0-51 32-51 76 0 43 10 73 51 73" id="aC"/><path fill="#2e2f27" d="M117-194c89-4 53 116 60 194h-32v-121c0-31-8-49-39-48C34-167 62-67 57 0H25l-1-190h30c1 10-1 24 2 32 11-22 29-35 61-36" id="aD"/><g id="j"><use transform="matrix(0.05,0,0,0.05,0,0)" xlink:href="#az"/><use transform="matrix(0.05,0,0,0.05,5.95,0)" xlink:href="#av"/><use transform="matrix(0.05,0,0,0.05,15.949999999999998,0)" xlink:href="#aB"/><use transform="matrix(0.05,0,0,0.05,24.95,0)" xlink:href="#aC"/><use transform="matrix(0.05,0,0,0.05,34.95,0)" xlink:href="#ay"/><use transform="matrix(0.05,0,0,0.05,44.95,0)" xlink:href="#aD"/><use transform="matrix(0.05,0,0,0.05,54.95,0)" xlink:href="#aB"/><use transform="matrix(0.05,0,0,0.05,63.95,0)" xlink:href="#av"/></g><g id="k"><use transform="matrix(0.05,0,0,0.05,0,0)" xlink:href="#am"/><use transform="matrix(0.05,0,0,0.05,12,0)" xlink:href="#K"/><use transform="matrix(0.05,0,0,0.05,19,0)" xlink:href="#J"/><use transform="matrix(0.05,0,0,0.05,29.950000000000003,0)" xlink:href="#ai"/><use transform="matrix(0.05,0,0,0.05,39.95,0)" xlink:href="#G"/><use transform="matrix(0.05,0,0,0.05,49.95,0)" xlink:href="#an"/><use transform="matrix(0.05,0,0,0.05,59.95,0)" xlink:href="#an"/><use transform="matrix(0.05,0,0,0.05,69.95,0)" xlink:href="#ao"/><use transform="matrix(0.05,0,0,0.05,74.95,0)" xlink:href="#al"/><use transform="matrix(0.05,0,0,0.05,85.9,0)" xlink:href="#ap"/><use transform="matrix(0.05,0,0,0.05,96.85000000000001,0)" xlink:href="#aq"/><use transform="matrix(0.05,0,0,0.05,109.80000000000001,0)" xlink:href="#N"/><use transform="matrix(0.05,0,0,0.05,119.80000000000001,0)" xlink:href="#al"/><use transform="matrix(0.05,0,0,0.05,130.75,0)" xlink:href="#ar"/><use transform="matrix(0.05,0,0,0.05,141.7,0)" xlink:href="#M"/><use transform="matrix(0.05,0,0,0.05,146.7,0)" xlink:href="#G"/><use transform="matrix(0.05,0,0,0.05,156.7,0)" xlink:href="#K"/></g><path fill="#fff" d="M30-248c118-7 216 8 213 122C240-48 200 0 122 0H30v-248zM63-27c89 8 146-16 146-99s-60-101-146-95v194" id="aE"/><path fill="#fff" d="M100-194c62-1 85 37 85 99 1 63-27 99-86 99S16-35 15-95c0-66 28-99 85-99zM99-20c44 1 53-31 53-75 0-43-8-75-51-75s-53 32-53 75 10 74 51 75" id="aF"/><path fill="#fff" d="M96-169c-40 0-48 33-48 73s9 75 48 75c24 0 41-14 43-38l32 2c-6 37-31 61-74 61-59 0-76-41-82-99-10-93 101-131 147-64 4 7 5 14 7 22l-32 3c-4-21-16-35-41-35" id="aG"/><path fill="#fff" d="M84 4C-5 8 30-112 23-190h32v120c0 31 7 50 39 49 72-2 45-101 50-169h31l1 190h-30c-1-10 1-25-2-33-11 22-28 36-60 37" id="aH"/><path fill="#fff" d="M210-169c-67 3-38 105-44 169h-31v-121c0-29-5-50-35-48C34-165 62-65 56 0H25l-1-190h30c1 10-1 24 2 32 10-44 99-50 107 0 11-21 27-35 58-36 85-2 47 119 55 194h-31v-121c0-29-5-49-35-48" id="aI"/><path fill="#fff" d="M100-194c63 0 86 42 84 106H49c0 40 14 67 53 68 26 1 43-12 49-29l28 8c-11 28-37 45-77 45C44 4 14-33 15-96c1-61 26-98 85-98zm52 81c6-60-76-77-97-28-3 7-6 17-6 28h103" id="aJ"/><path fill="#fff" d="M117-194c89-4 53 116 60 194h-32v-121c0-31-8-49-39-48C34-167 62-67 57 0H25l-1-190h30c1 10-1 24 2 32 11-22 29-35 61-36" id="aK"/><path fill="#fff" d="M59-47c-2 24 18 29 38 22v24C64 9 27 4 27-40v-127H5v-23h24l9-43h21v43h35v23H59v120" id="aL"/><g id="l"><use transform="matrix(0.05,0,0,0.05,0,0)" xlink:href="#aE"/><use transform="matrix(0.05,0,0,0.05,12.950000000000001,0)" xlink:href="#aF"/><use transform="matrix(0.05,0,0,0.05,22.950000000000003,0)" xlink:href="#aG"/><use transform="matrix(0.05,0,0,0.05,31.950000000000003,0)" xlink:href="#aH"/><use transform="matrix(0.05,0,0,0.05,41.95,0)" xlink:href="#aI"/><use transform="matrix(0.05,0,0,0.05,56.900000000000006,0)" xlink:href="#aJ"/><use transform="matrix(0.05,0,0,0.05,66.9,0)" xlink:href="#aK"/><use transform="matrix(0.05,0,0,0.05,76.9,0)" xlink:href="#aL"/></g><path fill="#fff" d="M30-248c87 1 191-15 191 75 0 78-77 80-158 76V0H30v-248zm33 125c57 0 124 11 124-50 0-59-68-47-124-48v98" id="aM"/><path fill="#fff" d="M114-163C36-179 61-72 57 0H25l-1-190h30c1 12-1 29 2 39 6-27 23-49 58-41v29" id="aN"/><path fill="#fff" d="M135-143c-3-34-86-38-87 0 15 53 115 12 119 90S17 21 10-45l28-5c4 36 97 45 98 0-10-56-113-15-118-90-4-57 82-63 122-42 12 7 21 19 24 35" id="aO"/><g id="m"><use transform="matrix(0.05,0,0,0.05,0,0)" xlink:href="#aM"/><use transform="matrix(0.05,0,0,0.05,12,0)" xlink:href="#aN"/><use transform="matrix(0.05,0,0,0.05,17.95,0)" xlink:href="#aF"/><use transform="matrix(0.05,0,0,0.05,27.950000000000003,0)" xlink:href="#aG"/><use transform="matrix(0.05,0,0,0.05,36.95,0)" xlink:href="#aJ"/><use transform="matrix(0.05,0,0,0.05,46.95,0)" xlink:href="#aO"/><use transform="matrix(0.05,0,0,0.05,55.95,0)" xlink:href="#aO"/><use transform="matrix(0.05,0,0,0.05,64.95,0)" xlink:href="#aF"/><use transform="matrix(0.05,0,0,0.05,74.95,0)" xlink:href="#aN"/></g><g id="n"><use transform="matrix(0.05,0,0,0.05,0,0)" xlink:href="#aE"/><use transform="matrix(0.05,0,0,0.05,12.950000000000001,0)" xlink:href="#aF"/><use transform="matrix(0.05,0,0,0.05,22.950000000000003,0)" xlink:href="#aG"/><use transform="matrix(0.05,0,0,0.05,31.950000000000003,0)" xlink:href="#aH"/><use transform="matrix(0.05,0,0,0.05,41.95,0)" xlink:href="#aI"/><use transform="matrix(0.05,0,0,0.05,56.900000000000006,0)" xlink:href="#aJ"/><use transform="matrix(0.05,0,0,0.05,66.9,0)" xlink:href="#aK"/><use transform="matrix(0.05,0,0,0.05,76.9,0)" xlink:href="#aL"/></g><path fill="#fff" d="M177-190C167-65 218 103 67 71c-23-6-38-20-44-43l32-5c15 47 100 32 89-28v-30C133-14 115 1 83 1 29 1 15-40 15-95c0-56 16-97 71-98 29-1 48 16 59 35 1-10 0-23 2-32h30zM94-22c36 0 50-32 50-73 0-42-14-75-50-75-39 0-46 34-46 75s6 73 46 73" id="aP"/><g id="o"><use transform="matrix(0.05,0,0,0.05,0,0)" xlink:href="#aM"/><use transform="matrix(0.05,0,0,0.05,12,0)" xlink:href="#aN"/><use transform="matrix(0.05,0,0,0.05,17.95,0)" xlink:href="#aF"/><use transform="matrix(0.05,0,0,0.05,27.950000000000003,0)" xlink:href="#aP"/><use transform="matrix(0.05,0,0,0.05,37.95,0)" xlink:href="#aN"/><use transform="matrix(0.05,0,0,0.05,43.900000000000006,0)" xlink:href="#aJ"/><use transform="matrix(0.05,0,0,0.05,53.900000000000006,0)" xlink:href="#aO"/><use transform="matrix(0.05,0,0,0.05,62.900000000000006,0)" xlink:href="#aO"/></g><path fill="#fff" d="M185-189c-5-48-123-54-124 2 14 75 158 14 163 119 3 78-121 87-175 55-17-10-28-26-33-46l33-7c5 56 141 63 141-1 0-78-155-14-162-118-5-82 145-84 179-34 5 7 8 16 11 25" id="aQ"/><path fill="#fff" d="M141-36C126-15 110 5 73 4 37 3 15-17 15-53c-1-64 63-63 125-63 3-35-9-54-41-54-24 1-41 7-42 31l-33-3c5-37 33-52 76-52 45 0 72 20 72 64v82c-1 20 7 32 28 27v20c-31 9-61-2-59-35zM48-53c0 20 12 33 32 33 41-3 63-29 60-74-43 2-92-5-92 41" id="aR"/><path fill="#fff" d="M106-169C34-169 62-67 57 0H25v-261h32l-1 103c12-21 28-36 61-36 89 0 53 116 60 194h-32v-121c2-32-8-49-39-48" id="aS"/><g id="p"><use transform="matrix(0.05,0,0,0.05,0,0)" xlink:href="#aQ"/><use transform="matrix(0.05,0,0,0.05,12,0)" xlink:href="#aJ"/><use transform="matrix(0.05,0,0,0.05,22,0)" xlink:href="#aR"/><use transform="matrix(0.05,0,0,0.05,32,0)" xlink:href="#aN"/><use transform="matrix(0.05,0,0,0.05,37.95,0)" xlink:href="#aG"/><use transform="matrix(0.05,0,0,0.05,46.95,0)" xlink:href="#aS"/><use transform="matrix(0.05,0,0,0.05,56.95,0)" xlink:href="#aJ"/><use transform="matrix(0.05,0,0,0.05,66.95,0)" xlink:href="#aN"/></g><path fill="#fff" d="M140-251c81 0 123 46 123 126C263-53 228-8 163 1c7 30 30 48 69 40v23c-55 16-95-15-103-61C56-3 17-48 17-125c0-80 42-126 123-126zm0 227c63 0 89-41 89-101s-29-99-89-99c-61 0-89 39-89 99S79-25 140-24" id="aT"/><path fill="#fff" d="M179-190L93 31C79 59 56 82 12 73V49c39 6 53-20 64-50L1-190h34L92-34l54-156h33" id="aU"/><g id="q"><use transform="matrix(0.05,0,0,0.05,0,0)" xlink:href="#aT"/><use transform="matrix(0.05,0,0,0.05,14,0)" xlink:href="#aH"/><use transform="matrix(0.05,0,0,0.05,24,0)" xlink:href="#aJ"/><use transform="matrix(0.05,0,0,0.05,34,0)" xlink:href="#aN"/><use transform="matrix(0.05,0,0,0.05,39.95,0)" xlink:href="#aU"/></g><path fill="#fff" d="M233-177c-1 41-23 64-60 70L243 0h-38l-65-103H63V0H30v-248c88 3 205-21 203 71zM63-129c60-2 137 13 137-47 0-61-80-42-137-45v92" id="aV"/><path fill="#fff" d="M24 0v-261h32V0H24" id="aW"/><g id="r"><use transform="matrix(0.05,0,0,0.05,0,0)" xlink:href="#aV"/><use transform="matrix(0.05,0,0,0.05,12.950000000000001,0)" xlink:href="#aJ"/><use transform="matrix(0.05,0,0,0.05,22.950000000000003,0)" xlink:href="#aO"/><use transform="matrix(0.05,0,0,0.05,31.950000000000003,0)" xlink:href="#aH"/><use transform="matrix(0.05,0,0,0.05,41.95,0)" xlink:href="#aW"/><use transform="matrix(0.05,0,0,0.05,45.900000000000006,0)" xlink:href="#aL"/></g><path fill="#fff" d="M145-31C134-9 116 4 85 4 32 4 16-35 15-94c0-59 17-99 70-100 32-1 48 14 60 33 0-11-1-24 2-32h30l-1 268h-32zM93-21c41 0 51-33 51-76s-8-73-50-73c-40 0-46 35-46 75s5 74 45 74" id="aX"/><g id="s"><use transform="matrix(0.05,0,0,0.05,0,0)" xlink:href="#aV"/><use transform="matrix(0.05,0,0,0.05,12.950000000000001,0)" xlink:href="#aJ"/><use transform="matrix(0.05,0,0,0.05,22.950000000000003,0)" xlink:href="#aX"/><use transform="matrix(0.05,0,0,0.05,32.95,0)" xlink:href="#aH"/><use transform="matrix(0.05,0,0,0.05,42.95,0)" xlink:href="#aJ"/><use transform="matrix(0.05,0,0,0.05,52.95,0)" xlink:href="#aO"/><use transform="matrix(0.05,0,0,0.05,61.95,0)" xlink:href="#aL"/></g><path fill="#fff" d="M115-194c55 1 70 41 70 98S169 2 115 4C84 4 66-9 55-30l1 105H24l-1-265h31l2 30c10-21 28-34 59-34zm-8 174c40 0 45-34 45-75s-6-73-45-74c-42 0-51 32-51 76 0 43 10 73 51 73" id="aY"/><g id="t"><use transform="matrix(0.05,0,0,0.05,0,0)" xlink:href="#aV"/><use transform="matrix(0.05,0,0,0.05,12.950000000000001,0)" xlink:href="#aJ"/><use transform="matrix(0.05,0,0,0.05,22.950000000000003,0)" xlink:href="#aO"/><use transform="matrix(0.05,0,0,0.05,31.950000000000003,0)" xlink:href="#aY"/><use transform="matrix(0.05,0,0,0.05,41.95,0)" xlink:href="#aF"/><use transform="matrix(0.05,0,0,0.05,51.95,0)" xlink:href="#aK"/><use transform="matrix(0.05,0,0,0.05,61.95,0)" xlink:href="#aO"/><use transform="matrix(0.05,0,0,0.05,70.95,0)" xlink:href="#aJ"/></g><path fill="#fff" d="M85-194c31 0 48 13 60 33l-1-100h32l1 261h-30c-2-10 0-23-3-31C134-8 116 4 85 4 32 4 16-35 15-94c0-66 23-100 70-100zm9 24c-40 0-46 34-46 75 0 40 6 74 45 74 42 0 51-32 51-76 0-42-9-74-50-73" id="aZ"/><g id="u"><use transform="matrix(0.05,0,0,0.05,0,0)" xlink:href="#aV"/><use transform="matrix(0.05,0,0,0.05,12.950000000000001,0)" xlink:href="#aJ"/><use transform="matrix(0.05,0,0,0.05,22.950000000000003,0)" xlink:href="#aK"/><use transform="matrix(0.05,0,0,0.05,32.95,0)" xlink:href="#aZ"/><use transform="matrix(0.05,0,0,0.05,42.95,0)" xlink:href="#aJ"/><use transform="matrix(0.05,0,0,0.05,52.95,0)" xlink:href="#aN"/><use transform="matrix(0.05,0,0,0.05,58.900000000000006,0)" xlink:href="#aJ"/><use transform="matrix(0.05,0,0,0.05,68.9,0)" xlink:href="#aN"/></g><path fill="#2e2f27" d="M67-125c0 53 21 87 73 88 37 1 54-22 65-47l45 17C233-25 199 4 140 4 58 4 20-42 15-125 8-235 124-281 211-232c18 10 29 29 36 50l-46 12c-8-25-30-41-62-41-52 0-71 34-72 86" id="ba"/><g id="v"><use transform="matrix(0.05,0,0,0.05,0,0)" xlink:href="#ba"/><use transform="matrix(0.05,0,0,0.05,12.950000000000001,0)" xlink:href="#aj"/><use transform="matrix(0.05,0,0,0.05,23.900000000000002,0)" xlink:href="#an"/><use transform="matrix(0.05,0,0,0.05,33.900000000000006,0)" xlink:href="#H"/><use transform="matrix(0.05,0,0,0.05,39.85000000000001,0)" xlink:href="#J"/><use transform="matrix(0.05,0,0,0.05,50.80000000000001,0)" xlink:href="#ak"/></g><path fill="#2e2f27" d="M240-174c0 40-23 61-54 70L253 0h-59l-57-94H76V0H24v-248c93 4 217-23 216 74zM76-134c48-2 112 12 112-38 0-48-66-32-112-35v73" id="bb"/><path fill="#2e2f27" d="M84 4C32 4 15-41 15-95c0-55 18-99 73-99 29 0 47 12 58 34l2-30h48l-1 265h-49V-32C136-9 114 4 84 4zm21-34c32 0 41-29 41-66 0-36-9-64-40-64-33 0-39 30-40 65 0 43 13 65 39 65" id="bc"/><g id="w"><use transform="matrix(0.05,0,0,0.05,0,0)" xlink:href="#bb"/><use transform="matrix(0.05,0,0,0.05,12.950000000000001,0)" xlink:href="#G"/><use transform="matrix(0.05,0,0,0.05,22.950000000000003,0)" xlink:href="#bc"/><use transform="matrix(0.05,0,0,0.05,33.900000000000006,0)" xlink:href="#aj"/><use transform="matrix(0.05,0,0,0.05,44.85000000000001,0)" xlink:href="#G"/><use transform="matrix(0.05,0,0,0.05,54.85,0)" xlink:href="#an"/><use transform="matrix(0.05,0,0,0.05,64.85000000000001,0)" xlink:href="#H"/><use transform="matrix(0.05,0,0,0.05,70.80000000000001,0)" xlink:href="#aq"/><use transform="matrix(0.05,0,0,0.05,83.75000000000001,0)" xlink:href="#N"/><use transform="matrix(0.05,0,0,0.05,93.75000000000001,0)" xlink:href="#al"/><use transform="matrix(0.05,0,0,0.05,104.7,0)" xlink:href="#ar"/><use transform="matrix(0.05,0,0,0.05,115.65000000000003,0)" xlink:href="#M"/><use transform="matrix(0.05,0,0,0.05,120.65000000000003,0)" xlink:href="#G"/><use transform="matrix(0.05,0,0,0.05,130.65000000000003,0)" xlink:href="#K"/></g><path fill="#fff" d="M205 0l-28-72H64L36 0H1l101-248h38L239 0h-34zm-38-99l-47-123c-12 45-31 82-46 123h93" id="bd"/><path fill="#fff" d="M115-194c53 0 69 39 70 98 0 66-23 100-70 100C84 3 66-7 56-30L54 0H23l1-261h32v101c10-23 28-34 59-34zm-8 174c40 0 45-34 45-75 0-40-5-75-45-74-42 0-51 32-51 76 0 43 10 73 51 73" id="be"/><path fill="#fff" d="M24-231v-30h32v30H24zM24 0v-190h32V0H24" id="bf"/><g id="x"><use transform="matrix(0.05,0,0,0.05,0,0)" xlink:href="#bd"/><use transform="matrix(0.05,0,0,0.05,12,0)" xlink:href="#aN"/><use transform="matrix(0.05,0,0,0.05,17.95,0)" xlink:href="#be"/><use transform="matrix(0.05,0,0,0.05,27.950000000000003,0)" xlink:href="#bf"/><use transform="matrix(0.05,0,0,0.05,31.899999999999995,0)" xlink:href="#aL"/><use transform="matrix(0.05,0,0,0.05,36.9,0)" xlink:href="#aN"/><use transform="matrix(0.05,0,0,0.05,42.85,0)" xlink:href="#aR"/><use transform="matrix(0.05,0,0,0.05,52.85,0)" xlink:href="#aN"/><use transform="matrix(0.05,0,0,0.05,58.800000000000004,0)" xlink:href="#aU"/></g><g id="y"><use transform="matrix(0.05,0,0,0.05,0,0)" xlink:href="#bf"/><use transform="matrix(0.05,0,0,0.05,3.95,0)" xlink:href="#aK"/><use transform="matrix(0.05,0,0,0.05,13.949999999999998,0)" xlink:href="#aY"/><use transform="matrix(0.05,0,0,0.05,23.95,0)" xlink:href="#aH"/><use transform="matrix(0.05,0,0,0.05,33.95,0)" xlink:href="#aL"/></g><g id="z"><use transform="matrix(0.05,0,0,0.05,0,0)" xlink:href="#aR"/><use transform="matrix(0.05,0,0,0.05,10,0)" xlink:href="#aK"/><use transform="matrix(0.05,0,0,0.05,20,0)" xlink:href="#aZ"/></g><g id="A"><use transform="matrix(0.05,0,0,0.05,0,0)" xlink:href="#aF"/><use transform="matrix(0.05,0,0,0.05,10,0)" xlink:href="#aH"/><use transform="matrix(0.05,0,0,0.05,20,0)" xlink:href="#aL"/><use transform="matrix(0.05,0,0,0.05,25,0)" xlink:href="#aY"/><use transform="matrix(0.05,0,0,0.05,35,0)" xlink:href="#aH"/><use transform="matrix(0.05,0,0,0.05,45,0)" xlink:href="#aL"/></g><g id="B"><use transform="matrix(0.05,0,0,0.05,0,0)" xlink:href="#aV"/><use transform="matrix(0.05,0,0,0.05,12.950000000000001,0)" xlink:href="#aJ"/><use transform="matrix(0.05,0,0,0.05,22.950000000000003,0)" xlink:href="#aO"/><use transform="matrix(0.05,0,0,0.05,31.950000000000003,0)" xlink:href="#aY"/><use transform="matrix(0.05,0,0,0.05,41.95,0)" xlink:href="#aF"/><use transform="matrix(0.05,0,0,0.05,51.95,0)" xlink:href="#aK"/><use transform="matrix(0.05,0,0,0.05,61.95,0)" xlink:href="#aO"/><use transform="matrix(0.05,0,0,0.05,70.95,0)" xlink:href="#aJ"/></g><path fill="#fff" d="M197 0v-115H63V0H30v-248h33v105h134v-105h34V0h-34" id="bg"/><g id="C"><use transform="matrix(0.05,0,0,0.05,0,0)" xlink:href="#bg"/><use transform="matrix(0.05,0,0,0.05,12.950000000000001,0)" xlink:href="#aR"/><use transform="matrix(0.05,0,0,0.05,22.950000000000003,0)" xlink:href="#aK"/><use transform="matrix(0.05,0,0,0.05,32.95,0)" xlink:href="#aZ"/><use transform="matrix(0.05,0,0,0.05,42.95,0)" xlink:href="#aW"/><use transform="matrix(0.05,0,0,0.05,46.900000000000006,0)" xlink:href="#aJ"/><use transform="matrix(0.05,0,0,0.05,56.900000000000006,0)" xlink:href="#aN"/></g><path fill="#fff" d="M9 0v-24l116-142H16v-24h144v24L44-24h123V0H9" id="bh"/><g id="D"><use transform="matrix(0.05,0,0,0.05,0,0)" xlink:href="#aQ"/><use transform="matrix(0.05,0,0,0.05,12,0)" xlink:href="#aJ"/><use transform="matrix(0.05,0,0,0.05,22,0)" xlink:href="#aN"/><use transform="matrix(0.05,0,0,0.05,27.950000000000003,0)" xlink:href="#bf"/><use transform="matrix(0.05,0,0,0.05,31.899999999999995,0)" xlink:href="#aR"/><use transform="matrix(0.05,0,0,0.05,41.9,0)" xlink:href="#aW"/><use transform="matrix(0.05,0,0,0.05,45.85,0)" xlink:href="#bf"/><use transform="matrix(0.05,0,0,0.05,49.800000000000004,0)" xlink:href="#bh"/><use transform="matrix(0.05,0,0,0.05,58.800000000000004,0)" xlink:href="#aJ"/><use transform="matrix(0.05,0,0,0.05,68.80000000000001,0)" xlink:href="#aZ"/></g><g id="E"><use transform="matrix(0.05,0,0,0.05,0,0)" xlink:href="#aZ"/><use transform="matrix(0.05,0,0,0.05,10,0)" xlink:href="#aR"/><use transform="matrix(0.05,0,0,0.05,20,0)" xlink:href="#aL"/><use transform="matrix(0.05,0,0,0.05,25,0)" xlink:href="#aR"/></g></defs></g></svg>