<svg version="1.1" viewBox="0.0 0.0 312.3228346456693 100.0" fill="none" stroke="none" stroke-linecap="square" stroke-miterlimit="10" xmlns:xlink="http://www.w3.org/1999/xlink" xmlns="http://www.w3.org/2000/svg"><clipPath id="p.0"><path d="m0 0l312.32285 0l0 100.0l-312.32285 0l0 -100.0z" clip-rule="nonzero"/></clipPath><g clip-path="url(#p.0)"><path fill="#000000" fill-opacity="0.0" d="m0 0l312.32285 0l0 100.0l-312.32285 0z" fill-rule="evenodd"/><path fill="#005a8e" d="m0 42.51717l0 0c0 -3.0615425 2.4818728 -5.543415 5.543418 -5.543415l44.5982 0c1.4702072 0 2.8801956 0.58403397 3.9197884 1.6236267c1.0395927 1.0395927 1.6236305 2.449585 1.6236305 3.9197884l0 22.173008c0 3.0615463 -2.4818726 5.543419 -5.543419 5.543419l-44.5982 0c-3.0615451 0 -5.543418 -2.4818726 -5.543418 -5.543419z" fill-rule="evenodd"/><path stroke="#005a8e" stroke-width="1.0" stroke-linejoin="round" stroke-linecap="butt" d="m0 42.51717l0 0c0 -3.0615425 2.4818728 -5.543415 5.543418 -5.543415l44.5982 0c1.4702072 0 2.8801956 0.58403397 3.9197884 1.6236267c1.0395927 1.0395927 1.6236305 2.449585 1.6236305 3.9197884l0 22.173008c0 3.0615463 -2.4818726 5.543419 -5.543419 5.543419l-44.5982 0c-3.0615451 0 -5.543418 -2.4818726 -5.543418 -5.543419z" fill-rule="evenodd"/><path fill="#005a8e" d="m64.0 42.51717l0 0c0 -3.0615425 2.4818726 -5.543415 5.543419 -5.543415l44.598206 0c1.4701996 0 2.8801956 0.58403397 3.9197845 1.6236267c1.0395966 1.0395927 1.6236267 2.449585 1.6236267 3.9197884l0 22.173008c0 3.0615463 -2.4818726 5.543419 -5.5434113 5.543419l-44.598206 0c-3.0615463 0 -5.543419 -2.4818726 -5.543419 -5.543419z" fill-rule="evenodd"/><path stroke="#005a8e" stroke-width="1.0" stroke-linejoin="round" stroke-linecap="butt" d="m64.0 42.51717l0 0c0 -3.0615425 2.4818726 -5.543415 5.543419 -5.543415l44.598206 0c1.4701996 0 2.8801956 0.58403397 3.9197845 1.6236267c1.0395966 1.0395927 1.6236267 2.449585 1.6236267 3.9197884l0 22.173008c0 3.0615463 -2.4818726 5.543419 -5.5434113 5.543419l-44.598206 0c-3.0615463 0 -5.543419 -2.4818726 -5.543419 -5.543419z" fill-rule="evenodd"/><path fill="#005a8e" d="m128.0 42.51717l0 0c0 -3.0615425 2.4818726 -5.543415 5.5434113 -5.543415l44.598206 0c1.4702148 0 2.8802032 0.58403397 3.9197998 1.6236267c1.0395813 1.0395927 1.6236267 2.449585 1.6236267 3.9197884l0 22.173008c0 3.0615463 -2.4818726 5.543419 -5.5434265 5.543419l-44.598206 0c-3.0615387 0 -5.5434113 -2.4818726 -5.5434113 -5.543419z" fill-rule="evenodd"/><path stroke="#005a8e" stroke-width="1.0" stroke-linejoin="round" stroke-linecap="butt" d="m128.0 42.51717l0 0c0 -3.0615425 2.4818726 -5.543415 5.5434113 -5.543415l44.598206 0c1.4702148 0 2.8802032 0.58403397 3.9197998 1.6236267c1.0395813 1.0395927 1.6236267 2.449585 1.6236267 3.9197884l0 22.173008c0 3.0615463 -2.4818726 5.543419 -5.5434265 5.543419l-44.598206 0c-3.0615387 0 -5.5434113 -2.4818726 -5.5434113 -5.543419z" fill-rule="evenodd"/><path fill="#005a8e" d="m256.0 42.51717l0 0c0 -3.0615425 2.4818726 -5.543415 5.5434265 -5.543415l44.598206 0c1.4701843 0 2.880188 0.58403397 3.9197693 1.6236267c1.0396118 1.0395927 1.6236267 2.449585 1.6236267 3.9197884l0 22.173008c0 3.0615463 -2.4818726 5.543419 -5.543396 5.543419l-44.598206 0c-3.061554 0 -5.5434265 -2.4818726 -5.5434265 -5.543419z" fill-rule="evenodd"/><path stroke="#005a8e" stroke-width="1.0" stroke-linejoin="round" stroke-linecap="butt" d="m256.0 42.51717l0 0c0 -3.0615425 2.4818726 -5.543415 5.5434265 -5.543415l44.598206 0c1.4701843 0 2.880188 0.58403397 3.9197693 1.6236267c1.0396118 1.0395927 1.6236267 2.449585 1.6236267 3.9197884l0 22.173008c0 3.0615463 -2.4818726 5.543419 -5.543396 5.543419l-44.598206 0c-3.061554 0 -5.5434265 -2.4818726 -5.5434265 -5.543419z" fill-rule="evenodd"/><path fill="#005a8e" d="m192.0 42.51717l0 0c0 -3.0615425 2.4818726 -5.543415 5.5434113 -5.543415l44.598206 0c1.4702148 0 2.8802032 0.58403397 3.9197998 1.6236267c1.0395813 1.0395927 1.6236267 2.449585 1.6236267 3.9197884l0 22.173008c0 3.0615463 -2.4818726 5.543419 -5.5434265 5.543419l-44.598206 0c-3.0615387 0 -5.5434113 -2.4818726 -5.5434113 -5.543419z" fill-rule="evenodd"/><path stroke="#005a8e" stroke-width="1.0" stroke-linejoin="round" stroke-linecap="butt" d="m192.0 42.51717l0 0c0 -3.0615425 2.4818726 -5.543415 5.5434113 -5.543415l44.598206 0c1.4702148 0 2.8802032 0.58403397 3.9197998 1.6236267c1.0395813 1.0395927 1.6236267 2.449585 1.6236267 3.9197884l0 22.173008c0 3.0615463 -2.4818726 5.543419 -5.5434265 5.543419l-44.598206 0c-3.0615387 0 -5.5434113 -2.4818726 -5.5434113 -5.543419z" fill-rule="evenodd"/><path fill="#000000" fill-opacity="0.0" d="m26.16273 36.818268c5.405075 -5.677603 21.25678 -33.92957 32.430443 -34.065617c11.173664 -0.13604546 28.84296 27.707787 34.611553 33.249344" fill-rule="evenodd"/><path stroke="#ff9750" stroke-width="3.0" stroke-linejoin="round" stroke-linecap="butt" d="m36.787098 22.288204l0.12130737 -0.16783333c0.35615158 -0.48916817 0.71650314 -0.9802704 1.0805931 -1.4717636c0.72818375 -0.98298264 1.4713249 -1.9675198 2.225731 -2.9412308c6.0352707 -7.7896976 12.791618 -14.886702 18.378445 -14.954724c5.586834 -0.06802273 12.797573 6.858923 19.332676 14.49557c0.81689453 0.9545803 1.6232224 1.9202518 2.414505 2.8847332c0.39564514 0.48224258 0.78752136 0.9641876 1.1750793 1.4442997l0.35432434 0.44194794" fill-rule="evenodd"/><path fill="#ff9750" stroke="#ff9750" stroke-width="3.0" stroke-linecap="butt" d="m32.787132 19.363436l-4.0357704 13.914579l12.035698 -8.065041z" fill-rule="evenodd"/><path fill="#ff9750" stroke="#ff9750" stroke-width="3.0" stroke-linecap="butt" d="m78.020454 25.139591l12.422501 7.455494l-4.723892 -13.69627z" fill-rule="evenodd"/><path fill="#000000" fill-opacity="0.0" d="m90.16273 36.818268c5.405075 -5.677603 21.256783 -33.92957 32.43045 -34.065617c11.173668 -0.13604546 28.842949 27.707787 34.61155 33.249344" fill-rule="evenodd"/><path stroke="#ff9750" stroke-width="3.0" stroke-linejoin="round" stroke-linecap="butt" d="m100.787094 22.288204l0.12130737 -0.16783333c0.35614777 -0.48916817 0.71650696 -0.9802704 1.0805969 -1.4717636c0.72817993 -0.98298264 1.4713211 -1.9675198 2.225731 -2.9412308c6.0352707 -7.7896976 12.791603 -14.886702 18.378448 -14.954724c5.5868454 -0.06802273 12.797569 6.858923 19.33268 14.49557c0.8168793 0.9545803 1.6232147 1.9202518 2.414505 2.8847332c0.39562988 0.48224258 0.78752136 0.9641876 1.1750793 1.4442997l0.35432434 0.44194794" fill-rule="evenodd"/><path fill="#ff9750" stroke="#ff9750" stroke-width="3.0" stroke-linecap="butt" d="m96.78713 19.363436l-4.035774 13.914579l12.035698 -8.0650425z" fill-rule="evenodd"/><path fill="#ff9750" stroke="#ff9750" stroke-width="3.0" stroke-linecap="butt" d="m142.02045 25.139591l12.422516 7.455494l-4.723892 -13.696272z" fill-rule="evenodd"/><path fill="#000000" fill-opacity="0.0" d="m154.16273 36.004528c10.576111 -5.54191 41.59314 -33.118656 63.45665 -33.25145c21.86351 -0.13279414 56.43701 27.04557 67.72443 32.454685" fill-rule="evenodd"/><path stroke="#ff9750" stroke-width="3.0" stroke-linejoin="round" stroke-linecap="butt" d="m169.07611 25.925303l0.087127686 -0.06185913c1.2788391 -0.9051132 2.60141 -1.8358974 3.960495 -2.7802773c2.7181244 -1.8887615 5.582245 -3.8318996 8.534546 -5.7327805c11.809204 -7.603525 25.029343 -14.5309105 35.961105 -14.597308c10.931763 -0.06639695 25.041 6.694996 37.828247 14.149127c3.1968079 1.863533 6.310974 3.770361 9.272247 5.624626c1.4806213 0.92713165 2.9230347 1.8411236 4.31839 2.729992l0.92892456 0.5935936" fill-rule="evenodd"/><path fill="#ff9750" stroke="#ff9750" stroke-width="3.0" stroke-linecap="butt" d="m166.30142 21.819813l-8.505035 11.728909l14.054428 -3.517931z" fill-rule="evenodd"/><path fill="#ff9750" stroke="#ff9750" stroke-width="3.0" stroke-linecap="butt" d="m267.3912 30.083424l14.206055 2.8444176l-9.054108 -11.310432z" fill-rule="evenodd"/><path fill="#ff0000" d="m207.29112 48.58573l4.2840576 -5.6763687l8.267334 6.239502l8.267349 -6.239502l4.2840424 5.6763687l-6.648758 5.0179443l6.648758 5.0179405l-4.2840424 5.6763725l-8.267349 -6.239506l-8.267334 6.239506l-4.2840576 -5.6763725l6.648773 -5.0179405z" fill-rule="evenodd"/><path stroke="#ff0000" stroke-width="1.0" stroke-linejoin="round" stroke-linecap="butt" d="m207.29112 48.58573l4.2840576 -5.6763687l8.267334 6.239502l8.267349 -6.239502l4.2840424 5.6763687l-6.648758 5.0179443l6.648758 5.0179405l-4.2840424 5.6763725l-8.267349 -6.239506l-8.267334 6.239506l-4.2840576 -5.6763725l6.648773 -5.0179405z" fill-rule="evenodd"/></g></svg>