<svg xmlns="http://www.w3.org/2000/svg" xmlns:xlink="http://www.w3.org/1999/xlink" xmlns:lucid="lucid" width="940" height="1182.6"><g transform="translate(1620 102.60000000000002)" lucid:page-tab-id="0_0"><path d="M-2000-500h1500v2000h-1500z" fill="#fff"/><path d="M-1600 46c0-3.3 2.7-6 6-6h888c3.3 0 6 2.7 6 6v105.4c0 3.3-2.7 6-6 6h-888c-3.3 0-6-2.7-6-6z" stroke="#000" stroke-opacity="0" stroke-width="3" fill="#b2d6ef"/><path d="M-1156.2-76.6c0-3.3 2.7-6 6-6h159.78c3.3 0 6 2.7 6 6v68c0 3.3-2.7 6-6 6h-159.77c-3.3 0-6-2.7-6-6z" stroke="#333" stroke-width="2" fill="#fff"/><use xlink:href="#a" transform="matrix(1,0,0,1,-1151.1851211072665,-77.60000000000002) translate(45.599999999999994 38.4625)"/><path d="M-1600 206c0-3.3 2.7-6 6-6h888c3.3 0 6 2.7 6 6v848c0 3.3-2.7 6-6 6h-888c-3.3 0-6-2.7-6-6z" stroke="#000" stroke-opacity="0" stroke-width="3" fill="#ffdba9"/><path d="M-1560 486c0-3.3 2.7-6 6-6h808c3.3 0 6 2.7 6 6v528c0 3.3-2.7 6-6 6h-808c-3.3 0-6-2.7-6-6z" stroke="#ef8d22" stroke-width="2" fill="#fff"/><path d="M-1151.76 666c0-3.3 2.68-6 6-6H-986c3.3 0 6 2.7 6 6v308c0 3.3-2.7 6-6 6h-159.76c-3.32 0-6-2.7-6-6z" fill="#ffdba9"/><path d="M-1124.46 660h21.3m10.65 0h21.3m10.64 0h21.3m10.66 0h21.3m10.65 0H-986l3.03.82 2.15 2.15.82 3.03v10.27m0 10.26v20.54m0 10.26v20.54m0 10.26v20.54m0 10.26v20.54m0 10.26v20.54m0 10.26v20.54m0 10.26v20.54m0 10.26v20.54m0 10.26v20.54m0 10.26V974l-.82 3.03-2.15 2.15-3.03.82h-10.65m-10.65 0h-21.3m-10.65 0h-21.3m-10.66 0h-21.3m-10.66 0h-21.3m-10.65 0h-10.66l-3.03-.82-2.15-2.15-.8-3.03v-10.27m0-10.26v-20.54m0-10.26v-20.54m0-10.26v-20.54m0-10.26v-20.54m0-10.26v-20.54m0-10.26v-20.54m0-10.26v-20.54m0-10.26v-20.54m0-10.26v-20.54m0-10.26V666l.8-3.03 2.16-2.15 3.04-.82h10.65" stroke="#ef8d22" stroke-width="2" fill="none"/><path d="M-1121.76 866c0-3.3 2.68-6 6-6h99.76c3.3 0 6 2.7 6 6v76.8c0 3.3-2.7 6-6 6h-99.76c-3.32 0-6-2.7-6-6z" stroke="#000" stroke-opacity="0" stroke-width="3" fill="#ef8d22"/><use xlink:href="#b" transform="matrix(1,0,0,1,-1109.7647058823532,872) translate(3.049999999999997 24.55625)"/><use xlink:href="#c" transform="matrix(1,0,0,1,-1109.7647058823532,872) translate(24.025 46.15625)"/><path d="M-1121.76 705.2c0-3.3 2.68-6 6-6h99.76c3.3 0 6 2.7 6 6v68c0 3.3-2.7 6-6 6h-99.76c-3.32 0-6-2.7-6-6z" stroke="#000" stroke-opacity="0" stroke-width="3" fill="#ef8d22"/><use xlink:href="#b" transform="matrix(1,0,0,1,-1109.7647058823532,711.2000000000465) translate(3.049999999999997 21.4)"/><use xlink:href="#d" transform="matrix(1,0,0,1,-1109.7647058823532,711.2000000000465) translate(11.100000000000001 43)"/><path d="M-1065.88 859v-61.3" stroke="#5e5e5e" stroke-width="2" fill="none"/><path d="M-1064.88 860h-2v-1.03h2" fill="#5e5e5e"/><path d="M-1065.88 782.44l4.63 14.26h-9.27z" stroke="#5e5e5e" stroke-width="2" fill="#5e5e5e"/><path d="M-1160 666c0-3.3 2.7-6 6-6h168c3.3 0 6 2.7 6 6v28c0 3.3-2.7 6-6 6h-168c-3.3 0-6-2.7-6-6z" stroke="#000" stroke-opacity="0" stroke-width="3" fill="#fff" fill-opacity="0"/><use xlink:href="#e" transform="matrix(1,0,0,1,-1155,665) translate(0 21.51111111111108)"/><use xlink:href="#f" transform="matrix(1,0,0,1,-1155,665) translate(49.22160493827153 21.51111111111108)"/><path d="M-1560 486c0-3.3 2.7-6 6-6h179.76c3.32 0 6 2.7 6 6v28c0 3.3-2.68 6-6 6H-1554c-3.3 0-6-2.7-6-6z" stroke="#000" stroke-opacity="0" stroke-width="3" fill="#fff" fill-opacity="0"/><use xlink:href="#g" transform="matrix(1,0,0,1,-1555,485) translate(0 21.51111111111108)"/><use xlink:href="#h" transform="matrix(1,0,0,1,-1555,485) translate(129.81358024691338 21.51111111111108)"/><path d="M-1151.76 506c0-3.3 2.68-6 6-6H-986c3.3 0 6 2.7 6 6v68c0 3.3-2.7 6-6 6h-159.76c-3.32 0-6-2.7-6-6z" stroke="#000" stroke-opacity="0" stroke-width="3" fill="#ef8d22"/><use xlink:href="#i" transform="matrix(1,0,0,1,-1139.7647058823532,511.99999999999994) translate(4.574999999999989 21.4)"/><use xlink:href="#j" transform="matrix(1,0,0,1,-1139.7647058823532,511.99999999999994) translate(36.575 43)"/><path d="M-1065.88 598.5v99.7" stroke="#5e5e5e" stroke-width="2" fill="none"/><path d="M-1065.88 583.24l4.63 14.26h-9.27z" stroke="#5e5e5e" stroke-width="2" fill="#5e5e5e"/><path d="M-1064.88 699.2h-2v-1.03h2" fill="#5e5e5e"/><path d="M-1600 206c0-3.3 2.7-6 6-6h168c3.3 0 6 2.7 6 6v28c0 3.3-2.7 6-6 6h-168c-3.3 0-6-2.7-6-6z" stroke="#000" stroke-opacity="0" stroke-width="3" fill="#fff" fill-opacity="0"/><use xlink:href="#k" transform="matrix(1,0,0,1,-1595,205) translate(0 21.51111111111108)"/><use xlink:href="#l" transform="matrix(1,0,0,1,-1595,205) translate(101.5055555555554 21.51111111111108)"/><path d="M-1151.76 66c0-3.3 2.68-6 6-6H-986c3.3 0 6 2.7 6 6v68c0 3.3-2.7 6-6 6h-159.76c-3.32 0-6-2.7-6-6z" stroke="#000" stroke-opacity="0" stroke-width="3" fill="#0c7cba"/><use xlink:href="#m" transform="matrix(1,0,0,1,-1139.7647058823532,72) translate(16.049999999999997 31.9)"/><use xlink:href="#n" transform="matrix(1,0,0,1,-1139.7647058823532,72) translate(102.95 31.9)"/><path d="M-1600 46c0-3.3 2.7-6 6-6h208c3.3 0 6 2.7 6 6v28c0 3.3-2.7 6-6 6h-208c-3.3 0-6-2.7-6-6z" stroke="#000" stroke-opacity="0" stroke-width="3" fill="#fff" fill-opacity="0"/><use xlink:href="#o" transform="matrix(1,0,0,1,-1595,45) translate(0 21.51111111111108)"/><use xlink:href="#p" transform="matrix(1,0,0,1,-1595,45) translate(123.76358024691339 21.51111111111108)"/><path d="M-1065.88 458.5V499" stroke="#5e5e5e" stroke-width="2" fill="none"/><path d="M-1065.88 443.24l4.63 14.26h-9.27z" stroke="#5e5e5e" stroke-width="2" fill="#5e5e5e"/><path d="M-1064.88 500h-2v-1.03h2" fill="#5e5e5e"/><path d="M-1065.88 321v20.5" stroke="#5e5e5e" stroke-width="2" fill="none"/><path d="M-1064.88 321.03h-2V320h2" fill="#5e5e5e"/><path d="M-1065.88 356.76l-4.64-14.26h9.27z" stroke="#5e5e5e" stroke-width="2" fill="#5e5e5e"/><path d="M-1065.88 141v80.5" stroke="#5e5e5e" stroke-width="2" fill="none"/><path d="M-1064.88 141.03h-2V140h2" fill="#5e5e5e"/><path d="M-1065.88 236.76l-4.64-14.26h9.27z" stroke="#5e5e5e" stroke-width="2" fill="#5e5e5e"/><path d="M-1065.88-.6v42.1" stroke="#5e5e5e" stroke-width="2" fill="none"/><path d="M-1064.88-.57h-2V-1.6h2" fill="#5e5e5e"/><path d="M-1065.88 56.76l-4.64-14.26h9.27z" stroke="#5e5e5e" stroke-width="2" fill="#5e5e5e"/><path d="M-1520 666c0-3.3 2.7-6 6-6h308c3.3 0 6 2.7 6 6v308c0 3.3-2.7 6-6 6h-308c-3.3 0-6-2.7-6-6z" fill="#ffdba9"/><path d="M-1493.47 660h20.54m10.26 0h20.54m10.26 0h20.54m10.26 0h20.54m10.26 0h20.54m10.26 0h20.54m10.26 0h20.54m10.26 0h20.54m10.26 0h20.54m10.26 0h10.27l3.03.82 2.15 2.15.82 3.03v10.27m0 10.26v20.54m0 10.26v20.54m0 10.26v20.54m0 10.26v20.54m0 10.26v20.54m0 10.26v20.54m0 10.26v20.54m0 10.26v20.54m0 10.26v20.54m0 10.26V974l-.82 3.03-2.15 2.15-3.03.82h-10.27m-10.26 0h-20.54m-10.26 0h-20.54m-10.26 0h-20.54m-10.26 0h-20.54m-10.26 0h-20.54m-10.26 0h-20.54m-10.26 0h-20.54m-10.26 0h-20.54m-10.26 0h-20.54m-10.26 0H-1514l-3.03-.82-2.15-2.15-.82-3.03v-10.27m0-10.26v-20.54m0-10.26v-20.54m0-10.26v-20.54m0-10.26v-20.54m0-10.26v-20.54m0-10.26v-20.54m0-10.26v-20.54m0-10.26v-20.54m0-10.26v-20.54m0-10.26V666l.82-3.03 2.15-2.15 3.03-.82h10.27" stroke="#ef8d22" stroke-width="2" fill="none"/><path d="M-1520 666c0-3.3 2.7-6 6-6h129.55c3.3 0 6 2.7 6 6v28c0 3.3-2.7 6-6 6H-1514c-3.3 0-6-2.7-6-6z" stroke="#000" stroke-opacity="0" stroke-width="3" fill="#fff" fill-opacity="0"/><use xlink:href="#q" transform="matrix(1,0,0,1,-1515,665) translate(0 21.51111111111108)"/><path d="M-1340 866.8c0-3.3 2.7-6 6-6h108c3.3 0 6 2.7 6 6v76.8c0 3.3-2.7 6-6 6h-108c-3.3 0-6-2.7-6-6z" stroke="#000" stroke-opacity="0" stroke-width="3" fill="#ef8d22"/><use xlink:href="#b" transform="matrix(1,0,0,1,-1328,872.7999999999535) translate(7.049999999999997 24.55625)"/><use xlink:href="#c" transform="matrix(1,0,0,1,-1328,872.7999999999535) translate(28.025 46.15625)"/><path d="M-1420 706c0-3.3 2.7-6 6-6h108c3.3 0 6 2.7 6 6v68c0 3.3-2.7 6-6 6h-108c-3.3 0-6-2.7-6-6z" stroke="#000" stroke-opacity="0" stroke-width="3" fill="#ef8d22"/><use xlink:href="#b" transform="matrix(1,0,0,1,-1408,712) translate(7.049999999999997 21.4)"/><use xlink:href="#d" transform="matrix(1,0,0,1,-1408,712) translate(15.100000000000001 43)"/><path d="M-1280 859.8v-33.4c0-3.3-2.7-6-6-6h-68c-3.3 0-6-2.7-6-6v-15.9" stroke="#5e5e5e" stroke-width="2" fill="none"/><path d="M-1279 860.8h-2v-1.03h2" fill="#5e5e5e"/><path d="M-1360 783.24l4.64 14.26h-9.28z" stroke="#5e5e5e" stroke-width="2" fill="#5e5e5e"/><path d="M-1500 866c0-3.3 2.7-6 6-6h108c3.3 0 6 2.7 6 6v76.8c0 3.3-2.7 6-6 6h-108c-3.3 0-6-2.7-6-6z" stroke="#000" stroke-opacity="0" stroke-width="3" fill="#ef8d22"/><use xlink:href="#r" transform="matrix(1,0,0,1,-1488,872) translate(10.049999999999997 36.74375)"/><path d="M-1440 859v-33c0-3.3 2.7-6 6-6h68c3.3 0 6-2.7 6-6v-15.5" stroke="#5e5e5e" stroke-width="2" fill="none"/><path d="M-1439 860h-2v-1.03h2" fill="#5e5e5e"/><path d="M-1360 783.24l4.64 14.26h-9.28z" stroke="#5e5e5e" stroke-width="2" fill="#5e5e5e"/><path d="M-1065.88 598.5V624c0 3.3-2.7 6-6 6H-1354c-3.3 0-6 2.7-6 6v63" stroke="#5e5e5e" stroke-width="2" fill="none"/><path d="M-1065.88 583.24l4.63 14.26h-9.27z" stroke="#5e5e5e" stroke-width="2" fill="#5e5e5e"/><path d="M-1359 700h-2v-1.03h2" fill="#5e5e5e"/><path d="M-934.12 666c0-3.3 2.7-6 6-6h148c3.32 0 6 2.7 6 6v308c0 3.3-2.68 6-6 6h-148c-3.3 0-6-2.7-6-6z" fill="#ffdba9"/><path d="M-908.38 660h19.73m9.87 0h19.73m9.87 0h19.73m9.87 0h19.73m9.87 0h9.86l3.03.82 2.16 2.15.82 3.03v10.27m0 10.26v20.54m0 10.26v20.54m0 10.26v20.54m0 10.26v20.54m0 10.26v20.54m0 10.26v20.54m0 10.26v20.54m0 10.26v20.54m0 10.26v20.54m0 10.26V974l-.82 3.03-2.15 2.15-3.02.82h-9.86m-9.87 0h-19.73m-9.87 0h-19.73m-9.87 0h-19.73m-9.87 0h-19.73m-9.87 0h-9.87l-3.03-.82-2.15-2.15-.82-3.03v-10.27m0-10.26v-20.54m0-10.26v-20.54m0-10.26v-20.54m0-10.26v-20.54m0-10.26v-20.54m0-10.26v-20.54m0-10.26v-20.54m0-10.26v-20.54m0-10.26v-20.54m0-10.26V666l.82-3.03 2.15-2.15 3.03-.82h9.87" stroke="#ef8d22" stroke-width="2" fill="none"/><path d="M-915.88 866c0-3.3 2.68-6 6-6h99.76c3.32 0 6 2.7 6 6v76.8c0 3.3-2.68 6-6 6h-99.76c-3.32 0-6-2.7-6-6z" stroke="#000" stroke-opacity="0" stroke-width="3" fill="#ef8d22"/><use xlink:href="#b" transform="matrix(1,0,0,1,-903.8823529411766,872) translate(3.049999999999997 24.55625)"/><use xlink:href="#c" transform="matrix(1,0,0,1,-903.8823529411766,872) translate(24.025 46.15625)"/><path d="M-915.88 705.2c0-3.3 2.68-6 6-6h99.76c3.32 0 6 2.7 6 6v68c0 3.3-2.68 6-6 6h-99.76c-3.32 0-6-2.7-6-6z" stroke="#000" stroke-opacity="0" stroke-width="3" fill="#ef8d22"/><use xlink:href="#b" transform="matrix(1,0,0,1,-903.8823529411766,711.2000000000465) translate(3.049999999999997 21.4)"/><use xlink:href="#d" transform="matrix(1,0,0,1,-903.8823529411766,711.2000000000465) translate(11.100000000000001 43)"/><path d="M-860 859v-61.3" stroke="#5e5e5e" stroke-width="2" fill="none"/><path d="M-859 860h-2v-1.03h2" fill="#5e5e5e"/><path d="M-860 782.44l4.64 14.26h-9.28z" stroke="#5e5e5e" stroke-width="2" fill="#5e5e5e"/><path d="M-934.12 666c0-3.3 2.7-6 6-6h168c3.32 0 6 2.7 6 6v28c0 3.3-2.68 6-6 6h-168c-3.3 0-6-2.7-6-6z" stroke="#000" stroke-opacity="0" stroke-width="3" fill="#fff" fill-opacity="0"/><g><use xlink:href="#s" transform="matrix(1,0,0,1,-929.1176470588234,665) translate(0 21.51111111111108)"/></g><path d="M-1065.88 598.5V624c0 3.3 2.68 6 6 6H-866c3.3 0 6 2.7 6 6v62.2" stroke="#5e5e5e" stroke-width="2" fill="none"/><path d="M-1065.88 583.24l4.63 14.26h-9.27z" stroke="#5e5e5e" stroke-width="2" fill="#5e5e5e"/><path d="M-859 699.2h-2v-1.03h2" fill="#5e5e5e"/><path d="M-1151.76 366c0-3.3 2.68-6 6-6H-986c3.3 0 6 2.7 6 6v68c0 3.3-2.7 6-6 6h-159.76c-3.32 0-6-2.7-6-6z" stroke="#000" stroke-opacity="0" stroke-width="3" fill="#ef8d22"/><g><use xlink:href="#t" transform="matrix(1,0,0,1,-1139.7647058823532,372) translate(27.049999999999997 21.4)"/><use xlink:href="#u" transform="matrix(1,0,0,1,-1139.7647058823532,372) translate(47.025 43)"/></g><path d="M-1151.76 246c0-3.3 2.68-6 6-6H-986c3.3 0 6 2.7 6 6v68c0 3.3-2.7 6-6 6h-159.76c-3.32 0-6-2.7-6-6z" stroke="#000" stroke-opacity="0" stroke-width="3" fill="#ef8d22"/><g><use xlink:href="#v" transform="matrix(1,0,0,1,-1139.7647058823532,252) translate(33.12499999999999 31.9)"/></g><defs><path fill="#333" d="M240-174c0 40-23 61-54 70L253 0h-59l-57-94H76V0H24v-248c93 4 217-23 216 74zM76-134c48-2 112 12 112-38 0-48-66-32-112-35v73" id="w"/><path fill="#333" d="M185-48c-13 30-37 53-82 52C43 2 14-33 14-96s30-98 90-98c62 0 83 45 84 108H66c0 31 8 55 39 56 18 0 30-7 34-22zm-45-69c5-46-57-63-70-21-2 6-4 13-4 21h74" id="x"/><path fill="#333" d="M84 4C32 4 15-41 15-95c0-55 18-99 73-99 29 0 47 12 58 34l2-30h48l-1 265h-49V-32C136-9 114 4 84 4zm21-34c32 0 41-29 41-66 0-36-9-64-40-64-33 0-39 30-40 65 0 43 13 65 39 65" id="y"/><path fill="#333" d="M85 4C-2 5 27-109 22-190h50c7 57-23 150 33 157 60-5 35-97 40-157h50l1 190h-47c-2-12 1-28-3-38-12 25-28 42-61 42" id="z"/><path fill="#333" d="M137-138c1-29-70-34-71-4 15 46 118 7 119 86 1 83-164 76-172 9l43-7c4 19 20 25 44 25 33 8 57-30 24-41C81-84 22-81 20-136c-2-80 154-74 161-7" id="A"/><path fill="#333" d="M115-3C79 11 28 4 28-45v-112H4v-33h27l15-45h31v45h36v33H77v99c-1 23 16 31 38 25v30" id="B"/><g id="a"><use transform="matrix(0.05,0,0,0.05,0,0)" xlink:href="#w"/><use transform="matrix(0.05,0,0,0.05,12.950000000000001,0)" xlink:href="#x"/><use transform="matrix(0.05,0,0,0.05,22.950000000000003,0)" xlink:href="#y"/><use transform="matrix(0.05,0,0,0.05,33.900000000000006,0)" xlink:href="#z"/><use transform="matrix(0.05,0,0,0.05,44.85000000000001,0)" xlink:href="#x"/><use transform="matrix(0.05,0,0,0.05,54.85,0)" xlink:href="#A"/><use transform="matrix(0.05,0,0,0.05,64.85000000000001,0)" xlink:href="#B"/></g><path fill="#fff" d="M30-248c118-7 216 8 213 122C240-48 200 0 122 0H30v-248zM63-27c89 8 146-16 146-99s-60-101-146-95v194" id="C"/><path fill="#fff" d="M100-194c62-1 85 37 85 99 1 63-27 99-86 99S16-35 15-95c0-66 28-99 85-99zM99-20c44 1 53-31 53-75 0-43-8-75-51-75s-53 32-53 75 10 74 51 75" id="D"/><path fill="#fff" d="M96-169c-40 0-48 33-48 73s9 75 48 75c24 0 41-14 43-38l32 2c-6 37-31 61-74 61-59 0-76-41-82-99-10-93 101-131 147-64 4 7 5 14 7 22l-32 3c-4-21-16-35-41-35" id="E"/><path fill="#fff" d="M84 4C-5 8 30-112 23-190h32v120c0 31 7 50 39 49 72-2 45-101 50-169h31l1 190h-30c-1-10 1-25-2-33-11 22-28 36-60 37" id="F"/><path fill="#fff" d="M210-169c-67 3-38 105-44 169h-31v-121c0-29-5-50-35-48C34-165 62-65 56 0H25l-1-190h30c1 10-1 24 2 32 10-44 99-50 107 0 11-21 27-35 58-36 85-2 47 119 55 194h-31v-121c0-29-5-49-35-48" id="G"/><path fill="#fff" d="M100-194c63 0 86 42 84 106H49c0 40 14 67 53 68 26 1 43-12 49-29l28 8c-11 28-37 45-77 45C44 4 14-33 15-96c1-61 26-98 85-98zm52 81c6-60-76-77-97-28-3 7-6 17-6 28h103" id="H"/><path fill="#fff" d="M117-194c89-4 53 116 60 194h-32v-121c0-31-8-49-39-48C34-167 62-67 57 0H25l-1-190h30c1 10-1 24 2 32 11-22 29-35 61-36" id="I"/><path fill="#fff" d="M59-47c-2 24 18 29 38 22v24C64 9 27 4 27-40v-127H5v-23h24l9-43h21v43h35v23H59v120" id="J"/><g id="b"><use transform="matrix(0.05,0,0,0.05,0,0)" xlink:href="#C"/><use transform="matrix(0.05,0,0,0.05,12.950000000000001,0)" xlink:href="#D"/><use transform="matrix(0.05,0,0,0.05,22.950000000000003,0)" xlink:href="#E"/><use transform="matrix(0.05,0,0,0.05,31.950000000000003,0)" xlink:href="#F"/><use transform="matrix(0.05,0,0,0.05,41.95,0)" xlink:href="#G"/><use transform="matrix(0.05,0,0,0.05,56.900000000000006,0)" xlink:href="#H"/><use transform="matrix(0.05,0,0,0.05,66.9,0)" xlink:href="#I"/><use transform="matrix(0.05,0,0,0.05,76.9,0)" xlink:href="#J"/></g><path fill="#fff" d="M135-143c-3-34-86-38-87 0 15 53 115 12 119 90S17 21 10-45l28-5c4 36 97 45 98 0-10-56-113-15-118-90-4-57 82-63 122-42 12 7 21 19 24 35" id="K"/><path fill="#fff" d="M114-163C36-179 61-72 57 0H25l-1-190h30c1 12-1 29 2 39 6-27 23-49 58-41v29" id="L"/><g id="c"><use transform="matrix(0.05,0,0,0.05,0,0)" xlink:href="#K"/><use transform="matrix(0.05,0,0,0.05,9,0)" xlink:href="#J"/><use transform="matrix(0.05,0,0,0.05,14,0)" xlink:href="#D"/><use transform="matrix(0.05,0,0,0.05,24,0)" xlink:href="#L"/><use transform="matrix(0.05,0,0,0.05,29.950000000000003,0)" xlink:href="#H"/></g><path fill="#fff" d="M24-231v-30h32v30H24zM24 0v-190h32V0H24" id="M"/><path fill="#fff" d="M108 0H70L1-190h34L89-25l56-165h34" id="N"/><g id="d"><use transform="matrix(0.05,0,0,0.05,0,0)" xlink:href="#L"/><use transform="matrix(0.05,0,0,0.05,5.95,0)" xlink:href="#H"/><use transform="matrix(0.05,0,0,0.05,15.949999999999998,0)" xlink:href="#J"/><use transform="matrix(0.05,0,0,0.05,20.95,0)" xlink:href="#L"/><use transform="matrix(0.05,0,0,0.05,26.899999999999995,0)" xlink:href="#M"/><use transform="matrix(0.05,0,0,0.05,30.849999999999994,0)" xlink:href="#H"/><use transform="matrix(0.05,0,0,0.05,40.849999999999994,0)" xlink:href="#N"/><use transform="matrix(0.05,0,0,0.05,49.849999999999994,0)" xlink:href="#H"/><use transform="matrix(0.05,0,0,0.05,59.849999999999994,0)" xlink:href="#L"/></g><path fill="#333" d="M190 0L58-211 59 0H30v-248h39L202-35l-2-213h31V0h-41" id="O"/><path fill="#333" d="M100-194c62-1 85 37 85 99 1 63-27 99-86 99S16-35 15-95c0-66 28-99 85-99zM99-20c44 1 53-31 53-75 0-43-8-75-51-75s-53 32-53 75 10 74 51 75" id="P"/><path fill="#333" d="M59-47c-2 24 18 29 38 22v24C64 9 27 4 27-40v-127H5v-23h24l9-43h21v43h35v23H59v120" id="Q"/><g id="e"><use transform="matrix(0.07469135802469125,0,0,0.07469135802469125,0,0)" xlink:href="#O"/><use transform="matrix(0.07469135802469125,0,0,0.07469135802469125,19.345061728395034,0)" xlink:href="#P"/><use transform="matrix(0.07469135802469125,0,0,0.07469135802469125,34.28333333333328,0)" xlink:href="#Q"/></g><path fill="#333" d="M114-163C36-179 61-72 57 0H25l-1-190h30c1 12-1 29 2 39 6-27 23-49 58-41v29" id="R"/><path fill="#333" d="M100-194c63 0 86 42 84 106H49c0 40 14 67 53 68 26 1 43-12 49-29l28 8c-11 28-37 45-77 45C44 4 14-33 15-96c1-61 26-98 85-98zm52 81c6-60-76-77-97-28-3 7-6 17-6 28h103" id="S"/><path fill="#333" d="M141-36C126-15 110 5 73 4 37 3 15-17 15-53c-1-64 63-63 125-63 3-35-9-54-41-54-24 1-41 7-42 31l-33-3c5-37 33-52 76-52 45 0 72 20 72 64v82c-1 20 7 32 28 27v20c-31 9-61-2-59-35zM48-53c0 20 12 33 32 33 41-3 63-29 60-74-43 2-92-5-92 41" id="T"/><path fill="#333" d="M85-194c31 0 48 13 60 33l-1-100h32l1 261h-30c-2-10 0-23-3-31C134-8 116 4 85 4 32 4 16-35 15-94c0-66 23-100 70-100zm9 24c-40 0-46 34-46 75 0 40 6 74 45 74 42 0 51-32 51-76 0-42-9-74-50-73" id="U"/><path fill="#333" d="M179-190L93 31C79 59 56 82 12 73V49c39 6 53-20 64-50L1-190h34L92-34l54-156h33" id="V"/><g id="f"><use transform="matrix(0.07469135802469125,0,0,0.07469135802469125,0,0)" xlink:href="#R"/><use transform="matrix(0.07469135802469125,0,0,0.07469135802469125,8.888271604938259,0)" xlink:href="#S"/><use transform="matrix(0.07469135802469125,0,0,0.07469135802469125,23.826543209876508,0)" xlink:href="#T"/><use transform="matrix(0.07469135802469125,0,0,0.07469135802469125,38.764814814814756,0)" xlink:href="#U"/><use transform="matrix(0.07469135802469125,0,0,0.07469135802469125,53.70308641975301,0)" xlink:href="#V"/></g><path fill="#333" d="M30-248c118-7 216 8 213 122C240-48 200 0 122 0H30v-248zM63-27c89 8 146-16 146-99s-60-101-146-95v194" id="W"/><path fill="#333" d="M96-169c-40 0-48 33-48 73s9 75 48 75c24 0 41-14 43-38l32 2c-6 37-31 61-74 61-59 0-76-41-82-99-10-93 101-131 147-64 4 7 5 14 7 22l-32 3c-4-21-16-35-41-35" id="X"/><path fill="#333" d="M84 4C-5 8 30-112 23-190h32v120c0 31 7 50 39 49 72-2 45-101 50-169h31l1 190h-30c-1-10 1-25-2-33-11 22-28 36-60 37" id="Y"/><path fill="#333" d="M210-169c-67 3-38 105-44 169h-31v-121c0-29-5-50-35-48C34-165 62-65 56 0H25l-1-190h30c1 10-1 24 2 32 10-44 99-50 107 0 11-21 27-35 58-36 85-2 47 119 55 194h-31v-121c0-29-5-49-35-48" id="Z"/><path fill="#333" d="M117-194c89-4 53 116 60 194h-32v-121c0-31-8-49-39-48C34-167 62-67 57 0H25l-1-190h30c1 10-1 24 2 32 11-22 29-35 61-36" id="aa"/><g id="g"><use transform="matrix(0.07469135802469125,0,0,0.07469135802469125,0,0)" xlink:href="#W"/><use transform="matrix(0.07469135802469125,0,0,0.07469135802469125,19.345061728395034,0)" xlink:href="#P"/><use transform="matrix(0.07469135802469125,0,0,0.07469135802469125,34.28333333333328,0)" xlink:href="#X"/><use transform="matrix(0.07469135802469125,0,0,0.07469135802469125,47.727777777777696,0)" xlink:href="#Y"/><use transform="matrix(0.07469135802469125,0,0,0.07469135802469125,62.666049382715954,0)" xlink:href="#Z"/><use transform="matrix(0.07469135802469125,0,0,0.07469135802469125,84.99876543209864,0)" xlink:href="#S"/><use transform="matrix(0.07469135802469125,0,0,0.07469135802469125,99.93703703703689,0)" xlink:href="#aa"/><use transform="matrix(0.07469135802469125,0,0,0.07469135802469125,114.87530864197514,0)" xlink:href="#Q"/></g><path fill="#333" d="M160-131c35 5 61 23 61 61C221 17 115-2 30 0v-248c76 3 177-17 177 60 0 33-19 50-47 57zm-97-11c50-1 110 9 110-42 0-47-63-36-110-37v79zm0 115c55-2 124 14 124-45 0-56-70-42-124-44v89" id="ab"/><g id="h"><use transform="matrix(0.07469135802469125,0,0,0.07469135802469125,0,0)" xlink:href="#W"/><use transform="matrix(0.07469135802469125,0,0,0.07469135802469125,19.345061728395034,0)" xlink:href="#ab"/></g><path fill="#fff" d="M185-189c-5-48-123-54-124 2 14 75 158 14 163 119 3 78-121 87-175 55-17-10-28-26-33-46l33-7c5 56 141 63 141-1 0-78-155-14-162-118-5-82 145-84 179-34 5 7 8 16 11 25" id="ac"/><path fill="#fff" d="M115-194c53 0 69 39 70 98 0 66-23 100-70 100C84 3 66-7 56-30L54 0H23l1-261h32v101c10-23 28-34 59-34zm-8 174c40 0 45-34 45-75 0-40-5-75-45-74-42 0-51 32-51 76 0 43 10 73 51 73" id="ad"/><path fill="#fff" d="M160-131c35 5 61 23 61 61C221 17 115-2 30 0v-248c76 3 177-17 177 60 0 33-19 50-47 57zm-97-11c50-1 110 9 110-42 0-47-63-36-110-37v79zm0 115c55-2 124 14 124-45 0-56-70-42-124-44v89" id="ae"/><g id="i"><use transform="matrix(0.05,0,0,0.05,0,0)" xlink:href="#C"/><use transform="matrix(0.05,0,0,0.05,12.950000000000001,0)" xlink:href="#D"/><use transform="matrix(0.05,0,0,0.05,22.950000000000003,0)" xlink:href="#E"/><use transform="matrix(0.05,0,0,0.05,31.950000000000003,0)" xlink:href="#F"/><use transform="matrix(0.05,0,0,0.05,41.95,0)" xlink:href="#G"/><use transform="matrix(0.05,0,0,0.05,56.900000000000006,0)" xlink:href="#H"/><use transform="matrix(0.05,0,0,0.05,66.9,0)" xlink:href="#I"/><use transform="matrix(0.05,0,0,0.05,76.9,0)" xlink:href="#J"/><use transform="matrix(0.05,0,0,0.05,81.9,0)" xlink:href="#ac"/><use transform="matrix(0.05,0,0,0.05,93.9,0)" xlink:href="#F"/><use transform="matrix(0.05,0,0,0.05,103.9,0)" xlink:href="#ad"/><use transform="matrix(0.05,0,0,0.05,113.9,0)" xlink:href="#C"/><use transform="matrix(0.05,0,0,0.05,126.85000000000001,0)" xlink:href="#ae"/></g><path fill="#fff" d="M24 0v-261h32V0H24" id="af"/><g id="j"><use transform="matrix(0.05,0,0,0.05,0,0)" xlink:href="#E"/><use transform="matrix(0.05,0,0,0.05,9,0)" xlink:href="#D"/><use transform="matrix(0.05,0,0,0.05,19,0)" xlink:href="#af"/><use transform="matrix(0.05,0,0,0.05,22.95,0)" xlink:href="#af"/><use transform="matrix(0.05,0,0,0.05,26.899999999999995,0)" xlink:href="#H"/><use transform="matrix(0.05,0,0,0.05,36.9,0)" xlink:href="#E"/><use transform="matrix(0.05,0,0,0.05,45.9,0)" xlink:href="#J"/><use transform="matrix(0.05,0,0,0.05,50.9,0)" xlink:href="#M"/><use transform="matrix(0.05,0,0,0.05,54.85,0)" xlink:href="#D"/><use transform="matrix(0.05,0,0,0.05,64.85,0)" xlink:href="#I"/></g><path fill="#ef8d22" d="M212-179c-10-28-35-45-73-45-59 0-87 40-87 99 0 60 29 101 89 101 43 0 62-24 78-52l27 14C228-24 195 4 139 4 59 4 22-46 18-125c-6-104 99-153 187-111 19 9 31 26 39 46" id="ag"/><path fill="#ef8d22" d="M100-194c62-1 85 37 85 99 1 63-27 99-86 99S16-35 15-95c0-66 28-99 85-99zM99-20c44 1 53-31 53-75 0-43-8-75-51-75s-53 32-53 75 10 74 51 75" id="ah"/><path fill="#ef8d22" d="M117-194c89-4 53 116 60 194h-32v-121c0-31-8-49-39-48C34-167 62-67 57 0H25l-1-190h30c1 10-1 24 2 32 11-22 29-35 61-36" id="ai"/><path fill="#ef8d22" d="M59-47c-2 24 18 29 38 22v24C64 9 27 4 27-40v-127H5v-23h24l9-43h21v43h35v23H59v120" id="aj"/><path fill="#ef8d22" d="M100-194c63 0 86 42 84 106H49c0 40 14 67 53 68 26 1 43-12 49-29l28 8c-11 28-37 45-77 45C44 4 14-33 15-96c1-61 26-98 85-98zm52 81c6-60-76-77-97-28-3 7-6 17-6 28h103" id="ak"/><g id="k"><use transform="matrix(0.07469135802469125,0,0,0.07469135802469125,0,0)" xlink:href="#ag"/><use transform="matrix(0.07469135802469125,0,0,0.07469135802469125,19.345061728395034,0)" xlink:href="#ah"/><use transform="matrix(0.07469135802469125,0,0,0.07469135802469125,34.28333333333328,0)" xlink:href="#ai"/><use transform="matrix(0.07469135802469125,0,0,0.07469135802469125,49.22160493827153,0)" xlink:href="#aj"/><use transform="matrix(0.07469135802469125,0,0,0.07469135802469125,56.69074074074066,0)" xlink:href="#ak"/><use transform="matrix(0.07469135802469125,0,0,0.07469135802469125,71.6290123456789,0)" xlink:href="#ai"/><use transform="matrix(0.07469135802469125,0,0,0.07469135802469125,86.56728395061715,0)" xlink:href="#aj"/></g><path fill="#ef8d22" d="M85-194c31 0 48 13 60 33l-1-100h32l1 261h-30c-2-10 0-23-3-31C134-8 116 4 85 4 32 4 16-35 15-94c0-66 23-100 70-100zm9 24c-40 0-46 34-46 75 0 40 6 74 45 74 42 0 51-32 51-76 0-42-9-74-50-73" id="al"/><g id="l"><use transform="matrix(0.07469135802469125,0,0,0.07469135802469125,0,0)" xlink:href="#ai"/><use transform="matrix(0.07469135802469125,0,0,0.07469135802469125,14.93827160493825,0)" xlink:href="#ah"/><use transform="matrix(0.07469135802469125,0,0,0.07469135802469125,29.8765432098765,0)" xlink:href="#al"/><use transform="matrix(0.07469135802469125,0,0,0.07469135802469125,44.814814814814746,0)" xlink:href="#ak"/></g><g id="m"><use transform="matrix(0.05,0,0,0.05,0,0)" xlink:href="#C"/><use transform="matrix(0.05,0,0,0.05,12.950000000000001,0)" xlink:href="#D"/><use transform="matrix(0.05,0,0,0.05,22.950000000000003,0)" xlink:href="#E"/><use transform="matrix(0.05,0,0,0.05,31.950000000000003,0)" xlink:href="#F"/><use transform="matrix(0.05,0,0,0.05,41.95,0)" xlink:href="#G"/><use transform="matrix(0.05,0,0,0.05,56.900000000000006,0)" xlink:href="#H"/><use transform="matrix(0.05,0,0,0.05,66.9,0)" xlink:href="#I"/><use transform="matrix(0.05,0,0,0.05,76.9,0)" xlink:href="#J"/></g><path fill="#fff" d="M205 0l-28-72H64L36 0H1l101-248h38L239 0h-34zm-38-99l-47-123c-12 45-31 82-46 123h93" id="am"/><path fill="#fff" d="M30-248c87 1 191-15 191 75 0 78-77 80-158 76V0H30v-248zm33 125c57 0 124 11 124-50 0-59-68-47-124-48v98" id="an"/><path fill="#fff" d="M33 0v-248h34V0H33" id="ao"/><g id="n"><use transform="matrix(0.05,0,0,0.05,0,0)" xlink:href="#am"/><use transform="matrix(0.05,0,0,0.05,12,0)" xlink:href="#an"/><use transform="matrix(0.05,0,0,0.05,24,0)" xlink:href="#ao"/></g><path fill="#0c7cba" d="M212-179c-10-28-35-45-73-45-59 0-87 40-87 99 0 60 29 101 89 101 43 0 62-24 78-52l27 14C228-24 195 4 139 4 59 4 22-46 18-125c-6-104 99-153 187-111 19 9 31 26 39 46" id="ap"/><path fill="#0c7cba" d="M100-194c62-1 85 37 85 99 1 63-27 99-86 99S16-35 15-95c0-66 28-99 85-99zM99-20c44 1 53-31 53-75 0-43-8-75-51-75s-53 32-53 75 10 74 51 75" id="aq"/><path fill="#0c7cba" d="M117-194c89-4 53 116 60 194h-32v-121c0-31-8-49-39-48C34-167 62-67 57 0H25l-1-190h30c1 10-1 24 2 32 11-22 29-35 61-36" id="ar"/><path fill="#0c7cba" d="M59-47c-2 24 18 29 38 22v24C64 9 27 4 27-40v-127H5v-23h24l9-43h21v43h35v23H59v120" id="as"/><path fill="#0c7cba" d="M141-36C126-15 110 5 73 4 37 3 15-17 15-53c-1-64 63-63 125-63 3-35-9-54-41-54-24 1-41 7-42 31l-33-3c5-37 33-52 76-52 45 0 72 20 72 64v82c-1 20 7 32 28 27v20c-31 9-61-2-59-35zM48-53c0 20 12 33 32 33 41-3 63-29 60-74-43 2-92-5-92 41" id="at"/><path fill="#0c7cba" d="M24-231v-30h32v30H24zM24 0v-190h32V0H24" id="au"/><path fill="#0c7cba" d="M100-194c63 0 86 42 84 106H49c0 40 14 67 53 68 26 1 43-12 49-29l28 8c-11 28-37 45-77 45C44 4 14-33 15-96c1-61 26-98 85-98zm52 81c6-60-76-77-97-28-3 7-6 17-6 28h103" id="av"/><path fill="#0c7cba" d="M114-163C36-179 61-72 57 0H25l-1-190h30c1 12-1 29 2 39 6-27 23-49 58-41v29" id="aw"/><g id="o"><use transform="matrix(0.07469135802469125,0,0,0.07469135802469125,0,0)" xlink:href="#ap"/><use transform="matrix(0.07469135802469125,0,0,0.07469135802469125,19.345061728395034,0)" xlink:href="#aq"/><use transform="matrix(0.07469135802469125,0,0,0.07469135802469125,34.28333333333328,0)" xlink:href="#ar"/><use transform="matrix(0.07469135802469125,0,0,0.07469135802469125,49.22160493827153,0)" xlink:href="#as"/><use transform="matrix(0.07469135802469125,0,0,0.07469135802469125,56.69074074074066,0)" xlink:href="#at"/><use transform="matrix(0.07469135802469125,0,0,0.07469135802469125,71.6290123456789,0)" xlink:href="#au"/><use transform="matrix(0.07469135802469125,0,0,0.07469135802469125,77.52962962962951,0)" xlink:href="#ar"/><use transform="matrix(0.07469135802469125,0,0,0.07469135802469125,92.46790123456776,0)" xlink:href="#av"/><use transform="matrix(0.07469135802469125,0,0,0.07469135802469125,107.40617283950601,0)" xlink:href="#aw"/></g><path fill="#0c7cba" d="M85-194c31 0 48 13 60 33l-1-100h32l1 261h-30c-2-10 0-23-3-31C134-8 116 4 85 4 32 4 16-35 15-94c0-66 23-100 70-100zm9 24c-40 0-46 34-46 75 0 40 6 74 45 74 42 0 51-32 51-76 0-42-9-74-50-73" id="ax"/><g id="p"><use transform="matrix(0.07469135802469125,0,0,0.07469135802469125,0,0)" xlink:href="#ar"/><use transform="matrix(0.07469135802469125,0,0,0.07469135802469125,14.93827160493825,0)" xlink:href="#aq"/><use transform="matrix(0.07469135802469125,0,0,0.07469135802469125,29.8765432098765,0)" xlink:href="#ax"/><use transform="matrix(0.07469135802469125,0,0,0.07469135802469125,44.814814814814746,0)" xlink:href="#av"/></g><path fill="#333" d="M233-177c-1 41-23 64-60 70L243 0h-38l-65-103H63V0H30v-248c88 3 205-21 203 71zM63-129c60-2 137 13 137-47 0-61-80-42-137-45v92" id="ay"/><g id="q"><use transform="matrix(0.07469135802469125,0,0,0.07469135802469125,0,0)" xlink:href="#ay"/><use transform="matrix(0.07469135802469125,0,0,0.07469135802469125,19.345061728395034,0)" xlink:href="#S"/><use transform="matrix(0.07469135802469125,0,0,0.07469135802469125,34.28333333333328,0)" xlink:href="#T"/><use transform="matrix(0.07469135802469125,0,0,0.07469135802469125,49.22160493827153,0)" xlink:href="#U"/><use transform="matrix(0.07469135802469125,0,0,0.07469135802469125,64.15987654320978,0)" xlink:href="#V"/></g><g id="r"><use transform="matrix(0.05,0,0,0.05,0,0)" xlink:href="#am"/><use transform="matrix(0.05,0,0,0.05,12,0)" xlink:href="#J"/><use transform="matrix(0.05,0,0,0.05,17,0)" xlink:href="#J"/><use transform="matrix(0.05,0,0,0.05,22,0)" xlink:href="#L"/><use transform="matrix(0.05,0,0,0.05,27.950000000000003,0)" xlink:href="#M"/><use transform="matrix(0.05,0,0,0.05,31.899999999999995,0)" xlink:href="#ad"/><use transform="matrix(0.05,0,0,0.05,41.9,0)" xlink:href="#F"/><use transform="matrix(0.05,0,0,0.05,51.900000000000006,0)" xlink:href="#J"/><use transform="matrix(0.05,0,0,0.05,56.900000000000006,0)" xlink:href="#H"/><use transform="matrix(0.05,0,0,0.05,66.9,0)" xlink:href="#K"/></g><path fill="#333" d="M108 0H70L1-190h34L89-25l56-165h34" id="az"/><g id="s"><use transform="matrix(0.07469135802469125,0,0,0.07469135802469125,0,0)" xlink:href="#ay"/><use transform="matrix(0.07469135802469125,0,0,0.07469135802469125,19.345061728395034,0)" xlink:href="#S"/><use transform="matrix(0.07469135802469125,0,0,0.07469135802469125,34.28333333333328,0)" xlink:href="#Z"/><use transform="matrix(0.07469135802469125,0,0,0.07469135802469125,56.616049382715964,0)" xlink:href="#P"/><use transform="matrix(0.07469135802469125,0,0,0.07469135802469125,71.55432098765421,0)" xlink:href="#az"/><use transform="matrix(0.07469135802469125,0,0,0.07469135802469125,84.99876543209864,0)" xlink:href="#S"/><use transform="matrix(0.07469135802469125,0,0,0.07469135802469125,99.93703703703689,0)" xlink:href="#U"/></g><g id="t"><use transform="matrix(0.05,0,0,0.05,0,0)" xlink:href="#an"/><use transform="matrix(0.05,0,0,0.05,12,0)" xlink:href="#H"/><use transform="matrix(0.05,0,0,0.05,22,0)" xlink:href="#L"/><use transform="matrix(0.05,0,0,0.05,27.950000000000003,0)" xlink:href="#K"/><use transform="matrix(0.05,0,0,0.05,36.95,0)" xlink:href="#M"/><use transform="matrix(0.05,0,0,0.05,40.900000000000006,0)" xlink:href="#K"/><use transform="matrix(0.05,0,0,0.05,49.900000000000006,0)" xlink:href="#J"/><use transform="matrix(0.05,0,0,0.05,54.900000000000006,0)" xlink:href="#H"/><use transform="matrix(0.05,0,0,0.05,64.9,0)" xlink:href="#I"/><use transform="matrix(0.05,0,0,0.05,74.9,0)" xlink:href="#E"/><use transform="matrix(0.05,0,0,0.05,83.9,0)" xlink:href="#H"/></g><path fill="#fff" d="M177-190C167-65 218 103 67 71c-23-6-38-20-44-43l32-5c15 47 100 32 89-28v-30C133-14 115 1 83 1 29 1 15-40 15-95c0-56 16-97 71-98 29-1 48 16 59 35 1-10 0-23 2-32h30zM94-22c36 0 50-32 50-73 0-42-14-75-50-75-39 0-46 34-46 75s6 73 46 73" id="aA"/><g id="u"><use transform="matrix(0.05,0,0,0.05,0,0)" xlink:href="#H"/><use transform="matrix(0.05,0,0,0.05,10,0)" xlink:href="#I"/><use transform="matrix(0.05,0,0,0.05,20,0)" xlink:href="#aA"/><use transform="matrix(0.05,0,0,0.05,30,0)" xlink:href="#M"/><use transform="matrix(0.05,0,0,0.05,33.95,0)" xlink:href="#I"/><use transform="matrix(0.05,0,0,0.05,43.95,0)" xlink:href="#H"/></g><g id="v"><use transform="matrix(0.05,0,0,0.05,0,0)" xlink:href="#C"/><use transform="matrix(0.05,0,0,0.05,12.950000000000001,0)" xlink:href="#M"/><use transform="matrix(0.05,0,0,0.05,16.900000000000002,0)" xlink:href="#K"/><use transform="matrix(0.05,0,0,0.05,25.900000000000002,0)" xlink:href="#J"/><use transform="matrix(0.05,0,0,0.05,30.900000000000002,0)" xlink:href="#L"/><use transform="matrix(0.05,0,0,0.05,36.85,0)" xlink:href="#M"/><use transform="matrix(0.05,0,0,0.05,40.800000000000004,0)" xlink:href="#ad"/><use transform="matrix(0.05,0,0,0.05,50.800000000000004,0)" xlink:href="#F"/><use transform="matrix(0.05,0,0,0.05,60.800000000000004,0)" xlink:href="#J"/><use transform="matrix(0.05,0,0,0.05,65.80000000000001,0)" xlink:href="#D"/><use transform="matrix(0.05,0,0,0.05,75.80000000000001,0)" xlink:href="#L"/></g></defs></g></svg>