<svg xmlns="http://www.w3.org/2000/svg" xmlns:xlink="http://www.w3.org/1999/xlink" xmlns:lucid="lucid" width="1259.33" height="585.17"><g transform="translate(1457.8333333333335 -159)" lucid:page-tab-id="0_0"><path d="M-1500 0H0v1000h-1500z" fill="#fff"/><path d="M-1436.33 526a6 6 0 0 1 6-6H-226a6 6 0 0 1 6 6v190.67a6 6 0 0 1-6 6h-1204.33a6 6 0 0 1-6-6z" stroke="#000" stroke-opacity="0" stroke-width="3" fill="#baedce"/><use xlink:href="#a" transform="matrix(1,0,0,1,-1424.3333333333335,532) translate(0 17.77777777777778)"/><use xlink:href="#b" transform="matrix(1,0,0,1,-1424.3333333333335,532) translate(89.75308641975307 17.77777777777778)"/><use xlink:href="#c" transform="matrix(1,0,0,1,-1424.3333333333335,532) translate(148.82716049382714 17.77777777777778)"/><path d="M-1420 566a6 6 0 0 1 6-6h568a6 6 0 0 1 6 6v128a6 6 0 0 1-6 6h-568a6 6 0 0 1-6-6z" stroke="#1b6a3a" stroke-width="2" fill="#fff"/><use xlink:href="#d" transform="matrix(1,0,0,1,-1415,565) translate(0 14.4)"/><use xlink:href="#e" transform="matrix(1,0,0,1,-1415,565) translate(55.80000000000001 14.4)"/><path d="M-1436.33 326a6 6 0 0 1 6-6H-226a6 6 0 0 1 6 6v128a6 6 0 0 1-6 6h-1204.33a6 6 0 0 1-6-6z" stroke="#000" stroke-opacity="0" stroke-width="3" fill="#b7e2f1"/><use xlink:href="#f" transform="matrix(1,0,0,1,-1424.3333333333335,332) translate(0 17.77777777777778)"/><use xlink:href="#g" transform="matrix(1,0,0,1,-1424.3333333333335,332) translate(109.5679012345679 17.77777777777778)"/><path d="M-1260 366a6 6 0 0 1 6-6h248a6 6 0 0 1 6 6v68a6 6 0 0 1-6 6h-248a6 6 0 0 1-6-6z" stroke="#000" stroke-opacity="0" stroke-width="3" fill="#3788a5"/><use xlink:href="#h" transform="matrix(1,0,0,1,-1248,372) translate(79.07499999999999 31.9)"/><path d="M-834.05 186a6 6 0 0 1 6-6h159.77a6 6 0 0 1 6 6v68a6 6 0 0 1-6 6h-159.77a6 6 0 0 1-6-6z" stroke="#2e2f27" stroke-width="2" fill="#fff"/><use xlink:href="#i" transform="matrix(1,0,0,1,-829.0490196078433,185) translate(20.125 38.4625)"/><use xlink:href="#j" transform="matrix(1,0,0,1,-829.0490196078433,185) translate(67.975 38.4625)"/><path d="M-1400 606a6 6 0 0 1 6-6h248a6 6 0 0 1 6 6v68a6 6 0 0 1-6 6h-248a6 6 0 0 1-6-6z" stroke="#000" stroke-opacity="0" stroke-width="3" fill="#1b6a3a"/><use xlink:href="#k" transform="matrix(1,0,0,1,-1388,612) translate(64.025 14.4)"/><use xlink:href="#l" transform="matrix(1,0,0,1,-1388,612) translate(131.97500000000002 14.4)"/><path d="M-1380 646a6 6 0 0 1 6-6h88a6 6 0 0 1 6 6v17a6 6 0 0 1-6 6h-88a6 6 0 0 1-6-6z" stroke="#1b6a3a" stroke-width="2" fill="#baedce"/><use xlink:href="#m" transform="matrix(1,0,0,1,-1375,645) translate(18.049999999999997 18.25416666666667)"/><path d="M-1260 646a6 6 0 0 1 6-6h88a6 6 0 0 1 6 6v17a6 6 0 0 1-6 6h-88a6 6 0 0 1-6-6z" stroke="#1b6a3a" stroke-width="2" fill="#baedce"/><use xlink:href="#n" transform="matrix(1,0,0,1,-1255,645) translate(3.5999999999999943 18.25416666666667)"/><use xlink:href="#o" transform="matrix(1,0,0,1,-1255,645) translate(38.449999999999996 18.25416666666667)"/><path d="M-748.17 262v22a6 6 0 0 1-6 6H-1124a6 6 0 0 0-6 6v45.5" stroke="#7b7d68" stroke-width="2" fill="none"/><path d="M-747.17 262.03h-2V261h2z" stroke="#7b7d68" stroke-width=".05" fill="#7b7d68"/><path d="M-1130 356.76l-4.63-14.26h9.27z" stroke="#7b7d68" stroke-width="2" fill="#7b7d68"/><path d="M-1130 441v43a6 6 0 0 1-6 6h-128a6 6 0 0 0-6 6v85.5" stroke="#7b7d68" stroke-width="2" fill="none"/><path d="M-1129 441.03h-2V440h2z" stroke="#7b7d68" stroke-width=".05" fill="#7b7d68"/><path d="M-1270 596.76l-4.63-14.26h9.27z" stroke="#7b7d68" stroke-width="2" fill="#7b7d68"/><path d="M-1130 441v43a6 6 0 0 0 6 6h128a6 6 0 0 1 6 6v85.5" stroke="#7b7d68" stroke-width="2" fill="none"/><path d="M-1129 441.03h-2V440h2z" stroke="#7b7d68" stroke-width=".05" fill="#7b7d68"/><path d="M-990 596.76l-4.63-14.26h9.26z" stroke="#7b7d68" stroke-width="2" fill="#7b7d68"/><path d="M-1120 606a6 6 0 0 1 6-6h248a6 6 0 0 1 6 6v68a6 6 0 0 1-6 6h-248a6 6 0 0 1-6-6z" stroke="#000" stroke-opacity="0" stroke-width="3" fill="#1b6a3a"/><use xlink:href="#k" transform="matrix(1,0,0,1,-1108,612) translate(64.025 14.4)"/><use xlink:href="#l" transform="matrix(1,0,0,1,-1108,612) translate(131.97500000000002 14.4)"/><path d="M-1100 646a6 6 0 0 1 6-6h88a6 6 0 0 1 6 6v17a6 6 0 0 1-6 6h-88a6 6 0 0 1-6-6z" stroke="#1b6a3a" stroke-width="2" fill="#baedce"/><use xlink:href="#m" transform="matrix(1,0,0,1,-1095,645) translate(18.049999999999997 18.25416666666667)"/><path d="M-980 646a6 6 0 0 1 6-6h88a6 6 0 0 1 6 6v17a6 6 0 0 1-6 6h-88a6 6 0 0 1-6-6z" stroke="#1b6a3a" stroke-width="2" fill="#baedce"/><use xlink:href="#n" transform="matrix(1,0,0,1,-975,645) translate(3.5999999999999943 18.25416666666667)"/><use xlink:href="#o" transform="matrix(1,0,0,1,-975,645) translate(38.449999999999996 18.25416666666667)"/><path d="M-660 366a6 6 0 0 1 6-6h248a6 6 0 0 1 6 6v68a6 6 0 0 1-6 6h-248a6 6 0 0 1-6-6z" stroke="#000" stroke-opacity="0" stroke-width="3" fill="#3788a5"/><use xlink:href="#h" transform="matrix(1,0,0,1,-648,372) translate(79.07499999999999 31.9)"/><path d="M-820 566a6 6 0 0 1 6-6h568a6 6 0 0 1 6 6v128a6 6 0 0 1-6 6h-568a6 6 0 0 1-6-6z" stroke="#1b6a3a" stroke-width="2" fill="#fff"/><use xlink:href="#d" transform="matrix(1,0,0,1,-815,565) translate(0 14.4)"/><use xlink:href="#p" transform="matrix(1,0,0,1,-815,565) translate(55.80000000000001 14.4)"/><path d="M-800 606a6 6 0 0 1 6-6h248a6 6 0 0 1 6 6v68a6 6 0 0 1-6 6h-248a6 6 0 0 1-6-6z" stroke="#000" stroke-opacity="0" stroke-width="3" fill="#1b6a3a"/><use xlink:href="#k" transform="matrix(1,0,0,1,-788,612) translate(64.025 14.4)"/><use xlink:href="#l" transform="matrix(1,0,0,1,-788,612) translate(131.97500000000002 14.4)"/><path d="M-780 646a6 6 0 0 1 6-6h88a6 6 0 0 1 6 6v17a6 6 0 0 1-6 6h-88a6 6 0 0 1-6-6z" stroke="#1b6a3a" stroke-width="2" fill="#baedce"/><g><use xlink:href="#m" transform="matrix(1,0,0,1,-775,645) translate(18.049999999999997 18.25416666666667)"/></g><path d="M-660 646a6 6 0 0 1 6-6h88a6 6 0 0 1 6 6v17a6 6 0 0 1-6 6h-88a6 6 0 0 1-6-6z" stroke="#1b6a3a" stroke-width="2" fill="#baedce"/><g><use xlink:href="#n" transform="matrix(1,0,0,1,-655,645) translate(3.5999999999999943 18.25416666666667)"/><use xlink:href="#o" transform="matrix(1,0,0,1,-655,645) translate(38.449999999999996 18.25416666666667)"/></g><path d="M-520 606a6 6 0 0 1 6-6h248a6 6 0 0 1 6 6v68a6 6 0 0 1-6 6h-248a6 6 0 0 1-6-6z" stroke="#000" stroke-opacity="0" stroke-width="3" fill="#1b6a3a"/><g><use xlink:href="#k" transform="matrix(1,0,0,1,-508,612) translate(64.025 14.4)"/><use xlink:href="#l" transform="matrix(1,0,0,1,-508,612) translate(131.97500000000002 14.4)"/></g><path d="M-500 646a6 6 0 0 1 6-6h88a6 6 0 0 1 6 6v17a6 6 0 0 1-6 6h-88a6 6 0 0 1-6-6z" stroke="#1b6a3a" stroke-width="2" fill="#baedce"/><g><use xlink:href="#m" transform="matrix(1,0,0,1,-494.99999999999994,645) translate(18.049999999999997 18.25416666666667)"/></g><path d="M-380 646a6 6 0 0 1 6-6h88a6 6 0 0 1 6 6v17a6 6 0 0 1-6 6h-88a6 6 0 0 1-6-6z" stroke="#1b6a3a" stroke-width="2" fill="#baedce"/><g><use xlink:href="#n" transform="matrix(1,0,0,1,-375,645) translate(3.5999999999999943 18.25416666666667)"/><use xlink:href="#o" transform="matrix(1,0,0,1,-375,645) translate(38.449999999999996 18.25416666666667)"/></g><defs><path fill="#1b6a3a" d="M67-125c0 53 21 87 73 88 37 1 54-22 65-47l45 17C233-25 199 4 140 4 58 4 20-42 15-125 8-235 124-281 211-232c18 10 29 29 36 50l-46 12c-8-25-30-41-62-41-52 0-71 34-72 86" id="q"/><path fill="#1b6a3a" d="M110-194c64 0 96 36 96 99 0 64-35 99-97 99-61 0-95-36-95-99 0-62 34-99 96-99zm-1 164c35 0 45-28 45-65 0-40-10-65-43-65-34 0-45 26-45 65 0 36 10 65 43 65" id="r"/><path fill="#1b6a3a" d="M135-194c87-1 58 113 63 194h-50c-7-57 23-157-34-157-59 0-34 97-39 157H25l-1-190h47c2 12-1 28 3 38 12-26 28-41 61-42" id="s"/><path fill="#1b6a3a" d="M115-3C79 11 28 4 28-45v-112H4v-33h27l15-45h31v45h36v33H77v99c-1 23 16 31 38 25v30" id="t"/><path fill="#1b6a3a" d="M185-48c-13 30-37 53-82 52C43 2 14-33 14-96s30-98 90-98c62 0 83 45 84 108H66c0 31 8 55 39 56 18 0 30-7 34-22zm-45-69c5-46-57-63-70-21-2 6-4 13-4 21h74" id="u"/><g id="a"><use transform="matrix(0.06172839506172839,0,0,0.06172839506172839,0,0)" xlink:href="#q"/><use transform="matrix(0.06172839506172839,0,0,0.06172839506172839,15.987654320987653,0)" xlink:href="#r"/><use transform="matrix(0.06172839506172839,0,0,0.06172839506172839,29.50617283950617,0)" xlink:href="#s"/><use transform="matrix(0.06172839506172839,0,0,0.06172839506172839,43.02469135802469,0)" xlink:href="#t"/><use transform="matrix(0.06172839506172839,0,0,0.06172839506172839,50.37037037037037,0)" xlink:href="#u"/><use transform="matrix(0.06172839506172839,0,0,0.06172839506172839,62.716049382716044,0)" xlink:href="#s"/><use transform="matrix(0.06172839506172839,0,0,0.06172839506172839,76.23456790123456,0)" xlink:href="#t"/></g><path fill="#1b6a3a" d="M88-194c31-1 46 15 58 34l-1-101h50l1 261h-48c-2-10 0-23-3-31C134-8 116 4 84 4 32 4 16-41 15-95c0-56 19-97 73-99zm17 164c33 0 40-30 41-66 1-37-9-64-41-64s-38 30-39 65c0 43 13 65 39 65" id="v"/><g id="b"><use transform="matrix(0.06172839506172839,0,0,0.06172839506172839,0,0)" xlink:href="#s"/><use transform="matrix(0.06172839506172839,0,0,0.06172839506172839,13.518518518518517,0)" xlink:href="#r"/><use transform="matrix(0.06172839506172839,0,0,0.06172839506172839,27.037037037037035,0)" xlink:href="#v"/><use transform="matrix(0.06172839506172839,0,0,0.06172839506172839,40.55555555555555,0)" xlink:href="#u"/></g><path fill="#1b6a3a" d="M190-63c-7 42-38 67-86 67-59 0-84-38-90-98-12-110 154-137 174-36l-49 2c-2-19-15-32-35-32-30 0-35 28-38 64-6 74 65 87 74 30" id="w"/><path fill="#1b6a3a" d="M25 0v-261h50V0H25" id="x"/><path fill="#1b6a3a" d="M85 4C-2 5 27-109 22-190h50c7 57-23 150 33 157 60-5 35-97 40-157h50l1 190h-47c-2-12 1-28-3-38-12 25-28 42-61 42" id="y"/><path fill="#1b6a3a" d="M137-138c1-29-70-34-71-4 15 46 118 7 119 86 1 83-164 76-172 9l43-7c4 19 20 25 44 25 33 8 57-30 24-41C81-84 22-81 20-136c-2-80 154-74 161-7" id="z"/><path fill="#1b6a3a" d="M135-150c-39-12-60 13-60 57V0H25l-1-190h47c2 13-1 29 3 40 6-28 27-53 61-41v41" id="A"/><g id="c"><use transform="matrix(0.06172839506172839,0,0,0.06172839506172839,0,0)" xlink:href="#w"/><use transform="matrix(0.06172839506172839,0,0,0.06172839506172839,12.345679012345679,0)" xlink:href="#x"/><use transform="matrix(0.06172839506172839,0,0,0.06172839506172839,18.51851851851852,0)" xlink:href="#y"/><use transform="matrix(0.06172839506172839,0,0,0.06172839506172839,32.03703703703704,0)" xlink:href="#z"/><use transform="matrix(0.06172839506172839,0,0,0.06172839506172839,44.382716049382715,0)" xlink:href="#t"/><use transform="matrix(0.06172839506172839,0,0,0.06172839506172839,51.72839506172839,0)" xlink:href="#u"/><use transform="matrix(0.06172839506172839,0,0,0.06172839506172839,64.07407407407408,0)" xlink:href="#A"/></g><path fill="#2e2f27" d="M195-6C206 82 75 100 31 46c-4-6-6-13-8-21l49-6c3 16 16 24 34 25 40 0 42-37 40-79-11 22-30 35-61 35-53 0-70-43-70-97 0-56 18-96 73-97 30 0 46 14 59 34l2-30h47zm-90-29c32 0 41-27 41-63 0-35-9-62-40-62-32 0-39 29-40 63 0 36 9 62 39 62" id="B"/><path fill="#2e2f27" d="M135-150c-39-12-60 13-60 57V0H25l-1-190h47c2 13-1 29 3 40 6-28 27-53 61-41v41" id="C"/><path fill="#2e2f27" d="M110-194c64 0 96 36 96 99 0 64-35 99-97 99-61 0-95-36-95-99 0-62 34-99 96-99zm-1 164c35 0 45-28 45-65 0-40-10-65-43-65-34 0-45 26-45 65 0 36 10 65 43 65" id="D"/><path fill="#2e2f27" d="M85 4C-2 5 27-109 22-190h50c7 57-23 150 33 157 60-5 35-97 40-157h50l1 190h-47c-2-12 1-28-3-38-12 25-28 42-61 42" id="E"/><path fill="#2e2f27" d="M135-194c53 0 70 44 70 98 0 56-19 98-73 100-31 1-45-17-59-34 3 33 2 69 2 105H25l-1-265h48c2 10 0 23 3 31 11-24 29-35 60-35zM114-30c33 0 39-31 40-66 0-38-9-64-40-64-56 0-55 130 0 130" id="F"/><g id="d"><use transform="matrix(0.05,0,0,0.05,0,0)" xlink:href="#B"/><use transform="matrix(0.05,0,0,0.05,10.950000000000001,0)" xlink:href="#C"/><use transform="matrix(0.05,0,0,0.05,17.950000000000003,0)" xlink:href="#D"/><use transform="matrix(0.05,0,0,0.05,28.900000000000006,0)" xlink:href="#E"/><use transform="matrix(0.05,0,0,0.05,39.85000000000001,0)" xlink:href="#F"/></g><path fill="#2e2f27" d="M101-251c68 0 84 54 84 127C185-50 166 4 99 4S15-52 14-124c-1-75 17-127 87-127zm-1 216c37-5 36-46 36-89s4-89-36-89c-39 0-36 45-36 89 0 43-3 85 36 89" id="G"/><use transform="matrix(0.05,0,0,0.05,0,0)" xlink:href="#G" id="e"/><path fill="#3788a5" d="M67-125c0 53 21 87 73 88 37 1 54-22 65-47l45 17C233-25 199 4 140 4 58 4 20-42 15-125 8-235 124-281 211-232c18 10 29 29 36 50l-46 12c-8-25-30-41-62-41-52 0-71 34-72 86" id="H"/><path fill="#3788a5" d="M110-194c64 0 96 36 96 99 0 64-35 99-97 99-61 0-95-36-95-99 0-62 34-99 96-99zm-1 164c35 0 45-28 45-65 0-40-10-65-43-65-34 0-45 26-45 65 0 36 10 65 43 65" id="I"/><path fill="#3788a5" d="M135-194c87-1 58 113 63 194h-50c-7-57 23-157-34-157-59 0-34 97-39 157H25l-1-190h47c2 12-1 28 3 38 12-26 28-41 61-42" id="J"/><path fill="#3788a5" d="M115-3C79 11 28 4 28-45v-112H4v-33h27l15-45h31v45h36v33H77v99c-1 23 16 31 38 25v30" id="K"/><path fill="#3788a5" d="M133-34C117-15 103 5 69 4 32 3 11-16 11-54c-1-60 55-63 116-61 1-26-3-47-28-47-18 1-26 9-28 27l-52-2c7-38 36-58 82-57s74 22 75 68l1 82c-1 14 12 18 25 15v27c-30 8-71 5-69-32zm-48 3c29 0 43-24 42-57-32 0-66-3-65 30 0 17 8 27 23 27" id="L"/><path fill="#3788a5" d="M25-224v-37h50v37H25zM25 0v-190h50V0H25" id="M"/><path fill="#3788a5" d="M185-48c-13 30-37 53-82 52C43 2 14-33 14-96s30-98 90-98c62 0 83 45 84 108H66c0 31 8 55 39 56 18 0 30-7 34-22zm-45-69c5-46-57-63-70-21-2 6-4 13-4 21h74" id="N"/><path fill="#3788a5" d="M135-150c-39-12-60 13-60 57V0H25l-1-190h47c2 13-1 29 3 40 6-28 27-53 61-41v41" id="O"/><g id="f"><use transform="matrix(0.06172839506172839,0,0,0.06172839506172839,0,0)" xlink:href="#H"/><use transform="matrix(0.06172839506172839,0,0,0.06172839506172839,15.987654320987653,0)" xlink:href="#I"/><use transform="matrix(0.06172839506172839,0,0,0.06172839506172839,29.50617283950617,0)" xlink:href="#J"/><use transform="matrix(0.06172839506172839,0,0,0.06172839506172839,43.02469135802469,0)" xlink:href="#K"/><use transform="matrix(0.06172839506172839,0,0,0.06172839506172839,50.37037037037037,0)" xlink:href="#L"/><use transform="matrix(0.06172839506172839,0,0,0.06172839506172839,62.716049382716044,0)" xlink:href="#M"/><use transform="matrix(0.06172839506172839,0,0,0.06172839506172839,68.88888888888889,0)" xlink:href="#J"/><use transform="matrix(0.06172839506172839,0,0,0.06172839506172839,82.4074074074074,0)" xlink:href="#N"/><use transform="matrix(0.06172839506172839,0,0,0.06172839506172839,94.75308641975309,0)" xlink:href="#O"/></g><path fill="#3788a5" d="M190-63c-7 42-38 67-86 67-59 0-84-38-90-98-12-110 154-137 174-36l-49 2c-2-19-15-32-35-32-30 0-35 28-38 64-6 74 65 87 74 30" id="P"/><path fill="#3788a5" d="M25 0v-261h50V0H25" id="Q"/><path fill="#3788a5" d="M85 4C-2 5 27-109 22-190h50c7 57-23 150 33 157 60-5 35-97 40-157h50l1 190h-47c-2-12 1-28-3-38-12 25-28 42-61 42" id="R"/><path fill="#3788a5" d="M137-138c1-29-70-34-71-4 15 46 118 7 119 86 1 83-164 76-172 9l43-7c4 19 20 25 44 25 33 8 57-30 24-41C81-84 22-81 20-136c-2-80 154-74 161-7" id="S"/><g id="g"><use transform="matrix(0.06172839506172839,0,0,0.06172839506172839,0,0)" xlink:href="#P"/><use transform="matrix(0.06172839506172839,0,0,0.06172839506172839,12.345679012345679,0)" xlink:href="#Q"/><use transform="matrix(0.06172839506172839,0,0,0.06172839506172839,18.51851851851852,0)" xlink:href="#R"/><use transform="matrix(0.06172839506172839,0,0,0.06172839506172839,32.03703703703704,0)" xlink:href="#S"/><use transform="matrix(0.06172839506172839,0,0,0.06172839506172839,44.382716049382715,0)" xlink:href="#K"/><use transform="matrix(0.06172839506172839,0,0,0.06172839506172839,51.72839506172839,0)" xlink:href="#N"/><use transform="matrix(0.06172839506172839,0,0,0.06172839506172839,64.07407407407408,0)" xlink:href="#O"/></g><path fill="#fff" d="M212-179c-10-28-35-45-73-45-59 0-87 40-87 99 0 60 29 101 89 101 43 0 62-24 78-52l27 14C228-24 195 4 139 4 59 4 22-46 18-125c-6-104 99-153 187-111 19 9 31 26 39 46" id="T"/><path fill="#fff" d="M100-194c62-1 85 37 85 99 1 63-27 99-86 99S16-35 15-95c0-66 28-99 85-99zM99-20c44 1 53-31 53-75 0-43-8-75-51-75s-53 32-53 75 10 74 51 75" id="U"/><path fill="#fff" d="M117-194c89-4 53 116 60 194h-32v-121c0-31-8-49-39-48C34-167 62-67 57 0H25l-1-190h30c1 10-1 24 2 32 11-22 29-35 61-36" id="V"/><path fill="#fff" d="M59-47c-2 24 18 29 38 22v24C64 9 27 4 27-40v-127H5v-23h24l9-43h21v43h35v23H59v120" id="W"/><path fill="#fff" d="M141-36C126-15 110 5 73 4 37 3 15-17 15-53c-1-64 63-63 125-63 3-35-9-54-41-54-24 1-41 7-42 31l-33-3c5-37 33-52 76-52 45 0 72 20 72 64v82c-1 20 7 32 28 27v20c-31 9-61-2-59-35zM48-53c0 20 12 33 32 33 41-3 63-29 60-74-43 2-92-5-92 41" id="X"/><path fill="#fff" d="M24-231v-30h32v30H24zM24 0v-190h32V0H24" id="Y"/><path fill="#fff" d="M100-194c63 0 86 42 84 106H49c0 40 14 67 53 68 26 1 43-12 49-29l28 8c-11 28-37 45-77 45C44 4 14-33 15-96c1-61 26-98 85-98zm52 81c6-60-76-77-97-28-3 7-6 17-6 28h103" id="Z"/><path fill="#fff" d="M114-163C36-179 61-72 57 0H25l-1-190h30c1 12-1 29 2 39 6-27 23-49 58-41v29" id="aa"/><g id="h"><use transform="matrix(0.05,0,0,0.05,0,0)" xlink:href="#T"/><use transform="matrix(0.05,0,0,0.05,12.950000000000001,0)" xlink:href="#U"/><use transform="matrix(0.05,0,0,0.05,22.950000000000003,0)" xlink:href="#V"/><use transform="matrix(0.05,0,0,0.05,32.95,0)" xlink:href="#W"/><use transform="matrix(0.05,0,0,0.05,37.95,0)" xlink:href="#X"/><use transform="matrix(0.05,0,0,0.05,47.95,0)" xlink:href="#Y"/><use transform="matrix(0.05,0,0,0.05,51.900000000000006,0)" xlink:href="#V"/><use transform="matrix(0.05,0,0,0.05,61.900000000000006,0)" xlink:href="#Z"/><use transform="matrix(0.05,0,0,0.05,71.9,0)" xlink:href="#aa"/></g><path fill="#2e2f27" d="M24 0v-248h52v208h133V0H24" id="ab"/><path fill="#2e2f27" d="M133-34C117-15 103 5 69 4 32 3 11-16 11-54c-1-60 55-63 116-61 1-26-3-47-28-47-18 1-26 9-28 27l-52-2c7-38 36-58 82-57s74 22 75 68l1 82c-1 14 12 18 25 15v27c-30 8-71 5-69-32zm-48 3c29 0 43-24 42-57-32 0-66-3-65 30 0 17 8 27 23 27" id="ac"/><path fill="#2e2f27" d="M88-194c31-1 46 15 58 34l-1-101h50l1 261h-48c-2-10 0-23-3-31C134-8 116 4 84 4 32 4 16-41 15-95c0-56 19-97 73-99zm17 164c33 0 40-30 41-66 1-37-9-64-41-64s-38 30-39 65c0 43 13 65 39 65" id="ad"/><g id="i"><use transform="matrix(0.05,0,0,0.05,0,0)" xlink:href="#ab"/><use transform="matrix(0.05,0,0,0.05,10.950000000000001,0)" xlink:href="#D"/><use transform="matrix(0.05,0,0,0.05,21.900000000000002,0)" xlink:href="#ac"/><use transform="matrix(0.05,0,0,0.05,31.900000000000002,0)" xlink:href="#ad"/></g><path fill="#2e2f27" d="M135-194c52 0 70 43 70 98 0 56-19 99-73 100-30 1-46-15-58-35L72 0H24l1-261h50v104c11-23 29-37 60-37zM114-30c31 0 40-27 40-66 0-37-7-63-39-63s-41 28-41 65c0 36 8 64 40 64" id="ae"/><path fill="#2e2f27" d="M25 0v-261h50V0H25" id="af"/><path fill="#2e2f27" d="M135-194c87-1 58 113 63 194h-50c-7-57 23-157-34-157-59 0-34 97-39 157H25l-1-190h47c2 12-1 28 3 38 12-26 28-41 61-42" id="ag"/><path fill="#2e2f27" d="M190-63c-7 42-38 67-86 67-59 0-84-38-90-98-12-110 154-137 174-36l-49 2c-2-19-15-32-35-32-30 0-35 28-38 64-6 74 65 87 74 30" id="ah"/><path fill="#2e2f27" d="M185-48c-13 30-37 53-82 52C43 2 14-33 14-96s30-98 90-98c62 0 83 45 84 108H66c0 31 8 55 39 56 18 0 30-7 34-22zm-45-69c5-46-57-63-70-21-2 6-4 13-4 21h74" id="ai"/><g id="j"><use transform="matrix(0.05,0,0,0.05,0,0)" xlink:href="#ae"/><use transform="matrix(0.05,0,0,0.05,10.950000000000001,0)" xlink:href="#ac"/><use transform="matrix(0.05,0,0,0.05,20.950000000000003,0)" xlink:href="#af"/><use transform="matrix(0.05,0,0,0.05,25.950000000000003,0)" xlink:href="#ac"/><use transform="matrix(0.05,0,0,0.05,35.95,0)" xlink:href="#ag"/><use transform="matrix(0.05,0,0,0.05,46.900000000000006,0)" xlink:href="#ah"/><use transform="matrix(0.05,0,0,0.05,56.900000000000006,0)" xlink:href="#ai"/><use transform="matrix(0.05,0,0,0.05,66.9,0)" xlink:href="#C"/></g><g id="k"><use transform="matrix(0.05,0,0,0.05,0,0)" xlink:href="#T"/><use transform="matrix(0.05,0,0,0.05,12.950000000000001,0)" xlink:href="#U"/><use transform="matrix(0.05,0,0,0.05,22.950000000000003,0)" xlink:href="#V"/><use transform="matrix(0.05,0,0,0.05,32.95,0)" xlink:href="#W"/><use transform="matrix(0.05,0,0,0.05,37.95,0)" xlink:href="#Z"/><use transform="matrix(0.05,0,0,0.05,47.95,0)" xlink:href="#V"/><use transform="matrix(0.05,0,0,0.05,57.95,0)" xlink:href="#W"/></g><path fill="#fff" d="M85-194c31 0 48 13 60 33l-1-100h32l1 261h-30c-2-10 0-23-3-31C134-8 116 4 85 4 32 4 16-35 15-94c0-66 23-100 70-100zm9 24c-40 0-46 34-46 75 0 40 6 74 45 74 42 0 51-32 51-76 0-42-9-74-50-73" id="aj"/><g id="l"><use transform="matrix(0.05,0,0,0.05,0,0)" xlink:href="#V"/><use transform="matrix(0.05,0,0,0.05,10,0)" xlink:href="#U"/><use transform="matrix(0.05,0,0,0.05,20,0)" xlink:href="#aj"/><use transform="matrix(0.05,0,0,0.05,30,0)" xlink:href="#Z"/></g><path fill="#333" d="M240-174c0 40-23 61-54 70L253 0h-59l-57-94H76V0H24v-248c93 4 217-23 216 74zM76-134c48-2 112 12 112-38 0-48-66-32-112-35v73" id="ak"/><path fill="#333" d="M185-48c-13 30-37 53-82 52C43 2 14-33 14-96s30-98 90-98c62 0 83 45 84 108H66c0 31 8 55 39 56 18 0 30-7 34-22zm-45-69c5-46-57-63-70-21-2 6-4 13-4 21h74" id="al"/><path fill="#333" d="M133-34C117-15 103 5 69 4 32 3 11-16 11-54c-1-60 55-63 116-61 1-26-3-47-28-47-18 1-26 9-28 27l-52-2c7-38 36-58 82-57s74 22 75 68l1 82c-1 14 12 18 25 15v27c-30 8-71 5-69-32zm-48 3c29 0 43-24 42-57-32 0-66-3-65 30 0 17 8 27 23 27" id="am"/><path fill="#333" d="M88-194c31-1 46 15 58 34l-1-101h50l1 261h-48c-2-10 0-23-3-31C134-8 116 4 84 4 32 4 16-41 15-95c0-56 19-97 73-99zm17 164c33 0 40-30 41-66 1-37-9-64-41-64s-38 30-39 65c0 43 13 65 39 65" id="an"/><path fill="#333" d="M123 10C108 53 80 86 19 72V37c35 8 53-11 59-39L3-190h52l48 148c12-52 28-100 44-148h51" id="ao"/><g id="m"><use transform="matrix(0.05,0,0,0.05,0,0)" xlink:href="#ak"/><use transform="matrix(0.05,0,0,0.05,12.950000000000001,0)" xlink:href="#al"/><use transform="matrix(0.05,0,0,0.05,22.950000000000003,0)" xlink:href="#am"/><use transform="matrix(0.05,0,0,0.05,32.95,0)" xlink:href="#an"/><use transform="matrix(0.05,0,0,0.05,43.900000000000006,0)" xlink:href="#ao"/></g><path fill="#333" d="M175 0L67-191c6 58 2 128 3 191H24v-248h59L193-55c-6-58-2-129-3-193h46V0h-61" id="ap"/><path fill="#333" d="M110-194c64 0 96 36 96 99 0 64-35 99-97 99-61 0-95-36-95-99 0-62 34-99 96-99zm-1 164c35 0 45-28 45-65 0-40-10-65-43-65-34 0-45 26-45 65 0 36 10 65 43 65" id="aq"/><path fill="#333" d="M115-3C79 11 28 4 28-45v-112H4v-33h27l15-45h31v45h36v33H77v99c-1 23 16 31 38 25v30" id="ar"/><g id="n"><use transform="matrix(0.05,0,0,0.05,0,0)" xlink:href="#ap"/><use transform="matrix(0.05,0,0,0.05,12.950000000000001,0)" xlink:href="#aq"/><use transform="matrix(0.05,0,0,0.05,23.900000000000002,0)" xlink:href="#ar"/></g><path fill="#333" d="M135-150c-39-12-60 13-60 57V0H25l-1-190h47c2 13-1 29 3 40 6-28 27-53 61-41v41" id="as"/><g id="o"><use transform="matrix(0.05,0,0,0.05,0,0)" xlink:href="#as"/><use transform="matrix(0.05,0,0,0.05,7,0)" xlink:href="#al"/><use transform="matrix(0.05,0,0,0.05,17,0)" xlink:href="#am"/><use transform="matrix(0.05,0,0,0.05,27,0)" xlink:href="#an"/><use transform="matrix(0.05,0,0,0.05,37.95,0)" xlink:href="#ao"/></g><path fill="#2e2f27" d="M23 0v-37h61v-169l-59 37v-38l62-41h46v211h57V0H23" id="at"/><use transform="matrix(0.05,0,0,0.05,0,0)" xlink:href="#at" id="p"/></defs></g></svg>