<svg xmlns="http://www.w3.org/2000/svg" xmlns:xlink="http://www.w3.org/1999/xlink" xmlns:lucid="lucid" width="640" height="520"><g transform="translate(880 -340)" lucid:page-tab-id="0_0"><path d="M-1806.87 0H64v1322.83h-1870.87z" fill="#fff"/><path d="M-860 366c0-3.3 2.7-6 6-6h588c3.3 0 6 2.7 6 6v468c0 3.3-2.7 6-6 6h-588c-3.3 0-6-2.7-6-6z" stroke="#000" stroke-opacity="0" stroke-width="3" fill="#83bbe5"/><path d="M-840 746c0-3.3 2.7-6 6-6h148c3.3 0 6 2.7 6 6v68c0 3.3-2.7 6-6 6h-148c-3.3 0-6-2.7-6-6z" stroke="#000" stroke-opacity="0" stroke-width="3" fill="#0c7cba"/><use xlink:href="#a" transform="matrix(1,0,0,1,-828,752) translate(31.049999999999997 31.9)"/><path d="M-600 466c0-3.3 2.7-6 6-6h148c3.3 0 6 2.7 6 6v68c0 3.3-2.7 6-6 6h-148c-3.3 0-6-2.7-6-6z" stroke="#834187" stroke-width="3" fill="#834187"/><use xlink:href="#b" transform="matrix(1,0,0,1,-588,472) translate(14.124999999999993 31.9)"/><path d="M-480 666c0-3.3 2.7-6 6-6h174c3.3 0 6 2.7 6 6v48c0 3.3-2.7 6-6 6h-174c-3.3 0-6-2.7-6-6z" stroke="#000" stroke-opacity="0" stroke-width="3" fill="#fff" fill-opacity="0"/><use xlink:href="#c" transform="matrix(1,0,0,1,-475.00000000000006,665) translate(13.222222222222229 30.27777777777778)"/><path d="M-480 739v-48.33" stroke="#5e5e5e" stroke-width="2" fill="none"/><path d="M-479 740h-2v-1.03h2" fill="#5e5e5e"/><path d="M-465 676c0 8.28-6.72 15-15 15-8.28 0-15-6.72-15-15 0-8.28 6.72-15 15-15 8.28 0 15 6.72 15 15z" stroke="#5e5e5e" stroke-width="2" fill="#fff"/><path d="M-500 386c0-3.3 2.7-6 6-6h174c3.3 0 6 2.7 6 6v48c0 3.3-2.7 6-6 6h-174c-3.3 0-6-2.7-6-6z" stroke="#000" stroke-opacity="0" stroke-width="3" fill="#fff" fill-opacity="0"/><use xlink:href="#c" transform="matrix(1,0,0,1,-495,385) translate(13.222222222222229 30.27777777777778)"/><path d="M-520 457.5v-46.83" stroke="#5e5e5e" stroke-width="2" fill="none"/><path d="M-519 458.5h-2v-1.03h2" fill="#5e5e5e"/><path d="M-505 396c0 8.28-6.72 15-15 15-8.28 0-15-6.72-15-15 0-8.28 6.72-15 15-15 8.28 0 15 6.72 15 15z" stroke="#5e5e5e" stroke-width="2" fill="#fff"/><path d="M-760 666c0-3.3 2.7-6 6-6h174c3.3 0 6 2.7 6 6v48c0 3.3-2.7 6-6 6h-174c-3.3 0-6-2.7-6-6z" stroke="#000" stroke-opacity="0" stroke-width="3" fill="#fff" fill-opacity="0"/><use xlink:href="#c" transform="matrix(1,0,0,1,-755,665) translate(13.222222222222229 30.27777777777778)"/><path d="M-760 739v-48.33" stroke="#5e5e5e" stroke-width="2" fill="none"/><path d="M-759 740h-2v-1.03h2" fill="#5e5e5e"/><path d="M-745 676c0 8.3-6.72 15-15 15-8.28 0-15-6.7-15-15 0-8.28 6.72-15 15-15 8.28 0 15 6.72 15 15z" stroke="#5e5e5e" stroke-width="2" fill="#fff"/><path d="M-560 746c0-3.3 2.7-6 6-6h148c3.3 0 6 2.7 6 6v68c0 3.3-2.7 6-6 6h-148c-3.3 0-6-2.7-6-6z" stroke="#000" stroke-opacity="0" stroke-width="3" fill="#ef8d22"/><use xlink:href="#d" transform="matrix(1,0,0,1,-548,752) translate(16 31.9)"/><use xlink:href="#e" transform="matrix(1,0,0,1,-548,752) translate(80 31.9)"/><defs><path fill="#fff" d="M96-169c-40 0-48 33-48 73s9 75 48 75c24 0 41-14 43-38l32 2c-6 37-31 61-74 61-59 0-76-41-82-99-10-93 101-131 147-64 4 7 5 14 7 22l-32 3c-4-21-16-35-41-35" id="f"/><path fill="#fff" d="M100-194c62-1 85 37 85 99 1 63-27 99-86 99S16-35 15-95c0-66 28-99 85-99zM99-20c44 1 53-31 53-75 0-43-8-75-51-75s-53 32-53 75 10 74 51 75" id="g"/><path fill="#fff" d="M117-194c89-4 53 116 60 194h-32v-121c0-31-8-49-39-48C34-167 62-67 57 0H25l-1-190h30c1 10-1 24 2 32 11-22 29-35 61-36" id="h"/><path fill="#fff" d="M59-47c-2 24 18 29 38 22v24C64 9 27 4 27-40v-127H5v-23h24l9-43h21v43h35v23H59v120" id="i"/><path fill="#fff" d="M141-36C126-15 110 5 73 4 37 3 15-17 15-53c-1-64 63-63 125-63 3-35-9-54-41-54-24 1-41 7-42 31l-33-3c5-37 33-52 76-52 45 0 72 20 72 64v82c-1 20 7 32 28 27v20c-31 9-61-2-59-35zM48-53c0 20 12 33 32 33 41-3 63-29 60-74-43 2-92-5-92 41" id="j"/><path fill="#fff" d="M24-231v-30h32v30H24zM24 0v-190h32V0H24" id="k"/><path fill="#fff" d="M100-194c63 0 86 42 84 106H49c0 40 14 67 53 68 26 1 43-12 49-29l28 8c-11 28-37 45-77 45C44 4 14-33 15-96c1-61 26-98 85-98zm52 81c6-60-76-77-97-28-3 7-6 17-6 28h103" id="l"/><path fill="#fff" d="M114-163C36-179 61-72 57 0H25l-1-190h30c1 12-1 29 2 39 6-27 23-49 58-41v29" id="m"/><g id="a"><use transform="matrix(0.05,0,0,0.05,0,0)" xlink:href="#f"/><use transform="matrix(0.05,0,0,0.05,9,0)" xlink:href="#g"/><use transform="matrix(0.05,0,0,0.05,19,0)" xlink:href="#h"/><use transform="matrix(0.05,0,0,0.05,29,0)" xlink:href="#i"/><use transform="matrix(0.05,0,0,0.05,34,0)" xlink:href="#j"/><use transform="matrix(0.05,0,0,0.05,44,0)" xlink:href="#k"/><use transform="matrix(0.05,0,0,0.05,47.95,0)" xlink:href="#h"/><use transform="matrix(0.05,0,0,0.05,57.95,0)" xlink:href="#l"/><use transform="matrix(0.05,0,0,0.05,67.95,0)" xlink:href="#m"/></g><path fill="#fff" d="M210-169c-67 3-38 105-44 169h-31v-121c0-29-5-50-35-48C34-165 62-65 56 0H25l-1-190h30c1 10-1 24 2 32 10-44 99-50 107 0 11-21 27-35 58-36 85-2 47 119 55 194h-31v-121c0-29-5-49-35-48" id="n"/><path fill="#fff" d="M135-143c-3-34-86-38-87 0 15 53 115 12 119 90S17 21 10-45l28-5c4 36 97 45 98 0-10-56-113-15-118-90-4-57 82-63 122-42 12 7 21 19 24 35" id="o"/><path fill="#fff" d="M16-82v-28h88v28H16" id="p"/><path fill="#fff" d="M115-194c55 1 70 41 70 98S169 2 115 4C84 4 66-9 55-30l1 105H24l-1-265h31l2 30c10-21 28-34 59-34zm-8 174c40 0 45-34 45-75s-6-73-45-74c-42 0-51 32-51 76 0 43 10 73 51 73" id="q"/><path fill="#fff" d="M141 0L90-78 38 0H4l68-98-65-92h35l48 74 47-74h35l-64 92 68 98h-35" id="r"/><path fill="#fff" d="M179-190L93 31C79 59 56 82 12 73V49c39 6 53-20 64-50L1-190h34L92-34l54-156h33" id="s"/><g id="b"><use transform="matrix(0.05,0,0,0.05,0,0)" xlink:href="#n"/><use transform="matrix(0.05,0,0,0.05,14.950000000000001,0)" xlink:href="#l"/><use transform="matrix(0.05,0,0,0.05,24.950000000000003,0)" xlink:href="#i"/><use transform="matrix(0.05,0,0,0.05,29.950000000000003,0)" xlink:href="#m"/><use transform="matrix(0.05,0,0,0.05,35.900000000000006,0)" xlink:href="#k"/><use transform="matrix(0.05,0,0,0.05,39.85000000000001,0)" xlink:href="#f"/><use transform="matrix(0.05,0,0,0.05,48.85000000000001,0)" xlink:href="#o"/><use transform="matrix(0.05,0,0,0.05,57.85,0)" xlink:href="#p"/><use transform="matrix(0.05,0,0,0.05,63.80000000000001,0)" xlink:href="#q"/><use transform="matrix(0.05,0,0,0.05,73.80000000000001,0)" xlink:href="#m"/><use transform="matrix(0.05,0,0,0.05,79.75000000000001,0)" xlink:href="#g"/><use transform="matrix(0.05,0,0,0.05,89.75000000000001,0)" xlink:href="#r"/><use transform="matrix(0.05,0,0,0.05,98.75000000000001,0)" xlink:href="#s"/></g><path fill="#333" d="M0 4l72-265h28L28 4H0" id="t"/><path fill="#333" d="M135-143c-3-34-86-38-87 0 15 53 115 12 119 90S17 21 10-45l28-5c4 36 97 45 98 0-10-56-113-15-118-90-4-57 82-63 122-42 12 7 21 19 24 35" id="u"/><path fill="#333" d="M59-47c-2 24 18 29 38 22v24C64 9 27 4 27-40v-127H5v-23h24l9-43h21v43h35v23H59v120" id="v"/><path fill="#333" d="M141-36C126-15 110 5 73 4 37 3 15-17 15-53c-1-64 63-63 125-63 3-35-9-54-41-54-24 1-41 7-42 31l-33-3c5-37 33-52 76-52 45 0 72 20 72 64v82c-1 20 7 32 28 27v20c-31 9-61-2-59-35zM48-53c0 20 12 33 32 33 41-3 63-29 60-74-43 2-92-5-92 41" id="w"/><path fill="#333" d="M100-194c63 0 86 42 84 106H49c0 40 14 67 53 68 26 1 43-12 49-29l28 8c-11 28-37 45-77 45C44 4 14-33 15-96c1-61 26-98 85-98zm52 81c6-60-76-77-97-28-3 7-6 17-6 28h103" id="x"/><path fill="#333" d="M108 0H70L1-190h34L89-25l56-165h34" id="y"/><path fill="#333" d="M27 0v-27h64v-190l-56 39v-29l58-41h29v221h61V0H27" id="z"/><path fill="#333" d="M106-169C34-169 62-67 57 0H25v-261h32l-1 103c12-21 28-36 61-36 89 0 53 116 60 194h-32v-121c2-32-8-49-39-48" id="A"/><path fill="#333" d="M24 0v-261h32V0H24" id="B"/><g id="c"><use transform="matrix(0.06172839506172839,0,0,0.06172839506172839,0,0)" xlink:href="#t"/><use transform="matrix(0.06172839506172839,0,0,0.06172839506172839,6.172839506172839,0)" xlink:href="#u"/><use transform="matrix(0.06172839506172839,0,0,0.06172839506172839,17.28395061728395,0)" xlink:href="#v"/><use transform="matrix(0.06172839506172839,0,0,0.06172839506172839,23.456790123456788,0)" xlink:href="#w"/><use transform="matrix(0.06172839506172839,0,0,0.06172839506172839,35.80246913580247,0)" xlink:href="#v"/><use transform="matrix(0.06172839506172839,0,0,0.06172839506172839,41.97530864197531,0)" xlink:href="#x"/><use transform="matrix(0.06172839506172839,0,0,0.06172839506172839,54.32098765432099,0)" xlink:href="#t"/><use transform="matrix(0.06172839506172839,0,0,0.06172839506172839,60.49382716049383,0)" xlink:href="#y"/><use transform="matrix(0.06172839506172839,0,0,0.06172839506172839,71.60493827160494,0)" xlink:href="#z"/><use transform="matrix(0.06172839506172839,0,0,0.06172839506172839,83.95061728395062,0)" xlink:href="#t"/><use transform="matrix(0.06172839506172839,0,0,0.06172839506172839,90.12345679012346,0)" xlink:href="#A"/><use transform="matrix(0.06172839506172839,0,0,0.06172839506172839,102.46913580246914,0)" xlink:href="#x"/><use transform="matrix(0.06172839506172839,0,0,0.06172839506172839,114.81481481481482,0)" xlink:href="#w"/><use transform="matrix(0.06172839506172839,0,0,0.06172839506172839,127.16049382716051,0)" xlink:href="#B"/><use transform="matrix(0.06172839506172839,0,0,0.06172839506172839,132.03703703703704,0)" xlink:href="#v"/><use transform="matrix(0.06172839506172839,0,0,0.06172839506172839,138.20987654320987,0)" xlink:href="#A"/></g><g id="d"><use transform="matrix(0.05,0,0,0.05,0,0)" xlink:href="#f"/><use transform="matrix(0.05,0,0,0.05,9,0)" xlink:href="#g"/><use transform="matrix(0.05,0,0,0.05,19,0)" xlink:href="#h"/><use transform="matrix(0.05,0,0,0.05,29,0)" xlink:href="#i"/><use transform="matrix(0.05,0,0,0.05,34,0)" xlink:href="#l"/><use transform="matrix(0.05,0,0,0.05,44,0)" xlink:href="#h"/><use transform="matrix(0.05,0,0,0.05,54,0)" xlink:href="#i"/></g><path fill="#fff" d="M85-194c31 0 48 13 60 33l-1-100h32l1 261h-30c-2-10 0-23-3-31C134-8 116 4 85 4 32 4 16-35 15-94c0-66 23-100 70-100zm9 24c-40 0-46 34-46 75 0 40 6 74 45 74 42 0 51-32 51-76 0-42-9-74-50-73" id="C"/><g id="e"><use transform="matrix(0.05,0,0,0.05,0,0)" xlink:href="#h"/><use transform="matrix(0.05,0,0,0.05,10,0)" xlink:href="#g"/><use transform="matrix(0.05,0,0,0.05,20,0)" xlink:href="#C"/><use transform="matrix(0.05,0,0,0.05,30,0)" xlink:href="#l"/></g></defs></g></svg>