<svg xmlns="http://www.w3.org/2000/svg" xmlns:lucid="lucid" width="1220" height="420"><g lucid:page-tab-id="0_0"><path d="M-180-140h1870.4v1323.2H-180z" fill="#fff"/><path d="M20 20h80v60H20z" stroke="#000" stroke-width="2" fill="#fff"/><path d="M60 101v40.5M60 101.03V100" stroke="#000" stroke-width="2" fill="none"/><path d="M60 156.76l-4.64-14.26h9.28z" stroke="#000" stroke-width="2"/><path d="M50 20c5.52 0 10 4.48 10 10s-4.48 10-10 10H30c-5.52 0-10-4.48-10-10s4.48-10 10-10z" stroke="#1a7db6" stroke-width="2" fill="#1a7db6"/><path d="M120 20h80v60h-80z" stroke="#000" stroke-width="2" fill="#fff"/><path d="M150 20c5.52 0 10 4.48 10 10s-4.48 10-10 10h-20c-5.52 0-10-4.48-10-10s4.48-10 10-10z" stroke="#1a7db6" stroke-width="2" fill="#1a7db6"/><path d="M20 180h140v60H20z" stroke="#000" stroke-width="2" fill="#fff"/><path d="M100 180c11.05 0 20 8.95 20 20s-8.95 20-20 20H40c-11.05 0-20-8.95-20-20s8.95-20 20-20z" stroke="#1a7db6" stroke-width="2" fill="#1a7db6"/><path d="M180 180h140v60H180z" stroke="#000" stroke-width="2" fill="#fff"/><path d="M260 180c11.05 0 20 8.95 20 20s-8.95 20-20 20h-60c-11.05 0-20-8.95-20-20s8.95-20 20-20z" stroke="#1a7db6" stroke-width="2" fill="#1a7db6"/><path d="M20 340h180v60H20z" stroke="#000" stroke-width="2" fill="#fff"/><path d="M110 340c16.57 0 30 13.43 30 30s-13.43 30-30 30H50c-16.57 0-30-13.43-30-30s13.43-30 30-30z" stroke="#1a7db6" stroke-width="2" fill="#1a7db6"/><path d="M220 340h180v60H220z" stroke="#000" stroke-width="2" fill="#fff"/><path d="M310 340c16.57 0 30 13.43 30 30s-13.43 30-30 30h-60c-16.57 0-30-13.43-30-30s13.43-30 30-30z" stroke="#1a7db6" stroke-width="2" fill="#1a7db6"/><path d="M420 340h180v60H420z" stroke="#000" stroke-width="2" fill="#fff"/><path d="M510 340c16.57 0 30 13.43 30 30s-13.43 30-30 30h-60c-16.57 0-30-13.43-30-30s13.43-30 30-30z" stroke="#1a7db6" stroke-width="2" fill="#1a7db6"/><path d="M620 340h180v60H620z" stroke="#000" stroke-width="2" fill="#fff"/><path d="M710 340c16.57 0 30 13.43 30 30s-13.43 30-30 30h-60c-16.57 0-30-13.43-30-30s13.43-30 30-30z" stroke="#1a7db6" stroke-width="2" fill="#1a7db6"/><path d="M820 340h180v60H820z" stroke="#000" stroke-width="2" fill="#fff"/><path d="M910 340c16.57 0 30 13.43 30 30s-13.43 30-30 30h-60c-16.57 0-30-13.43-30-30s13.43-30 30-30z" stroke="#1a7db6" stroke-width="2" fill="#1a7db6"/><path d="M1020 340h180v60h-180z" stroke="#000" stroke-width="2" fill="#fff"/><path d="M1110 340c16.57 0 30 13.43 30 30s-13.43 30-30 30h-60c-16.57 0-30-13.43-30-30s13.43-30 30-30z" stroke="#1a7db6" stroke-width="2" fill="#1a7db6"/><path d="M60 261v40.5M60 261.03V260" stroke="#000" stroke-width="2" fill="none"/><path d="M60 316.76l-4.64-14.26h9.28z" stroke="#000" stroke-width="2"/></g></svg>