<svg xmlns="http://www.w3.org/2000/svg" xmlns:xlink="http://www.w3.org/1999/xlink" xmlns:lucid="lucid" width="803" height="703"><g transform="translate(-398.5 -38.5)" lucid:page-tab-id="0_0"><path d="M0 0h1870.4v1323.2H0z" fill="#fff"/><path d="M420 66a6 6 0 0 1 6-6h748a6 6 0 0 1 6 6v648a6 6 0 0 1-6 6H426a6 6 0 0 1-6-6z" stroke="#000" stroke-opacity="0" stroke-width="3" fill="#c997b1"/><use xlink:href="#a" transform="matrix(1,0,0,1,432,72) translate(0 14.4)"/><use xlink:href="#b" transform="matrix(1,0,0,1,432,72) translate(56.95 14.4)"/><use xlink:href="#c" transform="matrix(1,0,0,1,432,72) translate(159.65 14.4)"/><path d="M840 446a6 6 0 0 1 6-6h278.55a6 6 0 0 1 6 6v228a6 6 0 0 1-6 6H846a6 6 0 0 1-6-6z" stroke="#000" stroke-opacity="0" stroke-width="3" fill="#ae6188"/><use xlink:href="#d" transform="matrix(1,0,0,1,852,452) translate(0 14.4)"/><path d="M640 106a6 6 0 0 1 6-6h278.55a6 6 0 0 1 6 6v228a6 6 0 0 1-6 6H646a6 6 0 0 1-6-6z" stroke="#000" stroke-opacity="0" stroke-width="3" fill="#ae6188"/><use xlink:href="#e" transform="matrix(1,0,0,1,652,112) translate(0 14.4)"/><path d="M460 446a6 6 0 0 1 6-6h278.55a6 6 0 0 1 6 6v228a6 6 0 0 1-6 6H466a6 6 0 0 1-6-6z" stroke="#000" stroke-opacity="0" stroke-width="3" fill="#ae6188"/><use xlink:href="#f" transform="matrix(1,0,0,1,472,452) translate(0 14.4)"/><path d="M680 139.3h200V180H680z" stroke="#2e2f27" stroke-width="2" fill="#fff"/><use xlink:href="#g" transform="matrix(1,0,0,1,685,144.30322865266487) translate(59.6 18.275)"/><use xlink:href="#h" transform="matrix(1,0,0,1,685,144.30322865266487) translate(102.5 18.275)"/><path d="M680 200h200v40.7H680z" stroke="#2e2f27" stroke-width="2" fill="#fff"/><use xlink:href="#i" transform="matrix(1,0,0,1,685,205) translate(14.599999999999994 18.275)"/><path d="M500 480h200v40.7H500z" stroke="#2e2f27" stroke-width="2" fill="#fff"/><use xlink:href="#g" transform="matrix(1,0,0,1,505,484.99999999999994) translate(59.6 18.275)"/><use xlink:href="#h" transform="matrix(1,0,0,1,505,484.99999999999994) translate(102.5 18.275)"/><path d="M500 540.7h200v40.7H500z" stroke="#2e2f27" stroke-width="2" fill="#fff"/><use xlink:href="#i" transform="matrix(1,0,0,1,505,545.6967713473352) translate(14.599999999999994 18.275)"/><path d="M500 600h200v40.7H500z" stroke="#2e2f27" stroke-width="2" fill="#fff"/><use xlink:href="#j" transform="matrix(1,0,0,1,505,605) translate(12.650000000000006 18.275)"/><path d="M880 480h200v40.7H880z" stroke="#2e2f27" stroke-width="2" fill="#fff"/><use xlink:href="#g" transform="matrix(1,0,0,1,885.0000000000001,484.99999999999994) translate(59.6 18.275)"/><use xlink:href="#h" transform="matrix(1,0,0,1,885.0000000000001,484.99999999999994) translate(102.5 18.275)"/><path d="M880 540.7h200v40.7H880z" stroke="#2e2f27" stroke-width="2" fill="#fff"/><use xlink:href="#i" transform="matrix(1,0,0,1,885.0000000000001,545.6967713473352) translate(14.599999999999994 18.275)"/><path d="M880 600h200v40.7H880z" stroke="#2e2f27" stroke-width="2" fill="#fff"/><use xlink:href="#j" transform="matrix(1,0,0,1,885.0000000000001,605) translate(12.650000000000006 18.275)"/><path d="M786 341v43a6 6 0 0 0 6 6h187.27a6 6 0 0 1 6 6v25.5" stroke="#7b7d68" stroke-width="2" fill="none"/><path d="M787 341.03h-2V340h2z" stroke="#7b7d68" stroke-width=".05" fill="#7b7d68"/><path d="M985.27 436.76l-4.63-14.26h9.27z" stroke="#7b7d68" stroke-width="2" fill="#7b7d68"/><path d="M785.27 341v43a6 6 0 0 1-6 6h-168a6 6 0 0 0-6 6v25.5" stroke="#7b7d68" stroke-width="2" fill="none"/><path d="M786.27 341.03h-2V340h2z" stroke="#7b7d68" stroke-width=".05" fill="#7b7d68"/><path d="M605.27 436.76l-4.63-14.26h9.27z" stroke="#7b7d68" stroke-width="2" fill="#7b7d68"/><defs><path fill="#fff" d="M147 0H94L2-248h55l64 206c17-72 42-137 63-206h54" id="k"/><path fill="#fff" d="M185-48c-13 30-37 53-82 52C43 2 14-33 14-96s30-98 90-98c62 0 83 45 84 108H66c0 31 8 55 39 56 18 0 30-7 34-22zm-45-69c5-46-57-63-70-21-2 6-4 13-4 21h74" id="l"/><path fill="#fff" d="M137-138c1-29-70-34-71-4 15 46 118 7 119 86 1 83-164 76-172 9l43-7c4 19 20 25 44 25 33 8 57-30 24-41C81-84 22-81 20-136c-2-80 154-74 161-7" id="m"/><path fill="#fff" d="M135-194c53 0 70 44 70 98 0 56-19 98-73 100-31 1-45-17-59-34 3 33 2 69 2 105H25l-1-265h48c2 10 0 23 3 31 11-24 29-35 60-35zM114-30c33 0 39-31 40-66 0-38-9-64-40-64-56 0-55 130 0 130" id="n"/><path fill="#fff" d="M133-34C117-15 103 5 69 4 32 3 11-16 11-54c-1-60 55-63 116-61 1-26-3-47-28-47-18 1-26 9-28 27l-52-2c7-38 36-58 82-57s74 22 75 68l1 82c-1 14 12 18 25 15v27c-30 8-71 5-69-32zm-48 3c29 0 43-24 42-57-32 0-66-3-65 30 0 17 8 27 23 27" id="o"/><g id="a"><use transform="matrix(0.05,0,0,0.05,0,0)" xlink:href="#k"/><use transform="matrix(0.05,0,0,0.05,11,0)" xlink:href="#l"/><use transform="matrix(0.05,0,0,0.05,21,0)" xlink:href="#m"/><use transform="matrix(0.05,0,0,0.05,31,0)" xlink:href="#n"/><use transform="matrix(0.05,0,0,0.05,41.95,0)" xlink:href="#o"/></g><path fill="#fff" d="M199 0l-22-63H83L61 0H9l90-248h61L250 0h-51zm-33-102l-36-108c-10 38-24 72-36 108h72" id="p"/><path fill="#fff" d="M25 0v-261h50V0H25" id="q"/><path fill="#fff" d="M25-224v-37h50v37H25zM25 0v-190h50V0H25" id="r"/><path fill="#fff" d="M190-63c-7 42-38 67-86 67-59 0-84-38-90-98-12-110 154-137 174-36l-49 2c-2-19-15-32-35-32-30 0-35 28-38 64-6 74 65 87 74 30" id="s"/><path fill="#fff" d="M115-3C79 11 28 4 28-45v-112H4v-33h27l15-45h31v45h36v33H77v99c-1 23 16 31 38 25v30" id="t"/><path fill="#fff" d="M110-194c64 0 96 36 96 99 0 64-35 99-97 99-61 0-95-36-95-99 0-62 34-99 96-99zm-1 164c35 0 45-28 45-65 0-40-10-65-43-65-34 0-45 26-45 65 0 36 10 65 43 65" id="u"/><path fill="#fff" d="M135-194c87-1 58 113 63 194h-50c-7-57 23-157-34-157-59 0-34 97-39 157H25l-1-190h47c2 12-1 28 3 38 12-26 28-41 61-42" id="v"/><g id="b"><use transform="matrix(0.05,0,0,0.05,0,0)" xlink:href="#p"/><use transform="matrix(0.05,0,0,0.05,12.950000000000001,0)" xlink:href="#n"/><use transform="matrix(0.05,0,0,0.05,23.900000000000002,0)" xlink:href="#n"/><use transform="matrix(0.05,0,0,0.05,34.85,0)" xlink:href="#q"/><use transform="matrix(0.05,0,0,0.05,39.85,0)" xlink:href="#r"/><use transform="matrix(0.05,0,0,0.05,44.85,0)" xlink:href="#s"/><use transform="matrix(0.05,0,0,0.05,54.85,0)" xlink:href="#o"/><use transform="matrix(0.05,0,0,0.05,64.85,0)" xlink:href="#t"/><use transform="matrix(0.05,0,0,0.05,70.8,0)" xlink:href="#r"/><use transform="matrix(0.05,0,0,0.05,75.8,0)" xlink:href="#u"/><use transform="matrix(0.05,0,0,0.05,86.75,0)" xlink:href="#v"/></g><path fill="#fff" d="M147 0L96-86 75-71V0H25v-261h50v150l67-79h53l-66 74L201 0h-54" id="w"/><path fill="#fff" d="M195-6C206 82 75 100 31 46c-4-6-6-13-8-21l49-6c3 16 16 24 34 25 40 0 42-37 40-79-11 22-30 35-61 35-53 0-70-43-70-97 0-56 18-96 73-97 30 0 46 14 59 34l2-30h47zm-90-29c32 0 41-27 41-63 0-35-9-62-40-62-32 0-39 29-40 63 0 36 9 62 39 62" id="x"/><g id="c"><use transform="matrix(0.05,0,0,0.05,0,0)" xlink:href="#n"/><use transform="matrix(0.05,0,0,0.05,10.950000000000001,0)" xlink:href="#o"/><use transform="matrix(0.05,0,0,0.05,20.950000000000003,0)" xlink:href="#s"/><use transform="matrix(0.05,0,0,0.05,30.950000000000003,0)" xlink:href="#w"/><use transform="matrix(0.05,0,0,0.05,40.95,0)" xlink:href="#o"/><use transform="matrix(0.05,0,0,0.05,50.95,0)" xlink:href="#x"/><use transform="matrix(0.05,0,0,0.05,61.900000000000006,0)" xlink:href="#l"/></g><path fill="#fff" d="M210-169c-67 3-38 105-44 169h-31v-121c0-29-5-50-35-48C34-165 62-65 56 0H25l-1-190h30c1 10-1 24 2 32 10-44 99-50 107 0 11-21 27-35 58-36 85-2 47 119 55 194h-31v-121c0-29-5-49-35-48" id="y"/><path fill="#fff" d="M84 4C-5 8 30-112 23-190h32v120c0 31 7 50 39 49 72-2 45-101 50-169h31l1 190h-30c-1-10 1-25-2-33-11 22-28 36-60 37" id="z"/><path fill="#fff" d="M135-143c-3-34-86-38-87 0 15 53 115 12 119 90S17 21 10-45l28-5c4 36 97 45 98 0-10-56-113-15-118-90-4-57 82-63 122-42 12 7 21 19 24 35" id="A"/><path fill="#fff" d="M24-231v-30h32v30H24zM24 0v-190h32V0H24" id="B"/><path fill="#fff" d="M96-169c-40 0-48 33-48 73s9 75 48 75c24 0 41-14 43-38l32 2c-6 37-31 61-74 61-59 0-76-41-82-99-10-93 101-131 147-64 4 7 5 14 7 22l-32 3c-4-21-16-35-41-35" id="C"/><path fill="#fff" d="M33 0v-38h34V0H33" id="D"/><path fill="#fff" d="M85-194c31 0 48 13 60 33l-1-100h32l1 261h-30c-2-10 0-23-3-31C134-8 116 4 85 4 32 4 16-35 15-94c0-66 23-100 70-100zm9 24c-40 0-46 34-46 75 0 40 6 74 45 74 42 0 51-32 51-76 0-42-9-74-50-73" id="E"/><g id="d"><use transform="matrix(0.05,0,0,0.05,0,0)" xlink:href="#y"/><use transform="matrix(0.05,0,0,0.05,14.950000000000001,0)" xlink:href="#z"/><use transform="matrix(0.05,0,0,0.05,24.950000000000003,0)" xlink:href="#A"/><use transform="matrix(0.05,0,0,0.05,33.95,0)" xlink:href="#B"/><use transform="matrix(0.05,0,0,0.05,37.900000000000006,0)" xlink:href="#C"/><use transform="matrix(0.05,0,0,0.05,46.900000000000006,0)" xlink:href="#D"/><use transform="matrix(0.05,0,0,0.05,51.900000000000006,0)" xlink:href="#A"/><use transform="matrix(0.05,0,0,0.05,60.900000000000006,0)" xlink:href="#E"/></g><path fill="#fff" d="M59-47c-2 24 18 29 38 22v24C64 9 27 4 27-40v-127H5v-23h24l9-43h21v43h35v23H59v120" id="F"/><path fill="#fff" d="M100-194c63 0 86 42 84 106H49c0 40 14 67 53 68 26 1 43-12 49-29l28 8c-11 28-37 45-77 45C44 4 14-33 15-96c1-61 26-98 85-98zm52 81c6-60-76-77-97-28-3 7-6 17-6 28h103" id="G"/><g id="e"><use transform="matrix(0.05,0,0,0.05,0,0)" xlink:href="#B"/><use transform="matrix(0.05,0,0,0.05,3.95,0)" xlink:href="#F"/><use transform="matrix(0.05,0,0,0.05,8.95,0)" xlink:href="#G"/><use transform="matrix(0.05,0,0,0.05,18.95,0)" xlink:href="#y"/><use transform="matrix(0.05,0,0,0.05,33.9,0)" xlink:href="#A"/><use transform="matrix(0.05,0,0,0.05,42.9,0)" xlink:href="#D"/><use transform="matrix(0.05,0,0,0.05,47.9,0)" xlink:href="#A"/><use transform="matrix(0.05,0,0,0.05,56.900000000000006,0)" xlink:href="#E"/></g><path fill="#fff" d="M115-194c53 0 69 39 70 98 0 66-23 100-70 100C84 3 66-7 56-30L54 0H23l1-261h32v101c10-23 28-34 59-34zm-8 174c40 0 45-34 45-75 0-40-5-75-45-74-42 0-51 32-51 76 0 43 10 73 51 73" id="H"/><path fill="#fff" d="M100-194c62-1 85 37 85 99 1 63-27 99-86 99S16-35 15-95c0-66 28-99 85-99zM99-20c44 1 53-31 53-75 0-43-8-75-51-75s-53 32-53 75 10 74 51 75" id="I"/><path fill="#fff" d="M143 0L79-87 56-68V0H24v-261h32v163l83-92h37l-77 82L181 0h-38" id="J"/><g id="f"><use transform="matrix(0.05,0,0,0.05,0,0)" xlink:href="#H"/><use transform="matrix(0.05,0,0,0.05,10,0)" xlink:href="#I"/><use transform="matrix(0.05,0,0,0.05,20,0)" xlink:href="#I"/><use transform="matrix(0.05,0,0,0.05,30,0)" xlink:href="#J"/><use transform="matrix(0.05,0,0,0.05,39,0)" xlink:href="#A"/><use transform="matrix(0.05,0,0,0.05,48,0)" xlink:href="#D"/><use transform="matrix(0.05,0,0,0.05,53,0)" xlink:href="#A"/><use transform="matrix(0.05,0,0,0.05,62,0)" xlink:href="#E"/></g><path fill="#2e2f27" d="M101-234c-31-9-42 10-38 44h38v23H63V0H32v-167H5v-23h27c-7-52 17-82 69-68v24" id="K"/><path fill="#2e2f27" d="M24-231v-30h32v30H24zM24 0v-190h32V0H24" id="L"/><path fill="#2e2f27" d="M100-194c63 0 86 42 84 106H49c0 40 14 67 53 68 26 1 43-12 49-29l28 8c-11 28-37 45-77 45C44 4 14-33 15-96c1-61 26-98 85-98zm52 81c6-60-76-77-97-28-3 7-6 17-6 28h103" id="M"/><path fill="#2e2f27" d="M24 0v-261h32V0H24" id="N"/><path fill="#2e2f27" d="M85-194c31 0 48 13 60 33l-1-100h32l1 261h-30c-2-10 0-23-3-31C134-8 116 4 85 4 32 4 16-35 15-94c0-66 23-100 70-100zm9 24c-40 0-46 34-46 75 0 40 6 74 45 74 42 0 51-32 51-76 0-42-9-74-50-73" id="O"/><path fill="#2e2f27" d="M33-154v-36h34v36H33zM33 0v-36h34V0H33" id="P"/><g id="g"><use transform="matrix(0.05,0,0,0.05,0,0)" xlink:href="#K"/><use transform="matrix(0.05,0,0,0.05,5,0)" xlink:href="#L"/><use transform="matrix(0.05,0,0,0.05,8.95,0)" xlink:href="#M"/><use transform="matrix(0.05,0,0,0.05,18.95,0)" xlink:href="#N"/><use transform="matrix(0.05,0,0,0.05,22.9,0)" xlink:href="#O"/><use transform="matrix(0.05,0,0,0.05,32.9,0)" xlink:href="#P"/></g><path fill="#2e2f27" d="M59-47c-2 24 18 29 38 22v24C64 9 27 4 27-40v-127H5v-23h24l9-43h21v43h35v23H59v120" id="Q"/><g id="h"><use transform="matrix(0.05,0,0,0.05,0,0)" xlink:href="#Q"/><use transform="matrix(0.05,0,0,0.05,5,0)" xlink:href="#L"/><use transform="matrix(0.05,0,0,0.05,8.95,0)" xlink:href="#Q"/><use transform="matrix(0.05,0,0,0.05,13.949999999999998,0)" xlink:href="#N"/><use transform="matrix(0.05,0,0,0.05,17.9,0)" xlink:href="#M"/></g><path fill="#2e2f27" d="M210-169c-67 3-38 105-44 169h-31v-121c0-29-5-50-35-48C34-165 62-65 56 0H25l-1-190h30c1 10-1 24 2 32 10-44 99-50 107 0 11-21 27-35 58-36 85-2 47 119 55 194h-31v-121c0-29-5-49-35-48" id="R"/><path fill="#2e2f27" d="M135-143c-3-34-86-38-87 0 15 53 115 12 119 90S17 21 10-45l28-5c4 36 97 45 98 0-10-56-113-15-118-90-4-57 82-63 122-42 12 7 21 19 24 35" id="S"/><path fill="#2e2f27" d="M-5 72V49h209v23H-5" id="T"/><path fill="#2e2f27" d="M114-163C36-179 61-72 57 0H25l-1-190h30c1 12-1 29 2 39 6-27 23-49 58-41v29" id="U"/><path fill="#2e2f27" d="M141-36C126-15 110 5 73 4 37 3 15-17 15-53c-1-64 63-63 125-63 3-35-9-54-41-54-24 1-41 7-42 31l-33-3c5-37 33-52 76-52 45 0 72 20 72 64v82c-1 20 7 32 28 27v20c-31 9-61-2-59-35zM48-53c0 20 12 33 32 33 41-3 63-29 60-74-43 2-92-5-92 41" id="V"/><path fill="#2e2f27" d="M117-194c89-4 53 116 60 194h-32v-121c0-31-8-49-39-48C34-167 62-67 57 0H25l-1-190h30c1 10-1 24 2 32 11-22 29-35 61-36" id="W"/><path fill="#2e2f27" d="M143 0L79-87 56-68V0H24v-261h32v163l83-92h37l-77 82L181 0h-38" id="X"/><path fill="#2e2f27" d="M177-190C167-65 218 103 67 71c-23-6-38-20-44-43l32-5c15 47 100 32 89-28v-30C133-14 115 1 83 1 29 1 15-40 15-95c0-56 16-97 71-98 29-1 48 16 59 35 1-10 0-23 2-32h30zM94-22c36 0 50-32 50-73 0-42-14-75-50-75-39 0-46 34-46 75s6 73 46 73" id="Y"/><path fill="#2e2f27" d="M115-194c53 0 69 39 70 98 0 66-23 100-70 100C84 3 66-7 56-30L54 0H23l1-261h32v101c10-23 28-34 59-34zm-8 174c40 0 45-34 45-75 0-40-5-75-45-74-42 0-51 32-51 76 0 43 10 73 51 73" id="Z"/><g id="i"><use transform="matrix(0.05,0,0,0.05,0,0)" xlink:href="#L"/><use transform="matrix(0.05,0,0,0.05,3.95,0)" xlink:href="#Q"/><use transform="matrix(0.05,0,0,0.05,8.95,0)" xlink:href="#M"/><use transform="matrix(0.05,0,0,0.05,18.95,0)" xlink:href="#R"/><use transform="matrix(0.05,0,0,0.05,33.9,0)" xlink:href="#S"/><use transform="matrix(0.05,0,0,0.05,42.9,0)" xlink:href="#T"/><use transform="matrix(0.05,0,0,0.05,52.900000000000006,0)" xlink:href="#U"/><use transform="matrix(0.05,0,0,0.05,58.85,0)" xlink:href="#V"/><use transform="matrix(0.05,0,0,0.05,68.85,0)" xlink:href="#W"/><use transform="matrix(0.05,0,0,0.05,78.85,0)" xlink:href="#X"/><use transform="matrix(0.05,0,0,0.05,87.85,0)" xlink:href="#L"/><use transform="matrix(0.05,0,0,0.05,91.8,0)" xlink:href="#W"/><use transform="matrix(0.05,0,0,0.05,101.8,0)" xlink:href="#Y"/><use transform="matrix(0.05,0,0,0.05,111.80000000000001,0)" xlink:href="#T"/><use transform="matrix(0.05,0,0,0.05,121.80000000000001,0)" xlink:href="#Z"/><use transform="matrix(0.05,0,0,0.05,131.8,0)" xlink:href="#V"/><use transform="matrix(0.05,0,0,0.05,141.8,0)" xlink:href="#S"/><use transform="matrix(0.05,0,0,0.05,150.8,0)" xlink:href="#M"/></g><path fill="#2e2f27" d="M84 4C-5 8 30-112 23-190h32v120c0 31 7 50 39 49 72-2 45-101 50-169h31l1 190h-30c-1-10 1-25-2-33-11 22-28 36-60 37" id="aa"/><path fill="#2e2f27" d="M179-190L93 31C79 59 56 82 12 73V49c39 6 53-20 64-50L1-190h34L92-34l54-156h33" id="ab"/><g id="j"><use transform="matrix(0.05,0,0,0.05,0,0)" xlink:href="#L"/><use transform="matrix(0.05,0,0,0.05,3.95,0)" xlink:href="#Q"/><use transform="matrix(0.05,0,0,0.05,8.95,0)" xlink:href="#M"/><use transform="matrix(0.05,0,0,0.05,18.95,0)" xlink:href="#R"/><use transform="matrix(0.05,0,0,0.05,33.9,0)" xlink:href="#S"/><use transform="matrix(0.05,0,0,0.05,42.9,0)" xlink:href="#T"/><use transform="matrix(0.05,0,0,0.05,52.900000000000006,0)" xlink:href="#S"/><use transform="matrix(0.05,0,0,0.05,61.900000000000006,0)" xlink:href="#aa"/><use transform="matrix(0.05,0,0,0.05,71.9,0)" xlink:href="#R"/><use transform="matrix(0.05,0,0,0.05,86.85000000000001,0)" xlink:href="#R"/><use transform="matrix(0.05,0,0,0.05,101.80000000000001,0)" xlink:href="#V"/><use transform="matrix(0.05,0,0,0.05,111.80000000000001,0)" xlink:href="#U"/><use transform="matrix(0.05,0,0,0.05,117.75,0)" xlink:href="#ab"/><use transform="matrix(0.05,0,0,0.05,126.75,0)" xlink:href="#T"/><use transform="matrix(0.05,0,0,0.05,136.75,0)" xlink:href="#Q"/><use transform="matrix(0.05,0,0,0.05,141.75,0)" xlink:href="#L"/><use transform="matrix(0.05,0,0,0.05,145.7,0)" xlink:href="#W"/><use transform="matrix(0.05,0,0,0.05,155.7,0)" xlink:href="#ab"/></g></defs></g></svg>