<svg xmlns="http://www.w3.org/2000/svg" xmlns:xlink="http://www.w3.org/1999/xlink" xmlns:lucid="lucid" width="880" height="540"><g transform="translate(-80.00000000000003 -20)" lucid:page-tab-id="0_0"><path d="M0 0h1870.4v1323.2H0z" fill="#fff"/><path d="M910 40c16.57 0 30 13.43 30 30v440c0 16.57-13.43 30-30 30H130c-16.57 0-30-13.43-30-30V70c0-16.57 13.43-30 30-30z" stroke="#e5e5e5" stroke-width="2" fill="#e5e5e5"/><path d="M120 40h140v53.2H120z" stroke="#000" stroke-opacity="0" stroke-width="2" fill="#fff" fill-opacity="0"/><use xlink:href="#a" transform="matrix(1,0,0,1,125.00000000000003,45.00000000000002) translate(0 25.4)"/><path d="M870 100c16.57 0 30 13.43 30 30v340c0 16.57-13.43 30-30 30H170c-16.57 0-30-13.43-30-30V130c0-16.57 13.43-30 30-30z" stroke="#1a7db6" stroke-width="2" fill="#1a7db6"/><path d="M832.5 160c16.57 0 30 13.43 30 30v240c0 16.57-13.43 30-30 30H690c-16.57 0-30-13.43-30-30V190c0-16.57 13.43-30 30-30zM592.5 160c16.57 0 30 13.43 30 30v240c0 16.57-13.43 30-30 30H450c-16.57 0-30-13.43-30-30V190c0-16.57 13.43-30 30-30zM352.5 160c16.57 0 30 13.43 30 30v240c0 16.57-13.43 30-30 30H210c-16.57 0-30-13.43-30-30V190c0-16.57 13.43-30 30-30z" stroke="#1a7db6" stroke-width="2" fill="#f2a05b"/><path d="M162.5 100h180v40h-180z" stroke="#000" stroke-opacity="0" stroke-width="2" fill="#fff" fill-opacity="0"/><use xlink:href="#b" transform="matrix(1,0,0,1,167.50000000000003,105) translate(0 18.15)"/><path d="M200 220h162.5v53.4H200z" stroke="#000" stroke-width="2" fill="#fff"/><use xlink:href="#c" transform="matrix(1,0,0,1,205,225) translate(10.525000000000006 25.4)"/><use xlink:href="#d" transform="matrix(1,0,0,1,205,225) translate(88.525 25.4)"/><path d="M680 380h162.5v53.4H680z" stroke="#000" stroke-width="2" fill="#fff"/><use xlink:href="#e" transform="matrix(1,0,0,1,685,385) translate(25 25.4)"/><path d="M200 300h162.5v53.4H200z" stroke="#000" stroke-width="2" fill="#fff"/><use xlink:href="#f" transform="matrix(1,0,0,1,205,305) translate(-1.9249999999999972 25.6)"/><path d="M440 220h162.5v53.4H440z" stroke="#000" stroke-width="2" fill="#fff"/><use xlink:href="#c" transform="matrix(1,0,0,1,445,225) translate(10.525000000000006 25.4)"/><use xlink:href="#d" transform="matrix(1,0,0,1,445,225) translate(88.525 25.4)"/><path d="M202.5 160h180v40h-180z" stroke="#000" stroke-opacity="0" stroke-width="2" fill="#fff" fill-opacity="0"/><use xlink:href="#g" transform="matrix(1,0,0,1,207.50000000000003,165) translate(0 18.15)"/><use xlink:href="#h" transform="matrix(1,0,0,1,207.50000000000003,165) translate(45.900000000000006 18.15)"/><use xlink:href="#i" transform="matrix(1,0,0,1,207.50000000000003,165) translate(91.80000000000001 18.15)"/><path d="M442.5 160h180v40h-180z" stroke="#000" stroke-opacity="0" stroke-width="2" fill="#fff" fill-opacity="0"/><g><use xlink:href="#g" transform="matrix(1,0,0,1,447.5,165) translate(0 18.15)"/><use xlink:href="#h" transform="matrix(1,0,0,1,447.5,165) translate(45.900000000000006 18.15)"/><use xlink:href="#j" transform="matrix(1,0,0,1,447.5,165) translate(91.80000000000001 18.15)"/></g><path d="M682.5 160h180v40h-180z" stroke="#000" stroke-opacity="0" stroke-width="2" fill="#fff" fill-opacity="0"/><g><use xlink:href="#k" transform="matrix(1,0,0,1,687.5,165) translate(0 18.15)"/><use xlink:href="#h" transform="matrix(1,0,0,1,687.5,165) translate(37.95 18.15)"/><use xlink:href="#l" transform="matrix(1,0,0,1,687.5,165) translate(83.85000000000001 18.15)"/></g><defs><path fill="#fff" d="M136-208V0H84v-208H4v-40h212v40h-80" id="m"/><path fill="#fff" d="M185-48c-13 30-37 53-82 52C43 2 14-33 14-96s30-98 90-98c62 0 83 45 84 108H66c0 31 8 55 39 56 18 0 30-7 34-22zm-45-69c5-46-57-63-70-21-2 6-4 13-4 21h74" id="n"/><path fill="#fff" d="M135-194c87-1 58 113 63 194h-50c-7-57 23-157-34-157-59 0-34 97-39 157H25l-1-190h47c2 12-1 28 3 38 12-26 28-41 61-42" id="o"/><path fill="#fff" d="M133-34C117-15 103 5 69 4 32 3 11-16 11-54c-1-60 55-63 116-61 1-26-3-47-28-47-18 1-26 9-28 27l-52-2c7-38 36-58 82-57s74 22 75 68l1 82c-1 14 12 18 25 15v27c-30 8-71 5-69-32zm-48 3c29 0 43-24 42-57-32 0-66-3-65 30 0 17 8 27 23 27" id="p"/><path fill="#fff" d="M115-3C79 11 28 4 28-45v-112H4v-33h27l15-45h31v45h36v33H77v99c-1 23 16 31 38 25v30" id="q"/><g id="a"><use transform="matrix(0.05,0,0,0.05,0,0)" xlink:href="#m"/><use transform="matrix(0.05,0,0,0.05,9.600000000000001,0)" xlink:href="#n"/><use transform="matrix(0.05,0,0,0.05,19.6,0)" xlink:href="#o"/><use transform="matrix(0.05,0,0,0.05,30.55,0)" xlink:href="#p"/><use transform="matrix(0.05,0,0,0.05,40.550000000000004,0)" xlink:href="#o"/><use transform="matrix(0.05,0,0,0.05,51.5,0)" xlink:href="#q"/></g><path fill="#fff" d="M199 0l-22-63H83L61 0H9l90-248h61L250 0h-51zm-33-102l-36-108c-10 38-24 72-36 108h72" id="r"/><path fill="#fff" d="M135-194c53 0 70 44 70 98 0 56-19 98-73 100-31 1-45-17-59-34 3 33 2 69 2 105H25l-1-265h48c2 10 0 23 3 31 11-24 29-35 60-35zM114-30c33 0 39-31 40-66 0-38-9-64-40-64-56 0-55 130 0 130" id="s"/><path fill="#fff" d="M25 0v-261h50V0H25" id="t"/><path fill="#fff" d="M25-224v-37h50v37H25zM25 0v-190h50V0H25" id="u"/><path fill="#fff" d="M190-63c-7 42-38 67-86 67-59 0-84-38-90-98-12-110 154-137 174-36l-49 2c-2-19-15-32-35-32-30 0-35 28-38 64-6 74 65 87 74 30" id="v"/><path fill="#fff" d="M110-194c64 0 96 36 96 99 0 64-35 99-97 99-61 0-95-36-95-99 0-62 34-99 96-99zm-1 164c35 0 45-28 45-65 0-40-10-65-43-65-34 0-45 26-45 65 0 36 10 65 43 65" id="w"/><g id="b"><use transform="matrix(0.05,0,0,0.05,0,0)" xlink:href="#r"/><use transform="matrix(0.05,0,0,0.05,12.950000000000001,0)" xlink:href="#s"/><use transform="matrix(0.05,0,0,0.05,23.900000000000002,0)" xlink:href="#s"/><use transform="matrix(0.05,0,0,0.05,34.85,0)" xlink:href="#t"/><use transform="matrix(0.05,0,0,0.05,39.85,0)" xlink:href="#u"/><use transform="matrix(0.05,0,0,0.05,44.85,0)" xlink:href="#v"/><use transform="matrix(0.05,0,0,0.05,54.85,0)" xlink:href="#p"/><use transform="matrix(0.05,0,0,0.05,64.85,0)" xlink:href="#q"/><use transform="matrix(0.05,0,0,0.05,70.8,0)" xlink:href="#u"/><use transform="matrix(0.05,0,0,0.05,75.8,0)" xlink:href="#w"/><use transform="matrix(0.05,0,0,0.05,86.75,0)" xlink:href="#o"/></g><path d="M33 0v-248h34V0H33" id="x"/><path d="M117-194c89-4 53 116 60 194h-32v-121c0-31-8-49-39-48C34-167 62-67 57 0H25l-1-190h30c1 10-1 24 2 32 11-22 29-35 61-36" id="y"/><path d="M135-143c-3-34-86-38-87 0 15 53 115 12 119 90S17 21 10-45l28-5c4 36 97 45 98 0-10-56-113-15-118-90-4-57 82-63 122-42 12 7 21 19 24 35" id="z"/><path d="M59-47c-2 24 18 29 38 22v24C64 9 27 4 27-40v-127H5v-23h24l9-43h21v43h35v23H59v120" id="A"/><path d="M141-36C126-15 110 5 73 4 37 3 15-17 15-53c-1-64 63-63 125-63 3-35-9-54-41-54-24 1-41 7-42 31l-33-3c5-37 33-52 76-52 45 0 72 20 72 64v82c-1 20 7 32 28 27v20c-31 9-61-2-59-35zM48-53c0 20 12 33 32 33 41-3 63-29 60-74-43 2-92-5-92 41" id="B"/><path d="M96-169c-40 0-48 33-48 73s9 75 48 75c24 0 41-14 43-38l32 2c-6 37-31 61-74 61-59 0-76-41-82-99-10-93 101-131 147-64 4 7 5 14 7 22l-32 3c-4-21-16-35-41-35" id="C"/><path d="M100-194c63 0 86 42 84 106H49c0 40 14 67 53 68 26 1 43-12 49-29l28 8c-11 28-37 45-77 45C44 4 14-33 15-96c1-61 26-98 85-98zm52 81c6-60-76-77-97-28-3 7-6 17-6 28h103" id="D"/><path d="M33-154v-36h34v36H33zM33 0v-36h34V0H33" id="E"/><g id="c"><use transform="matrix(0.05,0,0,0.05,0,0)" xlink:href="#x"/><use transform="matrix(0.05,0,0,0.05,5,0)" xlink:href="#y"/><use transform="matrix(0.05,0,0,0.05,15,0)" xlink:href="#z"/><use transform="matrix(0.05,0,0,0.05,24,0)" xlink:href="#A"/><use transform="matrix(0.05,0,0,0.05,29,0)" xlink:href="#B"/><use transform="matrix(0.05,0,0,0.05,39,0)" xlink:href="#y"/><use transform="matrix(0.05,0,0,0.05,49,0)" xlink:href="#C"/><use transform="matrix(0.05,0,0,0.05,58,0)" xlink:href="#D"/><use transform="matrix(0.05,0,0,0.05,68,0)" xlink:href="#E"/></g><path d="M85-194c31 0 48 13 60 33l-1-100h32l1 261h-30c-2-10 0-23-3-31C134-8 116 4 85 4 32 4 16-35 15-94c0-66 23-100 70-100zm9 24c-40 0-46 34-46 75 0 40 6 74 45 74 42 0 51-32 51-76 0-42-9-74-50-73" id="F"/><path d="M101-234c-31-9-42 10-38 44h38v23H63V0H32v-167H5v-23h27c-7-52 17-82 69-68v24" id="G"/><path d="M84 4C-5 8 30-112 23-190h32v120c0 31 7 50 39 49 72-2 45-101 50-169h31l1 190h-30c-1-10 1-25-2-33-11 22-28 36-60 37" id="H"/><path d="M24 0v-261h32V0H24" id="I"/><g id="d"><use transform="matrix(0.05,0,0,0.05,0,0)" xlink:href="#F"/><use transform="matrix(0.05,0,0,0.05,10,0)" xlink:href="#D"/><use transform="matrix(0.05,0,0,0.05,20,0)" xlink:href="#G"/><use transform="matrix(0.05,0,0,0.05,25,0)" xlink:href="#B"/><use transform="matrix(0.05,0,0,0.05,35,0)" xlink:href="#H"/><use transform="matrix(0.05,0,0,0.05,45,0)" xlink:href="#I"/><use transform="matrix(0.05,0,0,0.05,48.95,0)" xlink:href="#A"/></g><path d="M115-194c53 0 69 39 70 98 0 66-23 100-70 100C84 3 66-7 56-30L54 0H23l1-261h32v101c10-23 28-34 59-34zm-8 174c40 0 45-34 45-75 0-40-5-75-45-74-42 0-51 32-51 76 0 43 10 73 51 73" id="J"/><path d="M100-194c62-1 85 37 85 99 1 63-27 99-86 99S16-35 15-95c0-66 28-99 85-99zM99-20c44 1 53-31 53-75 0-43-8-75-51-75s-53 32-53 75 10 74 51 75" id="K"/><g id="e"><use transform="matrix(0.05,0,0,0.05,0,0)" xlink:href="#x"/><use transform="matrix(0.05,0,0,0.05,5,0)" xlink:href="#y"/><use transform="matrix(0.05,0,0,0.05,15,0)" xlink:href="#z"/><use transform="matrix(0.05,0,0,0.05,24,0)" xlink:href="#A"/><use transform="matrix(0.05,0,0,0.05,29,0)" xlink:href="#B"/><use transform="matrix(0.05,0,0,0.05,39,0)" xlink:href="#y"/><use transform="matrix(0.05,0,0,0.05,49,0)" xlink:href="#C"/><use transform="matrix(0.05,0,0,0.05,58,0)" xlink:href="#D"/><use transform="matrix(0.05,0,0,0.05,68,0)" xlink:href="#E"/><use transform="matrix(0.05,0,0,0.05,73,0)" xlink:href="#J"/><use transform="matrix(0.05,0,0,0.05,83,0)" xlink:href="#K"/><use transform="matrix(0.05,0,0,0.05,93,0)" xlink:href="#J"/></g><path d="M24-231v-30h32v30H24zM24 0v-190h32V0H24" id="L"/><path d="M177-190C167-65 218 103 67 71c-23-6-38-20-44-43l32-5c15 47 100 32 89-28v-30C133-14 115 1 83 1 29 1 15-40 15-95c0-56 16-97 71-98 29-1 48 16 59 35 1-10 0-23 2-32h30zM94-22c36 0 50-32 50-73 0-42-14-75-50-75-39 0-46 34-46 75s6 73 46 73" id="M"/><path d="M114-163C36-179 61-72 57 0H25l-1-190h30c1 12-1 29 2 39 6-27 23-49 58-41v29" id="N"/><g id="f"><use transform="matrix(0.05,0,0,0.05,0,0)" xlink:href="#x"/><use transform="matrix(0.05,0,0,0.05,5,0)" xlink:href="#y"/><use transform="matrix(0.05,0,0,0.05,15,0)" xlink:href="#z"/><use transform="matrix(0.05,0,0,0.05,24,0)" xlink:href="#A"/><use transform="matrix(0.05,0,0,0.05,29,0)" xlink:href="#B"/><use transform="matrix(0.05,0,0,0.05,39,0)" xlink:href="#y"/><use transform="matrix(0.05,0,0,0.05,49,0)" xlink:href="#C"/><use transform="matrix(0.05,0,0,0.05,58,0)" xlink:href="#D"/><use transform="matrix(0.05,0,0,0.05,68,0)" xlink:href="#E"/><use transform="matrix(0.05,0,0,0.05,73,0)" xlink:href="#L"/><use transform="matrix(0.05,0,0,0.05,76.95,0)" xlink:href="#y"/><use transform="matrix(0.05,0,0,0.05,86.95,0)" xlink:href="#A"/><use transform="matrix(0.05,0,0,0.05,91.95,0)" xlink:href="#D"/><use transform="matrix(0.05,0,0,0.05,101.95,0)" xlink:href="#M"/><use transform="matrix(0.05,0,0,0.05,111.95,0)" xlink:href="#N"/><use transform="matrix(0.05,0,0,0.05,117.9,0)" xlink:href="#B"/><use transform="matrix(0.05,0,0,0.05,127.9,0)" xlink:href="#A"/><use transform="matrix(0.05,0,0,0.05,132.9,0)" xlink:href="#L"/><use transform="matrix(0.05,0,0,0.05,136.85,0)" xlink:href="#K"/><use transform="matrix(0.05,0,0,0.05,146.85,0)" xlink:href="#y"/></g><path fill="#fff" d="M24-248c93 1 206-16 204 79-1 75-69 88-152 82V0H24v-248zm52 121c47 0 100 7 100-41 0-47-54-39-100-39v80" id="O"/><path fill="#fff" d="M135-150c-39-12-60 13-60 57V0H25l-1-190h47c2 13-1 29 3 40 6-28 27-53 61-41v41" id="P"/><path fill="#fff" d="M88-194c31-1 46 15 58 34l-1-101h50l1 261h-48c-2-10 0-23-3-31C134-8 116 4 84 4 32 4 16-41 15-95c0-56 19-97 73-99zm17 164c33 0 40-30 41-66 1-37-9-64-41-64s-38 30-39 65c0 43 13 65 39 65" id="Q"/><g id="g"><use transform="matrix(0.05,0,0,0.05,0,0)" xlink:href="#O"/><use transform="matrix(0.05,0,0,0.05,12,0)" xlink:href="#P"/><use transform="matrix(0.05,0,0,0.05,19,0)" xlink:href="#w"/><use transform="matrix(0.05,0,0,0.05,29.950000000000003,0)" xlink:href="#Q"/></g><path fill="#fff" d="M12 0v-35l95-120H19v-35h142v35L67-36h103V0H12" id="R"/><g id="h"><use transform="matrix(0.05,0,0,0.05,0,0)" xlink:href="#R"/><use transform="matrix(0.05,0,0,0.05,9,0)" xlink:href="#w"/><use transform="matrix(0.05,0,0,0.05,19.950000000000003,0)" xlink:href="#o"/><use transform="matrix(0.05,0,0,0.05,30.900000000000006,0)" xlink:href="#n"/></g><use transform="matrix(0.05,0,0,0.05,0,0)" xlink:href="#r" id="i"/><path fill="#fff" d="M182-130c37 4 62 22 62 59C244 23 116-4 24 0v-248c84 5 203-23 205 63 0 31-19 50-47 55zM76-148c40-3 101 13 101-30 0-44-60-28-101-31v61zm0 110c48-3 116 14 116-37 0-48-69-32-116-35v72" id="S"/><use transform="matrix(0.05,0,0,0.05,0,0)" xlink:href="#S" id="j"/><path fill="#fff" d="M24-248c120-7 223 5 221 122C244-46 201 0 124 0H24v-248zM76-40c74 7 117-18 117-86 0-67-45-88-117-82v168" id="T"/><path fill="#fff" d="M128 0H69L1-190h53L99-40l48-150h52" id="U"/><g id="k"><use transform="matrix(0.05,0,0,0.05,0,0)" xlink:href="#T"/><use transform="matrix(0.05,0,0,0.05,12.950000000000001,0)" xlink:href="#n"/><use transform="matrix(0.05,0,0,0.05,22.950000000000003,0)" xlink:href="#U"/></g><path fill="#fff" d="M182 0l-62-99L58 0H3l86-130-79-118h55l55 88 55-88h55l-75 118L237 0h-55" id="V"/><use transform="matrix(0.05,0,0,0.05,0,0)" xlink:href="#V" id="l"/></defs></g></svg>