<svg xmlns="http://www.w3.org/2000/svg" xmlns:lucid="lucid" width="1780" height="820"><g lucid:page-tab-id="0_0" stroke-width="2"><path d="M130 20c16.57 0 30 13.43 30 30v40c0 16.57-13.43 30-30 30H50c-16.57 0-30-13.43-30-30V50c0-16.57 13.43-30 30-30zM290 20c16.57 0 30 13.43 30 30v40c0 16.57-13.43 30-30 30h-80c-16.57 0-30-13.43-30-30V50c0-16.57 13.43-30 30-30zM450 20c16.57 0 30 13.43 30 30v40c0 16.57-13.43 30-30 30h-80c-16.57 0-30-13.43-30-30V50c0-16.57 13.43-30 30-30zM610 20c16.57 0 30 13.43 30 30v40c0 16.57-13.43 30-30 30h-80c-16.57 0-30-13.43-30-30V50c0-16.57 13.43-30 30-30zM770 20c16.57 0 30 13.43 30 30v40c0 16.57-13.43 30-30 30h-80c-16.57 0-30-13.43-30-30V50c0-16.57 13.43-30 30-30zM930 20c16.57 0 30 13.43 30 30v40c0 16.57-13.43 30-30 30h-80c-16.57 0-30-13.43-30-30V50c0-16.57 13.43-30 30-30zM1090 20c16.57 0 30 13.43 30 30v40c0 16.57-13.43 30-30 30h-80c-16.57 0-30-13.43-30-30V50c0-16.57 13.43-30 30-30zM1250 20c16.57 0 30 13.43 30 30v40c0 16.57-13.43 30-30 30h-80c-16.57 0-30-13.43-30-30V50c0-16.57 13.43-30 30-30zM1410 20c16.57 0 30 13.43 30 30v40c0 16.57-13.43 30-30 30h-80c-16.57 0-30-13.43-30-30V50c0-16.57 13.43-30 30-30zM1570 20c16.57 0 30 13.43 30 30v40c0 16.57-13.43 30-30 30h-80c-16.57 0-30-13.43-30-30V50c0-16.57 13.43-30 30-30zM1730 20c16.57 0 30 13.43 30 30v40c0 16.57-13.43 30-30 30h-80c-16.57 0-30-13.43-30-30V50c0-16.57 13.43-30 30-30zM770 280c16.57 0 30 13.43 30 30v40c0 16.57-13.43 30-30 30h-80c-16.57 0-30-13.43-30-30v-40c0-16.57 13.43-30 30-30zM930 280c16.57 0 30 13.43 30 30v40c0 16.57-13.43 30-30 30h-80c-16.57 0-30-13.43-30-30v-40c0-16.57 13.43-30 30-30zM1090 280c16.57 0 30 13.43 30 30v40c0 16.57-13.43 30-30 30h-80c-16.57 0-30-13.43-30-30v-40c0-16.57 13.43-30 30-30zM770 400c16.57 0 30 13.43 30 30v40c0 16.57-13.43 30-30 30h-80c-16.57 0-30-13.43-30-30v-40c0-16.57 13.43-30 30-30zM930 400c16.57 0 30 13.43 30 30v40c0 16.57-13.43 30-30 30h-80c-16.57 0-30-13.43-30-30v-40c0-16.57 13.43-30 30-30zM1090 400c16.57 0 30 13.43 30 30v40c0 16.57-13.43 30-30 30h-80c-16.57 0-30-13.43-30-30v-40c0-16.57 13.43-30 30-30z" stroke="#1a7db6" fill="#1a7db6"/><path d="M880 161v60.5M880 161.03V160" stroke="#000" fill="none"/><path d="M880 236.76l-4.64-14.26h9.28z" stroke="#000"/><path d="M880 542.6v60.5M880 542.63v-1.03" stroke="#000" fill="none"/><path d="M880 618.36l-4.64-14.26h9.28z" stroke="#000"/><path d="M770 660c16.57 0 30 13.43 30 30s-13.43 30-30 30h-60c-16.57 0-30-13.43-30-30s13.43-30 30-30zM910 660c16.57 0 30 13.43 30 30s-13.43 30-30 30h-60c-16.57 0-30-13.43-30-30s13.43-30 30-30zM1050 660c16.57 0 30 13.43 30 30s-13.43 30-30 30h-60c-16.57 0-30-13.43-30-30s13.43-30 30-30zM770 740c16.57 0 30 13.43 30 30s-13.43 30-30 30h-60c-16.57 0-30-13.43-30-30s13.43-30 30-30zM910 740c16.57 0 30 13.43 30 30s-13.43 30-30 30h-60c-16.57 0-30-13.43-30-30s13.43-30 30-30zM1050 740c16.57 0 30 13.43 30 30s-13.43 30-30 30h-60c-16.57 0-30-13.43-30-30s13.43-30 30-30z" stroke="#1a7db6" fill="#1a7db6"/></g></svg>