<svg xmlns="http://www.w3.org/2000/svg" xmlns:xlink="http://www.w3.org/1999/xlink" xmlns:lucid="lucid" width="1083" height="1242.5"><g transform="translate(-218.5 -38.5)" lucid:page-tab-id="0_0"><path d="M0 0h1870.87v1322.84H0z" fill="#fff"/><path d="M240 66a6 6 0 0 1 6-6h1028a6 6 0 0 1 6 6v469.93a6 6 0 0 1-6 6H246a6 6 0 0 1-6-6z" stroke="#000" stroke-opacity="0" stroke-width="3" fill="#c997b1"/><use xlink:href="#a" transform="matrix(1,0,0,1,252,72) translate(0 14.4)"/><use xlink:href="#b" transform="matrix(1,0,0,1,252,72) translate(60.900000000000006 14.4)"/><path d="M320 286a6 6 0 0 1 6-6h408a6 6 0 0 1 6 6v208a6 6 0 0 1-6 6H326a6 6 0 0 1-6-6z" stroke="#ae6188" stroke-width="2" fill="#fff"/><use xlink:href="#c" transform="matrix(1,0,0,1,325,285) translate(0 14.4)"/><path d="M320 586a6 6 0 0 1 6-6h408a6 6 0 0 1 6 6v668a6 6 0 0 1-6 6H326a6 6 0 0 1-6-6z" stroke="#ae6188" stroke-width="2" fill="#fff"/><use xlink:href="#d" transform="matrix(1,0,0,1,325,585) translate(0 14.4)"/><path d="M360 946a6 6 0 0 1 6-6h328a6 6 0 0 1 6 6v268a6 6 0 0 1-6 6H366a6 6 0 0 1-6-6z" stroke="#000" stroke-opacity="0" stroke-width="3" fill="#c997b1"/><use xlink:href="#e" transform="matrix(1,0,0,1,372,952) translate(0 14.4)"/><use xlink:href="#f" transform="matrix(1,0,0,1,372,952) translate(51.95 14.4)"/><use xlink:href="#g" transform="matrix(1,0,0,1,372,952) translate(73.85000000000001 14.4)"/><path d="M400 986a6 6 0 0 1 6-6h208a6 6 0 0 1 6 6v148a6 6 0 0 1-6 6H406a6 6 0 0 1-6-6z" stroke="#2e2f27" stroke-width="3" fill="#fff"/><use xlink:href="#h" transform="matrix(1,0,0,1,405,985) translate(0 17.95555555555552)"/><use xlink:href="#i" transform="matrix(1,0,0,1,405,985) translate(0 44.8888888888888)"/><use xlink:href="#j" transform="matrix(1,0,0,1,405,985) translate(24.938271604938222 44.8888888888888)"/><use xlink:href="#i" transform="matrix(1,0,0,1,405,985) translate(0 71.82222222222208)"/><use xlink:href="#k" transform="matrix(1,0,0,1,405,985) translate(24.938271604938222 71.82222222222208)"/><use xlink:href="#i" transform="matrix(1,0,0,1,405,985) translate(0 98.75555555555536)"/><use xlink:href="#l" transform="matrix(1,0,0,1,405,985) translate(24.938271604938222 98.75555555555536)"/><use xlink:href="#m" transform="matrix(1,0,0,1,405,985) translate(0 125.68888888888864)"/><path d="M420 1006a6 6 0 0 1 6-6h208a6 6 0 0 1 6 6v148a6 6 0 0 1-6 6H426a6 6 0 0 1-6-6z" stroke="#2e2f27" stroke-width="3" fill="#fff"/><use xlink:href="#h" transform="matrix(1,0,0,1,425,1005) translate(0 17.95555555555552)"/><use xlink:href="#i" transform="matrix(1,0,0,1,425,1005) translate(0 44.8888888888888)"/><use xlink:href="#j" transform="matrix(1,0,0,1,425,1005) translate(24.938271604938222 44.8888888888888)"/><use xlink:href="#i" transform="matrix(1,0,0,1,425,1005) translate(0 71.82222222222208)"/><use xlink:href="#k" transform="matrix(1,0,0,1,425,1005) translate(24.938271604938222 71.82222222222208)"/><use xlink:href="#i" transform="matrix(1,0,0,1,425,1005) translate(0 98.75555555555536)"/><use xlink:href="#l" transform="matrix(1,0,0,1,425,1005) translate(24.938271604938222 98.75555555555536)"/><use xlink:href="#m" transform="matrix(1,0,0,1,425,1005) translate(0 125.68888888888864)"/><path d="M440 1026a6 6 0 0 1 6-6h208a6 6 0 0 1 6 6v148a6 6 0 0 1-6 6H446a6 6 0 0 1-6-6z" stroke="#2e2f27" stroke-width="3" fill="#fff"/><use xlink:href="#h" transform="matrix(1,0,0,1,445,1025) translate(0 17.95555555555552)"/><use xlink:href="#i" transform="matrix(1,0,0,1,445,1025) translate(0 44.8888888888888)"/><use xlink:href="#j" transform="matrix(1,0,0,1,445,1025) translate(24.938271604938222 44.8888888888888)"/><use xlink:href="#i" transform="matrix(1,0,0,1,445,1025) translate(0 71.82222222222208)"/><use xlink:href="#k" transform="matrix(1,0,0,1,445,1025) translate(24.938271604938222 71.82222222222208)"/><use xlink:href="#i" transform="matrix(1,0,0,1,445,1025) translate(0 98.75555555555536)"/><use xlink:href="#l" transform="matrix(1,0,0,1,445,1025) translate(24.938271604938222 98.75555555555536)"/><use xlink:href="#m" transform="matrix(1,0,0,1,445,1025) translate(0 125.68888888888864)"/><path d="M400 866a6 6 0 0 1 6-6h208a6 6 0 0 1 6 6v48a6 6 0 0 1-6 6H406a6 6 0 0 1-6-6z" stroke="#2e2f27" stroke-width="3" fill="#fff"/><use xlink:href="#n" transform="matrix(1,0,0,1,405,865) translate(0 30.45555555555552)"/><path d="M400 786a6 6 0 0 1 6-6h208a6 6 0 0 1 6 6v48a6 6 0 0 1-6 6H406a6 6 0 0 1-6-6z" stroke="#2e2f27" stroke-width="3" fill="#fff"/><use xlink:href="#o" transform="matrix(1,0,0,1,405,785) translate(0 30.45555555555552)"/><path d="M400 706a6 6 0 0 1 6-6h208a6 6 0 0 1 6 6v48a6 6 0 0 1-6 6H406a6 6 0 0 1-6-6z" stroke="#2e2f27" stroke-width="3" fill="#fff"/><use xlink:href="#p" transform="matrix(1,0,0,1,405,705) translate(0 30.45555555555552)"/><path d="M400 626a6 6 0 0 1 6-6h208a6 6 0 0 1 6 6v48a6 6 0 0 1-6 6H406a6 6 0 0 1-6-6z" stroke="#2e2f27" stroke-width="3" fill="#fff"/><use xlink:href="#q" transform="matrix(1,0,0,1,405,625) translate(0 30.45555555555552)"/><path d="M400 406a6 6 0 0 1 6-6h208a6 6 0 0 1 6 6v48a6 6 0 0 1-6 6H406a6 6 0 0 1-6-6z" stroke="#2e2f27" stroke-width="3" fill="#fff"/><use xlink:href="#r" transform="matrix(1,0,0,1,405,405) translate(0 30.45555555555552)"/><path d="M400 324.07a6 6 0 0 1 6-6h208a6 6 0 0 1 6 6v51.86a6 6 0 0 1-6 6H406a6 6 0 0 1-6-6z" stroke="#2e2f27" stroke-width="3" fill="#fff"/><use xlink:href="#s" transform="matrix(1,0,0,1,405,323.0666666666667) translate(0 31.45555555555552)"/><path d="M320 106a6 6 0 0 1 6-6h408a6 6 0 0 1 6 6v128a6 6 0 0 1-6 6H326a6 6 0 0 1-6-6z" stroke="#ae6188" stroke-width="2" fill="#fff"/><use xlink:href="#t" transform="matrix(1,0,0,1,325,105) translate(0 14.4)"/><path d="M400 144.07a6 6 0 0 1 6-6h208a6 6 0 0 1 6 6v51.86a6 6 0 0 1-6 6H406a6 6 0 0 1-6-6z" stroke="#2e2f27" stroke-width="3" fill="#fff"/><g><use xlink:href="#u" transform="matrix(1,0,0,1,405,143.06666666666672) translate(0 31.45555555555552)"/></g><path d="M820 286a6 6 0 0 1 6-6h408a6 6 0 0 1 6 6v208a6 6 0 0 1-6 6H826a6 6 0 0 1-6-6z" stroke="#ae6188" stroke-width="2" fill="#fff"/><g><use xlink:href="#v" transform="matrix(1,0,0,1,825,285) translate(0 14.4)"/></g><path d="M900 406a6 6 0 0 1 6-6h208a6 6 0 0 1 6 6v48a6 6 0 0 1-6 6H906a6 6 0 0 1-6-6z" stroke="#2e2f27" stroke-width="3" fill="#fff"/><g><use xlink:href="#w" transform="matrix(1,0,0,1,905,405) translate(0 30.45555555555552)"/></g><path d="M900 324.07a6 6 0 0 1 6-6h208a6 6 0 0 1 6 6v51.86a6 6 0 0 1-6 6H906a6 6 0 0 1-6-6z" stroke="#2e2f27" stroke-width="3" fill="#fff"/><g><use xlink:href="#x" transform="matrix(1,0,0,1,905,323.0666666666667) translate(0 31.45555555555552)"/></g><path d="M897.5 430H806a6 6 0 0 0-6 6v448a6 6 0 0 1-6 6H640" stroke="#7b7d68" stroke-width="2" fill="none"/><path d="M898.5 431h-1.03v-2h1.03z" stroke="#7b7d68" stroke-width=".05" fill="#7b7d68"/><path d="M624.74 890l14.26-4.63v9.26z" stroke="#7b7d68" stroke-width="2" fill="#7b7d68"/><path d="M897.5 350H786a6 6 0 0 0-6 6v448a6 6 0 0 1-6 6H640" stroke="#7b7d68" stroke-width="2" fill="none"/><path d="M898.5 351h-1.03v-2h1.03z" stroke="#7b7d68" stroke-width=".05" fill="#7b7d68"/><path d="M624.74 810l14.26-4.63v9.26z" stroke="#7b7d68" stroke-width="2" fill="#7b7d68"/><path d="M622.5 170H754a6 6 0 0 1 6 6v248a6 6 0 0 1-6 6H640" stroke="#7b7d68" stroke-width="2" fill="none"/><path d="M622.53 171h-1.03v-2h1.03z" stroke="#7b7d68" stroke-width=".05" fill="#7b7d68"/><path d="M624.74 430l14.26-4.63v9.26z" stroke="#7b7d68" stroke-width="2" fill="#7b7d68"/><path d="M397.5 350H286a6 6 0 0 0-6 6v408.13a6 6 0 0 0 6 6h66.5a6 6 0 0 0 6-6v-28a6 6 0 0 1 6-6H380" stroke="#7b7d68" stroke-width="2" fill="none"/><path d="M398.5 351h-1.03v-2h1.03z" stroke="#7b7d68" stroke-width=".05" fill="#7b7d68"/><path d="M395.26 730.13L381 734.76v-9.27z" stroke="#7b7d68" stroke-width="2" fill="#7b7d68"/><path d="M397.5 432.12H306a6 6 0 0 0-6 6v205.35a6 6 0 0 0 6 6h74" stroke="#7b7d68" stroke-width="2" fill="none"/><path d="M398.5 433.12h-1.03v-2h1.03z" stroke="#7b7d68" stroke-width=".05" fill="#7b7d68"/><path d="M395.26 649.47L381 654.1v-9.27z" stroke="#7b7d68" stroke-width="2" fill="#7b7d68"/><defs><path fill="#fff" d="M67-125c0 54 23 88 75 88 28 0 53-7 68-21v-34h-60v-39h108v91C232-14 192 4 140 4 58 4 20-42 15-125 8-236 126-280 215-234c19 10 29 26 37 47l-47 15c-11-23-29-39-63-39-53 1-75 33-75 86" id="y"/><path fill="#fff" d="M25 0v-261h50V0H25" id="z"/><path fill="#fff" d="M110-194c64 0 96 36 96 99 0 64-35 99-97 99-61 0-95-36-95-99 0-62 34-99 96-99zm-1 164c35 0 45-28 45-65 0-40-10-65-43-65-34 0-45 26-45 65 0 36 10 65 43 65" id="A"/><path fill="#fff" d="M135-194c52 0 70 43 70 98 0 56-19 99-73 100-30 1-46-15-58-35L72 0H24l1-261h50v104c11-23 29-37 60-37zM114-30c31 0 40-27 40-66 0-37-7-63-39-63s-41 28-41 65c0 36 8 64 40 64" id="B"/><path fill="#fff" d="M133-34C117-15 103 5 69 4 32 3 11-16 11-54c-1-60 55-63 116-61 1-26-3-47-28-47-18 1-26 9-28 27l-52-2c7-38 36-58 82-57s74 22 75 68l1 82c-1 14 12 18 25 15v27c-30 8-71 5-69-32zm-48 3c29 0 43-24 42-57-32 0-66-3-65 30 0 17 8 27 23 27" id="C"/><g id="a"><use transform="matrix(0.05,0,0,0.05,0,0)" xlink:href="#y"/><use transform="matrix(0.05,0,0,0.05,14,0)" xlink:href="#z"/><use transform="matrix(0.05,0,0,0.05,19,0)" xlink:href="#A"/><use transform="matrix(0.05,0,0,0.05,29.950000000000003,0)" xlink:href="#B"/><use transform="matrix(0.05,0,0,0.05,40.900000000000006,0)" xlink:href="#C"/><use transform="matrix(0.05,0,0,0.05,50.900000000000006,0)" xlink:href="#z"/></g><path fill="#fff" d="M88-194c31-1 46 15 58 34l-1-101h50l1 261h-48c-2-10 0-23-3-31C134-8 116 4 84 4 32 4 16-41 15-95c0-56 19-97 73-99zm17 164c33 0 40-30 41-66 1-37-9-64-41-64s-38 30-39 65c0 43 13 65 39 65" id="D"/><path fill="#fff" d="M190-63c-7 42-38 67-86 67-59 0-84-38-90-98-12-110 154-137 174-36l-49 2c-2-19-15-32-35-32-30 0-35 28-38 64-6 74 65 87 74 30" id="E"/><path fill="#fff" d="M85 4C-2 5 27-109 22-190h50c7 57-23 150 33 157 60-5 35-97 40-157h50l1 190h-47c-2-12 1-28-3-38-12 25-28 42-61 42" id="F"/><path fill="#fff" d="M220-157c-53 9-28 100-34 157h-49v-107c1-27-5-49-29-50C55-147 81-57 75 0H25l-1-190h47c2 12-1 28 3 38 10-53 101-56 108 0 13-22 24-43 59-42 82 1 51 116 57 194h-49v-107c-1-25-5-48-29-50" id="G"/><path fill="#fff" d="M185-48c-13 30-37 53-82 52C43 2 14-33 14-96s30-98 90-98c62 0 83 45 84 108H66c0 31 8 55 39 56 18 0 30-7 34-22zm-45-69c5-46-57-63-70-21-2 6-4 13-4 21h74" id="H"/><path fill="#fff" d="M135-194c87-1 58 113 63 194h-50c-7-57 23-157-34-157-59 0-34 97-39 157H25l-1-190h47c2 12-1 28 3 38 12-26 28-41 61-42" id="I"/><path fill="#fff" d="M115-3C79 11 28 4 28-45v-112H4v-33h27l15-45h31v45h36v33H77v99c-1 23 16 31 38 25v30" id="J"/><path fill="#fff" d="M137-138c1-29-70-34-71-4 15 46 118 7 119 86 1 83-164 76-172 9l43-7c4 19 20 25 44 25 33 8 57-30 24-41C81-84 22-81 20-136c-2-80 154-74 161-7" id="K"/><g id="b"><use transform="matrix(0.05,0,0,0.05,0,0)" xlink:href="#D"/><use transform="matrix(0.05,0,0,0.05,10.950000000000001,0)" xlink:href="#A"/><use transform="matrix(0.05,0,0,0.05,21.900000000000002,0)" xlink:href="#E"/><use transform="matrix(0.05,0,0,0.05,31.900000000000002,0)" xlink:href="#F"/><use transform="matrix(0.05,0,0,0.05,42.85,0)" xlink:href="#G"/><use transform="matrix(0.05,0,0,0.05,58.85,0)" xlink:href="#H"/><use transform="matrix(0.05,0,0,0.05,68.85,0)" xlink:href="#I"/><use transform="matrix(0.05,0,0,0.05,79.8,0)" xlink:href="#J"/><use transform="matrix(0.05,0,0,0.05,85.75,0)" xlink:href="#K"/></g><path fill="#ae6188" d="M25-224v-37h50v37H25zM25 0v-190h50V0H25" id="L"/><path fill="#ae6188" d="M88-194c31-1 46 15 58 34l-1-101h50l1 261h-48c-2-10 0-23-3-31C134-8 116 4 84 4 32 4 16-41 15-95c0-56 19-97 73-99zm17 164c33 0 40-30 41-66 1-37-9-64-41-64s-38 30-39 65c0 43 13 65 39 65" id="M"/><path fill="#ae6188" d="M35-132v-50h50v50H35zM35 0v-49h50V0H35" id="N"/><path fill="#ae6188" d="M135-194c87-1 58 113 63 194h-50c-7-57 23-157-34-157-59 0-34 97-39 157H25l-1-190h47c2 12-1 28 3 38 12-26 28-41 61-42" id="O"/><path fill="#ae6188" d="M133-34C117-15 103 5 69 4 32 3 11-16 11-54c-1-60 55-63 116-61 1-26-3-47-28-47-18 1-26 9-28 27l-52-2c7-38 36-58 82-57s74 22 75 68l1 82c-1 14 12 18 25 15v27c-30 8-71 5-69-32zm-48 3c29 0 43-24 42-57-32 0-66-3-65 30 0 17 8 27 23 27" id="P"/><path fill="#ae6188" d="M220-157c-53 9-28 100-34 157h-49v-107c1-27-5-49-29-50C55-147 81-57 75 0H25l-1-190h47c2 12-1 28 3 38 10-53 101-56 108 0 13-22 24-43 59-42 82 1 51 116 57 194h-49v-107c-1-25-5-48-29-50" id="Q"/><path fill="#ae6188" d="M185-48c-13 30-37 53-82 52C43 2 14-33 14-96s30-98 90-98c62 0 83 45 84 108H66c0 31 8 55 39 56 18 0 30-7 34-22zm-45-69c5-46-57-63-70-21-2 6-4 13-4 21h74" id="R"/><path fill="#ae6188" d="M137-138c1-29-70-34-71-4 15 46 118 7 119 86 1 83-164 76-172 9l43-7c4 19 20 25 44 25 33 8 57-30 24-41C81-84 22-81 20-136c-2-80 154-74 161-7" id="S"/><path fill="#ae6188" d="M135-194c53 0 70 44 70 98 0 56-19 98-73 100-31 1-45-17-59-34 3 33 2 69 2 105H25l-1-265h48c2 10 0 23 3 31 11-24 29-35 60-35zM114-30c33 0 39-31 40-66 0-38-9-64-40-64-56 0-55 130 0 130" id="T"/><path fill="#ae6188" d="M190-63c-7 42-38 67-86 67-59 0-84-38-90-98-12-110 154-137 174-36l-49 2c-2-19-15-32-35-32-30 0-35 28-38 64-6 74 65 87 74 30" id="U"/><path fill="#ae6188" d="M135-150c-39-12-60 13-60 57V0H25l-1-190h47c2 13-1 29 3 40 6-28 27-53 61-41v41" id="V"/><path fill="#ae6188" d="M115-3C79 11 28 4 28-45v-112H4v-33h27l15-45h31v45h36v33H77v99c-1 23 16 31 38 25v30" id="W"/><path fill="#ae6188" d="M110-194c64 0 96 36 96 99 0 64-35 99-97 99-61 0-95-36-95-99 0-62 34-99 96-99zm-1 164c35 0 45-28 45-65 0-40-10-65-43-65-34 0-45 26-45 65 0 36 10 65 43 65" id="X"/><path fill="#ae6188" d="M123 10C108 53 80 86 19 72V37c35 8 53-11 59-39L3-190h52l48 148c12-52 28-100 44-148h51" id="Y"/><path fill="#ae6188" d="M-4 44V30h207v14H-4" id="Z"/><path fill="#ae6188" d="M23 0v-37h61v-169l-59 37v-38l62-41h46v211h57V0H23" id="aa"/><path fill="#ae6188" d="M135-194c52 0 70 43 70 98 0 56-19 99-73 100-30 1-46-15-58-35L72 0H24l1-261h50v104c11-23 29-37 60-37zM114-30c31 0 40-27 40-66 0-37-7-63-39-63s-41 28-41 65c0 36 8 64 40 64" id="ab"/><g id="c"><use transform="matrix(0.05,0,0,0.05,0,0)" xlink:href="#L"/><use transform="matrix(0.05,0,0,0.05,5,0)" xlink:href="#M"/><use transform="matrix(0.05,0,0,0.05,15.950000000000001,0)" xlink:href="#N"/><use transform="matrix(0.05,0,0,0.05,21.900000000000002,0)" xlink:href="#O"/><use transform="matrix(0.05,0,0,0.05,32.85,0)" xlink:href="#P"/><use transform="matrix(0.05,0,0,0.05,42.85,0)" xlink:href="#Q"/><use transform="matrix(0.05,0,0,0.05,58.85,0)" xlink:href="#R"/><use transform="matrix(0.05,0,0,0.05,68.85,0)" xlink:href="#S"/><use transform="matrix(0.05,0,0,0.05,78.85,0)" xlink:href="#T"/><use transform="matrix(0.05,0,0,0.05,89.8,0)" xlink:href="#P"/><use transform="matrix(0.05,0,0,0.05,99.8,0)" xlink:href="#U"/><use transform="matrix(0.05,0,0,0.05,109.80000000000001,0)" xlink:href="#R"/><use transform="matrix(0.05,0,0,0.05,119.80000000000001,0)" xlink:href="#N"/><use transform="matrix(0.05,0,0,0.05,125.75,0)" xlink:href="#T"/><use transform="matrix(0.05,0,0,0.05,136.7,0)" xlink:href="#P"/><use transform="matrix(0.05,0,0,0.05,146.7,0)" xlink:href="#V"/><use transform="matrix(0.05,0,0,0.05,153.7,0)" xlink:href="#R"/><use transform="matrix(0.05,0,0,0.05,163.7,0)" xlink:href="#O"/><use transform="matrix(0.05,0,0,0.05,174.64999999999998,0)" xlink:href="#W"/><use transform="matrix(0.05,0,0,0.05,180.59999999999997,0)" xlink:href="#M"/><use transform="matrix(0.05,0,0,0.05,191.54999999999995,0)" xlink:href="#X"/><use transform="matrix(0.05,0,0,0.05,202.49999999999994,0)" xlink:href="#U"/><use transform="matrix(0.05,0,0,0.05,212.49999999999991,0)" xlink:href="#W"/><use transform="matrix(0.05,0,0,0.05,218.44999999999993,0)" xlink:href="#Y"/><use transform="matrix(0.05,0,0,0.05,228.44999999999993,0)" xlink:href="#T"/><use transform="matrix(0.05,0,0,0.05,239.39999999999992,0)" xlink:href="#R"/><use transform="matrix(0.05,0,0,0.05,249.39999999999992,0)" xlink:href="#Z"/><use transform="matrix(0.05,0,0,0.05,259.3999999999999,0)" xlink:href="#aa"/><use transform="matrix(0.05,0,0,0.05,269.3999999999999,0)" xlink:href="#N"/><use transform="matrix(0.05,0,0,0.05,275.3499999999999,0)" xlink:href="#N"/><use transform="matrix(0.05,0,0,0.05,281.2999999999999,0)" xlink:href="#ab"/><use transform="matrix(0.05,0,0,0.05,292.2499999999999,0)" xlink:href="#Z"/><use transform="matrix(0.05,0,0,0.05,302.2499999999999,0)" xlink:href="#M"/><use transform="matrix(0.05,0,0,0.05,313.1999999999999,0)" xlink:href="#X"/><use transform="matrix(0.05,0,0,0.05,324.14999999999986,0)" xlink:href="#U"/><use transform="matrix(0.05,0,0,0.05,334.14999999999986,0)" xlink:href="#L"/><use transform="matrix(0.05,0,0,0.05,339.14999999999986,0)" xlink:href="#M"/></g><g id="d"><use transform="matrix(0.05,0,0,0.05,0,0)" xlink:href="#L"/><use transform="matrix(0.05,0,0,0.05,5,0)" xlink:href="#M"/><use transform="matrix(0.05,0,0,0.05,15.950000000000001,0)" xlink:href="#N"/><use transform="matrix(0.05,0,0,0.05,21.900000000000002,0)" xlink:href="#O"/><use transform="matrix(0.05,0,0,0.05,32.85,0)" xlink:href="#P"/><use transform="matrix(0.05,0,0,0.05,42.85,0)" xlink:href="#Q"/><use transform="matrix(0.05,0,0,0.05,58.85,0)" xlink:href="#R"/><use transform="matrix(0.05,0,0,0.05,68.85,0)" xlink:href="#S"/><use transform="matrix(0.05,0,0,0.05,78.85,0)" xlink:href="#T"/><use transform="matrix(0.05,0,0,0.05,89.8,0)" xlink:href="#P"/><use transform="matrix(0.05,0,0,0.05,99.8,0)" xlink:href="#U"/><use transform="matrix(0.05,0,0,0.05,109.80000000000001,0)" xlink:href="#R"/><use transform="matrix(0.05,0,0,0.05,119.80000000000001,0)" xlink:href="#N"/><use transform="matrix(0.05,0,0,0.05,125.75,0)" xlink:href="#M"/><use transform="matrix(0.05,0,0,0.05,136.7,0)" xlink:href="#X"/><use transform="matrix(0.05,0,0,0.05,147.64999999999998,0)" xlink:href="#U"/><use transform="matrix(0.05,0,0,0.05,157.64999999999998,0)" xlink:href="#W"/><use transform="matrix(0.05,0,0,0.05,163.59999999999997,0)" xlink:href="#Y"/><use transform="matrix(0.05,0,0,0.05,173.59999999999997,0)" xlink:href="#T"/><use transform="matrix(0.05,0,0,0.05,184.54999999999995,0)" xlink:href="#R"/><use transform="matrix(0.05,0,0,0.05,194.54999999999995,0)" xlink:href="#N"/><use transform="matrix(0.05,0,0,0.05,200.49999999999994,0)" xlink:href="#N"/><use transform="matrix(0.05,0,0,0.05,206.44999999999993,0)" xlink:href="#Q"/><use transform="matrix(0.05,0,0,0.05,222.44999999999993,0)" xlink:href="#Y"/><use transform="matrix(0.05,0,0,0.05,232.44999999999993,0)" xlink:href="#M"/><use transform="matrix(0.05,0,0,0.05,243.39999999999992,0)" xlink:href="#X"/><use transform="matrix(0.05,0,0,0.05,254.3499999999999,0)" xlink:href="#U"/><use transform="matrix(0.05,0,0,0.05,264.3499999999999,0)" xlink:href="#L"/><use transform="matrix(0.05,0,0,0.05,269.3499999999999,0)" xlink:href="#M"/></g><path fill="#fff" d="M199 0l-22-63H83L61 0H9l90-248h61L250 0h-51zm-33-102l-36-108c-10 38-24 72-36 108h72" id="ac"/><path fill="#fff" d="M135-150c-39-12-60 13-60 57V0H25l-1-190h47c2 13-1 29 3 40 6-28 27-53 61-41v41" id="ad"/><path fill="#fff" d="M123 10C108 53 80 86 19 72V37c35 8 53-11 59-39L3-190h52l48 148c12-52 28-100 44-148h51" id="ae"/><g id="e"><use transform="matrix(0.05,0,0,0.05,0,0)" xlink:href="#ac"/><use transform="matrix(0.05,0,0,0.05,12.950000000000001,0)" xlink:href="#ad"/><use transform="matrix(0.05,0,0,0.05,19.950000000000003,0)" xlink:href="#ad"/><use transform="matrix(0.05,0,0,0.05,26.950000000000003,0)" xlink:href="#C"/><use transform="matrix(0.05,0,0,0.05,36.95,0)" xlink:href="#ae"/></g><path fill="#fff" d="M121-226c-27-7-43 5-38 36h38v33H83V0H34v-157H6v-33h28c-9-59 32-81 87-68v32" id="af"/><g id="f"><use transform="matrix(0.05,0,0,0.05,0,0)" xlink:href="#A"/><use transform="matrix(0.05,0,0,0.05,10.950000000000001,0)" xlink:href="#af"/></g><g id="g"><use transform="matrix(0.05,0,0,0.05,0,0)" xlink:href="#K"/><use transform="matrix(0.05,0,0,0.05,10,0)" xlink:href="#J"/><use transform="matrix(0.05,0,0,0.05,15.949999999999998,0)" xlink:href="#ad"/><use transform="matrix(0.05,0,0,0.05,22.95,0)" xlink:href="#F"/><use transform="matrix(0.05,0,0,0.05,33.9,0)" xlink:href="#E"/><use transform="matrix(0.05,0,0,0.05,43.9,0)" xlink:href="#J"/></g><path fill="#2e2f27" d="M39-94c74 12-11 154 75 146v23c-44 4-70-10-70-52C44-23 55-84 6-82v-22c81 4-7-162 84-157h24v23c-82-15-2 131-75 144" id="ag"/><use transform="matrix(0.062345679012345556,0,0,0.062345679012345556,0,0)" xlink:href="#ag" id="h"/><path fill="#2e2f27" d="M135-143c-3-34-86-38-87 0 15 53 115 12 119 90S17 21 10-45l28-5c4 36 97 45 98 0-10-56-113-15-118-90-4-57 82-63 122-42 12 7 21 19 24 35" id="ah"/><path fill="#2e2f27" d="M59-47c-2 24 18 29 38 22v24C64 9 27 4 27-40v-127H5v-23h24l9-43h21v43h35v23H59v120" id="ai"/><path fill="#2e2f27" d="M114-163C36-179 61-72 57 0H25l-1-190h30c1 12-1 29 2 39 6-27 23-49 58-41v29" id="aj"/><path fill="#2e2f27" d="M84 4C-5 8 30-112 23-190h32v120c0 31 7 50 39 49 72-2 45-101 50-169h31l1 190h-30c-1-10 1-25-2-33-11 22-28 36-60 37" id="ak"/><path fill="#2e2f27" d="M96-169c-40 0-48 33-48 73s9 75 48 75c24 0 41-14 43-38l32 2c-6 37-31 61-74 61-59 0-76-41-82-99-10-93 101-131 147-64 4 7 5 14 7 22l-32 3c-4-21-16-35-41-35" id="al"/><path fill="#2e2f27" d="M101-234c-31-9-42 10-38 44h38v23H63V0H32v-167H5v-23h27c-7-52 17-82 69-68v24" id="am"/><path fill="#2e2f27" d="M24-231v-30h32v30H24zM24 0v-190h32V0H24" id="an"/><path fill="#2e2f27" d="M100-194c63 0 86 42 84 106H49c0 40 14 67 53 68 26 1 43-12 49-29l28 8c-11 28-37 45-77 45C44 4 14-33 15-96c1-61 26-98 85-98zm52 81c6-60-76-77-97-28-3 7-6 17-6 28h103" id="ao"/><path fill="#2e2f27" d="M24 0v-261h32V0H24" id="ap"/><path fill="#2e2f27" d="M85-194c31 0 48 13 60 33l-1-100h32l1 261h-30c-2-10 0-23-3-31C134-8 116 4 85 4 32 4 16-35 15-94c0-66 23-100 70-100zm9 24c-40 0-46 34-46 75 0 40 6 74 45 74 42 0 51-32 51-76 0-42-9-74-50-73" id="aq"/><path fill="#2e2f27" d="M-5 72V49h209v23H-5" id="ar"/><path fill="#2e2f27" d="M27 0v-27h64v-190l-56 39v-29l58-41h29v221h61V0H27" id="as"/><g id="j"><use transform="matrix(0.062345679012345556,0,0,0.062345679012345556,0,0)" xlink:href="#ah"/><use transform="matrix(0.062345679012345556,0,0,0.062345679012345556,11.2222222222222,0)" xlink:href="#ai"/><use transform="matrix(0.062345679012345556,0,0,0.062345679012345556,17.456790123456756,0)" xlink:href="#aj"/><use transform="matrix(0.062345679012345556,0,0,0.062345679012345556,24.875925925925877,0)" xlink:href="#ak"/><use transform="matrix(0.062345679012345556,0,0,0.062345679012345556,37.34506172839499,0)" xlink:href="#al"/><use transform="matrix(0.062345679012345556,0,0,0.062345679012345556,48.56728395061719,0)" xlink:href="#ai"/><use transform="matrix(0.062345679012345556,0,0,0.062345679012345556,54.801851851851744,0)" xlink:href="#am"/><use transform="matrix(0.062345679012345556,0,0,0.062345679012345556,61.0364197530863,0)" xlink:href="#an"/><use transform="matrix(0.062345679012345556,0,0,0.062345679012345556,65.9617283950616,0)" xlink:href="#ao"/><use transform="matrix(0.062345679012345556,0,0,0.062345679012345556,78.43086419753071,0)" xlink:href="#ap"/><use transform="matrix(0.062345679012345556,0,0,0.062345679012345556,83.356172839506,0)" xlink:href="#aq"/><use transform="matrix(0.062345679012345556,0,0,0.062345679012345556,95.82530864197511,0)" xlink:href="#ar"/><use transform="matrix(0.062345679012345556,0,0,0.062345679012345556,108.29444444444422,0)" xlink:href="#as"/></g><path fill="#2e2f27" d="M101-251c82-7 93 87 43 132L82-64C71-53 59-42 53-27h129V0H18c2-99 128-94 128-182 0-28-16-43-45-43s-46 15-49 41l-32-3c6-41 34-60 81-64" id="at"/><g id="k"><use transform="matrix(0.062345679012345556,0,0,0.062345679012345556,0,0)" xlink:href="#ah"/><use transform="matrix(0.062345679012345556,0,0,0.062345679012345556,11.2222222222222,0)" xlink:href="#ai"/><use transform="matrix(0.062345679012345556,0,0,0.062345679012345556,17.456790123456756,0)" xlink:href="#aj"/><use transform="matrix(0.062345679012345556,0,0,0.062345679012345556,24.875925925925877,0)" xlink:href="#ak"/><use transform="matrix(0.062345679012345556,0,0,0.062345679012345556,37.34506172839499,0)" xlink:href="#al"/><use transform="matrix(0.062345679012345556,0,0,0.062345679012345556,48.56728395061719,0)" xlink:href="#ai"/><use transform="matrix(0.062345679012345556,0,0,0.062345679012345556,54.801851851851744,0)" xlink:href="#am"/><use transform="matrix(0.062345679012345556,0,0,0.062345679012345556,61.0364197530863,0)" xlink:href="#an"/><use transform="matrix(0.062345679012345556,0,0,0.062345679012345556,65.9617283950616,0)" xlink:href="#ao"/><use transform="matrix(0.062345679012345556,0,0,0.062345679012345556,78.43086419753071,0)" xlink:href="#ap"/><use transform="matrix(0.062345679012345556,0,0,0.062345679012345556,83.356172839506,0)" xlink:href="#aq"/><use transform="matrix(0.062345679012345556,0,0,0.062345679012345556,95.82530864197511,0)" xlink:href="#ar"/><use transform="matrix(0.062345679012345556,0,0,0.062345679012345556,108.29444444444422,0)" xlink:href="#at"/></g><path fill="#2e2f27" d="M126-127c33 6 58 20 58 59 0 88-139 92-164 29-3-8-5-16-6-25l32-3c6 27 21 44 54 44 32 0 52-15 52-46 0-38-36-46-79-43v-28c39 1 72-4 72-42 0-27-17-43-46-43-28 0-47 15-49 41l-32-3c6-42 35-63 81-64 48-1 79 21 79 65 0 36-21 52-52 59" id="au"/><g id="l"><use transform="matrix(0.062345679012345556,0,0,0.062345679012345556,0,0)" xlink:href="#ah"/><use transform="matrix(0.062345679012345556,0,0,0.062345679012345556,11.2222222222222,0)" xlink:href="#ai"/><use transform="matrix(0.062345679012345556,0,0,0.062345679012345556,17.456790123456756,0)" xlink:href="#aj"/><use transform="matrix(0.062345679012345556,0,0,0.062345679012345556,24.875925925925877,0)" xlink:href="#ak"/><use transform="matrix(0.062345679012345556,0,0,0.062345679012345556,37.34506172839499,0)" xlink:href="#al"/><use transform="matrix(0.062345679012345556,0,0,0.062345679012345556,48.56728395061719,0)" xlink:href="#ai"/><use transform="matrix(0.062345679012345556,0,0,0.062345679012345556,54.801851851851744,0)" xlink:href="#am"/><use transform="matrix(0.062345679012345556,0,0,0.062345679012345556,61.0364197530863,0)" xlink:href="#an"/><use transform="matrix(0.062345679012345556,0,0,0.062345679012345556,65.9617283950616,0)" xlink:href="#ao"/><use transform="matrix(0.062345679012345556,0,0,0.062345679012345556,78.43086419753071,0)" xlink:href="#ap"/><use transform="matrix(0.062345679012345556,0,0,0.062345679012345556,83.356172839506,0)" xlink:href="#aq"/><use transform="matrix(0.062345679012345556,0,0,0.062345679012345556,95.82530864197511,0)" xlink:href="#ar"/><use transform="matrix(0.062345679012345556,0,0,0.062345679012345556,108.29444444444422,0)" xlink:href="#au"/></g><path fill="#2e2f27" d="M76-40C78 24 84 88 6 75V52C86 64 9-79 80-94c-40-6-34-59-34-106 1-29-11-41-40-38v-23c44-4 70 10 70 52 0 47-12 108 38 105v22c-26 1-39 14-38 42" id="av"/><use transform="matrix(0.062345679012345556,0,0,0.062345679012345556,0,0)" xlink:href="#av" id="m"/><path fill="#2e2f27" d="M115-194c55 1 70 41 70 98S169 2 115 4C84 4 66-9 55-30l1 105H24l-1-265h31l2 30c10-21 28-34 59-34zm-8 174c40 0 45-34 45-75s-6-73-45-74c-42 0-51 32-51 76 0 43 10 73 51 73" id="aw"/><path fill="#2e2f27" d="M141-36C126-15 110 5 73 4 37 3 15-17 15-53c-1-64 63-63 125-63 3-35-9-54-41-54-24 1-41 7-42 31l-33-3c5-37 33-52 76-52 45 0 72 20 72 64v82c-1 20 7 32 28 27v20c-31 9-61-2-59-35zM48-53c0 20 12 33 32 33 41-3 63-29 60-74-43 2-92-5-92 41" id="ax"/><path fill="#2e2f27" d="M117-194c89-4 53 116 60 194h-32v-121c0-31-8-49-39-48C34-167 62-67 57 0H25l-1-190h30c1 10-1 24 2 32 11-22 29-35 61-36" id="ay"/><g id="n"><use transform="matrix(0.062345679012345556,0,0,0.062345679012345556,0,0)" xlink:href="#aw"/><use transform="matrix(0.062345679012345556,0,0,0.062345679012345556,12.469135802469111,0)" xlink:href="#ax"/><use transform="matrix(0.062345679012345556,0,0,0.062345679012345556,24.938271604938222,0)" xlink:href="#aj"/><use transform="matrix(0.062345679012345556,0,0,0.062345679012345556,32.357407407407344,0)" xlink:href="#ao"/><use transform="matrix(0.062345679012345556,0,0,0.062345679012345556,44.826543209876455,0)" xlink:href="#ay"/><use transform="matrix(0.062345679012345556,0,0,0.062345679012345556,57.295679012345566,0)" xlink:href="#ai"/><use transform="matrix(0.062345679012345556,0,0,0.062345679012345556,63.53024691358012,0)" xlink:href="#am"/><use transform="matrix(0.062345679012345556,0,0,0.062345679012345556,69.76481481481468,0)" xlink:href="#an"/><use transform="matrix(0.062345679012345556,0,0,0.062345679012345556,74.69012345678999,0)" xlink:href="#ao"/><use transform="matrix(0.062345679012345556,0,0,0.062345679012345556,87.1592592592591,0)" xlink:href="#ap"/><use transform="matrix(0.062345679012345556,0,0,0.062345679012345556,92.08456790123441,0)" xlink:href="#aq"/><use transform="matrix(0.062345679012345556,0,0,0.062345679012345556,104.55370370370352,0)" xlink:href="#ar"/><use transform="matrix(0.062345679012345556,0,0,0.062345679012345556,117.02283950617263,0)" xlink:href="#au"/></g><g id="o"><use transform="matrix(0.062345679012345556,0,0,0.062345679012345556,0,0)" xlink:href="#aw"/><use transform="matrix(0.062345679012345556,0,0,0.062345679012345556,12.469135802469111,0)" xlink:href="#ax"/><use transform="matrix(0.062345679012345556,0,0,0.062345679012345556,24.938271604938222,0)" xlink:href="#aj"/><use transform="matrix(0.062345679012345556,0,0,0.062345679012345556,32.357407407407344,0)" xlink:href="#ao"/><use transform="matrix(0.062345679012345556,0,0,0.062345679012345556,44.826543209876455,0)" xlink:href="#ay"/><use transform="matrix(0.062345679012345556,0,0,0.062345679012345556,57.295679012345566,0)" xlink:href="#ai"/><use transform="matrix(0.062345679012345556,0,0,0.062345679012345556,63.53024691358012,0)" xlink:href="#am"/><use transform="matrix(0.062345679012345556,0,0,0.062345679012345556,69.76481481481468,0)" xlink:href="#an"/><use transform="matrix(0.062345679012345556,0,0,0.062345679012345556,74.69012345678999,0)" xlink:href="#ao"/><use transform="matrix(0.062345679012345556,0,0,0.062345679012345556,87.1592592592591,0)" xlink:href="#ap"/><use transform="matrix(0.062345679012345556,0,0,0.062345679012345556,92.08456790123441,0)" xlink:href="#aq"/><use transform="matrix(0.062345679012345556,0,0,0.062345679012345556,104.55370370370352,0)" xlink:href="#ar"/><use transform="matrix(0.062345679012345556,0,0,0.062345679012345556,117.02283950617263,0)" xlink:href="#at"/></g><g id="p"><use transform="matrix(0.062345679012345556,0,0,0.062345679012345556,0,0)" xlink:href="#aw"/><use transform="matrix(0.062345679012345556,0,0,0.062345679012345556,12.469135802469111,0)" xlink:href="#ax"/><use transform="matrix(0.062345679012345556,0,0,0.062345679012345556,24.938271604938222,0)" xlink:href="#aj"/><use transform="matrix(0.062345679012345556,0,0,0.062345679012345556,32.357407407407344,0)" xlink:href="#ao"/><use transform="matrix(0.062345679012345556,0,0,0.062345679012345556,44.826543209876455,0)" xlink:href="#ay"/><use transform="matrix(0.062345679012345556,0,0,0.062345679012345556,57.295679012345566,0)" xlink:href="#ai"/><use transform="matrix(0.062345679012345556,0,0,0.062345679012345556,63.53024691358012,0)" xlink:href="#am"/><use transform="matrix(0.062345679012345556,0,0,0.062345679012345556,69.76481481481468,0)" xlink:href="#an"/><use transform="matrix(0.062345679012345556,0,0,0.062345679012345556,74.69012345678999,0)" xlink:href="#ao"/><use transform="matrix(0.062345679012345556,0,0,0.062345679012345556,87.1592592592591,0)" xlink:href="#ap"/><use transform="matrix(0.062345679012345556,0,0,0.062345679012345556,92.08456790123441,0)" xlink:href="#aq"/><use transform="matrix(0.062345679012345556,0,0,0.062345679012345556,104.55370370370352,0)" xlink:href="#ar"/><use transform="matrix(0.062345679012345556,0,0,0.062345679012345556,117.02283950617263,0)" xlink:href="#as"/></g><path fill="#2e2f27" d="M177-190C167-65 218 103 67 71c-23-6-38-20-44-43l32-5c15 47 100 32 89-28v-30C133-14 115 1 83 1 29 1 15-40 15-95c0-56 16-97 71-98 29-1 48 16 59 35 1-10 0-23 2-32h30zM94-22c36 0 50-32 50-73 0-42-14-75-50-75-39 0-46 34-46 75s6 73 46 73" id="az"/><g id="q"><use transform="matrix(0.062345679012345556,0,0,0.062345679012345556,0,0)" xlink:href="#az"/><use transform="matrix(0.062345679012345556,0,0,0.062345679012345556,12.469135802469111,0)" xlink:href="#aj"/><use transform="matrix(0.062345679012345556,0,0,0.062345679012345556,19.888271604938232,0)" xlink:href="#ax"/><use transform="matrix(0.062345679012345556,0,0,0.062345679012345556,32.357407407407344,0)" xlink:href="#ay"/><use transform="matrix(0.062345679012345556,0,0,0.062345679012345556,44.826543209876455,0)" xlink:href="#aq"/><use transform="matrix(0.062345679012345556,0,0,0.062345679012345556,57.295679012345566,0)" xlink:href="#aw"/><use transform="matrix(0.062345679012345556,0,0,0.062345679012345556,69.76481481481468,0)" xlink:href="#ax"/><use transform="matrix(0.062345679012345556,0,0,0.062345679012345556,82.2339506172838,0)" xlink:href="#aj"/><use transform="matrix(0.062345679012345556,0,0,0.062345679012345556,89.65308641975292,0)" xlink:href="#ao"/><use transform="matrix(0.062345679012345556,0,0,0.062345679012345556,102.12222222222204,0)" xlink:href="#ay"/><use transform="matrix(0.062345679012345556,0,0,0.062345679012345556,114.59135802469115,0)" xlink:href="#ai"/><use transform="matrix(0.062345679012345556,0,0,0.062345679012345556,120.8259259259257,0)" xlink:href="#am"/><use transform="matrix(0.062345679012345556,0,0,0.062345679012345556,127.06049382716026,0)" xlink:href="#an"/><use transform="matrix(0.062345679012345556,0,0,0.062345679012345556,131.98580246913556,0)" xlink:href="#ao"/><use transform="matrix(0.062345679012345556,0,0,0.062345679012345556,144.45493827160468,0)" xlink:href="#ap"/><use transform="matrix(0.062345679012345556,0,0,0.062345679012345556,149.38024691357998,0)" xlink:href="#aq"/></g><g id="r"><use transform="matrix(0.062345679012345556,0,0,0.062345679012345556,0,0)" xlink:href="#aw"/><use transform="matrix(0.062345679012345556,0,0,0.062345679012345556,12.469135802469111,0)" xlink:href="#ax"/><use transform="matrix(0.062345679012345556,0,0,0.062345679012345556,24.938271604938222,0)" xlink:href="#aj"/><use transform="matrix(0.062345679012345556,0,0,0.062345679012345556,32.357407407407344,0)" xlink:href="#ao"/><use transform="matrix(0.062345679012345556,0,0,0.062345679012345556,44.826543209876455,0)" xlink:href="#ay"/><use transform="matrix(0.062345679012345556,0,0,0.062345679012345556,57.295679012345566,0)" xlink:href="#ai"/><use transform="matrix(0.062345679012345556,0,0,0.062345679012345556,63.53024691358012,0)" xlink:href="#am"/><use transform="matrix(0.062345679012345556,0,0,0.062345679012345556,69.76481481481468,0)" xlink:href="#an"/><use transform="matrix(0.062345679012345556,0,0,0.062345679012345556,74.69012345678999,0)" xlink:href="#ao"/><use transform="matrix(0.062345679012345556,0,0,0.062345679012345556,87.1592592592591,0)" xlink:href="#ap"/><use transform="matrix(0.062345679012345556,0,0,0.062345679012345556,92.08456790123441,0)" xlink:href="#aq"/></g><path fill="#2e2f27" d="M115-194c53 0 69 39 70 98 0 66-23 100-70 100C84 3 66-7 56-30L54 0H23l1-261h32v101c10-23 28-34 59-34zm-8 174c40 0 45-34 45-75 0-40-5-75-45-74-42 0-51 32-51 76 0 43 10 73 51 73" id="aA"/><g id="s"><use transform="matrix(0.062345679012345556,0,0,0.062345679012345556,0,0)" xlink:href="#aA"/><use transform="matrix(0.062345679012345556,0,0,0.062345679012345556,12.469135802469111,0)" xlink:href="#ar"/><use transform="matrix(0.062345679012345556,0,0,0.062345679012345556,24.938271604938222,0)" xlink:href="#am"/><use transform="matrix(0.062345679012345556,0,0,0.062345679012345556,31.172839506172778,0)" xlink:href="#an"/><use transform="matrix(0.062345679012345556,0,0,0.062345679012345556,36.09814814814808,0)" xlink:href="#ao"/><use transform="matrix(0.062345679012345556,0,0,0.062345679012345556,48.56728395061719,0)" xlink:href="#ap"/><use transform="matrix(0.062345679012345556,0,0,0.062345679012345556,53.49259259259249,0)" xlink:href="#aq"/></g><path fill="#ae6188" d="M195-6C206 82 75 100 31 46c-4-6-6-13-8-21l49-6c3 16 16 24 34 25 40 0 42-37 40-79-11 22-30 35-61 35-53 0-70-43-70-97 0-56 18-96 73-97 30 0 46 14 59 34l2-30h47zm-90-29c32 0 41-27 41-63 0-35-9-62-40-62-32 0-39 29-40 63 0 36 9 62 39 62" id="aB"/><g id="t"><use transform="matrix(0.05,0,0,0.05,0,0)" xlink:href="#L"/><use transform="matrix(0.05,0,0,0.05,5,0)" xlink:href="#M"/><use transform="matrix(0.05,0,0,0.05,15.950000000000001,0)" xlink:href="#N"/><use transform="matrix(0.05,0,0,0.05,21.900000000000002,0)" xlink:href="#O"/><use transform="matrix(0.05,0,0,0.05,32.85,0)" xlink:href="#P"/><use transform="matrix(0.05,0,0,0.05,42.85,0)" xlink:href="#Q"/><use transform="matrix(0.05,0,0,0.05,58.85,0)" xlink:href="#R"/><use transform="matrix(0.05,0,0,0.05,68.85,0)" xlink:href="#S"/><use transform="matrix(0.05,0,0,0.05,78.85,0)" xlink:href="#T"/><use transform="matrix(0.05,0,0,0.05,89.8,0)" xlink:href="#P"/><use transform="matrix(0.05,0,0,0.05,99.8,0)" xlink:href="#U"/><use transform="matrix(0.05,0,0,0.05,109.80000000000001,0)" xlink:href="#R"/><use transform="matrix(0.05,0,0,0.05,119.80000000000001,0)" xlink:href="#N"/><use transform="matrix(0.05,0,0,0.05,125.75,0)" xlink:href="#aB"/><use transform="matrix(0.05,0,0,0.05,136.7,0)" xlink:href="#V"/><use transform="matrix(0.05,0,0,0.05,143.7,0)" xlink:href="#P"/><use transform="matrix(0.05,0,0,0.05,153.7,0)" xlink:href="#O"/><use transform="matrix(0.05,0,0,0.05,164.64999999999998,0)" xlink:href="#M"/><use transform="matrix(0.05,0,0,0.05,175.59999999999997,0)" xlink:href="#T"/><use transform="matrix(0.05,0,0,0.05,186.54999999999995,0)" xlink:href="#P"/><use transform="matrix(0.05,0,0,0.05,196.54999999999995,0)" xlink:href="#V"/><use transform="matrix(0.05,0,0,0.05,203.54999999999995,0)" xlink:href="#R"/><use transform="matrix(0.05,0,0,0.05,213.54999999999995,0)" xlink:href="#O"/><use transform="matrix(0.05,0,0,0.05,224.49999999999991,0)" xlink:href="#W"/><use transform="matrix(0.05,0,0,0.05,230.44999999999993,0)" xlink:href="#M"/><use transform="matrix(0.05,0,0,0.05,241.39999999999992,0)" xlink:href="#X"/><use transform="matrix(0.05,0,0,0.05,252.3499999999999,0)" xlink:href="#U"/><use transform="matrix(0.05,0,0,0.05,262.3499999999999,0)" xlink:href="#W"/><use transform="matrix(0.05,0,0,0.05,268.2999999999999,0)" xlink:href="#Y"/><use transform="matrix(0.05,0,0,0.05,278.2999999999999,0)" xlink:href="#T"/><use transform="matrix(0.05,0,0,0.05,289.2499999999999,0)" xlink:href="#R"/><use transform="matrix(0.05,0,0,0.05,299.2499999999999,0)" xlink:href="#N"/><use transform="matrix(0.05,0,0,0.05,305.1999999999999,0)" xlink:href="#N"/><use transform="matrix(0.05,0,0,0.05,311.14999999999986,0)" xlink:href="#P"/><use transform="matrix(0.05,0,0,0.05,321.14999999999986,0)" xlink:href="#Z"/><use transform="matrix(0.05,0,0,0.05,331.14999999999986,0)" xlink:href="#M"/><use transform="matrix(0.05,0,0,0.05,342.09999999999985,0)" xlink:href="#X"/><use transform="matrix(0.05,0,0,0.05,353.04999999999984,0)" xlink:href="#U"/><use transform="matrix(0.05,0,0,0.05,363.04999999999984,0)" xlink:href="#L"/><use transform="matrix(0.05,0,0,0.05,368.04999999999984,0)" xlink:href="#M"/></g><g id="u"><use transform="matrix(0.062345679012345556,0,0,0.062345679012345556,0,0)" xlink:href="#ax"/><use transform="matrix(0.062345679012345556,0,0,0.062345679012345556,12.469135802469111,0)" xlink:href="#ar"/><use transform="matrix(0.062345679012345556,0,0,0.062345679012345556,24.938271604938222,0)" xlink:href="#am"/><use transform="matrix(0.062345679012345556,0,0,0.062345679012345556,31.172839506172778,0)" xlink:href="#an"/><use transform="matrix(0.062345679012345556,0,0,0.062345679012345556,36.09814814814808,0)" xlink:href="#ao"/><use transform="matrix(0.062345679012345556,0,0,0.062345679012345556,48.56728395061719,0)" xlink:href="#ap"/><use transform="matrix(0.062345679012345556,0,0,0.062345679012345556,53.49259259259249,0)" xlink:href="#aq"/></g><path fill="#ae6188" d="M182-182c0 78-84 86-111 141h115V0H12c-6-101 99-100 120-180 1-22-12-31-33-32-23 0-32 14-35 34l-49-3c5-45 32-70 84-70 51 0 83 22 83 69" id="aC"/><g id="v"><use transform="matrix(0.05,0,0,0.05,0,0)" xlink:href="#L"/><use transform="matrix(0.05,0,0,0.05,5,0)" xlink:href="#M"/><use transform="matrix(0.05,0,0,0.05,15.950000000000001,0)" xlink:href="#N"/><use transform="matrix(0.05,0,0,0.05,21.900000000000002,0)" xlink:href="#O"/><use transform="matrix(0.05,0,0,0.05,32.85,0)" xlink:href="#P"/><use transform="matrix(0.05,0,0,0.05,42.85,0)" xlink:href="#Q"/><use transform="matrix(0.05,0,0,0.05,58.85,0)" xlink:href="#R"/><use transform="matrix(0.05,0,0,0.05,68.85,0)" xlink:href="#S"/><use transform="matrix(0.05,0,0,0.05,78.85,0)" xlink:href="#T"/><use transform="matrix(0.05,0,0,0.05,89.8,0)" xlink:href="#P"/><use transform="matrix(0.05,0,0,0.05,99.8,0)" xlink:href="#U"/><use transform="matrix(0.05,0,0,0.05,109.80000000000001,0)" xlink:href="#R"/><use transform="matrix(0.05,0,0,0.05,119.80000000000001,0)" xlink:href="#N"/><use transform="matrix(0.05,0,0,0.05,125.75,0)" xlink:href="#T"/><use transform="matrix(0.05,0,0,0.05,136.7,0)" xlink:href="#P"/><use transform="matrix(0.05,0,0,0.05,146.7,0)" xlink:href="#V"/><use transform="matrix(0.05,0,0,0.05,153.7,0)" xlink:href="#R"/><use transform="matrix(0.05,0,0,0.05,163.7,0)" xlink:href="#O"/><use transform="matrix(0.05,0,0,0.05,174.64999999999998,0)" xlink:href="#W"/><use transform="matrix(0.05,0,0,0.05,180.59999999999997,0)" xlink:href="#M"/><use transform="matrix(0.05,0,0,0.05,191.54999999999995,0)" xlink:href="#X"/><use transform="matrix(0.05,0,0,0.05,202.49999999999994,0)" xlink:href="#U"/><use transform="matrix(0.05,0,0,0.05,212.49999999999991,0)" xlink:href="#W"/><use transform="matrix(0.05,0,0,0.05,218.44999999999993,0)" xlink:href="#Y"/><use transform="matrix(0.05,0,0,0.05,228.44999999999993,0)" xlink:href="#T"/><use transform="matrix(0.05,0,0,0.05,239.39999999999992,0)" xlink:href="#R"/><use transform="matrix(0.05,0,0,0.05,249.39999999999992,0)" xlink:href="#Z"/><use transform="matrix(0.05,0,0,0.05,259.3999999999999,0)" xlink:href="#aC"/><use transform="matrix(0.05,0,0,0.05,269.3999999999999,0)" xlink:href="#N"/><use transform="matrix(0.05,0,0,0.05,275.3499999999999,0)" xlink:href="#N"/><use transform="matrix(0.05,0,0,0.05,281.2999999999999,0)" xlink:href="#U"/><use transform="matrix(0.05,0,0,0.05,291.2999999999999,0)" xlink:href="#Z"/><use transform="matrix(0.05,0,0,0.05,301.2999999999999,0)" xlink:href="#M"/><use transform="matrix(0.05,0,0,0.05,312.2499999999999,0)" xlink:href="#X"/><use transform="matrix(0.05,0,0,0.05,323.1999999999999,0)" xlink:href="#U"/><use transform="matrix(0.05,0,0,0.05,333.1999999999999,0)" xlink:href="#L"/><use transform="matrix(0.05,0,0,0.05,338.1999999999999,0)" xlink:href="#M"/></g><g id="w"><use transform="matrix(0.062345679012345556,0,0,0.062345679012345556,0,0)" xlink:href="#aq"/><use transform="matrix(0.062345679012345556,0,0,0.062345679012345556,12.469135802469111,0)" xlink:href="#ar"/><use transform="matrix(0.062345679012345556,0,0,0.062345679012345556,24.938271604938222,0)" xlink:href="#am"/><use transform="matrix(0.062345679012345556,0,0,0.062345679012345556,31.172839506172778,0)" xlink:href="#an"/><use transform="matrix(0.062345679012345556,0,0,0.062345679012345556,36.09814814814808,0)" xlink:href="#ao"/><use transform="matrix(0.062345679012345556,0,0,0.062345679012345556,48.56728395061719,0)" xlink:href="#ap"/><use transform="matrix(0.062345679012345556,0,0,0.062345679012345556,53.49259259259249,0)" xlink:href="#aq"/></g><g id="x"><use transform="matrix(0.062345679012345556,0,0,0.062345679012345556,0,0)" xlink:href="#al"/><use transform="matrix(0.062345679012345556,0,0,0.062345679012345556,11.2222222222222,0)" xlink:href="#ar"/><use transform="matrix(0.062345679012345556,0,0,0.062345679012345556,23.69135802469131,0)" xlink:href="#am"/><use transform="matrix(0.062345679012345556,0,0,0.062345679012345556,29.925925925925867,0)" xlink:href="#an"/><use transform="matrix(0.062345679012345556,0,0,0.062345679012345556,34.851234567901166,0)" xlink:href="#ao"/><use transform="matrix(0.062345679012345556,0,0,0.062345679012345556,47.32037037037028,0)" xlink:href="#ap"/><use transform="matrix(0.062345679012345556,0,0,0.062345679012345556,52.245679012345576,0)" xlink:href="#aq"/></g></defs></g></svg>