<svg xmlns="http://www.w3.org/2000/svg" xmlns:xlink="http://www.w3.org/1999/xlink" xmlns:lucid="lucid" width="683" height="1202.5"><g transform="translate(1481.5 -39)" lucid:page-tab-id="0_0"><path d="M-1500 0h1000v1500h-1000z" fill="#fff"/><path d="M-1460 206a6 6 0 0 1 6-6h628a6 6 0 0 1 6 6v108a6 6 0 0 1-6 6h-628a6 6 0 0 1-6-6z" stroke="#000" stroke-opacity="0" stroke-width="3" fill="#b7e2f1"/><use xlink:href="#a" transform="matrix(1,0,0,1,-1448,212) translate(0 17.77777777777778)"/><use xlink:href="#b" transform="matrix(1,0,0,1,-1448,212) translate(109.5679012345679 17.77777777777778)"/><path d="M-1460 366a6 6 0 0 1 6-6h628a6 6 0 0 1 6 6v848a6 6 0 0 1-6 6h-628a6 6 0 0 1-6-6z" stroke="#000" stroke-opacity="0" stroke-width="3" fill="#baedce"/><use xlink:href="#c" transform="matrix(1,0,0,1,-1448,372) translate(0 17.77777777777778)"/><use xlink:href="#b" transform="matrix(1,0,0,1,-1448,372) translate(89.75308641975307 17.77777777777778)"/><path d="M-1417.33 475.38a6 6 0 0 1 6-6h564a6 6 0 0 1 6 6v709.97a6 6 0 0 1-6 6h-564a6 6 0 0 1-6-6z" stroke="#1b6a3a" stroke-width="2" fill="#fff"/><path d="M-1428 458.07a6 6 0 0 1 6-6h564a6 6 0 0 1 6 6v709.97a6 6 0 0 1-6 6h-564a6 6 0 0 1-6-6z" stroke="#1b6a3a" stroke-width="2" fill="#fff"/><path d="M-1438.67 442.75a6 6 0 0 1 6-6h564a6 6 0 0 1 6 6v709.97a6 6 0 0 1-6 6h-564a6 6 0 0 1-6-6z" stroke="#1b6a3a" stroke-width="2" fill="#fff"/><path d="M-1228.23 666a6 6 0 0 1 6-6H-946a6 6 0 0 1 6 6v448a6 6 0 0 1-6 6h-276.23a6 6 0 0 1-6-6z" fill="#baedce"/><path d="M-1201.77 660h20.46m10.22 0h20.46m10.23 0h20.47m10.24 0h20.47m10.23 0h20.46m10.23 0h20.45m10.23 0h20.47m10.23 0h20.46m10.23 0H-946l.94.07.9.22.88.35.8.5.72.6.6.72.5.8.37.88.23.9.07.95v9.96m0 9.95v19.92m0 9.96v19.9m0 9.96v19.92m0 9.95v19.92m0 9.96v19.9m0 9.96v19.92m0 9.95v19.92m0 9.96v19.9m0 9.96v19.92m0 9.95v19.92m0 9.96v19.9m0 9.96v19.92m0 9.95v19.92m0 9.96v19.9m0 9.96v9.96l-.07.94-.22.9-.35.88-.5.8-.6.72-.72.6-.8.5-.88.37-.9.23-.95.07h-10.23m-10.23 0h-20.46m-10.24 0h-20.46m-10.23 0h-20.46m-10.24 0H-1079m-10.23 0h-20.46m-10.23 0h-20.46m-10.22 0h-20.46m-10.23 0h-20.47m-10.23 0h-10.23l-.94-.07-.92-.22-.86-.35-.8-.5-.72-.6-.6-.72-.5-.8-.36-.88-.22-.9-.07-.95v-9.96m0-9.95v-19.92m0-9.96v-19.9m0-9.96v-19.92m0-9.95v-19.92m0-9.96v-19.9m0-9.96v-19.92m0-9.95v-19.92m0-9.96v-19.9m0-9.96v-19.92m0-9.95v-19.92m0-9.96v-19.9m0-9.96v-19.92m0-9.95v-19.92m0-9.96v-19.9m0-9.96V666l.07-.94.22-.9.36-.88.5-.8.6-.72.72-.6.8-.5.87-.37.93-.23.94-.07h10.23" stroke="#1b6a3a" stroke-width="2" fill="none"/><path d="M-1165.88 881.6a6 6 0 0 1 6-6h188a6 6 0 0 1 6 6v76.8a6 6 0 0 1-6 6h-188a6 6 0 0 1-6-6z" stroke="#000" stroke-opacity="0" stroke-width="3" fill="#1b6a3a"/><use xlink:href="#d" transform="matrix(1,0,0,1,-1153.8823529411766,887.6) translate(11.125 24.55625)"/><use xlink:href="#e" transform="matrix(1,0,0,1,-1153.8823529411766,887.6) translate(81.97500000000001 24.55625)"/><use xlink:href="#f" transform="matrix(1,0,0,1,-1153.8823529411766,887.6) translate(57 46.15625)"/><path d="M-1131.77 760.8a6 6 0 0 1 6-6H-1006a6 6 0 0 1 6 6v68a6 6 0 0 1-6 6h-119.77a6 6 0 0 1-6-6z" stroke="#000" stroke-opacity="0" stroke-width="3" fill="#1b6a3a"/><use xlink:href="#g" transform="matrix(1,0,0,1,-1119.7647058823532,766.8000000000466) translate(21.549999999999997 31.9)"/><path d="M-1065.88 874.6v-21.3" stroke="#7b7d68" stroke-width="2" fill="none"/><path d="M-1064.88 875.6h-2v-1.03h2z" stroke="#7b7d68" stroke-width=".05" fill="#7b7d68"/><path d="M-1065.88 838.04l4.63 14.26h-9.27z" stroke="#7b7d68" stroke-width="2" fill="#7b7d68"/><path d="M-1065.88 999v-16.1" stroke="#7b7d68" stroke-width="2" fill="none"/><path d="M-1064.88 1000h-2v-1.03h2z" stroke="#7b7d68" stroke-width=".05" fill="#7b7d68"/><path d="M-1065.88 967.64l4.63 14.26h-9.27z" stroke="#7b7d68" stroke-width="2" fill="#7b7d68"/><path d="M-1220 686a6 6 0 0 1 6-6h108a6 6 0 0 1 6 6v28a6 6 0 0 1-6 6h-108a6 6 0 0 1-6-6z" stroke="#000" stroke-opacity="0" stroke-width="3" fill="#fff" fill-opacity="0"/><use xlink:href="#h" transform="matrix(1,0,0,1,-1215,685) translate(0 21.51111111111108)"/><path d="M-1420 466a6 6 0 0 1 6-6h179.77a6 6 0 0 1 6 6v28a6 6 0 0 1-6 6H-1414a6 6 0 0 1-6-6z" stroke="#000" stroke-opacity="0" stroke-width="3" fill="#fff" fill-opacity="0"/><use xlink:href="#i" transform="matrix(1,0,0,1,-1415,465) translate(0 21.51111111111108)"/><use xlink:href="#j" transform="matrix(1,0,0,1,-1415,465) translate(129.81358024691338 21.51111111111108)"/><path d="M-1131.77 506a6 6 0 0 1 6-6H-1006a6 6 0 0 1 6 6v68a6 6 0 0 1-6 6h-119.77a6 6 0 0 1-6-6z" stroke="#000" stroke-opacity="0" stroke-width="3" fill="#1b6a3a"/><use xlink:href="#k" transform="matrix(1,0,0,1,-1119.7647058823532,512) translate(0.04999999999999716 31.9)"/><use xlink:href="#l" transform="matrix(1,0,0,1,-1119.7647058823532,512) translate(54 31.9)"/><path d="M-1065.88 581v155.3" stroke="#7b7d68" stroke-width="2" fill="none"/><path d="M-1064.88 581.03h-2V580h2z" stroke="#7b7d68" stroke-width=".05" fill="#7b7d68"/><path d="M-1065.88 751.56l-4.64-14.26h9.27z" stroke="#7b7d68" stroke-width="2" fill="#7b7d68"/><path d="M-1131.77 1006a6 6 0 0 1 6-6H-1006a6 6 0 0 1 6 6v68a6 6 0 0 1-6 6h-119.77a6 6 0 0 1-6-6z" stroke="#000" stroke-opacity="0" stroke-width="3" fill="#1b6a3a"/><use xlink:href="#m" transform="matrix(1,0,0,1,-1119.7647058823532,1012) translate(13.049999999999997 21.4)"/><use xlink:href="#n" transform="matrix(1,0,0,1,-1119.7647058823532,1012) translate(14.049999999999997 43)"/><path d="M-1175.88 226a6 6 0 0 1 6-6h208a6 6 0 0 1 6 6v68a6 6 0 0 1-6 6h-208a6 6 0 0 1-6-6z" stroke="#000" stroke-opacity="0" stroke-width="3" fill="#3788a5"/><use xlink:href="#o" transform="matrix(1,0,0,1,-1163.8823529411766,232) translate(57.074999999999996 31.9)"/><use xlink:href="#p" transform="matrix(1,0,0,1,-1163.8823529411766,232) translate(89.025 31.9)"/><path d="M-1065.88 301v180.5" stroke="#7b7d68" stroke-width="2" fill="none"/><path d="M-1064.88 301.03h-2V300h2z" stroke="#7b7d68" stroke-width=".05" fill="#7b7d68"/><path d="M-1065.88 496.76l-4.64-14.26h9.27z" stroke="#7b7d68" stroke-width="2" fill="#7b7d68"/><path d="M-1065.88 136.97v64.53" stroke="#7b7d68" stroke-width="2" fill="none"/><path d="M-1064.88 137h-2v-.7l2-.65z" stroke="#7b7d68" stroke-width=".05" fill="#7b7d68"/><path d="M-1065.88 216.76l-4.64-14.26h9.27z" stroke="#7b7d68" stroke-width="2" fill="#7b7d68"/><path d="M-1140 60h160v80c-26.72-13.36-43.36-13.36-53.44-13.36-16 0-37.28 13.36-53.28 13.36-9.92 0-26.72 0-53.28-13.36z" stroke="#2e2f27" stroke-width="2" fill="#fff"/><g><use xlink:href="#q" transform="matrix(1,0,0,1,-1135,65) translate(50.525 32.2125)"/></g><defs><path fill="#2e2f27" d="M67-125c0 53 21 87 73 88 37 1 54-22 65-47l45 17C233-25 199 4 140 4 58 4 20-42 15-125 8-235 124-281 211-232c18 10 29 29 36 50l-46 12c-8-25-30-41-62-41-52 0-71 34-72 86" id="r"/><path fill="#2e2f27" d="M110-194c64 0 96 36 96 99 0 64-35 99-97 99-61 0-95-36-95-99 0-62 34-99 96-99zm-1 164c35 0 45-28 45-65 0-40-10-65-43-65-34 0-45 26-45 65 0 36 10 65 43 65" id="s"/><path fill="#2e2f27" d="M135-194c87-1 58 113 63 194h-50c-7-57 23-157-34-157-59 0-34 97-39 157H25l-1-190h47c2 12-1 28 3 38 12-26 28-41 61-42" id="t"/><path fill="#2e2f27" d="M115-3C79 11 28 4 28-45v-112H4v-33h27l15-45h31v45h36v33H77v99c-1 23 16 31 38 25v30" id="u"/><path fill="#2e2f27" d="M133-34C117-15 103 5 69 4 32 3 11-16 11-54c-1-60 55-63 116-61 1-26-3-47-28-47-18 1-26 9-28 27l-52-2c7-38 36-58 82-57s74 22 75 68l1 82c-1 14 12 18 25 15v27c-30 8-71 5-69-32zm-48 3c29 0 43-24 42-57-32 0-66-3-65 30 0 17 8 27 23 27" id="v"/><path fill="#2e2f27" d="M25-224v-37h50v37H25zM25 0v-190h50V0H25" id="w"/><path fill="#2e2f27" d="M185-48c-13 30-37 53-82 52C43 2 14-33 14-96s30-98 90-98c62 0 83 45 84 108H66c0 31 8 55 39 56 18 0 30-7 34-22zm-45-69c5-46-57-63-70-21-2 6-4 13-4 21h74" id="x"/><path fill="#2e2f27" d="M135-150c-39-12-60 13-60 57V0H25l-1-190h47c2 13-1 29 3 40 6-28 27-53 61-41v41" id="y"/><g id="a"><use transform="matrix(0.06172839506172839,0,0,0.06172839506172839,0,0)" xlink:href="#r"/><use transform="matrix(0.06172839506172839,0,0,0.06172839506172839,15.987654320987653,0)" xlink:href="#s"/><use transform="matrix(0.06172839506172839,0,0,0.06172839506172839,29.50617283950617,0)" xlink:href="#t"/><use transform="matrix(0.06172839506172839,0,0,0.06172839506172839,43.02469135802469,0)" xlink:href="#u"/><use transform="matrix(0.06172839506172839,0,0,0.06172839506172839,50.37037037037037,0)" xlink:href="#v"/><use transform="matrix(0.06172839506172839,0,0,0.06172839506172839,62.716049382716044,0)" xlink:href="#w"/><use transform="matrix(0.06172839506172839,0,0,0.06172839506172839,68.88888888888889,0)" xlink:href="#t"/><use transform="matrix(0.06172839506172839,0,0,0.06172839506172839,82.4074074074074,0)" xlink:href="#x"/><use transform="matrix(0.06172839506172839,0,0,0.06172839506172839,94.75308641975309,0)" xlink:href="#y"/></g><path fill="#2e2f27" d="M88-194c31-1 46 15 58 34l-1-101h50l1 261h-48c-2-10 0-23-3-31C134-8 116 4 84 4 32 4 16-41 15-95c0-56 19-97 73-99zm17 164c33 0 40-30 41-66 1-37-9-64-41-64s-38 30-39 65c0 43 13 65 39 65" id="z"/><g id="b"><use transform="matrix(0.06172839506172839,0,0,0.06172839506172839,0,0)" xlink:href="#t"/><use transform="matrix(0.06172839506172839,0,0,0.06172839506172839,13.518518518518517,0)" xlink:href="#s"/><use transform="matrix(0.06172839506172839,0,0,0.06172839506172839,27.037037037037035,0)" xlink:href="#z"/><use transform="matrix(0.06172839506172839,0,0,0.06172839506172839,40.55555555555555,0)" xlink:href="#x"/></g><g id="c"><use transform="matrix(0.06172839506172839,0,0,0.06172839506172839,0,0)" xlink:href="#r"/><use transform="matrix(0.06172839506172839,0,0,0.06172839506172839,15.987654320987653,0)" xlink:href="#s"/><use transform="matrix(0.06172839506172839,0,0,0.06172839506172839,29.50617283950617,0)" xlink:href="#t"/><use transform="matrix(0.06172839506172839,0,0,0.06172839506172839,43.02469135802469,0)" xlink:href="#u"/><use transform="matrix(0.06172839506172839,0,0,0.06172839506172839,50.37037037037037,0)" xlink:href="#x"/><use transform="matrix(0.06172839506172839,0,0,0.06172839506172839,62.716049382716044,0)" xlink:href="#t"/><use transform="matrix(0.06172839506172839,0,0,0.06172839506172839,76.23456790123456,0)" xlink:href="#u"/></g><path fill="#fff" d="M160-131c35 5 61 23 61 61C221 17 115-2 30 0v-248c76 3 177-17 177 60 0 33-19 50-47 57zm-97-11c50-1 110 9 110-42 0-47-63-36-110-37v79zm0 115c55-2 124 14 124-45 0-56-70-42-124-44v89" id="A"/><path fill="#fff" d="M24 0v-261h32V0H24" id="B"/><path fill="#fff" d="M141-36C126-15 110 5 73 4 37 3 15-17 15-53c-1-64 63-63 125-63 3-35-9-54-41-54-24 1-41 7-42 31l-33-3c5-37 33-52 76-52 45 0 72 20 72 64v82c-1 20 7 32 28 27v20c-31 9-61-2-59-35zM48-53c0 20 12 33 32 33 41-3 63-29 60-74-43 2-92-5-92 41" id="C"/><path fill="#fff" d="M96-169c-40 0-48 33-48 73s9 75 48 75c24 0 41-14 43-38l32 2c-6 37-31 61-74 61-59 0-76-41-82-99-10-93 101-131 147-64 4 7 5 14 7 22l-32 3c-4-21-16-35-41-35" id="D"/><path fill="#fff" d="M143 0L79-87 56-68V0H24v-261h32v163l83-92h37l-77 82L181 0h-38" id="E"/><path fill="#fff" d="M24-231v-30h32v30H24zM24 0v-190h32V0H24" id="F"/><path fill="#fff" d="M135-143c-3-34-86-38-87 0 15 53 115 12 119 90S17 21 10-45l28-5c4 36 97 45 98 0-10-56-113-15-118-90-4-57 82-63 122-42 12 7 21 19 24 35" id="G"/><path fill="#fff" d="M59-47c-2 24 18 29 38 22v24C64 9 27 4 27-40v-127H5v-23h24l9-43h21v43h35v23H59v120" id="H"/><g id="d"><use transform="matrix(0.05,0,0,0.05,0,0)" xlink:href="#A"/><use transform="matrix(0.05,0,0,0.05,12,0)" xlink:href="#B"/><use transform="matrix(0.05,0,0,0.05,15.949999999999998,0)" xlink:href="#C"/><use transform="matrix(0.05,0,0,0.05,25.950000000000003,0)" xlink:href="#D"/><use transform="matrix(0.05,0,0,0.05,34.95,0)" xlink:href="#E"/><use transform="matrix(0.05,0,0,0.05,43.95,0)" xlink:href="#B"/><use transform="matrix(0.05,0,0,0.05,47.900000000000006,0)" xlink:href="#F"/><use transform="matrix(0.05,0,0,0.05,51.85,0)" xlink:href="#G"/><use transform="matrix(0.05,0,0,0.05,60.85,0)" xlink:href="#H"/></g><path fill="#fff" d="M117-194c89-4 53 116 60 194h-32v-121c0-31-8-49-39-48C34-167 62-67 57 0H25l-1-190h30c1 10-1 24 2 32 11-22 29-35 61-36" id="I"/><path fill="#fff" d="M100-194c62-1 85 37 85 99 1 63-27 99-86 99S16-35 15-95c0-66 28-99 85-99zM99-20c44 1 53-31 53-75 0-43-8-75-51-75s-53 32-53 75 10 74 51 75" id="J"/><path fill="#fff" d="M16-82v-28h88v28H16" id="K"/><path fill="#fff" d="M108 0H70L1-190h34L89-25l56-165h34" id="L"/><path fill="#fff" d="M100-194c63 0 86 42 84 106H49c0 40 14 67 53 68 26 1 43-12 49-29l28 8c-11 28-37 45-77 45C44 4 14-33 15-96c1-61 26-98 85-98zm52 81c6-60-76-77-97-28-3 7-6 17-6 28h103" id="M"/><g id="e"><use transform="matrix(0.05,0,0,0.05,0,0)" xlink:href="#I"/><use transform="matrix(0.05,0,0,0.05,10,0)" xlink:href="#J"/><use transform="matrix(0.05,0,0,0.05,20,0)" xlink:href="#I"/><use transform="matrix(0.05,0,0,0.05,30,0)" xlink:href="#K"/><use transform="matrix(0.05,0,0,0.05,35.95,0)" xlink:href="#C"/><use transform="matrix(0.05,0,0,0.05,45.95,0)" xlink:href="#D"/><use transform="matrix(0.05,0,0,0.05,54.95,0)" xlink:href="#H"/><use transform="matrix(0.05,0,0,0.05,59.95,0)" xlink:href="#F"/><use transform="matrix(0.05,0,0,0.05,63.900000000000006,0)" xlink:href="#L"/><use transform="matrix(0.05,0,0,0.05,72.9,0)" xlink:href="#M"/></g><path fill="#fff" d="M115-194c53 0 69 39 70 98 0 66-23 100-70 100C84 3 66-7 56-30L54 0H23l1-261h32v101c10-23 28-34 59-34zm-8 174c40 0 45-34 45-75 0-40-5-75-45-74-42 0-51 32-51 76 0 43 10 73 51 73" id="N"/><path fill="#fff" d="M84 4C-5 8 30-112 23-190h32v120c0 31 7 50 39 49 72-2 45-101 50-169h31l1 190h-30c-1-10 1-25-2-33-11 22-28 36-60 37" id="O"/><g id="f"><use transform="matrix(0.05,0,0,0.05,0,0)" xlink:href="#N"/><use transform="matrix(0.05,0,0,0.05,10,0)" xlink:href="#O"/><use transform="matrix(0.05,0,0,0.05,20,0)" xlink:href="#D"/><use transform="matrix(0.05,0,0,0.05,29,0)" xlink:href="#E"/><use transform="matrix(0.05,0,0,0.05,38,0)" xlink:href="#M"/><use transform="matrix(0.05,0,0,0.05,48,0)" xlink:href="#H"/><use transform="matrix(0.05,0,0,0.05,53,0)" xlink:href="#G"/></g><path fill="#fff" d="M240 0l2-218c-23 76-54 145-80 218h-23L58-218 59 0H30v-248h44l77 211c21-75 51-140 76-211h43V0h-30" id="P"/><path fill="#fff" d="M106-169C34-169 62-67 57 0H25v-261h32l-1 103c12-21 28-36 61-36 89 0 53 116 60 194h-32v-121c2-32-8-49-39-48" id="Q"/><path fill="#fff" d="M114-163C36-179 61-72 57 0H25l-1-190h30c1 12-1 29 2 39 6-27 23-49 58-41v29" id="R"/><g id="g"><use transform="matrix(0.05,0,0,0.05,0,0)" xlink:href="#P"/><use transform="matrix(0.05,0,0,0.05,14.950000000000001,0)" xlink:href="#C"/><use transform="matrix(0.05,0,0,0.05,24.950000000000003,0)" xlink:href="#H"/><use transform="matrix(0.05,0,0,0.05,29.950000000000003,0)" xlink:href="#D"/><use transform="matrix(0.05,0,0,0.05,38.95,0)" xlink:href="#Q"/><use transform="matrix(0.05,0,0,0.05,48.95,0)" xlink:href="#M"/><use transform="matrix(0.05,0,0,0.05,58.95,0)" xlink:href="#R"/></g><path fill="#2e2f27" d="M233-177c-1 41-23 64-60 70L243 0h-38l-65-103H63V0H30v-248c88 3 205-21 203 71zM63-129c60-2 137 13 137-47 0-61-80-42-137-45v92" id="S"/><path fill="#2e2f27" d="M100-194c63 0 86 42 84 106H49c0 40 14 67 53 68 26 1 43-12 49-29l28 8c-11 28-37 45-77 45C44 4 14-33 15-96c1-61 26-98 85-98zm52 81c6-60-76-77-97-28-3 7-6 17-6 28h103" id="T"/><path fill="#2e2f27" d="M141-36C126-15 110 5 73 4 37 3 15-17 15-53c-1-64 63-63 125-63 3-35-9-54-41-54-24 1-41 7-42 31l-33-3c5-37 33-52 76-52 45 0 72 20 72 64v82c-1 20 7 32 28 27v20c-31 9-61-2-59-35zM48-53c0 20 12 33 32 33 41-3 63-29 60-74-43 2-92-5-92 41" id="U"/><path fill="#2e2f27" d="M85-194c31 0 48 13 60 33l-1-100h32l1 261h-30c-2-10 0-23-3-31C134-8 116 4 85 4 32 4 16-35 15-94c0-66 23-100 70-100zm9 24c-40 0-46 34-46 75 0 40 6 74 45 74 42 0 51-32 51-76 0-42-9-74-50-73" id="V"/><path fill="#2e2f27" d="M179-190L93 31C79 59 56 82 12 73V49c39 6 53-20 64-50L1-190h34L92-34l54-156h33" id="W"/><g id="h"><use transform="matrix(0.07469135802469125,0,0,0.07469135802469125,0,0)" xlink:href="#S"/><use transform="matrix(0.07469135802469125,0,0,0.07469135802469125,19.345061728395034,0)" xlink:href="#T"/><use transform="matrix(0.07469135802469125,0,0,0.07469135802469125,34.28333333333328,0)" xlink:href="#U"/><use transform="matrix(0.07469135802469125,0,0,0.07469135802469125,49.22160493827153,0)" xlink:href="#V"/><use transform="matrix(0.07469135802469125,0,0,0.07469135802469125,64.15987654320978,0)" xlink:href="#W"/></g><path fill="#2e2f27" d="M30-248c118-7 216 8 213 122C240-48 200 0 122 0H30v-248zM63-27c89 8 146-16 146-99s-60-101-146-95v194" id="X"/><path fill="#2e2f27" d="M100-194c62-1 85 37 85 99 1 63-27 99-86 99S16-35 15-95c0-66 28-99 85-99zM99-20c44 1 53-31 53-75 0-43-8-75-51-75s-53 32-53 75 10 74 51 75" id="Y"/><path fill="#2e2f27" d="M96-169c-40 0-48 33-48 73s9 75 48 75c24 0 41-14 43-38l32 2c-6 37-31 61-74 61-59 0-76-41-82-99-10-93 101-131 147-64 4 7 5 14 7 22l-32 3c-4-21-16-35-41-35" id="Z"/><path fill="#2e2f27" d="M84 4C-5 8 30-112 23-190h32v120c0 31 7 50 39 49 72-2 45-101 50-169h31l1 190h-30c-1-10 1-25-2-33-11 22-28 36-60 37" id="aa"/><path fill="#2e2f27" d="M210-169c-67 3-38 105-44 169h-31v-121c0-29-5-50-35-48C34-165 62-65 56 0H25l-1-190h30c1 10-1 24 2 32 10-44 99-50 107 0 11-21 27-35 58-36 85-2 47 119 55 194h-31v-121c0-29-5-49-35-48" id="ab"/><path fill="#2e2f27" d="M117-194c89-4 53 116 60 194h-32v-121c0-31-8-49-39-48C34-167 62-67 57 0H25l-1-190h30c1 10-1 24 2 32 11-22 29-35 61-36" id="ac"/><path fill="#2e2f27" d="M59-47c-2 24 18 29 38 22v24C64 9 27 4 27-40v-127H5v-23h24l9-43h21v43h35v23H59v120" id="ad"/><g id="i"><use transform="matrix(0.07469135802469125,0,0,0.07469135802469125,0,0)" xlink:href="#X"/><use transform="matrix(0.07469135802469125,0,0,0.07469135802469125,19.345061728395034,0)" xlink:href="#Y"/><use transform="matrix(0.07469135802469125,0,0,0.07469135802469125,34.28333333333328,0)" xlink:href="#Z"/><use transform="matrix(0.07469135802469125,0,0,0.07469135802469125,47.727777777777696,0)" xlink:href="#aa"/><use transform="matrix(0.07469135802469125,0,0,0.07469135802469125,62.666049382715954,0)" xlink:href="#ab"/><use transform="matrix(0.07469135802469125,0,0,0.07469135802469125,84.99876543209864,0)" xlink:href="#T"/><use transform="matrix(0.07469135802469125,0,0,0.07469135802469125,99.93703703703689,0)" xlink:href="#ac"/><use transform="matrix(0.07469135802469125,0,0,0.07469135802469125,114.87530864197514,0)" xlink:href="#ad"/></g><path fill="#2e2f27" d="M160-131c35 5 61 23 61 61C221 17 115-2 30 0v-248c76 3 177-17 177 60 0 33-19 50-47 57zm-97-11c50-1 110 9 110-42 0-47-63-36-110-37v79zm0 115c55-2 124 14 124-45 0-56-70-42-124-44v89" id="ae"/><g id="j"><use transform="matrix(0.07469135802469125,0,0,0.07469135802469125,0,0)" xlink:href="#X"/><use transform="matrix(0.07469135802469125,0,0,0.07469135802469125,19.345061728395034,0)" xlink:href="#ae"/></g><g id="k"><use transform="matrix(0.05,0,0,0.05,0,0)" xlink:href="#P"/><use transform="matrix(0.05,0,0,0.05,14.950000000000001,0)" xlink:href="#C"/><use transform="matrix(0.05,0,0,0.05,24.950000000000003,0)" xlink:href="#H"/><use transform="matrix(0.05,0,0,0.05,29.950000000000003,0)" xlink:href="#D"/><use transform="matrix(0.05,0,0,0.05,38.95,0)" xlink:href="#Q"/></g><path fill="#fff" d="M177-190C167-65 218 103 67 71c-23-6-38-20-44-43l32-5c15 47 100 32 89-28v-30C133-14 115 1 83 1 29 1 15-40 15-95c0-56 16-97 71-98 29-1 48 16 59 35 1-10 0-23 2-32h30zM94-22c36 0 50-32 50-73 0-42-14-75-50-75-39 0-46 34-46 75s6 73 46 73" id="af"/><g id="l"><use transform="matrix(0.05,0,0,0.05,0,0)" xlink:href="#M"/><use transform="matrix(0.05,0,0,0.05,10,0)" xlink:href="#I"/><use transform="matrix(0.05,0,0,0.05,20,0)" xlink:href="#af"/><use transform="matrix(0.05,0,0,0.05,30,0)" xlink:href="#F"/><use transform="matrix(0.05,0,0,0.05,33.95,0)" xlink:href="#I"/><use transform="matrix(0.05,0,0,0.05,43.95,0)" xlink:href="#M"/></g><path fill="#fff" d="M30-248c118-7 216 8 213 122C240-48 200 0 122 0H30v-248zM63-27c89 8 146-16 146-99s-60-101-146-95v194" id="ag"/><path fill="#fff" d="M210-169c-67 3-38 105-44 169h-31v-121c0-29-5-50-35-48C34-165 62-65 56 0H25l-1-190h30c1 10-1 24 2 32 10-44 99-50 107 0 11-21 27-35 58-36 85-2 47 119 55 194h-31v-121c0-29-5-49-35-48" id="ah"/><g id="m"><use transform="matrix(0.05,0,0,0.05,0,0)" xlink:href="#ag"/><use transform="matrix(0.05,0,0,0.05,12.950000000000001,0)" xlink:href="#J"/><use transform="matrix(0.05,0,0,0.05,22.950000000000003,0)" xlink:href="#D"/><use transform="matrix(0.05,0,0,0.05,31.950000000000003,0)" xlink:href="#O"/><use transform="matrix(0.05,0,0,0.05,41.95,0)" xlink:href="#ah"/><use transform="matrix(0.05,0,0,0.05,56.900000000000006,0)" xlink:href="#M"/><use transform="matrix(0.05,0,0,0.05,66.9,0)" xlink:href="#I"/><use transform="matrix(0.05,0,0,0.05,76.9,0)" xlink:href="#H"/></g><g id="n"><use transform="matrix(0.05,0,0,0.05,0,0)" xlink:href="#ah"/><use transform="matrix(0.05,0,0,0.05,14.950000000000001,0)" xlink:href="#M"/><use transform="matrix(0.05,0,0,0.05,24.950000000000003,0)" xlink:href="#H"/><use transform="matrix(0.05,0,0,0.05,29.950000000000003,0)" xlink:href="#C"/><use transform="matrix(0.05,0,0,0.05,39.95,0)" xlink:href="#G"/><use transform="matrix(0.05,0,0,0.05,48.95,0)" xlink:href="#H"/><use transform="matrix(0.05,0,0,0.05,53.95,0)" xlink:href="#J"/><use transform="matrix(0.05,0,0,0.05,63.95,0)" xlink:href="#R"/><use transform="matrix(0.05,0,0,0.05,69.9,0)" xlink:href="#M"/></g><path fill="#fff" d="M140-251c81 0 123 46 123 126C263-53 228-8 163 1c7 30 30 48 69 40v23c-55 16-95-15-103-61C56-3 17-48 17-125c0-80 42-126 123-126zm0 227c63 0 89-41 89-101s-29-99-89-99c-61 0-89 39-89 99S79-25 140-24" id="ai"/><path fill="#fff" d="M233-177c-1 41-23 64-60 70L243 0h-38l-65-103H63V0H30v-248c88 3 205-21 203 71zM63-129c60-2 137 13 137-47 0-61-80-42-137-45v92" id="aj"/><g id="o"><use transform="matrix(0.05,0,0,0.05,0,0)" xlink:href="#ai"/><use transform="matrix(0.05,0,0,0.05,14,0)" xlink:href="#aj"/></g><g id="p"><use transform="matrix(0.05,0,0,0.05,0,0)" xlink:href="#G"/><use transform="matrix(0.05,0,0,0.05,9,0)" xlink:href="#M"/><use transform="matrix(0.05,0,0,0.05,19,0)" xlink:href="#R"/><use transform="matrix(0.05,0,0,0.05,24.95,0)" xlink:href="#L"/><use transform="matrix(0.05,0,0,0.05,33.95,0)" xlink:href="#M"/><use transform="matrix(0.05,0,0,0.05,43.95,0)" xlink:href="#R"/></g><path fill="#2e2f27" d="M140-251c81 0 123 46 123 126C263-53 228-8 163 1c7 30 30 48 69 40v23c-55 16-95-15-103-61C56-3 17-48 17-125c0-80 42-126 123-126zm0 227c63 0 89-41 89-101s-29-99-89-99c-61 0-89 39-89 99S79-25 140-24" id="ak"/><path fill="#2e2f27" d="M114-163C36-179 61-72 57 0H25l-1-190h30c1 12-1 29 2 39 6-27 23-49 58-41v29" id="al"/><g id="q"><use transform="matrix(0.05,0,0,0.05,0,0)" xlink:href="#ak"/><use transform="matrix(0.05,0,0,0.05,14,0)" xlink:href="#aa"/><use transform="matrix(0.05,0,0,0.05,24,0)" xlink:href="#T"/><use transform="matrix(0.05,0,0,0.05,34,0)" xlink:href="#al"/><use transform="matrix(0.05,0,0,0.05,39.95,0)" xlink:href="#W"/></g></defs></g></svg>