<svg xmlns="http://www.w3.org/2000/svg" xmlns:lucid="lucid" width="824" height="400"><g lucid:page-tab-id="0_0"><path d="M-140-340h1870.87V982.83H-140z" fill="#fff"/><path d="M20 166c0-3.3 2.7-6 6-6h72c3.3 0 6 2.7 6 6v68c0 3.3-2.7 6-6 6H26c-3.3 0-6-2.7-6-6z" stroke="#000" stroke-opacity="0" stroke-width="3" fill="#834187"/><path d="M160 166c0-3.3 2.7-6 6-6h68c3.3 0 6 2.7 6 6v68c0 3.3-2.7 6-6 6h-68c-3.3 0-6-2.7-6-6zM300 166c0-3.3 2.7-6 6-6h68c3.3 0 6 2.7 6 6v68c0 3.3-2.7 6-6 6h-68c-3.3 0-6-2.7-6-6zM440 26c0-3.3 2.7-6 6-6h68c3.3 0 6 2.7 6 6v68c0 3.3-2.7 6-6 6h-68c-3.3 0-6-2.7-6-6zM580 26c0-3.3 2.7-6 6-6h68c3.3 0 6 2.7 6 6v68c0 3.3-2.7 6-6 6h-68c-3.3 0-6-2.7-6-6z" stroke="#000" stroke-opacity="0" stroke-width="3" fill="#7ab648"/><path d="M304 306c0-3.3 2.7-6 6-6h72c3.3 0 6 2.7 6 6v68c0 3.3-2.7 6-6 6h-72c-3.3 0-6-2.7-6-6zM440 166c0-3.3 2.7-6 6-6h72c3.3 0 6 2.7 6 6v68c0 3.3-2.7 6-6 6h-72c-3.3 0-6-2.7-6-6zM440 306c0-3.3 2.7-6 6-6h72c3.3 0 6 2.7 6 6v68c0 3.3-2.7 6-6 6h-72c-3.3 0-6-2.7-6-6zM720 26c0-3.3 2.7-6 6-6h72c3.3 0 6 2.7 6 6v68c0 3.3-2.7 6-6 6h-72c-3.3 0-6-2.7-6-6z" stroke="#000" stroke-opacity="0" stroke-width="3" fill="#ef8d22"/><path d="M381 200h23c3.3 0 6 2.7 6 6v128c0 3.3 2.7 6 6 6h5.5" stroke="#5e5e5e" stroke-width="2" fill="none"/><path d="M381.03 201H380v-2h1.03" fill="#5e5e5e"/><path d="M436.76 340l-14.26 4.64v-9.28z" stroke="#5e5e5e" stroke-width="2" fill="#5e5e5e"/><path d="M661 60h40.5" stroke="#5e5e5e" stroke-width="2" fill="none"/><path d="M661.03 61H660v-2h1.03" fill="#5e5e5e"/><path d="M716.76 60l-14.26 4.64v-9.28z" stroke="#5e5e5e" stroke-width="2" fill="#5e5e5e"/><path d="M521 60h40.5" stroke="#5e5e5e" stroke-width="2" fill="none"/><path d="M521.03 61H520v-2h1.03" fill="#5e5e5e"/><path d="M576.76 60l-14.26 4.64v-9.28z" stroke="#5e5e5e" stroke-width="2" fill="#5e5e5e"/><path d="M381 200h23c3.3 0 6-2.7 6-6V66c0-3.3 2.7-6 6-6h5.5" stroke="#5e5e5e" stroke-width="2" fill="none"/><path d="M381.03 201H380v-2h1.03" fill="#5e5e5e"/><path d="M436.76 60l-14.26 4.64v-9.28z" stroke="#5e5e5e" stroke-width="2" fill="#5e5e5e"/><path d="M381 200h40.5" stroke="#5e5e5e" stroke-width="2" fill="none"/><path d="M381.03 201H380v-2h1.03" fill="#5e5e5e"/><path d="M436.76 200l-14.26 4.64v-9.28z" stroke="#5e5e5e" stroke-width="2" fill="#5e5e5e"/><path d="M105 200h36.5" stroke="#5e5e5e" stroke-width="2" fill="none"/><path d="M105.03 201H104v-2h1.03" fill="#5e5e5e"/><path d="M156.76 200l-14.26 4.64v-9.28z" stroke="#5e5e5e" stroke-width="2" fill="#5e5e5e"/><path d="M241 200h40.5" stroke="#5e5e5e" stroke-width="2" fill="none"/><path d="M241.03 201H240v-2h1.03" fill="#5e5e5e"/><path d="M296.76 200l-14.26 4.64v-9.28z" stroke="#5e5e5e" stroke-width="2" fill="#5e5e5e"/><path d="M241 200h25c3.3 0 6 2.7 6 6v128c0 3.3 2.7 6 6 6h7.5" stroke="#5e5e5e" stroke-width="2" fill="none"/><path d="M241.03 201H240v-2h1.03" fill="#5e5e5e"/><path d="M300.76 340l-14.26 4.64v-9.28z" stroke="#5e5e5e" stroke-width="2" fill="#5e5e5e"/></g></svg>