<svg xmlns="http://www.w3.org/2000/svg" xmlns:lucid="lucid" width="827" height="403"><g lucid:page-tab-id="0_0"><path d="M-138.5-338.5h1870.87V984.34H-138.5z" fill="#fff"/><path d="M21.5 167.5a6 6 0 0 1 6-6h72a6 6 0 0 1 6 6v68a6 6 0 0 1-6 6h-72a6 6 0 0 1-6-6z" stroke="#000" stroke-opacity="0" stroke-width="3" fill="#ae6188"/><path d="M161.5 167.5a6 6 0 0 1 6-6h68a6 6 0 0 1 6 6v68a6 6 0 0 1-6 6h-68a6 6 0 0 1-6-6zM301.5 167.5a6 6 0 0 1 6-6h68a6 6 0 0 1 6 6v68a6 6 0 0 1-6 6h-68a6 6 0 0 1-6-6zM441.5 27.5a6 6 0 0 1 6-6h68a6 6 0 0 1 6 6v68a6 6 0 0 1-6 6h-68a6 6 0 0 1-6-6zM581.5 27.5a6 6 0 0 1 6-6h68a6 6 0 0 1 6 6v68a6 6 0 0 1-6 6h-68a6 6 0 0 1-6-6z" stroke="#000" stroke-opacity="0" stroke-width="3" fill="#796bb3"/><path d="M305.5 307.5a6 6 0 0 1 6-6h72a6 6 0 0 1 6 6v68a6 6 0 0 1-6 6h-72a6 6 0 0 1-6-6zM441.5 167.5a6 6 0 0 1 6-6h72a6 6 0 0 1 6 6v68a6 6 0 0 1-6 6h-72a6 6 0 0 1-6-6zM441.5 307.5a6 6 0 0 1 6-6h72a6 6 0 0 1 6 6v68a6 6 0 0 1-6 6h-72a6 6 0 0 1-6-6zM721.5 27.5a6 6 0 0 1 6-6h72a6 6 0 0 1 6 6v68a6 6 0 0 1-6 6h-72a6 6 0 0 1-6-6z" stroke="#000" stroke-opacity="0" stroke-width="3" fill="#1b6a3a"/><path d="M382.5 201.5h23a6 6 0 0 1 6 6v128a6 6 0 0 0 6 6h5.5" stroke="#7b7d68" stroke-width="2" fill="none"/><path d="M382.53 202.5h-1.03v-2h1.03z" stroke="#7b7d68" stroke-width=".05" fill="#7b7d68"/><path d="M438.26 341.5L424 346.13v-9.26z" stroke="#7b7d68" stroke-width="2" fill="#7b7d68"/><path d="M662.5 61.5H703" stroke="#7b7d68" stroke-width="2" fill="none"/><path d="M662.53 62.5h-1.03v-2h1.03z" stroke="#7b7d68" stroke-width=".05" fill="#7b7d68"/><path d="M718.26 61.5L704 66.13v-9.26z" stroke="#7b7d68" stroke-width="2" fill="#7b7d68"/><path d="M522.5 61.5H563" stroke="#7b7d68" stroke-width="2" fill="none"/><path d="M522.53 62.5h-1.03v-2h1.03z" stroke="#7b7d68" stroke-width=".05" fill="#7b7d68"/><path d="M578.26 61.5L564 66.13v-9.26z" stroke="#7b7d68" stroke-width="2" fill="#7b7d68"/><path d="M382.5 201.5h23a6 6 0 0 0 6-6v-128a6 6 0 0 1 6-6h5.5" stroke="#7b7d68" stroke-width="2" fill="none"/><path d="M382.53 202.5h-1.03v-2h1.03z" stroke="#7b7d68" stroke-width=".05" fill="#7b7d68"/><path d="M438.26 61.5L424 66.13v-9.26z" stroke="#7b7d68" stroke-width="2" fill="#7b7d68"/><path d="M382.5 201.5H423" stroke="#7b7d68" stroke-width="2" fill="none"/><path d="M382.53 202.5h-1.03v-2h1.03z" stroke="#7b7d68" stroke-width=".05" fill="#7b7d68"/><path d="M438.26 201.5L424 206.13v-9.26z" stroke="#7b7d68" stroke-width="2" fill="#7b7d68"/><path d="M106.5 201.5H143" stroke="#7b7d68" stroke-width="2" fill="none"/><path d="M106.53 202.5h-1.03v-2h1.03z" stroke="#7b7d68" stroke-width=".05" fill="#7b7d68"/><path d="M158.26 201.5L144 206.13v-9.26z" stroke="#7b7d68" stroke-width="2" fill="#7b7d68"/><path d="M242.5 201.5H283" stroke="#7b7d68" stroke-width="2" fill="none"/><path d="M242.53 202.5h-1.03v-2h1.03z" stroke="#7b7d68" stroke-width=".05" fill="#7b7d68"/><path d="M298.26 201.5L284 206.13v-9.26z" stroke="#7b7d68" stroke-width="2" fill="#7b7d68"/><path d="M242.5 201.5h25a6 6 0 0 1 6 6v128a6 6 0 0 0 6 6h7.5" stroke="#7b7d68" stroke-width="2" fill="none"/><path d="M242.53 202.5h-1.03v-2h1.03z" stroke="#7b7d68" stroke-width=".05" fill="#7b7d68"/><path d="M302.26 341.5L288 346.13v-9.26z" stroke="#7b7d68" stroke-width="2" fill="#7b7d68"/></g></svg>