<svg xmlns="http://www.w3.org/2000/svg" xmlns:xlink="http://www.w3.org/1999/xlink" xmlns:lucid="lucid" width="763" height="923"><g transform="translate(2181.5 441.5)" lucid:page-tab-id="0_0"><path d="M-2500-500h1500V500h-1500z" fill="#fff"/><path d="M-1960-414a6 6 0 0 1 6-6h308a6 6 0 0 1 6 6v228a6 6 0 0 1-6 6h-308a6 6 0 0 1-6-6z" stroke="#000" stroke-opacity="0" stroke-width="3" fill="#baedce"/><path d="M-1960-414a6 6 0 0 1 6-6h168a6 6 0 0 1 6 6v28a6 6 0 0 1-6 6h-168a6 6 0 0 1-6-6z" stroke="#000" stroke-opacity="0" stroke-width="3" fill="#fff" fill-opacity="0"/><use xlink:href="#a" transform="matrix(1,0,0,1,-1955,-415) translate(0 21.51111111111108)"/><use xlink:href="#b" transform="matrix(1,0,0,1,-1955,-415) translate(101.5055555555554 21.51111111111108)"/><path d="M-1940-374a6 6 0 0 1 6-6h259.77a6 6 0 0 1 6 6v168a6 6 0 0 1-6 6H-1934a6 6 0 0 1-6-6z" stroke="#000" stroke-opacity="0" stroke-width="3" fill="#1b6a3a"/><use xlink:href="#c" transform="matrix(1,0,0,1,-1928,-368) translate(0 14.4)"/><path d="M-1920-334a6 6 0 0 1 6-6h159.77a6 6 0 0 1 6 6v68a6 6 0 0 1-6 6H-1914a6 6 0 0 1-6-6z" stroke="#000" stroke-opacity="0" stroke-width="3" fill="#fff"/><use xlink:href="#d" transform="matrix(1,0,0,1,-1908,-328) translate(0 14.4)"/><use xlink:href="#e" transform="matrix(1,0,0,1,-1908,-328) translate(67.95 14.4)"/><path d="M-1960-93.86a6 6 0 0 1 6-6h308a6 6 0 0 1 6 6v228a6 6 0 0 1-6 6h-308a6 6 0 0 1-6-6z" stroke="#000" stroke-opacity="0" stroke-width="3" fill="#baedce"/><path d="M-1960-93.86a6 6 0 0 1 6-6h168a6 6 0 0 1 6 6v28a6 6 0 0 1-6 6h-168a6 6 0 0 1-6-6z" stroke="#000" stroke-opacity="0" stroke-width="3" fill="#fff" fill-opacity="0"/><use xlink:href="#a" transform="matrix(1,0,0,1,-1955,-94.8548646592883) translate(0 21.51111111111108)"/><use xlink:href="#b" transform="matrix(1,0,0,1,-1955,-94.8548646592883) translate(101.5055555555554 21.51111111111108)"/><path d="M-1940-53.85a6 6 0 0 1 6-6h259.77a6 6 0 0 1 6 6V114a6 6 0 0 1-6 6H-1934a6 6 0 0 1-6-6z" stroke="#000" stroke-opacity="0" stroke-width="3" fill="#1b6a3a"/><use xlink:href="#c" transform="matrix(1,0,0,1,-1928,-47.854864659288296) translate(0 14.4)"/><path d="M-1920-13.86a6 6 0 0 1 6-6h159.77a6 6 0 0 1 6 6v68a6 6 0 0 1-6 6H-1914a6 6 0 0 1-6-6z" stroke="#000" stroke-opacity="0" stroke-width="3" fill="#fff"/><use xlink:href="#d" transform="matrix(1,0,0,1,-1908,-7.854864659288268) translate(0 14.4)"/><use xlink:href="#e" transform="matrix(1,0,0,1,-1908,-7.854864659288268) translate(67.95 14.4)"/><path d="M-1900 6.14a6 6 0 0 1 6-6h159.77a6 6 0 0 1 6 6v68a6 6 0 0 1-6 6H-1894a6 6 0 0 1-6-6z" stroke="#000" stroke-opacity="0" stroke-width="3" fill="#fff"/><use xlink:href="#d" transform="matrix(1,0,0,1,-1888,12.145135340711704) translate(0 14.4)"/><use xlink:href="#f" transform="matrix(1,0,0,1,-1888,12.145135340711704) translate(67.95 14.4)"/><path d="M-1880 26.14a6 6 0 0 1 6-6h159.77a6 6 0 0 1 6 6v68a6 6 0 0 1-6 6H-1874a6 6 0 0 1-6-6z" stroke="#000" stroke-opacity="0" stroke-width="3" fill="#fff"/><use xlink:href="#d" transform="matrix(1,0,0,1,-1868,32.145135340711704) translate(0 14.4)"/><use xlink:href="#g" transform="matrix(1,0,0,1,-1868,32.145135340711704) translate(67.95 14.4)"/><path d="M-2160 226a6 6 0 0 1 6-6h308a6 6 0 0 1 6 6v228a6 6 0 0 1-6 6h-308a6 6 0 0 1-6-6z" stroke="#000" stroke-opacity="0" stroke-width="3" fill="#baedce"/><path d="M-2160 226a6 6 0 0 1 6-6h288a6 6 0 0 1 6 6v28a6 6 0 0 1-6 6h-288a6 6 0 0 1-6-6z" stroke="#000" stroke-opacity="0" stroke-width="3" fill="#fff" fill-opacity="0"/><use xlink:href="#a" transform="matrix(1,0,0,1,-2155,225) translate(0 21.51111111111108)"/><use xlink:href="#h" transform="matrix(1,0,0,1,-2155,225) translate(101.5055555555554 21.51111111111108)"/><use xlink:href="#i" transform="matrix(1,0,0,1,-2155,225) translate(168.72777777777753 21.51111111111108)"/><use xlink:href="#j" transform="matrix(1,0,0,1,-2155,225) translate(237.3691358024688 21.51111111111108)"/><path d="M-2140 266a6 6 0 0 1 6-6h259.77a6 6 0 0 1 6 6v168a6 6 0 0 1-6 6H-2134a6 6 0 0 1-6-6z" stroke="#000" stroke-opacity="0" stroke-width="3" fill="#1b6a3a"/><use xlink:href="#c" transform="matrix(1,0,0,1,-2128,272) translate(0 14.4)"/><path d="M-2120 306a6 6 0 0 1 6-6h159.77a6 6 0 0 1 6 6v68a6 6 0 0 1-6 6H-2114a6 6 0 0 1-6-6z" stroke="#000" stroke-opacity="0" stroke-width="3" fill="#fff"/><use xlink:href="#d" transform="matrix(1,0,0,1,-2108,311.99999999999994) translate(0 14.4)"/><use xlink:href="#e" transform="matrix(1,0,0,1,-2108,311.99999999999994) translate(67.95 14.4)"/><path d="M-2100 326a6 6 0 0 1 6-6h159.77a6 6 0 0 1 6 6v68a6 6 0 0 1-6 6H-2094a6 6 0 0 1-6-6z" stroke="#000" stroke-opacity="0" stroke-width="3" fill="#fff"/><use xlink:href="#d" transform="matrix(1,0,0,1,-2088,332) translate(0 14.4)"/><use xlink:href="#f" transform="matrix(1,0,0,1,-2088,332) translate(67.95 14.4)"/><path d="M-1760 226a6 6 0 0 1 6-6h308a6 6 0 0 1 6 6v228a6 6 0 0 1-6 6h-308a6 6 0 0 1-6-6z" stroke="#000" stroke-opacity="0" stroke-width="3" fill="#baedce"/><path d="M-1760 226a6 6 0 0 1 6-6h279.77a6 6 0 0 1 6 6v28a6 6 0 0 1-6 6H-1754a6 6 0 0 1-6-6z" stroke="#000" stroke-opacity="0" stroke-width="3" fill="#fff" fill-opacity="0"/><use xlink:href="#a" transform="matrix(1,0,0,1,-1755,225) translate(0 21.51111111111108)"/><use xlink:href="#h" transform="matrix(1,0,0,1,-1755,225) translate(101.5055555555554 21.51111111111108)"/><use xlink:href="#i" transform="matrix(1,0,0,1,-1755,225) translate(168.72777777777753 21.51111111111108)"/><use xlink:href="#k" transform="matrix(1,0,0,1,-1755,225) translate(237.3691358024688 21.51111111111108)"/><path d="M-1740 266a6 6 0 0 1 6-6h259.77a6 6 0 0 1 6 6v168a6 6 0 0 1-6 6H-1734a6 6 0 0 1-6-6z" stroke="#000" stroke-opacity="0" stroke-width="3" fill="#1b6a3a"/><use xlink:href="#c" transform="matrix(1,0,0,1,-1728,272) translate(0 14.4)"/><path d="M-1720 306a6 6 0 0 1 6-6h159.77a6 6 0 0 1 6 6v68a6 6 0 0 1-6 6H-1714a6 6 0 0 1-6-6z" stroke="#000" stroke-opacity="0" stroke-width="3" fill="#fff"/><use xlink:href="#d" transform="matrix(1,0,0,1,-1708,311.99999999999994) translate(0 14.4)"/><use xlink:href="#g" transform="matrix(1,0,0,1,-1708,311.99999999999994) translate(67.95 14.4)"/><path d="M-1801.4-118.36h-2l-.02-17.7h2zm-.03-39.04h-2V-179h2z" stroke="#7b7d68" stroke-width=".05" fill="#7b7d68"/><path d="M-1801.43-178.97h-2V-180h2z" fill="#7b7d68"/><path d="M-1801.4-178.95h-2.05v-1.08h2.05zm-2-1.03v.98h1.95v-.97z" stroke="#7b7d68" stroke-width=".05" fill="#7b7d68"/><path d="M-1802.4-103.1l-4.64-14.26h9.27z" fill="#7b7d68"/><path d="M-1802.4-99.86l-6.02-18.5h12.03zm-3.26-16.5l3.26 10.03 3.26-10.03z" stroke="#7b7d68" stroke-width=".05" fill="#7b7d68"/><g><use xlink:href="#l" transform="matrix(1,0,0,1,-1860.1081507444787,-157.4042092076841) translate(0 14.222222222222223)"/><use xlink:href="#m" transform="matrix(1,0,0,1,-1860.1081507444787,-157.4042092076841) translate(39.358024691358025 14.222222222222223)"/></g><path d="M-1605.96 179.07l1.06.1 1.06.24 1.02.43.94.58.83.72.72.84.57.93.42 1 .26 1.08.08 1.05v15.47h-2v-15.4l-.07-.8-.18-.77-.3-.73-.4-.67-.52-.6-.6-.5-.66-.4-.73-.3-.76-.2-.82-.06h-95.7v-2zM-1799 169.4h-2v-28.25h2z" stroke="#7b7d68" stroke-width=".05" fill="#7b7d68"/><path d="M-1799 141.17h-2v-1.02h2z" fill="#7b7d68"/><path d="M-1798.97 141.2h-2.06v-1.08h2.06zm-2-1.03v.98h1.94v-.98z" stroke="#7b7d68" stroke-width=".05" fill="#7b7d68"/><path d="M-1600 216.76l-4.63-14.26h9.27z" fill="#7b7d68"/><path d="M-1600 220l-6-18.5h12zm-3.26-16.5l3.26 10.03 3.26-10.03z" stroke="#7b7d68" stroke-width=".05" fill="#7b7d68"/><g><use xlink:href="#n" transform="matrix(1,0,0,1,-1876.3195455202886,169.4059010036892) translate(0 14.222222222222223)"/><use xlink:href="#m" transform="matrix(1,0,0,1,-1876.3195455202886,169.4059010036892) translate(98.5679012345679 14.222222222222223)"/></g><path d="M-1876.32 181.07h-117.64l-.82.07-.76.18-.73.3-.67.4-.6.52-.5.6-.4.66-.3.73-.2.76-.06.8v15.4h-2v-15.47l.08-1.05.26-1.07.42-1 .57-.94.72-.84.83-.7.94-.6 1.02-.4 1.06-.26 1.06-.1h117.72zm77.32-11.66h-2v-28.25h2z" stroke="#7b7d68" stroke-width=".05" fill="#7b7d68"/><path d="M-1799 141.17h-2v-1.02h2z" fill="#7b7d68"/><path d="M-1798.97 141.2h-2.06v-1.08h2.06zm-2-1.03v.98h1.94v-.98z" stroke="#7b7d68" stroke-width=".05" fill="#7b7d68"/><path d="M-2000 216.76l-4.63-14.26h9.27z" fill="#7b7d68"/><path d="M-2000 220l-6-18.5h12zm-3.26-16.5l3.26 10.03 3.26-10.03z" stroke="#7b7d68" stroke-width=".05" fill="#7b7d68"/><defs><path fill="#1b6a3a" d="M212-179c-10-28-35-45-73-45-59 0-87 40-87 99 0 60 29 101 89 101 43 0 62-24 78-52l27 14C228-24 195 4 139 4 59 4 22-46 18-125c-6-104 99-153 187-111 19 9 31 26 39 46" id="o"/><path fill="#1b6a3a" d="M100-194c62-1 85 37 85 99 1 63-27 99-86 99S16-35 15-95c0-66 28-99 85-99zM99-20c44 1 53-31 53-75 0-43-8-75-51-75s-53 32-53 75 10 74 51 75" id="p"/><path fill="#1b6a3a" d="M117-194c89-4 53 116 60 194h-32v-121c0-31-8-49-39-48C34-167 62-67 57 0H25l-1-190h30c1 10-1 24 2 32 11-22 29-35 61-36" id="q"/><path fill="#1b6a3a" d="M59-47c-2 24 18 29 38 22v24C64 9 27 4 27-40v-127H5v-23h24l9-43h21v43h35v23H59v120" id="r"/><path fill="#1b6a3a" d="M100-194c63 0 86 42 84 106H49c0 40 14 67 53 68 26 1 43-12 49-29l28 8c-11 28-37 45-77 45C44 4 14-33 15-96c1-61 26-98 85-98zm52 81c6-60-76-77-97-28-3 7-6 17-6 28h103" id="s"/><g id="a"><use transform="matrix(0.07469135802469125,0,0,0.07469135802469125,0,0)" xlink:href="#o"/><use transform="matrix(0.07469135802469125,0,0,0.07469135802469125,19.345061728395034,0)" xlink:href="#p"/><use transform="matrix(0.07469135802469125,0,0,0.07469135802469125,34.28333333333328,0)" xlink:href="#q"/><use transform="matrix(0.07469135802469125,0,0,0.07469135802469125,49.22160493827153,0)" xlink:href="#r"/><use transform="matrix(0.07469135802469125,0,0,0.07469135802469125,56.69074074074066,0)" xlink:href="#s"/><use transform="matrix(0.07469135802469125,0,0,0.07469135802469125,71.6290123456789,0)" xlink:href="#q"/><use transform="matrix(0.07469135802469125,0,0,0.07469135802469125,86.56728395061715,0)" xlink:href="#r"/></g><path fill="#1b6a3a" d="M85-194c31 0 48 13 60 33l-1-100h32l1 261h-30c-2-10 0-23-3-31C134-8 116 4 85 4 32 4 16-35 15-94c0-66 23-100 70-100zm9 24c-40 0-46 34-46 75 0 40 6 74 45 74 42 0 51-32 51-76 0-42-9-74-50-73" id="t"/><g id="b"><use transform="matrix(0.07469135802469125,0,0,0.07469135802469125,0,0)" xlink:href="#q"/><use transform="matrix(0.07469135802469125,0,0,0.07469135802469125,14.93827160493825,0)" xlink:href="#p"/><use transform="matrix(0.07469135802469125,0,0,0.07469135802469125,29.8765432098765,0)" xlink:href="#t"/><use transform="matrix(0.07469135802469125,0,0,0.07469135802469125,44.814814814814746,0)" xlink:href="#s"/></g><path fill="#fff" d="M115-194c55 1 70 41 70 98S169 2 115 4C84 4 66-9 55-30l1 105H24l-1-265h31l2 30c10-21 28-34 59-34zm-8 174c40 0 45-34 45-75s-6-73-45-74c-42 0-51 32-51 76 0 43 10 73 51 73" id="u"/><path fill="#fff" d="M114-163C36-179 61-72 57 0H25l-1-190h30c1 12-1 29 2 39 6-27 23-49 58-41v29" id="v"/><path fill="#fff" d="M100-194c62-1 85 37 85 99 1 63-27 99-86 99S16-35 15-95c0-66 28-99 85-99zM99-20c44 1 53-31 53-75 0-43-8-75-51-75s-53 32-53 75 10 74 51 75" id="w"/><path fill="#fff" d="M59-47c-2 24 18 29 38 22v24C64 9 27 4 27-40v-127H5v-23h24l9-43h21v43h35v23H59v120" id="x"/><path fill="#fff" d="M117-194c89-4 53 116 60 194h-32v-121c0-31-8-49-39-48C34-167 62-67 57 0H25l-1-190h30c1 10-1 24 2 32 11-22 29-35 61-36" id="y"/><g id="c"><use transform="matrix(0.05,0,0,0.05,0,0)" xlink:href="#u"/><use transform="matrix(0.05,0,0,0.05,10,0)" xlink:href="#v"/><use transform="matrix(0.05,0,0,0.05,15.949999999999998,0)" xlink:href="#w"/><use transform="matrix(0.05,0,0,0.05,25.950000000000003,0)" xlink:href="#x"/><use transform="matrix(0.05,0,0,0.05,30.950000000000003,0)" xlink:href="#w"/><use transform="matrix(0.05,0,0,0.05,40.95,0)" xlink:href="#y"/></g><path fill="#2e2f27" d="M135-143c-3-34-86-38-87 0 15 53 115 12 119 90S17 21 10-45l28-5c4 36 97 45 98 0-10-56-113-15-118-90-4-57 82-63 122-42 12 7 21 19 24 35" id="z"/><path fill="#2e2f27" d="M96-169c-40 0-48 33-48 73s9 75 48 75c24 0 41-14 43-38l32 2c-6 37-31 61-74 61-59 0-76-41-82-99-10-93 101-131 147-64 4 7 5 14 7 22l-32 3c-4-21-16-35-41-35" id="A"/><path fill="#2e2f27" d="M106-169C34-169 62-67 57 0H25v-261h32l-1 103c12-21 28-36 61-36 89 0 53 116 60 194h-32v-121c2-32-8-49-39-48" id="B"/><path fill="#2e2f27" d="M100-194c63 0 86 42 84 106H49c0 40 14 67 53 68 26 1 43-12 49-29l28 8c-11 28-37 45-77 45C44 4 14-33 15-96c1-61 26-98 85-98zm52 81c6-60-76-77-97-28-3 7-6 17-6 28h103" id="C"/><path fill="#2e2f27" d="M210-169c-67 3-38 105-44 169h-31v-121c0-29-5-50-35-48C34-165 62-65 56 0H25l-1-190h30c1 10-1 24 2 32 10-44 99-50 107 0 11-21 27-35 58-36 85-2 47 119 55 194h-31v-121c0-29-5-49-35-48" id="D"/><path fill="#2e2f27" d="M141-36C126-15 110 5 73 4 37 3 15-17 15-53c-1-64 63-63 125-63 3-35-9-54-41-54-24 1-41 7-42 31l-33-3c5-37 33-52 76-52 45 0 72 20 72 64v82c-1 20 7 32 28 27v20c-31 9-61-2-59-35zM48-53c0 20 12 33 32 33 41-3 63-29 60-74-43 2-92-5-92 41" id="E"/><g id="d"><use transform="matrix(0.05,0,0,0.05,0,0)" xlink:href="#z"/><use transform="matrix(0.05,0,0,0.05,9,0)" xlink:href="#A"/><use transform="matrix(0.05,0,0,0.05,18,0)" xlink:href="#B"/><use transform="matrix(0.05,0,0,0.05,28,0)" xlink:href="#C"/><use transform="matrix(0.05,0,0,0.05,38,0)" xlink:href="#D"/><use transform="matrix(0.05,0,0,0.05,52.95,0)" xlink:href="#E"/></g><path fill="#2e2f27" d="M205 0l-28-72H64L36 0H1l101-248h38L239 0h-34zm-38-99l-47-123c-12 45-31 82-46 123h93" id="F"/><use transform="matrix(0.05,0,0,0.05,0,0)" xlink:href="#F" id="e"/><path fill="#2e2f27" d="M160-131c35 5 61 23 61 61C221 17 115-2 30 0v-248c76 3 177-17 177 60 0 33-19 50-47 57zm-97-11c50-1 110 9 110-42 0-47-63-36-110-37v79zm0 115c55-2 124 14 124-45 0-56-70-42-124-44v89" id="G"/><use transform="matrix(0.05,0,0,0.05,0,0)" xlink:href="#G" id="f"/><path fill="#2e2f27" d="M212-179c-10-28-35-45-73-45-59 0-87 40-87 99 0 60 29 101 89 101 43 0 62-24 78-52l27 14C228-24 195 4 139 4 59 4 22-46 18-125c-6-104 99-153 187-111 19 9 31 26 39 46" id="H"/><use transform="matrix(0.05,0,0,0.05,0,0)" xlink:href="#H" id="g"/><g id="h"><use transform="matrix(0.07469135802469125,0,0,0.07469135802469125,0,0)" xlink:href="#q"/><use transform="matrix(0.07469135802469125,0,0,0.07469135802469125,14.93827160493825,0)" xlink:href="#p"/><use transform="matrix(0.07469135802469125,0,0,0.07469135802469125,29.8765432098765,0)" xlink:href="#t"/><use transform="matrix(0.07469135802469125,0,0,0.07469135802469125,44.814814814814746,0)" xlink:href="#s"/></g><path fill="#1b6a3a" d="M96-169c-40 0-48 33-48 73s9 75 48 75c24 0 41-14 43-38l32 2c-6 37-31 61-74 61-59 0-76-41-82-99-10-93 101-131 147-64 4 7 5 14 7 22l-32 3c-4-21-16-35-41-35" id="I"/><path fill="#1b6a3a" d="M24 0v-261h32V0H24" id="J"/><path fill="#1b6a3a" d="M141-36C126-15 110 5 73 4 37 3 15-17 15-53c-1-64 63-63 125-63 3-35-9-54-41-54-24 1-41 7-42 31l-33-3c5-37 33-52 76-52 45 0 72 20 72 64v82c-1 20 7 32 28 27v20c-31 9-61-2-59-35zM48-53c0 20 12 33 32 33 41-3 63-29 60-74-43 2-92-5-92 41" id="K"/><path fill="#1b6a3a" d="M135-143c-3-34-86-38-87 0 15 53 115 12 119 90S17 21 10-45l28-5c4 36 97 45 98 0-10-56-113-15-118-90-4-57 82-63 122-42 12 7 21 19 24 35" id="L"/><g id="i"><use transform="matrix(0.07469135802469125,0,0,0.07469135802469125,0,0)" xlink:href="#I"/><use transform="matrix(0.07469135802469125,0,0,0.07469135802469125,13.444444444444425,0)" xlink:href="#J"/><use transform="matrix(0.07469135802469125,0,0,0.07469135802469125,19.345061728395034,0)" xlink:href="#K"/><use transform="matrix(0.07469135802469125,0,0,0.07469135802469125,34.28333333333328,0)" xlink:href="#L"/><use transform="matrix(0.07469135802469125,0,0,0.07469135802469125,47.727777777777696,0)" xlink:href="#L"/></g><path fill="#1b6a3a" d="M205 0l-28-72H64L36 0H1l101-248h38L239 0h-34zm-38-99l-47-123c-12 45-31 82-46 123h93" id="M"/><use transform="matrix(0.07469135802469125,0,0,0.07469135802469125,0,0)" xlink:href="#M" id="j"/><path fill="#1b6a3a" d="M160-131c35 5 61 23 61 61C221 17 115-2 30 0v-248c76 3 177-17 177 60 0 33-19 50-47 57zm-97-11c50-1 110 9 110-42 0-47-63-36-110-37v79zm0 115c55-2 124 14 124-45 0-56-70-42-124-44v89" id="N"/><use transform="matrix(0.07469135802469125,0,0,0.07469135802469125,0,0)" xlink:href="#N" id="k"/><path fill="#2e2f27" d="M199 0l-22-63H83L61 0H9l90-248h61L250 0h-51zm-33-102l-36-108c-10 38-24 72-36 108h72" id="O"/><path fill="#2e2f27" d="M88-194c31-1 46 15 58 34l-1-101h50l1 261h-48c-2-10 0-23-3-31C134-8 116 4 84 4 32 4 16-41 15-95c0-56 19-97 73-99zm17 164c33 0 40-30 41-66 1-37-9-64-41-64s-38 30-39 65c0 43 13 65 39 65" id="P"/><g id="l"><use transform="matrix(0.04938271604938272,0,0,0.04938271604938272,0,0)" xlink:href="#O"/><use transform="matrix(0.04938271604938272,0,0,0.04938271604938272,12.790123456790125,0)" xlink:href="#P"/><use transform="matrix(0.04938271604938272,0,0,0.04938271604938272,23.60493827160494,0)" xlink:href="#P"/></g><path fill="#2e2f27" d="M137-138c1-29-70-34-71-4 15 46 118 7 119 86 1 83-164 76-172 9l43-7c4 19 20 25 44 25 33 8 57-30 24-41C81-84 22-81 20-136c-2-80 154-74 161-7" id="Q"/><path fill="#2e2f27" d="M190-63c-7 42-38 67-86 67-59 0-84-38-90-98-12-110 154-137 174-36l-49 2c-2-19-15-32-35-32-30 0-35 28-38 64-6 74 65 87 74 30" id="R"/><path fill="#2e2f27" d="M114-157C55-157 80-60 75 0H25v-261h50l-1 109c12-26 28-41 61-42 86-1 58 113 63 194h-50c-7-57 23-157-34-157" id="S"/><path fill="#2e2f27" d="M185-48c-13 30-37 53-82 52C43 2 14-33 14-96s30-98 90-98c62 0 83 45 84 108H66c0 31 8 55 39 56 18 0 30-7 34-22zm-45-69c5-46-57-63-70-21-2 6-4 13-4 21h74" id="T"/><path fill="#2e2f27" d="M220-157c-53 9-28 100-34 157h-49v-107c1-27-5-49-29-50C55-147 81-57 75 0H25l-1-190h47c2 12-1 28 3 38 10-53 101-56 108 0 13-22 24-43 59-42 82 1 51 116 57 194h-49v-107c-1-25-5-48-29-50" id="U"/><path fill="#2e2f27" d="M133-34C117-15 103 5 69 4 32 3 11-16 11-54c-1-60 55-63 116-61 1-26-3-47-28-47-18 1-26 9-28 27l-52-2c7-38 36-58 82-57s74 22 75 68l1 82c-1 14 12 18 25 15v27c-30 8-71 5-69-32zm-48 3c29 0 43-24 42-57-32 0-66-3-65 30 0 17 8 27 23 27" id="V"/><g id="m"><use transform="matrix(0.04938271604938272,0,0,0.04938271604938272,0,0)" xlink:href="#Q"/><use transform="matrix(0.04938271604938272,0,0,0.04938271604938272,9.876543209876544,0)" xlink:href="#R"/><use transform="matrix(0.04938271604938272,0,0,0.04938271604938272,19.75308641975309,0)" xlink:href="#S"/><use transform="matrix(0.04938271604938272,0,0,0.04938271604938272,30.567901234567906,0)" xlink:href="#T"/><use transform="matrix(0.04938271604938272,0,0,0.04938271604938272,40.44444444444445,0)" xlink:href="#U"/><use transform="matrix(0.04938271604938272,0,0,0.04938271604938272,56.24691358024692,0)" xlink:href="#V"/><use transform="matrix(0.04938271604938272,0,0,0.04938271604938272,66.12345679012347,0)" xlink:href="#Q"/></g><path fill="#2e2f27" d="M240-174c0 40-23 61-54 70L253 0h-59l-57-94H76V0H24v-248c93 4 217-23 216 74zM76-134c48-2 112 12 112-38 0-48-66-32-112-35v73" id="W"/><path fill="#2e2f27" d="M14-72v-43h91v43H14" id="X"/><path fill="#2e2f27" d="M135-150c-39-12-60 13-60 57V0H25l-1-190h47c2 13-1 29 3 40 6-28 27-53 61-41v41" id="Y"/><path fill="#2e2f27" d="M135-194c87-1 58 113 63 194h-50c-7-57 23-157-34-157-59 0-34 97-39 157H25l-1-190h47c2 12-1 28 3 38 12-26 28-41 61-42" id="Z"/><path fill="#2e2f27" d="M195-6C206 82 75 100 31 46c-4-6-6-13-8-21l49-6c3 16 16 24 34 25 40 0 42-37 40-79-11 22-30 35-61 35-53 0-70-43-70-97 0-56 18-96 73-97 30 0 46 14 59 34l2-30h47zm-90-29c32 0 41-27 41-63 0-35-9-62-40-62-32 0-39 29-40 63 0 36 9 62 39 62" id="aa"/><g id="n"><use transform="matrix(0.04938271604938272,0,0,0.04938271604938272,0,0)" xlink:href="#W"/><use transform="matrix(0.04938271604938272,0,0,0.04938271604938272,12.790123456790125,0)" xlink:href="#T"/><use transform="matrix(0.04938271604938272,0,0,0.04938271604938272,22.66666666666667,0)" xlink:href="#X"/><use transform="matrix(0.04938271604938272,0,0,0.04938271604938272,28.54320987654322,0)" xlink:href="#V"/><use transform="matrix(0.04938271604938272,0,0,0.04938271604938272,38.41975308641976,0)" xlink:href="#Y"/><use transform="matrix(0.04938271604938272,0,0,0.04938271604938272,45.33333333333334,0)" xlink:href="#Y"/><use transform="matrix(0.04938271604938272,0,0,0.04938271604938272,52.24691358024693,0)" xlink:href="#V"/><use transform="matrix(0.04938271604938272,0,0,0.04938271604938272,62.12345679012347,0)" xlink:href="#Z"/><use transform="matrix(0.04938271604938272,0,0,0.04938271604938272,72.93827160493828,0)" xlink:href="#aa"/><use transform="matrix(0.04938271604938272,0,0,0.04938271604938272,83.75308641975309,0)" xlink:href="#T"/></g></defs></g></svg>