<svg xmlns="http://www.w3.org/2000/svg" xmlns:xlink="http://www.w3.org/1999/xlink" xmlns:lucid="lucid" width="560" height="400"><g transform="translate(-100.00000000000003 -60)" lucid:page-tab-id="0_0"><path d="M0 0h1870.4v1323.2H0z" fill="#fff"/><path d="M610 80c16.57 0 30 13.43 30 30v300c0 16.57-13.43 30-30 30H150c-16.57 0-30-13.43-30-30V110c0-16.57 13.43-30 30-30z" stroke="#e5e5e5" stroke-width="2" fill="#e5e5e5"/><path d="M572.5 140c16.57 0 30 13.43 30 30v180c0 16.57-13.43 30-30 30H430c-16.57 0-30-13.43-30-30V170c0-16.57 13.43-30 30-30z" stroke="#1a7db6" stroke-width="2" fill="#1a7db6"/><path d="M422.5 140h180v40h-180z" stroke="#000" stroke-opacity="0" stroke-width="2" fill="#fff" fill-opacity="0"/><use xlink:href="#a" transform="matrix(1,0,0,1,427.5,145) translate(0 18.15)"/><path d="M140 80h140v53.2H140z" stroke="#000" stroke-opacity="0" stroke-width="2" fill="#fff" fill-opacity="0"/><use xlink:href="#b" transform="matrix(1,0,0,1,145.00000000000003,85) translate(0 25.4)"/><path d="M440 180h122.5v53.4H440z" stroke="#000" stroke-width="2" fill="#fff"/><use xlink:href="#c" transform="matrix(1,0,0,1,445,185) translate(22.5 25.4)"/><path d="M440 240h122.5v53.4H440z" stroke="#000" stroke-width="2" fill="#fff"/><use xlink:href="#c" transform="matrix(1,0,0,1,445,245) translate(22.5 25.4)"/><path d="M440 300h122.5v53.4H440z" stroke="#000" stroke-width="2" fill="#fff"/><use xlink:href="#c" transform="matrix(1,0,0,1,445,305) translate(22.5 25.4)"/><path d="M332.5 140c16.57 0 30 13.43 30 30v180c0 16.57-13.43 30-30 30H190c-16.57 0-30-13.43-30-30V170c0-16.57 13.43-30 30-30z" stroke="#1a7db6" stroke-width="2" fill="#1a7db6"/><path d="M182.5 140h180v40h-180z" stroke="#000" stroke-opacity="0" stroke-width="2" fill="#fff" fill-opacity="0"/><use xlink:href="#a" transform="matrix(1,0,0,1,187.50000000000003,145) translate(0 18.15)"/><path d="M200 180h122.5v53.4H200z" stroke="#000" stroke-width="2" fill="#fff"/><use xlink:href="#c" transform="matrix(1,0,0,1,205,185) translate(22.5 25.4)"/><path d="M200 240h122.5v53.4H200z" stroke="#000" stroke-width="2" fill="#fff"/><use xlink:href="#c" transform="matrix(1,0,0,1,205,245) translate(22.5 25.4)"/><path d="M200 300h122.5v53.4H200z" stroke="#000" stroke-width="2" fill="#fff"/><use xlink:href="#c" transform="matrix(1,0,0,1,205,305) translate(22.5 25.4)"/><defs><path fill="#fff" d="M199 0l-22-63H83L61 0H9l90-248h61L250 0h-51zm-33-102l-36-108c-10 38-24 72-36 108h72" id="d"/><path fill="#fff" d="M135-194c53 0 70 44 70 98 0 56-19 98-73 100-31 1-45-17-59-34 3 33 2 69 2 105H25l-1-265h48c2 10 0 23 3 31 11-24 29-35 60-35zM114-30c33 0 39-31 40-66 0-38-9-64-40-64-56 0-55 130 0 130" id="e"/><path fill="#fff" d="M25 0v-261h50V0H25" id="f"/><path fill="#fff" d="M25-224v-37h50v37H25zM25 0v-190h50V0H25" id="g"/><path fill="#fff" d="M190-63c-7 42-38 67-86 67-59 0-84-38-90-98-12-110 154-137 174-36l-49 2c-2-19-15-32-35-32-30 0-35 28-38 64-6 74 65 87 74 30" id="h"/><path fill="#fff" d="M133-34C117-15 103 5 69 4 32 3 11-16 11-54c-1-60 55-63 116-61 1-26-3-47-28-47-18 1-26 9-28 27l-52-2c7-38 36-58 82-57s74 22 75 68l1 82c-1 14 12 18 25 15v27c-30 8-71 5-69-32zm-48 3c29 0 43-24 42-57-32 0-66-3-65 30 0 17 8 27 23 27" id="i"/><path fill="#fff" d="M115-3C79 11 28 4 28-45v-112H4v-33h27l15-45h31v45h36v33H77v99c-1 23 16 31 38 25v30" id="j"/><path fill="#fff" d="M110-194c64 0 96 36 96 99 0 64-35 99-97 99-61 0-95-36-95-99 0-62 34-99 96-99zm-1 164c35 0 45-28 45-65 0-40-10-65-43-65-34 0-45 26-45 65 0 36 10 65 43 65" id="k"/><path fill="#fff" d="M135-194c87-1 58 113 63 194h-50c-7-57 23-157-34-157-59 0-34 97-39 157H25l-1-190h47c2 12-1 28 3 38 12-26 28-41 61-42" id="l"/><g id="a"><use transform="matrix(0.05,0,0,0.05,0,0)" xlink:href="#d"/><use transform="matrix(0.05,0,0,0.05,12.950000000000001,0)" xlink:href="#e"/><use transform="matrix(0.05,0,0,0.05,23.900000000000002,0)" xlink:href="#e"/><use transform="matrix(0.05,0,0,0.05,34.85,0)" xlink:href="#f"/><use transform="matrix(0.05,0,0,0.05,39.85,0)" xlink:href="#g"/><use transform="matrix(0.05,0,0,0.05,44.85,0)" xlink:href="#h"/><use transform="matrix(0.05,0,0,0.05,54.85,0)" xlink:href="#i"/><use transform="matrix(0.05,0,0,0.05,64.85,0)" xlink:href="#j"/><use transform="matrix(0.05,0,0,0.05,70.8,0)" xlink:href="#g"/><use transform="matrix(0.05,0,0,0.05,75.8,0)" xlink:href="#k"/><use transform="matrix(0.05,0,0,0.05,86.75,0)" xlink:href="#l"/></g><path fill="#fff" d="M136-208V0H84v-208H4v-40h212v40h-80" id="m"/><path fill="#fff" d="M185-48c-13 30-37 53-82 52C43 2 14-33 14-96s30-98 90-98c62 0 83 45 84 108H66c0 31 8 55 39 56 18 0 30-7 34-22zm-45-69c5-46-57-63-70-21-2 6-4 13-4 21h74" id="n"/><g id="b"><use transform="matrix(0.05,0,0,0.05,0,0)" xlink:href="#m"/><use transform="matrix(0.05,0,0,0.05,9.600000000000001,0)" xlink:href="#n"/><use transform="matrix(0.05,0,0,0.05,19.6,0)" xlink:href="#l"/><use transform="matrix(0.05,0,0,0.05,30.55,0)" xlink:href="#i"/><use transform="matrix(0.05,0,0,0.05,40.550000000000004,0)" xlink:href="#l"/><use transform="matrix(0.05,0,0,0.05,51.5,0)" xlink:href="#j"/></g><path d="M33 0v-248h34V0H33" id="o"/><path d="M117-194c89-4 53 116 60 194h-32v-121c0-31-8-49-39-48C34-167 62-67 57 0H25l-1-190h30c1 10-1 24 2 32 11-22 29-35 61-36" id="p"/><path d="M135-143c-3-34-86-38-87 0 15 53 115 12 119 90S17 21 10-45l28-5c4 36 97 45 98 0-10-56-113-15-118-90-4-57 82-63 122-42 12 7 21 19 24 35" id="q"/><path d="M59-47c-2 24 18 29 38 22v24C64 9 27 4 27-40v-127H5v-23h24l9-43h21v43h35v23H59v120" id="r"/><path d="M141-36C126-15 110 5 73 4 37 3 15-17 15-53c-1-64 63-63 125-63 3-35-9-54-41-54-24 1-41 7-42 31l-33-3c5-37 33-52 76-52 45 0 72 20 72 64v82c-1 20 7 32 28 27v20c-31 9-61-2-59-35zM48-53c0 20 12 33 32 33 41-3 63-29 60-74-43 2-92-5-92 41" id="s"/><path d="M96-169c-40 0-48 33-48 73s9 75 48 75c24 0 41-14 43-38l32 2c-6 37-31 61-74 61-59 0-76-41-82-99-10-93 101-131 147-64 4 7 5 14 7 22l-32 3c-4-21-16-35-41-35" id="t"/><path d="M100-194c63 0 86 42 84 106H49c0 40 14 67 53 68 26 1 43-12 49-29l28 8c-11 28-37 45-77 45C44 4 14-33 15-96c1-61 26-98 85-98zm52 81c6-60-76-77-97-28-3 7-6 17-6 28h103" id="u"/><g id="c"><use transform="matrix(0.05,0,0,0.05,0,0)" xlink:href="#o"/><use transform="matrix(0.05,0,0,0.05,5,0)" xlink:href="#p"/><use transform="matrix(0.05,0,0,0.05,15,0)" xlink:href="#q"/><use transform="matrix(0.05,0,0,0.05,24,0)" xlink:href="#r"/><use transform="matrix(0.05,0,0,0.05,29,0)" xlink:href="#s"/><use transform="matrix(0.05,0,0,0.05,39,0)" xlink:href="#p"/><use transform="matrix(0.05,0,0,0.05,49,0)" xlink:href="#t"/><use transform="matrix(0.05,0,0,0.05,58,0)" xlink:href="#u"/></g></defs></g></svg>