<svg xmlns="http://www.w3.org/2000/svg" xmlns:xlink="http://www.w3.org/1999/xlink" xmlns:lucid="lucid" width="1520" height="312.76"><g transform="translate(1780 300)" lucid:page-tab-id="0_0"><path d="M-2000-500H0V0h-2000z" fill="#fff"/><path d="M-1760-274a6 6 0 0 1 6-6h684.67a6 6 0 0 1 6 6v260.4a6 6 0 0 1-6 6H-1754a6 6 0 0 1-6-6z" stroke="#000" stroke-opacity="0" stroke-width="3" fill="#fff" fill-opacity="0"/><use xlink:href="#a" transform="matrix(1,0,0,1,-1755,-275) translate(0 18.901041666666664)"/><use xlink:href="#b" transform="matrix(1,0,0,1,-1755,-275) translate(0 37.64236111111111)"/><use xlink:href="#c" transform="matrix(1,0,0,1,-1755,-275) translate(42.67361111111111 37.64236111111111)"/><use xlink:href="#d" transform="matrix(1,0,0,1,-1755,-275) translate(149.35763888888886 37.64236111111111)"/><use xlink:href="#e" transform="matrix(1,0,0,1,-1755,-275) translate(0 56.38368055555555)"/><use xlink:href="#f" transform="matrix(1,0,0,1,-1755,-275) translate(85.3472222222222 56.38368055555555)"/><use xlink:href="#g" transform="matrix(1,0,0,1,-1755,-275) translate(181.36284722222217 56.38368055555555)"/><use xlink:href="#h" transform="matrix(1,0,0,1,-1755,-275) translate(266.71006944444434 56.38368055555555)"/><use xlink:href="#e" transform="matrix(1,0,0,1,-1755,-275) translate(0 75.125)"/><use xlink:href="#i" transform="matrix(1,0,0,1,-1755,-275) translate(85.3472222222222 75.125)"/><use xlink:href="#j" transform="matrix(1,0,0,1,-1755,-275) translate(234.70486111111103 75.125)"/><use xlink:href="#k" transform="matrix(1,0,0,1,-1755,-275) translate(0 93.86631944444443)"/><use xlink:href="#l" transform="matrix(1,0,0,1,-1755,-275) translate(128.0208333333333 93.86631944444443)"/><use xlink:href="#m" transform="matrix(1,0,0,1,-1755,-275) translate(170.6944444444444 93.86631944444443)"/><use xlink:href="#n" transform="matrix(1,0,0,1,-1755,-275) translate(309.38368055555543 93.86631944444443)"/><use xlink:href="#o" transform="matrix(1,0,0,1,-1755,-275) translate(330.720486111111 93.86631944444443)"/><use xlink:href="#p" transform="matrix(1,0,0,1,-1755,-275) translate(405.39930555555543 93.86631944444443)"/><use xlink:href="#q" transform="matrix(1,0,0,1,-1755,-275) translate(0 112.60763888888889)"/><use xlink:href="#r" transform="matrix(1,0,0,1,-1755,-275) translate(128.0208333333333 112.60763888888889)"/><use xlink:href="#s" transform="matrix(1,0,0,1,-1755,-275) translate(224.03645833333326 112.60763888888889)"/><use xlink:href="#t" transform="matrix(1,0,0,1,-1755,-275) translate(266.71006944444434 112.60763888888889)"/><use xlink:href="#u" transform="matrix(1,0,0,1,-1755,-275) translate(298.71527777777766 112.60763888888889)"/><use xlink:href="#v" transform="matrix(1,0,0,1,-1755,-275) translate(394.7309027777776 112.60763888888889)"/><use xlink:href="#w" transform="matrix(1,0,0,1,-1755,-275) translate(448.0729166666665 112.60763888888889)"/><use xlink:href="#x" transform="matrix(1,0,0,1,-1755,-275) translate(490.7465277777776 112.60763888888889)"/><use xlink:href="#y" transform="matrix(1,0,0,1,-1755,-275) translate(576.0937499999998 112.60763888888889)"/><use xlink:href="#z" transform="matrix(1,0,0,1,-1755,-275) translate(0 131.34895833333331)"/><use xlink:href="#A" transform="matrix(1,0,0,1,-1755,-275) translate(138.68923611111106 131.34895833333331)"/><use xlink:href="#B" transform="matrix(1,0,0,1,-1755,-275) translate(202.69965277777771 131.34895833333331)"/><use xlink:href="#w" transform="matrix(1,0,0,1,-1755,-275) translate(298.7152777777777 131.34895833333331)"/><use xlink:href="#C" transform="matrix(1,0,0,1,-1755,-275) translate(341.3888888888888 131.34895833333331)"/><use xlink:href="#D" transform="matrix(1,0,0,1,-1755,-275) translate(437.4045138888888 131.34895833333331)"/><use xlink:href="#e" transform="matrix(1,0,0,1,-1755,-275) translate(0 150.09027777777774)"/><use xlink:href="#E" transform="matrix(1,0,0,1,-1755,-275) translate(85.3472222222222 150.09027777777774)"/><use xlink:href="#F" transform="matrix(1,0,0,1,-1755,-275) translate(0 168.8315972222222)"/><use xlink:href="#G" transform="matrix(1,0,0,1,-1755,-275) translate(85.3472222222222 168.8315972222222)"/><use xlink:href="#H" transform="matrix(1,0,0,1,-1755,-275) translate(341.3888888888888 168.8315972222222)"/><use xlink:href="#q" transform="matrix(1,0,0,1,-1755,-275) translate(0 187.58159722222223)"/><use xlink:href="#I" transform="matrix(1,0,0,1,-1755,-275) translate(128.0208333333333 187.58159722222223)"/><use xlink:href="#J" transform="matrix(1,0,0,1,-1755,-275) translate(181.36284722222217 187.58159722222223)"/><use xlink:href="#q" transform="matrix(1,0,0,1,-1755,-275) translate(0 206.33159722222223)"/><use xlink:href="#K" transform="matrix(1,0,0,1,-1755,-275) translate(128.0208333333333 206.33159722222223)"/><use xlink:href="#L" transform="matrix(1,0,0,1,-1755,-275) translate(181.36284722222217 206.33159722222223)"/><use xlink:href="#F" transform="matrix(1,0,0,1,-1755,-275) translate(0 225.07291666666666)"/><use xlink:href="#M" transform="matrix(1,0,0,1,-1755,-275) translate(85.3472222222222 225.07291666666666)"/><use xlink:href="#b" transform="matrix(1,0,0,1,-1755,-275) translate(0 243.81423611111111)"/><use xlink:href="#N" transform="matrix(1,0,0,1,-1755,-275) translate(42.67361111111111 243.81423611111111)"/><use xlink:href="#O" transform="matrix(1,0,0,1,-1755,-275) translate(0 262.5555555555556)"/><path d="M-1000-274a6 6 0 0 1 6-6h708a6 6 0 0 1 6 6v110.46a6 6 0 0 1-6 6h-708a6 6 0 0 1-6-6z" stroke="#000" stroke-opacity="0" stroke-width="3" fill="#fff" fill-opacity="0"/><g><use xlink:href="#P" transform="matrix(1,0,0,1,-995,-275) translate(0 25.385416666666664)"/><use xlink:href="#Q" transform="matrix(1,0,0,1,-995,-275) translate(0 44.12673611111111)"/><use xlink:href="#R" transform="matrix(1,0,0,1,-995,-275) translate(42.67361111111111 44.12673611111111)"/><use xlink:href="#S" transform="matrix(1,0,0,1,-995,-275) translate(117.35243055555554 44.12673611111111)"/><use xlink:href="#T" transform="matrix(1,0,0,1,-995,-275) translate(202.69965277777774 44.12673611111111)"/><use xlink:href="#U" transform="matrix(1,0,0,1,-995,-275) translate(309.3836805555555 44.12673611111111)"/><use xlink:href="#V" transform="matrix(1,0,0,1,-995,-275) translate(362.72569444444434 44.12673611111111)"/><use xlink:href="#W" transform="matrix(1,0,0,1,-995,-275) translate(416.06770833333326 44.12673611111111)"/><use xlink:href="#F" transform="matrix(1,0,0,1,-995,-275) translate(0 62.86805555555555)"/><use xlink:href="#X" transform="matrix(1,0,0,1,-995,-275) translate(85.3472222222222 62.86805555555555)"/><use xlink:href="#Y" transform="matrix(1,0,0,1,-995,-275) translate(650.7725694444445 62.86805555555555)"/><use xlink:href="#Q" transform="matrix(1,0,0,1,-995,-275) translate(0 81.61805555555554)"/><use xlink:href="#Z" transform="matrix(1,0,0,1,-995,-275) translate(42.67361111111111 81.61805555555554)"/><use xlink:href="#aa" transform="matrix(1,0,0,1,-995,-275) translate(234.70486111111103 81.61805555555554)"/><use xlink:href="#ab" transform="matrix(1,0,0,1,-995,-275) translate(0 100.359375)"/></g><defs><path fill="#333" d="M677 91c1 136 41 195 171 195h213v139H796c-186-8-294-116-294-303v-351c-3-164-120-222-275-232v-137c155-10 275-69 275-231v-352c6-189 106-303 294-303h265v139H848c-126-3-171 67-171 195v346c-5 158-108 234-231 274 128 36 231 115 231 274V91" id="ac"/><use transform="matrix(0.008680555555555554,0,0,0.008680555555555554,0,0)" xlink:href="#ac" id="a"/><path fill="#333" d="M908-845H766l-40-639h224zm-449 0H318l-41-639h224" id="ad"/><path fill="#333" d="M839-1335c-182-6-269 67-259 253h491v142H580V0H400v-940H138v-142h262c-15-293 132-408 418-402 94 2 200 7 281 21v145c-75-10-177-14-260-17" id="ae"/><path fill="#333" d="M745-142h380V0H143v-142h422v-798H246v-142h499v940zM545-1292v-192h200v192H545" id="af"/><path fill="#333" d="M617-1102c355 0 481 238 477 599H322c5 222 84 388 301 388 144 0 244-59 284-166l158 45C1002-72 854 20 623 20c-342 0-490-220-490-568 0-346 151-554 484-554zm291 461c-18-192-90-328-289-328-194 0-287 128-295 328h584" id="ag"/><path fill="#333" d="M736-142h380V0H134v-142h422v-1200H267v-142h469v1342" id="ah"/><path fill="#333" d="M865-914c-3-187-2-380-2-570h180v1261c0 76 1 155 6 223H877c-8-49-9-116-10-174h-5C801-44 708 26 530 26c-135 0-234-46-297-139s-95-232-95-419c0-377 131-566 392-566 176 0 271 63 335 184zm-286-51c-222 0-255 197-255 427 0 229 31 425 253 425 237 0 286-195 286-441 0-238-52-411-284-411" id="ai"/><path fill="#333" d="M873-819c-18-114-119-146-250-146-163 0-245 50-245 151 0 151 170 148 294 185 182 54 388 94 388 320 0 240-189 325-439 329-245 4-410-69-454-268l159-31c24 133 136 168 295 165 144-2 270-31 270-171 0-164-195-160-331-202-167-52-350-87-350-299 0-218 173-315 413-313 220 2 373 77 412 260" id="aj"/><path fill="#333" d="M496 0v-299h235V0H496zm0-783v-299h235v299H496" id="ak"/><g id="c"><use transform="matrix(0.008680555555555554,0,0,0.008680555555555554,0,0)" xlink:href="#ad"/><use transform="matrix(0.008680555555555554,0,0,0.008680555555555554,10.668402777777777,0)" xlink:href="#ae"/><use transform="matrix(0.008680555555555554,0,0,0.008680555555555554,21.336805555555554,0)" xlink:href="#af"/><use transform="matrix(0.008680555555555554,0,0,0.008680555555555554,32.00520833333333,0)" xlink:href="#ag"/><use transform="matrix(0.008680555555555554,0,0,0.008680555555555554,42.67361111111111,0)" xlink:href="#ah"/><use transform="matrix(0.008680555555555554,0,0,0.008680555555555554,53.342013888888886,0)" xlink:href="#ai"/><use transform="matrix(0.008680555555555554,0,0,0.008680555555555554,64.01041666666666,0)" xlink:href="#aj"/><use transform="matrix(0.008680555555555554,0,0,0.008680555555555554,74.67881944444443,0)" xlink:href="#ad"/><use transform="matrix(0.008680555555555554,0,0,0.008680555555555554,85.3472222222222,0)" xlink:href="#ak"/></g><use transform="matrix(0.008680555555555554,0,0,0.008680555555555554,0,0)" xlink:href="#ac" id="d"/><path fill="#333" d="M682 16c-209 0-323-80-324-285v-671H190v-142h170l58-282h120v282h432v142H538v652c2 114 60 155 182 155 106 0 209-16 297-34v137C921-4 806 16 682 16" id="al"/><g id="f"><use transform="matrix(0.008680555555555554,0,0,0.008680555555555554,0,0)" xlink:href="#ad"/><use transform="matrix(0.008680555555555554,0,0,0.008680555555555554,10.668402777777777,0)" xlink:href="#al"/><use transform="matrix(0.008680555555555554,0,0,0.008680555555555554,21.336805555555554,0)" xlink:href="#af"/><use transform="matrix(0.008680555555555554,0,0,0.008680555555555554,32.00520833333333,0)" xlink:href="#al"/><use transform="matrix(0.008680555555555554,0,0,0.008680555555555554,42.67361111111111,0)" xlink:href="#ah"/><use transform="matrix(0.008680555555555554,0,0,0.008680555555555554,53.342013888888886,0)" xlink:href="#ag"/><use transform="matrix(0.008680555555555554,0,0,0.008680555555555554,64.01041666666666,0)" xlink:href="#ad"/><use transform="matrix(0.008680555555555554,0,0,0.008680555555555554,74.67881944444443,0)" xlink:href="#ak"/></g><path fill="#333" d="M285-1169c8 382 2 780 4 1169H129v-1349h237c86 239 188 461 253 720 69-258 169-481 255-720h225V0H937c2-390-5-788 6-1169-75 255-170 488-259 729H547c-90-240-185-475-262-729" id="am"/><path fill="#333" d="M839-1102c70 0 148 7 206 17v167c-112-18-268-36-363 15-129 69-208 203-208 395V0H294c-10-367 32-789-52-1082h171c21 75 41 161 48 250h5c67-152 152-270 373-270" id="an"/><path fill="#333" d="M631 20c-350 0-501-215-501-562 0-355 162-560 502-560 250 0 399 118 446 323l-192 14c-23-124-109-196-262-196-242 0-305 171-305 415 1 245 61 427 304 427 151 0 248-77 267-215l190 12C1039-107 883 20 631 20" id="ao"/><g id="g"><use transform="matrix(0.008680555555555554,0,0,0.008680555555555554,0,0)" xlink:href="#ad"/><use transform="matrix(0.008680555555555554,0,0,0.008680555555555554,10.668402777777777,0)" xlink:href="#am"/><use transform="matrix(0.008680555555555554,0,0,0.008680555555555554,21.336805555555554,0)" xlink:href="#ag"/><use transform="matrix(0.008680555555555554,0,0,0.008680555555555554,32.00520833333333,0)" xlink:href="#al"/><use transform="matrix(0.008680555555555554,0,0,0.008680555555555554,42.67361111111111,0)" xlink:href="#an"/><use transform="matrix(0.008680555555555554,0,0,0.008680555555555554,53.342013888888886,0)" xlink:href="#af"/><use transform="matrix(0.008680555555555554,0,0,0.008680555555555554,64.01041666666666,0)" xlink:href="#ao"/></g><path fill="#333" d="M698-1104c312 3 392 244 392 558 0 315-82 566-392 566-169 0-277-65-331-184h-5c8 188 2 394 4 589H185V-858c0-76-1-156-6-224h175c6 52 9 120 10 178h4c58-122 150-202 330-200zm-49 991c225 0 255-203 255-433 0-225-32-419-253-419-236 0-285 192-285 441 0 237 53 411 283 411" id="ap"/><path fill="#333" d="M1000-272c3 95 12 159 101 161 21 0 41-3 59-7V-6c-44 10-86 16-139 16-141 2-191-84-197-217h-6C748-76 648 20 446 20c-207 0-318-120-318-322 0-266 194-348 454-354l236-4c12-191-40-305-222-305-140 0-220 47-232 172l-188-17c33-204 181-292 423-292 255 0 401 118 401 364v466zm-683-27c0 109 63 184 175 182 166-3 259-96 306-217 24-65 20-120 20-200-232 7-501-28-501 235" id="aq"/><path fill="#333" d="M259 363l169-662h265L382 363H259" id="ar"/><g id="h"><use transform="matrix(0.008680555555555554,0,0,0.008680555555555554,0,0)" xlink:href="#aj"/><use transform="matrix(0.008680555555555554,0,0,0.008680555555555554,10.668402777777777,0)" xlink:href="#ap"/><use transform="matrix(0.008680555555555554,0,0,0.008680555555555554,21.336805555555554,0)" xlink:href="#aq"/><use transform="matrix(0.008680555555555554,0,0,0.008680555555555554,32.00520833333333,0)" xlink:href="#ao"/><use transform="matrix(0.008680555555555554,0,0,0.008680555555555554,42.67361111111111,0)" xlink:href="#ag"/><use transform="matrix(0.008680555555555554,0,0,0.008680555555555554,53.342013888888886,0)" xlink:href="#ad"/><use transform="matrix(0.008680555555555554,0,0,0.008680555555555554,64.01041666666666,0)" xlink:href="#ar"/></g><path fill="#333" d="M1048-32c-2 300-135 456-433 456-222-1-358-88-400-267l184-25c22 99 100 157 222 156 184-2 248-125 248-315 0-64 3-133-2-194C807-100 706-13 524-12c-306 0-381-228-381-537 0-318 85-550 400-550 164 0 271 83 325 202h3c1-60 3-134 12-185h171c-13 339-4 702-6 1050zM585-145c210-8 284-178 284-406 0-192-52-331-177-392-33-16-69-22-104-22-223 2-259 184-259 414 0 229 31 415 256 406" id="as"/><path fill="#333" d="M648-963c-190 6-283 138-283 336V0H185v-1484h181c-2 197 6 404-9 587h3c62-120 159-205 339-205 242 0 351 135 350 381V0H868v-695c1-168-57-273-220-268" id="at"/><g id="i"><use transform="matrix(0.008680555555555554,0,0,0.008680555555555554,0,0)" xlink:href="#ad"/><use transform="matrix(0.008680555555555554,0,0,0.008680555555555554,10.668402777777777,0)" xlink:href="#ap"/><use transform="matrix(0.008680555555555554,0,0,0.008680555555555554,21.336805555555554,0)" xlink:href="#aq"/><use transform="matrix(0.008680555555555554,0,0,0.008680555555555554,32.00520833333333,0)" xlink:href="#an"/><use transform="matrix(0.008680555555555554,0,0,0.008680555555555554,42.67361111111111,0)" xlink:href="#aq"/><use transform="matrix(0.008680555555555554,0,0,0.008680555555555554,53.342013888888886,0)" xlink:href="#as"/><use transform="matrix(0.008680555555555554,0,0,0.008680555555555554,64.01041666666666,0)" xlink:href="#an"/><use transform="matrix(0.008680555555555554,0,0,0.008680555555555554,74.67881944444443,0)" xlink:href="#aq"/><use transform="matrix(0.008680555555555554,0,0,0.008680555555555554,85.3472222222222,0)" xlink:href="#ap"/><use transform="matrix(0.008680555555555554,0,0,0.008680555555555554,96.01562499999997,0)" xlink:href="#at"/><use transform="matrix(0.008680555555555554,0,0,0.008680555555555554,106.68402777777774,0)" xlink:href="#aj"/><use transform="matrix(0.008680555555555554,0,0,0.008680555555555554,117.35243055555551,0)" xlink:href="#ad"/><use transform="matrix(0.008680555555555554,0,0,0.008680555555555554,128.0208333333333,0)" xlink:href="#ak"/></g><path fill="#333" d="M410 425v-1909h547v139H590V286h367v139H410" id="au"/><use transform="matrix(0.008680555555555554,0,0,0.008680555555555554,0,0)" xlink:href="#au" id="j"/><path fill="#333" d="M202-1349h823v156H709v1037h316V0H202v-156h316v-1037H202v-156" id="av"/><path fill="#333" d="M706-1102c241 0 344 136 343 381V0H868v-695c1-168-57-273-220-268-190 6-283 138-283 336V0H185c-3-360 6-732-6-1082h170c4 54 7 126 8 185h3c63-121 164-204 346-205" id="aw"/><g id="l"><use transform="matrix(0.008680555555555554,0,0,0.008680555555555554,0,0)" xlink:href="#ad"/><use transform="matrix(0.008680555555555554,0,0,0.008680555555555554,10.668402777777777,0)" xlink:href="#av"/><use transform="matrix(0.008680555555555554,0,0,0.008680555555555554,21.336805555555554,0)" xlink:href="#aw"/></g><path fill="#333" d="M904-1102c199 0 220 177 220 381V0H956v-686c-3-114 0-215-60-264-70-33-125-4-158 71-26 56-39 140-39 252V0H531v-686c-3-114-1-215-61-264-78-41-136 24-157 84-24 69-39 159-39 259V0H105c-3-360 6-732-6-1082h149c6 50 3 123 8 175 36-100 83-195 216-195 135 0 166 79 196 196 42-105 93-196 236-196" id="ax"/><g id="m"><use transform="matrix(0.008680555555555554,0,0,0.008680555555555554,0,0)" xlink:href="#ax"/><use transform="matrix(0.008680555555555554,0,0,0.008680555555555554,10.668402777777777,0)" xlink:href="#aq"/><use transform="matrix(0.008680555555555554,0,0,0.008680555555555554,21.336805555555554,0)" xlink:href="#al"/><use transform="matrix(0.008680555555555554,0,0,0.008680555555555554,32.00520833333333,0)" xlink:href="#at"/><use transform="matrix(0.008680555555555554,0,0,0.008680555555555554,42.67361111111111,0)" xlink:href="#ag"/><use transform="matrix(0.008680555555555554,0,0,0.008680555555555554,53.342013888888886,0)" xlink:href="#ax"/><use transform="matrix(0.008680555555555554,0,0,0.008680555555555554,64.01041666666666,0)" xlink:href="#aq"/><use transform="matrix(0.008680555555555554,0,0,0.008680555555555554,74.67881944444443,0)" xlink:href="#al"/><use transform="matrix(0.008680555555555554,0,0,0.008680555555555554,85.3472222222222,0)" xlink:href="#af"/><use transform="matrix(0.008680555555555554,0,0,0.008680555555555554,96.01562499999997,0)" xlink:href="#ao"/><use transform="matrix(0.008680555555555554,0,0,0.008680555555555554,106.68402777777774,0)" xlink:href="#aj"/><use transform="matrix(0.008680555555555554,0,0,0.008680555555555554,117.35243055555551,0)" xlink:href="#ar"/></g><use transform="matrix(0.008680555555555554,0,0,0.008680555555555554,0,0)" xlink:href="#aq" id="n"/><g id="o"><use transform="matrix(0.008680555555555554,0,0,0.008680555555555554,0,0)" xlink:href="#ax"/><use transform="matrix(0.008680555555555554,0,0,0.008680555555555554,10.668402777777777,0)" xlink:href="#ag"/><use transform="matrix(0.008680555555555554,0,0,0.008680555555555554,21.336805555555554,0)" xlink:href="#al"/><use transform="matrix(0.008680555555555554,0,0,0.008680555555555554,32.00520833333333,0)" xlink:href="#an"/><use transform="matrix(0.008680555555555554,0,0,0.008680555555555554,42.67361111111111,0)" xlink:href="#af"/><use transform="matrix(0.008680555555555554,0,0,0.008680555555555554,53.342013888888886,0)" xlink:href="#ao"/></g><path fill="#333" d="M496 0v-299h235V0H496" id="ay"/><g id="p"><use transform="matrix(0.008680555555555554,0,0,0.008680555555555554,0,0)" xlink:href="#aj"/><use transform="matrix(0.008680555555555554,0,0,0.008680555555555554,10.668402777777777,0)" xlink:href="#ap"/><use transform="matrix(0.008680555555555554,0,0,0.008680555555555554,21.336805555555554,0)" xlink:href="#aq"/><use transform="matrix(0.008680555555555554,0,0,0.008680555555555554,32.00520833333333,0)" xlink:href="#ao"/><use transform="matrix(0.008680555555555554,0,0,0.008680555555555554,42.67361111111111,0)" xlink:href="#ag"/><use transform="matrix(0.008680555555555554,0,0,0.008680555555555554,53.342013888888886,0)" xlink:href="#ay"/><use transform="matrix(0.008680555555555554,0,0,0.008680555555555554,64.01041666666666,0)" xlink:href="#ay"/><use transform="matrix(0.008680555555555554,0,0,0.008680555555555554,74.67881944444443,0)" xlink:href="#ay"/><use transform="matrix(0.008680555555555554,0,0,0.008680555555555554,85.3472222222222,0)" xlink:href="#ad"/><use transform="matrix(0.008680555555555554,0,0,0.008680555555555554,96.01562499999997,0)" xlink:href="#ar"/></g><g id="r"><use transform="matrix(0.008680555555555554,0,0,0.008680555555555554,0,0)" xlink:href="#ad"/><use transform="matrix(0.008680555555555554,0,0,0.008680555555555554,10.668402777777777,0)" xlink:href="#aj"/><use transform="matrix(0.008680555555555554,0,0,0.008680555555555554,21.336805555555554,0)" xlink:href="#al"/><use transform="matrix(0.008680555555555554,0,0,0.008680555555555554,32.00520833333333,0)" xlink:href="#an"/><use transform="matrix(0.008680555555555554,0,0,0.008680555555555554,42.67361111111111,0)" xlink:href="#af"/><use transform="matrix(0.008680555555555554,0,0,0.008680555555555554,53.342013888888886,0)" xlink:href="#aw"/><use transform="matrix(0.008680555555555554,0,0,0.008680555555555554,64.01041666666666,0)" xlink:href="#as"/><use transform="matrix(0.008680555555555554,0,0,0.008680555555555554,74.67881944444443,0)" xlink:href="#aj"/></g><g id="s"><use transform="matrix(0.008680555555555554,0,0,0.008680555555555554,0,0)" xlink:href="#ao"/><use transform="matrix(0.008680555555555554,0,0,0.008680555555555554,10.668402777777777,0)" xlink:href="#aq"/><use transform="matrix(0.008680555555555554,0,0,0.008680555555555554,21.336805555555554,0)" xlink:href="#aw"/></g><path fill="#333" d="M365-904c58-129 161-200 334-200 130 0 228 46 293 138s98 233 98 420c0 189-34 331-102 425S824 20 698 20c-170 0-275-64-336-184 0 55-3 116-9 164H179c5-68 6-147 6-223v-1261h180c-2 193 4 394-4 580h4zm283 791c221 0 256-197 256-427 0-229-34-425-254-425-236 0-285 195-285 441 0 237 53 411 283 411" id="az"/><g id="t"><use transform="matrix(0.008680555555555554,0,0,0.008680555555555554,0,0)" xlink:href="#az"/><use transform="matrix(0.008680555555555554,0,0,0.008680555555555554,10.668402777777777,0)" xlink:href="#ag"/></g><path fill="#333" d="M530 26c-303-6-392-228-392-558 0-187 33-329 98-424s162-142 293-142c178 0 273 69 334 184 1-56 3-122 12-169h175c-6 88-6 180-6 282V425H863c1-202-4-411 4-607h-2C805-59 713 29 530 26zm47-139c234 0 286-193 286-441 0-238-55-411-284-411-223 0-255 198-255 427 0 227 33 425 253 425" id="aA"/><path fill="#333" d="M528 20c-247 0-343-132-343-381v-721h180v686c-4 177 45 284 224 277 194-8 279-136 279-336v-627h181c3 360-6 732 6 1082H885c-4-54-7-126-8-185h-3C809-64 714 20 528 20" id="aB"/><g id="u"><use transform="matrix(0.008680555555555554,0,0,0.008680555555555554,0,0)" xlink:href="#ag"/><use transform="matrix(0.008680555555555554,0,0,0.008680555555555554,10.668402777777777,0)" xlink:href="#aA"/><use transform="matrix(0.008680555555555554,0,0,0.008680555555555554,21.336805555555554,0)" xlink:href="#aB"/><use transform="matrix(0.008680555555555554,0,0,0.008680555555555554,32.00520833333333,0)" xlink:href="#af"/><use transform="matrix(0.008680555555555554,0,0,0.008680555555555554,42.67361111111111,0)" xlink:href="#ap"/><use transform="matrix(0.008680555555555554,0,0,0.008680555555555554,53.342013888888886,0)" xlink:href="#ap"/><use transform="matrix(0.008680555555555554,0,0,0.008680555555555554,64.01041666666666,0)" xlink:href="#ag"/><use transform="matrix(0.008680555555555554,0,0,0.008680555555555554,74.67881944444443,0)" xlink:href="#ai"/></g><path fill="#333" d="M1018 0H814c-67-224-138-444-200-673C552-442 476-224 407 0H204L21-1082h178c43 310 105 601 126 933 54-225 128-425 193-638h193c63 212 134 415 185 638 22-336 90-622 136-933h176" id="aC"/><g id="v"><use transform="matrix(0.008680555555555554,0,0,0.008680555555555554,0,0)" xlink:href="#aC"/><use transform="matrix(0.008680555555555554,0,0,0.008680555555555554,10.668402777777777,0)" xlink:href="#af"/><use transform="matrix(0.008680555555555554,0,0,0.008680555555555554,21.336805555555554,0)" xlink:href="#al"/><use transform="matrix(0.008680555555555554,0,0,0.008680555555555554,32.00520833333333,0)" xlink:href="#at"/></g><g id="w"><use transform="matrix(0.008680555555555554,0,0,0.008680555555555554,0,0)" xlink:href="#al"/><use transform="matrix(0.008680555555555554,0,0,0.008680555555555554,10.668402777777777,0)" xlink:href="#at"/><use transform="matrix(0.008680555555555554,0,0,0.008680555555555554,21.336805555555554,0)" xlink:href="#ag"/></g><path fill="#333" d="M875 0v-623H353V0H162v-1349h191v566h522v-566h191V0H875" id="aD"/><g id="x"><use transform="matrix(0.008680555555555554,0,0,0.008680555555555554,0,0)" xlink:href="#aD"/><use transform="matrix(0.008680555555555554,0,0,0.008680555555555554,10.668402777777777,0)" xlink:href="#aq"/><use transform="matrix(0.008680555555555554,0,0,0.008680555555555554,21.336805555555554,0)" xlink:href="#ax"/><use transform="matrix(0.008680555555555554,0,0,0.008680555555555554,32.00520833333333,0)" xlink:href="#ax"/><use transform="matrix(0.008680555555555554,0,0,0.008680555555555554,42.67361111111111,0)" xlink:href="#af"/><use transform="matrix(0.008680555555555554,0,0,0.008680555555555554,53.342013888888886,0)" xlink:href="#aw"/><use transform="matrix(0.008680555555555554,0,0,0.008680555555555554,64.01041666666666,0)" xlink:href="#as"/></g><g id="y"><use transform="matrix(0.008680555555555554,0,0,0.008680555555555554,0,0)" xlink:href="#ai"/><use transform="matrix(0.008680555555555554,0,0,0.008680555555555554,10.668402777777777,0)" xlink:href="#af"/><use transform="matrix(0.008680555555555554,0,0,0.008680555555555554,21.336805555555554,0)" xlink:href="#aj"/><use transform="matrix(0.008680555555555554,0,0,0.008680555555555554,32.00520833333333,0)" xlink:href="#al"/><use transform="matrix(0.008680555555555554,0,0,0.008680555555555554,42.67361111111111,0)" xlink:href="#aq"/><use transform="matrix(0.008680555555555554,0,0,0.008680555555555554,53.342013888888886,0)" xlink:href="#aw"/><use transform="matrix(0.008680555555555554,0,0,0.008680555555555554,64.01041666666666,0)" xlink:href="#ao"/><use transform="matrix(0.008680555555555554,0,0,0.008680555555555554,74.67881944444443,0)" xlink:href="#ag"/><use transform="matrix(0.008680555555555554,0,0,0.008680555555555554,85.3472222222222,0)" xlink:href="#ar"/></g><g id="A"><use transform="matrix(0.008680555555555554,0,0,0.008680555555555554,0,0)" xlink:href="#aC"/><use transform="matrix(0.008680555555555554,0,0,0.008680555555555554,10.668402777777777,0)" xlink:href="#at"/><use transform="matrix(0.008680555555555554,0,0,0.008680555555555554,21.336805555555554,0)" xlink:href="#af"/><use transform="matrix(0.008680555555555554,0,0,0.008680555555555554,32.00520833333333,0)" xlink:href="#ao"/><use transform="matrix(0.008680555555555554,0,0,0.008680555555555554,42.67361111111111,0)" xlink:href="#at"/></g><g id="B"><use transform="matrix(0.008680555555555554,0,0,0.008680555555555554,0,0)" xlink:href="#ax"/><use transform="matrix(0.008680555555555554,0,0,0.008680555555555554,10.668402777777777,0)" xlink:href="#ag"/><use transform="matrix(0.008680555555555554,0,0,0.008680555555555554,21.336805555555554,0)" xlink:href="#aq"/><use transform="matrix(0.008680555555555554,0,0,0.008680555555555554,32.00520833333333,0)" xlink:href="#aj"/><use transform="matrix(0.008680555555555554,0,0,0.008680555555555554,42.67361111111111,0)" xlink:href="#aB"/><use transform="matrix(0.008680555555555554,0,0,0.008680555555555554,53.342013888888886,0)" xlink:href="#an"/><use transform="matrix(0.008680555555555554,0,0,0.008680555555555554,64.01041666666666,0)" xlink:href="#ag"/><use transform="matrix(0.008680555555555554,0,0,0.008680555555555554,74.67881944444443,0)" xlink:href="#aj"/></g><g id="C"><use transform="matrix(0.008680555555555554,0,0,0.008680555555555554,0,0)" xlink:href="#aw"/><use transform="matrix(0.008680555555555554,0,0,0.008680555555555554,10.668402777777777,0)" xlink:href="#aB"/><use transform="matrix(0.008680555555555554,0,0,0.008680555555555554,21.336805555555554,0)" xlink:href="#ax"/><use transform="matrix(0.008680555555555554,0,0,0.008680555555555554,32.00520833333333,0)" xlink:href="#az"/><use transform="matrix(0.008680555555555554,0,0,0.008680555555555554,42.67361111111111,0)" xlink:href="#ag"/><use transform="matrix(0.008680555555555554,0,0,0.008680555555555554,53.342013888888886,0)" xlink:href="#an"/><use transform="matrix(0.008680555555555554,0,0,0.008680555555555554,64.01041666666666,0)" xlink:href="#ay"/><use transform="matrix(0.008680555555555554,0,0,0.008680555555555554,74.67881944444443,0)" xlink:href="#ay"/></g><use transform="matrix(0.008680555555555554,0,0,0.008680555555555554,0,0)" xlink:href="#ad" id="D"/><path fill="#333" d="M270 425V286h367v-1631H270v-139h547V425H270" id="aE"/><g id="E"><use transform="matrix(0.008680555555555554,0,0,0.008680555555555554,0,0)" xlink:href="#aE"/><use transform="matrix(0.008680555555555554,0,0,0.008680555555555554,10.668402777777777,0)" xlink:href="#ar"/></g><path fill="#333" d="M-5 220v-96h1238v96H-5" id="aF"/><g id="G"><use transform="matrix(0.008680555555555554,0,0,0.008680555555555554,0,0)" xlink:href="#ad"/><use transform="matrix(0.008680555555555554,0,0,0.008680555555555554,10.668402777777777,0)" xlink:href="#ap"/><use transform="matrix(0.008680555555555554,0,0,0.008680555555555554,21.336805555555554,0)" xlink:href="#aq"/><use transform="matrix(0.008680555555555554,0,0,0.008680555555555554,32.00520833333333,0)" xlink:href="#an"/><use transform="matrix(0.008680555555555554,0,0,0.008680555555555554,42.67361111111111,0)" xlink:href="#aq"/><use transform="matrix(0.008680555555555554,0,0,0.008680555555555554,53.342013888888886,0)" xlink:href="#as"/><use transform="matrix(0.008680555555555554,0,0,0.008680555555555554,64.01041666666666,0)" xlink:href="#an"/><use transform="matrix(0.008680555555555554,0,0,0.008680555555555554,74.67881944444443,0)" xlink:href="#aq"/><use transform="matrix(0.008680555555555554,0,0,0.008680555555555554,85.3472222222222,0)" xlink:href="#ap"/><use transform="matrix(0.008680555555555554,0,0,0.008680555555555554,96.01562499999997,0)" xlink:href="#at"/><use transform="matrix(0.008680555555555554,0,0,0.008680555555555554,106.68402777777774,0)" xlink:href="#aF"/><use transform="matrix(0.008680555555555554,0,0,0.008680555555555554,117.35243055555551,0)" xlink:href="#ag"/><use transform="matrix(0.008680555555555554,0,0,0.008680555555555554,128.0208333333333,0)" xlink:href="#ax"/><use transform="matrix(0.008680555555555554,0,0,0.008680555555555554,138.68923611111106,0)" xlink:href="#az"/><use transform="matrix(0.008680555555555554,0,0,0.008680555555555554,149.35763888888883,0)" xlink:href="#ag"/><use transform="matrix(0.008680555555555554,0,0,0.008680555555555554,160.0260416666666,0)" xlink:href="#ai"/><use transform="matrix(0.008680555555555554,0,0,0.008680555555555554,170.6944444444444,0)" xlink:href="#ai"/><use transform="matrix(0.008680555555555554,0,0,0.008680555555555554,181.36284722222214,0)" xlink:href="#af"/><use transform="matrix(0.008680555555555554,0,0,0.008680555555555554,192.03124999999991,0)" xlink:href="#aw"/><use transform="matrix(0.008680555555555554,0,0,0.008680555555555554,202.6996527777777,0)" xlink:href="#as"/><use transform="matrix(0.008680555555555554,0,0,0.008680555555555554,213.36805555555546,0)" xlink:href="#aj"/><use transform="matrix(0.008680555555555554,0,0,0.008680555555555554,224.03645833333323,0)" xlink:href="#ad"/><use transform="matrix(0.008680555555555554,0,0,0.008680555555555554,234.704861111111,0)" xlink:href="#ak"/></g><use transform="matrix(0.008680555555555554,0,0,0.008680555555555554,0,0)" xlink:href="#ac" id="H"/><path fill="#333" d="M1065-1013c47 164 49 500-1 665C999-130 875 20 611 20c-377 0-484-300-487-695-2-245 41-425 141-551 77-98 191-144 352-144 261 0 386 140 448 357zM741-155c199-92 203-504 159-785-26-168-96-284-283-284-281 0-308 256-311 549-2 181 18 324 80 428 46 77 115 118 227 120 47 0 90-10 128-28zM496-555v-249h235v249H496" id="aG"/><g id="I"><use transform="matrix(0.008680555555555554,0,0,0.008680555555555554,0,0)" xlink:href="#ad"/><use transform="matrix(0.008680555555555554,0,0,0.008680555555555554,10.668402777777777,0)" xlink:href="#aG"/><use transform="matrix(0.008680555555555554,0,0,0.008680555555555554,21.336805555555554,0)" xlink:href="#ad"/><use transform="matrix(0.008680555555555554,0,0,0.008680555555555554,32.00520833333333,0)" xlink:href="#ak"/></g><path fill="#333" d="M373 425v-1909h602v190H639V234h336v191H373" id="aH"/><path fill="#333" d="M117-675c0-408 109-695 502-695 384 0 492 295 492 695 0 326-84 561-303 658-117 51-277 52-394 1-217-95-297-335-297-659zm591 451c148-93 132-449 108-680-15-138-53-246-199-246-150 0-193 107-207 248-22 230-40 585 106 678 50 32 141 32 192 0zM506-555v-249h215v249H506" id="aI"/><path fill="#333" d="M470 0v-305h289V0H470" id="aJ"/><path fill="#333" d="M138-1120c207-4 339-93 415-229h266v1140h323V0H149v-209h389v-891c-70 121-216 187-400 194v-214" id="aK"/><path fill="#333" d="M135-968c34-256 187-402 480-402 217 0 371 75 441 220 45 93 40 219-8 308-114 212-348 323-508 488-38 39-66 80-85 123h654V0H123v-195c112-245 321-399 515-560 57-48 107-96 142-157 14-26 22-53 22-80-1-104-73-156-185-154-131 2-181 74-199 194" id="aL"/><path fill="#333" d="M258 363l169-662h315L431 363H258" id="aM"/><path fill="#333" d="M788-691c191 26 337 112 337 315 0 286-214 399-510 399-306 0-483-128-522-391l286-25c18 124 91 190 235 188 132-2 223-58 223-188 0-176-191-182-378-179v-227c176 5 345-9 345-176 0-115-82-171-200-171s-198 55-206 169l-281-20c34-252 213-373 492-373 224 0 381 74 451 224 20 43 29 89 29 136 0 195-130 279-301 315v4" id="aN"/><path fill="#333" d="M980-287V0H712v-287H71v-211l595-851h314v853h188v209H980zM712-496c2-204-7-417 9-609-118 224-277 405-414 609h405" id="aO"/><path fill="#333" d="M254 425V234h336v-1528H254v-190h602V425H254" id="aP"/><g id="J"><use transform="matrix(0.008680555555555554,0,0,0.008680555555555554,0,0)" xlink:href="#aH"/><use transform="matrix(0.008680555555555554,0,0,0.008680555555555554,10.668402777777777,0)" xlink:href="#aI"/><use transform="matrix(0.008680555555555554,0,0,0.008680555555555554,21.336805555555554,0)" xlink:href="#aJ"/><use transform="matrix(0.008680555555555554,0,0,0.008680555555555554,32.00520833333333,0)" xlink:href="#aK"/><use transform="matrix(0.008680555555555554,0,0,0.008680555555555554,42.67361111111111,0)" xlink:href="#aL"/><use transform="matrix(0.008680555555555554,0,0,0.008680555555555554,53.342013888888886,0)" xlink:href="#aM"/><use transform="matrix(0.008680555555555554,0,0,0.008680555555555554,64.01041666666666,0)" xlink:href="#aI"/><use transform="matrix(0.008680555555555554,0,0,0.008680555555555554,74.67881944444443,0)" xlink:href="#aJ"/><use transform="matrix(0.008680555555555554,0,0,0.008680555555555554,85.3472222222222,0)" xlink:href="#aI"/><use transform="matrix(0.008680555555555554,0,0,0.008680555555555554,96.01562499999997,0)" xlink:href="#aN"/><use transform="matrix(0.008680555555555554,0,0,0.008680555555555554,106.68402777777774,0)" xlink:href="#aM"/><use transform="matrix(0.008680555555555554,0,0,0.008680555555555554,117.35243055555551,0)" xlink:href="#aJ"/><use transform="matrix(0.008680555555555554,0,0,0.008680555555555554,128.0208333333333,0)" xlink:href="#aJ"/><use transform="matrix(0.008680555555555554,0,0,0.008680555555555554,138.68923611111106,0)" xlink:href="#aJ"/><use transform="matrix(0.008680555555555554,0,0,0.008680555555555554,149.35763888888883,0)" xlink:href="#aM"/><use transform="matrix(0.008680555555555554,0,0,0.008680555555555554,160.0260416666666,0)" xlink:href="#aI"/><use transform="matrix(0.008680555555555554,0,0,0.008680555555555554,170.6944444444444,0)" xlink:href="#aJ"/><use transform="matrix(0.008680555555555554,0,0,0.008680555555555554,181.36284722222214,0)" xlink:href="#aI"/><use transform="matrix(0.008680555555555554,0,0,0.008680555555555554,192.03124999999991,0)" xlink:href="#aO"/><use transform="matrix(0.008680555555555554,0,0,0.008680555555555554,202.6996527777777,0)" xlink:href="#aP"/><use transform="matrix(0.008680555555555554,0,0,0.008680555555555554,213.36805555555546,0)" xlink:href="#ar"/></g><path fill="#333" d="M148-1120c216-7 379-89 463-229h166v1204h353V0H157v-145h439v-1021c-79 124-254 184-448 194v-148" id="aQ"/><g id="K"><use transform="matrix(0.008680555555555554,0,0,0.008680555555555554,0,0)" xlink:href="#ad"/><use transform="matrix(0.008680555555555554,0,0,0.008680555555555554,10.668402777777777,0)" xlink:href="#aQ"/><use transform="matrix(0.008680555555555554,0,0,0.008680555555555554,21.336805555555554,0)" xlink:href="#ad"/><use transform="matrix(0.008680555555555554,0,0,0.008680555555555554,32.00520833333333,0)" xlink:href="#ak"/></g><g id="L"><use transform="matrix(0.008680555555555554,0,0,0.008680555555555554,0,0)" xlink:href="#aH"/><use transform="matrix(0.008680555555555554,0,0,0.008680555555555554,10.668402777777777,0)" xlink:href="#aI"/><use transform="matrix(0.008680555555555554,0,0,0.008680555555555554,21.336805555555554,0)" xlink:href="#aJ"/><use transform="matrix(0.008680555555555554,0,0,0.008680555555555554,32.00520833333333,0)" xlink:href="#aI"/><use transform="matrix(0.008680555555555554,0,0,0.008680555555555554,42.67361111111111,0)" xlink:href="#aN"/><use transform="matrix(0.008680555555555554,0,0,0.008680555555555554,53.342013888888886,0)" xlink:href="#aM"/><use transform="matrix(0.008680555555555554,0,0,0.008680555555555554,64.01041666666666,0)" xlink:href="#aI"/><use transform="matrix(0.008680555555555554,0,0,0.008680555555555554,74.67881944444443,0)" xlink:href="#aJ"/><use transform="matrix(0.008680555555555554,0,0,0.008680555555555554,85.3472222222222,0)" xlink:href="#aI"/><use transform="matrix(0.008680555555555554,0,0,0.008680555555555554,96.01562499999997,0)" xlink:href="#aL"/><use transform="matrix(0.008680555555555554,0,0,0.008680555555555554,106.68402777777774,0)" xlink:href="#aM"/><use transform="matrix(0.008680555555555554,0,0,0.008680555555555554,117.35243055555551,0)" xlink:href="#aJ"/><use transform="matrix(0.008680555555555554,0,0,0.008680555555555554,128.0208333333333,0)" xlink:href="#aJ"/><use transform="matrix(0.008680555555555554,0,0,0.008680555555555554,138.68923611111106,0)" xlink:href="#aJ"/><use transform="matrix(0.008680555555555554,0,0,0.008680555555555554,149.35763888888883,0)" xlink:href="#aM"/><use transform="matrix(0.008680555555555554,0,0,0.008680555555555554,160.0260416666666,0)" xlink:href="#aI"/><use transform="matrix(0.008680555555555554,0,0,0.008680555555555554,170.6944444444444,0)" xlink:href="#aJ"/><use transform="matrix(0.008680555555555554,0,0,0.008680555555555554,181.36284722222214,0)" xlink:href="#aI"/><use transform="matrix(0.008680555555555554,0,0,0.008680555555555554,192.03124999999991,0)" xlink:href="#aL"/><use transform="matrix(0.008680555555555554,0,0,0.008680555555555554,202.6996527777777,0)" xlink:href="#aP"/></g><path fill="#333" d="M726 122c-7 187-108 303-294 303H167V286h213c129-2 172-59 172-195v-347c5-160 106-236 230-276-125-36-230-116-230-272v-346c2-128-45-195-172-195H167v-139h265c187 7 294 114 294 303v352c4 162 120 221 275 231v137c-155 10-275 68-275 232v351" id="aR"/><use transform="matrix(0.008680555555555554,0,0,0.008680555555555554,0,0)" xlink:href="#aR" id="M"/><use transform="matrix(0.008680555555555554,0,0,0.008680555555555554,0,0)" xlink:href="#aR" id="N"/><use transform="matrix(0.008680555555555554,0,0,0.008680555555555554,0,0)" xlink:href="#aR" id="O"/><use transform="matrix(0.008680555555555554,0,0,0.008680555555555554,0,0)" xlink:href="#ac" id="P"/><path fill="#333" d="M168 279c222 39 310-114 368-290L66-1082h192c120 299 249 590 362 896 115-301 235-597 351-896h190L705 0c-65 164-130 320-275 396-67 36-177 35-262 18V279" id="aS"/><g id="R"><use transform="matrix(0.008680555555555554,0,0,0.008680555555555554,0,0)" xlink:href="#ad"/><use transform="matrix(0.008680555555555554,0,0,0.008680555555555554,10.668402777777777,0)" xlink:href="#aS"/><use transform="matrix(0.008680555555555554,0,0,0.008680555555555554,21.336805555555554,0)" xlink:href="#aA"/><use transform="matrix(0.008680555555555554,0,0,0.008680555555555554,32.00520833333333,0)" xlink:href="#ah"/><use transform="matrix(0.008680555555555554,0,0,0.008680555555555554,42.67361111111111,0)" xlink:href="#ad"/><use transform="matrix(0.008680555555555554,0,0,0.008680555555555554,53.342013888888886,0)" xlink:href="#ak"/></g><g id="S"><use transform="matrix(0.008680555555555554,0,0,0.008680555555555554,0,0)" xlink:href="#ad"/><use transform="matrix(0.008680555555555554,0,0,0.008680555555555554,10.668402777777777,0)" xlink:href="#aj"/><use transform="matrix(0.008680555555555554,0,0,0.008680555555555554,21.336805555555554,0)" xlink:href="#ag"/><use transform="matrix(0.008680555555555554,0,0,0.008680555555555554,32.00520833333333,0)" xlink:href="#ah"/><use transform="matrix(0.008680555555555554,0,0,0.008680555555555554,42.67361111111111,0)" xlink:href="#ag"/><use transform="matrix(0.008680555555555554,0,0,0.008680555555555554,53.342013888888886,0)" xlink:href="#ao"/><use transform="matrix(0.008680555555555554,0,0,0.008680555555555554,64.01041666666666,0)" xlink:href="#al"/></g><g id="T"><use transform="matrix(0.008680555555555554,0,0,0.008680555555555554,0,0)" xlink:href="#al"/><use transform="matrix(0.008680555555555554,0,0,0.008680555555555554,10.668402777777777,0)" xlink:href="#af"/><use transform="matrix(0.008680555555555554,0,0,0.008680555555555554,21.336805555555554,0)" xlink:href="#al"/><use transform="matrix(0.008680555555555554,0,0,0.008680555555555554,32.00520833333333,0)" xlink:href="#ah"/><use transform="matrix(0.008680555555555554,0,0,0.008680555555555554,42.67361111111111,0)" xlink:href="#ag"/><use transform="matrix(0.008680555555555554,0,0,0.008680555555555554,53.342013888888886,0)" xlink:href="#ar"/><use transform="matrix(0.008680555555555554,0,0,0.008680555555555554,64.01041666666666,0)" xlink:href="#aB"/><use transform="matrix(0.008680555555555554,0,0,0.008680555555555554,74.67881944444443,0)" xlink:href="#an"/><use transform="matrix(0.008680555555555554,0,0,0.008680555555555554,85.3472222222222,0)" xlink:href="#ah"/></g><path fill="#333" d="M615-1102c343 0 484 203 482 560-1 347-147 562-488 562-336 0-475-219-479-562-4-349 156-560 485-560zm-8 989c240 0 301-180 301-429 0-245-55-427-290-427-236 0-299 181-299 427 0 243 61 429 288 429" id="aT"/><g id="U"><use transform="matrix(0.008680555555555554,0,0,0.008680555555555554,0,0)" xlink:href="#ae"/><use transform="matrix(0.008680555555555554,0,0,0.008680555555555554,10.668402777777777,0)" xlink:href="#an"/><use transform="matrix(0.008680555555555554,0,0,0.008680555555555554,21.336805555555554,0)" xlink:href="#aT"/><use transform="matrix(0.008680555555555554,0,0,0.008680555555555554,32.00520833333333,0)" xlink:href="#ax"/></g><path fill="#333" d="M914 0L548-499l-132 98V0H236v-1484h180v927l475-525h211L663-617 1125 0H914" id="aU"/><g id="V"><use transform="matrix(0.008680555555555554,0,0,0.008680555555555554,0,0)" xlink:href="#aC"/><use transform="matrix(0.008680555555555554,0,0,0.008680555555555554,10.668402777777777,0)" xlink:href="#af"/><use transform="matrix(0.008680555555555554,0,0,0.008680555555555554,21.336805555555554,0)" xlink:href="#aU"/><use transform="matrix(0.008680555555555554,0,0,0.008680555555555554,32.00520833333333,0)" xlink:href="#af"/></g><g id="W"><use transform="matrix(0.008680555555555554,0,0,0.008680555555555554,0,0)" xlink:href="#aC"/><use transform="matrix(0.008680555555555554,0,0,0.008680555555555554,10.668402777777777,0)" xlink:href="#at"/><use transform="matrix(0.008680555555555554,0,0,0.008680555555555554,21.336805555555554,0)" xlink:href="#ag"/><use transform="matrix(0.008680555555555554,0,0,0.008680555555555554,32.00520833333333,0)" xlink:href="#an"/><use transform="matrix(0.008680555555555554,0,0,0.008680555555555554,42.67361111111111,0)" xlink:href="#ag"/></g><path fill="#333" d="M912-211c-10-84-18-177-18-274v-864h172V0H836L316-1130c7 79 16 167 16 254V0H162v-1349h222" id="aV"/><path fill="#333" d="M891-1484c-201 251-362 514-362 954 0 441 161 704 362 955H701C500 176 342-90 342-532c0-440 159-704 359-952h190" id="aW"/><g id="X"><use transform="matrix(0.008680555555555554,0,0,0.008680555555555554,0,0)" xlink:href="#ac"/><use transform="matrix(0.008680555555555554,0,0,0.008680555555555554,10.668402777777777,0)" xlink:href="#al"/><use transform="matrix(0.008680555555555554,0,0,0.008680555555555554,21.336805555555554,0)" xlink:href="#aq"/><use transform="matrix(0.008680555555555554,0,0,0.008680555555555554,32.00520833333333,0)" xlink:href="#an"/><use transform="matrix(0.008680555555555554,0,0,0.008680555555555554,42.67361111111111,0)" xlink:href="#as"/><use transform="matrix(0.008680555555555554,0,0,0.008680555555555554,53.342013888888886,0)" xlink:href="#ag"/><use transform="matrix(0.008680555555555554,0,0,0.008680555555555554,64.01041666666666,0)" xlink:href="#al"/><use transform="matrix(0.008680555555555554,0,0,0.008680555555555554,74.67881944444443,0)" xlink:href="#aD"/><use transform="matrix(0.008680555555555554,0,0,0.008680555555555554,85.3472222222222,0)" xlink:href="#af"/><use transform="matrix(0.008680555555555554,0,0,0.008680555555555554,96.01562499999997,0)" xlink:href="#al"/><use transform="matrix(0.008680555555555554,0,0,0.008680555555555554,106.68402777777774,0)" xlink:href="#aj"/><use transform="matrix(0.008680555555555554,0,0,0.008680555555555554,117.35243055555551,0)" xlink:href="#ak"/><use transform="matrix(0.008680555555555554,0,0,0.008680555555555554,128.0208333333333,0)" xlink:href="#aQ"/><use transform="matrix(0.008680555555555554,0,0,0.008680555555555554,138.68923611111106,0)" xlink:href="#aG"/><use transform="matrix(0.008680555555555554,0,0,0.008680555555555554,149.35763888888883,0)" xlink:href="#aR"/><use transform="matrix(0.008680555555555554,0,0,0.008680555555555554,160.0260416666666,0)" xlink:href="#aw"/><use transform="matrix(0.008680555555555554,0,0,0.008680555555555554,170.6944444444444,0)" xlink:href="#ag"/><use transform="matrix(0.008680555555555554,0,0,0.008680555555555554,181.36284722222214,0)" xlink:href="#aq"/><use transform="matrix(0.008680555555555554,0,0,0.008680555555555554,192.03124999999991,0)" xlink:href="#an"/><use transform="matrix(0.008680555555555554,0,0,0.008680555555555554,202.6996527777777,0)" xlink:href="#ag"/><use transform="matrix(0.008680555555555554,0,0,0.008680555555555554,213.36805555555546,0)" xlink:href="#aj"/><use transform="matrix(0.008680555555555554,0,0,0.008680555555555554,224.03645833333323,0)" xlink:href="#al"/><use transform="matrix(0.008680555555555554,0,0,0.008680555555555554,234.704861111111,0)" xlink:href="#aV"/><use transform="matrix(0.008680555555555554,0,0,0.008680555555555554,245.3732638888888,0)" xlink:href="#ag"/><use transform="matrix(0.008680555555555554,0,0,0.008680555555555554,256.0416666666666,0)" xlink:href="#af"/><use transform="matrix(0.008680555555555554,0,0,0.008680555555555554,266.71006944444434,0)" xlink:href="#as"/><use transform="matrix(0.008680555555555554,0,0,0.008680555555555554,277.3784722222221,0)" xlink:href="#at"/><use transform="matrix(0.008680555555555554,0,0,0.008680555555555554,288.0468749999999,0)" xlink:href="#az"/><use transform="matrix(0.008680555555555554,0,0,0.008680555555555554,298.71527777777766,0)" xlink:href="#aT"/><use transform="matrix(0.008680555555555554,0,0,0.008680555555555554,309.38368055555543,0)" xlink:href="#an"/><use transform="matrix(0.008680555555555554,0,0,0.008680555555555554,320.0520833333332,0)" xlink:href="#aW"/><use transform="matrix(0.008680555555555554,0,0,0.008680555555555554,330.720486111111,0)" xlink:href="#ap"/><use transform="matrix(0.008680555555555554,0,0,0.008680555555555554,341.3888888888888,0)" xlink:href="#aq"/><use transform="matrix(0.008680555555555554,0,0,0.008680555555555554,352.05729166666646,0)" xlink:href="#an"/><use transform="matrix(0.008680555555555554,0,0,0.008680555555555554,362.7256944444443,0)" xlink:href="#aq"/><use transform="matrix(0.008680555555555554,0,0,0.008680555555555554,373.39409722222206,0)" xlink:href="#as"/><use transform="matrix(0.008680555555555554,0,0,0.008680555555555554,384.06249999999983,0)" xlink:href="#an"/><use transform="matrix(0.008680555555555554,0,0,0.008680555555555554,394.7309027777776,0)" xlink:href="#aq"/><use transform="matrix(0.008680555555555554,0,0,0.008680555555555554,405.3993055555554,0)" xlink:href="#ap"/><use transform="matrix(0.008680555555555554,0,0,0.008680555555555554,416.06770833333314,0)" xlink:href="#at"/><use transform="matrix(0.008680555555555554,0,0,0.008680555555555554,426.7361111111109,0)" xlink:href="#aF"/><use transform="matrix(0.008680555555555554,0,0,0.008680555555555554,437.4045138888887,0)" xlink:href="#ag"/><use transform="matrix(0.008680555555555554,0,0,0.008680555555555554,448.07291666666646,0)" xlink:href="#ax"/><use transform="matrix(0.008680555555555554,0,0,0.008680555555555554,458.74131944444423,0)" xlink:href="#az"/><use transform="matrix(0.008680555555555554,0,0,0.008680555555555554,469.409722222222,0)" xlink:href="#ag"/><use transform="matrix(0.008680555555555554,0,0,0.008680555555555554,480.0781249999998,0)" xlink:href="#ai"/><use transform="matrix(0.008680555555555554,0,0,0.008680555555555554,490.7465277777776,0)" xlink:href="#ai"/><use transform="matrix(0.008680555555555554,0,0,0.008680555555555554,501.4149305555553,0)" xlink:href="#af"/><use transform="matrix(0.008680555555555554,0,0,0.008680555555555554,512.0833333333331,0)" xlink:href="#aw"/><use transform="matrix(0.008680555555555554,0,0,0.008680555555555554,522.751736111111,0)" xlink:href="#as"/><use transform="matrix(0.008680555555555554,0,0,0.008680555555555554,533.4201388888888,0)" xlink:href="#aj"/><use transform="matrix(0.008680555555555554,0,0,0.008680555555555554,544.0885416666666,0)" xlink:href="#ar"/></g><path fill="#333" d="M528-1484c201 248 357 511 357 952 0 442-156 709-357 957H336C537 174 700-89 700-530c0-440-163-703-364-954h192" id="aX"/><g id="Y"><use transform="matrix(0.008680555555555554,0,0,0.008680555555555554,0,0)" xlink:href="#aA"/><use transform="matrix(0.008680555555555554,0,0,0.008680555555555554,10.668402777777777,0)" xlink:href="#aX"/><use transform="matrix(0.008680555555555554,0,0,0.008680555555555554,21.336805555555554,0)" xlink:href="#ad"/><use transform="matrix(0.008680555555555554,0,0,0.008680555555555554,32.00520833333333,0)" xlink:href="#ar"/></g><g id="Z"><use transform="matrix(0.008680555555555554,0,0,0.008680555555555554,0,0)" xlink:href="#ad"/><use transform="matrix(0.008680555555555554,0,0,0.008680555555555554,10.668402777777777,0)" xlink:href="#af"/><use transform="matrix(0.008680555555555554,0,0,0.008680555555555554,21.336805555555554,0)" xlink:href="#aw"/><use transform="matrix(0.008680555555555554,0,0,0.008680555555555554,32.00520833333333,0)" xlink:href="#ap"/><use transform="matrix(0.008680555555555554,0,0,0.008680555555555554,42.67361111111111,0)" xlink:href="#aB"/><use transform="matrix(0.008680555555555554,0,0,0.008680555555555554,53.342013888888886,0)" xlink:href="#al"/><use transform="matrix(0.008680555555555554,0,0,0.008680555555555554,64.01041666666666,0)" xlink:href="#ay"/><use transform="matrix(0.008680555555555554,0,0,0.008680555555555554,74.67881944444443,0)" xlink:href="#aA"/><use transform="matrix(0.008680555555555554,0,0,0.008680555555555554,85.3472222222222,0)" xlink:href="#aB"/><use transform="matrix(0.008680555555555554,0,0,0.008680555555555554,96.01562499999997,0)" xlink:href="#ag"/><use transform="matrix(0.008680555555555554,0,0,0.008680555555555554,106.68402777777774,0)" xlink:href="#an"/><use transform="matrix(0.008680555555555554,0,0,0.008680555555555554,117.35243055555551,0)" xlink:href="#aS"/><use transform="matrix(0.008680555555555554,0,0,0.008680555555555554,128.0208333333333,0)" xlink:href="#aW"/><use transform="matrix(0.008680555555555554,0,0,0.008680555555555554,138.68923611111106,0)" xlink:href="#aA"/><use transform="matrix(0.008680555555555554,0,0,0.008680555555555554,149.35763888888883,0)" xlink:href="#aX"/><use transform="matrix(0.008680555555555554,0,0,0.008680555555555554,160.0260416666666,0)" xlink:href="#ad"/><use transform="matrix(0.008680555555555554,0,0,0.008680555555555554,170.6944444444444,0)" xlink:href="#ak"/></g><g id="aa"><use transform="matrix(0.008680555555555554,0,0,0.008680555555555554,0,0)" xlink:href="#aH"/><use transform="matrix(0.008680555555555554,0,0,0.008680555555555554,10.668402777777777,0)" xlink:href="#aI"/><use transform="matrix(0.008680555555555554,0,0,0.008680555555555554,21.336805555555554,0)" xlink:href="#aJ"/><use transform="matrix(0.008680555555555554,0,0,0.008680555555555554,32.00520833333333,0)" xlink:href="#aK"/><use transform="matrix(0.008680555555555554,0,0,0.008680555555555554,42.67361111111111,0)" xlink:href="#aL"/><use transform="matrix(0.008680555555555554,0,0,0.008680555555555554,53.342013888888886,0)" xlink:href="#aM"/><use transform="matrix(0.008680555555555554,0,0,0.008680555555555554,64.01041666666666,0)" xlink:href="#aI"/><use transform="matrix(0.008680555555555554,0,0,0.008680555555555554,74.67881944444443,0)" xlink:href="#aJ"/><use transform="matrix(0.008680555555555554,0,0,0.008680555555555554,85.3472222222222,0)" xlink:href="#aI"/><use transform="matrix(0.008680555555555554,0,0,0.008680555555555554,96.01562499999997,0)" xlink:href="#aM"/><use transform="matrix(0.008680555555555554,0,0,0.008680555555555554,106.68402777777774,0)" xlink:href="#aJ"/><use transform="matrix(0.008680555555555554,0,0,0.008680555555555554,117.35243055555551,0)" xlink:href="#aJ"/><use transform="matrix(0.008680555555555554,0,0,0.008680555555555554,128.0208333333333,0)" xlink:href="#aJ"/><use transform="matrix(0.008680555555555554,0,0,0.008680555555555554,138.68923611111106,0)" xlink:href="#aM"/><use transform="matrix(0.008680555555555554,0,0,0.008680555555555554,149.35763888888883,0)" xlink:href="#aI"/><use transform="matrix(0.008680555555555554,0,0,0.008680555555555554,160.0260416666666,0)" xlink:href="#aJ"/><use transform="matrix(0.008680555555555554,0,0,0.008680555555555554,170.6944444444444,0)" xlink:href="#aI"/><use transform="matrix(0.008680555555555554,0,0,0.008680555555555554,181.36284722222214,0)" xlink:href="#aL"/><use transform="matrix(0.008680555555555554,0,0,0.008680555555555554,192.03124999999991,0)" xlink:href="#aP"/></g><use transform="matrix(0.008680555555555554,0,0,0.008680555555555554,0,0)" xlink:href="#aR" id="ab"/></defs></g></svg>