<svg xmlns="http://www.w3.org/2000/svg" xmlns:xlink="http://www.w3.org/1999/xlink" xmlns:lucid="lucid" width="1080" height="500"><g transform="translate(1800 0)" lucid:page-tab-id="0_0"><path d="M-2000 0h1500v500h-1500z" fill="#fff"/><path d="M-1380 126a6 6 0 0 1 6-6h628a6 6 0 0 1 6 6v148a6 6 0 0 1-6 6h-628a6 6 0 0 1-6-6z" stroke="#000" stroke-opacity="0" stroke-width="3" fill="#b2d6ef"/><path d="M-1380 326a6 6 0 0 1 6-6h628a6 6 0 0 1 6 6v148a6 6 0 0 1-6 6h-628a6 6 0 0 1-6-6z" stroke="#000" stroke-opacity="0" stroke-width="3" fill="#ffdba9"/><path d="M-1380 326a6 6 0 0 1 6-6h208a6 6 0 0 1 6 6v28a6 6 0 0 1-6 6h-208a6 6 0 0 1-6-6z" stroke="#000" stroke-opacity="0" stroke-width="3" fill="#fff" fill-opacity="0"/><use xlink:href="#a" transform="matrix(1,0,0,1,-1375,325) translate(0 14.399999999999967)"/><use xlink:href="#b" transform="matrix(1,0,0,1,-1375,325) translate(72.69999999999983 14.399999999999967)"/><path d="M-1340 166a6 6 0 0 1 6-6h148a6 6 0 0 1 6 6v68a6 6 0 0 1-6 6h-148a6 6 0 0 1-6-6z" stroke="#000" stroke-opacity="0" stroke-width="3" fill="#0c7cba"/><use xlink:href="#c" transform="matrix(1,0,0,1,-1328,172) translate(43.525 17.9)"/><use xlink:href="#d" transform="matrix(1,0,0,1,-1328,172) translate(23.049999999999997 42.16666666666667)"/><path d="M-1380 126a6 6 0 0 1 6-6h408a6 6 0 0 1 6 6v28a6 6 0 0 1-6 6h-408a6 6 0 0 1-6-6z" stroke="#000" stroke-opacity="0" stroke-width="3" fill="#fff" fill-opacity="0"/><use xlink:href="#e" transform="matrix(1,0,0,1,-1375,125) translate(0 14.399999999999967)"/><use xlink:href="#f" transform="matrix(1,0,0,1,-1375,125) translate(83.89999999999979 14.399999999999967)"/><use xlink:href="#g" transform="matrix(1,0,0,1,-1375,125) translate(128.8999999999997 14.399999999999967)"/><use xlink:href="#h" transform="matrix(1,0,0,1,-1375,125) translate(214.69999999999948 14.399999999999967)"/><path d="M-1300 241v60.55" stroke="#5e5e5e" stroke-width="2" fill="none"/><path d="M-1299 241.02h-2V240h2z" stroke="#5e5e5e" stroke-width=".05" fill="#5e5e5e"/><path d="M-1300 316.8l-4.64-14.25h9.27z" stroke="#5e5e5e" stroke-width="2" fill="#5e5e5e"/><path d="M-1040 366a6 6 0 0 1 6-6h248a6 6 0 0 1 6 6v68a6 6 0 0 1-6 6h-248a6 6 0 0 1-6-6z" stroke="#000" stroke-opacity="0" stroke-width="3" fill="#ef8d22"/><use xlink:href="#i" transform="matrix(1,0,0,1,-1028,372) translate(6.650000000000006 31.9)"/><use xlink:href="#j" transform="matrix(1,0,0,1,-1028,372) translate(97.45000000000002 31.9)"/><use xlink:href="#k" transform="matrix(1,0,0,1,-1028,372) translate(151.4 31.9)"/><path d="M-1340 366a6 6 0 0 1 6-6h248a6 6 0 0 1 6 6v68a6 6 0 0 1-6 6h-248a6 6 0 0 1-6-6z" stroke="#000" stroke-opacity="0" stroke-width="3" fill="#ef8d22"/><use xlink:href="#l" transform="matrix(1,0,0,1,-1328,372) translate(31.57499999999999 31.9)"/><use xlink:href="#m" transform="matrix(1,0,0,1,-1328,372) translate(99.52499999999999 31.9)"/><path d="M-1140 166a6 6 0 0 1 6-6h148a6 6 0 0 1 6 6v68a6 6 0 0 1-6 6h-148a6 6 0 0 1-6-6z" stroke="#000" stroke-opacity="0" stroke-width="3" fill="#0c7cba"/><use xlink:href="#n" transform="matrix(1,0,0,1,-1128,172) translate(27.049999999999997 17.9)"/><use xlink:href="#d" transform="matrix(1,0,0,1,-1128,172) translate(23.049999999999997 42.16666666666667)"/><path d="M-940 166a6 6 0 0 1 6-6h148a6 6 0 0 1 6 6v68a6 6 0 0 1-6 6h-148a6 6 0 0 1-6-6z" stroke="#000" stroke-opacity="0" stroke-width="3" fill="#0c7cba"/><use xlink:href="#o" transform="matrix(1,0,0,1,-928,172) translate(45.525 21.4)"/><use xlink:href="#p" transform="matrix(1,0,0,1,-928,172) translate(17.049999999999997 43)"/><path d="M-1320 26a6 6 0 0 1 6-6h88a6 6 0 0 1 6 6v62.8a6 6 0 0 1-6 6h-88a6 6 0 0 1-6-6z" stroke="#000" stroke-opacity="0" stroke-width="3" fill="#fff" fill-opacity="0"/><use xlink:href="#q" transform="matrix(1,0,0,1,-1315,25) translate(13.525000000000084 36.74374999999996)"/><path d="M-1560 126a6 6 0 0 1 6-6h128a6 6 0 0 1 6 6v348a6 6 0 0 1-6 6h-128a6 6 0 0 1-6-6z" stroke="#d1bcd2" stroke-width="2" fill="#d1bcd2"/><path d="M-1560 126a6 6 0 0 1 6-6h168a6 6 0 0 1 6 6v28a6 6 0 0 1-6 6h-168a6 6 0 0 1-6-6z" stroke="#000" stroke-opacity="0" stroke-width="3" fill="#fff" fill-opacity="0"/><use xlink:href="#r" transform="matrix(1,0,0,1,-1555,125) translate(0 14.399999999999967)"/><use xlink:href="#s" transform="matrix(1,0,0,1,-1555,125) translate(0 35.999999999999915)"/><path d="M-1597.54 300h18.07" stroke="#5e5e5e" stroke-width="2" fill="none"/><path d="M-1597.5 301h-1.04v-2h1.03z" stroke="#5e5e5e" stroke-width=".05" fill="#5e5e5e"/><path d="M-1564.2 300l-14.27 4.64v-9.28z" stroke="#5e5e5e" stroke-width="2" fill="#5e5e5e"/><path d="M-1780 226a6 6 0 0 1 6-6h168a6 6 0 0 1 6 6v148a6 6 0 0 1-6 6h-168a6 6 0 0 1-6-6z" stroke="#333" stroke-width="3" fill="#fff" fill-opacity="0"/><use xlink:href="#t" transform="matrix(1,0,0,1,-1775,225) translate(0 14.399999999999963)"/><use xlink:href="#u" transform="matrix(1,0,0,1,-1775,225) translate(0 35.99999999999991)"/><use xlink:href="#v" transform="matrix(1,0,0,1,-1775,225) translate(0 57.59999999999985)"/><use xlink:href="#w" transform="matrix(1,0,0,1,-1775,225) translate(0 79.1999999999998)"/><use xlink:href="#x" transform="matrix(1,0,0,1,-1775,225) translate(9.999999999999973 79.1999999999998)"/><use xlink:href="#w" transform="matrix(1,0,0,1,-1775,225) translate(0 100.79999999999974)"/><use xlink:href="#y" transform="matrix(1,0,0,1,-1775,225) translate(9.999999999999973 100.79999999999974)"/><use xlink:href="#w" transform="matrix(1,0,0,1,-1775,225) translate(0 122.39999999999968)"/><use xlink:href="#z" transform="matrix(1,0,0,1,-1775,225) translate(9.999999999999973 122.39999999999968)"/><use xlink:href="#A" transform="matrix(1,0,0,1,-1775,225) translate(39.2999999999999 122.39999999999968)"/><use xlink:href="#B" transform="matrix(1,0,0,1,-1775,225) translate(0 143.9999999999996)"/><path d="M-1318.33 226a6 6 0 0 1 6-6h104.66a6 6 0 0 1 6 6v8a6 6 0 0 1-6 6h-104.66a6 6 0 0 1-6-6z" stroke="#000" stroke-opacity="0" stroke-width="3" fill="#19967d"/><path d="M-1300 80.5v60.55M-1300 80.52V79.5" stroke="#5e5e5e" stroke-width="2" fill="none"/><path d="M-1300 156.32l-4.64-14.27h9.28z" stroke="#5e5e5e" stroke-width="2" fill="#5e5e5e"/><path d="M-1220 258.5v60.56" stroke="#5e5e5e" stroke-width="2" fill="none"/><path d="M-1220 243.24l4.64 14.26h-9.28z" stroke="#5e5e5e" stroke-width="2" fill="#5e5e5e"/><path d="M-1220 319.03v1.03M-1220 98.5v60.56" stroke="#5e5e5e" stroke-width="2" fill="none"/><path d="M-1220 83.24l4.64 14.26h-9.28z" stroke="#5e5e5e" stroke-width="2" fill="#5e5e5e"/><path d="M-1220 159.03v1.03M-1098.34 241v60.54" stroke="#5e5e5e" stroke-width="2" fill="none"/><path d="M-1097.34 241.02h-2V240h2z" stroke="#5e5e5e" stroke-width=".05" fill="#5e5e5e"/><path d="M-1098.34 316.8l-4.63-14.26h9.27z" stroke="#5e5e5e" stroke-width="2" fill="#5e5e5e"/><path d="M-1120 26a6 6 0 0 1 6-6h108a6 6 0 0 1 6 6v62.8a6 6 0 0 1-6 6h-108a6 6 0 0 1-6-6z" stroke="#000" stroke-opacity="0" stroke-width="3" fill="#fff" fill-opacity="0"/><g><use xlink:href="#C" transform="matrix(1,0,0,1,-1115,25) translate(9.62500000000012 36.74374999999996)"/></g><path d="M-1116.67 226a6 6 0 0 1 6-6H-1006a6 6 0 0 1 6 6v8a6 6 0 0 1-6 6h-104.67a6 6 0 0 1-6-6z" stroke="#000" stroke-opacity="0" stroke-width="3" fill="#19967d"/><path d="M-1100 80.5v60.55M-1100 80.52V79.5" stroke="#5e5e5e" stroke-width="2" fill="none"/><path d="M-1100 156.32l-4.64-14.27h9.28z" stroke="#5e5e5e" stroke-width="2" fill="#5e5e5e"/><path d="M-1020.35 258.5v60.56" stroke="#5e5e5e" stroke-width="2" fill="none"/><path d="M-1020.35 243.24l4.63 14.26h-9.27z" stroke="#5e5e5e" stroke-width="2" fill="#5e5e5e"/><path d="M-1020.35 319.03v1.03M-1020 98.5v60.56" stroke="#5e5e5e" stroke-width="2" fill="none"/><path d="M-1020 83.24l4.64 14.26h-9.28z" stroke="#5e5e5e" stroke-width="2" fill="#5e5e5e"/><path d="M-1020 159.03v1.03" stroke="#5e5e5e" stroke-width="2" fill="none"/><defs><path fill="#ef8d22" d="M67-125c0 53 21 87 73 88 37 1 54-22 65-47l45 17C233-25 199 4 140 4 58 4 20-42 15-125 8-235 124-281 211-232c18 10 29 29 36 50l-46 12c-8-25-30-41-62-41-52 0-71 34-72 86" id="D"/><path fill="#ef8d22" d="M110-194c64 0 96 36 96 99 0 64-35 99-97 99-61 0-95-36-95-99 0-62 34-99 96-99zm-1 164c35 0 45-28 45-65 0-40-10-65-43-65-34 0-45 26-45 65 0 36 10 65 43 65" id="E"/><path fill="#ef8d22" d="M135-194c87-1 58 113 63 194h-50c-7-57 23-157-34-157-59 0-34 97-39 157H25l-1-190h47c2 12-1 28 3 38 12-26 28-41 61-42" id="F"/><path fill="#ef8d22" d="M115-3C79 11 28 4 28-45v-112H4v-33h27l15-45h31v45h36v33H77v99c-1 23 16 31 38 25v30" id="G"/><path fill="#ef8d22" d="M185-48c-13 30-37 53-82 52C43 2 14-33 14-96s30-98 90-98c62 0 83 45 84 108H66c0 31 8 55 39 56 18 0 30-7 34-22zm-45-69c5-46-57-63-70-21-2 6-4 13-4 21h74" id="H"/><g id="a"><use transform="matrix(0.049999999999999885,0,0,0.049999999999999885,0,0)" xlink:href="#D"/><use transform="matrix(0.049999999999999885,0,0,0.049999999999999885,12.94999999999997,0)" xlink:href="#E"/><use transform="matrix(0.049999999999999885,0,0,0.049999999999999885,23.899999999999945,0)" xlink:href="#F"/><use transform="matrix(0.049999999999999885,0,0,0.049999999999999885,34.84999999999992,0)" xlink:href="#G"/><use transform="matrix(0.049999999999999885,0,0,0.049999999999999885,40.79999999999991,0)" xlink:href="#H"/><use transform="matrix(0.049999999999999885,0,0,0.049999999999999885,50.79999999999989,0)" xlink:href="#F"/><use transform="matrix(0.049999999999999885,0,0,0.049999999999999885,61.74999999999987,0)" xlink:href="#G"/></g><path fill="#ef8d22" d="M190-63c-7 42-38 67-86 67-59 0-84-38-90-98-12-110 154-137 174-36l-49 2c-2-19-15-32-35-32-30 0-35 28-38 64-6 74 65 87 74 30" id="I"/><path fill="#ef8d22" d="M25 0v-261h50V0H25" id="J"/><path fill="#ef8d22" d="M85 4C-2 5 27-109 22-190h50c7 57-23 150 33 157 60-5 35-97 40-157h50l1 190h-47c-2-12 1-28-3-38-12 25-28 42-61 42" id="K"/><path fill="#ef8d22" d="M137-138c1-29-70-34-71-4 15 46 118 7 119 86 1 83-164 76-172 9l43-7c4 19 20 25 44 25 33 8 57-30 24-41C81-84 22-81 20-136c-2-80 154-74 161-7" id="L"/><path fill="#ef8d22" d="M135-150c-39-12-60 13-60 57V0H25l-1-190h47c2 13-1 29 3 40 6-28 27-53 61-41v41" id="M"/><g id="b"><use transform="matrix(0.049999999999999885,0,0,0.049999999999999885,0,0)" xlink:href="#I"/><use transform="matrix(0.049999999999999885,0,0,0.049999999999999885,9.999999999999977,0)" xlink:href="#J"/><use transform="matrix(0.049999999999999885,0,0,0.049999999999999885,14.999999999999966,0)" xlink:href="#K"/><use transform="matrix(0.049999999999999885,0,0,0.049999999999999885,25.94999999999994,0)" xlink:href="#L"/><use transform="matrix(0.049999999999999885,0,0,0.049999999999999885,35.94999999999992,0)" xlink:href="#G"/><use transform="matrix(0.049999999999999885,0,0,0.049999999999999885,41.899999999999906,0)" xlink:href="#H"/><use transform="matrix(0.049999999999999885,0,0,0.049999999999999885,51.89999999999988,0)" xlink:href="#M"/></g><path fill="#fff" d="M140-251c81 0 123 46 123 126C263-53 228-8 163 1c7 30 30 48 69 40v23c-55 16-95-15-103-61C56-3 17-48 17-125c0-80 42-126 123-126zm0 227c63 0 89-41 89-101s-29-99-89-99c-61 0-89 39-89 99S79-25 140-24" id="N"/><path fill="#fff" d="M84 4C-5 8 30-112 23-190h32v120c0 31 7 50 39 49 72-2 45-101 50-169h31l1 190h-30c-1-10 1-25-2-33-11 22-28 36-60 37" id="O"/><path fill="#fff" d="M100-194c63 0 86 42 84 106H49c0 40 14 67 53 68 26 1 43-12 49-29l28 8c-11 28-37 45-77 45C44 4 14-33 15-96c1-61 26-98 85-98zm52 81c6-60-76-77-97-28-3 7-6 17-6 28h103" id="P"/><path fill="#fff" d="M114-163C36-179 61-72 57 0H25l-1-190h30c1 12-1 29 2 39 6-27 23-49 58-41v29" id="Q"/><path fill="#fff" d="M179-190L93 31C79 59 56 82 12 73V49c39 6 53-20 64-50L1-190h34L92-34l54-156h33" id="R"/><g id="c"><use transform="matrix(0.05,0,0,0.05,0,0)" xlink:href="#N"/><use transform="matrix(0.05,0,0,0.05,14,0)" xlink:href="#O"/><use transform="matrix(0.05,0,0,0.05,24,0)" xlink:href="#P"/><use transform="matrix(0.05,0,0,0.05,34,0)" xlink:href="#Q"/><use transform="matrix(0.05,0,0,0.05,39.95,0)" xlink:href="#R"/></g><path fill="#fff" d="M30-248c87 1 191-15 191 75 0 78-77 80-158 76V0H30v-248zm33 125c57 0 124 11 124-50 0-59-68-47-124-48v98" id="S"/><path fill="#fff" d="M100-194c62-1 85 37 85 99 1 63-27 99-86 99S16-35 15-95c0-66 28-99 85-99zM99-20c44 1 53-31 53-75 0-43-8-75-51-75s-53 32-53 75 10 74 51 75" id="T"/><path fill="#fff" d="M96-169c-40 0-48 33-48 73s9 75 48 75c24 0 41-14 43-38l32 2c-6 37-31 61-74 61-59 0-76-41-82-99-10-93 101-131 147-64 4 7 5 14 7 22l-32 3c-4-21-16-35-41-35" id="U"/><path fill="#fff" d="M135-143c-3-34-86-38-87 0 15 53 115 12 119 90S17 21 10-45l28-5c4 36 97 45 98 0-10-56-113-15-118-90-4-57 82-63 122-42 12 7 21 19 24 35" id="V"/><g id="d"><use transform="matrix(0.05,0,0,0.05,0,0)" xlink:href="#S"/><use transform="matrix(0.05,0,0,0.05,12,0)" xlink:href="#Q"/><use transform="matrix(0.05,0,0,0.05,17.95,0)" xlink:href="#T"/><use transform="matrix(0.05,0,0,0.05,27.950000000000003,0)" xlink:href="#U"/><use transform="matrix(0.05,0,0,0.05,36.95,0)" xlink:href="#P"/><use transform="matrix(0.05,0,0,0.05,46.95,0)" xlink:href="#V"/><use transform="matrix(0.05,0,0,0.05,55.95,0)" xlink:href="#V"/><use transform="matrix(0.05,0,0,0.05,64.95,0)" xlink:href="#T"/><use transform="matrix(0.05,0,0,0.05,74.95,0)" xlink:href="#Q"/><use transform="matrix(0.05,0,0,0.05,80.9,0)" xlink:href="#V"/></g><path fill="#0c7cba" d="M169-182c-1-43-94-46-97-3 18 66 151 10 154 114 3 95-165 93-204 36-6-8-10-19-12-30l50-8c3 46 112 56 116 5-17-69-150-10-154-114-4-87 153-88 188-35 5 8 8 18 10 28" id="W"/><path fill="#0c7cba" d="M115-3C79 11 28 4 28-45v-112H4v-33h27l15-45h31v45h36v33H77v99c-1 23 16 31 38 25v30" id="X"/><path fill="#0c7cba" d="M133-34C117-15 103 5 69 4 32 3 11-16 11-54c-1-60 55-63 116-61 1-26-3-47-28-47-18 1-26 9-28 27l-52-2c7-38 36-58 82-57s74 22 75 68l1 82c-1 14 12 18 25 15v27c-30 8-71 5-69-32zm-48 3c29 0 43-24 42-57-32 0-66-3-65 30 0 17 8 27 23 27" id="Y"/><path fill="#0c7cba" d="M185-48c-13 30-37 53-82 52C43 2 14-33 14-96s30-98 90-98c62 0 83 45 84 108H66c0 31 8 55 39 56 18 0 30-7 34-22zm-45-69c5-46-57-63-70-21-2 6-4 13-4 21h74" id="Z"/><path fill="#0c7cba" d="M25 0v-261h50V0H25" id="aa"/><path fill="#0c7cba" d="M137-138c1-29-70-34-71-4 15 46 118 7 119 86 1 83-164 76-172 9l43-7c4 19 20 25 44 25 33 8 57-30 24-41C81-84 22-81 20-136c-2-80 154-74 161-7" id="ab"/><g id="e"><use transform="matrix(0.049999999999999885,0,0,0.049999999999999885,0,0)" xlink:href="#W"/><use transform="matrix(0.049999999999999885,0,0,0.049999999999999885,11.999999999999972,0)" xlink:href="#X"/><use transform="matrix(0.049999999999999885,0,0,0.049999999999999885,17.949999999999957,0)" xlink:href="#Y"/><use transform="matrix(0.049999999999999885,0,0,0.049999999999999885,27.94999999999993,0)" xlink:href="#X"/><use transform="matrix(0.049999999999999885,0,0,0.049999999999999885,33.89999999999992,0)" xlink:href="#Z"/><use transform="matrix(0.049999999999999885,0,0,0.049999999999999885,43.8999999999999,0)" xlink:href="#aa"/><use transform="matrix(0.049999999999999885,0,0,0.049999999999999885,48.899999999999885,0)" xlink:href="#Z"/><use transform="matrix(0.049999999999999885,0,0,0.049999999999999885,58.899999999999864,0)" xlink:href="#ab"/><use transform="matrix(0.049999999999999885,0,0,0.049999999999999885,68.89999999999984,0)" xlink:href="#ab"/></g><path fill="#0c7cba" d="M176-78C186 10 51 31 16-35c-5-9-9-19-11-32l52-8c4 21 12 37 35 38 23 0 32-16 32-40v-130H75v-41h101v170" id="ac"/><path fill="#0c7cba" d="M128 0H69L1-190h53L99-40l48-150h52" id="ad"/><g id="f"><use transform="matrix(0.049999999999999885,0,0,0.049999999999999885,0,0)" xlink:href="#ac"/><use transform="matrix(0.049999999999999885,0,0,0.049999999999999885,9.999999999999977,0)" xlink:href="#Y"/><use transform="matrix(0.049999999999999885,0,0,0.049999999999999885,19.999999999999954,0)" xlink:href="#ad"/><use transform="matrix(0.049999999999999885,0,0,0.049999999999999885,29.999999999999932,0)" xlink:href="#Y"/></g><path fill="#0c7cba" d="M190-63c-7 42-38 67-86 67-59 0-84-38-90-98-12-110 154-137 174-36l-49 2c-2-19-15-32-35-32-30 0-35 28-38 64-6 74 65 87 74 30" id="ae"/><path fill="#0c7cba" d="M110-194c64 0 96 36 96 99 0 64-35 99-97 99-61 0-95-36-95-99 0-62 34-99 96-99zm-1 164c35 0 45-28 45-65 0-40-10-65-43-65-34 0-45 26-45 65 0 36 10 65 43 65" id="af"/><path fill="#0c7cba" d="M135-194c87-1 58 113 63 194h-50c-7-57 23-157-34-157-59 0-34 97-39 157H25l-1-190h47c2 12-1 28 3 38 12-26 28-41 61-42" id="ag"/><path fill="#0c7cba" d="M25-224v-37h50v37H25zM25 0v-190h50V0H25" id="ah"/><path fill="#0c7cba" d="M135-150c-39-12-60 13-60 57V0H25l-1-190h47c2 13-1 29 3 40 6-28 27-53 61-41v41" id="ai"/><g id="g"><use transform="matrix(0.049999999999999885,0,0,0.049999999999999885,0,0)" xlink:href="#ae"/><use transform="matrix(0.049999999999999885,0,0,0.049999999999999885,9.999999999999977,0)" xlink:href="#af"/><use transform="matrix(0.049999999999999885,0,0,0.049999999999999885,20.949999999999953,0)" xlink:href="#ag"/><use transform="matrix(0.049999999999999885,0,0,0.049999999999999885,31.899999999999928,0)" xlink:href="#X"/><use transform="matrix(0.049999999999999885,0,0,0.049999999999999885,37.849999999999916,0)" xlink:href="#Y"/><use transform="matrix(0.049999999999999885,0,0,0.049999999999999885,47.849999999999895,0)" xlink:href="#ah"/><use transform="matrix(0.049999999999999885,0,0,0.049999999999999885,52.84999999999988,0)" xlink:href="#ag"/><use transform="matrix(0.049999999999999885,0,0,0.049999999999999885,63.799999999999855,0)" xlink:href="#Z"/><use transform="matrix(0.049999999999999885,0,0,0.049999999999999885,73.79999999999983,0)" xlink:href="#ai"/></g><path fill="#0c7cba" d="M85 4C-2 5 27-109 22-190h50c7 57-23 150 33 157 60-5 35-97 40-157h50l1 190h-47c-2-12 1-28-3-38-12 25-28 42-61 42" id="aj"/><g id="h"><use transform="matrix(0.049999999999999885,0,0,0.049999999999999885,0,0)" xlink:href="#ae"/><use transform="matrix(0.049999999999999885,0,0,0.049999999999999885,9.999999999999977,0)" xlink:href="#aa"/><use transform="matrix(0.049999999999999885,0,0,0.049999999999999885,14.999999999999966,0)" xlink:href="#aj"/><use transform="matrix(0.049999999999999885,0,0,0.049999999999999885,25.94999999999994,0)" xlink:href="#ab"/><use transform="matrix(0.049999999999999885,0,0,0.049999999999999885,35.94999999999992,0)" xlink:href="#X"/><use transform="matrix(0.049999999999999885,0,0,0.049999999999999885,41.899999999999906,0)" xlink:href="#Z"/><use transform="matrix(0.049999999999999885,0,0,0.049999999999999885,51.89999999999988,0)" xlink:href="#ai"/></g><path fill="#fff" d="M30-248c118-7 216 8 213 122C240-48 200 0 122 0H30v-248zM63-27c89 8 146-16 146-99s-60-101-146-95v194" id="ak"/><path fill="#fff" d="M24-231v-30h32v30H24zM24 0v-190h32V0H24" id="al"/><path fill="#fff" d="M59-47c-2 24 18 29 38 22v24C64 9 27 4 27-40v-127H5v-23h24l9-43h21v43h35v23H59v120" id="am"/><path fill="#fff" d="M115-194c53 0 69 39 70 98 0 66-23 100-70 100C84 3 66-7 56-30L54 0H23l1-261h32v101c10-23 28-34 59-34zm-8 174c40 0 45-34 45-75 0-40-5-75-45-74-42 0-51 32-51 76 0 43 10 73 51 73" id="an"/><path fill="#fff" d="M85-194c31 0 48 13 60 33l-1-100h32l1 261h-30c-2-10 0-23-3-31C134-8 116 4 85 4 32 4 16-35 15-94c0-66 23-100 70-100zm9 24c-40 0-46 34-46 75 0 40 6 74 45 74 42 0 51-32 51-76 0-42-9-74-50-73" id="ao"/><g id="i"><use transform="matrix(0.05,0,0,0.05,0,0)" xlink:href="#ak"/><use transform="matrix(0.05,0,0,0.05,12.950000000000001,0)" xlink:href="#al"/><use transform="matrix(0.05,0,0,0.05,16.900000000000002,0)" xlink:href="#V"/><use transform="matrix(0.05,0,0,0.05,25.900000000000002,0)" xlink:href="#am"/><use transform="matrix(0.05,0,0,0.05,30.900000000000002,0)" xlink:href="#Q"/><use transform="matrix(0.05,0,0,0.05,36.85,0)" xlink:href="#al"/><use transform="matrix(0.05,0,0,0.05,40.800000000000004,0)" xlink:href="#an"/><use transform="matrix(0.05,0,0,0.05,50.800000000000004,0)" xlink:href="#O"/><use transform="matrix(0.05,0,0,0.05,60.800000000000004,0)" xlink:href="#am"/><use transform="matrix(0.05,0,0,0.05,65.80000000000001,0)" xlink:href="#P"/><use transform="matrix(0.05,0,0,0.05,75.80000000000001,0)" xlink:href="#ao"/></g><g id="j"><use transform="matrix(0.05,0,0,0.05,0,0)" xlink:href="#N"/><use transform="matrix(0.05,0,0,0.05,14,0)" xlink:href="#O"/><use transform="matrix(0.05,0,0,0.05,24,0)" xlink:href="#P"/><use transform="matrix(0.05,0,0,0.05,34,0)" xlink:href="#Q"/><use transform="matrix(0.05,0,0,0.05,39.95,0)" xlink:href="#R"/></g><path fill="#fff" d="M30 0v-248h187v28H63v79h144v27H63v87h162V0H30" id="ap"/><path fill="#fff" d="M141 0L90-78 38 0H4l68-98-65-92h35l48 74 47-74h35l-64 92 68 98h-35" id="aq"/><path fill="#fff" d="M117-194c89-4 53 116 60 194h-32v-121c0-31-8-49-39-48C34-167 62-67 57 0H25l-1-190h30c1 10-1 24 2 32 11-22 29-35 61-36" id="ar"/><g id="k"><use transform="matrix(0.05,0,0,0.05,0,0)" xlink:href="#ap"/><use transform="matrix(0.05,0,0,0.05,12,0)" xlink:href="#aq"/><use transform="matrix(0.05,0,0,0.05,21,0)" xlink:href="#P"/><use transform="matrix(0.05,0,0,0.05,31,0)" xlink:href="#U"/><use transform="matrix(0.05,0,0,0.05,40,0)" xlink:href="#O"/><use transform="matrix(0.05,0,0,0.05,50,0)" xlink:href="#am"/><use transform="matrix(0.05,0,0,0.05,55,0)" xlink:href="#al"/><use transform="matrix(0.05,0,0,0.05,58.95,0)" xlink:href="#T"/><use transform="matrix(0.05,0,0,0.05,68.95,0)" xlink:href="#ar"/></g><path fill="#fff" d="M212-179c-10-28-35-45-73-45-59 0-87 40-87 99 0 60 29 101 89 101 43 0 62-24 78-52l27 14C228-24 195 4 139 4 59 4 22-46 18-125c-6-104 99-153 187-111 19 9 31 26 39 46" id="as"/><g id="l"><use transform="matrix(0.05,0,0,0.05,0,0)" xlink:href="#as"/><use transform="matrix(0.05,0,0,0.05,12.950000000000001,0)" xlink:href="#T"/><use transform="matrix(0.05,0,0,0.05,22.950000000000003,0)" xlink:href="#ar"/><use transform="matrix(0.05,0,0,0.05,32.95,0)" xlink:href="#am"/><use transform="matrix(0.05,0,0,0.05,37.95,0)" xlink:href="#P"/><use transform="matrix(0.05,0,0,0.05,47.95,0)" xlink:href="#ar"/><use transform="matrix(0.05,0,0,0.05,57.95,0)" xlink:href="#am"/></g><path fill="#fff" d="M240 0l2-218c-23 76-54 145-80 218h-23L58-218 59 0H30v-248h44l77 211c21-75 51-140 76-211h43V0h-30" id="at"/><path fill="#fff" d="M141-36C126-15 110 5 73 4 37 3 15-17 15-53c-1-64 63-63 125-63 3-35-9-54-41-54-24 1-41 7-42 31l-33-3c5-37 33-52 76-52 45 0 72 20 72 64v82c-1 20 7 32 28 27v20c-31 9-61-2-59-35zM48-53c0 20 12 33 32 33 41-3 63-29 60-74-43 2-92-5-92 41" id="au"/><path fill="#fff" d="M177-190C167-65 218 103 67 71c-23-6-38-20-44-43l32-5c15 47 100 32 89-28v-30C133-14 115 1 83 1 29 1 15-40 15-95c0-56 16-97 71-98 29-1 48 16 59 35 1-10 0-23 2-32h30zM94-22c36 0 50-32 50-73 0-42-14-75-50-75-39 0-46 34-46 75s6 73 46 73" id="av"/><path fill="#fff" d="M210-169c-67 3-38 105-44 169h-31v-121c0-29-5-50-35-48C34-165 62-65 56 0H25l-1-190h30c1 10-1 24 2 32 10-44 99-50 107 0 11-21 27-35 58-36 85-2 47 119 55 194h-31v-121c0-29-5-49-35-48" id="aw"/><g id="m"><use transform="matrix(0.05,0,0,0.05,0,0)" xlink:href="#at"/><use transform="matrix(0.05,0,0,0.05,14.950000000000001,0)" xlink:href="#au"/><use transform="matrix(0.05,0,0,0.05,24.950000000000003,0)" xlink:href="#ar"/><use transform="matrix(0.05,0,0,0.05,34.95,0)" xlink:href="#au"/><use transform="matrix(0.05,0,0,0.05,44.95,0)" xlink:href="#av"/><use transform="matrix(0.05,0,0,0.05,54.95,0)" xlink:href="#P"/><use transform="matrix(0.05,0,0,0.05,64.95,0)" xlink:href="#aw"/><use transform="matrix(0.05,0,0,0.05,79.9,0)" xlink:href="#P"/><use transform="matrix(0.05,0,0,0.05,89.9,0)" xlink:href="#ar"/><use transform="matrix(0.05,0,0,0.05,99.9,0)" xlink:href="#am"/></g><g id="n"><use transform="matrix(0.05,0,0,0.05,0,0)" xlink:href="#ak"/><use transform="matrix(0.05,0,0,0.05,12.950000000000001,0)" xlink:href="#T"/><use transform="matrix(0.05,0,0,0.05,22.950000000000003,0)" xlink:href="#U"/><use transform="matrix(0.05,0,0,0.05,31.950000000000003,0)" xlink:href="#O"/><use transform="matrix(0.05,0,0,0.05,41.95,0)" xlink:href="#aw"/><use transform="matrix(0.05,0,0,0.05,56.900000000000006,0)" xlink:href="#P"/><use transform="matrix(0.05,0,0,0.05,66.9,0)" xlink:href="#ar"/><use transform="matrix(0.05,0,0,0.05,76.9,0)" xlink:href="#am"/></g><path fill="#fff" d="M140-251c81 0 123 46 123 126C263-46 219 4 140 4 59 4 17-45 17-125s42-126 123-126zm0 227c63 0 89-41 89-101s-29-99-89-99c-61 0-89 39-89 99S79-25 140-24" id="ax"/><path fill="#fff" d="M106-169C34-169 62-67 57 0H25v-261h32l-1 103c12-21 28-36 61-36 89 0 53 116 60 194h-32v-121c2-32-8-49-39-48" id="ay"/><g id="o"><use transform="matrix(0.05,0,0,0.05,0,0)" xlink:href="#ax"/><use transform="matrix(0.05,0,0,0.05,14,0)" xlink:href="#am"/><use transform="matrix(0.05,0,0,0.05,19,0)" xlink:href="#ay"/><use transform="matrix(0.05,0,0,0.05,29,0)" xlink:href="#P"/><use transform="matrix(0.05,0,0,0.05,39,0)" xlink:href="#Q"/></g><path fill="#fff" d="M115-194c55 1 70 41 70 98S169 2 115 4C84 4 66-9 55-30l1 105H24l-1-265h31l2 30c10-21 28-34 59-34zm-8 174c40 0 45-34 45-75s-6-73-45-74c-42 0-51 32-51 76 0 43 10 73 51 73" id="az"/><g id="p"><use transform="matrix(0.05,0,0,0.05,0,0)" xlink:href="#as"/><use transform="matrix(0.05,0,0,0.05,12.950000000000001,0)" xlink:href="#T"/><use transform="matrix(0.05,0,0,0.05,22.950000000000003,0)" xlink:href="#aw"/><use transform="matrix(0.05,0,0,0.05,37.900000000000006,0)" xlink:href="#az"/><use transform="matrix(0.05,0,0,0.05,47.900000000000006,0)" xlink:href="#T"/><use transform="matrix(0.05,0,0,0.05,57.900000000000006,0)" xlink:href="#ar"/><use transform="matrix(0.05,0,0,0.05,67.9,0)" xlink:href="#P"/><use transform="matrix(0.05,0,0,0.05,77.9,0)" xlink:href="#ar"/><use transform="matrix(0.05,0,0,0.05,87.9,0)" xlink:href="#am"/><use transform="matrix(0.05,0,0,0.05,92.9,0)" xlink:href="#V"/></g><path fill="#333" d="M137-138c1-29-70-34-71-4 15 46 118 7 119 86 1 83-164 76-172 9l43-7c4 19 20 25 44 25 33 8 57-30 24-41C81-84 22-81 20-136c-2-80 154-74 161-7" id="aA"/><path fill="#333" d="M185-48c-13 30-37 53-82 52C43 2 14-33 14-96s30-98 90-98c62 0 83 45 84 108H66c0 31 8 55 39 56 18 0 30-7 34-22zm-45-69c5-46-57-63-70-21-2 6-4 13-4 21h74" id="aB"/><path fill="#333" d="M133-34C117-15 103 5 69 4 32 3 11-16 11-54c-1-60 55-63 116-61 1-26-3-47-28-47-18 1-26 9-28 27l-52-2c7-38 36-58 82-57s74 22 75 68l1 82c-1 14 12 18 25 15v27c-30 8-71 5-69-32zm-48 3c29 0 43-24 42-57-32 0-66-3-65 30 0 17 8 27 23 27" id="aC"/><path fill="#333" d="M135-150c-39-12-60 13-60 57V0H25l-1-190h47c2 13-1 29 3 40 6-28 27-53 61-41v41" id="aD"/><path fill="#333" d="M190-63c-7 42-38 67-86 67-59 0-84-38-90-98-12-110 154-137 174-36l-49 2c-2-19-15-32-35-32-30 0-35 28-38 64-6 74 65 87 74 30" id="aE"/><path fill="#333" d="M114-157C55-157 80-60 75 0H25v-261h50l-1 109c12-26 28-41 61-42 86-1 58 113 63 194h-50c-7-57 23-157-34-157" id="aF"/><path fill="#333" d="M4 7l51-268h42L46 7H4" id="aG"/><g id="q"><use transform="matrix(0.04999999999999987,0,0,0.04999999999999987,0,0)" xlink:href="#aA"/><use transform="matrix(0.04999999999999987,0,0,0.04999999999999987,9.999999999999973,0)" xlink:href="#aB"/><use transform="matrix(0.04999999999999987,0,0,0.04999999999999987,19.999999999999947,0)" xlink:href="#aC"/><use transform="matrix(0.04999999999999987,0,0,0.04999999999999987,29.999999999999922,0)" xlink:href="#aD"/><use transform="matrix(0.04999999999999987,0,0,0.04999999999999987,36.9999999999999,0)" xlink:href="#aE"/><use transform="matrix(0.04999999999999987,0,0,0.04999999999999987,46.99999999999987,0)" xlink:href="#aF"/><use transform="matrix(0.04999999999999987,0,0,0.04999999999999987,57.949999999999854,0)" xlink:href="#aG"/></g><path fill="#834187" d="M199 0l-22-63H83L61 0H9l90-248h61L250 0h-51zm-33-102l-36-108c-10 38-24 72-36 108h72" id="aH"/><path fill="#834187" d="M88-194c31-1 46 15 58 34l-1-101h50l1 261h-48c-2-10 0-23-3-31C134-8 116 4 84 4 32 4 16-41 15-95c0-56 19-97 73-99zm17 164c33 0 40-30 41-66 1-37-9-64-41-64s-38 30-39 65c0 43 13 65 39 65" id="aI"/><path fill="#834187" d="M220-157c-53 9-28 100-34 157h-49v-107c1-27-5-49-29-50C55-147 81-57 75 0H25l-1-190h47c2 12-1 28 3 38 10-53 101-56 108 0 13-22 24-43 59-42 82 1 51 116 57 194h-49v-107c-1-25-5-48-29-50" id="aJ"/><path fill="#834187" d="M25-224v-37h50v37H25zM25 0v-190h50V0H25" id="aK"/><path fill="#834187" d="M135-194c87-1 58 113 63 194h-50c-7-57 23-157-34-157-59 0-34 97-39 157H25l-1-190h47c2 12-1 28 3 38 12-26 28-41 61-42" id="aL"/><path fill="#834187" d="M4 7l51-268h42L46 7H4" id="aM"/><path fill="#834187" d="M67-125c0 53 21 87 73 88 37 1 54-22 65-47l45 17C233-25 199 4 140 4 58 4 20-42 15-125 8-235 124-281 211-232c18 10 29 29 36 50l-46 12c-8-25-30-41-62-41-52 0-71 34-72 86" id="aN"/><path fill="#834187" d="M110-194c64 0 96 36 96 99 0 64-35 99-97 99-61 0-95-36-95-99 0-62 34-99 96-99zm-1 164c35 0 45-28 45-65 0-40-10-65-43-65-34 0-45 26-45 65 0 36 10 65 43 65" id="aO"/><path fill="#834187" d="M121-226c-27-7-43 5-38 36h38v33H83V0H34v-157H6v-33h28c-9-59 32-81 87-68v32" id="aP"/><path fill="#834187" d="M195-6C206 82 75 100 31 46c-4-6-6-13-8-21l49-6c3 16 16 24 34 25 40 0 42-37 40-79-11 22-30 35-61 35-53 0-70-43-70-97 0-56 18-96 73-97 30 0 46 14 59 34l2-30h47zm-90-29c32 0 41-27 41-63 0-35-9-62-40-62-32 0-39 29-40 63 0 36 9 62 39 62" id="aQ"/><g id="r"><use transform="matrix(0.049999999999999885,0,0,0.049999999999999885,0,0)" xlink:href="#aH"/><use transform="matrix(0.049999999999999885,0,0,0.049999999999999885,12.94999999999997,0)" xlink:href="#aI"/><use transform="matrix(0.049999999999999885,0,0,0.049999999999999885,23.899999999999945,0)" xlink:href="#aJ"/><use transform="matrix(0.049999999999999885,0,0,0.049999999999999885,39.899999999999906,0)" xlink:href="#aK"/><use transform="matrix(0.049999999999999885,0,0,0.049999999999999885,44.89999999999989,0)" xlink:href="#aL"/><use transform="matrix(0.049999999999999885,0,0,0.049999999999999885,55.84999999999987,0)" xlink:href="#aM"/><use transform="matrix(0.049999999999999885,0,0,0.049999999999999885,60.849999999999845,0)" xlink:href="#aN"/><use transform="matrix(0.049999999999999885,0,0,0.049999999999999885,73.79999999999983,0)" xlink:href="#aO"/><use transform="matrix(0.049999999999999885,0,0,0.049999999999999885,84.7499999999998,0)" xlink:href="#aL"/><use transform="matrix(0.049999999999999885,0,0,0.049999999999999885,95.69999999999978,0)" xlink:href="#aP"/><use transform="matrix(0.049999999999999885,0,0,0.049999999999999885,101.64999999999976,0)" xlink:href="#aK"/><use transform="matrix(0.049999999999999885,0,0,0.049999999999999885,106.64999999999975,0)" xlink:href="#aQ"/></g><path fill="#834187" d="M190-63c-7 42-38 67-86 67-59 0-84-38-90-98-12-110 154-137 174-36l-49 2c-2-19-15-32-35-32-30 0-35 28-38 64-6 74 65 87 74 30" id="aR"/><path fill="#834187" d="M25 0v-261h50V0H25" id="aS"/><path fill="#834187" d="M85 4C-2 5 27-109 22-190h50c7 57-23 150 33 157 60-5 35-97 40-157h50l1 190h-47c-2-12 1-28-3-38-12 25-28 42-61 42" id="aT"/><path fill="#834187" d="M137-138c1-29-70-34-71-4 15 46 118 7 119 86 1 83-164 76-172 9l43-7c4 19 20 25 44 25 33 8 57-30 24-41C81-84 22-81 20-136c-2-80 154-74 161-7" id="aU"/><path fill="#834187" d="M115-3C79 11 28 4 28-45v-112H4v-33h27l15-45h31v45h36v33H77v99c-1 23 16 31 38 25v30" id="aV"/><path fill="#834187" d="M185-48c-13 30-37 53-82 52C43 2 14-33 14-96s30-98 90-98c62 0 83 45 84 108H66c0 31 8 55 39 56 18 0 30-7 34-22zm-45-69c5-46-57-63-70-21-2 6-4 13-4 21h74" id="aW"/><path fill="#834187" d="M135-150c-39-12-60 13-60 57V0H25l-1-190h47c2 13-1 29 3 40 6-28 27-53 61-41v41" id="aX"/><g id="s"><use transform="matrix(0.049999999999999885,0,0,0.049999999999999885,0,0)" xlink:href="#aR"/><use transform="matrix(0.049999999999999885,0,0,0.049999999999999885,9.999999999999977,0)" xlink:href="#aS"/><use transform="matrix(0.049999999999999885,0,0,0.049999999999999885,14.999999999999966,0)" xlink:href="#aT"/><use transform="matrix(0.049999999999999885,0,0,0.049999999999999885,25.94999999999994,0)" xlink:href="#aU"/><use transform="matrix(0.049999999999999885,0,0,0.049999999999999885,35.94999999999992,0)" xlink:href="#aV"/><use transform="matrix(0.049999999999999885,0,0,0.049999999999999885,41.899999999999906,0)" xlink:href="#aW"/><use transform="matrix(0.049999999999999885,0,0,0.049999999999999885,51.89999999999988,0)" xlink:href="#aX"/></g><path fill="#333" d="M199 0l-22-63H83L61 0H9l90-248h61L250 0h-51zm-33-102l-36-108c-10 38-24 72-36 108h72" id="aY"/><path fill="#333" d="M135-194c53 0 70 44 70 98 0 56-19 98-73 100-31 1-45-17-59-34 3 33 2 69 2 105H25l-1-265h48c2 10 0 23 3 31 11-24 29-35 60-35zM114-30c33 0 39-31 40-66 0-38-9-64-40-64-56 0-55 130 0 130" id="aZ"/><path fill="#333" d="M25 0v-261h50V0H25" id="ba"/><path fill="#333" d="M25-224v-37h50v37H25zM25 0v-190h50V0H25" id="bb"/><path fill="#333" d="M115-3C79 11 28 4 28-45v-112H4v-33h27l15-45h31v45h36v33H77v99c-1 23 16 31 38 25v30" id="bc"/><path fill="#333" d="M110-194c64 0 96 36 96 99 0 64-35 99-97 99-61 0-95-36-95-99 0-62 34-99 96-99zm-1 164c35 0 45-28 45-65 0-40-10-65-43-65-34 0-45 26-45 65 0 36 10 65 43 65" id="bd"/><path fill="#333" d="M135-194c87-1 58 113 63 194h-50c-7-57 23-157-34-157-59 0-34 97-39 157H25l-1-190h47c2 12-1 28 3 38 12-26 28-41 61-42" id="be"/><g id="t"><use transform="matrix(0.04999999999999987,0,0,0.04999999999999987,0,0)" xlink:href="#aY"/><use transform="matrix(0.04999999999999987,0,0,0.04999999999999987,12.949999999999967,0)" xlink:href="#aZ"/><use transform="matrix(0.04999999999999987,0,0,0.04999999999999987,23.899999999999938,0)" xlink:href="#aZ"/><use transform="matrix(0.04999999999999987,0,0,0.04999999999999987,34.84999999999991,0)" xlink:href="#ba"/><use transform="matrix(0.04999999999999987,0,0,0.04999999999999987,39.849999999999895,0)" xlink:href="#bb"/><use transform="matrix(0.04999999999999987,0,0,0.04999999999999987,44.84999999999988,0)" xlink:href="#aE"/><use transform="matrix(0.04999999999999987,0,0,0.04999999999999987,54.849999999999845,0)" xlink:href="#aC"/><use transform="matrix(0.04999999999999987,0,0,0.04999999999999987,64.84999999999982,0)" xlink:href="#bc"/><use transform="matrix(0.04999999999999987,0,0,0.04999999999999987,70.79999999999981,0)" xlink:href="#bb"/><use transform="matrix(0.04999999999999987,0,0,0.04999999999999987,75.7999999999998,0)" xlink:href="#bd"/><use transform="matrix(0.04999999999999987,0,0,0.04999999999999987,86.74999999999977,0)" xlink:href="#be"/></g><path fill="#333" d="M147 0L96-86 75-71V0H25v-261h50v150l67-79h53l-66 74L201 0h-54" id="bf"/><path fill="#333" d="M195-6C206 82 75 100 31 46c-4-6-6-13-8-21l49-6c3 16 16 24 34 25 40 0 42-37 40-79-11 22-30 35-61 35-53 0-70-43-70-97 0-56 18-96 73-97 30 0 46 14 59 34l2-30h47zm-90-29c32 0 41-27 41-63 0-35-9-62-40-62-32 0-39 29-40 63 0 36 9 62 39 62" id="bg"/><g id="u"><use transform="matrix(0.04999999999999987,0,0,0.04999999999999987,0,0)" xlink:href="#aZ"/><use transform="matrix(0.04999999999999987,0,0,0.04999999999999987,10.94999999999997,0)" xlink:href="#aC"/><use transform="matrix(0.04999999999999987,0,0,0.04999999999999987,20.949999999999946,0)" xlink:href="#aE"/><use transform="matrix(0.04999999999999987,0,0,0.04999999999999987,30.94999999999992,0)" xlink:href="#bf"/><use transform="matrix(0.04999999999999987,0,0,0.04999999999999987,40.94999999999989,0)" xlink:href="#aC"/><use transform="matrix(0.04999999999999987,0,0,0.04999999999999987,50.94999999999986,0)" xlink:href="#bg"/><use transform="matrix(0.04999999999999987,0,0,0.04999999999999987,61.89999999999984,0)" xlink:href="#aB"/></g><path fill="#333" d="M212-179c-10-28-35-45-73-45-59 0-87 40-87 99 0 60 29 101 89 101 43 0 62-24 78-52l27 14C228-24 195 4 139 4 59 4 22-46 18-125c-6-104 99-153 187-111 19 9 31 26 39 46" id="bh"/><path fill="#333" d="M100-194c62-1 85 37 85 99 1 63-27 99-86 99S16-35 15-95c0-66 28-99 85-99zM99-20c44 1 53-31 53-75 0-43-8-75-51-75s-53 32-53 75 10 74 51 75" id="bi"/><path fill="#333" d="M117-194c89-4 53 116 60 194h-32v-121c0-31-8-49-39-48C34-167 62-67 57 0H25l-1-190h30c1 10-1 24 2 32 11-22 29-35 61-36" id="bj"/><path fill="#333" d="M101-234c-31-9-42 10-38 44h38v23H63V0H32v-167H5v-23h27c-7-52 17-82 69-68v24" id="bk"/><path fill="#333" d="M24-231v-30h32v30H24zM24 0v-190h32V0H24" id="bl"/><path fill="#333" d="M177-190C167-65 218 103 67 71c-23-6-38-20-44-43l32-5c15 47 100 32 89-28v-30C133-14 115 1 83 1 29 1 15-40 15-95c0-56 16-97 71-98 29-1 48 16 59 35 1-10 0-23 2-32h30zM94-22c36 0 50-32 50-73 0-42-14-75-50-75-39 0-46 34-46 75s6 73 46 73" id="bm"/><path fill="#333" d="M84 4C-5 8 30-112 23-190h32v120c0 31 7 50 39 49 72-2 45-101 50-169h31l1 190h-30c-1-10 1-25-2-33-11 22-28 36-60 37" id="bn"/><path fill="#333" d="M114-163C36-179 61-72 57 0H25l-1-190h30c1 12-1 29 2 39 6-27 23-49 58-41v29" id="bo"/><path fill="#333" d="M141-36C126-15 110 5 73 4 37 3 15-17 15-53c-1-64 63-63 125-63 3-35-9-54-41-54-24 1-41 7-42 31l-33-3c5-37 33-52 76-52 45 0 72 20 72 64v82c-1 20 7 32 28 27v20c-31 9-61-2-59-35zM48-53c0 20 12 33 32 33 41-3 63-29 60-74-43 2-92-5-92 41" id="bp"/><path fill="#333" d="M59-47c-2 24 18 29 38 22v24C64 9 27 4 27-40v-127H5v-23h24l9-43h21v43h35v23H59v120" id="bq"/><g id="x"><use transform="matrix(0.04999999999999987,0,0,0.04999999999999987,0,0)" xlink:href="#bh"/><use transform="matrix(0.04999999999999987,0,0,0.04999999999999987,12.949999999999967,0)" xlink:href="#bi"/><use transform="matrix(0.04999999999999987,0,0,0.04999999999999987,22.94999999999994,0)" xlink:href="#bj"/><use transform="matrix(0.04999999999999987,0,0,0.04999999999999987,32.94999999999991,0)" xlink:href="#bk"/><use transform="matrix(0.04999999999999987,0,0,0.04999999999999987,37.949999999999896,0)" xlink:href="#bl"/><use transform="matrix(0.04999999999999987,0,0,0.04999999999999987,41.899999999999885,0)" xlink:href="#bm"/><use transform="matrix(0.04999999999999987,0,0,0.04999999999999987,51.89999999999986,0)" xlink:href="#bn"/><use transform="matrix(0.04999999999999987,0,0,0.04999999999999987,61.89999999999983,0)" xlink:href="#bo"/><use transform="matrix(0.04999999999999987,0,0,0.04999999999999987,67.84999999999981,0)" xlink:href="#bp"/><use transform="matrix(0.04999999999999987,0,0,0.04999999999999987,77.84999999999978,0)" xlink:href="#bq"/><use transform="matrix(0.04999999999999987,0,0,0.04999999999999987,82.84999999999977,0)" xlink:href="#bl"/><use transform="matrix(0.04999999999999987,0,0,0.04999999999999987,86.79999999999976,0)" xlink:href="#bi"/><use transform="matrix(0.04999999999999987,0,0,0.04999999999999987,96.79999999999973,0)" xlink:href="#bj"/></g><path fill="#333" d="M210-169c-67 3-38 105-44 169h-31v-121c0-29-5-50-35-48C34-165 62-65 56 0H25l-1-190h30c1 10-1 24 2 32 10-44 99-50 107 0 11-21 27-35 58-36 85-2 47 119 55 194h-31v-121c0-29-5-49-35-48" id="br"/><path fill="#333" d="M115-194c55 1 70 41 70 98S169 2 115 4C84 4 66-9 55-30l1 105H24l-1-265h31l2 30c10-21 28-34 59-34zm-8 174c40 0 45-34 45-75s-6-73-45-74c-42 0-51 32-51 76 0 43 10 73 51 73" id="bs"/><path fill="#333" d="M100-194c63 0 86 42 84 106H49c0 40 14 67 53 68 26 1 43-12 49-29l28 8c-11 28-37 45-77 45C44 4 14-33 15-96c1-61 26-98 85-98zm52 81c6-60-76-77-97-28-3 7-6 17-6 28h103" id="bt"/><path fill="#333" d="M135-143c-3-34-86-38-87 0 15 53 115 12 119 90S17 21 10-45l28-5c4 36 97 45 98 0-10-56-113-15-118-90-4-57 82-63 122-42 12 7 21 19 24 35" id="bu"/><g id="y"><use transform="matrix(0.04999999999999987,0,0,0.04999999999999987,0,0)" xlink:href="#bh"/><use transform="matrix(0.04999999999999987,0,0,0.04999999999999987,12.949999999999967,0)" xlink:href="#bi"/><use transform="matrix(0.04999999999999987,0,0,0.04999999999999987,22.94999999999994,0)" xlink:href="#br"/><use transform="matrix(0.04999999999999987,0,0,0.04999999999999987,37.8999999999999,0)" xlink:href="#bs"/><use transform="matrix(0.04999999999999987,0,0,0.04999999999999987,47.89999999999987,0)" xlink:href="#bi"/><use transform="matrix(0.04999999999999987,0,0,0.04999999999999987,57.89999999999984,0)" xlink:href="#bj"/><use transform="matrix(0.04999999999999987,0,0,0.04999999999999987,67.89999999999982,0)" xlink:href="#bt"/><use transform="matrix(0.04999999999999987,0,0,0.04999999999999987,77.89999999999979,0)" xlink:href="#bj"/><use transform="matrix(0.04999999999999987,0,0,0.04999999999999987,87.89999999999976,0)" xlink:href="#bq"/><use transform="matrix(0.04999999999999987,0,0,0.04999999999999987,92.89999999999975,0)" xlink:href="#bu"/></g><path fill="#333" d="M240 0l2-218c-23 76-54 145-80 218h-23L58-218 59 0H30v-248h44l77 211c21-75 51-140 76-211h43V0h-30" id="bv"/><path fill="#333" d="M30 0v-248h33v221h125V0H30" id="bw"/><g id="z"><use transform="matrix(0.04999999999999987,0,0,0.04999999999999987,0,0)" xlink:href="#bv"/><use transform="matrix(0.04999999999999987,0,0,0.04999999999999987,14.949999999999962,0)" xlink:href="#bw"/></g><path fill="#333" d="M85-194c31 0 48 13 60 33l-1-100h32l1 261h-30c-2-10 0-23-3-31C134-8 116 4 85 4 32 4 16-35 15-94c0-66 23-100 70-100zm9 24c-40 0-46 34-46 75 0 40 6 74 45 74 42 0 51-32 51-76 0-42-9-74-50-73" id="bx"/><path fill="#333" d="M24 0v-261h32V0H24" id="by"/><g id="A"><use transform="matrix(0.04999999999999987,0,0,0.04999999999999987,0,0)" xlink:href="#br"/><use transform="matrix(0.04999999999999987,0,0,0.04999999999999987,14.949999999999962,0)" xlink:href="#bi"/><use transform="matrix(0.04999999999999987,0,0,0.04999999999999987,24.949999999999935,0)" xlink:href="#bx"/><use transform="matrix(0.04999999999999987,0,0,0.04999999999999987,34.94999999999991,0)" xlink:href="#bt"/><use transform="matrix(0.04999999999999987,0,0,0.04999999999999987,44.94999999999988,0)" xlink:href="#by"/><use transform="matrix(0.04999999999999987,0,0,0.04999999999999987,48.89999999999987,0)" xlink:href="#bu"/></g><path fill="#333" d="M88-194c31-1 46 15 58 34l-1-101h50l1 261h-48c-2-10 0-23-3-31C134-8 116 4 84 4 32 4 16-41 15-95c0-56 19-97 73-99zm17 164c33 0 40-30 41-66 1-37-9-64-41-64s-38 30-39 65c0 43 13 65 39 65" id="bz"/><path fill="#333" d="M85 4C-2 5 27-109 22-190h50c7 57-23 150 33 157 60-5 35-97 40-157h50l1 190h-47c-2-12 1-28-3-38-12 25-28 42-61 42" id="bA"/><path fill="#333" d="M220-157c-53 9-28 100-34 157h-49v-107c1-27-5-49-29-50C55-147 81-57 75 0H25l-1-190h47c2 12-1 28 3 38 10-53 101-56 108 0 13-22 24-43 59-42 82 1 51 116 57 194h-49v-107c-1-25-5-48-29-50" id="bB"/><g id="C"><use transform="matrix(0.04999999999999987,0,0,0.04999999999999987,0,0)" xlink:href="#bz"/><use transform="matrix(0.04999999999999987,0,0,0.04999999999999987,10.94999999999997,0)" xlink:href="#bd"/><use transform="matrix(0.04999999999999987,0,0,0.04999999999999987,21.89999999999994,0)" xlink:href="#aE"/><use transform="matrix(0.04999999999999987,0,0,0.04999999999999987,31.899999999999913,0)" xlink:href="#bA"/><use transform="matrix(0.04999999999999987,0,0,0.04999999999999987,42.84999999999988,0)" xlink:href="#bB"/><use transform="matrix(0.04999999999999987,0,0,0.04999999999999987,58.84999999999984,0)" xlink:href="#aB"/><use transform="matrix(0.04999999999999987,0,0,0.04999999999999987,68.84999999999981,0)" xlink:href="#be"/><use transform="matrix(0.04999999999999987,0,0,0.04999999999999987,79.79999999999978,0)" xlink:href="#bc"/><use transform="matrix(0.04999999999999987,0,0,0.04999999999999987,85.74999999999977,0)" xlink:href="#aG"/></g></defs></g></svg>