<svg xmlns="http://www.w3.org/2000/svg" xmlns:xlink="http://www.w3.org/1999/xlink" xmlns:lucid="lucid" width="1340" height="660"><g transform="translate(1620 100)" lucid:page-tab-id="0_0"><path d="M-2000-500H0v1500h-2000z" fill="#fff"/><path d="M-1380 126a6 6 0 0 1 6-6h428a6 6 0 0 1 6 6v148a6 6 0 0 1-6 6h-428a6 6 0 0 1-6-6z" stroke="#000" stroke-opacity="0" stroke-width="3" fill="#b2d6ef"/><path d="M-1380 326a6 6 0 0 1 6-6h428a6 6 0 0 1 6 6v208a6 6 0 0 1-6 6h-428a6 6 0 0 1-6-6z" stroke="#000" stroke-opacity="0" stroke-width="3" fill="#ffdba9"/><path d="M-1380 326a6 6 0 0 1 6-6h208a6 6 0 0 1 6 6v28a6 6 0 0 1-6 6h-208a6 6 0 0 1-6-6z" stroke="#000" stroke-opacity="0" stroke-width="3" fill="#fff" fill-opacity="0"/><use xlink:href="#a" transform="matrix(1,0,0,1,-1375,325) translate(0 14.399999999999967)"/><use xlink:href="#b" transform="matrix(1,0,0,1,-1375,325) translate(72.69999999999983 14.399999999999967)"/><path d="M-1340 166a6 6 0 0 1 6-6h148a6 6 0 0 1 6 6v68a6 6 0 0 1-6 6h-148a6 6 0 0 1-6-6z" stroke="#000" stroke-opacity="0" stroke-width="3" fill="#0c7cba"/><use xlink:href="#c" transform="matrix(1,0,0,1,-1328,172) translate(27.049999999999997 17.9)"/><use xlink:href="#d" transform="matrix(1,0,0,1,-1328,172) translate(23.049999999999997 42.16666666666667)"/><path d="M-1380 126a6 6 0 0 1 6-6h408a6 6 0 0 1 6 6v28a6 6 0 0 1-6 6h-408a6 6 0 0 1-6-6z" stroke="#000" stroke-opacity="0" stroke-width="3" fill="#fff" fill-opacity="0"/><use xlink:href="#e" transform="matrix(1,0,0,1,-1375,125) translate(0 14.399999999999967)"/><use xlink:href="#f" transform="matrix(1,0,0,1,-1375,125) translate(83.89999999999979 14.399999999999967)"/><use xlink:href="#g" transform="matrix(1,0,0,1,-1375,125) translate(128.8999999999997 14.399999999999967)"/><use xlink:href="#h" transform="matrix(1,0,0,1,-1375,125) translate(214.69999999999948 14.399999999999967)"/><path d="M-1300.04 241v38.98a.02.02 0 0 1-.02.02.02.02 0 0 0-.02.02v21.48M-1300.04 241.03V240" stroke="#5e5e5e" stroke-width="2" fill="none"/><path d="M-1300.08 316.76l-4.63-14.26h9.26z" stroke="#5e5e5e" stroke-width="2" fill="#5e5e5e"/><path d="M-1340 366a6 6 0 0 1 6-6h348a6 6 0 0 1 6 6v128a6 6 0 0 1-6 6h-348a6 6 0 0 1-6-6z" stroke="#000" stroke-opacity="0" stroke-width="3" fill="#ef8d22"/><use xlink:href="#i" transform="matrix(1,0,0,1,-1328,372) translate(0 14.4)"/><use xlink:href="#j" transform="matrix(1,0,0,1,-1328,372) translate(67.95 14.4)"/><path d="M-1140 166a6 6 0 0 1 6-6h148a6 6 0 0 1 6 6v68a6 6 0 0 1-6 6h-148a6 6 0 0 1-6-6z" stroke="#000" stroke-opacity="0" stroke-width="3" fill="#0c7cba"/><use xlink:href="#k" transform="matrix(1,0,0,1,-1128,172) translate(43.525 17.9)"/><use xlink:href="#d" transform="matrix(1,0,0,1,-1128,172) translate(23.049999999999997 42.16666666666667)"/><path d="M-1377.33 53.2V74a6 6 0 0 0 6 6h95.8a6 6 0 0 1 6 6v55.5" stroke="#5e5e5e" stroke-width="2" fill="none"/><path d="M-1376.33 53.23h-2V52.2h2z" stroke="#5e5e5e" stroke-width=".05" fill="#5e5e5e"/><path d="M-1269.54 156.76l-4.63-14.26h9.27z" stroke="#5e5e5e" stroke-width="2" fill="#5e5e5e"/><path d="M-1098.37 241v39a.02.02 0 0 0 0 .02.02.02 0 0 1 .03.02v21.5M-1098.37 241.03V240" stroke="#5e5e5e" stroke-width="2" fill="none"/><path d="M-1098.34 316.8l-4.63-14.26h9.27z" stroke="#5e5e5e" stroke-width="2" fill="#5e5e5e"/><path d="M-1600-74a6 6 0 0 1 6-6h568a6 6 0 0 1 6 6V46.2a6 6 0 0 1-6 6h-568a6 6 0 0 1-6-6z" stroke="#000" stroke-opacity="0" stroke-width="3" fill="#fff" fill-opacity="0"/><use xlink:href="#l" transform="matrix(1,0,0,1,-1595,-75) translate(0 18.635416666666664)"/><use xlink:href="#m" transform="matrix(1,0,0,1,-1595,-75) translate(0 37.37673611111111)"/><use xlink:href="#n" transform="matrix(1,0,0,1,-1595,-75) translate(42.67361111111111 37.37673611111111)"/><use xlink:href="#o" transform="matrix(1,0,0,1,-1595,-75) translate(149.35763888888886 37.37673611111111)"/><use xlink:href="#p" transform="matrix(1,0,0,1,-1595,-75) translate(0 56.11805555555555)"/><use xlink:href="#q" transform="matrix(1,0,0,1,-1595,-75) translate(85.3472222222222 56.11805555555555)"/><use xlink:href="#r" transform="matrix(1,0,0,1,-1595,-75) translate(181.36284722222217 56.11805555555555)"/><use xlink:href="#s" transform="matrix(1,0,0,1,-1595,-75) translate(266.71006944444434 56.11805555555555)"/><use xlink:href="#t" transform="matrix(1,0,0,1,-1595,-75) translate(0 74.86805555555554)"/><use xlink:href="#u" transform="matrix(1,0,0,1,-1595,-75) translate(85.3472222222222 74.86805555555554)"/><use xlink:href="#v" transform="matrix(1,0,0,1,-1595,-75) translate(181.36284722222217 74.86805555555554)"/><use xlink:href="#w" transform="matrix(1,0,0,1,-1595,-75) translate(224.0364583333333 74.86805555555554)"/><use xlink:href="#x" transform="matrix(1,0,0,1,-1595,-75) translate(362.72569444444434 74.86805555555554)"/><use xlink:href="#y" transform="matrix(1,0,0,1,-1595,-75) translate(384.0624999999999 74.86805555555554)"/><use xlink:href="#z" transform="matrix(1,0,0,1,-1595,-75) translate(458.74131944444434 74.86805555555554)"/><use xlink:href="#m" transform="matrix(1,0,0,1,-1595,-75) translate(0 93.609375)"/><use xlink:href="#A" transform="matrix(1,0,0,1,-1595,-75) translate(42.67361111111111 93.609375)"/><use xlink:href="#B" transform="matrix(1,0,0,1,-1595,-75) translate(0 112.35069444444443)"/><path d="M-940-74a6 6 0 0 1 6-6h628a6 6 0 0 1 6 6V46.2a6 6 0 0 1-6 6h-628a6 6 0 0 1-6-6z" stroke="#000" stroke-opacity="0" stroke-width="3" fill="#fff" fill-opacity="0"/><g><use xlink:href="#C" transform="matrix(1,0,0,1,-935,-75) translate(0 18.635416666666664)"/><use xlink:href="#m" transform="matrix(1,0,0,1,-935,-75) translate(0 37.37673611111111)"/><use xlink:href="#D" transform="matrix(1,0,0,1,-935,-75) translate(42.67361111111111 37.37673611111111)"/><use xlink:href="#E" transform="matrix(1,0,0,1,-935,-75) translate(117.35243055555554 37.37673611111111)"/><use xlink:href="#F" transform="matrix(1,0,0,1,-935,-75) translate(202.69965277777774 37.37673611111111)"/><use xlink:href="#G" transform="matrix(1,0,0,1,-935,-75) translate(266.7100694444444 37.37673611111111)"/><use xlink:href="#H" transform="matrix(1,0,0,1,-935,-75) translate(320.05208333333326 37.37673611111111)"/><use xlink:href="#I" transform="matrix(1,0,0,1,-935,-75) translate(373.3940972222222 37.37673611111111)"/><use xlink:href="#p" transform="matrix(1,0,0,1,-935,-75) translate(0 56.11805555555555)"/><use xlink:href="#J" transform="matrix(1,0,0,1,-935,-75) translate(85.3472222222222 56.11805555555555)"/><use xlink:href="#K" transform="matrix(1,0,0,1,-935,-75) translate(586.7621527777775 56.11805555555555)"/><use xlink:href="#L" transform="matrix(1,0,0,1,-935,-75) translate(0 74.86805555555554)"/><use xlink:href="#M" transform="matrix(1,0,0,1,-935,-75) translate(42.67361111111111 74.86805555555554)"/><use xlink:href="#N" transform="matrix(1,0,0,1,-935,-75) translate(234.70486111111103 74.86805555555554)"/><use xlink:href="#O" transform="matrix(1,0,0,1,-935,-75) translate(384.0624999999999 74.86805555555554)"/><use xlink:href="#P" transform="matrix(1,0,0,1,-935,-75) translate(0 93.609375)"/><use xlink:href="#Q" transform="matrix(1,0,0,1,-935,-75) translate(0 112.35069444444443)"/></g><path d="M-1100 481c0 4.97-33.58 9-75 9s-75-4.03-75-9v-72c0-4.97 33.58-9 75-9s75 4.03 75 9z" stroke="#5e5e5e" stroke-width="3" fill="#fff"/><path d="M-1100 409c0 4.97-33.58 9-75 9s-75-4.03-75-9" stroke="#5e5e5e" stroke-width="3" fill="none"/><g><use xlink:href="#R" transform="matrix(1,0,0,1,-1245,423) translate(6.888888888888907 21.97222222222222)"/><use xlink:href="#S" transform="matrix(1,0,0,1,-1245,423) translate(101.60493827160494 21.97222222222222)"/><use xlink:href="#T" transform="matrix(1,0,0,1,-1245,423) translate(21.65432098765433 43.30555555555556)"/></g><path d="M-940 346a6 6 0 0 1 6-6h608a6 6 0 0 1 6 6v168a6 6 0 0 1-6 6h-608a6 6 0 0 1-6-6z" stroke="#000" stroke-opacity="0" stroke-width="3" fill="#fff" fill-opacity="0"/><g><use xlink:href="#U" transform="matrix(1,0,0,1,-935,345) translate(0 14.791666666666664)"/><use xlink:href="#H" transform="matrix(1,0,0,1,-935,345) translate(74.67881944444443 14.791666666666664)"/><use xlink:href="#o" transform="matrix(1,0,0,1,-935,345) translate(128.02083333333331 14.791666666666664)"/><use xlink:href="#m" transform="matrix(1,0,0,1,-935,345) translate(0 33.53298611111111)"/><use xlink:href="#V" transform="matrix(1,0,0,1,-935,345) translate(42.67361111111111 33.53298611111111)"/><use xlink:href="#H" transform="matrix(1,0,0,1,-935,345) translate(138.6892361111111 33.53298611111111)"/><use xlink:href="#o" transform="matrix(1,0,0,1,-935,345) translate(192.03124999999997 33.53298611111111)"/><use xlink:href="#p" transform="matrix(1,0,0,1,-935,345) translate(0 52.27430555555555)"/><use xlink:href="#W" transform="matrix(1,0,0,1,-935,345) translate(85.3472222222222 52.27430555555555)"/><use xlink:href="#F" transform="matrix(1,0,0,1,-935,345) translate(149.35763888888886 52.27430555555555)"/><use xlink:href="#X" transform="matrix(1,0,0,1,-935,345) translate(213.36805555555551 52.27430555555555)"/><use xlink:href="#Y" transform="matrix(1,0,0,1,-935,345) translate(266.7100694444444 52.27430555555555)"/><use xlink:href="#Z" transform="matrix(1,0,0,1,-935,345) translate(341.3888888888888 52.27430555555555)"/><use xlink:href="#p" transform="matrix(1,0,0,1,-935,345) translate(0 71.015625)"/><use xlink:href="#W" transform="matrix(1,0,0,1,-935,345) translate(85.3472222222222 71.015625)"/><use xlink:href="#aa" transform="matrix(1,0,0,1,-935,345) translate(149.35763888888886 71.015625)"/><use xlink:href="#X" transform="matrix(1,0,0,1,-935,345) translate(213.36805555555551 71.015625)"/><use xlink:href="#Y" transform="matrix(1,0,0,1,-935,345) translate(266.7100694444444 71.015625)"/><use xlink:href="#Z" transform="matrix(1,0,0,1,-935,345) translate(341.3888888888888 71.015625)"/><use xlink:href="#m" transform="matrix(1,0,0,1,-935,345) translate(0 89.75694444444443)"/><use xlink:href="#ab" transform="matrix(1,0,0,1,-935,345) translate(42.67361111111111 89.75694444444443)"/><use xlink:href="#L" transform="matrix(1,0,0,1,-935,345) translate(0 108.50694444444443)"/><use xlink:href="#ac" transform="matrix(1,0,0,1,-935,345) translate(42.67361111111111 108.50694444444443)"/><use xlink:href="#ad" transform="matrix(1,0,0,1,-935,345) translate(106.68402777777777 108.50694444444443)"/><use xlink:href="#ae" transform="matrix(1,0,0,1,-935,345) translate(266.71006944444434 108.50694444444443)"/><use xlink:href="#af" transform="matrix(1,0,0,1,-935,345) translate(320.05208333333326 108.50694444444443)"/><use xlink:href="#ag" transform="matrix(1,0,0,1,-935,345) translate(597.4305555555554 108.50694444444443)"/><use xlink:href="#ah" transform="matrix(1,0,0,1,-935,345) translate(0 127.25694444444443)"/><use xlink:href="#ai" transform="matrix(1,0,0,1,-935,345) translate(85.3472222222222 127.25694444444443)"/><use xlink:href="#aj" transform="matrix(1,0,0,1,-935,345) translate(192.03124999999994 127.25694444444443)"/><use xlink:href="#ak" transform="matrix(1,0,0,1,-935,345) translate(256.04166666666663 127.25694444444443)"/><use xlink:href="#al" transform="matrix(1,0,0,1,-935,345) translate(309.38368055555554 127.25694444444443)"/><use xlink:href="#am" transform="matrix(1,0,0,1,-935,345) translate(330.7204861111111 127.25694444444443)"/><use xlink:href="#al" transform="matrix(1,0,0,1,-935,345) translate(394.7309027777777 127.25694444444443)"/><use xlink:href="#an" transform="matrix(1,0,0,1,-935,345) translate(416.06770833333326 127.25694444444443)"/><use xlink:href="#al" transform="matrix(1,0,0,1,-935,345) translate(522.751736111111 127.25694444444443)"/><use xlink:href="#ao" transform="matrix(1,0,0,1,-935,345) translate(544.0885416666665 127.25694444444443)"/><use xlink:href="#ap" transform="matrix(1,0,0,1,-935,345) translate(0 146.00694444444443)"/><use xlink:href="#aq" transform="matrix(1,0,0,1,-935,345) translate(42.67361111111111 146.00694444444443)"/><use xlink:href="#B" transform="matrix(1,0,0,1,-935,345) translate(0 164.74826388888886)"/></g><path d="M-620 53.2V74a6 6 0 0 1-6 6h-434.1a6 6 0 0 0-6 6v55.5" stroke="#5e5e5e" stroke-width="2" fill="none"/><path d="M-619 53.23h-2V52.2h2z" stroke="#5e5e5e" stroke-width=".05" fill="#5e5e5e"/><path d="M-1066.1 156.76l-4.64-14.26h9.27z" stroke="#5e5e5e" stroke-width="2" fill="#5e5e5e"/><defs><path fill="#ef8d22" d="M67-125c0 53 21 87 73 88 37 1 54-22 65-47l45 17C233-25 199 4 140 4 58 4 20-42 15-125 8-235 124-281 211-232c18 10 29 29 36 50l-46 12c-8-25-30-41-62-41-52 0-71 34-72 86" id="ar"/><path fill="#ef8d22" d="M110-194c64 0 96 36 96 99 0 64-35 99-97 99-61 0-95-36-95-99 0-62 34-99 96-99zm-1 164c35 0 45-28 45-65 0-40-10-65-43-65-34 0-45 26-45 65 0 36 10 65 43 65" id="as"/><path fill="#ef8d22" d="M135-194c87-1 58 113 63 194h-50c-7-57 23-157-34-157-59 0-34 97-39 157H25l-1-190h47c2 12-1 28 3 38 12-26 28-41 61-42" id="at"/><path fill="#ef8d22" d="M115-3C79 11 28 4 28-45v-112H4v-33h27l15-45h31v45h36v33H77v99c-1 23 16 31 38 25v30" id="au"/><path fill="#ef8d22" d="M185-48c-13 30-37 53-82 52C43 2 14-33 14-96s30-98 90-98c62 0 83 45 84 108H66c0 31 8 55 39 56 18 0 30-7 34-22zm-45-69c5-46-57-63-70-21-2 6-4 13-4 21h74" id="av"/><g id="a"><use transform="matrix(0.049999999999999885,0,0,0.049999999999999885,0,0)" xlink:href="#ar"/><use transform="matrix(0.049999999999999885,0,0,0.049999999999999885,12.94999999999997,0)" xlink:href="#as"/><use transform="matrix(0.049999999999999885,0,0,0.049999999999999885,23.899999999999945,0)" xlink:href="#at"/><use transform="matrix(0.049999999999999885,0,0,0.049999999999999885,34.84999999999992,0)" xlink:href="#au"/><use transform="matrix(0.049999999999999885,0,0,0.049999999999999885,40.79999999999991,0)" xlink:href="#av"/><use transform="matrix(0.049999999999999885,0,0,0.049999999999999885,50.79999999999989,0)" xlink:href="#at"/><use transform="matrix(0.049999999999999885,0,0,0.049999999999999885,61.74999999999987,0)" xlink:href="#au"/></g><path fill="#ef8d22" d="M190-63c-7 42-38 67-86 67-59 0-84-38-90-98-12-110 154-137 174-36l-49 2c-2-19-15-32-35-32-30 0-35 28-38 64-6 74 65 87 74 30" id="aw"/><path fill="#ef8d22" d="M25 0v-261h50V0H25" id="ax"/><path fill="#ef8d22" d="M85 4C-2 5 27-109 22-190h50c7 57-23 150 33 157 60-5 35-97 40-157h50l1 190h-47c-2-12 1-28-3-38-12 25-28 42-61 42" id="ay"/><path fill="#ef8d22" d="M137-138c1-29-70-34-71-4 15 46 118 7 119 86 1 83-164 76-172 9l43-7c4 19 20 25 44 25 33 8 57-30 24-41C81-84 22-81 20-136c-2-80 154-74 161-7" id="az"/><path fill="#ef8d22" d="M135-150c-39-12-60 13-60 57V0H25l-1-190h47c2 13-1 29 3 40 6-28 27-53 61-41v41" id="aA"/><g id="b"><use transform="matrix(0.049999999999999885,0,0,0.049999999999999885,0,0)" xlink:href="#aw"/><use transform="matrix(0.049999999999999885,0,0,0.049999999999999885,9.999999999999977,0)" xlink:href="#ax"/><use transform="matrix(0.049999999999999885,0,0,0.049999999999999885,14.999999999999966,0)" xlink:href="#ay"/><use transform="matrix(0.049999999999999885,0,0,0.049999999999999885,25.94999999999994,0)" xlink:href="#az"/><use transform="matrix(0.049999999999999885,0,0,0.049999999999999885,35.94999999999992,0)" xlink:href="#au"/><use transform="matrix(0.049999999999999885,0,0,0.049999999999999885,41.899999999999906,0)" xlink:href="#av"/><use transform="matrix(0.049999999999999885,0,0,0.049999999999999885,51.89999999999988,0)" xlink:href="#aA"/></g><path fill="#fff" d="M30-248c118-7 216 8 213 122C240-48 200 0 122 0H30v-248zM63-27c89 8 146-16 146-99s-60-101-146-95v194" id="aB"/><path fill="#fff" d="M100-194c62-1 85 37 85 99 1 63-27 99-86 99S16-35 15-95c0-66 28-99 85-99zM99-20c44 1 53-31 53-75 0-43-8-75-51-75s-53 32-53 75 10 74 51 75" id="aC"/><path fill="#fff" d="M96-169c-40 0-48 33-48 73s9 75 48 75c24 0 41-14 43-38l32 2c-6 37-31 61-74 61-59 0-76-41-82-99-10-93 101-131 147-64 4 7 5 14 7 22l-32 3c-4-21-16-35-41-35" id="aD"/><path fill="#fff" d="M84 4C-5 8 30-112 23-190h32v120c0 31 7 50 39 49 72-2 45-101 50-169h31l1 190h-30c-1-10 1-25-2-33-11 22-28 36-60 37" id="aE"/><path fill="#fff" d="M210-169c-67 3-38 105-44 169h-31v-121c0-29-5-50-35-48C34-165 62-65 56 0H25l-1-190h30c1 10-1 24 2 32 10-44 99-50 107 0 11-21 27-35 58-36 85-2 47 119 55 194h-31v-121c0-29-5-49-35-48" id="aF"/><path fill="#fff" d="M100-194c63 0 86 42 84 106H49c0 40 14 67 53 68 26 1 43-12 49-29l28 8c-11 28-37 45-77 45C44 4 14-33 15-96c1-61 26-98 85-98zm52 81c6-60-76-77-97-28-3 7-6 17-6 28h103" id="aG"/><path fill="#fff" d="M117-194c89-4 53 116 60 194h-32v-121c0-31-8-49-39-48C34-167 62-67 57 0H25l-1-190h30c1 10-1 24 2 32 11-22 29-35 61-36" id="aH"/><path fill="#fff" d="M59-47c-2 24 18 29 38 22v24C64 9 27 4 27-40v-127H5v-23h24l9-43h21v43h35v23H59v120" id="aI"/><g id="c"><use transform="matrix(0.05,0,0,0.05,0,0)" xlink:href="#aB"/><use transform="matrix(0.05,0,0,0.05,12.950000000000001,0)" xlink:href="#aC"/><use transform="matrix(0.05,0,0,0.05,22.950000000000003,0)" xlink:href="#aD"/><use transform="matrix(0.05,0,0,0.05,31.950000000000003,0)" xlink:href="#aE"/><use transform="matrix(0.05,0,0,0.05,41.95,0)" xlink:href="#aF"/><use transform="matrix(0.05,0,0,0.05,56.900000000000006,0)" xlink:href="#aG"/><use transform="matrix(0.05,0,0,0.05,66.9,0)" xlink:href="#aH"/><use transform="matrix(0.05,0,0,0.05,76.9,0)" xlink:href="#aI"/></g><path fill="#fff" d="M30-248c87 1 191-15 191 75 0 78-77 80-158 76V0H30v-248zm33 125c57 0 124 11 124-50 0-59-68-47-124-48v98" id="aJ"/><path fill="#fff" d="M114-163C36-179 61-72 57 0H25l-1-190h30c1 12-1 29 2 39 6-27 23-49 58-41v29" id="aK"/><path fill="#fff" d="M135-143c-3-34-86-38-87 0 15 53 115 12 119 90S17 21 10-45l28-5c4 36 97 45 98 0-10-56-113-15-118-90-4-57 82-63 122-42 12 7 21 19 24 35" id="aL"/><g id="d"><use transform="matrix(0.05,0,0,0.05,0,0)" xlink:href="#aJ"/><use transform="matrix(0.05,0,0,0.05,12,0)" xlink:href="#aK"/><use transform="matrix(0.05,0,0,0.05,17.95,0)" xlink:href="#aC"/><use transform="matrix(0.05,0,0,0.05,27.950000000000003,0)" xlink:href="#aD"/><use transform="matrix(0.05,0,0,0.05,36.95,0)" xlink:href="#aG"/><use transform="matrix(0.05,0,0,0.05,46.95,0)" xlink:href="#aL"/><use transform="matrix(0.05,0,0,0.05,55.95,0)" xlink:href="#aL"/><use transform="matrix(0.05,0,0,0.05,64.95,0)" xlink:href="#aC"/><use transform="matrix(0.05,0,0,0.05,74.95,0)" xlink:href="#aK"/><use transform="matrix(0.05,0,0,0.05,80.9,0)" xlink:href="#aL"/></g><path fill="#0c7cba" d="M169-182c-1-43-94-46-97-3 18 66 151 10 154 114 3 95-165 93-204 36-6-8-10-19-12-30l50-8c3 46 112 56 116 5-17-69-150-10-154-114-4-87 153-88 188-35 5 8 8 18 10 28" id="aM"/><path fill="#0c7cba" d="M115-3C79 11 28 4 28-45v-112H4v-33h27l15-45h31v45h36v33H77v99c-1 23 16 31 38 25v30" id="aN"/><path fill="#0c7cba" d="M133-34C117-15 103 5 69 4 32 3 11-16 11-54c-1-60 55-63 116-61 1-26-3-47-28-47-18 1-26 9-28 27l-52-2c7-38 36-58 82-57s74 22 75 68l1 82c-1 14 12 18 25 15v27c-30 8-71 5-69-32zm-48 3c29 0 43-24 42-57-32 0-66-3-65 30 0 17 8 27 23 27" id="aO"/><path fill="#0c7cba" d="M185-48c-13 30-37 53-82 52C43 2 14-33 14-96s30-98 90-98c62 0 83 45 84 108H66c0 31 8 55 39 56 18 0 30-7 34-22zm-45-69c5-46-57-63-70-21-2 6-4 13-4 21h74" id="aP"/><path fill="#0c7cba" d="M25 0v-261h50V0H25" id="aQ"/><path fill="#0c7cba" d="M137-138c1-29-70-34-71-4 15 46 118 7 119 86 1 83-164 76-172 9l43-7c4 19 20 25 44 25 33 8 57-30 24-41C81-84 22-81 20-136c-2-80 154-74 161-7" id="aR"/><g id="e"><use transform="matrix(0.049999999999999885,0,0,0.049999999999999885,0,0)" xlink:href="#aM"/><use transform="matrix(0.049999999999999885,0,0,0.049999999999999885,11.999999999999972,0)" xlink:href="#aN"/><use transform="matrix(0.049999999999999885,0,0,0.049999999999999885,17.949999999999957,0)" xlink:href="#aO"/><use transform="matrix(0.049999999999999885,0,0,0.049999999999999885,27.94999999999993,0)" xlink:href="#aN"/><use transform="matrix(0.049999999999999885,0,0,0.049999999999999885,33.89999999999992,0)" xlink:href="#aP"/><use transform="matrix(0.049999999999999885,0,0,0.049999999999999885,43.8999999999999,0)" xlink:href="#aQ"/><use transform="matrix(0.049999999999999885,0,0,0.049999999999999885,48.899999999999885,0)" xlink:href="#aP"/><use transform="matrix(0.049999999999999885,0,0,0.049999999999999885,58.899999999999864,0)" xlink:href="#aR"/><use transform="matrix(0.049999999999999885,0,0,0.049999999999999885,68.89999999999984,0)" xlink:href="#aR"/></g><path fill="#0c7cba" d="M176-78C186 10 51 31 16-35c-5-9-9-19-11-32l52-8c4 21 12 37 35 38 23 0 32-16 32-40v-130H75v-41h101v170" id="aS"/><path fill="#0c7cba" d="M128 0H69L1-190h53L99-40l48-150h52" id="aT"/><g id="f"><use transform="matrix(0.049999999999999885,0,0,0.049999999999999885,0,0)" xlink:href="#aS"/><use transform="matrix(0.049999999999999885,0,0,0.049999999999999885,9.999999999999977,0)" xlink:href="#aO"/><use transform="matrix(0.049999999999999885,0,0,0.049999999999999885,19.999999999999954,0)" xlink:href="#aT"/><use transform="matrix(0.049999999999999885,0,0,0.049999999999999885,29.999999999999932,0)" xlink:href="#aO"/></g><path fill="#0c7cba" d="M190-63c-7 42-38 67-86 67-59 0-84-38-90-98-12-110 154-137 174-36l-49 2c-2-19-15-32-35-32-30 0-35 28-38 64-6 74 65 87 74 30" id="aU"/><path fill="#0c7cba" d="M110-194c64 0 96 36 96 99 0 64-35 99-97 99-61 0-95-36-95-99 0-62 34-99 96-99zm-1 164c35 0 45-28 45-65 0-40-10-65-43-65-34 0-45 26-45 65 0 36 10 65 43 65" id="aV"/><path fill="#0c7cba" d="M135-194c87-1 58 113 63 194h-50c-7-57 23-157-34-157-59 0-34 97-39 157H25l-1-190h47c2 12-1 28 3 38 12-26 28-41 61-42" id="aW"/><path fill="#0c7cba" d="M25-224v-37h50v37H25zM25 0v-190h50V0H25" id="aX"/><path fill="#0c7cba" d="M135-150c-39-12-60 13-60 57V0H25l-1-190h47c2 13-1 29 3 40 6-28 27-53 61-41v41" id="aY"/><g id="g"><use transform="matrix(0.049999999999999885,0,0,0.049999999999999885,0,0)" xlink:href="#aU"/><use transform="matrix(0.049999999999999885,0,0,0.049999999999999885,9.999999999999977,0)" xlink:href="#aV"/><use transform="matrix(0.049999999999999885,0,0,0.049999999999999885,20.949999999999953,0)" xlink:href="#aW"/><use transform="matrix(0.049999999999999885,0,0,0.049999999999999885,31.899999999999928,0)" xlink:href="#aN"/><use transform="matrix(0.049999999999999885,0,0,0.049999999999999885,37.849999999999916,0)" xlink:href="#aO"/><use transform="matrix(0.049999999999999885,0,0,0.049999999999999885,47.849999999999895,0)" xlink:href="#aX"/><use transform="matrix(0.049999999999999885,0,0,0.049999999999999885,52.84999999999988,0)" xlink:href="#aW"/><use transform="matrix(0.049999999999999885,0,0,0.049999999999999885,63.799999999999855,0)" xlink:href="#aP"/><use transform="matrix(0.049999999999999885,0,0,0.049999999999999885,73.79999999999983,0)" xlink:href="#aY"/></g><path fill="#0c7cba" d="M85 4C-2 5 27-109 22-190h50c7 57-23 150 33 157 60-5 35-97 40-157h50l1 190h-47c-2-12 1-28-3-38-12 25-28 42-61 42" id="aZ"/><g id="h"><use transform="matrix(0.049999999999999885,0,0,0.049999999999999885,0,0)" xlink:href="#aU"/><use transform="matrix(0.049999999999999885,0,0,0.049999999999999885,9.999999999999977,0)" xlink:href="#aQ"/><use transform="matrix(0.049999999999999885,0,0,0.049999999999999885,14.999999999999966,0)" xlink:href="#aZ"/><use transform="matrix(0.049999999999999885,0,0,0.049999999999999885,25.94999999999994,0)" xlink:href="#aR"/><use transform="matrix(0.049999999999999885,0,0,0.049999999999999885,35.94999999999992,0)" xlink:href="#aN"/><use transform="matrix(0.049999999999999885,0,0,0.049999999999999885,41.899999999999906,0)" xlink:href="#aP"/><use transform="matrix(0.049999999999999885,0,0,0.049999999999999885,51.89999999999988,0)" xlink:href="#aY"/></g><path fill="#fff" d="M212-179c-10-28-35-45-73-45-59 0-87 40-87 99 0 60 29 101 89 101 43 0 62-24 78-52l27 14C228-24 195 4 139 4 59 4 22-46 18-125c-6-104 99-153 187-111 19 9 31 26 39 46" id="ba"/><g id="i"><use transform="matrix(0.05,0,0,0.05,0,0)" xlink:href="#ba"/><use transform="matrix(0.05,0,0,0.05,12.950000000000001,0)" xlink:href="#aC"/><use transform="matrix(0.05,0,0,0.05,22.950000000000003,0)" xlink:href="#aH"/><use transform="matrix(0.05,0,0,0.05,32.95,0)" xlink:href="#aI"/><use transform="matrix(0.05,0,0,0.05,37.95,0)" xlink:href="#aG"/><use transform="matrix(0.05,0,0,0.05,47.95,0)" xlink:href="#aH"/><use transform="matrix(0.05,0,0,0.05,57.95,0)" xlink:href="#aI"/></g><path fill="#fff" d="M190 0L58-211 59 0H30v-248h39L202-35l-2-213h31V0h-41" id="bb"/><path fill="#fff" d="M85-194c31 0 48 13 60 33l-1-100h32l1 261h-30c-2-10 0-23-3-31C134-8 116 4 85 4 32 4 16-35 15-94c0-66 23-100 70-100zm9 24c-40 0-46 34-46 75 0 40 6 74 45 74 42 0 51-32 51-76 0-42-9-74-50-73" id="bc"/><g id="j"><use transform="matrix(0.05,0,0,0.05,0,0)" xlink:href="#bb"/><use transform="matrix(0.05,0,0,0.05,12.950000000000001,0)" xlink:href="#aC"/><use transform="matrix(0.05,0,0,0.05,22.950000000000003,0)" xlink:href="#bc"/><use transform="matrix(0.05,0,0,0.05,32.95,0)" xlink:href="#aG"/></g><path fill="#fff" d="M140-251c81 0 123 46 123 126C263-53 228-8 163 1c7 30 30 48 69 40v23c-55 16-95-15-103-61C56-3 17-48 17-125c0-80 42-126 123-126zm0 227c63 0 89-41 89-101s-29-99-89-99c-61 0-89 39-89 99S79-25 140-24" id="bd"/><path fill="#fff" d="M179-190L93 31C79 59 56 82 12 73V49c39 6 53-20 64-50L1-190h34L92-34l54-156h33" id="be"/><g id="k"><use transform="matrix(0.05,0,0,0.05,0,0)" xlink:href="#bd"/><use transform="matrix(0.05,0,0,0.05,14,0)" xlink:href="#aE"/><use transform="matrix(0.05,0,0,0.05,24,0)" xlink:href="#aG"/><use transform="matrix(0.05,0,0,0.05,34,0)" xlink:href="#aK"/><use transform="matrix(0.05,0,0,0.05,39.95,0)" xlink:href="#be"/></g><path fill="#333" d="M677 91c1 136 41 195 171 195h213v139H796c-186-8-294-116-294-303v-351c-3-164-120-222-275-232v-137c155-10 275-69 275-231v-352c6-189 106-303 294-303h265v139H848c-126-3-171 67-171 195v346c-5 158-108 234-231 274 128 36 231 115 231 274V91" id="bf"/><use transform="matrix(0.008680555555555554,0,0,0.008680555555555554,0,0)" xlink:href="#bf" id="l"/><path fill="#333" d="M908-845H766l-40-639h224zm-449 0H318l-41-639h224" id="bg"/><path fill="#333" d="M839-1335c-182-6-269 67-259 253h491v142H580V0H400v-940H138v-142h262c-15-293 132-408 418-402 94 2 200 7 281 21v145c-75-10-177-14-260-17" id="bh"/><path fill="#333" d="M745-142h380V0H143v-142h422v-798H246v-142h499v940zM545-1292v-192h200v192H545" id="bi"/><path fill="#333" d="M617-1102c355 0 481 238 477 599H322c5 222 84 388 301 388 144 0 244-59 284-166l158 45C1002-72 854 20 623 20c-342 0-490-220-490-568 0-346 151-554 484-554zm291 461c-18-192-90-328-289-328-194 0-287 128-295 328h584" id="bj"/><path fill="#333" d="M736-142h380V0H134v-142h422v-1200H267v-142h469v1342" id="bk"/><path fill="#333" d="M865-914c-3-187-2-380-2-570h180v1261c0 76 1 155 6 223H877c-8-49-9-116-10-174h-5C801-44 708 26 530 26c-135 0-234-46-297-139s-95-232-95-419c0-377 131-566 392-566 176 0 271 63 335 184zm-286-51c-222 0-255 197-255 427 0 229 31 425 253 425 237 0 286-195 286-441 0-238-52-411-284-411" id="bl"/><path fill="#333" d="M873-819c-18-114-119-146-250-146-163 0-245 50-245 151 0 151 170 148 294 185 182 54 388 94 388 320 0 240-189 325-439 329-245 4-410-69-454-268l159-31c24 133 136 168 295 165 144-2 270-31 270-171 0-164-195-160-331-202-167-52-350-87-350-299 0-218 173-315 413-313 220 2 373 77 412 260" id="bm"/><path fill="#333" d="M496 0v-299h235V0H496zm0-783v-299h235v299H496" id="bn"/><g id="n"><use transform="matrix(0.008680555555555554,0,0,0.008680555555555554,0,0)" xlink:href="#bg"/><use transform="matrix(0.008680555555555554,0,0,0.008680555555555554,10.668402777777777,0)" xlink:href="#bh"/><use transform="matrix(0.008680555555555554,0,0,0.008680555555555554,21.336805555555554,0)" xlink:href="#bi"/><use transform="matrix(0.008680555555555554,0,0,0.008680555555555554,32.00520833333333,0)" xlink:href="#bj"/><use transform="matrix(0.008680555555555554,0,0,0.008680555555555554,42.67361111111111,0)" xlink:href="#bk"/><use transform="matrix(0.008680555555555554,0,0,0.008680555555555554,53.342013888888886,0)" xlink:href="#bl"/><use transform="matrix(0.008680555555555554,0,0,0.008680555555555554,64.01041666666666,0)" xlink:href="#bm"/><use transform="matrix(0.008680555555555554,0,0,0.008680555555555554,74.67881944444443,0)" xlink:href="#bg"/><use transform="matrix(0.008680555555555554,0,0,0.008680555555555554,85.3472222222222,0)" xlink:href="#bn"/></g><use transform="matrix(0.008680555555555554,0,0,0.008680555555555554,0,0)" xlink:href="#bf" id="o"/><path fill="#333" d="M682 16c-209 0-323-80-324-285v-671H190v-142h170l58-282h120v282h432v142H538v652c2 114 60 155 182 155 106 0 209-16 297-34v137C921-4 806 16 682 16" id="bo"/><g id="q"><use transform="matrix(0.008680555555555554,0,0,0.008680555555555554,0,0)" xlink:href="#bg"/><use transform="matrix(0.008680555555555554,0,0,0.008680555555555554,10.668402777777777,0)" xlink:href="#bo"/><use transform="matrix(0.008680555555555554,0,0,0.008680555555555554,21.336805555555554,0)" xlink:href="#bi"/><use transform="matrix(0.008680555555555554,0,0,0.008680555555555554,32.00520833333333,0)" xlink:href="#bo"/><use transform="matrix(0.008680555555555554,0,0,0.008680555555555554,42.67361111111111,0)" xlink:href="#bk"/><use transform="matrix(0.008680555555555554,0,0,0.008680555555555554,53.342013888888886,0)" xlink:href="#bj"/><use transform="matrix(0.008680555555555554,0,0,0.008680555555555554,64.01041666666666,0)" xlink:href="#bg"/><use transform="matrix(0.008680555555555554,0,0,0.008680555555555554,74.67881944444443,0)" xlink:href="#bn"/></g><path fill="#333" d="M285-1169c8 382 2 780 4 1169H129v-1349h237c86 239 188 461 253 720 69-258 169-481 255-720h225V0H937c2-390-5-788 6-1169-75 255-170 488-259 729H547c-90-240-185-475-262-729" id="bp"/><path fill="#333" d="M839-1102c70 0 148 7 206 17v167c-112-18-268-36-363 15-129 69-208 203-208 395V0H294c-10-367 32-789-52-1082h171c21 75 41 161 48 250h5c67-152 152-270 373-270" id="bq"/><path fill="#333" d="M631 20c-350 0-501-215-501-562 0-355 162-560 502-560 250 0 399 118 446 323l-192 14c-23-124-109-196-262-196-242 0-305 171-305 415 1 245 61 427 304 427 151 0 248-77 267-215l190 12C1039-107 883 20 631 20" id="br"/><g id="r"><use transform="matrix(0.008680555555555554,0,0,0.008680555555555554,0,0)" xlink:href="#bg"/><use transform="matrix(0.008680555555555554,0,0,0.008680555555555554,10.668402777777777,0)" xlink:href="#bp"/><use transform="matrix(0.008680555555555554,0,0,0.008680555555555554,21.336805555555554,0)" xlink:href="#bj"/><use transform="matrix(0.008680555555555554,0,0,0.008680555555555554,32.00520833333333,0)" xlink:href="#bo"/><use transform="matrix(0.008680555555555554,0,0,0.008680555555555554,42.67361111111111,0)" xlink:href="#bq"/><use transform="matrix(0.008680555555555554,0,0,0.008680555555555554,53.342013888888886,0)" xlink:href="#bi"/><use transform="matrix(0.008680555555555554,0,0,0.008680555555555554,64.01041666666666,0)" xlink:href="#br"/></g><path fill="#333" d="M698-1104c312 3 392 244 392 558 0 315-82 566-392 566-169 0-277-65-331-184h-5c8 188 2 394 4 589H185V-858c0-76-1-156-6-224h175c6 52 9 120 10 178h4c58-122 150-202 330-200zm-49 991c225 0 255-203 255-433 0-225-32-419-253-419-236 0-285 192-285 441 0 237 53 411 283 411" id="bs"/><path fill="#333" d="M1000-272c3 95 12 159 101 161 21 0 41-3 59-7V-6c-44 10-86 16-139 16-141 2-191-84-197-217h-6C748-76 648 20 446 20c-207 0-318-120-318-322 0-266 194-348 454-354l236-4c12-191-40-305-222-305-140 0-220 47-232 172l-188-17c33-204 181-292 423-292 255 0 401 118 401 364v466zm-683-27c0 109 63 184 175 182 166-3 259-96 306-217 24-65 20-120 20-200-232 7-501-28-501 235" id="bt"/><path fill="#333" d="M259 363l169-662h265L382 363H259" id="bu"/><g id="s"><use transform="matrix(0.008680555555555554,0,0,0.008680555555555554,0,0)" xlink:href="#bm"/><use transform="matrix(0.008680555555555554,0,0,0.008680555555555554,10.668402777777777,0)" xlink:href="#bs"/><use transform="matrix(0.008680555555555554,0,0,0.008680555555555554,21.336805555555554,0)" xlink:href="#bt"/><use transform="matrix(0.008680555555555554,0,0,0.008680555555555554,32.00520833333333,0)" xlink:href="#br"/><use transform="matrix(0.008680555555555554,0,0,0.008680555555555554,42.67361111111111,0)" xlink:href="#bj"/><use transform="matrix(0.008680555555555554,0,0,0.008680555555555554,53.342013888888886,0)" xlink:href="#bg"/><use transform="matrix(0.008680555555555554,0,0,0.008680555555555554,64.01041666666666,0)" xlink:href="#bu"/></g><path fill="#333" d="M942-844H743l-37-641h275zm-456 0H287l-37-641h273" id="bv"/><path fill="#333" d="M711 13c-250 0-386-99-385-349l2-556H161v-190h181l88-282h176v282h385v190H606v530c-10 130 45 186 174 184 91-2 176-11 255-27v186C933-1 833 13 711 13" id="bw"/><path fill="#333" d="M1113-274C1038-96 884 20 626 20c-352 0-526-209-526-566 0-358 185-556 530-556 358 0 496 251 499 615H395c5 180 68 319 245 319 102 0 186-45 208-129zM857-663c-6-177-128-307-315-247-94 30-141 121-145 247h460" id="bx"/><path fill="#333" d="M874 0L612-392 348 0H49l406-559-387-523h303l241 354 240-354h305L770-562 1179 0H874" id="by"/><path fill="#333" d="M470 0v-305h289V0H470zm0-780v-305h289v305H470" id="bz"/><g id="u"><use transform="matrix(0.008680555555555554,0,0,0.008680555555555554,0,0)" xlink:href="#bv"/><use transform="matrix(0.008680555555555554,0,0,0.008680555555555554,10.668402777777777,0)" xlink:href="#bw"/><use transform="matrix(0.008680555555555554,0,0,0.008680555555555554,21.336805555555554,0)" xlink:href="#bx"/><use transform="matrix(0.008680555555555554,0,0,0.008680555555555554,32.00520833333333,0)" xlink:href="#by"/><use transform="matrix(0.008680555555555554,0,0,0.008680555555555554,42.67361111111111,0)" xlink:href="#bw"/><use transform="matrix(0.008680555555555554,0,0,0.008680555555555554,53.342013888888886,0)" xlink:href="#bv"/><use transform="matrix(0.008680555555555554,0,0,0.008680555555555554,64.01041666666666,0)" xlink:href="#bz"/></g><path fill="#333" d="M157-1349h916v228H762v893h311V0H157v-228h311v-893H157v-228" id="bA"/><path fill="#333" d="M768-1103c247 0 336 167 336 416V0H824v-619c-3-164-24-273-171-273-164 0-229 142-229 312V0H143c-4-359 9-736-8-1082h268c7 63 12 146 13 215h4c67-145 160-236 348-236" id="bB"/><g id="v"><use transform="matrix(0.008680555555555554,0,0,0.008680555555555554,0,0)" xlink:href="#bv"/><use transform="matrix(0.008680555555555554,0,0,0.008680555555555554,10.668402777777777,0)" xlink:href="#bA"/><use transform="matrix(0.008680555555555554,0,0,0.008680555555555554,21.336805555555554,0)" xlink:href="#bB"/></g><path fill="#333" d="M934-1102c199 0 220 177 220 381V0H926c-2-260 10-533-4-785-4-72-14-138-83-138-34 0-61 27-81 81s-29 134-29 241V0H501c-2-260 9-533-5-785-4-72-13-138-82-138-46 0-65 47-80 93-21 67-30 155-30 248V0H75c-3-360 6-732-6-1082h209c6 50 3 123 8 175 36-100 83-195 216-195 135 0 166 79 196 196 42-105 93-196 236-196" id="bC"/><path fill="#333" d="M775-193C708-75 621 20 439 20 226 20 106-93 106-306c0-251 170-341 417-346l223-4c4-143-12-264-148-264-103 0-141 58-150 153l-293-14c37-219 194-321 455-321 263 0 418 130 417 390v392c1 84 5 161 89 160 21 0 42-2 62-6v152c-57 15-108 27-180 26-145 0-202-73-217-205h-6zm-256 17c168 0 234-139 227-325-166 4-347-25-347 173 0 94 33 152 120 152" id="bD"/><path fill="#333" d="M424-1484c-2 206 5 424-8 618h4c67-145 160-234 348-236 251-3 335 167 336 416V0H824v-621c0-150-23-276-173-270-163 7-227 142-227 312V0H143v-1484h281" id="bE"/><path fill="#333" d="M794-190h353V0H118v-190h395v-702H223v-190h571v892zM513-1277v-207h281v207H513" id="bF"/><path fill="#333" d="M1109-360C1066-122 902 20 624 20c-347 0-514-209-514-555 0-353 168-567 518-567 270 0 425 136 473 361l-283 14c-16-106-75-183-196-182-75 0-130 31-165 93s-52 152-52 270c0 249 74 374 221 374 120 0 188-82 201-201" id="bG"/><path fill="#333" d="M622-916c-112 2-200 14-200 111 0 90 89 101 168 121 234 58 514 77 514 368C1104-4 751 54 434 5 267-21 161-112 121-270l247-37c24 111 113 145 252 141 114-3 226-12 226-124 0-101-103-113-192-134-225-54-490-76-490-351 0-247 201-328 458-328 245 0 413 88 457 292l-249 26c-16-98-92-133-208-131" id="bH"/><path fill="#333" d="M258 363l169-662h315L431 363H258" id="bI"/><g id="w"><use transform="matrix(0.008680555555555554,0,0,0.008680555555555554,0,0)" xlink:href="#bC"/><use transform="matrix(0.008680555555555554,0,0,0.008680555555555554,10.668402777777777,0)" xlink:href="#bD"/><use transform="matrix(0.008680555555555554,0,0,0.008680555555555554,21.336805555555554,0)" xlink:href="#bw"/><use transform="matrix(0.008680555555555554,0,0,0.008680555555555554,32.00520833333333,0)" xlink:href="#bE"/><use transform="matrix(0.008680555555555554,0,0,0.008680555555555554,42.67361111111111,0)" xlink:href="#bx"/><use transform="matrix(0.008680555555555554,0,0,0.008680555555555554,53.342013888888886,0)" xlink:href="#bC"/><use transform="matrix(0.008680555555555554,0,0,0.008680555555555554,64.01041666666666,0)" xlink:href="#bD"/><use transform="matrix(0.008680555555555554,0,0,0.008680555555555554,74.67881944444443,0)" xlink:href="#bw"/><use transform="matrix(0.008680555555555554,0,0,0.008680555555555554,85.3472222222222,0)" xlink:href="#bF"/><use transform="matrix(0.008680555555555554,0,0,0.008680555555555554,96.01562499999997,0)" xlink:href="#bG"/><use transform="matrix(0.008680555555555554,0,0,0.008680555555555554,106.68402777777774,0)" xlink:href="#bH"/><use transform="matrix(0.008680555555555554,0,0,0.008680555555555554,117.35243055555551,0)" xlink:href="#bI"/></g><use transform="matrix(0.008680555555555554,0,0,0.008680555555555554,0,0)" xlink:href="#bD" id="x"/><path fill="#333" d="M875-1102c70 0 148 7 206 17v237c-110-17-267-37-359 15-123 69-192 207-192 395V0H250c-10-367 32-789-52-1082h271c19 69 36 149 46 228h4c52-151 151-250 356-248" id="bJ"/><g id="y"><use transform="matrix(0.008680555555555554,0,0,0.008680555555555554,0,0)" xlink:href="#bC"/><use transform="matrix(0.008680555555555554,0,0,0.008680555555555554,10.668402777777777,0)" xlink:href="#bx"/><use transform="matrix(0.008680555555555554,0,0,0.008680555555555554,21.336805555555554,0)" xlink:href="#bw"/><use transform="matrix(0.008680555555555554,0,0,0.008680555555555554,32.00520833333333,0)" xlink:href="#bJ"/><use transform="matrix(0.008680555555555554,0,0,0.008680555555555554,42.67361111111111,0)" xlink:href="#bF"/><use transform="matrix(0.008680555555555554,0,0,0.008680555555555554,53.342013888888886,0)" xlink:href="#bG"/></g><path fill="#333" d="M427-171c3 195 2 397 2 596H148V-846c1-83-4-168-8-236h272c10 49 14 118 15 176h4c59-114 151-197 316-197 291 0 385 259 385 560 0 243-65 433-220 521-50 28-109 42-176 42-162-2-253-78-309-191zm69-661c-91 113-92 463-1 586 46 62 145 101 225 54 96-57 118-191 119-351 0-123-18-215-53-276-46-82-128-115-220-74-25 12-48 33-70 61" id="bK"/><path fill="#333" d="M470 0v-305h289V0H470" id="bL"/><g id="z"><use transform="matrix(0.008680555555555554,0,0,0.008680555555555554,0,0)" xlink:href="#bH"/><use transform="matrix(0.008680555555555554,0,0,0.008680555555555554,10.668402777777777,0)" xlink:href="#bK"/><use transform="matrix(0.008680555555555554,0,0,0.008680555555555554,21.336805555555554,0)" xlink:href="#bD"/><use transform="matrix(0.008680555555555554,0,0,0.008680555555555554,32.00520833333333,0)" xlink:href="#bG"/><use transform="matrix(0.008680555555555554,0,0,0.008680555555555554,42.67361111111111,0)" xlink:href="#bx"/><use transform="matrix(0.008680555555555554,0,0,0.008680555555555554,53.342013888888886,0)" xlink:href="#bL"/><use transform="matrix(0.008680555555555554,0,0,0.008680555555555554,64.01041666666666,0)" xlink:href="#bL"/><use transform="matrix(0.008680555555555554,0,0,0.008680555555555554,74.67881944444443,0)" xlink:href="#bL"/><use transform="matrix(0.008680555555555554,0,0,0.008680555555555554,85.3472222222222,0)" xlink:href="#bv"/></g><path fill="#333" d="M726 122c-7 187-108 303-294 303H167V286h213c129-2 172-59 172-195v-347c5-160 106-236 230-276-125-36-230-116-230-272v-346c2-128-45-195-172-195H167v-139h265c187 7 294 114 294 303v352c4 162 120 221 275 231v137c-155 10-275 68-275 232v351" id="bM"/><use transform="matrix(0.008680555555555554,0,0,0.008680555555555554,0,0)" xlink:href="#bM" id="A"/><use transform="matrix(0.008680555555555554,0,0,0.008680555555555554,0,0)" xlink:href="#bM" id="B"/><use transform="matrix(0.008680555555555554,0,0,0.008680555555555554,0,0)" xlink:href="#bf" id="C"/><path fill="#333" d="M168 279c222 39 310-114 368-290L66-1082h192c120 299 249 590 362 896 115-301 235-597 351-896h190L705 0c-65 164-130 320-275 396-67 36-177 35-262 18V279" id="bN"/><path fill="#333" d="M530 26c-303-6-392-228-392-558 0-187 33-329 98-424s162-142 293-142c178 0 273 69 334 184 1-56 3-122 12-169h175c-6 88-6 180-6 282V425H863c1-202-4-411 4-607h-2C805-59 713 29 530 26zm47-139c234 0 286-193 286-441 0-238-55-411-284-411-223 0-255 198-255 427 0 227 33 425 253 425" id="bO"/><g id="D"><use transform="matrix(0.008680555555555554,0,0,0.008680555555555554,0,0)" xlink:href="#bg"/><use transform="matrix(0.008680555555555554,0,0,0.008680555555555554,10.668402777777777,0)" xlink:href="#bN"/><use transform="matrix(0.008680555555555554,0,0,0.008680555555555554,21.336805555555554,0)" xlink:href="#bO"/><use transform="matrix(0.008680555555555554,0,0,0.008680555555555554,32.00520833333333,0)" xlink:href="#bk"/><use transform="matrix(0.008680555555555554,0,0,0.008680555555555554,42.67361111111111,0)" xlink:href="#bg"/><use transform="matrix(0.008680555555555554,0,0,0.008680555555555554,53.342013888888886,0)" xlink:href="#bn"/></g><g id="E"><use transform="matrix(0.008680555555555554,0,0,0.008680555555555554,0,0)" xlink:href="#bg"/><use transform="matrix(0.008680555555555554,0,0,0.008680555555555554,10.668402777777777,0)" xlink:href="#bm"/><use transform="matrix(0.008680555555555554,0,0,0.008680555555555554,21.336805555555554,0)" xlink:href="#bj"/><use transform="matrix(0.008680555555555554,0,0,0.008680555555555554,32.00520833333333,0)" xlink:href="#bk"/><use transform="matrix(0.008680555555555554,0,0,0.008680555555555554,42.67361111111111,0)" xlink:href="#bj"/><use transform="matrix(0.008680555555555554,0,0,0.008680555555555554,53.342013888888886,0)" xlink:href="#br"/><use transform="matrix(0.008680555555555554,0,0,0.008680555555555554,64.01041666666666,0)" xlink:href="#bo"/></g><g id="F"><use transform="matrix(0.008680555555555554,0,0,0.008680555555555554,0,0)" xlink:href="#bo"/><use transform="matrix(0.008680555555555554,0,0,0.008680555555555554,10.668402777777777,0)" xlink:href="#bi"/><use transform="matrix(0.008680555555555554,0,0,0.008680555555555554,21.336805555555554,0)" xlink:href="#bo"/><use transform="matrix(0.008680555555555554,0,0,0.008680555555555554,32.00520833333333,0)" xlink:href="#bk"/><use transform="matrix(0.008680555555555554,0,0,0.008680555555555554,42.67361111111111,0)" xlink:href="#bj"/></g><path fill="#333" d="M615-1102c343 0 484 203 482 560-1 347-147 562-488 562-336 0-475-219-479-562-4-349 156-560 485-560zm-8 989c240 0 301-180 301-429 0-245-55-427-290-427-236 0-299 181-299 427 0 243 61 429 288 429" id="bP"/><path fill="#333" d="M904-1102c199 0 220 177 220 381V0H956v-686c-3-114 0-215-60-264-70-33-125-4-158 71-26 56-39 140-39 252V0H531v-686c-3-114-1-215-61-264-78-41-136 24-157 84-24 69-39 159-39 259V0H105c-3-360 6-732-6-1082h149c6 50 3 123 8 175 36-100 83-195 216-195 135 0 166 79 196 196 42-105 93-196 236-196" id="bQ"/><g id="G"><use transform="matrix(0.008680555555555554,0,0,0.008680555555555554,0,0)" xlink:href="#bh"/><use transform="matrix(0.008680555555555554,0,0,0.008680555555555554,10.668402777777777,0)" xlink:href="#bq"/><use transform="matrix(0.008680555555555554,0,0,0.008680555555555554,21.336805555555554,0)" xlink:href="#bP"/><use transform="matrix(0.008680555555555554,0,0,0.008680555555555554,32.00520833333333,0)" xlink:href="#bQ"/></g><path fill="#333" d="M1018 0H814c-67-224-138-444-200-673C552-442 476-224 407 0H204L21-1082h178c43 310 105 601 126 933 54-225 128-425 193-638h193c63 212 134 415 185 638 22-336 90-622 136-933h176" id="bR"/><path fill="#333" d="M914 0L548-499l-132 98V0H236v-1484h180v927l475-525h211L663-617 1125 0H914" id="bS"/><g id="H"><use transform="matrix(0.008680555555555554,0,0,0.008680555555555554,0,0)" xlink:href="#bR"/><use transform="matrix(0.008680555555555554,0,0,0.008680555555555554,10.668402777777777,0)" xlink:href="#bi"/><use transform="matrix(0.008680555555555554,0,0,0.008680555555555554,21.336805555555554,0)" xlink:href="#bS"/><use transform="matrix(0.008680555555555554,0,0,0.008680555555555554,32.00520833333333,0)" xlink:href="#bi"/></g><path fill="#333" d="M648-963c-190 6-283 138-283 336V0H185v-1484h181c-2 197 6 404-9 587h3c62-120 159-205 339-205 242 0 351 135 350 381V0H868v-695c1-168-57-273-220-268" id="bT"/><g id="I"><use transform="matrix(0.008680555555555554,0,0,0.008680555555555554,0,0)" xlink:href="#bR"/><use transform="matrix(0.008680555555555554,0,0,0.008680555555555554,10.668402777777777,0)" xlink:href="#bT"/><use transform="matrix(0.008680555555555554,0,0,0.008680555555555554,21.336805555555554,0)" xlink:href="#bj"/><use transform="matrix(0.008680555555555554,0,0,0.008680555555555554,32.00520833333333,0)" xlink:href="#bq"/><use transform="matrix(0.008680555555555554,0,0,0.008680555555555554,42.67361111111111,0)" xlink:href="#bj"/></g><path fill="#333" d="M1048-32c-2 300-135 456-433 456-222-1-358-88-400-267l184-25c22 99 100 157 222 156 184-2 248-125 248-315 0-64 3-133-2-194C807-100 706-13 524-12c-306 0-381-228-381-537 0-318 85-550 400-550 164 0 271 83 325 202h3c1-60 3-134 12-185h171c-13 339-4 702-6 1050zM585-145c210-8 284-178 284-406 0-192-52-331-177-392-33-16-69-22-104-22-223 2-259 184-259 414 0 229 31 415 256 406" id="bU"/><path fill="#333" d="M875 0v-623H353V0H162v-1349h191v566h522v-566h191V0H875" id="bV"/><path fill="#333" d="M148-1120c216-7 379-89 463-229h166v1204h353V0H157v-145h439v-1021c-79 124-254 184-448 194v-148" id="bW"/><path fill="#333" d="M1065-1013c47 164 49 500-1 665C999-130 875 20 611 20c-377 0-484-300-487-695-2-245 41-425 141-551 77-98 191-144 352-144 261 0 386 140 448 357zM741-155c199-92 203-504 159-785-26-168-96-284-283-284-281 0-308 256-311 549-2 181 18 324 80 428 46 77 115 118 227 120 47 0 90-10 128-28zM496-555v-249h235v249H496" id="bX"/><path fill="#333" d="M706-1102c241 0 344 136 343 381V0H868v-695c1-168-57-273-220-268-190 6-283 138-283 336V0H185c-3-360 6-732-6-1082h170c4 54 7 126 8 185h3c63-121 164-204 346-205" id="bY"/><path fill="#333" d="M912-211c-10-84-18-177-18-274v-864h172V0H836L316-1130c7 79 16 167 16 254V0H162v-1349h222" id="bZ"/><path fill="#333" d="M365-904c58-129 161-200 334-200 130 0 228 46 293 138s98 233 98 420c0 189-34 331-102 425S824 20 698 20c-170 0-275-64-336-184 0 55-3 116-9 164H179c5-68 6-147 6-223v-1261h180c-2 193 4 394-4 580h4zm283 791c221 0 256-197 256-427 0-229-34-425-254-425-236 0-285 195-285 441 0 237 53 411 283 411" id="ca"/><path fill="#333" d="M891-1484c-201 251-362 514-362 954 0 441 161 704 362 955H701C500 176 342-90 342-532c0-440 159-704 359-952h190" id="cb"/><path fill="#333" d="M932 0L611-444 288 0H94l415-556-397-526h199l300 421 298-421h201L713-558 1133 0H932" id="cc"/><path fill="#333" d="M-5 220v-96h1238v96H-5" id="cd"/><g id="J"><use transform="matrix(0.008680555555555554,0,0,0.008680555555555554,0,0)" xlink:href="#bf"/><use transform="matrix(0.008680555555555554,0,0,0.008680555555555554,10.668402777777777,0)" xlink:href="#bo"/><use transform="matrix(0.008680555555555554,0,0,0.008680555555555554,21.336805555555554,0)" xlink:href="#bt"/><use transform="matrix(0.008680555555555554,0,0,0.008680555555555554,32.00520833333333,0)" xlink:href="#bq"/><use transform="matrix(0.008680555555555554,0,0,0.008680555555555554,42.67361111111111,0)" xlink:href="#bU"/><use transform="matrix(0.008680555555555554,0,0,0.008680555555555554,53.342013888888886,0)" xlink:href="#bj"/><use transform="matrix(0.008680555555555554,0,0,0.008680555555555554,64.01041666666666,0)" xlink:href="#bo"/><use transform="matrix(0.008680555555555554,0,0,0.008680555555555554,74.67881944444443,0)" xlink:href="#bV"/><use transform="matrix(0.008680555555555554,0,0,0.008680555555555554,85.3472222222222,0)" xlink:href="#bi"/><use transform="matrix(0.008680555555555554,0,0,0.008680555555555554,96.01562499999997,0)" xlink:href="#bo"/><use transform="matrix(0.008680555555555554,0,0,0.008680555555555554,106.68402777777774,0)" xlink:href="#bm"/><use transform="matrix(0.008680555555555554,0,0,0.008680555555555554,117.35243055555551,0)" xlink:href="#bn"/><use transform="matrix(0.008680555555555554,0,0,0.008680555555555554,128.0208333333333,0)" xlink:href="#bW"/><use transform="matrix(0.008680555555555554,0,0,0.008680555555555554,138.68923611111106,0)" xlink:href="#bX"/><use transform="matrix(0.008680555555555554,0,0,0.008680555555555554,149.35763888888883,0)" xlink:href="#bM"/><use transform="matrix(0.008680555555555554,0,0,0.008680555555555554,160.0260416666666,0)" xlink:href="#bY"/><use transform="matrix(0.008680555555555554,0,0,0.008680555555555554,170.6944444444444,0)" xlink:href="#bj"/><use transform="matrix(0.008680555555555554,0,0,0.008680555555555554,181.36284722222214,0)" xlink:href="#bt"/><use transform="matrix(0.008680555555555554,0,0,0.008680555555555554,192.03124999999991,0)" xlink:href="#bq"/><use transform="matrix(0.008680555555555554,0,0,0.008680555555555554,202.6996527777777,0)" xlink:href="#bj"/><use transform="matrix(0.008680555555555554,0,0,0.008680555555555554,213.36805555555546,0)" xlink:href="#bm"/><use transform="matrix(0.008680555555555554,0,0,0.008680555555555554,224.03645833333323,0)" xlink:href="#bo"/><use transform="matrix(0.008680555555555554,0,0,0.008680555555555554,234.704861111111,0)" xlink:href="#bZ"/><use transform="matrix(0.008680555555555554,0,0,0.008680555555555554,245.3732638888888,0)" xlink:href="#bj"/><use transform="matrix(0.008680555555555554,0,0,0.008680555555555554,256.0416666666666,0)" xlink:href="#bi"/><use transform="matrix(0.008680555555555554,0,0,0.008680555555555554,266.71006944444434,0)" xlink:href="#bU"/><use transform="matrix(0.008680555555555554,0,0,0.008680555555555554,277.3784722222221,0)" xlink:href="#bT"/><use transform="matrix(0.008680555555555554,0,0,0.008680555555555554,288.0468749999999,0)" xlink:href="#ca"/><use transform="matrix(0.008680555555555554,0,0,0.008680555555555554,298.71527777777766,0)" xlink:href="#bP"/><use transform="matrix(0.008680555555555554,0,0,0.008680555555555554,309.38368055555543,0)" xlink:href="#bq"/><use transform="matrix(0.008680555555555554,0,0,0.008680555555555554,320.0520833333332,0)" xlink:href="#cb"/><use transform="matrix(0.008680555555555554,0,0,0.008680555555555554,330.720486111111,0)" xlink:href="#bo"/><use transform="matrix(0.008680555555555554,0,0,0.008680555555555554,341.3888888888888,0)" xlink:href="#bj"/><use transform="matrix(0.008680555555555554,0,0,0.008680555555555554,352.05729166666646,0)" xlink:href="#cc"/><use transform="matrix(0.008680555555555554,0,0,0.008680555555555554,362.7256944444443,0)" xlink:href="#bo"/><use transform="matrix(0.008680555555555554,0,0,0.008680555555555554,373.39409722222206,0)" xlink:href="#cd"/><use transform="matrix(0.008680555555555554,0,0,0.008680555555555554,384.06249999999983,0)" xlink:href="#bj"/><use transform="matrix(0.008680555555555554,0,0,0.008680555555555554,394.7309027777776,0)" xlink:href="#bQ"/><use transform="matrix(0.008680555555555554,0,0,0.008680555555555554,405.3993055555554,0)" xlink:href="#ca"/><use transform="matrix(0.008680555555555554,0,0,0.008680555555555554,416.06770833333314,0)" xlink:href="#bj"/><use transform="matrix(0.008680555555555554,0,0,0.008680555555555554,426.7361111111109,0)" xlink:href="#bl"/><use transform="matrix(0.008680555555555554,0,0,0.008680555555555554,437.4045138888887,0)" xlink:href="#bl"/><use transform="matrix(0.008680555555555554,0,0,0.008680555555555554,448.07291666666646,0)" xlink:href="#bi"/><use transform="matrix(0.008680555555555554,0,0,0.008680555555555554,458.74131944444423,0)" xlink:href="#bY"/><use transform="matrix(0.008680555555555554,0,0,0.008680555555555554,469.409722222222,0)" xlink:href="#bU"/><use transform="matrix(0.008680555555555554,0,0,0.008680555555555554,480.0781249999998,0)" xlink:href="#bu"/></g><path fill="#333" d="M528-1484c201 248 357 511 357 952 0 442-156 709-357 957H336C537 174 700-89 700-530c0-440-163-703-364-954h192" id="ce"/><g id="K"><use transform="matrix(0.008680555555555554,0,0,0.008680555555555554,0,0)" xlink:href="#bO"/><use transform="matrix(0.008680555555555554,0,0,0.008680555555555554,10.668402777777777,0)" xlink:href="#ce"/><use transform="matrix(0.008680555555555554,0,0,0.008680555555555554,21.336805555555554,0)" xlink:href="#bg"/><use transform="matrix(0.008680555555555554,0,0,0.008680555555555554,32.00520833333333,0)" xlink:href="#bu"/></g><path fill="#333" d="M471 20c-247 0-336-169-336-415v-687h281v607c4 148 31 285 172 285 152 0 207-150 207-312v-580h281c4 359-9 736 8 1082H816c-7-63-11-146-12-215h-5C736-76 644 20 471 20" id="cf"/><path fill="#333" d="M800 425c-1-198 1-404 0-596C746-55 645 20 483 20 183 20 97-237 97-543c0-242 74-429 227-518 49-28 105-42 168-42 163 0 248 85 306 197h4c1-59 6-126 15-176h272c-4 67-9 153-8 236V425H800zm-66-671c93-114 91-467-2-586-35-45-76-79-141-79-64 0-113 31-149 92-69 115-66 440 4 561 39 68 130 111 220 70 25-11 46-31 68-58" id="cg"/><path fill="#333" d="M143 212c82 12 185 12 233-31 50-45 83-117 110-192L38-1082h297c100 284 211 557 291 861 72-305 176-578 270-861h294L742 57c-80 192-156 368-417 368-60 0-131-4-182-13V212" id="ch"/><path fill="#333" d="M621-530c0 421 127 700 301 955H641C466 173 344-110 344-531s122-702 297-953h281c-174 254-301 534-301 954" id="ci"/><path fill="#333" d="M885-531c0 421-122 704-297 956H307c174-255 301-534 301-955 0-420-127-700-301-954h281c175 251 297 532 297 953" id="cj"/><g id="M"><use transform="matrix(0.008680555555555554,0,0,0.008680555555555554,0,0)" xlink:href="#bv"/><use transform="matrix(0.008680555555555554,0,0,0.008680555555555554,10.668402777777777,0)" xlink:href="#bF"/><use transform="matrix(0.008680555555555554,0,0,0.008680555555555554,21.336805555555554,0)" xlink:href="#bB"/><use transform="matrix(0.008680555555555554,0,0,0.008680555555555554,32.00520833333333,0)" xlink:href="#bK"/><use transform="matrix(0.008680555555555554,0,0,0.008680555555555554,42.67361111111111,0)" xlink:href="#cf"/><use transform="matrix(0.008680555555555554,0,0,0.008680555555555554,53.342013888888886,0)" xlink:href="#bw"/><use transform="matrix(0.008680555555555554,0,0,0.008680555555555554,64.01041666666666,0)" xlink:href="#bL"/><use transform="matrix(0.008680555555555554,0,0,0.008680555555555554,74.67881944444443,0)" xlink:href="#cg"/><use transform="matrix(0.008680555555555554,0,0,0.008680555555555554,85.3472222222222,0)" xlink:href="#cf"/><use transform="matrix(0.008680555555555554,0,0,0.008680555555555554,96.01562499999997,0)" xlink:href="#bx"/><use transform="matrix(0.008680555555555554,0,0,0.008680555555555554,106.68402777777774,0)" xlink:href="#bJ"/><use transform="matrix(0.008680555555555554,0,0,0.008680555555555554,117.35243055555551,0)" xlink:href="#ch"/><use transform="matrix(0.008680555555555554,0,0,0.008680555555555554,128.0208333333333,0)" xlink:href="#ci"/><use transform="matrix(0.008680555555555554,0,0,0.008680555555555554,138.68923611111106,0)" xlink:href="#cg"/><use transform="matrix(0.008680555555555554,0,0,0.008680555555555554,149.35763888888883,0)" xlink:href="#cj"/><use transform="matrix(0.008680555555555554,0,0,0.008680555555555554,160.0260416666666,0)" xlink:href="#bv"/><use transform="matrix(0.008680555555555554,0,0,0.008680555555555554,170.6944444444444,0)" xlink:href="#bz"/></g><path fill="#333" d="M429-1484c1 190-1 388 0 572 54-116 155-191 317-191 300 0 386 257 386 563 0 241-73 429-226 518-49 28-106 42-169 42-162 0-251-81-306-196h-4c-1 59-5 127-15 176H140c4-67 9-153 8-236v-1248h281zm66 648c-93 114-92 466 1 585 35 45 77 79 142 79 64 0 112-31 148-92 69-115 68-440-2-561-39-68-131-111-221-70-25 11-46 32-68 59" id="ck"/><path fill="#333" d="M802-909c-3-189-2-383-2-575h281v1248c-1 83 4 168 8 236H817c-9-50-14-117-15-176h-4C735-49 651 20 482 20 191 20 97-238 97-539c0-243 66-432 221-519 50-28 108-42 175-42 162 2 253 78 309 191zm-70 658c91-113 93-462 2-584-46-61-145-100-224-53-96 56-119 190-120 349 0 123 17 214 52 275 46 82 130 115 222 74 25-12 46-33 68-61" id="cl"/><g id="N"><use transform="matrix(0.008680555555555554,0,0,0.008680555555555554,0,0)" xlink:href="#bv"/><use transform="matrix(0.008680555555555554,0,0,0.008680555555555554,10.668402777777777,0)" xlink:href="#bx"/><use transform="matrix(0.008680555555555554,0,0,0.008680555555555554,21.336805555555554,0)" xlink:href="#bC"/><use transform="matrix(0.008680555555555554,0,0,0.008680555555555554,32.00520833333333,0)" xlink:href="#ck"/><use transform="matrix(0.008680555555555554,0,0,0.008680555555555554,42.67361111111111,0)" xlink:href="#bx"/><use transform="matrix(0.008680555555555554,0,0,0.008680555555555554,53.342013888888886,0)" xlink:href="#cl"/><use transform="matrix(0.008680555555555554,0,0,0.008680555555555554,64.01041666666666,0)" xlink:href="#ci"/><use transform="matrix(0.008680555555555554,0,0,0.008680555555555554,74.67881944444443,0)" xlink:href="#bC"/><use transform="matrix(0.008680555555555554,0,0,0.008680555555555554,85.3472222222222,0)" xlink:href="#bx"/><use transform="matrix(0.008680555555555554,0,0,0.008680555555555554,96.01562499999997,0)" xlink:href="#bw"/><use transform="matrix(0.008680555555555554,0,0,0.008680555555555554,106.68402777777774,0)" xlink:href="#bJ"/><use transform="matrix(0.008680555555555554,0,0,0.008680555555555554,117.35243055555551,0)" xlink:href="#bF"/><use transform="matrix(0.008680555555555554,0,0,0.008680555555555554,128.0208333333333,0)" xlink:href="#bG"/></g><g id="O"><use transform="matrix(0.008680555555555554,0,0,0.008680555555555554,0,0)" xlink:href="#bH"/><use transform="matrix(0.008680555555555554,0,0,0.008680555555555554,10.668402777777777,0)" xlink:href="#bK"/><use transform="matrix(0.008680555555555554,0,0,0.008680555555555554,21.336805555555554,0)" xlink:href="#bD"/><use transform="matrix(0.008680555555555554,0,0,0.008680555555555554,32.00520833333333,0)" xlink:href="#bG"/><use transform="matrix(0.008680555555555554,0,0,0.008680555555555554,42.67361111111111,0)" xlink:href="#bx"/><use transform="matrix(0.008680555555555554,0,0,0.008680555555555554,53.342013888888886,0)" xlink:href="#bH"/><use transform="matrix(0.008680555555555554,0,0,0.008680555555555554,64.01041666666666,0)" xlink:href="#cj"/><use transform="matrix(0.008680555555555554,0,0,0.008680555555555554,74.67881944444443,0)" xlink:href="#bv"/></g><use transform="matrix(0.008680555555555554,0,0,0.008680555555555554,0,0)" xlink:href="#bM" id="P"/><path fill="#333" d="M30-248c118-7 216 8 213 122C240-48 200 0 122 0H30v-248zM63-27c89 8 146-16 146-99s-60-101-146-95v194" id="cm"/><path fill="#333" d="M100-194c62-1 85 37 85 99 1 63-27 99-86 99S16-35 15-95c0-66 28-99 85-99zM99-20c44 1 53-31 53-75 0-43-8-75-51-75s-53 32-53 75 10 74 51 75" id="cn"/><path fill="#333" d="M96-169c-40 0-48 33-48 73s9 75 48 75c24 0 41-14 43-38l32 2c-6 37-31 61-74 61-59 0-76-41-82-99-10-93 101-131 147-64 4 7 5 14 7 22l-32 3c-4-21-16-35-41-35" id="co"/><path fill="#333" d="M84 4C-5 8 30-112 23-190h32v120c0 31 7 50 39 49 72-2 45-101 50-169h31l1 190h-30c-1-10 1-25-2-33-11 22-28 36-60 37" id="cp"/><path fill="#333" d="M210-169c-67 3-38 105-44 169h-31v-121c0-29-5-50-35-48C34-165 62-65 56 0H25l-1-190h30c1 10-1 24 2 32 10-44 99-50 107 0 11-21 27-35 58-36 85-2 47 119 55 194h-31v-121c0-29-5-49-35-48" id="cq"/><path fill="#333" d="M100-194c63 0 86 42 84 106H49c0 40 14 67 53 68 26 1 43-12 49-29l28 8c-11 28-37 45-77 45C44 4 14-33 15-96c1-61 26-98 85-98zm52 81c6-60-76-77-97-28-3 7-6 17-6 28h103" id="cr"/><path fill="#333" d="M117-194c89-4 53 116 60 194h-32v-121c0-31-8-49-39-48C34-167 62-67 57 0H25l-1-190h30c1 10-1 24 2 32 11-22 29-35 61-36" id="cs"/><path fill="#333" d="M59-47c-2 24 18 29 38 22v24C64 9 27 4 27-40v-127H5v-23h24l9-43h21v43h35v23H59v120" id="ct"/><path fill="#333" d="M135-143c-3-34-86-38-87 0 15 53 115 12 119 90S17 21 10-45l28-5c4 36 97 45 98 0-10-56-113-15-118-90-4-57 82-63 122-42 12 7 21 19 24 35" id="cu"/><g id="R"><use transform="matrix(0.049382716049382706,0,0,0.049382716049382706,0,0)" xlink:href="#cm"/><use transform="matrix(0.049382716049382706,0,0,0.049382716049382706,12.790123456790122,0)" xlink:href="#cn"/><use transform="matrix(0.049382716049382706,0,0,0.049382716049382706,22.666666666666664,0)" xlink:href="#co"/><use transform="matrix(0.049382716049382706,0,0,0.049382716049382706,31.55555555555555,0)" xlink:href="#cp"/><use transform="matrix(0.049382716049382706,0,0,0.049382716049382706,41.43209876543209,0)" xlink:href="#cq"/><use transform="matrix(0.049382716049382706,0,0,0.049382716049382706,56.19753086419752,0)" xlink:href="#cr"/><use transform="matrix(0.049382716049382706,0,0,0.049382716049382706,66.07407407407406,0)" xlink:href="#cs"/><use transform="matrix(0.049382716049382706,0,0,0.049382716049382706,75.9506172839506,0)" xlink:href="#ct"/><use transform="matrix(0.049382716049382706,0,0,0.049382716049382706,80.88888888888887,0)" xlink:href="#cu"/></g><path fill="#333" d="M206 0h-36l-40-164L89 0H53L-1-190h32L70-26l43-164h34l41 164 42-164h31" id="cv"/><path fill="#333" d="M24-231v-30h32v30H24zM24 0v-190h32V0H24" id="cw"/><path fill="#333" d="M106-169C34-169 62-67 57 0H25v-261h32l-1 103c12-21 28-36 61-36 89 0 53 116 60 194h-32v-121c2-32-8-49-39-48" id="cx"/><g id="S"><use transform="matrix(0.049382716049382706,0,0,0.049382716049382706,0,0)" xlink:href="#cv"/><use transform="matrix(0.049382716049382706,0,0,0.049382716049382706,12.790123456790122,0)" xlink:href="#cw"/><use transform="matrix(0.049382716049382706,0,0,0.049382716049382706,16.691358024691354,0)" xlink:href="#ct"/><use transform="matrix(0.049382716049382706,0,0,0.049382716049382706,21.629629629629626,0)" xlink:href="#cx"/></g><path fill="#333" d="M115-194c53 0 69 39 70 98 0 66-23 100-70 100C84 3 66-7 56-30L54 0H23l1-261h32v101c10-23 28-34 59-34zm-8 174c40 0 45-34 45-75 0-40-5-75-45-74-42 0-51 32-51 76 0 43 10 73 51 73" id="cy"/><path fill="#333" d="M85-194c31 0 48 13 60 33l-1-100h32l1 261h-30c-2-10 0-23-3-31C134-8 116 4 85 4 32 4 16-35 15-94c0-66 23-100 70-100zm9 24c-40 0-46 34-46 75 0 40 6 74 45 74 42 0 51-32 51-76 0-42-9-74-50-73" id="cz"/><path fill="#333" d="M177-190C167-65 218 103 67 71c-23-6-38-20-44-43l32-5c15 47 100 32 89-28v-30C133-14 115 1 83 1 29 1 15-40 15-95c0-56 16-97 71-98 29-1 48 16 59 35 1-10 0-23 2-32h30zM94-22c36 0 50-32 50-73 0-42-14-75-50-75-39 0-46 34-46 75s6 73 46 73" id="cA"/><g id="T"><use transform="matrix(0.049382716049382706,0,0,0.049382716049382706,0,0)" xlink:href="#cr"/><use transform="matrix(0.049382716049382706,0,0,0.049382716049382706,9.87654320987654,0)" xlink:href="#cq"/><use transform="matrix(0.049382716049382706,0,0,0.049382716049382706,24.641975308641968,0)" xlink:href="#cy"/><use transform="matrix(0.049382716049382706,0,0,0.049382716049382706,34.518518518518505,0)" xlink:href="#cr"/><use transform="matrix(0.049382716049382706,0,0,0.049382716049382706,44.39506172839505,0)" xlink:href="#cz"/><use transform="matrix(0.049382716049382706,0,0,0.049382716049382706,54.271604938271594,0)" xlink:href="#cz"/><use transform="matrix(0.049382716049382706,0,0,0.049382716049382706,64.14814814814814,0)" xlink:href="#cw"/><use transform="matrix(0.049382716049382706,0,0,0.049382716049382706,68.04938271604937,0)" xlink:href="#cs"/><use transform="matrix(0.049382716049382706,0,0,0.049382716049382706,77.92592592592591,0)" xlink:href="#cA"/><use transform="matrix(0.049382716049382706,0,0,0.049382716049382706,87.80246913580245,0)" xlink:href="#cu"/></g><g id="U"><use transform="matrix(0.008680555555555554,0,0,0.008680555555555554,0,0)" xlink:href="#bm"/><use transform="matrix(0.008680555555555554,0,0,0.008680555555555554,10.668402777777777,0)" xlink:href="#br"/><use transform="matrix(0.008680555555555554,0,0,0.008680555555555554,21.336805555555554,0)" xlink:href="#bT"/><use transform="matrix(0.008680555555555554,0,0,0.008680555555555554,32.00520833333333,0)" xlink:href="#bj"/><use transform="matrix(0.008680555555555554,0,0,0.008680555555555554,42.67361111111111,0)" xlink:href="#bQ"/><use transform="matrix(0.008680555555555554,0,0,0.008680555555555554,53.342013888888886,0)" xlink:href="#bt"/></g><path fill="#333" d="M528 20c-247 0-343-132-343-381v-721h180v686c-4 177 45 284 224 277 194-8 279-136 279-336v-627h181c3 360-6 732 6 1082H885c-4-54-7-126-8-185h-3C809-64 714 20 528 20" id="cB"/><g id="V"><use transform="matrix(0.008680555555555554,0,0,0.008680555555555554,0,0)" xlink:href="#bl"/><use transform="matrix(0.008680555555555554,0,0,0.008680555555555554,10.668402777777777,0)" xlink:href="#bP"/><use transform="matrix(0.008680555555555554,0,0,0.008680555555555554,21.336805555555554,0)" xlink:href="#br"/><use transform="matrix(0.008680555555555554,0,0,0.008680555555555554,32.00520833333333,0)" xlink:href="#cB"/><use transform="matrix(0.008680555555555554,0,0,0.008680555555555554,42.67361111111111,0)" xlink:href="#bQ"/><use transform="matrix(0.008680555555555554,0,0,0.008680555555555554,53.342013888888886,0)" xlink:href="#bj"/><use transform="matrix(0.008680555555555554,0,0,0.008680555555555554,64.01041666666666,0)" xlink:href="#bY"/><use transform="matrix(0.008680555555555554,0,0,0.008680555555555554,74.67881944444443,0)" xlink:href="#bo"/></g><g id="W"><use transform="matrix(0.008680555555555554,0,0,0.008680555555555554,0,0)" xlink:href="#bh"/><use transform="matrix(0.008680555555555554,0,0,0.008680555555555554,10.668402777777777,0)" xlink:href="#bi"/><use transform="matrix(0.008680555555555554,0,0,0.008680555555555554,21.336805555555554,0)" xlink:href="#bj"/><use transform="matrix(0.008680555555555554,0,0,0.008680555555555554,32.00520833333333,0)" xlink:href="#bk"/><use transform="matrix(0.008680555555555554,0,0,0.008680555555555554,42.67361111111111,0)" xlink:href="#bl"/></g><g id="X"><use transform="matrix(0.008680555555555554,0,0,0.008680555555555554,0,0)" xlink:href="#bo"/><use transform="matrix(0.008680555555555554,0,0,0.008680555555555554,10.668402777777777,0)" xlink:href="#bN"/><use transform="matrix(0.008680555555555554,0,0,0.008680555555555554,21.336805555555554,0)" xlink:href="#bs"/><use transform="matrix(0.008680555555555554,0,0,0.008680555555555554,32.00520833333333,0)" xlink:href="#bj"/></g><g id="Y"><use transform="matrix(0.008680555555555554,0,0,0.008680555555555554,0,0)" xlink:href="#bm"/><use transform="matrix(0.008680555555555554,0,0,0.008680555555555554,10.668402777777777,0)" xlink:href="#bo"/><use transform="matrix(0.008680555555555554,0,0,0.008680555555555554,21.336805555555554,0)" xlink:href="#bq"/><use transform="matrix(0.008680555555555554,0,0,0.008680555555555554,32.00520833333333,0)" xlink:href="#bi"/><use transform="matrix(0.008680555555555554,0,0,0.008680555555555554,42.67361111111111,0)" xlink:href="#bY"/><use transform="matrix(0.008680555555555554,0,0,0.008680555555555554,53.342013888888886,0)" xlink:href="#bU"/></g><g id="Z"><use transform="matrix(0.008680555555555554,0,0,0.008680555555555554,0,0)" xlink:href="#bf"/><use transform="matrix(0.008680555555555554,0,0,0.008680555555555554,10.668402777777777,0)" xlink:href="#bM"/></g><g id="aa"><use transform="matrix(0.008680555555555554,0,0,0.008680555555555554,0,0)" xlink:href="#bo"/><use transform="matrix(0.008680555555555554,0,0,0.008680555555555554,10.668402777777777,0)" xlink:href="#bj"/><use transform="matrix(0.008680555555555554,0,0,0.008680555555555554,21.336805555555554,0)" xlink:href="#cc"/><use transform="matrix(0.008680555555555554,0,0,0.008680555555555554,32.00520833333333,0)" xlink:href="#bo"/></g><use transform="matrix(0.008680555555555554,0,0,0.008680555555555554,0,0)" xlink:href="#bM" id="ab"/><path fill="#333" d="M844-1321c-130 0-195 53-191 182v57h443v190H653V0H373v-892H117v-190h256v-83c5-247 162-348 422-349 120-1 232 13 327 28v184c-84-10-183-19-278-19" id="cC"/><path fill="#333" d="M794-190h353V0H118v-190h395v-1104H223v-190h571v1294" id="cD"/><g id="ac"><use transform="matrix(0.008680555555555554,0,0,0.008680555555555554,0,0)" xlink:href="#cC"/><use transform="matrix(0.008680555555555554,0,0,0.008680555555555554,10.668402777777777,0)" xlink:href="#bF"/><use transform="matrix(0.008680555555555554,0,0,0.008680555555555554,21.336805555555554,0)" xlink:href="#bx"/><use transform="matrix(0.008680555555555554,0,0,0.008680555555555554,32.00520833333333,0)" xlink:href="#cD"/><use transform="matrix(0.008680555555555554,0,0,0.008680555555555554,42.67361111111111,0)" xlink:href="#cl"/></g><path fill="#333" d="M-5 220v-96h1238v96H-5" id="cE"/><path fill="#333" d="M1108-33c-3 314-178 467-492 467-243 0-400-94-447-291l281-33c17 79 82 141 174 141 176 0 212-155 205-347-2-40 5-80 0-115C773-85 665-12 501-12c-288 0-377-242-377-538 0-242 65-426 223-510 50-26 108-39 175-39 160 0 253 78 307 191h5c1-58 5-125 14-174h266c-12 335-3 703-6 1049zM811-384c25-82 27-259 1-342-30-99-77-180-190-180-172 0-205 171-205 356 0 116 18 202 54 258 48 76 129 107 221 70 62-25 96-86 119-162" id="cF"/><g id="ad"><use transform="matrix(0.008680555555555554,0,0,0.008680555555555554,0,0)" xlink:href="#bw"/><use transform="matrix(0.008680555555555554,0,0,0.008680555555555554,10.668402777777777,0)" xlink:href="#bx"/><use transform="matrix(0.008680555555555554,0,0,0.008680555555555554,21.336805555555554,0)" xlink:href="#by"/><use transform="matrix(0.008680555555555554,0,0,0.008680555555555554,32.00520833333333,0)" xlink:href="#bw"/><use transform="matrix(0.008680555555555554,0,0,0.008680555555555554,42.67361111111111,0)" xlink:href="#cE"/><use transform="matrix(0.008680555555555554,0,0,0.008680555555555554,53.342013888888886,0)" xlink:href="#bx"/><use transform="matrix(0.008680555555555554,0,0,0.008680555555555554,64.01041666666666,0)" xlink:href="#bC"/><use transform="matrix(0.008680555555555554,0,0,0.008680555555555554,74.67881944444443,0)" xlink:href="#ck"/><use transform="matrix(0.008680555555555554,0,0,0.008680555555555554,85.3472222222222,0)" xlink:href="#bx"/><use transform="matrix(0.008680555555555554,0,0,0.008680555555555554,96.01562499999997,0)" xlink:href="#cl"/><use transform="matrix(0.008680555555555554,0,0,0.008680555555555554,106.68402777777774,0)" xlink:href="#cl"/><use transform="matrix(0.008680555555555554,0,0,0.008680555555555554,117.35243055555551,0)" xlink:href="#bF"/><use transform="matrix(0.008680555555555554,0,0,0.008680555555555554,128.0208333333333,0)" xlink:href="#bB"/><use transform="matrix(0.008680555555555554,0,0,0.008680555555555554,138.68923611111106,0)" xlink:href="#cF"/></g><g id="ae"><use transform="matrix(0.008680555555555554,0,0,0.008680555555555554,0,0)" xlink:href="#bw"/><use transform="matrix(0.008680555555555554,0,0,0.008680555555555554,10.668402777777777,0)" xlink:href="#ch"/><use transform="matrix(0.008680555555555554,0,0,0.008680555555555554,21.336805555555554,0)" xlink:href="#bK"/><use transform="matrix(0.008680555555555554,0,0,0.008680555555555554,32.00520833333333,0)" xlink:href="#bx"/></g><path fill="#333" d="M616-1102c361 0 521 202 521 560 0 354-171 562-527 562C259 20 92-192 92-542c0-351 169-560 524-560zm-9 930c200-2 236-165 236-370 0-199-27-367-223-367-195 0-233 146-233 367 0 129 18 223 55 282s92 88 165 88" id="cG"/><path fill="#333" d="M101-516v-322l1027-391v228L295-676l833 324v227" id="cH"/><path fill="#333" d="M101-125v-227l832-324-832-325v-228l1027 391v322" id="cI"/><path fill="#333" d="M685 25c1 134 43 209 172 209h188v191H718c-189-5-295-108-295-299v-328c1-155-78-228-229-229v-195c150-4 229-75 229-231v-328c-2-190 109-299 295-299h327v190H857c-129 1-171 76-172 209v301c-5 144-88 222-207 252v4c118 31 207 107 207 252V25" id="cJ"/><path fill="#333" d="M806 126c-4 191-105 299-295 299H184V234h188c129-1 171-75 172-209v-301c5-145 89-221 207-252v-4c-119-30-207-108-207-252v-301c-1-133-43-209-172-209H184v-190h327c186 0 295 109 295 299v328c-1 156 79 227 229 231v195c-151 1-229 74-229 229v328" id="cK"/><path fill="#333" d="M373 425v-1909h602v190H639V234h336v191H373" id="cL"/><path fill="#333" d="M788-691c191 26 337 112 337 315 0 286-214 399-510 399-306 0-483-128-522-391l286-25c18 124 91 190 235 188 132-2 223-58 223-188 0-176-191-182-378-179v-227c176 5 345-9 345-176 0-115-82-171-200-171s-198 55-206 169l-281-20c34-252 213-373 492-373 224 0 381 74 451 224 20 43 29 89 29 136 0 195-130 279-301 315v4" id="cM"/><path fill="#333" d="M829-709c170 32 291 130 291 327 0 285-207 402-505 402-296 0-506-116-506-400 0-194 122-293 287-327v-4c-145-37-254-130-254-301 0-257 201-358 469-358 275 0 474 97 474 360 0 168-110 262-256 297v4zm-216-99c126 0 184-66 183-187-1-119-62-179-185-178-121 0-182 60-182 178 0 119 60 187 184 187zm4 630c149 0 213-80 212-227-2-138-77-206-220-206-139 1-209 76-211 210-2 147 70 223 219 223" id="cN"/><path fill="#333" d="M980-287V0H712v-287H71v-211l595-851h314v853h188v209H980zM712-496c2-204-7-417 9-609-118 224-277 405-414 609h405" id="cO"/><path fill="#333" d="M254 425V234h336v-1528H254v-190h602V425H254" id="cP"/><g id="af"><use transform="matrix(0.008680555555555554,0,0,0.008680555555555554,0,0)" xlink:href="#bw"/><use transform="matrix(0.008680555555555554,0,0,0.008680555555555554,10.668402777777777,0)" xlink:href="#bx"/><use transform="matrix(0.008680555555555554,0,0,0.008680555555555554,21.336805555555554,0)" xlink:href="#bB"/><use transform="matrix(0.008680555555555554,0,0,0.008680555555555554,32.00520833333333,0)" xlink:href="#bH"/><use transform="matrix(0.008680555555555554,0,0,0.008680555555555554,42.67361111111111,0)" xlink:href="#cG"/><use transform="matrix(0.008680555555555554,0,0,0.008680555555555554,53.342013888888886,0)" xlink:href="#bJ"/><use transform="matrix(0.008680555555555554,0,0,0.008680555555555554,64.01041666666666,0)" xlink:href="#cH"/><use transform="matrix(0.008680555555555554,0,0,0.008680555555555554,74.67881944444443,0)" xlink:href="#cC"/><use transform="matrix(0.008680555555555554,0,0,0.008680555555555554,85.3472222222222,0)" xlink:href="#cD"/><use transform="matrix(0.008680555555555554,0,0,0.008680555555555554,96.01562499999997,0)" xlink:href="#cG"/><use transform="matrix(0.008680555555555554,0,0,0.008680555555555554,106.68402777777774,0)" xlink:href="#bD"/><use transform="matrix(0.008680555555555554,0,0,0.008680555555555554,117.35243055555551,0)" xlink:href="#bw"/><use transform="matrix(0.008680555555555554,0,0,0.008680555555555554,128.0208333333333,0)" xlink:href="#cI"/><use transform="matrix(0.008680555555555554,0,0,0.008680555555555554,138.68923611111106,0)" xlink:href="#ci"/><use transform="matrix(0.008680555555555554,0,0,0.008680555555555554,149.35763888888883,0)" xlink:href="#bK"/><use transform="matrix(0.008680555555555554,0,0,0.008680555555555554,160.0260416666666,0)" xlink:href="#cJ"/><use transform="matrix(0.008680555555555554,0,0,0.008680555555555554,170.6944444444444,0)" xlink:href="#cK"/><use transform="matrix(0.008680555555555554,0,0,0.008680555555555554,181.36284722222214,0)" xlink:href="#bI"/><use transform="matrix(0.008680555555555554,0,0,0.008680555555555554,192.03124999999991,0)" xlink:href="#by"/><use transform="matrix(0.008680555555555554,0,0,0.008680555555555554,202.6996527777777,0)" xlink:href="#cL"/><use transform="matrix(0.008680555555555554,0,0,0.008680555555555554,213.36805555555546,0)" xlink:href="#cM"/><use transform="matrix(0.008680555555555554,0,0,0.008680555555555554,224.03645833333323,0)" xlink:href="#cN"/><use transform="matrix(0.008680555555555554,0,0,0.008680555555555554,234.704861111111,0)" xlink:href="#cO"/><use transform="matrix(0.008680555555555554,0,0,0.008680555555555554,245.3732638888888,0)" xlink:href="#cP"/><use transform="matrix(0.008680555555555554,0,0,0.008680555555555554,256.0416666666666,0)" xlink:href="#cj"/></g><use transform="matrix(0.008680555555555554,0,0,0.008680555555555554,0,0)" xlink:href="#cJ" id="ag"/><g id="ai"><use transform="matrix(0.008680555555555554,0,0,0.008680555555555554,0,0)" xlink:href="#bF"/><use transform="matrix(0.008680555555555554,0,0,0.008680555555555554,10.668402777777777,0)" xlink:href="#bB"/><use transform="matrix(0.008680555555555554,0,0,0.008680555555555554,21.336805555555554,0)" xlink:href="#cl"/><use transform="matrix(0.008680555555555554,0,0,0.008680555555555554,32.00520833333333,0)" xlink:href="#bx"/><use transform="matrix(0.008680555555555554,0,0,0.008680555555555554,42.67361111111111,0)" xlink:href="#by"/><use transform="matrix(0.008680555555555554,0,0,0.008680555555555554,53.342013888888886,0)" xlink:href="#bF"/><use transform="matrix(0.008680555555555554,0,0,0.008680555555555554,64.01041666666666,0)" xlink:href="#bB"/><use transform="matrix(0.008680555555555554,0,0,0.008680555555555554,74.67881944444443,0)" xlink:href="#cF"/><use transform="matrix(0.008680555555555554,0,0,0.008680555555555554,85.3472222222222,0)" xlink:href="#bz"/></g><g id="aj"><use transform="matrix(0.008680555555555554,0,0,0.008680555555555554,0,0)" xlink:href="#bF"/><use transform="matrix(0.008680555555555554,0,0,0.008680555555555554,10.668402777777777,0)" xlink:href="#bB"/><use transform="matrix(0.008680555555555554,0,0,0.008680555555555554,21.336805555555554,0)" xlink:href="#bK"/><use transform="matrix(0.008680555555555554,0,0,0.008680555555555554,32.00520833333333,0)" xlink:href="#cf"/><use transform="matrix(0.008680555555555554,0,0,0.008680555555555554,42.67361111111111,0)" xlink:href="#bw"/></g><g id="ak"><use transform="matrix(0.008680555555555554,0,0,0.008680555555555554,0,0)" xlink:href="#bw"/><use transform="matrix(0.008680555555555554,0,0,0.008680555555555554,10.668402777777777,0)" xlink:href="#bx"/><use transform="matrix(0.008680555555555554,0,0,0.008680555555555554,21.336805555555554,0)" xlink:href="#by"/><use transform="matrix(0.008680555555555554,0,0,0.008680555555555554,32.00520833333333,0)" xlink:href="#bw"/></g><path fill="#333" d="M483 455v-1939h262V455H483" id="cQ"/><use transform="matrix(0.008680555555555554,0,0,0.008680555555555554,0,0)" xlink:href="#cQ" id="al"/><g id="am"><use transform="matrix(0.008680555555555554,0,0,0.008680555555555554,0,0)" xlink:href="#bx"/><use transform="matrix(0.008680555555555554,0,0,0.008680555555555554,10.668402777777777,0)" xlink:href="#bC"/><use transform="matrix(0.008680555555555554,0,0,0.008680555555555554,21.336805555555554,0)" xlink:href="#ck"/><use transform="matrix(0.008680555555555554,0,0,0.008680555555555554,32.00520833333333,0)" xlink:href="#bx"/><use transform="matrix(0.008680555555555554,0,0,0.008680555555555554,42.67361111111111,0)" xlink:href="#cl"/></g><g id="an"><use transform="matrix(0.008680555555555554,0,0,0.008680555555555554,0,0)" xlink:href="#bD"/><use transform="matrix(0.008680555555555554,0,0,0.008680555555555554,10.668402777777777,0)" xlink:href="#bw"/><use transform="matrix(0.008680555555555554,0,0,0.008680555555555554,21.336805555555554,0)" xlink:href="#bw"/><use transform="matrix(0.008680555555555554,0,0,0.008680555555555554,32.00520833333333,0)" xlink:href="#bJ"/><use transform="matrix(0.008680555555555554,0,0,0.008680555555555554,42.67361111111111,0)" xlink:href="#bF"/><use transform="matrix(0.008680555555555554,0,0,0.008680555555555554,53.342013888888886,0)" xlink:href="#ck"/><use transform="matrix(0.008680555555555554,0,0,0.008680555555555554,64.01041666666666,0)" xlink:href="#cf"/><use transform="matrix(0.008680555555555554,0,0,0.008680555555555554,74.67881944444443,0)" xlink:href="#bw"/><use transform="matrix(0.008680555555555554,0,0,0.008680555555555554,85.3472222222222,0)" xlink:href="#bx"/></g><g id="ao"><use transform="matrix(0.008680555555555554,0,0,0.008680555555555554,0,0)" xlink:href="#bF"/><use transform="matrix(0.008680555555555554,0,0,0.008680555555555554,10.668402777777777,0)" xlink:href="#bB"/><use transform="matrix(0.008680555555555554,0,0,0.008680555555555554,21.336805555555554,0)" xlink:href="#cl"/><use transform="matrix(0.008680555555555554,0,0,0.008680555555555554,32.00520833333333,0)" xlink:href="#bx"/><use transform="matrix(0.008680555555555554,0,0,0.008680555555555554,42.67361111111111,0)" xlink:href="#by"/></g><use transform="matrix(0.008680555555555554,0,0,0.008680555555555554,0,0)" xlink:href="#cK" id="aq"/></defs></g></svg>