<svg xmlns="http://www.w3.org/2000/svg" xmlns:xlink="http://www.w3.org/1999/xlink" xmlns:lucid="lucid" width="1060" height="480"><g transform="translate(1860 20)" lucid:page-tab-id="0_0"><path d="M-2000 0h1500v500h-1500z" fill="#fff"/><path d="M-1380 126c0-3.3 2.7-6 6-6h548c3.3 0 6 2.7 6 6v129.1c0 3.3-2.7 6-6 6h-548c-3.3 0-6-2.7-6-6z" stroke="#000" stroke-opacity="0" stroke-width="3" fill="#b2d6ef"/><path d="M-1380 306c0-3.3 2.7-6 6-6h548c3.3 0 6 2.7 6 6v128c0 3.3-2.7 6-6 6h-548c-3.3 0-6-2.7-6-6z" stroke="#000" stroke-opacity="0" stroke-width="3" fill="#ffdba9"/><path d="M-1380 306c0-3.3 2.7-6 6-6h208c3.3 0 6 2.7 6 6v28c0 3.3-2.7 6-6 6h-208c-3.3 0-6-2.7-6-6z" stroke="#000" stroke-opacity="0" stroke-width="3" fill="#fff" fill-opacity="0"/><use xlink:href="#a" transform="matrix(1,0,0,1,-1375,305) translate(0 21.51111111111108)"/><use xlink:href="#b" transform="matrix(1,0,0,1,-1375,305) translate(101.5055555555554 21.51111111111108)"/><path d="M-1360 166c0-3.3 2.7-6 6-6h148c3.3 0 6 2.7 6 6v68c0 3.3-2.7 6-6 6h-148c-3.3 0-6-2.7-6-6z" stroke="#000" stroke-opacity="0" stroke-width="3" fill="#0c7cba"/><use xlink:href="#c" transform="matrix(1,0,0,1,-1348,172) translate(43.525 14.4)"/><use xlink:href="#d" transform="matrix(1,0,0,1,-1348,172) translate(23.049999999999997 38.66666666666667)"/><path d="M-1380 126c0-3.3 2.7-6 6-6h408c3.3 0 6 2.7 6 6v28c0 3.3-2.7 6-6 6h-408c-3.3 0-6-2.7-6-6z" stroke="#000" stroke-opacity="0" stroke-width="3" fill="#fff" fill-opacity="0"/><use xlink:href="#e" transform="matrix(1,0,0,1,-1375,125) translate(0 21.51111111111108)"/><use xlink:href="#f" transform="matrix(1,0,0,1,-1375,125) translate(117.93765432098749 21.51111111111108)"/><use xlink:href="#g" transform="matrix(1,0,0,1,-1375,125) translate(182.17222222222196 21.51111111111108)"/><use xlink:href="#h" transform="matrix(1,0,0,1,-1375,125) translate(300.03518518518473 21.51111111111108)"/><path d="M-1100 262.1v19.4" stroke="#5e5e5e" stroke-width="2" fill="none"/><path d="M-1099 262.13h-2v-1.03h2" fill="#5e5e5e"/><path d="M-1100 296.76l-4.64-14.26h9.28z" stroke="#5e5e5e" stroke-width="2" fill="#5e5e5e"/><path d="M-1060 346c0-3.3 2.7-6 6-6h209.18c3.3 0 6 2.7 6 6v68c0 3.3-2.7 6-6 6H-1054c-3.3 0-6-2.7-6-6z" stroke="#000" stroke-opacity="0" stroke-width="3" fill="#ef8d22"/><use xlink:href="#i" transform="matrix(1,0,0,1,-1048,352) translate(29.125 21.4)"/><use xlink:href="#j" transform="matrix(1,0,0,1,-1048,352) translate(119.92500000000001 21.4)"/><use xlink:href="#k" transform="matrix(1,0,0,1,-1048,352) translate(59.525 43)"/><path d="M-1360 346c0-3.3 2.7-6 6-6h208c3.3 0 6 2.7 6 6v68c0 3.3-2.7 6-6 6h-208c-3.3 0-6-2.7-6-6z" stroke="#000" stroke-opacity="0" stroke-width="3" fill="#ef8d22"/><use xlink:href="#l" transform="matrix(1,0,0,1,-1348,352) translate(11.574999999999989 31.9)"/><use xlink:href="#m" transform="matrix(1,0,0,1,-1348,352) translate(79.52499999999999 31.9)"/><path d="M-1180 166c0-3.3 2.7-6 6-6h148c3.3 0 6 2.7 6 6v68c0 3.3-2.7 6-6 6h-148c-3.3 0-6-2.7-6-6z" stroke="#000" stroke-opacity="0" stroke-width="3" fill="#0c7cba"/><use xlink:href="#n" transform="matrix(1,0,0,1,-1168,172) translate(27.049999999999997 14.4)"/><use xlink:href="#d" transform="matrix(1,0,0,1,-1168,172) translate(23.049999999999997 38.66666666666667)"/><path d="M-1000 166c0-3.3 2.7-6 6-6h148c3.3 0 6 2.7 6 6v68c0 3.3-2.7 6-6 6h-148c-3.3 0-6-2.7-6-6z" stroke="#000" stroke-opacity="0" stroke-width="3" fill="#0c7cba"/><use xlink:href="#o" transform="matrix(1,0,0,1,-988,172) translate(45.525 21.4)"/><use xlink:href="#p" transform="matrix(1,0,0,1,-988,172) translate(17.049999999999997 43)"/><path d="M-1100 75.8v25.7" stroke="#5e5e5e" stroke-width="2" fill="none"/><path d="M-1099 75.83h-2V74.8h2" fill="#5e5e5e"/><path d="M-1100 116.76l-4.64-14.26h9.28z" stroke="#5e5e5e" stroke-width="2" fill="#5e5e5e"/><path d="M-1310 6c0-3.3 2.7-6 6-6h408c3.3 0 6 2.7 6 6v62.8c0 3.3-2.7 6-6 6h-408c-3.3 0-6-2.7-6-6z" stroke="#000" stroke-opacity="0" stroke-width="3" fill="#fff" fill-opacity="0"/><g><use xlink:href="#q" transform="matrix(1,0,0,1,-1305,5) translate(138.8500000000002 14.399999999999963)"/><use xlink:href="#r" transform="matrix(1,0,0,1,-1305,5) translate(190.35000000000005 14.399999999999963)"/><use xlink:href="#s" transform="matrix(1,0,0,1,-1305,5) translate(54.10000000000042 35.99999999999991)"/><use xlink:href="#t" transform="matrix(1,0,0,1,-1305,5) translate(146.00000000000017 35.99999999999991)"/><use xlink:href="#u" transform="matrix(1,0,0,1,-1305,5) translate(176.00000000000009 35.99999999999991)"/><use xlink:href="#v" transform="matrix(1,0,0,1,-1305,5) translate(186.00000000000006 35.99999999999991)"/><use xlink:href="#u" transform="matrix(1,0,0,1,-1305,5) translate(215.99999999999997 35.99999999999991)"/><use xlink:href="#w" transform="matrix(1,0,0,1,-1305,5) translate(225.99999999999994 35.99999999999991)"/><use xlink:href="#u" transform="matrix(1,0,0,1,-1305,5) translate(285.9999999999998 35.99999999999991)"/><use xlink:href="#x" transform="matrix(1,0,0,1,-1305,5) translate(295.9999999999998 35.99999999999991)"/><use xlink:href="#y" transform="matrix(1,0,0,1,-1305,5) translate(4.150000000000546 57.59999999999985)"/><use xlink:href="#z" transform="matrix(1,0,0,1,-1305,5) translate(63.100000000000385 57.59999999999985)"/><use xlink:href="#u" transform="matrix(1,0,0,1,-1305,5) translate(115.05000000000024 57.59999999999985)"/><use xlink:href="#A" transform="matrix(1,0,0,1,-1305,5) translate(125.05000000000021 57.59999999999985)"/><use xlink:href="#B" transform="matrix(1,0,0,1,-1305,5) translate(189.00000000000003 57.59999999999985)"/><use xlink:href="#C" transform="matrix(1,0,0,1,-1305,5) translate(228.94999999999993 57.59999999999985)"/><use xlink:href="#D" transform="matrix(1,0,0,1,-1305,5) translate(263.9499999999998 57.59999999999985)"/><use xlink:href="#u" transform="matrix(1,0,0,1,-1305,5) translate(314.8999999999997 57.59999999999985)"/><use xlink:href="#E" transform="matrix(1,0,0,1,-1305,5) translate(324.8999999999997 57.59999999999985)"/></g><path d="M-1620 126c0-3.3 2.7-6 6-6h188c3.3 0 6 2.7 6 6v308c0 3.3-2.7 6-6 6h-188c-3.3 0-6-2.7-6-6z" stroke="#d1bcd2" stroke-width="2" fill="#d1bcd2"/><path d="M-1620 126c0-3.3 2.7-6 6-6h208c3.3 0 6 2.7 6 6v28c0 3.3-2.7 6-6 6h-208c-3.3 0-6-2.7-6-6z" stroke="#000" stroke-opacity="0" stroke-width="3" fill="#fff" fill-opacity="0"/><g><use xlink:href="#F" transform="matrix(1,0,0,1,-1615,125) translate(0 21.51111111111108)"/><use xlink:href="#G" transform="matrix(1,0,0,1,-1615,125) translate(83.50493827160481 21.51111111111108)"/><use xlink:href="#H" transform="matrix(1,0,0,1,-1615,125) translate(98.44320987654307 21.51111111111108)"/><use xlink:href="#I" transform="matrix(1,0,0,1,-1615,125) translate(0 53.7777777777777)"/></g><path d="M-1840 186c0-3.3 2.7-6 6-6h168c3.3 0 6 2.7 6 6v188c0 3.3-2.7 6-6 6h-168c-3.3 0-6-2.7-6-6z" stroke="#333" stroke-width="3" fill="#fff" fill-opacity="0"/><g><use xlink:href="#J" transform="matrix(1,0,0,1,-1835,185) translate(0 17.95555555555552)"/><use xlink:href="#K" transform="matrix(1,0,0,1,-1835,185) translate(0 44.8888888888888)"/><use xlink:href="#L" transform="matrix(1,0,0,1,-1835,185) translate(0 71.82222222222208)"/><use xlink:href="#M" transform="matrix(1,0,0,1,-1835,185) translate(0 98.75555555555536)"/><use xlink:href="#N" transform="matrix(1,0,0,1,-1835,185) translate(12.469135802469111 98.75555555555536)"/><use xlink:href="#O" transform="matrix(1,0,0,1,-1835,185) translate(0 124.79999999999978)"/><use xlink:href="#P" transform="matrix(1,0,0,1,-1835,185) translate(11.851851851851853 124.79999999999978)"/><use xlink:href="#O" transform="matrix(1,0,0,1,-1835,185) translate(0 150.39999999999978)"/><use xlink:href="#Q" transform="matrix(1,0,0,1,-1835,185) translate(11.851851851851853 150.39999999999978)"/><use xlink:href="#R" transform="matrix(1,0,0,1,-1835,185) translate(46.57777777777778 150.39999999999978)"/></g><path d="M-1657.5 280h18" stroke="#5e5e5e" stroke-width="2" fill="none"/><path d="M-1657.47 281h-1.03v-2h1.03" fill="#5e5e5e"/><path d="M-1624.24 280l-14.26 4.64v-9.28z" stroke="#5e5e5e" stroke-width="2" fill="#5e5e5e"/><defs><path fill="#ef8d22" d="M212-179c-10-28-35-45-73-45-59 0-87 40-87 99 0 60 29 101 89 101 43 0 62-24 78-52l27 14C228-24 195 4 139 4 59 4 22-46 18-125c-6-104 99-153 187-111 19 9 31 26 39 46" id="S"/><path fill="#ef8d22" d="M100-194c62-1 85 37 85 99 1 63-27 99-86 99S16-35 15-95c0-66 28-99 85-99zM99-20c44 1 53-31 53-75 0-43-8-75-51-75s-53 32-53 75 10 74 51 75" id="T"/><path fill="#ef8d22" d="M117-194c89-4 53 116 60 194h-32v-121c0-31-8-49-39-48C34-167 62-67 57 0H25l-1-190h30c1 10-1 24 2 32 11-22 29-35 61-36" id="U"/><path fill="#ef8d22" d="M59-47c-2 24 18 29 38 22v24C64 9 27 4 27-40v-127H5v-23h24l9-43h21v43h35v23H59v120" id="V"/><path fill="#ef8d22" d="M100-194c63 0 86 42 84 106H49c0 40 14 67 53 68 26 1 43-12 49-29l28 8c-11 28-37 45-77 45C44 4 14-33 15-96c1-61 26-98 85-98zm52 81c6-60-76-77-97-28-3 7-6 17-6 28h103" id="W"/><g id="a"><use transform="matrix(0.07469135802469125,0,0,0.07469135802469125,0,0)" xlink:href="#S"/><use transform="matrix(0.07469135802469125,0,0,0.07469135802469125,19.345061728395034,0)" xlink:href="#T"/><use transform="matrix(0.07469135802469125,0,0,0.07469135802469125,34.28333333333328,0)" xlink:href="#U"/><use transform="matrix(0.07469135802469125,0,0,0.07469135802469125,49.22160493827153,0)" xlink:href="#V"/><use transform="matrix(0.07469135802469125,0,0,0.07469135802469125,56.69074074074066,0)" xlink:href="#W"/><use transform="matrix(0.07469135802469125,0,0,0.07469135802469125,71.6290123456789,0)" xlink:href="#U"/><use transform="matrix(0.07469135802469125,0,0,0.07469135802469125,86.56728395061715,0)" xlink:href="#V"/></g><path fill="#ef8d22" d="M96-169c-40 0-48 33-48 73s9 75 48 75c24 0 41-14 43-38l32 2c-6 37-31 61-74 61-59 0-76-41-82-99-10-93 101-131 147-64 4 7 5 14 7 22l-32 3c-4-21-16-35-41-35" id="X"/><path fill="#ef8d22" d="M24 0v-261h32V0H24" id="Y"/><path fill="#ef8d22" d="M84 4C-5 8 30-112 23-190h32v120c0 31 7 50 39 49 72-2 45-101 50-169h31l1 190h-30c-1-10 1-25-2-33-11 22-28 36-60 37" id="Z"/><path fill="#ef8d22" d="M135-143c-3-34-86-38-87 0 15 53 115 12 119 90S17 21 10-45l28-5c4 36 97 45 98 0-10-56-113-15-118-90-4-57 82-63 122-42 12 7 21 19 24 35" id="aa"/><path fill="#ef8d22" d="M114-163C36-179 61-72 57 0H25l-1-190h30c1 12-1 29 2 39 6-27 23-49 58-41v29" id="ab"/><g id="b"><use transform="matrix(0.07469135802469125,0,0,0.07469135802469125,0,0)" xlink:href="#X"/><use transform="matrix(0.07469135802469125,0,0,0.07469135802469125,13.444444444444425,0)" xlink:href="#Y"/><use transform="matrix(0.07469135802469125,0,0,0.07469135802469125,19.345061728395034,0)" xlink:href="#Z"/><use transform="matrix(0.07469135802469125,0,0,0.07469135802469125,34.28333333333328,0)" xlink:href="#aa"/><use transform="matrix(0.07469135802469125,0,0,0.07469135802469125,47.727777777777696,0)" xlink:href="#V"/><use transform="matrix(0.07469135802469125,0,0,0.07469135802469125,55.196913580246836,0)" xlink:href="#W"/><use transform="matrix(0.07469135802469125,0,0,0.07469135802469125,70.13518518518508,0)" xlink:href="#ab"/></g><path fill="#fff" d="M140-251c81 0 123 46 123 126C263-53 228-8 163 1c7 30 30 48 69 40v23c-55 16-95-15-103-61C56-3 17-48 17-125c0-80 42-126 123-126zm0 227c63 0 89-41 89-101s-29-99-89-99c-61 0-89 39-89 99S79-25 140-24" id="ac"/><path fill="#fff" d="M84 4C-5 8 30-112 23-190h32v120c0 31 7 50 39 49 72-2 45-101 50-169h31l1 190h-30c-1-10 1-25-2-33-11 22-28 36-60 37" id="ad"/><path fill="#fff" d="M100-194c63 0 86 42 84 106H49c0 40 14 67 53 68 26 1 43-12 49-29l28 8c-11 28-37 45-77 45C44 4 14-33 15-96c1-61 26-98 85-98zm52 81c6-60-76-77-97-28-3 7-6 17-6 28h103" id="ae"/><path fill="#fff" d="M114-163C36-179 61-72 57 0H25l-1-190h30c1 12-1 29 2 39 6-27 23-49 58-41v29" id="af"/><path fill="#fff" d="M179-190L93 31C79 59 56 82 12 73V49c39 6 53-20 64-50L1-190h34L92-34l54-156h33" id="ag"/><g id="c"><use transform="matrix(0.05,0,0,0.05,0,0)" xlink:href="#ac"/><use transform="matrix(0.05,0,0,0.05,14,0)" xlink:href="#ad"/><use transform="matrix(0.05,0,0,0.05,24,0)" xlink:href="#ae"/><use transform="matrix(0.05,0,0,0.05,34,0)" xlink:href="#af"/><use transform="matrix(0.05,0,0,0.05,39.95,0)" xlink:href="#ag"/></g><path fill="#fff" d="M30-248c87 1 191-15 191 75 0 78-77 80-158 76V0H30v-248zm33 125c57 0 124 11 124-50 0-59-68-47-124-48v98" id="ah"/><path fill="#fff" d="M100-194c62-1 85 37 85 99 1 63-27 99-86 99S16-35 15-95c0-66 28-99 85-99zM99-20c44 1 53-31 53-75 0-43-8-75-51-75s-53 32-53 75 10 74 51 75" id="ai"/><path fill="#fff" d="M96-169c-40 0-48 33-48 73s9 75 48 75c24 0 41-14 43-38l32 2c-6 37-31 61-74 61-59 0-76-41-82-99-10-93 101-131 147-64 4 7 5 14 7 22l-32 3c-4-21-16-35-41-35" id="aj"/><path fill="#fff" d="M135-143c-3-34-86-38-87 0 15 53 115 12 119 90S17 21 10-45l28-5c4 36 97 45 98 0-10-56-113-15-118-90-4-57 82-63 122-42 12 7 21 19 24 35" id="ak"/><g id="d"><use transform="matrix(0.05,0,0,0.05,0,0)" xlink:href="#ah"/><use transform="matrix(0.05,0,0,0.05,12,0)" xlink:href="#af"/><use transform="matrix(0.05,0,0,0.05,17.95,0)" xlink:href="#ai"/><use transform="matrix(0.05,0,0,0.05,27.950000000000003,0)" xlink:href="#aj"/><use transform="matrix(0.05,0,0,0.05,36.95,0)" xlink:href="#ae"/><use transform="matrix(0.05,0,0,0.05,46.95,0)" xlink:href="#ak"/><use transform="matrix(0.05,0,0,0.05,55.95,0)" xlink:href="#ak"/><use transform="matrix(0.05,0,0,0.05,64.95,0)" xlink:href="#ai"/><use transform="matrix(0.05,0,0,0.05,74.95,0)" xlink:href="#af"/><use transform="matrix(0.05,0,0,0.05,80.9,0)" xlink:href="#ak"/></g><path fill="#0c7cba" d="M185-189c-5-48-123-54-124 2 14 75 158 14 163 119 3 78-121 87-175 55-17-10-28-26-33-46l33-7c5 56 141 63 141-1 0-78-155-14-162-118-5-82 145-84 179-34 5 7 8 16 11 25" id="al"/><path fill="#0c7cba" d="M59-47c-2 24 18 29 38 22v24C64 9 27 4 27-40v-127H5v-23h24l9-43h21v43h35v23H59v120" id="am"/><path fill="#0c7cba" d="M141-36C126-15 110 5 73 4 37 3 15-17 15-53c-1-64 63-63 125-63 3-35-9-54-41-54-24 1-41 7-42 31l-33-3c5-37 33-52 76-52 45 0 72 20 72 64v82c-1 20 7 32 28 27v20c-31 9-61-2-59-35zM48-53c0 20 12 33 32 33 41-3 63-29 60-74-43 2-92-5-92 41" id="an"/><path fill="#0c7cba" d="M100-194c63 0 86 42 84 106H49c0 40 14 67 53 68 26 1 43-12 49-29l28 8c-11 28-37 45-77 45C44 4 14-33 15-96c1-61 26-98 85-98zm52 81c6-60-76-77-97-28-3 7-6 17-6 28h103" id="ao"/><path fill="#0c7cba" d="M24 0v-261h32V0H24" id="ap"/><path fill="#0c7cba" d="M135-143c-3-34-86-38-87 0 15 53 115 12 119 90S17 21 10-45l28-5c4 36 97 45 98 0-10-56-113-15-118-90-4-57 82-63 122-42 12 7 21 19 24 35" id="aq"/><g id="e"><use transform="matrix(0.07469135802469125,0,0,0.07469135802469125,0,0)" xlink:href="#al"/><use transform="matrix(0.07469135802469125,0,0,0.07469135802469125,17.9259259259259,0)" xlink:href="#am"/><use transform="matrix(0.07469135802469125,0,0,0.07469135802469125,25.395061728395024,0)" xlink:href="#an"/><use transform="matrix(0.07469135802469125,0,0,0.07469135802469125,40.33333333333327,0)" xlink:href="#am"/><use transform="matrix(0.07469135802469125,0,0,0.07469135802469125,47.8024691358024,0)" xlink:href="#ao"/><use transform="matrix(0.07469135802469125,0,0,0.07469135802469125,62.74074074074065,0)" xlink:href="#ap"/><use transform="matrix(0.07469135802469125,0,0,0.07469135802469125,68.64135802469126,0)" xlink:href="#ao"/><use transform="matrix(0.07469135802469125,0,0,0.07469135802469125,83.57962962962951,0)" xlink:href="#aq"/><use transform="matrix(0.07469135802469125,0,0,0.07469135802469125,97.02407407407394,0)" xlink:href="#aq"/></g><path fill="#0c7cba" d="M153-248C145-148 188 4 80 4 36 3 13-21 6-62l32-5c4 25 16 42 43 43 27 0 39-20 39-49v-147H72v-28h81" id="ar"/><path fill="#0c7cba" d="M108 0H70L1-190h34L89-25l56-165h34" id="as"/><g id="f"><use transform="matrix(0.07469135802469125,0,0,0.07469135802469125,0,0)" xlink:href="#ar"/><use transform="matrix(0.07469135802469125,0,0,0.07469135802469125,13.444444444444425,0)" xlink:href="#an"/><use transform="matrix(0.07469135802469125,0,0,0.07469135802469125,28.382716049382676,0)" xlink:href="#as"/><use transform="matrix(0.07469135802469125,0,0,0.07469135802469125,41.827160493827094,0)" xlink:href="#an"/></g><path fill="#0c7cba" d="M96-169c-40 0-48 33-48 73s9 75 48 75c24 0 41-14 43-38l32 2c-6 37-31 61-74 61-59 0-76-41-82-99-10-93 101-131 147-64 4 7 5 14 7 22l-32 3c-4-21-16-35-41-35" id="at"/><path fill="#0c7cba" d="M100-194c62-1 85 37 85 99 1 63-27 99-86 99S16-35 15-95c0-66 28-99 85-99zM99-20c44 1 53-31 53-75 0-43-8-75-51-75s-53 32-53 75 10 74 51 75" id="au"/><path fill="#0c7cba" d="M117-194c89-4 53 116 60 194h-32v-121c0-31-8-49-39-48C34-167 62-67 57 0H25l-1-190h30c1 10-1 24 2 32 11-22 29-35 61-36" id="av"/><path fill="#0c7cba" d="M24-231v-30h32v30H24zM24 0v-190h32V0H24" id="aw"/><path fill="#0c7cba" d="M114-163C36-179 61-72 57 0H25l-1-190h30c1 12-1 29 2 39 6-27 23-49 58-41v29" id="ax"/><g id="g"><use transform="matrix(0.07469135802469125,0,0,0.07469135802469125,0,0)" xlink:href="#at"/><use transform="matrix(0.07469135802469125,0,0,0.07469135802469125,13.444444444444425,0)" xlink:href="#au"/><use transform="matrix(0.07469135802469125,0,0,0.07469135802469125,28.382716049382676,0)" xlink:href="#av"/><use transform="matrix(0.07469135802469125,0,0,0.07469135802469125,43.32098765432092,0)" xlink:href="#am"/><use transform="matrix(0.07469135802469125,0,0,0.07469135802469125,50.79012345679005,0)" xlink:href="#an"/><use transform="matrix(0.07469135802469125,0,0,0.07469135802469125,65.72839506172829,0)" xlink:href="#aw"/><use transform="matrix(0.07469135802469125,0,0,0.07469135802469125,71.6290123456789,0)" xlink:href="#av"/><use transform="matrix(0.07469135802469125,0,0,0.07469135802469125,86.56728395061715,0)" xlink:href="#ao"/><use transform="matrix(0.07469135802469125,0,0,0.07469135802469125,101.5055555555554,0)" xlink:href="#ax"/></g><path fill="#0c7cba" d="M84 4C-5 8 30-112 23-190h32v120c0 31 7 50 39 49 72-2 45-101 50-169h31l1 190h-30c-1-10 1-25-2-33-11 22-28 36-60 37" id="ay"/><g id="h"><use transform="matrix(0.07469135802469125,0,0,0.07469135802469125,0,0)" xlink:href="#at"/><use transform="matrix(0.07469135802469125,0,0,0.07469135802469125,13.444444444444425,0)" xlink:href="#ap"/><use transform="matrix(0.07469135802469125,0,0,0.07469135802469125,19.345061728395034,0)" xlink:href="#ay"/><use transform="matrix(0.07469135802469125,0,0,0.07469135802469125,34.28333333333328,0)" xlink:href="#aq"/><use transform="matrix(0.07469135802469125,0,0,0.07469135802469125,47.727777777777696,0)" xlink:href="#am"/><use transform="matrix(0.07469135802469125,0,0,0.07469135802469125,55.196913580246836,0)" xlink:href="#ao"/><use transform="matrix(0.07469135802469125,0,0,0.07469135802469125,70.13518518518508,0)" xlink:href="#ax"/></g><path fill="#fff" d="M30-248c118-7 216 8 213 122C240-48 200 0 122 0H30v-248zM63-27c89 8 146-16 146-99s-60-101-146-95v194" id="az"/><path fill="#fff" d="M24-231v-30h32v30H24zM24 0v-190h32V0H24" id="aA"/><path fill="#fff" d="M59-47c-2 24 18 29 38 22v24C64 9 27 4 27-40v-127H5v-23h24l9-43h21v43h35v23H59v120" id="aB"/><path fill="#fff" d="M115-194c53 0 69 39 70 98 0 66-23 100-70 100C84 3 66-7 56-30L54 0H23l1-261h32v101c10-23 28-34 59-34zm-8 174c40 0 45-34 45-75 0-40-5-75-45-74-42 0-51 32-51 76 0 43 10 73 51 73" id="aC"/><path fill="#fff" d="M85-194c31 0 48 13 60 33l-1-100h32l1 261h-30c-2-10 0-23-3-31C134-8 116 4 85 4 32 4 16-35 15-94c0-66 23-100 70-100zm9 24c-40 0-46 34-46 75 0 40 6 74 45 74 42 0 51-32 51-76 0-42-9-74-50-73" id="aD"/><g id="i"><use transform="matrix(0.05,0,0,0.05,0,0)" xlink:href="#az"/><use transform="matrix(0.05,0,0,0.05,12.950000000000001,0)" xlink:href="#aA"/><use transform="matrix(0.05,0,0,0.05,16.900000000000002,0)" xlink:href="#ak"/><use transform="matrix(0.05,0,0,0.05,25.900000000000002,0)" xlink:href="#aB"/><use transform="matrix(0.05,0,0,0.05,30.900000000000002,0)" xlink:href="#af"/><use transform="matrix(0.05,0,0,0.05,36.85,0)" xlink:href="#aA"/><use transform="matrix(0.05,0,0,0.05,40.800000000000004,0)" xlink:href="#aC"/><use transform="matrix(0.05,0,0,0.05,50.800000000000004,0)" xlink:href="#ad"/><use transform="matrix(0.05,0,0,0.05,60.800000000000004,0)" xlink:href="#aB"/><use transform="matrix(0.05,0,0,0.05,65.80000000000001,0)" xlink:href="#ae"/><use transform="matrix(0.05,0,0,0.05,75.80000000000001,0)" xlink:href="#aD"/></g><g id="j"><use transform="matrix(0.05,0,0,0.05,0,0)" xlink:href="#ac"/><use transform="matrix(0.05,0,0,0.05,14,0)" xlink:href="#ad"/><use transform="matrix(0.05,0,0,0.05,24,0)" xlink:href="#ae"/><use transform="matrix(0.05,0,0,0.05,34,0)" xlink:href="#af"/><use transform="matrix(0.05,0,0,0.05,39.95,0)" xlink:href="#ag"/></g><path fill="#fff" d="M30 0v-248h187v28H63v79h144v27H63v87h162V0H30" id="aE"/><path fill="#fff" d="M141 0L90-78 38 0H4l68-98-65-92h35l48 74 47-74h35l-64 92 68 98h-35" id="aF"/><path fill="#fff" d="M117-194c89-4 53 116 60 194h-32v-121c0-31-8-49-39-48C34-167 62-67 57 0H25l-1-190h30c1 10-1 24 2 32 11-22 29-35 61-36" id="aG"/><g id="k"><use transform="matrix(0.05,0,0,0.05,0,0)" xlink:href="#aE"/><use transform="matrix(0.05,0,0,0.05,12,0)" xlink:href="#aF"/><use transform="matrix(0.05,0,0,0.05,21,0)" xlink:href="#ae"/><use transform="matrix(0.05,0,0,0.05,31,0)" xlink:href="#aj"/><use transform="matrix(0.05,0,0,0.05,40,0)" xlink:href="#ad"/><use transform="matrix(0.05,0,0,0.05,50,0)" xlink:href="#aB"/><use transform="matrix(0.05,0,0,0.05,55,0)" xlink:href="#aA"/><use transform="matrix(0.05,0,0,0.05,58.95,0)" xlink:href="#ai"/><use transform="matrix(0.05,0,0,0.05,68.95,0)" xlink:href="#aG"/></g><path fill="#fff" d="M212-179c-10-28-35-45-73-45-59 0-87 40-87 99 0 60 29 101 89 101 43 0 62-24 78-52l27 14C228-24 195 4 139 4 59 4 22-46 18-125c-6-104 99-153 187-111 19 9 31 26 39 46" id="aH"/><g id="l"><use transform="matrix(0.05,0,0,0.05,0,0)" xlink:href="#aH"/><use transform="matrix(0.05,0,0,0.05,12.950000000000001,0)" xlink:href="#ai"/><use transform="matrix(0.05,0,0,0.05,22.950000000000003,0)" xlink:href="#aG"/><use transform="matrix(0.05,0,0,0.05,32.95,0)" xlink:href="#aB"/><use transform="matrix(0.05,0,0,0.05,37.95,0)" xlink:href="#ae"/><use transform="matrix(0.05,0,0,0.05,47.95,0)" xlink:href="#aG"/><use transform="matrix(0.05,0,0,0.05,57.95,0)" xlink:href="#aB"/></g><path fill="#fff" d="M240 0l2-218c-23 76-54 145-80 218h-23L58-218 59 0H30v-248h44l77 211c21-75 51-140 76-211h43V0h-30" id="aI"/><path fill="#fff" d="M141-36C126-15 110 5 73 4 37 3 15-17 15-53c-1-64 63-63 125-63 3-35-9-54-41-54-24 1-41 7-42 31l-33-3c5-37 33-52 76-52 45 0 72 20 72 64v82c-1 20 7 32 28 27v20c-31 9-61-2-59-35zM48-53c0 20 12 33 32 33 41-3 63-29 60-74-43 2-92-5-92 41" id="aJ"/><path fill="#fff" d="M177-190C167-65 218 103 67 71c-23-6-38-20-44-43l32-5c15 47 100 32 89-28v-30C133-14 115 1 83 1 29 1 15-40 15-95c0-56 16-97 71-98 29-1 48 16 59 35 1-10 0-23 2-32h30zM94-22c36 0 50-32 50-73 0-42-14-75-50-75-39 0-46 34-46 75s6 73 46 73" id="aK"/><path fill="#fff" d="M210-169c-67 3-38 105-44 169h-31v-121c0-29-5-50-35-48C34-165 62-65 56 0H25l-1-190h30c1 10-1 24 2 32 10-44 99-50 107 0 11-21 27-35 58-36 85-2 47 119 55 194h-31v-121c0-29-5-49-35-48" id="aL"/><g id="m"><use transform="matrix(0.05,0,0,0.05,0,0)" xlink:href="#aI"/><use transform="matrix(0.05,0,0,0.05,14.950000000000001,0)" xlink:href="#aJ"/><use transform="matrix(0.05,0,0,0.05,24.950000000000003,0)" xlink:href="#aG"/><use transform="matrix(0.05,0,0,0.05,34.95,0)" xlink:href="#aJ"/><use transform="matrix(0.05,0,0,0.05,44.95,0)" xlink:href="#aK"/><use transform="matrix(0.05,0,0,0.05,54.95,0)" xlink:href="#ae"/><use transform="matrix(0.05,0,0,0.05,64.95,0)" xlink:href="#aL"/><use transform="matrix(0.05,0,0,0.05,79.9,0)" xlink:href="#ae"/><use transform="matrix(0.05,0,0,0.05,89.9,0)" xlink:href="#aG"/><use transform="matrix(0.05,0,0,0.05,99.9,0)" xlink:href="#aB"/></g><g id="n"><use transform="matrix(0.05,0,0,0.05,0,0)" xlink:href="#az"/><use transform="matrix(0.05,0,0,0.05,12.950000000000001,0)" xlink:href="#ai"/><use transform="matrix(0.05,0,0,0.05,22.950000000000003,0)" xlink:href="#aj"/><use transform="matrix(0.05,0,0,0.05,31.950000000000003,0)" xlink:href="#ad"/><use transform="matrix(0.05,0,0,0.05,41.95,0)" xlink:href="#aL"/><use transform="matrix(0.05,0,0,0.05,56.900000000000006,0)" xlink:href="#ae"/><use transform="matrix(0.05,0,0,0.05,66.9,0)" xlink:href="#aG"/><use transform="matrix(0.05,0,0,0.05,76.9,0)" xlink:href="#aB"/></g><path fill="#fff" d="M140-251c81 0 123 46 123 126C263-46 219 4 140 4 59 4 17-45 17-125s42-126 123-126zm0 227c63 0 89-41 89-101s-29-99-89-99c-61 0-89 39-89 99S79-25 140-24" id="aM"/><path fill="#fff" d="M106-169C34-169 62-67 57 0H25v-261h32l-1 103c12-21 28-36 61-36 89 0 53 116 60 194h-32v-121c2-32-8-49-39-48" id="aN"/><g id="o"><use transform="matrix(0.05,0,0,0.05,0,0)" xlink:href="#aM"/><use transform="matrix(0.05,0,0,0.05,14,0)" xlink:href="#aB"/><use transform="matrix(0.05,0,0,0.05,19,0)" xlink:href="#aN"/><use transform="matrix(0.05,0,0,0.05,29,0)" xlink:href="#ae"/><use transform="matrix(0.05,0,0,0.05,39,0)" xlink:href="#af"/></g><path fill="#fff" d="M115-194c55 1 70 41 70 98S169 2 115 4C84 4 66-9 55-30l1 105H24l-1-265h31l2 30c10-21 28-34 59-34zm-8 174c40 0 45-34 45-75s-6-73-45-74c-42 0-51 32-51 76 0 43 10 73 51 73" id="aO"/><g id="p"><use transform="matrix(0.05,0,0,0.05,0,0)" xlink:href="#aH"/><use transform="matrix(0.05,0,0,0.05,12.950000000000001,0)" xlink:href="#ai"/><use transform="matrix(0.05,0,0,0.05,22.950000000000003,0)" xlink:href="#aL"/><use transform="matrix(0.05,0,0,0.05,37.900000000000006,0)" xlink:href="#aO"/><use transform="matrix(0.05,0,0,0.05,47.900000000000006,0)" xlink:href="#ai"/><use transform="matrix(0.05,0,0,0.05,57.900000000000006,0)" xlink:href="#aG"/><use transform="matrix(0.05,0,0,0.05,67.9,0)" xlink:href="#ae"/><use transform="matrix(0.05,0,0,0.05,77.9,0)" xlink:href="#aG"/><use transform="matrix(0.05,0,0,0.05,87.9,0)" xlink:href="#aB"/><use transform="matrix(0.05,0,0,0.05,92.9,0)" xlink:href="#ak"/></g><path fill="#333" d="M186 0v-106H76V0H24v-248h52v99h110v-99h50V0h-50" id="aP"/><path fill="#333" d="M136-208V0H84v-208H4v-40h212v40h-80" id="aQ"/><path fill="#333" d="M24-248c93 1 206-16 204 79-1 75-69 88-152 82V0H24v-248zm52 121c47 0 100 7 100-41 0-47-54-39-100-39v80" id="aR"/><g id="q"><use transform="matrix(0.04999999999999987,0,0,0.04999999999999987,0,0)" xlink:href="#aP"/><use transform="matrix(0.04999999999999987,0,0,0.04999999999999987,12.949999999999967,0)" xlink:href="#aQ"/><use transform="matrix(0.04999999999999987,0,0,0.04999999999999987,23.899999999999938,0)" xlink:href="#aQ"/><use transform="matrix(0.04999999999999987,0,0,0.04999999999999987,34.84999999999991,0)" xlink:href="#aR"/></g><path fill="#333" d="M240-174c0 40-23 61-54 70L253 0h-59l-57-94H76V0H24v-248c93 4 217-23 216 74zM76-134c48-2 112 12 112-38 0-48-66-32-112-35v73" id="aS"/><path fill="#333" d="M185-48c-13 30-37 53-82 52C43 2 14-33 14-96s30-98 90-98c62 0 83 45 84 108H66c0 31 8 55 39 56 18 0 30-7 34-22zm-45-69c5-46-57-63-70-21-2 6-4 13-4 21h74" id="aT"/><path fill="#333" d="M84 4C32 4 15-41 15-95c0-55 18-99 73-99 29 0 47 12 58 34l2-30h48l-1 265h-49V-32C136-9 114 4 84 4zm21-34c32 0 41-29 41-66 0-36-9-64-40-64-33 0-39 30-40 65 0 43 13 65 39 65" id="aU"/><path fill="#333" d="M85 4C-2 5 27-109 22-190h50c7 57-23 150 33 157 60-5 35-97 40-157h50l1 190h-47c-2-12 1-28-3-38-12 25-28 42-61 42" id="aV"/><path fill="#333" d="M137-138c1-29-70-34-71-4 15 46 118 7 119 86 1 83-164 76-172 9l43-7c4 19 20 25 44 25 33 8 57-30 24-41C81-84 22-81 20-136c-2-80 154-74 161-7" id="aW"/><path fill="#333" d="M115-3C79 11 28 4 28-45v-112H4v-33h27l15-45h31v45h36v33H77v99c-1 23 16 31 38 25v30" id="aX"/><g id="r"><use transform="matrix(0.04999999999999987,0,0,0.04999999999999987,0,0)" xlink:href="#aS"/><use transform="matrix(0.04999999999999987,0,0,0.04999999999999987,12.949999999999967,0)" xlink:href="#aT"/><use transform="matrix(0.04999999999999987,0,0,0.04999999999999987,22.94999999999994,0)" xlink:href="#aU"/><use transform="matrix(0.04999999999999987,0,0,0.04999999999999987,33.899999999999906,0)" xlink:href="#aV"/><use transform="matrix(0.04999999999999987,0,0,0.04999999999999987,44.84999999999988,0)" xlink:href="#aT"/><use transform="matrix(0.04999999999999987,0,0,0.04999999999999987,54.849999999999845,0)" xlink:href="#aW"/><use transform="matrix(0.04999999999999987,0,0,0.04999999999999987,64.84999999999982,0)" xlink:href="#aX"/><use transform="matrix(0.04999999999999987,0,0,0.04999999999999987,70.79999999999981,0)" xlink:href="#aW"/></g><path fill="#333" d="M30-248c118-7 216 8 213 122C240-48 200 0 122 0H30v-248zM63-27c89 8 146-16 146-99s-60-101-146-95v194" id="aY"/><path fill="#333" d="M100-194c62-1 85 37 85 99 1 63-27 99-86 99S16-35 15-95c0-66 28-99 85-99zM99-20c44 1 53-31 53-75 0-43-8-75-51-75s-53 32-53 75 10 74 51 75" id="aZ"/><path fill="#333" d="M96-169c-40 0-48 33-48 73s9 75 48 75c24 0 41-14 43-38l32 2c-6 37-31 61-74 61-59 0-76-41-82-99-10-93 101-131 147-64 4 7 5 14 7 22l-32 3c-4-21-16-35-41-35" id="ba"/><path fill="#333" d="M84 4C-5 8 30-112 23-190h32v120c0 31 7 50 39 49 72-2 45-101 50-169h31l1 190h-30c-1-10 1-25-2-33-11 22-28 36-60 37" id="bb"/><path fill="#333" d="M210-169c-67 3-38 105-44 169h-31v-121c0-29-5-50-35-48C34-165 62-65 56 0H25l-1-190h30c1 10-1 24 2 32 10-44 99-50 107 0 11-21 27-35 58-36 85-2 47 119 55 194h-31v-121c0-29-5-49-35-48" id="bc"/><path fill="#333" d="M100-194c63 0 86 42 84 106H49c0 40 14 67 53 68 26 1 43-12 49-29l28 8c-11 28-37 45-77 45C44 4 14-33 15-96c1-61 26-98 85-98zm52 81c6-60-76-77-97-28-3 7-6 17-6 28h103" id="bd"/><path fill="#333" d="M117-194c89-4 53 116 60 194h-32v-121c0-31-8-49-39-48C34-167 62-67 57 0H25l-1-190h30c1 10-1 24 2 32 11-22 29-35 61-36" id="be"/><path fill="#333" d="M59-47c-2 24 18 29 38 22v24C64 9 27 4 27-40v-127H5v-23h24l9-43h21v43h35v23H59v120" id="bf"/><path fill="#333" d="M33-154v-36h34v36H33zM33 0v-36h34V0H33" id="bg"/><g id="s"><use transform="matrix(0.04999999999999987,0,0,0.04999999999999987,0,0)" xlink:href="#aY"/><use transform="matrix(0.04999999999999987,0,0,0.04999999999999987,12.949999999999967,0)" xlink:href="#aZ"/><use transform="matrix(0.04999999999999987,0,0,0.04999999999999987,22.94999999999994,0)" xlink:href="#ba"/><use transform="matrix(0.04999999999999987,0,0,0.04999999999999987,31.949999999999918,0)" xlink:href="#bb"/><use transform="matrix(0.04999999999999987,0,0,0.04999999999999987,41.94999999999989,0)" xlink:href="#bc"/><use transform="matrix(0.04999999999999987,0,0,0.04999999999999987,56.89999999999986,0)" xlink:href="#bd"/><use transform="matrix(0.04999999999999987,0,0,0.04999999999999987,66.89999999999982,0)" xlink:href="#be"/><use transform="matrix(0.04999999999999987,0,0,0.04999999999999987,76.89999999999979,0)" xlink:href="#bf"/><use transform="matrix(0.04999999999999987,0,0,0.04999999999999987,81.89999999999978,0)" xlink:href="#bg"/></g><path fill="#333" d="M177-190C167-65 218 103 67 71c-23-6-38-20-44-43l32-5c15 47 100 32 89-28v-30C133-14 115 1 83 1 29 1 15-40 15-95c0-56 16-97 71-98 29-1 48 16 59 35 1-10 0-23 2-32h30zM94-22c36 0 50-32 50-73 0-42-14-75-50-75-39 0-46 34-46 75s6 73 46 73" id="bh"/><g id="t"><use transform="matrix(0.04999999999999987,0,0,0.04999999999999987,0,0)" xlink:href="#bh"/><use transform="matrix(0.04999999999999987,0,0,0.04999999999999987,9.999999999999973,0)" xlink:href="#bd"/><use transform="matrix(0.04999999999999987,0,0,0.04999999999999987,19.999999999999947,0)" xlink:href="#bf"/></g><path fill="#333" d="M0 4l72-265h28L28 4H0" id="bi"/><use transform="matrix(0.04999999999999987,0,0,0.04999999999999987,0,0)" xlink:href="#bi" id="u"/><path fill="#333" d="M115-194c55 1 70 41 70 98S169 2 115 4C84 4 66-9 55-30l1 105H24l-1-265h31l2 30c10-21 28-34 59-34zm-8 174c40 0 45-34 45-75s-6-73-45-74c-42 0-51 32-51 76 0 43 10 73 51 73" id="bj"/><g id="v"><use transform="matrix(0.04999999999999987,0,0,0.04999999999999987,0,0)" xlink:href="#bj"/><use transform="matrix(0.04999999999999987,0,0,0.04999999999999987,9.999999999999973,0)" xlink:href="#bb"/><use transform="matrix(0.04999999999999987,0,0,0.04999999999999987,19.999999999999947,0)" xlink:href="#bf"/></g><path fill="#333" d="M85-194c31 0 48 13 60 33l-1-100h32l1 261h-30c-2-10 0-23-3-31C134-8 116 4 85 4 32 4 16-35 15-94c0-66 23-100 70-100zm9 24c-40 0-46 34-46 75 0 40 6 74 45 74 42 0 51-32 51-76 0-42-9-74-50-73" id="bk"/><path fill="#333" d="M141-36C126-15 110 5 73 4 37 3 15-17 15-53c-1-64 63-63 125-63 3-35-9-54-41-54-24 1-41 7-42 31l-33-3c5-37 33-52 76-52 45 0 72 20 72 64v82c-1 20 7 32 28 27v20c-31 9-61-2-59-35zM48-53c0 20 12 33 32 33 41-3 63-29 60-74-43 2-92-5-92 41" id="bl"/><g id="w"><use transform="matrix(0.04999999999999987,0,0,0.04999999999999987,0,0)" xlink:href="#bb"/><use transform="matrix(0.04999999999999987,0,0,0.04999999999999987,9.999999999999973,0)" xlink:href="#bj"/><use transform="matrix(0.04999999999999987,0,0,0.04999999999999987,19.999999999999947,0)" xlink:href="#bk"/><use transform="matrix(0.04999999999999987,0,0,0.04999999999999987,29.999999999999922,0)" xlink:href="#bl"/><use transform="matrix(0.04999999999999987,0,0,0.04999999999999987,39.99999999999989,0)" xlink:href="#bf"/><use transform="matrix(0.04999999999999987,0,0,0.04999999999999987,44.99999999999988,0)" xlink:href="#bd"/></g><path fill="#333" d="M114-163C36-179 61-72 57 0H25l-1-190h30c1 12-1 29 2 39 6-27 23-49 58-41v29" id="bm"/><path fill="#333" d="M108 0H70L1-190h34L89-25l56-165h34" id="bn"/><g id="x"><use transform="matrix(0.04999999999999987,0,0,0.04999999999999987,0,0)" xlink:href="#bm"/><use transform="matrix(0.04999999999999987,0,0,0.04999999999999987,5.949999999999985,0)" xlink:href="#bd"/><use transform="matrix(0.04999999999999987,0,0,0.04999999999999987,15.949999999999958,0)" xlink:href="#bc"/><use transform="matrix(0.04999999999999987,0,0,0.04999999999999987,30.89999999999992,0)" xlink:href="#aZ"/><use transform="matrix(0.04999999999999987,0,0,0.04999999999999987,40.89999999999989,0)" xlink:href="#bn"/><use transform="matrix(0.04999999999999987,0,0,0.04999999999999987,49.89999999999987,0)" xlink:href="#bd"/></g><path fill="#333" d="M140-251c81 0 123 46 123 126C263-53 228-8 163 1c7 30 30 48 69 40v23c-55 16-95-15-103-61C56-3 17-48 17-125c0-80 42-126 123-126zm0 227c63 0 89-41 89-101s-29-99-89-99c-61 0-89 39-89 99S79-25 140-24" id="bo"/><path fill="#333" d="M179-190L93 31C79 59 56 82 12 73V49c39 6 53-20 64-50L1-190h34L92-34l54-156h33" id="bp"/><g id="y"><use transform="matrix(0.04999999999999987,0,0,0.04999999999999987,0,0)" xlink:href="#bo"/><use transform="matrix(0.04999999999999987,0,0,0.04999999999999987,13.999999999999964,0)" xlink:href="#bb"/><use transform="matrix(0.04999999999999987,0,0,0.04999999999999987,23.999999999999936,0)" xlink:href="#bd"/><use transform="matrix(0.04999999999999987,0,0,0.04999999999999987,33.99999999999991,0)" xlink:href="#bm"/><use transform="matrix(0.04999999999999987,0,0,0.04999999999999987,39.94999999999989,0)" xlink:href="#bp"/><use transform="matrix(0.04999999999999987,0,0,0.04999999999999987,48.94999999999987,0)" xlink:href="#bg"/></g><path fill="#333" d="M135-143c-3-34-86-38-87 0 15 53 115 12 119 90S17 21 10-45l28-5c4 36 97 45 98 0-10-56-113-15-118-90-4-57 82-63 122-42 12 7 21 19 24 35" id="bq"/><path fill="#333" d="M24 0v-261h32V0H24" id="br"/><g id="z"><use transform="matrix(0.04999999999999987,0,0,0.04999999999999987,0,0)" xlink:href="#bq"/><use transform="matrix(0.04999999999999987,0,0,0.04999999999999987,8.999999999999977,0)" xlink:href="#bd"/><use transform="matrix(0.04999999999999987,0,0,0.04999999999999987,18.99999999999995,0)" xlink:href="#br"/><use transform="matrix(0.04999999999999987,0,0,0.04999999999999987,22.94999999999994,0)" xlink:href="#bd"/><use transform="matrix(0.04999999999999987,0,0,0.04999999999999987,32.94999999999991,0)" xlink:href="#ba"/><use transform="matrix(0.04999999999999987,0,0,0.04999999999999987,41.94999999999989,0)" xlink:href="#bf"/></g><path fill="#333" d="M106-169C34-169 62-67 57 0H25v-261h32l-1 103c12-21 28-36 61-36 89 0 53 116 60 194h-32v-121c2-32-8-49-39-48" id="bs"/><path fill="#333" d="M68-38c1 34 0 65-14 84H32c9-13 17-26 17-46H33v-38h35" id="bt"/><g id="A"><use transform="matrix(0.04999999999999987,0,0,0.04999999999999987,0,0)" xlink:href="#bq"/><use transform="matrix(0.04999999999999987,0,0,0.04999999999999987,8.999999999999977,0)" xlink:href="#bd"/><use transform="matrix(0.04999999999999987,0,0,0.04999999999999987,18.99999999999995,0)" xlink:href="#bl"/><use transform="matrix(0.04999999999999987,0,0,0.04999999999999987,28.99999999999992,0)" xlink:href="#bm"/><use transform="matrix(0.04999999999999987,0,0,0.04999999999999987,34.9499999999999,0)" xlink:href="#ba"/><use transform="matrix(0.04999999999999987,0,0,0.04999999999999987,43.94999999999988,0)" xlink:href="#bs"/><use transform="matrix(0.04999999999999987,0,0,0.04999999999999987,53.94999999999985,0)" xlink:href="#bt"/></g><path fill="#333" d="M143 0L79-87 56-68V0H24v-261h32v163l83-92h37l-77 82L181 0h-38" id="bu"/><g id="B"><use transform="matrix(0.04999999999999987,0,0,0.04999999999999987,0,0)" xlink:href="#bm"/><use transform="matrix(0.04999999999999987,0,0,0.04999999999999987,5.949999999999985,0)" xlink:href="#bl"/><use transform="matrix(0.04999999999999987,0,0,0.04999999999999987,15.949999999999958,0)" xlink:href="#be"/><use transform="matrix(0.04999999999999987,0,0,0.04999999999999987,25.949999999999932,0)" xlink:href="#bu"/></g><g id="C"><use transform="matrix(0.04999999999999987,0,0,0.04999999999999987,0,0)" xlink:href="#bl"/><use transform="matrix(0.04999999999999987,0,0,0.04999999999999987,9.999999999999973,0)" xlink:href="#be"/><use transform="matrix(0.04999999999999987,0,0,0.04999999999999987,19.999999999999947,0)" xlink:href="#bk"/></g><g id="D"><use transform="matrix(0.04999999999999987,0,0,0.04999999999999987,0,0)" xlink:href="#bh"/><use transform="matrix(0.04999999999999987,0,0,0.04999999999999987,9.999999999999973,0)" xlink:href="#bm"/><use transform="matrix(0.04999999999999987,0,0,0.04999999999999987,15.949999999999958,0)" xlink:href="#aZ"/><use transform="matrix(0.04999999999999987,0,0,0.04999999999999987,25.949999999999932,0)" xlink:href="#bb"/><use transform="matrix(0.04999999999999987,0,0,0.04999999999999987,35.9499999999999,0)" xlink:href="#bj"/></g><g id="E"><use transform="matrix(0.04999999999999987,0,0,0.04999999999999987,0,0)" xlink:href="#bl"/><use transform="matrix(0.04999999999999987,0,0,0.04999999999999987,9.999999999999973,0)" xlink:href="#bh"/><use transform="matrix(0.04999999999999987,0,0,0.04999999999999987,19.999999999999947,0)" xlink:href="#bh"/><use transform="matrix(0.04999999999999987,0,0,0.04999999999999987,29.999999999999922,0)" xlink:href="#bm"/><use transform="matrix(0.04999999999999987,0,0,0.04999999999999987,35.9499999999999,0)" xlink:href="#bd"/><use transform="matrix(0.04999999999999987,0,0,0.04999999999999987,45.949999999999875,0)" xlink:href="#bh"/><use transform="matrix(0.04999999999999987,0,0,0.04999999999999987,55.94999999999985,0)" xlink:href="#bl"/><use transform="matrix(0.04999999999999987,0,0,0.04999999999999987,65.94999999999982,0)" xlink:href="#bf"/><use transform="matrix(0.04999999999999987,0,0,0.04999999999999987,70.9499999999998,0)" xlink:href="#bd"/></g><path fill="#834187" d="M205 0l-28-72H64L36 0H1l101-248h38L239 0h-34zm-38-99l-47-123c-12 45-31 82-46 123h93" id="bv"/><path fill="#834187" d="M85-194c31 0 48 13 60 33l-1-100h32l1 261h-30c-2-10 0-23-3-31C134-8 116 4 85 4 32 4 16-35 15-94c0-66 23-100 70-100zm9 24c-40 0-46 34-46 75 0 40 6 74 45 74 42 0 51-32 51-76 0-42-9-74-50-73" id="bw"/><path fill="#834187" d="M210-169c-67 3-38 105-44 169h-31v-121c0-29-5-50-35-48C34-165 62-65 56 0H25l-1-190h30c1 10-1 24 2 32 10-44 99-50 107 0 11-21 27-35 58-36 85-2 47 119 55 194h-31v-121c0-29-5-49-35-48" id="bx"/><path fill="#834187" d="M24-231v-30h32v30H24zM24 0v-190h32V0H24" id="by"/><path fill="#834187" d="M117-194c89-4 53 116 60 194h-32v-121c0-31-8-49-39-48C34-167 62-67 57 0H25l-1-190h30c1 10-1 24 2 32 11-22 29-35 61-36" id="bz"/><g id="F"><use transform="matrix(0.07469135802469125,0,0,0.07469135802469125,0,0)" xlink:href="#bv"/><use transform="matrix(0.07469135802469125,0,0,0.07469135802469125,17.9259259259259,0)" xlink:href="#bw"/><use transform="matrix(0.07469135802469125,0,0,0.07469135802469125,32.864197530864146,0)" xlink:href="#bx"/><use transform="matrix(0.07469135802469125,0,0,0.07469135802469125,55.196913580246836,0)" xlink:href="#by"/><use transform="matrix(0.07469135802469125,0,0,0.07469135802469125,61.09753086419744,0)" xlink:href="#bz"/></g><path fill="#834187" d="M0 4l72-265h28L28 4H0" id="bA"/><use transform="matrix(0.07469135802469125,0,0,0.07469135802469125,0,0)" xlink:href="#bA" id="G"/><path fill="#834187" d="M212-179c-10-28-35-45-73-45-59 0-87 40-87 99 0 60 29 101 89 101 43 0 62-24 78-52l27 14C228-24 195 4 139 4 59 4 22-46 18-125c-6-104 99-153 187-111 19 9 31 26 39 46" id="bB"/><path fill="#834187" d="M100-194c62-1 85 37 85 99 1 63-27 99-86 99S16-35 15-95c0-66 28-99 85-99zM99-20c44 1 53-31 53-75 0-43-8-75-51-75s-53 32-53 75 10 74 51 75" id="bC"/><path fill="#834187" d="M101-234c-31-9-42 10-38 44h38v23H63V0H32v-167H5v-23h27c-7-52 17-82 69-68v24" id="bD"/><path fill="#834187" d="M177-190C167-65 218 103 67 71c-23-6-38-20-44-43l32-5c15 47 100 32 89-28v-30C133-14 115 1 83 1 29 1 15-40 15-95c0-56 16-97 71-98 29-1 48 16 59 35 1-10 0-23 2-32h30zM94-22c36 0 50-32 50-73 0-42-14-75-50-75-39 0-46 34-46 75s6 73 46 73" id="bE"/><g id="H"><use transform="matrix(0.07469135802469125,0,0,0.07469135802469125,0,0)" xlink:href="#bB"/><use transform="matrix(0.07469135802469125,0,0,0.07469135802469125,19.345061728395034,0)" xlink:href="#bC"/><use transform="matrix(0.07469135802469125,0,0,0.07469135802469125,34.28333333333328,0)" xlink:href="#bz"/><use transform="matrix(0.07469135802469125,0,0,0.07469135802469125,49.22160493827153,0)" xlink:href="#bD"/><use transform="matrix(0.07469135802469125,0,0,0.07469135802469125,56.69074074074066,0)" xlink:href="#by"/><use transform="matrix(0.07469135802469125,0,0,0.07469135802469125,62.59135802469127,0)" xlink:href="#bE"/></g><path fill="#834187" d="M96-169c-40 0-48 33-48 73s9 75 48 75c24 0 41-14 43-38l32 2c-6 37-31 61-74 61-59 0-76-41-82-99-10-93 101-131 147-64 4 7 5 14 7 22l-32 3c-4-21-16-35-41-35" id="bF"/><path fill="#834187" d="M24 0v-261h32V0H24" id="bG"/><path fill="#834187" d="M84 4C-5 8 30-112 23-190h32v120c0 31 7 50 39 49 72-2 45-101 50-169h31l1 190h-30c-1-10 1-25-2-33-11 22-28 36-60 37" id="bH"/><path fill="#834187" d="M135-143c-3-34-86-38-87 0 15 53 115 12 119 90S17 21 10-45l28-5c4 36 97 45 98 0-10-56-113-15-118-90-4-57 82-63 122-42 12 7 21 19 24 35" id="bI"/><path fill="#834187" d="M59-47c-2 24 18 29 38 22v24C64 9 27 4 27-40v-127H5v-23h24l9-43h21v43h35v23H59v120" id="bJ"/><path fill="#834187" d="M100-194c63 0 86 42 84 106H49c0 40 14 67 53 68 26 1 43-12 49-29l28 8c-11 28-37 45-77 45C44 4 14-33 15-96c1-61 26-98 85-98zm52 81c6-60-76-77-97-28-3 7-6 17-6 28h103" id="bK"/><path fill="#834187" d="M114-163C36-179 61-72 57 0H25l-1-190h30c1 12-1 29 2 39 6-27 23-49 58-41v29" id="bL"/><g id="I"><use transform="matrix(0.07469135802469125,0,0,0.07469135802469125,0,0)" xlink:href="#bF"/><use transform="matrix(0.07469135802469125,0,0,0.07469135802469125,13.444444444444425,0)" xlink:href="#bG"/><use transform="matrix(0.07469135802469125,0,0,0.07469135802469125,19.345061728395034,0)" xlink:href="#bH"/><use transform="matrix(0.07469135802469125,0,0,0.07469135802469125,34.28333333333328,0)" xlink:href="#bI"/><use transform="matrix(0.07469135802469125,0,0,0.07469135802469125,47.727777777777696,0)" xlink:href="#bJ"/><use transform="matrix(0.07469135802469125,0,0,0.07469135802469125,55.196913580246836,0)" xlink:href="#bK"/><use transform="matrix(0.07469135802469125,0,0,0.07469135802469125,70.13518518518508,0)" xlink:href="#bL"/></g><path fill="#333" d="M199 0l-22-63H83L61 0H9l90-248h61L250 0h-51zm-33-102l-36-108c-10 38-24 72-36 108h72" id="bM"/><path fill="#333" d="M135-194c53 0 70 44 70 98 0 56-19 98-73 100-31 1-45-17-59-34 3 33 2 69 2 105H25l-1-265h48c2 10 0 23 3 31 11-24 29-35 60-35zM114-30c33 0 39-31 40-66 0-38-9-64-40-64-56 0-55 130 0 130" id="bN"/><path fill="#333" d="M25 0v-261h50V0H25" id="bO"/><path fill="#333" d="M25-224v-37h50v37H25zM25 0v-190h50V0H25" id="bP"/><path fill="#333" d="M190-63c-7 42-38 67-86 67-59 0-84-38-90-98-12-110 154-137 174-36l-49 2c-2-19-15-32-35-32-30 0-35 28-38 64-6 74 65 87 74 30" id="bQ"/><path fill="#333" d="M133-34C117-15 103 5 69 4 32 3 11-16 11-54c-1-60 55-63 116-61 1-26-3-47-28-47-18 1-26 9-28 27l-52-2c7-38 36-58 82-57s74 22 75 68l1 82c-1 14 12 18 25 15v27c-30 8-71 5-69-32zm-48 3c29 0 43-24 42-57-32 0-66-3-65 30 0 17 8 27 23 27" id="bR"/><path fill="#333" d="M110-194c64 0 96 36 96 99 0 64-35 99-97 99-61 0-95-36-95-99 0-62 34-99 96-99zm-1 164c35 0 45-28 45-65 0-40-10-65-43-65-34 0-45 26-45 65 0 36 10 65 43 65" id="bS"/><path fill="#333" d="M135-194c87-1 58 113 63 194h-50c-7-57 23-157-34-157-59 0-34 97-39 157H25l-1-190h47c2 12-1 28 3 38 12-26 28-41 61-42" id="bT"/><g id="J"><use transform="matrix(0.062345679012345556,0,0,0.062345679012345556,0,0)" xlink:href="#bM"/><use transform="matrix(0.062345679012345556,0,0,0.062345679012345556,16.1475308641975,0)" xlink:href="#bN"/><use transform="matrix(0.062345679012345556,0,0,0.062345679012345556,29.801234567901176,0)" xlink:href="#bN"/><use transform="matrix(0.062345679012345556,0,0,0.062345679012345556,43.45493827160485,0)" xlink:href="#bO"/><use transform="matrix(0.062345679012345556,0,0,0.062345679012345556,49.68950617283941,0)" xlink:href="#bP"/><use transform="matrix(0.062345679012345556,0,0,0.062345679012345556,55.924074074073964,0)" xlink:href="#bQ"/><use transform="matrix(0.062345679012345556,0,0,0.062345679012345556,68.39320987654307,0)" xlink:href="#bR"/><use transform="matrix(0.062345679012345556,0,0,0.062345679012345556,80.86234567901218,0)" xlink:href="#aX"/><use transform="matrix(0.062345679012345556,0,0,0.062345679012345556,88.28148148148131,0)" xlink:href="#bP"/><use transform="matrix(0.062345679012345556,0,0,0.062345679012345556,94.51604938271586,0)" xlink:href="#bS"/><use transform="matrix(0.062345679012345556,0,0,0.062345679012345556,108.16975308641955,0)" xlink:href="#bT"/></g><path fill="#333" d="M147 0L96-86 75-71V0H25v-261h50v150l67-79h53l-66 74L201 0h-54" id="bU"/><path fill="#333" d="M195-6C206 82 75 100 31 46c-4-6-6-13-8-21l49-6c3 16 16 24 34 25 40 0 42-37 40-79-11 22-30 35-61 35-53 0-70-43-70-97 0-56 18-96 73-97 30 0 46 14 59 34l2-30h47zm-90-29c32 0 41-27 41-63 0-35-9-62-40-62-32 0-39 29-40 63 0 36 9 62 39 62" id="bV"/><g id="K"><use transform="matrix(0.062345679012345556,0,0,0.062345679012345556,0,0)" xlink:href="#bN"/><use transform="matrix(0.062345679012345556,0,0,0.062345679012345556,13.653703703703677,0)" xlink:href="#bR"/><use transform="matrix(0.062345679012345556,0,0,0.062345679012345556,26.122839506172788,0)" xlink:href="#bQ"/><use transform="matrix(0.062345679012345556,0,0,0.062345679012345556,38.5919753086419,0)" xlink:href="#bU"/><use transform="matrix(0.062345679012345556,0,0,0.062345679012345556,51.06111111111101,0)" xlink:href="#bR"/><use transform="matrix(0.062345679012345556,0,0,0.062345679012345556,63.53024691358012,0)" xlink:href="#bV"/><use transform="matrix(0.062345679012345556,0,0,0.062345679012345556,77.1839506172838,0)" xlink:href="#aT"/></g><path fill="#333" d="M212-179c-10-28-35-45-73-45-59 0-87 40-87 99 0 60 29 101 89 101 43 0 62-24 78-52l27 14C228-24 195 4 139 4 59 4 22-46 18-125c-6-104 99-153 187-111 19 9 31 26 39 46" id="bW"/><path fill="#333" d="M101-234c-31-9-42 10-38 44h38v23H63V0H32v-167H5v-23h27c-7-52 17-82 69-68v24" id="bX"/><path fill="#333" d="M24-231v-30h32v30H24zM24 0v-190h32V0H24" id="bY"/><g id="N"><use transform="matrix(0.062345679012345556,0,0,0.062345679012345556,0,0)" xlink:href="#bW"/><use transform="matrix(0.062345679012345556,0,0,0.062345679012345556,16.1475308641975,0)" xlink:href="#aZ"/><use transform="matrix(0.062345679012345556,0,0,0.062345679012345556,28.61666666666661,0)" xlink:href="#be"/><use transform="matrix(0.062345679012345556,0,0,0.062345679012345556,41.08580246913572,0)" xlink:href="#bX"/><use transform="matrix(0.062345679012345556,0,0,0.062345679012345556,47.32037037037028,0)" xlink:href="#bY"/><use transform="matrix(0.062345679012345556,0,0,0.062345679012345556,52.245679012345576,0)" xlink:href="#bh"/><use transform="matrix(0.062345679012345556,0,0,0.062345679012345556,64.71481481481469,0)" xlink:href="#bb"/><use transform="matrix(0.062345679012345556,0,0,0.062345679012345556,77.1839506172838,0)" xlink:href="#bm"/><use transform="matrix(0.062345679012345556,0,0,0.062345679012345556,84.60308641975291,0)" xlink:href="#bl"/><use transform="matrix(0.062345679012345556,0,0,0.062345679012345556,97.07222222222202,0)" xlink:href="#bf"/><use transform="matrix(0.062345679012345556,0,0,0.062345679012345556,103.30679012345658,0)" xlink:href="#bY"/><use transform="matrix(0.062345679012345556,0,0,0.062345679012345556,108.23209876543189,0)" xlink:href="#aZ"/><use transform="matrix(0.062345679012345556,0,0,0.062345679012345556,120.701234567901,0)" xlink:href="#be"/></g><path d="M212-179c-10-28-35-45-73-45-59 0-87 40-87 99 0 60 29 101 89 101 43 0 62-24 78-52l27 14C228-24 195 4 139 4 59 4 22-46 18-125c-6-104 99-153 187-111 19 9 31 26 39 46" id="bZ"/><path d="M100-194c62-1 85 37 85 99 1 63-27 99-86 99S16-35 15-95c0-66 28-99 85-99zM99-20c44 1 53-31 53-75 0-43-8-75-51-75s-53 32-53 75 10 74 51 75" id="ca"/><path d="M210-169c-67 3-38 105-44 169h-31v-121c0-29-5-50-35-48C34-165 62-65 56 0H25l-1-190h30c1 10-1 24 2 32 10-44 99-50 107 0 11-21 27-35 58-36 85-2 47 119 55 194h-31v-121c0-29-5-49-35-48" id="cb"/><path d="M115-194c55 1 70 41 70 98S169 2 115 4C84 4 66-9 55-30l1 105H24l-1-265h31l2 30c10-21 28-34 59-34zm-8 174c40 0 45-34 45-75s-6-73-45-74c-42 0-51 32-51 76 0 43 10 73 51 73" id="cc"/><path d="M117-194c89-4 53 116 60 194h-32v-121c0-31-8-49-39-48C34-167 62-67 57 0H25l-1-190h30c1 10-1 24 2 32 11-22 29-35 61-36" id="cd"/><path d="M100-194c63 0 86 42 84 106H49c0 40 14 67 53 68 26 1 43-12 49-29l28 8c-11 28-37 45-77 45C44 4 14-33 15-96c1-61 26-98 85-98zm52 81c6-60-76-77-97-28-3 7-6 17-6 28h103" id="ce"/><path d="M59-47c-2 24 18 29 38 22v24C64 9 27 4 27-40v-127H5v-23h24l9-43h21v43h35v23H59v120" id="cf"/><path d="M135-143c-3-34-86-38-87 0 15 53 115 12 119 90S17 21 10-45l28-5c4 36 97 45 98 0-10-56-113-15-118-90-4-57 82-63 122-42 12 7 21 19 24 35" id="cg"/><g id="P"><use transform="matrix(0.05925925925925927,0,0,0.05925925925925927,0,0)" xlink:href="#bZ"/><use transform="matrix(0.05925925925925927,0,0,0.05925925925925927,15.34814814814815,0)" xlink:href="#ca"/><use transform="matrix(0.05925925925925927,0,0,0.05925925925925927,27.200000000000003,0)" xlink:href="#cb"/><use transform="matrix(0.05925925925925927,0,0,0.05925925925925927,44.918518518518525,0)" xlink:href="#cc"/><use transform="matrix(0.05925925925925927,0,0,0.05925925925925927,56.77037037037038,0)" xlink:href="#ca"/><use transform="matrix(0.05925925925925927,0,0,0.05925925925925927,68.62222222222223,0)" xlink:href="#cd"/><use transform="matrix(0.05925925925925927,0,0,0.05925925925925927,80.47407407407408,0)" xlink:href="#ce"/><use transform="matrix(0.05925925925925927,0,0,0.05925925925925927,92.32592592592593,0)" xlink:href="#cd"/><use transform="matrix(0.05925925925925927,0,0,0.05925925925925927,104.17777777777778,0)" xlink:href="#cf"/><use transform="matrix(0.05925925925925927,0,0,0.05925925925925927,110.1037037037037,0)" xlink:href="#cg"/></g><path d="M240 0l2-218c-23 76-54 145-80 218h-23L58-218 59 0H30v-248h44l77 211c21-75 51-140 76-211h43V0h-30" id="ch"/><path d="M30 0v-248h33v221h125V0H30" id="ci"/><g id="Q"><use transform="matrix(0.05925925925925927,0,0,0.05925925925925927,0,0)" xlink:href="#ch"/><use transform="matrix(0.05925925925925927,0,0,0.05925925925925927,17.718518518518522,0)" xlink:href="#ci"/></g><path d="M85-194c31 0 48 13 60 33l-1-100h32l1 261h-30c-2-10 0-23-3-31C134-8 116 4 85 4 32 4 16-35 15-94c0-66 23-100 70-100zm9 24c-40 0-46 34-46 75 0 40 6 74 45 74 42 0 51-32 51-76 0-42-9-74-50-73" id="cj"/><path d="M24 0v-261h32V0H24" id="ck"/><g id="R"><use transform="matrix(0.05925925925925927,0,0,0.05925925925925927,0,0)" xlink:href="#ch"/><use transform="matrix(0.05925925925925927,0,0,0.05925925925925927,17.718518518518522,0)" xlink:href="#ca"/><use transform="matrix(0.05925925925925927,0,0,0.05925925925925927,29.570370370370377,0)" xlink:href="#cj"/><use transform="matrix(0.05925925925925927,0,0,0.05925925925925927,41.42222222222223,0)" xlink:href="#ce"/><use transform="matrix(0.05925925925925927,0,0,0.05925925925925927,53.274074074074086,0)" xlink:href="#ck"/><use transform="matrix(0.05925925925925927,0,0,0.05925925925925927,57.95555555555557,0)" xlink:href="#cg"/></g></defs></g></svg>