<svg width="211" height="48" viewBox="0 0 211 48" fill="none" xmlns="http://www.w3.org/2000/svg">
<path d="M13.5876 32.2135H56.2925L42.7049 45.2039H0V26.6467L13.5876 13.6562V32.2135Z" fill="white"></path>
<path d="M69.8804 0.666016V19.2233L56.2928 32.213V13.6558H13.5879L27.1762 0.666016H69.8804Z" fill="white"></path>
<path d="M95.7499 38.7409L83.4688 7.16113H88.5697L98.5833 34.049L108.691 7.16113H113.698L101.417 38.7409H95.7485H95.7499Z" fill="white"></path>
<path d="M133.678 20.8978C132.765 19.2598 131.475 17.9441 129.805 16.9512C128.136 15.9583 126.137 15.4619 123.807 15.4619C121.477 15.4619 119.429 15.9649 117.665 16.9735C115.901 17.9821 114.525 19.381 113.534 21.1689C112.54 22.9588 112.045 25.0565 112.045 27.4621C112.045 29.8676 112.541 31.8684 113.534 33.6426C114.525 35.4168 115.901 36.8006 117.665 37.7928C119.429 38.7857 121.444 39.2821 123.712 39.2821C125.57 39.2821 127.214 38.9658 128.647 38.3345C130.079 37.7031 131.284 36.8386 132.261 35.7403C133.236 34.642 133.929 33.4022 134.34 32.0184H129.616C129.144 33.101 128.419 33.9589 127.444 34.5903C126.467 35.2216 125.222 35.5379 123.712 35.5379C122.452 35.5379 121.286 35.2439 120.216 34.6577C119.145 34.0716 118.287 33.1999 117.641 32.0413C117.084 31.0432 116.768 29.8467 116.692 28.4543H134.954C134.984 28.0338 135.008 27.65 135.024 27.3042C135.04 26.9584 135.047 26.6349 135.047 26.3343C135.047 24.3492 134.592 22.5384 133.678 20.8971V20.8978ZM116.746 25.2524C116.873 24.1803 117.171 23.2548 117.641 22.4788C118.287 21.4099 119.144 20.5991 120.216 20.0418C121.286 19.4851 122.468 19.2068 123.76 19.2068C125.585 19.2068 127.114 19.7412 128.342 20.8081C129.57 21.8769 130.231 23.357 130.325 25.2524H116.747H116.746Z" fill="white"></path>
<path d="M148.274 39.2821C146.258 39.2821 144.495 38.9665 142.984 38.3345C141.472 37.7031 140.275 36.8164 139.394 35.6729C138.512 34.53 137.977 33.1913 137.788 31.6575H142.606C142.763 32.3792 143.071 33.0414 143.527 33.6426C143.983 34.2445 144.613 34.7252 145.416 35.086C146.219 35.4469 147.171 35.6277 148.274 35.6277C149.313 35.6277 150.171 35.4849 150.848 35.1993C151.525 34.9138 152.021 34.5228 152.336 34.0264C152.651 33.5299 152.809 32.9968 152.809 32.4251C152.809 31.5835 152.596 30.9443 152.171 30.5075C151.746 30.0719 151.115 29.7255 150.282 29.4701C149.447 29.2147 148.447 28.9815 147.282 28.7706C146.179 28.5899 145.117 28.3423 144.094 28.0266C143.071 27.7109 142.157 27.3128 141.355 26.8314C140.552 26.3507 139.914 25.7416 139.441 25.0041C138.969 24.2674 138.733 23.3577 138.733 22.2744C138.733 20.9816 139.094 19.8158 139.819 18.7778C140.543 17.7404 141.574 16.9283 142.913 16.3415C144.251 15.7547 145.833 15.4619 147.66 15.4619C150.305 15.4619 152.431 16.0638 154.036 17.2662C155.642 18.4693 156.587 20.1688 156.871 22.3642H152.289C152.163 21.3418 151.69 20.5526 150.872 19.9959C150.053 19.4399 148.966 19.1616 147.613 19.1616C146.259 19.1616 145.219 19.4177 144.495 19.9285C143.77 20.44 143.408 21.1172 143.408 21.9588C143.408 22.5004 143.613 22.9817 144.022 23.4022C144.431 23.824 145.037 24.177 145.841 24.4625C146.644 24.7487 147.628 25.0114 148.793 25.2517C150.462 25.553 151.958 25.9282 153.28 26.3795C154.603 26.8307 155.657 27.4929 156.445 28.3646C157.232 29.2369 157.626 30.4845 157.626 32.1088C157.657 33.5227 157.288 34.7704 156.516 35.853C155.744 36.9355 154.658 37.7784 153.258 38.3797C151.856 38.9809 150.195 39.2821 148.274 39.2821H148.274Z" fill="white"></path>
<path d="M161.971 48.6662V16.0039H166.222L166.694 19.5228C167.198 18.8312 167.828 18.1769 168.584 17.5606C169.339 16.9443 170.244 16.4407 171.3 16.049C172.354 15.6587 173.591 15.4629 175.007 15.4629C177.274 15.4629 179.266 15.9894 180.983 17.0419C182.699 18.095 184.037 19.5162 184.998 21.3055C185.958 23.0954 186.438 25.1328 186.438 27.4185C186.438 29.7042 185.95 31.7423 184.974 33.5316C183.998 35.3215 182.652 36.7276 180.936 37.7499C179.219 38.7723 177.228 39.2838 174.961 39.2838C173.102 39.2838 171.466 38.9301 170.048 38.2235C168.632 37.5168 167.514 36.5318 166.695 35.2684V48.6675H161.971L161.971 48.6662ZM174.205 35.3575C175.653 35.3575 176.936 35.0268 178.054 34.3653C179.171 33.7038 180.054 32.7712 180.699 31.5681C181.344 30.3657 181.667 28.9668 181.667 27.3727C181.667 25.7786 181.344 24.3882 180.699 23.1995C180.053 22.0115 179.171 21.0789 178.054 20.4023C176.936 19.7258 175.653 19.3872 174.205 19.3872C172.756 19.3872 171.425 19.7258 170.308 20.4023C169.19 21.0789 168.316 22.0115 167.686 23.1995C167.056 24.3882 166.741 25.7786 166.741 27.3727C166.741 28.9668 167.056 30.3657 167.686 31.5681C168.316 32.7712 169.189 33.7038 170.308 34.3653C171.425 35.0274 172.724 35.3575 174.205 35.3575Z" fill="white"></path>
<path d="M198.625 39.2821C196.672 39.2821 195.051 38.9665 193.76 38.3345C192.468 37.7031 191.508 36.8537 190.878 35.7855C190.248 34.718 189.934 33.5679 189.934 32.3341C189.934 30.8303 190.343 29.5447 191.162 28.4766C191.981 27.409 193.146 26.5897 194.657 26.018C196.168 25.4469 197.979 25.1607 200.089 25.1607H206.277C206.277 23.8377 206.071 22.7401 205.663 21.8677C205.253 20.996 204.647 20.3417 203.845 19.9056C203.042 19.47 202.026 19.2513 200.798 19.2513C199.381 19.2513 198.169 19.5748 197.161 20.2212C196.153 20.8683 195.523 21.8225 195.272 23.0859H190.548C190.737 21.4918 191.311 20.1309 192.272 19.0031C193.233 17.8753 194.469 17.0029 195.98 16.3867C197.492 15.7704 199.098 15.4619 200.798 15.4619C203.033 15.4619 204.908 15.8385 206.419 16.5897C207.93 17.3415 209.072 18.4019 209.844 19.77C210.615 21.1388 211.001 22.7702 211.001 24.6649V38.7405H206.891L206.513 34.9059C206.166 35.5078 205.757 36.0789 205.285 36.6205C204.813 37.1621 204.253 37.6285 203.607 38.0188C202.961 38.4098 202.222 38.7182 201.388 38.9435C200.553 39.1688 199.632 39.2821 198.624 39.2821H198.625ZM199.522 35.6277C200.529 35.6277 201.443 35.4325 202.262 35.0409C203.081 34.6505 203.781 34.1161 204.364 33.4396C204.946 32.763 205.387 31.9961 205.686 31.1388C205.985 30.2815 206.15 29.402 206.182 28.4995V28.3639H200.561C199.207 28.3639 198.112 28.5217 197.278 28.8374C196.444 29.1531 195.837 29.5821 195.459 30.123C195.081 30.6647 194.893 31.296 194.893 32.0177C194.893 32.7394 195.074 33.4094 195.436 33.9353C195.798 34.4619 196.325 34.8758 197.019 35.1758C197.711 35.477 198.546 35.627 199.522 35.627L199.522 35.6277Z" fill="white"></path>
</svg>