<svg xmlns="http://www.w3.org/2000/svg" xmlns:xlink="http://www.w3.org/1999/xlink" version="1.1" id="artwork" x="0px" y="0px" viewBox="0 0 1000 1000" style="enable-background:new 0 0 1000 1000; fill: white;" xml:space="preserve">
<style type="text/css">
	.st0{fill:#61D790;}
</style>
<path class="st0" d="M939.2,944.4H726.9c-1.3,0-2.7,0-4,0c-7.1,0-14.1-2.2-19.9-6.3c-9.4-6.7-14.1-17.5-14.1-28.9v-308  c0-0.7,0-1.5,0-2.2c0-18.7,15.1-33.8,33.8-33.8c0,0,0,0,0,0c0.9,0,1.9,0,2.8,0h201.1c4.1,0,8.3,0,12.4,0  c17.3,0.1,32.4,13.4,33.8,30.9c0.3,3.2,0.1,6.4,0.1,9.5v297.3c0,2.6,0,5.1,0,7.7C972.8,929.2,957.8,944.2,939.2,944.4  c-2.5,0-2.5,4,0,3.9c20-0.2,36.5-15.9,37.7-35.9c0.2-2.9,0-5.9,0-8.8V605c0.1-4,0-8.1-0.5-12.1c-2.8-18.2-19.1-31.6-37.3-31.7  c-3.9,0-7.8,0-11.7,0H725.3c-1.2,0-2.4,0-3.6,0c-9.6,0.3-18.8,4.2-25.6,11c-7.7,7.7-11.1,17.8-11.1,28.5v308.7  c0,12.5,5.3,24,15.4,31.5c6.5,4.8,14.4,7.3,22.4,7.3c1.2,0,2.4,0,3.6,0h212.7C941.8,948.3,941.8,944.4,939.2,944.4z"/>
<path class="st0" d="M687,647.6h276.3c3.7,0,7.5,0.1,11.2,0c0.2,0,0.3,0,0.5,0c2.5,0,2.5-3.9,0-3.9H698.7c-3.7,0-7.5-0.1-11.2,0  c-0.2,0-0.3,0-0.5,0C684.4,643.6,684.4,647.6,687,647.6L687,647.6z"/>
<path class="st0" d="M687,756.7h276.3c3.7,0,7.5,0.1,11.2,0c0.2,0,0.3,0,0.5,0c2.5,0,2.5-3.9,0-3.9H698.7c-3.7,0-7.5-0.1-11.2,0  c-0.2,0-0.3,0-0.5,0C684.4,752.8,684.4,756.7,687,756.7L687,756.7z"/>
<path class="st0" d="M687,865.9h276.3c3.7,0,7.5,0.1,11.2,0c0.2,0,0.3,0,0.5,0c2.5,0,2.5-3.9,0-3.9H698.7c-3.7,0-7.5-0.1-11.2,0  c-0.2,0-0.3,0-0.5,0C684.4,862,684.4,865.9,687,865.9L687,865.9z"/>
<path d="M258.7,241.1c-7.3-29-14.1-58.2-20.2-87.4c-1.5-7-3.1-14.1-4.2-21.2c-1.1-6.8-1.5-13.9,0.4-20.7  c3.1-11.3,12.5-19.1,22.2-24.8c11.2-6.6,24-12.3,37.1-12.8c11.1-0.4,23.3,3.4,29.9,12.9c6.2,8.8,7.2,20.1,9.6,30.3  c1,5.3,2.8,10.4,5.3,15.2c1.3,2.4,2.9,4.7,4.8,6.7c1.8,2,4.1,4.1,3.4,7c-0.3,1.6-1,3.1-1.5,4.7c-0.4,1.8-0.8,3.6-0.9,5.4  c-0.3,3.4-0.2,6.9,0.5,10.3c1.2,6.6,4.7,12.3,8.2,17.9c3.3,5.4,6.9,11.1,7.2,17.6c0.3,5.3-2.2,10.6-7.4,12.5c-2,0.8-4.2,0.7-6.1-0.2  c-1-0.5-2.2-0.2-2.7,0.8c-0.2,0.3-0.2,0.6-0.2,0.9c-0.8,8.9-8.7,15.4-17.6,14.6c-4.2-0.4-8-2.4-10.7-5.5c-0.6-0.6-1.6-0.8-2.4-0.3  c-8.1,6.2-20.2,1.8-25.7-6c-7.5-10.8-6.3-24.8-5.2-37.2c0.7-7.2,1.4-14.5,0.6-21.8c-0.7-6.2-2.3-12.9-7-17.4c-4.1-4-11-5.8-16.1-2.5  c-4.5,2.9-5.9,8.1-6,13.1c-0.2,5.5,1.4,11,0.4,16.4c-0.7,4.2-2.8,9.7-7.9,9.4c-2.5-0.1-2.5,3.8,0,3.9c5.1,0.3,8.6-3.4,10.4-7.8  c1.9-4.7,1.8-9.5,1.3-14.4c-0.5-4.6-1.1-10.2,1.2-14.5c2.6-4.8,8.7-4.8,12.8-1.8c5,3.8,6.4,10.9,7,16.7c0.7,7.5-0.2,15.1-0.9,22.5  c-1.1,12.5-1.6,26.5,5.9,37.2c6.5,9.4,21.1,15,31.1,7.4l-2.4-0.3c7.4,8.3,20.1,9.1,28.4,1.7c3.9-3.5,6.3-8.3,6.7-13.5l-3,1.7  c5.1,2.7,11.1,0.8,15-3.1c4.6-4.6,5.3-11.3,3.8-17.4c-1.6-6.9-5.7-12.7-9.3-18.6c-3.6-6-6.1-12.3-6-19.4c0.1-3.6,0.7-7.1,1.9-10.4  c0.6-1.5,0.8-3.2,0.7-4.8c-0.2-1.6-0.9-3.2-1.9-4.5c-1.7-2.3-3.9-4.3-5.5-6.7c-1.5-2.3-2.7-4.7-3.6-7.3c-3.9-10.7-4.3-22.3-8.5-32.8  c-2-5.4-5.3-10.2-9.7-13.9c-4.8-3.9-10.5-6.6-16.5-7.8c-13.6-2.8-27.2,1.1-39.5,6.8c-11.1,5.1-22.4,11.7-29.6,21.9  c-3.8,5.5-6,11.9-6.5,18.6c-0.6,7.2,0.6,14.4,2,21.5c6,30.6,13,61,20.5,91.2c0.9,3.7,1.8,7.3,2.8,11  C255.5,244.6,259.3,243.5,258.7,241.1L258.7,241.1z"/>
<path d="M316.5,133.5c3,2.6,7.2,3.5,11,2.4c1-0.3,1.6-1.4,1.3-2.4c-0.3-1-1.4-1.6-2.4-1.4c-0.4,0.1-0.7,0.2-1.1,0.3  c-0.1,0-0.2,0-0.3,0c0.1,0,0.4,0,0.1,0c-0.2,0-0.4,0-0.6,0c-0.4,0-0.7,0-1.1,0c-0.2,0-0.4-0.1-0.6-0.1c-0.6,0-1.1,0.4-1.1,1  c0,0.6,0.4,1.1,1,1.1c0.6,0,1.1-0.4,1.1-1c0-0.5-0.4-1-0.9-1.1c-0.1,0-0.2,0-0.3-0.1c-0.4-0.1-0.7-0.2-1.1-0.3  c-0.2-0.1-0.4-0.1-0.5-0.2c-0.3-0.1,0.3,0.2,0.1,0c-0.1,0-0.2-0.1-0.3-0.1c-0.3-0.2-0.7-0.3-1-0.5c-0.2-0.1-0.3-0.2-0.5-0.3  c0,0-0.3-0.2-0.1-0.1c0.2,0.2-0.1-0.1-0.1-0.1c-0.8-0.8-2-0.8-2.8,0S315.8,132.7,316.5,133.5C316.5,133.5,316.5,133.5,316.5,133.5  L316.5,133.5z"/>
<path d="M319.6,159c1.7,5.2,6.4,8.9,11.8,9.4c1.1,0,2-0.9,2-2c0-1.1-0.9-1.9-2-2c-0.1,0-0.6,0,0,0c-0.1,0-0.3,0-0.4-0.1  c-0.2,0-0.5-0.1-0.7-0.2c-0.5-0.1-1-0.3-1.5-0.5c0.4,0.3,0.1,0-0.1,0c-0.1-0.1-0.3-0.1-0.4-0.2c-0.2-0.1-0.4-0.2-0.6-0.3  c-0.2-0.1-0.5-0.3-0.7-0.5c-0.1-0.1-0.2-0.1-0.3-0.2c-0.1,0-0.1-0.1-0.2-0.1c0.2,0.1,0.2,0.2,0.1,0.1c-0.4-0.3-0.8-0.7-1.2-1.1  c-0.2-0.2-0.4-0.4-0.5-0.6c-0.1-0.1-0.4-0.4,0-0.1c-0.1-0.1-0.1-0.2-0.2-0.3c-0.3-0.4-0.6-0.9-0.8-1.3c-0.1-0.1-0.1-0.2-0.2-0.3  c0-0.1-0.1-0.1-0.1-0.2c-0.1-0.1,0-0.1,0.1,0.1c-0.1-0.3-0.2-0.6-0.3-0.8c-0.3-1.1-1.4-1.7-2.4-1.4S319.3,157.9,319.6,159  C319.6,159,319.6,159,319.6,159L319.6,159z"/>
<path d="M218.8,114.3c1.3,4.5,1.7,9.3,2.6,13.9c0.4,2.3,1.4,4.1,3.7,5c2.3,0.9,4.4-0.1,6.5-0.9c10.8-3.9,21.7-7.9,32.5-11.8  c19.3-7,38.7-14.4,56.2-25.4c4.4-2.7,8.6-5.6,12.6-8.9c1.9-1.5,2.7-4.1,2-6.4c-0.7-2.7-1.7-5.3-2.8-7.9c-1-2.5-2.2-5.1-3.4-7.5  c-1.1-2.1-2.4-4.2-4.9-4.6c-2.2-0.4-4,0.8-5.9,1.7c-0.7,0.4-1.4,0.6-2.2,0.6c-1.2-0.2-2.4-0.7-3.4-1.3c-18.4-8.7-39.3-10.9-59.3-7.7  c-5,0.8-9.8,1.9-14.6,3.4c-4.6,1.4-9.6,2.9-13.5,5.8c-3.9,2.8-7,7.1-6.7,12.1c0.1,4.3,3.2,7.9,7.4,8.9c2,0.5,4,0.1,5.8-0.9  c0.9-0.6,1.2-1.8,0.7-2.7c-0.1-0.1-0.2-0.3-0.3-0.4c-3.3-2.9-6.6,1.5-8.1,4.1c-1.8,3.2-2.9,6.7-3.1,10.3c-0.2,3.6,0.5,7.3,1.8,10.7  c0.6,1.6,1.4,3.5,0.9,5.2c-0.3,1.2-1.1,2.3-2.4,2.2c-2.5-0.2-2.5,3.8,0,3.9c3.3,0.2,5.8-2.7,6.3-5.8c0.6-3.8-1.6-7.1-2.4-10.6  c-1-4.8-0.2-9.8,2.2-14c0.4-0.7,0.8-1.3,1.3-1.9c0.2-0.3,0.4-0.5,0.6-0.8c0.1-0.1,0.3-0.3,0.4-0.3c0.3-0.1,0.2-0.2-0.4-0.3l0.4-3.1  c-2.6,1.6-6.1-0.3-6.9-3c-1.2-4,1.5-8.1,4.7-10.3c3.6-2.5,8-3.9,12.2-5.2c4.5-1.4,9-2.5,13.6-3.3c18-3.2,36.6-1.4,53.7,5.4  c2.2,0.9,4.3,2,6.5,2.9c2,0.8,4.3,0.8,6.2-0.2c1.1-0.5,2.7-1.9,4-1.6c0.8,0.2,1.2,1,1.6,1.7c0.6,1.2,1.2,2.4,1.8,3.6  c1.1,2.3,2.1,4.7,2.9,7.1c0.4,1.1,0.8,2.2,1.1,3.3c0.3,0.9,0.9,2.2,0.4,3.2c-0.5,0.7-1.2,1.3-2,1.8c-1,0.7-2,1.5-3,2.2  c-1.9,1.4-3.8,2.7-5.8,4c-15.8,10.3-33.3,17.4-50.9,23.9c-9.6,3.6-19.2,7-28.8,10.5l-7.5,2.7l-3.5,1.3c-0.8,0.3-1.9,0.9-2.8,0.8  c-1.7-0.3-1.7-2.6-1.9-3.9c-0.4-2.2-0.7-4.5-1.1-6.7c-0.3-2-0.7-3.9-1.3-5.9C221.9,110.8,218.1,111.8,218.8,114.3L218.8,114.3z"/>
<path d="M327.4,263.8c7.4-11,22.9-12.4,34.5-8.1c14.6,5.5,25.6,18.5,35.4,30.1c10.9,13.1,20.8,27.1,29.5,41.7  c7.2,11.8,14.2,23.6,21.9,35c4.3,6.5,9.1,12.8,14.1,18.9c2.3,2.6,4.7,5.1,7.2,7.5c1.3,1.2,3,2.8,3.2,4.7c0.1,0.7-1.1,3.2-2.1,2.4  v2.8c8.2-7.2,20.1-8.6,30.4-11c11.3-2.6,22.6-5.6,33.7-9c10.9-3.4,21.7-7.2,32.3-11.5c5.4-2.2,10.8-4.5,16.2-7  c4.4-1.9,8.6-4.4,12.4-7.4c4-3.3,7.6-7,11.8-9.9c1.9-1.4,3.9-2.5,6.1-3.3c1.1-0.4,2.3-0.7,3.4-0.8c0.5,0,1,0.1,1.5,0.3  c0.2,0.1,0.3,0.2,0.5,0.3c0.1,0.1,0.2,0.1,0.3,0.2c0.3,0.4,0.5,0.1,0.4-0.9l2.4,3.1c7.6-5.9,19.1-9.5,28.5-6.2  c3.6,1.3,7.2,4.2,7,8.4c-0.2,2.9-2.4,7.1-5.9,6.5l0.9,3.3c5.9-6.5,16.3-9.2,22.9-2.2c2.9,2.8,3.8,7.1,2.4,10.9  c-1.5,3.8-5.2,6.1-9.3,5.9l1.7,3c2.5-3.5,7.3-4.3,11.3-3.2c4.6,1.2,7.8,5.1,9.6,9.2c2.2,4.9,3,10.3,2.1,15.6  c-1,4.8-4.3,9.6-9.5,10.3c-4.5,0.6-9.8-4.2-7.3-8.8l-3.6-1.5c-1.1,3.2-4.8,5.1-7.5,6.9c-3.1,2.1-6.1,4.1-9.2,6.1  c-6.2,4.2-12.5,8.3-18.8,12.4c-12.5,8.1-25.2,16-38.2,23.3c-25.8,14.6-52.9,27.2-81.6,34.9c-14.7,3.9-29.9,6.9-45.2,7  c-11.2,0.1-23.3-1.2-33.1-6.8c-7.3-4.2-14-9.5-20.5-14.9c-8-6.7-15.7-13.8-23.2-21.1c-13.3-12.7-26-26-38-40  c-0.9-1.1-1.8-2.1-2.6-3.2c-1.6-2-4.4,0.8-2.8,2.8c11,13.8,23.5,26.5,36.1,38.8c7.7,7.6,15.6,15,23.8,22.1  c6.9,6.1,14.2,11.7,21.8,16.8c2.8,1.9,5.8,3.5,9,4.8c6.1,2.5,12.9,3.5,19.4,4.2c15.7,1.5,31.7-0.9,47-4.3  c29.4-6.6,57.3-18.7,83.7-33c26.8-14.5,52.5-31.3,77.5-48.5c2.7-1.9,5.1-3.9,6.2-7.1c0.7-2.1-2.6-3.5-3.6-1.5  c-2.8,5.3,0.3,11.9,5.7,14.1c6,2.4,12.9-1.3,16.1-6.5c3.7-6.1,3.3-14.2,1.3-20.8c-1.8-6-5.6-11.8-11.6-14.3  c-6.1-2.5-13.6-1.1-17.6,4.4c-1,1.3,0.4,2.8,1.7,3c5.4,0.5,10.4-3,12.7-7.8c2.2-4.8,1.4-10.4-2-14.5c-7.7-9.8-21.8-7.4-29.5,1  c-0.9,1-0.7,3,0.9,3.3c8.1,1.4,13.2-8.7,9.8-15.4c-4.4-8.9-16.7-9.4-25.1-7.6c-5.9,1.3-11.4,3.9-16.1,7.6c-1.8,1.4,0.5,4.3,2.4,3.1  c1.5-0.9,2.1-2.8,1.2-4.3c-0.1-0.3-0.3-0.5-0.5-0.7c-1.5-1.6-3.6-2.4-5.8-2.2c-4.7,0.5-9,3-12.7,5.8c-4,3-7.5,6.6-11.4,9.7  c-4.4,3.6-9.4,5.7-14.6,8c-23.3,10.2-47.5,18.3-72.3,24.2c-6.8,1.7-13.8,3-20.5,4.8c-6.2,1.7-12.3,4.2-17.2,8.5  c-0.8,0.8-0.8,2,0,2.8c2.6,2.2,6.1,1.1,7.9-1.7c2-3.2,0.4-6.7-1.8-9.3c-2.3-2.6-4.9-4.8-7.2-7.4c-2.5-2.8-4.9-5.7-7.1-8.7  c-9.4-12.5-17.6-25.9-25.6-39.3c-9.1-15-18.6-29.8-29.6-43.5c-5.5-7-11.4-13.8-17.7-20.1c-5.8-5.8-12.3-11.3-19.8-14.9  c-14.2-6.9-33.7-6.1-43.3,8C322.6,263.9,326,265.8,327.4,263.8L327.4,263.8z"/>
<path class="st0" d="M25,948.3h66H172c15.3,0,29.6-6.6,37.1-20.6c4.4-8.2,4.6-16.8,4.6-25.8V695.7c0-8.9,0-17.3-5.7-25  c-7.6-10.3-21-12.3-32.5-15.7l-46.2-13.4c-15.3-4.4-29.9-9.4-42.6-19.5c-19.5-15.5-32.1-38.1-35.1-62.8c-0.9-8.2-0.6-16.5-0.6-24.8  V399.9c0-7.7-0.2-15.4,0.2-23.1c1.2-23.8,8.1-47,20.1-67.7c23.7-40.7,66.2-68.7,113.1-73.9c47.3-5.2,94.2,12.1,126.8,46.7  c27.3,29.1,40.6,67,40.6,106.6v128.2c0,7.8-0.7,16.1,0.7,23.8c3.6,19,20,31.5,38.7,32.8c14.2,0.9,28.4,1.8,42.6,2.7  c14.2,0.9,29.8,0,41.3,9.8c20,17,15.6,49.9-8.3,61c-7.6,3.5-16.1,3.5-24.2,4.1l-37.3,2.7l-98.9,7l-34.7,2.5  c-9,0.6-17.7,1.1-25.2,7.2c-8.8,7.2-10.6,17.2-10.6,27.8v208c0,5.5-0.5,11.2,0.3,16.6c1.5,10.2,8.2,18.8,17.7,22.8  c4.8,2,9.7,2.2,14.8,2.2h86.3c12.1,0,23.8,0.2,35.2-4.9c19.9-9.1,32.8-28.9,32.9-50.8c0.1-11.7,0-23.4,0-35.1V529.4  c0-9.9-4.8-19.2-15.6-20.7c-6.4-0.9-12.2-1.6-15.3-8.2c-2.4-5.4-1.8-11.7,1.8-16.4c2.9-3.7,7.2-5.2,11.7-5.3c10.3-0.1,20.6,0,30.9,0  H968c2.5,0,2.5-3.9,0-3.9H435.2c-9.8,0-19.7-0.2-29.6,0c-14.8,0.3-24,17.1-15.5,29.7c2.7,3.9,6.7,6.6,11.4,7.6  c2.2,0.5,4.6,0.2,6.8,0.7c3.6,0.8,6.7,3.1,8.7,6.2c1.6,2.8,2.4,6,2.2,9.2c0.1,15.5,0,30.9,0,46.4V852c0,13.3,0.1,26.6,0,39.9  c0,20.7-12.3,39.5-31.3,47.8c-11.4,4.9-23.4,4.2-35.5,4.2h-84.9c-15.2,0-27.4-10.1-27.5-26c0-6.7,0-13.4,0-20.1V716.4  c0-7.3,0-14.7,0-22c0-14.2,9.7-25.4,24.1-26.6c22.1-1.8,44.3-3.2,66.4-4.7l96.3-6.8l25.7-1.8c15.4-1.1,29.2-9.1,35.8-23.4  c9.2-19.9,0.4-44.4-19.6-53.6c-11.5-5.3-26.1-4.4-38.4-5.2c-13.3-0.9-26.7-1.6-40-2.6c-19.5-1.3-34.6-17.6-34.5-37.1  c-0.1-24.9,0-49.9,0-74.8c0-24.1,0.1-48.2,0-72.4c0.2-85.3-68.7-154.6-154-154.8c-78.3-0.2-144.4,58.3-153.7,136.1  c-1.2,9.7-1.1,19.4-1.1,29.2v90.2c0,20.9-0.1,41.8,0,62.7c0.3,44.2,30,81.9,72.1,94.2c24.1,7,48.5,13.4,72.5,21  c10.7,3.3,18,13.1,18.2,24.2c0,1.6,0,3.3,0,4.9v205.8c0,7.3,0.5,14.8-1.9,21.8c-4.1,11.7-14,20.5-26.1,23.1  c-3.6,0.6-7.2,0.8-10.8,0.7H87.2H25C22.5,944.4,22.5,948.3,25,948.3L25,948.3z"/>
<path d="M322.6,263.8c-1.7,1.8-1.6,4.7,0.3,6.4c0,0,0,0,0,0c2.1,2,5.3,1.6,7.8,0.9c2.6-0.7,5.1-2.2,6.1-4.8c0.9-2.5,0.6-5.3-0.8-7.6  c-1.5-2.3-3.5-4.4-5.7-6.1c-2.1-1.8-4.3-3.5-6.6-5c-4.5-3.1-9.2-5.8-14.2-8.2c-10-4.7-20.4-8.4-31-11.3c-5.3-1.5-10.7-2.9-16.1-4.3  c-6.3-1.7-12.6-3.1-19.1-4c-5.5-0.7-12.5-0.9-16.2,4.1c-2.7,3.7-2.6,9.9,1.8,12.2c2.2,1.2,4.2-2.2,2-3.4c-2.5-1.3-2-5-0.4-6.9  c2.7-3.2,8.1-2.7,11.8-2.3c10.2,1.2,20.3,4.3,30.2,7c17.9,4.9,36,10.7,51.1,21.9c2.1,1.5,4.1,3.2,6,4.9c1.7,1.5,3.5,3.4,3.7,5.8  c0.2,2.5-1.7,3.7-3.9,4.3c-1,0.3-2.4,0.7-3.5,0.3c-0.3-0.1-1-0.7-0.6-1C327.2,264.8,324.4,262,322.6,263.8L322.6,263.8z"/>
<path d="M362.8,406.5c-3.8-3.5-6.9-7.8-9-12.6c-1.4-3.5-1.5-8.5,2-11c4-3,9.5,0.1,12,3.5c1.6,2.2,2.9,4.7,3.8,7.3  c1.2,3,2.3,6.1,3.4,9.1l14,37.5l3.5,9.3c1.2,2.9,2.1,5.8,3,8.8c0.8,2.6,0.9,5.4,0.3,8.1c-0.8,2.5-2.4,4.7-4.5,6.3  c-9.9,7.9-23.6,11-36,9.6c-1.1,0-2,0.9-2,2c0,1.1,0.9,1.9,2,2c12.7,1.4,25.5-1.7,36.1-8.8c2.6-1.6,4.9-3.8,6.6-6.3  c1.6-2.8,2.3-6,2-9.1c-0.5-6.7-3.6-13.1-5.9-19.4l-15.5-41.5c-2.2-6-4-12.7-8.1-17.7c-3.5-4.3-9.6-7.2-15-5c-5.7,2.3-7.8,9.5-6,15.1  c1.9,5.9,6,11.4,10.5,15.6C361.9,411.1,364.7,408.3,362.8,406.5L362.8,406.5z"/>
<path d="M355.9,482.5c-2.3-0.4-3.9-1.5-4-3.9c0-2.1,0.9-4.2,2.5-5.6c2.5-2.3,6-3.3,9.3-4c3.9-0.8,7.8-1.4,11.7-1.7  c16.1-1.3,32.2,0.9,47.8,5c15.9,4.2,31.2,10.1,46.3,16.4c15.5,6.5,30.9,13.1,46.2,20c26.3,11.9,53.7,24.3,74.3,45.1  c10,10.1,17.6,22,24.3,34.6c7.2,13.9,13.5,28.2,18.9,42.9c11.5,30.7,20.9,62.1,30.4,93.4c5,16.3,10.1,32.4,15.6,48.5  c4.2,12.3,8.6,26,3.6,38.7c-3.6,9.2-11.3,16.4-19.5,21.4c-8.8,5.4-18.7,8.8-29,10.1c-4.8,0.6-9.7,0.6-14.5-0.1  c-5.9-0.9-11.3-3.6-15.6-7.7c-5.1-4.8-9-10.7-13-16.4c-4.5-6.4-8.9-13-13.1-19.7c-16.8-26.7-30.8-55-43.5-83.8  c-6.3-14.4-12.3-29-18.2-43.6c-5.8-14.5-12.4-30.1-10.8-46c0.1-0.9,0.2-1.9,0.4-2.8c0.3-1,0.5-1.9,0.6-3l-0.7-0.3  c-0.6-0.5-0.9-0.4-0.9,0.2c-0.2,0.3-0.4,0.7-0.5,1c-0.4,0.7-1,1.2-1.6,1.7c-3,2.1-7.4,1.4-10.8,1c-2.5-0.3-2.5,3.7,0,3.9  c3.9,0.4,7.9,0.7,11.5-0.9c2.7-1.2,5.8-4.4,5.6-7.6c-0.1-1.8-1.6-3.1-3.4-3c-0.8,0.1-1.6,0.4-2.2,1c-1.1,1.3-1.2,3.5-1.5,5.2  c-0.4,2.2-0.6,4.3-0.7,6.5c-0.5,16.8,6.7,32.9,12.8,48.2c12.5,31.1,25.8,62,41.6,91.6c7.9,14.8,16.4,29.2,25.7,43.2  c4.4,6.6,8.9,13.1,13.8,19.4c4.3,5.5,9.3,10.6,15.8,13.4c9.8,4.2,21.7,3.3,31.7,0.9c10.9-2.5,21.1-7.4,29.8-14.5  c7.9-6.5,14.3-15.5,15.8-25.8c1.1-7.3-0.1-14.8-2-21.9c-2.3-8.6-5.5-17-8.3-25.4c-11.2-34-20.8-68.6-32.3-102.5  c-5.3-15.6-10.8-31-17.3-46.2c-6.4-14.8-13.5-29.7-22.8-42.9c-8.3-11.6-18.4-21.7-29.9-30c-12.3-9-25.9-16-39.7-22.6  c-16.3-7.9-32.8-15.1-49.4-22.2c-16-6.8-32-13.7-48.5-19.1c-16.4-5.4-33.4-9.3-50.6-9.8c-8.4-0.2-16.7,0.5-24.9,2.1  c-5.9,1.2-12.6,3.8-14.5,10.2c-1.6,5.1,1,10.1,6.4,11C357.3,486.8,358.4,483,355.9,482.5L355.9,482.5z"/>
<path d="M612.1,845c9.9,16.5,19.9,33,30,49.4c2.5,4.1,5.1,8.3,7.7,12.4c2.1,3.4,4.1,7.2,7,10.1c3,3,7.2,4.4,11.4,3.8  c4.1-0.4,8.2-1.2,12.2-2.4c16.1-4.6,30.4-13.8,43.9-23.6c3.3-2.4,6.6-4.9,9.9-7.4c3.2-2.5,6.5-4.9,9-8.2c4.4-5.6,6.4-14.7,0.5-20  c-2.9-2.6-6.7-3.5-10.5-3.9c-4.6-0.6-9.2-1-13.8-1.4l-7.1-0.7c-2-0.3-4-0.3-6.1,0c-3.4,0.7-5.9,3.9-4.8,7.4c0.4,1.5,1.6,2.6,3.1,2.9  c1.3,0.2,3-0.9,2.4-2.4c-5.7-15.2-12.6-29.9-20.8-44c-1.3-2.2-4.7-0.2-3.4,2c8,13.7,14.8,28.1,20.4,43l2.4-2.4  c-0.3-0.1-0.3,0-0.4-0.3c-0.1-0.4-0.1-0.7,0-1.1c0.4-1.1,1.9-1.3,2.9-1.4c2,0,3.9,0.1,5.9,0.4l6.6,0.7c4.1,0.4,8.3,0.7,12.4,1.3  c3.1,0.4,6.5,1.1,8.6,3.6c1.9,2.2,2.1,5.4,1.4,8.2c-0.9,3.3-2.8,6.3-5.4,8.5c-2.7,2.4-5.6,4.7-8.5,6.8c-3,2.3-6.1,4.5-9.1,6.8  c-12.2,8.8-25.1,17-39.6,21.3c-3.6,1.1-7.3,1.9-11.1,2.4c-1.9,0.3-3.8,0.3-5.7-0.1c-1.6-0.5-3-1.4-4.1-2.6c-2.6-2.6-4.3-6.1-6.3-9.2  c-2.3-3.7-4.6-7.4-6.9-11.1c-9.2-14.9-18.3-29.9-27.3-44.9c-1.1-1.9-2.3-3.8-3.4-5.7C614.3,840.9,610.8,842.9,612.1,845L612.1,845z"/>
<path d="M492,624.2c-22.8-0.5-45.8-1.1-68.1-6c-22.1-4.9-44.7-14.5-58.8-32.9c-7.7-10-12.6-22.4-12.7-35.1c0-5.1,0.5-11,3.9-15.1  c1.5-1.9,3.8-3,6.3-3c2.9,0.1,5.5,1.8,7.6,3.7c4.9,4.3,8.7,10,12.3,15.3c3.6,5.4,6.9,11,9.9,16.7c5.9,11.7,10.4,24.1,13.2,36.9  c5.7,26.4,3.8,53.4-3.2,79.3c-7,25.9-18.4,50.3-29.6,74.6c-2.9,6.2-5.7,12.4-8.5,18.7c-2.6,5.9-4.7,11.9-6.8,18  c-4,11.9-8.3,24.7-17.6,33.6c-16.4,15.6-43.1,10.9-59.5-2.2c-8-6.2-13.5-15.1-15.5-25.1c-1-5.3-1-10.7-0.3-16c1-7.5,2.3-15,3.6-22.5  c2.7-15.2,5.7-30.4,9.1-45.5c2.9-13,5.9-25.8,11.5-37.9c2.4-5.4,5.4-10.5,8.9-15.2c1.5-2-1.9-4-3.4-2c-7.9,10.3-12.7,23-16.3,35.3  c-2,6.9-3.4,14-5,21.1c-1.7,7.8-3.4,15.7-4.9,23.6c-1.6,7.9-3,15.8-4.4,23.7c-1.3,7.4-2.8,15-3.4,22.5c-0.9,10.8,1.6,21.8,7.8,30.7  c6.4,9.2,16,15.7,26.4,19.6c10.6,4,22.7,5.1,33.5,1.5c26.6-9,30.3-40.3,40.2-62.6c11.3-25.5,23.9-50.4,32.9-76.8  c9.1-26.6,14-54.6,10.6-82.7c-3.3-27.1-13.6-53-29.9-74.9c-3.8-5.1-7.8-10.9-13.6-13.8c-5.4-2.7-11.5-1.6-15.3,3.2  c-3.6,4.6-4.5,10.6-4.6,16.3c-0.1,6.6,1,13.1,3.2,19.4c8.3,24.1,29.6,40,52.9,48.3c22.6,8.1,47,10.1,70.7,10.9  c5.6,0.2,11.1,0.3,16.7,0.4C494.5,628.2,494.5,624.2,492,624.2L492,624.2z"/>
<path d="M261.4,806c-3.4,10.1-6.9,20.2-10.5,30.2c-1.8,5-3.7,9.9-5.6,14.8c-1.9,4.9-4,9.8-5.8,14.8c-1.6,4.4-2.4,9-1.2,13.7  c1.2,4.2,3.5,8,6.6,11c3.2,3.2,7.2,5.6,11.1,7.9c4.1,2.4,8.4,4.5,12.8,6.3c13.3,5.6,27.5,8.5,41.8,10.2c5,0.7,10,0.9,15,0.8  c4.4-0.2,9.4-0.7,13-3.3c3.9-2.8,4.6-7.3,3.1-11.6c-1.6-4.3-3.9-8.3-6.8-11.9c-1.4-1.8-3-3.6-4.6-5.3c-1.4-1.6-2.9-3.8-5.1-4.3  c-1.8-0.4-3.5,0.8-3.9,2.6c-0.1,0.5-0.1,1,0,1.4c0.5,2,3.1,1.7,3.8,0c7.3-18.6,14.6-37.3,22-55.9c0.3-1-0.3-2.1-1.4-2.4  c-1-0.3-2.1,0.3-2.4,1.4l-22,55.9h3.8l0-0.1l-0.3,1c0.2-0.3-0.4,0.1-0.4,0c0,0,0.4,0.3,0.4,0.3c0.3,0.4,0.6,0.7,1,1  c0.7,0.8,1.4,1.6,2.2,2.4c1.4,1.6,2.8,3.2,4.1,4.9c2.6,3.1,4.6,6.7,6,10.6c0.3,0.9,0.5,1.8,0.5,2.7c0,0.2,0,0.4,0,0.6  c0,0.1,0,0.2,0,0.3c0-0.1,0.1-0.4,0,0c-0.1,0.4-0.2,0.8-0.3,1.2c0,0,0.1-0.2-0.1,0.2c-0.1,0.2-0.2,0.4-0.3,0.5  c0,0.1-0.3,0.5-0.2,0.3c0.1-0.2-0.2,0.2-0.3,0.3c-0.1,0.1-0.3,0.3-0.4,0.4c-0.1,0.1-0.6,0.5-0.2,0.2c-0.3,0.2-0.7,0.5-1,0.7  c-0.7,0.4-1.5,0.8-2.2,1c-1,0.3-1.9,0.5-2.9,0.7c-2.1,0.4-4.2,0.6-6.4,0.6c-4.6,0-9.2-0.2-13.8-0.8c-1.1-0.1-1.8-0.2-2.7-0.4  c-0.8-0.1-1.7-0.2-2.5-0.4c-2.3-0.4-4.7-0.7-7-1.1c-8.7-1.5-17.2-3.9-25.5-7.1c-4.1-1.6-8-3.4-11.8-5.5c-3.8-2-7.4-4.2-10.9-6.8  c-3.1-2.3-5.5-5.4-7.1-8.9c-1.5-3.8-1.6-8.1-0.3-12c1.4-4.5,3.4-8.9,5.1-13.3c1.8-4.6,3.6-9.3,5.3-13.9c3.4-9.1,6.7-18.3,9.8-27.6  c0.8-2.3,1.6-4.6,2.3-6.9C266,804.6,262.2,803.6,261.4,806L261.4,806z"/>
<path class="st0" d="M867.6,298.2H542.8c-4.3,0-8.8-0.4-13.1,0c-0.2,0-0.4,0-0.6,0l1.9,2.5l4.1-22.8l9.9-54.4l12-65.8l10.4-56.9  l3.4-18.8c0.5-2.9,1.5-5.9,1.6-8.9c0-0.1,0-0.3,0.1-0.4l-1.9,1.4h324.8c4.3,0,8.8,0.4,13.1,0c0.2,0,0.4,0,0.6,0l-1.9-2.5L903,94.4  l-9.9,54.4l-12,65.8l-10.4,56.9c-1.7,9.2-3.5,18.4-5,27.6c0,0.1,0,0.3-0.1,0.4c-0.5,2.5,3.3,3.5,3.8,1l4.1-22.8l9.9-54.4l12-65.8  l10.4-56.9c1.7-9.2,3.5-18.4,5-27.7c0-0.1,0-0.3,0.1-0.4c0.3-1.1-0.4-2.2-1.4-2.4c-0.1,0-0.3-0.1-0.5-0.1H584.3  c-4.4,0-8.8-0.1-13.1,0c-0.2,0-0.4,0-0.6,0c-0.9,0-1.7,0.6-1.9,1.4l-4.1,22.8l-9.9,54.4l-12,65.8l-10.4,56.9  c-1.7,9.2-3.5,18.4-5,27.6c0,0.1,0,0.3-0.1,0.4c-0.3,1.1,0.4,2.2,1.4,2.4c0.1,0,0.3,0.1,0.5,0.1h324.8c4.4,0,8.8,0.1,13.1,0  c0.2,0,0.4,0,0.6,0C870.1,302.1,870.1,298.2,867.6,298.2z"/>
<path class="st0" d="M892.8,71.7l-1.1,6.1l-3,16.6l-4.5,24.5l-5.4,29.9l-6,32.8l-6,33.1l-5.6,30.8l-4.8,26.1l-3.4,18.7  c-0.5,3-1.1,5.9-1.6,8.9c0,0.1,0,0.3-0.1,0.4c-0.3,1.1,0.4,2.2,1.4,2.4c0.1,0,0.3,0.1,0.5,0.1h14.3c0.9,0,1.7-0.6,1.9-1.4l1.1-6.1  l3-16.6l4.5-24.5l5.4-29.9l6-32.8l6-33.1l5.6-30.8l4.8-26.1l3.4-18.7c0.5-3,1.1-5.9,1.6-8.9c0-0.1,0-0.3,0.1-0.4  c0.3-1.1-0.4-2.2-1.4-2.4c-0.1,0-0.3-0.1-0.5-0.1h-14.3c-2.5,0-2.5,3.9,0,3.9h14.3l-1.9-2.5l-1.1,6.1l-3,16.6l-4.5,24.5l-5.4,29.9  l-6,32.8l-6,33.1l-5.6,30.8l-4.8,26.1l-3.4,18.7c-0.5,2.9-1.3,5.9-1.6,8.9c0,0.1,0,0.3-0.1,0.4l1.9-1.4h-14.3l1.9,2.5l1.1-6.1  l3-16.6l4.5-24.5l5.4-29.9l6-32.8l6-33.1l5.6-30.8l4.8-26.1l3.4-18.7c0.5-3,1.1-5.9,1.6-8.9c0-0.1,0-0.3,0.1-0.4  C897.1,70.2,893.3,69.2,892.8,71.7z"/>
<path class="st0" d="M769.1,474.8c-7.1,0.1-14.1-1.3-20.6-4.2c-6.5-3-11.8-8-15.2-14.3c-3.3-6.2-4.6-13.3-4.9-20.2  c-0.3-7.6,0.4-15.3,1.9-22.8c0.9-4.3,1.9-8.5,2.7-12.7c0.8-4.1,1.8-8.6,1.2-12.7c-0.4-3.6-2.3-6.9-5.2-9c-2.3-1.7-5.1-2.2-7.9-2.6  c-2.7-0.4-5.5-0.6-7.9-2c-2.2-1.2-4-3-5.2-5.3c-2.4-4.5-2.5-9.9-0.3-14.5c2.9-5.9,9.3-8.4,15.6-8.7c6.7-0.1,13.3,1.7,19.1,5.2  c12.5,7.8,19.8,21.7,19.2,36.4c-0.3,6.6-3.7,12-6.7,17.7c-2.8,5.3-5.7,11.4-4.2,17.5c0.9,3.5,3.7,6.2,4.5,9.7  c0.2,0.8,0.2,1.6-0.1,2.4c-0.1,0.3-0.5,1.2-0.9,1.2c-1-0.2,0.5-1.8,0.7-2.1c3.8-5.8,8.8-10.8,14.5-14.7c12.7-8.7,28-12.1,43.3-11.7  c8.7,0.3,17.4,1.5,25.8,3.6c4.2,1,8.4,2.1,12.5,3.4c3.4,1,6.8,2.3,10,3.9c3.1,1.6,5.8,3.8,7.9,6.4c1,1.3,3.5,0.2,3.4-1.4  c-0.3-3.8-3-6.2-6.2-7.9c-2.8-1.5-6.6-2.8-8.2-5.8c-1.3-2.4-0.9-5.7-0.8-8.3c0.1-3.2,0.3-6.4,0.6-9.6c0.3-3,0.8-6,1.4-9  c0.3-1.7,0.8-3.6,2.6-4.1c2.8-0.8,4.1,1.7,5.5,3.6c1.4,1.9,3.6,3.9,3.6,6.5c0,1.1,0.9,2,2,2c0.3,0,0.6-0.1,0.9-0.3  c6.1-3.1,12.4-5.9,19.1-7c6.7-1.1,13.5-0.4,20.1,0.8c1.1,0.3,2.2-0.4,2.4-1.5c0.1-0.3,0.1-0.7,0-1c-0.2-1.5,0-3,0.7-4.4  c0.6-1.7,1.6-3.2,2.8-4.5c1-1,1.9,0.7,2.5,1.5c1.1,1.4,2.1,2.9,3,4.5c3.5,6,5.7,12.7,6.3,19.6c1.1,13.3-3.8,26.3-13.3,35.7  c-5.1,5.1-11.4,8.9-18.4,11.1l2.2,2.9c0.8-1.2,1.7-2.3,2.8-3.2c0.1-0.1,0.8-0.5,0.7-0.4c0.1,0,0.6-0.2,0.4-0.1c-0.2,0,0.3,0,0.5,0  c0.3,0-0.1,0,0.3,0c0.2,0.1,0.5,0.1,0.7,0.2c0.5,0.2,0.9,0.3,1.4,0.5c1.4,0.6,2.8,1.3,4.1,1.9c6,2.7,12.4,4.5,18.7,6.2  c3.3,0.9,6.7,1.8,10,2.8c3,0.9,6,1.9,9.1,2.7c7.1,1.8,16.7,2.1,21.2,8.8c1,1.4,1.6,3,1.6,4.7c-0.1,0.8-0.4,1.1-1.2,1.5  c-1.4,0.7-3.8,0.6-5.5,1.4c-2.3,1.1-0.3,4.5,2,3.4c-0.5,0.3,0.3,0,0.5-0.1c0.5-0.1,1-0.2,1.5-0.2c1.1-0.2,2.3-0.5,3.3-1  c2.8-1.3,3.7-4,3.2-6.9c-1.7-8.8-11.1-12.3-18.8-13.9c-4.1-0.9-8.2-1.9-12.2-3.1c-3.4-1-6.9-2-10.4-2.9c-6.9-1.9-14.1-3.6-20.6-6.6  c-2.8-1.2-6-3.5-9.1-3.4c-3.5,0-5.7,3.2-7.6,5.8c-1,1.4,0.7,3.4,2.2,2.9c14.5-4.6,26.1-15.5,31.6-29.6c5.7-14.8,3.3-32.3-5.7-45.3  c-1.2-1.7-2.5-4-4.4-5c-2-1-4.4-0.5-5.8,1.3c-2.8,3.4-5.2,7.9-4.2,12.4l2.4-2.4c-7.2-1.3-14.5-2-21.8-0.9c-7.2,1.2-14,4.1-20.4,7.5  l3,1.7c0-2.9-1.5-5.1-3.2-7.3c-1.6-2.1-2.8-4.6-5.2-5.9c-2.5-1.4-5.6-1.2-8,0.5c-1.9,1.5-2.7,3.7-3.1,6c-1.3,7-2.1,14.1-2.1,21.2  c0,3,0,6.3,1.7,9c1.2,1.7,2.8,3.1,4.6,4.2c1.9,1.2,4,2.1,5.9,3.3c1.4,0.9,2.8,2,3,3.8l3.4-1.4c-4.9-6.2-12.5-9.2-19.8-11.4  c-8.9-2.8-18.1-4.9-27.4-6.2c-17-2.2-34.5-0.7-50,7.1c-6.8,3.4-12.9,8-17.9,13.6c-1.3,1.4-2.5,2.9-3.6,4.5c-1,1.4-2.4,3.1-2.9,4.8  c-0.6,2.3,0.9,4.7,3.2,5.3c1,0.2,2.1,0.1,3-0.4c4-2.3,3.1-7.9,1.4-11.3c-0.8-1.7-2.1-3.2-2.8-5c-0.5-1.4-0.8-2.9-0.7-4.3  c0.2-3.1,1.1-6.1,2.6-8.8c1.5-3.1,3.3-6,4.8-9.1c1.6-2.9,2.8-6.1,3.5-9.4c0.7-4.4,0.6-8.8-0.2-13.2c-1.3-7.9-4.8-15.2-9.9-21.3  c-9-10.9-24.8-18.1-38.9-13.9c-6.6,1.8-11.8,7.1-13.4,13.7c-1.4,5.8-0.1,12,3.5,16.8c1.9,2.4,4.4,4.2,7.3,5.2c2.8,1,5.9,1.1,8.9,1.7  c3,0.6,5.4,1.9,6.9,4.7c2,4.1,0.9,8.9,0.1,13.2c-1.6,8.9-4.1,17.6-4.8,26.7c-0.8,7.7-0.3,15.4,1.3,23c1.7,7.6,5.6,14.5,11.2,19.8  c5.8,5.1,12.8,8.5,20.4,9.9c3.8,0.7,7.6,1.1,11.4,1.1C771.6,478.7,771.6,474.8,769.1,474.8L769.1,474.8z"/>
<path class="st0" d="M780.6,428.6c10.2-6.7,22.9-8.7,34.7-5.5c5.7,1.6,11.5,4.4,14.5,9.6c2.7,4.8,3,10.6,0.9,15.7  c-2.5,5.7-7.5,9.9-13.5,11.5l2.2,0.9l-0.1-0.2l0.3,1l0-0.2l-0.3,1c-0.2,0.1-0.2,0.2-0.1,0.1c0.3,0,0.5,0,0.8-0.1  c0.6,0,1.2-0.1,1.7-0.1l3.7-0.3l6.9-0.6c2.3-0.2,4.6-0.4,6.9-0.6c2-0.3,4.1-0.2,6.2,0.2c3.1,1,5.7,3.2,7.1,6.2  c1.1,2.1,2.2,6.2-0.5,7.7c-2.2,1.2-0.2,4.6,2,3.4c3.2-1.7,3.9-5.6,3.3-8.9c-0.7-3.5-2.5-6.7-5.2-9c-2.9-2.5-6.7-3.8-10.6-3.6  c-4.7,0.2-9.5,0.8-14.2,1.1c-2.6,0.2-5.3,0.4-7.9,0.7c-2.2,0.2-4.8,1.7-3.5,4.3c0.5,0.8,1.4,1.1,2.2,0.9c6.2-1.7,11.5-5.6,14.8-11.1  c3.3-5.6,3.9-12.3,1.7-18.4c-4.9-13.3-21.8-17.4-34.5-16.3c-7.7,0.6-15.2,3.2-21.7,7.4C776.5,426.6,778.5,430,780.6,428.6  L780.6,428.6z"/>
<path class="st0" d="M872.5,404.4c4.2-0.3,8.5,0.6,12.2,2.6c0.9,0.5,2.1,0.2,2.7-0.8c0.5-0.9,0.2-2.1-0.7-2.6  c-4.3-2.4-9.3-3.5-14.2-3.2c-1.1,0-1.9,0.9-2,2C870.5,403.5,871.4,404.4,872.5,404.4z"/>
<path class="st0" d="M919.4,395.3c-3-0.4-6.1,0.3-8.7,1.9c-1.2,0.7-2.4,1.5-3.5,2.3c-1.3,0.8-2.4,1.9-3.1,3.2  c-0.5,0.9-0.2,2.1,0.7,2.7c0.9,0.5,2.1,0.2,2.7-0.7c0.4-0.8,1.1-1.5,1.8-1.9c1-0.7,2-1.4,3.1-2c0.5-0.3,1-0.6,1.6-0.8  c0.4-0.2,0.9-0.4,1.4-0.5c0.3-0.1,0.6-0.2,0.8-0.2c0.1,0,0.3-0.1,0.4-0.1c0.3-0.1-0.2,0,0.1,0c0.3,0,0.6,0,0.9,0c0.1,0,0.3,0,0.4,0  c0,0,0.5,0.1,0.2,0c1,0.3,2.1-0.3,2.4-1.4C921,396.7,920.4,395.6,919.4,395.3L919.4,395.3z"/>
<path class="st0" d="M899.5,411.6c-0.3,0.7-0.9,1.1-1.6,1.3c-1.1,0.2-2.2,0.2-3.3,0c-1-0.3-2.1,0.3-2.4,1.4c-0.3,1,0.3,2.1,1.4,2.4  l1.9,0.6c0.1,0,0.9,0.2,0.9,0.3l-0.3-0.2c-0.2-0.7-0.3-0.8-0.3-0.4c0,0.7,0.2,1.3,0.4,1.9c0.1,0.4,0.2,0.8,0.1,1.2  c-0.2,1.2-1.3,2-2.5,1.8c-0.2,0-0.4-0.1-0.5-0.2l-1.5,3.6c1.7,0.6,3.5,0.8,5.3,0.6c0.9-0.2,1.8-0.6,2.5-1.2c0.1,0,0.6-0.5,0.4-0.4  c0.3,0,0.7,0.1,1,0.1c3.6,0.4,7.7-0.7,9.3-4.1c0.5-0.9,0.2-2.1-0.7-2.7c-0.9-0.5-2.1-0.2-2.7,0.7c-0.5,1-1.3,1.7-2.3,2  c-1.4,0.3-2.9,0.3-4.4,0.1c-0.8-0.1-1.7,0.2-2.4,0.7c-0.4,0.4-0.9,0.7-1.3,1c-1.1,0.4-2.5-0.1-3.7-0.5c-2.1-0.6-3.6,2.6-1.5,3.6  c3,1.6,6.7,0.4,8.3-2.6c0.2-0.4,0.4-0.9,0.5-1.3c0.2-0.9,0.2-1.9,0-2.8c-0.1-0.4-0.2-0.8-0.4-1.3c-0.1-0.4-0.1-0.8-0.2-1.2  c-0.6-2.1-3.2-2.5-5-3l-1,3.8c1.8,0.4,3.7,0.4,5.6,0c1.6-0.4,2.9-1.5,3.7-3c0.5-0.9,0.2-2.1-0.7-2.7  C901.3,410.4,900.1,410.7,899.5,411.6L899.5,411.6z"/>
<path d="M475.8,390.4c-14.9,5.4-30.3,9-46,10.7c-7.6,0.8-15.4,1.6-23.1,1c-6.6-0.5-13.4-2.7-17.6-8.1c-9.8-12.8,7.4-25.5,16.7-31.7  c6.6-4.4,13.5-8.5,20.2-12.8c6.9-4.3,13.8-8.8,20.9-12.9c6.8-4.1,13.9-7.7,21.2-10.8c3.7-1.6,7.4-3,11.2-4.2c1.6-0.5,6.1-2,6.6,0.8  c0,0.3,0,0.6,0,0.9c-0.1,0.1-0.3,0.3-0.1,0.3l1.4,3.4c4-3.6,8.9-6,14.2-7.1c1.8-0.4,4.6-0.9,6,0.6c0.3,0.4,0.5,0.9,0.4,1.5  c0,0.2-0.1,0.5-0.2,0.7c-0.1,0.2-0.1,0.2-0.3,0.2l1.4,3.4c7.6-6.7,18.8-8,28.1-4.7c4.6,1.6,9.8,4.9,12,9.4c2.7,5.6-3.8,9.1-8.4,9.6  c-3.5,0.4-7.1,0-10.6,0.4c-2.8,0.3-5.6,1-8.2,2.1c-5.4,2.2-10.2,6-13.6,10.7c-3.4,4.8-5.5,11.9-0.7,16.6c1.9,1.9,4.7,2.7,7.3,2.1  c2.5-0.5,4.7-1.9,7-2.9c2-0.9,4.4-1.5,6.1,0.1c1.5,1.6,2.1,3.7,1.8,5.9c-0.8,6-8.1,8.3-13.1,9.6l2.4,1.4c-0.3-0.9,0.1-1.9,1-2.3  c2.2-1.2,0.2-4.6-2-3.4c-2.4,1.3-3.5,4.1-2.8,6.7c0.3,1,1.4,1.6,2.4,1.4c5.5-1.5,12.1-3.9,14.8-9.4c2.1-4.3,1.4-10.3-2.6-13.3  c-2.2-1.5-4.9-1.9-7.4-1.1c-2.6,0.7-4.9,2.3-7.5,3.2c-2.4,0.8-4.7,0.1-5.8-2.3c-1.3-2.7-0.3-5.7,1.1-8.2c3.1-5.3,7.9-9.3,13.6-11.4  c2.9-1.1,5.9-1.7,9-1.7c3.7-0.1,7.4,0.1,11-0.7c5.8-1.4,11.3-6.7,9.3-13.1c-1.7-5.4-7.2-9.6-12.2-11.9c-11.3-5.3-25.5-3.8-34.9,4.5  c-0.8,0.8-0.7,2.1,0.1,2.8c0.4,0.3,0.8,0.5,1.3,0.6c3.2-0.1,4.8-3.2,4.3-6.1c-0.5-3.4-3.9-5-7.1-5c-3.6-0.1-7.4,1.2-10.7,2.6  c-3.5,1.5-6.7,3.5-9.5,6.1c-1.2,1.1-0.3,3.6,1.4,3.4c3.2-0.4,4.6-3.3,3.9-6.3c-0.9-3.6-4.7-4.7-8-4.2c-2,0.4-3.9,0.9-5.8,1.7  c-2.1,0.7-4.1,1.5-6.2,2.3c-4,1.6-8,3.4-11.9,5.3c-7.9,3.9-15.4,8.5-22.8,13.1c-7.7,4.8-15.3,9.6-23,14.4  c-7.1,4.4-14.2,8.9-20.2,14.6c-5.4,5.1-10.3,12.1-9.2,19.9c1,6.8,6.5,12.4,12.6,15.1c7.7,3.3,16.4,3,24.6,2.5  c17.3-1,34.4-4.2,50.9-9.6c2.1-0.7,4.2-1.4,6.2-2.1C479.2,393.4,478.1,389.6,475.8,390.4L475.8,390.4z"/>
</svg>