<svg version="1.1" viewBox="0.0 0.0 480.62467191601047 231.1548556430446" fill="none" stroke="none" stroke-linecap="square" stroke-miterlimit="10" xmlns:xlink="http://www.w3.org/1999/xlink" xmlns="http://www.w3.org/2000/svg"><clipPath id="p.0"><path d="m0 0l480.62466 0l0 231.15486l-480.62466 0l0 -231.15486z" clip-rule="nonzero"/></clipPath><g clip-path="url(#p.0)"><path fill="#000000" fill-opacity="0.0" d="m0 0l480.62466 0l0 231.15486l-480.62466 0z" fill-rule="evenodd"/><path fill="#000000" fill-opacity="0.0" d="m14.942257 43.026432l0 0c0 -5.1257668 4.1552563 -9.281025 9.281025 -9.281025l37.12299 0l0 0c2.4614792 0 4.8221474 0.97781754 6.5626793 2.7183495c1.7405243 1.7405281 2.7183456 4.1011963 2.7183456 6.5626755l0 38.414326c0 5.1257706 -4.155258 9.281029 -9.281025 9.281029l-37.12299 0c-5.1257687 0 -9.281025 -4.155258 -9.281025 -9.281029z" fill-rule="evenodd"/><path stroke="#000000" stroke-width="1.0" stroke-linejoin="round" stroke-linecap="butt" d="m14.942257 43.026432l0 0c0 -5.1257668 4.1552563 -9.281025 9.281025 -9.281025l37.12299 0l0 0c2.4614792 0 4.8221474 0.97781754 6.5626793 2.7183495c1.7405243 1.7405281 2.7183456 4.1011963 2.7183456 6.5626755l0 38.414326c0 5.1257706 -4.155258 9.281029 -9.281025 9.281029l-37.12299 0c-5.1257687 0 -9.281025 -4.155258 -9.281025 -9.281029z" fill-rule="evenodd"/><path fill="#000000" d="m29.75191 50.583725l1.453125 -3.8125l0.546875 0l1.5625019 3.8125l-0.578125 0l-0.4375 -1.15625l-1.5937519 0l-0.421875 1.15625l-0.53125 0zm1.09375 -1.5625l1.2968769 0l-0.4062519 -1.0625q-0.171875 -0.484375 -0.265625 -0.78125q-0.078125 0.359375 -0.203125 0.71875l-0.421875 1.125zm2.8038197 2.625l0 -3.828125l0.4375 0l0 0.359375q0.140625 -0.203125 0.328125 -0.3125q0.203125 -0.109375 0.46875 -0.109375q0.359375 0 0.625 0.1875q0.265625 0.171875 0.40625 0.515625q0.140625 0.328125 0.140625 0.71875q0 0.421875 -0.15625 0.765625q-0.140625 0.34375 -0.4375 0.53125q-0.296875 0.171875 -0.609375 0.171875q-0.234375 0 -0.421875 -0.09375q-0.1875 -0.109375 -0.3125 -0.25l0 1.34375l-0.46875 0zm0.4375 -2.421875q0 0.53125 0.203125 0.78125q0.21875 0.25 0.53125 0.25q0.3125 0 0.53125 -0.25q0.21875 -0.265625 0.21875 -0.828125q0 -0.53125 -0.21875 -0.78125q-0.203125 -0.265625 -0.515625 -0.265625q-0.296875 0 -0.53125 0.28125q-0.21875 0.265625 -0.21875 0.8125zm2.5257568 2.421875l0 -3.828125l0.4375 0l0 0.359375q0.140625 -0.203125 0.328125 -0.3125q0.203125 -0.109375 0.46875 -0.109375q0.359375 0 0.625 0.1875q0.265625 0.171875 0.40625 0.515625q0.140625 0.328125 0.140625 0.71875q0 0.421875 -0.15625 0.765625q-0.140625 0.34375 -0.4375 0.53125q-0.296875 0.171875 -0.609375 0.171875q-0.234375 0 -0.421875 -0.09375q-0.1875 -0.109375 -0.3125 -0.25l0 1.34375l-0.46875 0zm0.4375 -2.421875q0 0.53125 0.203125 0.78125q0.21875 0.25 0.53125 0.25q0.3125 0 0.53125 -0.25q0.21875 -0.265625 0.21875 -0.828125q0 -0.53125 -0.21875 -0.78125q-0.203125 -0.265625 -0.515625 -0.265625q-0.296875 0 -0.53125 0.28125q-0.21875 0.265625 -0.21875 0.8125zm2.5257568 1.359375l0 -3.8125l0.46875 0l0 3.8125l-0.46875 0zm1.1993713 -3.28125l0 -0.53125l0.46875 0l0 0.53125l-0.46875 0zm0 3.28125l0 -2.765625l0.46875 0l0 2.765625l-0.46875 0zm2.9806213 -1.015625l0.453125 0.0625q-0.0625 0.484375 -0.375 0.75q-0.3125 0.265625 -0.765625 0.265625q-0.578125 0 -0.921875 -0.359375q-0.34375 -0.375 -0.34375 -1.078125q0 -0.4375 0.140625 -0.765625q0.15625 -0.34375 0.453125 -0.515625q0.3125 -0.171875 0.671875 -0.171875q0.453125 0 0.734375 0.234375q0.28125 0.21875 0.375 0.640625l-0.46875 0.078125q-0.0625 -0.28125 -0.234375 -0.421875q-0.15625 -0.140625 -0.390625 -0.140625q-0.359375 0 -0.578125 0.25q-0.21875 0.25 -0.21875 0.796875q0 0.5625 0.203125 0.8125q0.21875 0.25 0.5625 0.25q0.28125 0 0.46875 -0.15625q0.1875 -0.171875 0.234375 -0.53125zm2.6640625 0.671875q-0.265625 0.21875 -0.515625 0.3125q-0.234375 0.09375 -0.5 0.09375q-0.453125 0 -0.703125 -0.21875q-0.25 -0.21875 -0.25 -0.578125q0 -0.203125 0.09375 -0.359375q0.09375 -0.171875 0.234375 -0.265625q0.15625 -0.109375 0.34375 -0.15625q0.140625 -0.046875 0.421875 -0.078125q0.5625 -0.0625 0.828125 -0.15625q0.015625 -0.09375 0.015625 -0.125q0 -0.28125 -0.140625 -0.40625q-0.171875 -0.15625 -0.53125 -0.15625q-0.328125 0 -0.484375 0.125q-0.15625 0.109375 -0.234375 0.40625l-0.46875 -0.0625q0.0625 -0.296875 0.203125 -0.46875q0.15625 -0.1875 0.421875 -0.28125q0.265625 -0.109375 0.625 -0.109375q0.359375 0 0.578125 0.09375q0.21875 0.078125 0.328125 0.203125q0.109375 0.125 0.140625 0.3125q0.03125 0.125 0.03125 0.4375l0 0.625q0 0.65625 0.03125 0.828125q0.03125 0.171875 0.109375 0.328125l-0.484375 0q-0.078125 -0.140625 -0.09375 -0.34375zm-0.046875 -1.046875q-0.25 0.109375 -0.765625 0.1875q-0.28125 0.03125 -0.40625 0.09375q-0.109375 0.046875 -0.1875 0.15625q-0.0625 0.09375 -0.0625 0.21875q0 0.1875 0.140625 0.3125q0.140625 0.125 0.421875 0.125q0.265625 0 0.46875 -0.125q0.21875 -0.125 0.328125 -0.328125q0.0625 -0.15625 0.0625 -0.46875l0 -0.171875zm2.2288818 0.96875l0.0625 0.421875q-0.1875 0.03125 -0.34375 0.03125q-0.265625 0 -0.40625 -0.078125q-0.140625 -0.078125 -0.203125 -0.203125q-0.046875 -0.140625 -0.046875 -0.5625l0 -1.59375l-0.34375 0l0 -0.359375l0.34375 0l0 -0.6875l0.46875 -0.28125l0 0.96875l0.46875 0l0 0.359375l-0.46875 0l0 1.625q0 0.203125 0.015625 0.265625q0.03125 0.046875 0.078125 0.078125q0.0625 0.03125 0.171875 0.03125q0.078125 0 0.203125 -0.015625zm0.46470642 -2.859375l0 -0.53125l0.46875 0l0 0.53125l-0.46875 0zm0 3.28125l0 -2.765625l0.46875 0l0 2.765625l-0.46875 0zm0.9962425 -1.375q0 -0.78125 0.4375 -1.140625q0.34375 -0.3125 0.859375 -0.3125q0.578125 0 0.9375 0.375q0.359375 0.375 0.359375 1.03125q0 0.53125 -0.15625 0.84375q-0.15625 0.296875 -0.46875 0.46875q-0.3125 0.171875 -0.671875 0.171875q-0.578125 0 -0.9375 -0.375q-0.359375 -0.375 -0.359375 -1.0625zm0.484375 0q0 0.53125 0.234375 0.796875q0.234375 0.25 0.578125 0.25q0.359375 0 0.578125 -0.265625q0.234375 -0.265625 0.234375 -0.796875q0 -0.515625 -0.234375 -0.78125q-0.234375 -0.265625 -0.578125 -0.265625q-0.34375 0 -0.578125 0.265625q-0.234375 0.265625 -0.234375 0.796875zm2.6507568 1.375l0 -2.765625l0.421875 0l0 0.390625q0.3125 -0.453125 0.890625 -0.453125q0.25 0 0.453125 0.09375q0.21875 0.09375 0.3125 0.234375q0.109375 0.140625 0.15625 0.34375q0.015625 0.125 0.015625 0.453125l0 1.703125l-0.46875 0l0 -1.6875q0 -0.28125 -0.0625 -0.421875q-0.046875 -0.140625 -0.1875 -0.21875q-0.140625 -0.09375 -0.328125 -0.09375q-0.296875 0 -0.515625 0.1875q-0.21875 0.1875 -0.21875 0.71875l0 1.515625l-0.46875 0z" fill-rule="nonzero"/><path fill="#000000" d="m33.056324 57.646225l0 -3.828125l0.4375 0l0 0.359375q0.140625 -0.203125 0.328125 -0.3125q0.203125 -0.109375 0.46875 -0.109375q0.359375 0 0.625 0.1875q0.265625 0.171875 0.40625 0.515625q0.140625 0.328125 0.140625 0.71875q0 0.421875 -0.15625 0.765625q-0.140625 0.34375 -0.4375 0.53125q-0.296875 0.171875 -0.609375 0.171875q-0.234375 0 -0.421875 -0.09375q-0.1875 -0.109375 -0.3125 -0.25l0 1.34375l-0.46875 0zm0.4375 -2.421875q0 0.53125 0.203125 0.78125q0.21875 0.25 0.53125 0.25q0.3125 0 0.53125 -0.25q0.21875 -0.265625 0.21875 -0.828125q0 -0.53125 -0.21875 -0.78125q-0.203125 -0.265625 -0.515625 -0.265625q-0.296875 0 -0.53125 0.28125q-0.21875 0.265625 -0.21875 0.8125zm4.338257 1.015625q-0.265625 0.21875 -0.515625 0.3125q-0.234375 0.09375 -0.5 0.09375q-0.453125 0 -0.703125 -0.21875q-0.25 -0.21875 -0.25 -0.578125q0 -0.203125 0.09375 -0.359375q0.09375 -0.171875 0.234375 -0.265625q0.15625 -0.109375 0.34375 -0.15625q0.140625 -0.046875 0.421875 -0.078125q0.5625 -0.0625 0.828125 -0.15625q0.015625 -0.09375 0.015625 -0.125q0 -0.28125 -0.140625 -0.40625q-0.171875 -0.15625 -0.53125 -0.15625q-0.328125 0 -0.484375 0.125q-0.15625 0.109375 -0.234375 0.40625l-0.46875 -0.0625q0.0625 -0.296875 0.203125 -0.46875q0.15625 -0.1875 0.421875 -0.28125q0.265625 -0.109375 0.625 -0.109375q0.359375 0 0.578125 0.09375q0.21875 0.078125 0.328125 0.203125q0.109375 0.125 0.140625 0.3125q0.03125 0.125 0.03125 0.4375l0 0.625q0 0.65625 0.03125 0.828125q0.03125 0.171875 0.109375 0.328125l-0.484375 0q-0.078125 -0.140625 -0.09375 -0.34375zm-0.046875 -1.046875q-0.25 0.109375 -0.765625 0.1875q-0.28125 0.03125 -0.40625 0.09375q-0.109375 0.046875 -0.1875 0.15625q-0.0625 0.09375 -0.0625 0.21875q0 0.1875 0.140625 0.3125q0.140625 0.125 0.421875 0.125q0.265625 0 0.46875 -0.125q0.21875 -0.125 0.328125 -0.328125q0.0625 -0.15625 0.0625 -0.46875l0 -0.171875zm3.0101318 0.375l0.453125 0.0625q-0.0625 0.484375 -0.375 0.75q-0.3125 0.265625 -0.765625 0.265625q-0.578125 0 -0.921875 -0.359375q-0.34375 -0.375 -0.34375 -1.078125q0 -0.4375 0.140625 -0.765625q0.15625 -0.34375 0.453125 -0.515625q0.3125 -0.171875 0.671875 -0.171875q0.453125 0 0.734375 0.234375q0.28125 0.21875 0.375 0.640625l-0.46875 0.078125q-0.0625 -0.28125 -0.234375 -0.421875q-0.15625 -0.140625 -0.390625 -0.140625q-0.359375 0 -0.578125 0.25q-0.21875 0.25 -0.21875 0.796875q0 0.5625 0.203125 0.8125q0.21875 0.25 0.5625 0.25q0.28125 0 0.46875 -0.15625q0.1875 -0.171875 0.234375 -0.53125zm0.8671875 1.015625l0 -3.8125l0.46875 0l0 2.171875l1.109375 -1.125l0.59375 0l-1.046875 1.03125l1.15625 1.734375l-0.578125 0l-0.90625 -1.40625l-0.328125 0.3125l0 1.09375l-0.46875 0zm4.4609375 -0.34375q-0.265625 0.21875 -0.515625 0.3125q-0.234375 0.09375 -0.5 0.09375q-0.453125 0 -0.703125 -0.21875q-0.25 -0.21875 -0.25 -0.578125q0 -0.203125 0.09375 -0.359375q0.09375 -0.171875 0.234375 -0.265625q0.15625 -0.109375 0.34375 -0.15625q0.140625 -0.046875 0.421875 -0.078125q0.5625 -0.0625 0.828125 -0.15625q0.015625 -0.09375 0.015625 -0.125q0 -0.28125 -0.140625 -0.40625q-0.171875 -0.15625 -0.53125 -0.15625q-0.328125 0 -0.484375 0.125q-0.15625 0.109375 -0.234375 0.40625l-0.46875 -0.0625q0.0625 -0.296875 0.203125 -0.46875q0.15625 -0.1875 0.421875 -0.28125q0.265625 -0.109375 0.625 -0.109375q0.359375 0 0.578125 0.09375q0.21875 0.078125 0.328125 0.203125q0.109375 0.125 0.140625 0.3125q0.03125 0.125 0.03125 0.4375l0 0.625q0 0.65625 0.03125 0.828125q0.03125 0.171875 0.109375 0.328125l-0.484375 0q-0.078125 -0.140625 -0.09375 -0.34375zm-0.046875 -1.046875q-0.25 0.109375 -0.765625 0.1875q-0.28125 0.03125 -0.40625 0.09375q-0.109375 0.046875 -0.1875 0.15625q-0.0625 0.09375 -0.0625 0.21875q0 0.1875 0.140625 0.3125q0.140625 0.125 0.421875 0.125q0.265625 0 0.46875 -0.125q0.21875 -0.125 0.328125 -0.328125q0.0625 -0.15625 0.0625 -0.46875l0 -0.171875zm1.1195068 1.625l0.453125 0.0625q0.03125 0.203125 0.15625 0.3125q0.171875 0.125 0.484375 0.125q0.328125 0 0.5 -0.140625q0.171875 -0.125 0.234375 -0.359375q0.046875 -0.140625 0.03125 -0.59375q-0.296875 0.359375 -0.765625 0.359375q-0.5625 0 -0.875 -0.40625q-0.3125 -0.421875 -0.3125 -0.984375q0 -0.40625 0.140625 -0.734375q0.140625 -0.34375 0.40625 -0.515625q0.28125 -0.1875 0.65625 -0.1875q0.484375 0 0.796875 0.390625l0 -0.328125l0.4375 0l0 2.390625q0 0.640625 -0.140625 0.90625q-0.125 0.28125 -0.40625 0.4375q-0.28125 0.15625 -0.703125 0.15625q-0.5 0 -0.8125 -0.234375q-0.296875 -0.21875 -0.28125 -0.65625zm0.390625 -1.671875q0 0.546875 0.203125 0.796875q0.21875 0.25 0.546875 0.25q0.328125 0 0.546875 -0.25q0.21875 -0.25 0.21875 -0.78125q0 -0.5 -0.234375 -0.75q-0.21875 -0.265625 -0.53125 -0.265625q-0.3125 0 -0.53125 0.25q-0.21875 0.25 -0.21875 0.75zm4.557003 0.546875l0.46875 0.0625q-0.109375 0.421875 -0.421875 0.65625q-0.296875 0.234375 -0.78125 0.234375q-0.609375 0 -0.96875 -0.375q-0.359375 -0.375 -0.359375 -1.046875q0 -0.703125 0.359375 -1.078125q0.359375 -0.390625 0.9375 -0.390625q0.5625 0 0.90625 0.375q0.34375 0.375 0.34375 1.0625q0 0.046875 0 0.125l-2.0625 0q0.03125 0.453125 0.265625 0.703125q0.234375 0.234375 0.578125 0.234375q0.25 0 0.4375 -0.125q0.1875 -0.140625 0.296875 -0.4375zm-1.546875 -0.75l1.546875 0q-0.03125 -0.359375 -0.171875 -0.53125q-0.234375 -0.265625 -0.59375 -0.265625q-0.3125 0 -0.53125 0.21875q-0.21875 0.203125 -0.25 0.578125z" fill-rule="nonzero"/><path fill="#005a8e" d="m296.0 194.798l0 0c0 -3.0615387 2.4818726 -5.5434113 5.5434265 -5.5434113l44.598206 0c1.4701843 0 2.880188 0.58403015 3.9197693 1.6236267c1.0396118 1.0395966 1.6236267 2.449585 1.6236267 3.9197845l0 22.17302c0 3.0615387 -2.4818726 5.5434113 -5.543396 5.5434113l-44.598206 0c-3.061554 0 -5.5434265 -2.4818726 -5.5434265 -5.5434113z" fill-rule="evenodd"/><path stroke="#005a8e" stroke-width="1.0" stroke-linejoin="round" stroke-linecap="butt" d="m296.0 194.798l0 0c0 -3.0615387 2.4818726 -5.5434113 5.5434265 -5.5434113l44.598206 0c1.4701843 0 2.880188 0.58403015 3.9197693 1.6236267c1.0396118 1.0395966 1.6236267 2.449585 1.6236267 3.9197845l0 22.17302c0 3.0615387 -2.4818726 5.5434113 -5.543396 5.5434113l-44.598206 0c-3.061554 0 -5.5434265 -2.4818726 -5.5434265 -5.5434113z" fill-rule="evenodd"/><path fill="#005a8e" d="m360.0 194.798l0 0c0 -3.0615387 2.4818726 -5.5434113 5.5434265 -5.5434113l44.598206 0c1.4701843 0 2.880188 0.58403015 3.9197693 1.6236267c1.0396118 1.0395966 1.6236267 2.449585 1.6236267 3.9197845l0 22.17302c0 3.0615387 -2.4818726 5.5434113 -5.543396 5.5434113l-44.598206 0c-3.061554 0 -5.5434265 -2.4818726 -5.5434265 -5.5434113z" fill-rule="evenodd"/><path stroke="#005a8e" stroke-width="1.0" stroke-linejoin="round" stroke-linecap="butt" d="m360.0 194.798l0 0c0 -3.0615387 2.4818726 -5.5434113 5.5434265 -5.5434113l44.598206 0c1.4701843 0 2.880188 0.58403015 3.9197693 1.6236267c1.0396118 1.0395966 1.6236267 2.449585 1.6236267 3.9197845l0 22.17302c0 3.0615387 -2.4818726 5.5434113 -5.543396 5.5434113l-44.598206 0c-3.061554 0 -5.5434265 -2.4818726 -5.5434265 -5.5434113z" fill-rule="evenodd"/><path fill="#005a8e" d="m104.0 194.798l0 0c0 -3.0615387 2.4818726 -5.5434113 5.543419 -5.5434113l44.598198 0c1.4702148 0 2.8802032 0.58403015 3.9197998 1.6236267c1.0395813 1.0395966 1.6236267 2.449585 1.6236267 3.9197845l0 22.17302c0 3.0615387 -2.4818726 5.5434113 -5.5434265 5.5434113l-44.598198 0c-3.0615463 0 -5.543419 -2.4818726 -5.543419 -5.5434113z" fill-rule="evenodd"/><path stroke="#005a8e" stroke-width="1.0" stroke-linejoin="round" stroke-linecap="butt" d="m104.0 194.798l0 0c0 -3.0615387 2.4818726 -5.5434113 5.543419 -5.5434113l44.598198 0c1.4702148 0 2.8802032 0.58403015 3.9197998 1.6236267c1.0395813 1.0395966 1.6236267 2.449585 1.6236267 3.9197845l0 22.17302c0 3.0615387 -2.4818726 5.5434113 -5.5434265 5.5434113l-44.598198 0c-3.0615463 0 -5.543419 -2.4818726 -5.543419 -5.5434113z" fill-rule="evenodd"/><path fill="#005a8e" d="m168.0 194.798l0 0c0 -3.0615387 2.4818726 -5.5434113 5.5434113 -5.5434113l44.598206 0c1.4702148 0 2.8802032 0.58403015 3.9197998 1.6236267c1.0395813 1.0395966 1.6236267 2.449585 1.6236267 3.9197845l0 22.17302c0 3.0615387 -2.4818726 5.5434113 -5.5434265 5.5434113l-44.598206 0c-3.0615387 0 -5.5434113 -2.4818726 -5.5434113 -5.5434113z" fill-rule="evenodd"/><path stroke="#005a8e" stroke-width="1.0" stroke-linejoin="round" stroke-linecap="butt" d="m168.0 194.798l0 0c0 -3.0615387 2.4818726 -5.5434113 5.5434113 -5.5434113l44.598206 0c1.4702148 0 2.8802032 0.58403015 3.9197998 1.6236267c1.0395813 1.0395966 1.6236267 2.449585 1.6236267 3.9197845l0 22.17302c0 3.0615387 -2.4818726 5.5434113 -5.5434265 5.5434113l-44.598206 0c-3.0615387 0 -5.5434113 -2.4818726 -5.5434113 -5.5434113z" fill-rule="evenodd"/><path fill="#005a8e" d="m232.0 194.798l0 0c0 -3.0615387 2.4818726 -5.5434113 5.5434113 -5.5434113l44.59822 0c1.4701843 0 2.880188 0.58403015 3.9197693 1.6236267c1.0396118 1.0395966 1.6236267 2.449585 1.6236267 3.9197845l0 22.17302c0 3.0615387 -2.4818726 5.5434113 -5.543396 5.5434113l-44.59822 0c-3.0615387 0 -5.5434113 -2.4818726 -5.5434113 -5.5434113z" fill-rule="evenodd"/><path stroke="#005a8e" stroke-width="1.0" stroke-linejoin="round" stroke-linecap="butt" d="m232.0 194.798l0 0c0 -3.0615387 2.4818726 -5.5434113 5.5434113 -5.5434113l44.59822 0c1.4701843 0 2.880188 0.58403015 3.9197693 1.6236267c1.0396118 1.0395966 1.6236267 2.449585 1.6236267 3.9197845l0 22.17302c0 3.0615387 -2.4818726 5.5434113 -5.543396 5.5434113l-44.59822 0c-3.0615387 0 -5.5434113 -2.4818726 -5.5434113 -5.5434113z" fill-rule="evenodd"/><path fill="#c1d3de" d="m168.0 63.468616l0 0c0 -3.0615463 2.4818726 -5.543419 5.5434113 -5.543419l44.598206 0c1.4702148 0 2.8802032 0.5840378 3.9197998 1.6236305c1.0395813 1.0395889 1.6236267 2.4495811 1.6236267 3.9197884l0 22.173008c0 3.0615387 -2.4818726 5.5434113 -5.5434265 5.5434113l-44.598206 0c-3.0615387 0 -5.5434113 -2.4818726 -5.5434113 -5.5434113z" fill-rule="evenodd"/><path stroke="#c1d3de" stroke-width="1.0" stroke-linejoin="round" stroke-linecap="butt" d="m168.0 63.468616l0 0c0 -3.0615463 2.4818726 -5.543419 5.5434113 -5.543419l44.598206 0c1.4702148 0 2.8802032 0.5840378 3.9197998 1.6236305c1.0395813 1.0395889 1.6236267 2.4495811 1.6236267 3.9197884l0 22.173008c0 3.0615387 -2.4818726 5.5434113 -5.5434265 5.5434113l-44.598206 0c-3.0615387 0 -5.5434113 -2.4818726 -5.5434113 -5.5434113z" fill-rule="evenodd"/><path fill="#c1d3de" d="m232.0 63.468616l0 0c0 -3.0615463 2.4818726 -5.543419 5.5434113 -5.543419l44.59822 0c1.4701843 0 2.880188 0.5840378 3.9197693 1.6236305c1.0396118 1.0395889 1.6236267 2.4495811 1.6236267 3.9197884l0 22.173008c0 3.0615387 -2.4818726 5.5434113 -5.543396 5.5434113l-44.59822 0c-3.0615387 0 -5.5434113 -2.4818726 -5.5434113 -5.5434113z" fill-rule="evenodd"/><path stroke="#c1d3de" stroke-width="1.0" stroke-linejoin="round" stroke-linecap="butt" d="m232.0 63.468616l0 0c0 -3.0615463 2.4818726 -5.543419 5.5434113 -5.543419l44.59822 0c1.4701843 0 2.880188 0.5840378 3.9197693 1.6236305c1.0396118 1.0395889 1.6236267 2.4495811 1.6236267 3.9197884l0 22.173008c0 3.0615387 -2.4818726 5.5434113 -5.543396 5.5434113l-44.59822 0c-3.0615387 0 -5.5434113 -2.4818726 -5.5434113 -5.5434113z" fill-rule="evenodd"/><path fill="#082947" d="m14.942257 129.66153l0 0c0 -3.0615463 2.4818726 -5.543419 5.543419 -5.543419l44.5982 0c1.4702072 0 2.8801956 0.5840378 3.9197922 1.6236267c1.0395889 1.0395966 1.6236267 2.4495926 1.6236267 3.9197922l0 22.173004c0 3.0615387 -2.4818726 5.5434265 -5.543419 5.5434265l-44.5982 0c-3.0615463 0 -5.543419 -2.4818878 -5.543419 -5.5434265z" fill-rule="evenodd"/><path stroke="#c1d3de" stroke-width="1.0" stroke-linejoin="round" stroke-linecap="butt" d="m14.942257 129.66153l0 0c0 -3.0615463 2.4818726 -5.543419 5.543419 -5.543419l44.5982 0c1.4702072 0 2.8801956 0.5840378 3.9197922 1.6236267c1.0395889 1.0395966 1.6236267 2.4495926 1.6236267 3.9197922l0 22.173004c0 3.0615387 -2.4818726 5.5434265 -5.543419 5.5434265l-44.5982 0c-3.0615463 0 -5.543419 -2.4818878 -5.543419 -5.5434265z" fill-rule="evenodd"/><path fill="#000000" fill-opacity="0.0" d="m70.6273 140.74803l317.63782 -0.1889801" fill-rule="evenodd"/><path stroke="#ff9750" stroke-width="2.0" stroke-linejoin="round" stroke-linecap="butt" stroke-dasharray="8.0,6.0" d="m70.6273 140.74803l317.63782 -0.1889801" fill-rule="evenodd"/><path fill="#000000" fill-opacity="0.0" d="m387.84253 141.24147l0 48.0" fill-rule="evenodd"/><path stroke="#ff9750" stroke-width="2.0" stroke-linejoin="round" stroke-linecap="butt" stroke-dasharray="8.0,6.0" d="m387.84253 141.24147l0 36.0" fill-rule="evenodd"/><path fill="#ff9750" stroke="#ff9750" stroke-width="2.0" stroke-linecap="butt" d="m384.53906 177.24147l3.3034668 9.076202l3.3034668 -9.076202z" fill-rule="evenodd"/><path fill="#000000" fill-opacity="0.0" d="m323.84253 141.24147l0 48.0" fill-rule="evenodd"/><path stroke="#ff9750" stroke-width="2.0" stroke-linejoin="round" stroke-linecap="butt" stroke-dasharray="8.0,6.0" d="m323.84253 141.24147l0 36.0" fill-rule="evenodd"/><path fill="#ff9750" stroke="#ff9750" stroke-width="2.0" stroke-linecap="butt" d="m320.53906 177.24147l3.3034668 9.076202l3.3034668 -9.076202z" fill-rule="evenodd"/><path fill="#000000" fill-opacity="0.0" d="m259.84253 141.24147l0 48.0" fill-rule="evenodd"/><path stroke="#ff9750" stroke-width="2.0" stroke-linejoin="round" stroke-linecap="butt" stroke-dasharray="8.0,6.0" d="m259.84253 141.24147l0 36.0" fill-rule="evenodd"/><path fill="#ff9750" stroke="#ff9750" stroke-width="2.0" stroke-linecap="butt" d="m256.53906 177.24147l3.3034668 9.076202l3.3034668 -9.076202z" fill-rule="evenodd"/><path fill="#000000" fill-opacity="0.0" d="m195.84251 141.24147l0 48.0" fill-rule="evenodd"/><path stroke="#ff9750" stroke-width="2.0" stroke-linejoin="round" stroke-linecap="butt" stroke-dasharray="8.0,6.0" d="m195.84251 141.24147l0 36.0" fill-rule="evenodd"/><path fill="#ff9750" stroke="#ff9750" stroke-width="2.0" stroke-linecap="butt" d="m192.53905 177.24147l3.3034668 9.076202l3.3034668 -9.076202z" fill-rule="evenodd"/><path fill="#000000" fill-opacity="0.0" d="m131.84251 141.24147l0 48.0" fill-rule="evenodd"/><path stroke="#ff9750" stroke-width="2.0" stroke-linejoin="round" stroke-linecap="butt" stroke-dasharray="8.0,6.0" d="m131.84251 141.24147l0 36.0" fill-rule="evenodd"/><path fill="#ff9750" stroke="#ff9750" stroke-width="2.0" stroke-linecap="butt" d="m128.53905 177.24147l3.3034668 9.076202l3.3034668 -9.076202z" fill-rule="evenodd"/><path fill="#000000" fill-opacity="0.0" d="m195.84251 91.185036l0.47244263 49.700798" fill-rule="evenodd"/><path stroke="#ff9750" stroke-width="2.0" stroke-linejoin="round" stroke-linecap="butt" stroke-dasharray="8.0,6.0" d="m195.95659 103.184494l0.35836792 37.70134" fill-rule="evenodd"/><path fill="#ff9750" stroke="#ff9750" stroke-width="2.0" stroke-linecap="butt" d="m199.2599 103.1531l-3.3895874 -9.044388l-3.217041 9.107185z" fill-rule="evenodd"/><path fill="#000000" fill-opacity="0.0" d="m42.78478 124.11811l0 -31.370079" fill-rule="evenodd"/><path stroke="#ff9750" stroke-width="2.0" stroke-linejoin="round" stroke-linecap="butt" stroke-dasharray="8.0,6.0" d="m42.78478 112.11811l0 -19.370079" fill-rule="evenodd"/><path fill="#ff9750" stroke="#ff9750" stroke-width="2.0" stroke-linecap="butt" d="m39.48131 112.11811l3.3034668 9.076195l3.303463 -9.076195z" fill-rule="evenodd"/><path fill="#000000" fill-opacity="0.0" d="m38.228348 93.24147l46.83465 0l0 13.889763l-46.83465 0z" fill-rule="evenodd"/><path fill="#000000" d="m47.743973 104.531235l0 -4.765625l1.640625 0q0.546875 0 0.84375 0.0625q0.40625 0.09375 0.703125 0.34375q0.375 0.328125 0.5625 0.828125q0.1875 0.484375 0.1875 1.125q0 0.546875 -0.125 0.96875q-0.125 0.40625 -0.328125 0.6875q-0.203125 0.265625 -0.4375 0.4375q-0.234375 0.15625 -0.5625 0.234375q-0.328125 0.078125 -0.765625 0.078125l-1.71875 0zm0.625 -0.5625l1.015625 0q0.46875 0 0.734375 -0.078125q0.28125 -0.09375 0.4375 -0.25q0.21875 -0.234375 0.34375 -0.609375q0.125 -0.375 0.125 -0.921875q0 -0.75 -0.25 -1.140625q-0.234375 -0.40625 -0.59375 -0.546875q-0.25 -0.09375 -0.8125 -0.09375l-1.0 0l0 3.640625zm6.4631805 -0.546875l0.609375 0.078125q-0.140625 0.53125 -0.53125 0.828125q-0.390625 0.28125 -0.984375 0.28125q-0.765625 0 -1.203125 -0.46875q-0.4375 -0.46875 -0.4375 -1.3125q0 -0.859375 0.4375 -1.34375q0.453125 -0.484375 1.171875 -0.484375q0.6875 0 1.125 0.46875q0.4375 0.46875 0.4375 1.328125q0 0.046875 0 0.15625l-2.578125 0q0.03125 0.578125 0.3125 0.875q0.296875 0.296875 0.734375 0.296875q0.328125 0 0.546875 -0.15625q0.234375 -0.171875 0.359375 -0.546875zm-1.921875 -0.953125l1.9375 0q-0.046875 -0.4375 -0.21875 -0.640625q-0.28125 -0.34375 -0.734375 -0.34375q-0.40625 0 -0.6875 0.265625q-0.265625 0.265625 -0.296875 0.71875zm3.264389 3.390625l0 -4.78125l0.53125 0l0 0.453125q0.1875 -0.265625 0.421875 -0.390625q0.25 -0.140625 0.578125 -0.140625q0.453125 0 0.78125 0.234375q0.34375 0.21875 0.515625 0.640625q0.171875 0.40625 0.171875 0.90625q0 0.53125 -0.1875 0.953125q-0.1875 0.421875 -0.5625 0.65625q-0.359375 0.21875 -0.75 0.21875q-0.296875 0 -0.53125 -0.125q-0.234375 -0.125 -0.375 -0.3125l0 1.6875l-0.59375 0zm0.53125 -3.03125q0 0.65625 0.265625 0.984375q0.28125 0.3125 0.65625 0.3125q0.390625 0 0.671875 -0.328125q0.28125 -0.328125 0.28125 -1.015625q0 -0.671875 -0.28125 -1.0q-0.265625 -0.328125 -0.640625 -0.328125q-0.375 0 -0.671875 0.359375q-0.28125 0.34375 -0.28125 1.015625zm3.155014 1.703125l0 -4.765625l0.59375 0l0 4.765625l-0.59375 0zm1.2756805 -1.71875q0 -0.96875 0.53125 -1.421875q0.453125 -0.390625 1.09375 -0.390625q0.703125 0 1.15625 0.46875q0.453125 0.46875 0.453125 1.28125q0 0.671875 -0.203125 1.0625q-0.1875 0.375 -0.578125 0.59375q-0.375 0.203125 -0.828125 0.203125q-0.734375 0 -1.1875 -0.453125q-0.4375 -0.46875 -0.4375 -1.34375zm0.609375 0q0 0.65625 0.28125 0.984375q0.296875 0.328125 0.734375 0.328125q0.4375 0 0.71875 -0.328125q0.296875 -0.328125 0.296875 -1.015625q0 -0.640625 -0.296875 -0.96875q-0.296875 -0.328125 -0.71875 -0.328125q-0.4375 0 -0.734375 0.328125q-0.28125 0.328125 -0.28125 1.0zm3.280014 3.046875l-0.0625 -0.546875q0.203125 0.046875 0.34375 0.046875q0.1875 0 0.296875 -0.0625q0.125 -0.0625 0.203125 -0.1875q0.046875 -0.078125 0.171875 -0.421875q0.015625 -0.0625 0.0625 -0.15625l-1.3125 -3.453125l0.625 0l0.71875 2.0q0.140625 0.375 0.25 0.796875q0.109375 -0.40625 0.25 -0.78125l0.734375 -2.015625l0.578125 0l-1.3125 3.515625q-0.203125 0.5625 -0.328125 0.78125q-0.15625 0.28125 -0.359375 0.421875q-0.203125 0.140625 -0.46875 0.140625q-0.171875 0 -0.390625 -0.078125z" fill-rule="nonzero"/><path fill="#c1d3de" d="m296.0 64.43974l0 0c0 -3.0615463 2.4818726 -5.543419 5.5434265 -5.543419l44.598206 0c1.4701843 0 2.880188 0.5840378 3.9197693 1.6236305c1.0396118 1.0395927 1.6236267 2.4495811 1.6236267 3.9197884l0 22.173004c0 3.0615463 -2.4818726 5.543419 -5.543396 5.543419l-44.598206 0c-3.061554 0 -5.5434265 -2.4818726 -5.5434265 -5.543419z" fill-rule="evenodd"/><path stroke="#c1d3de" stroke-width="1.0" stroke-linejoin="round" stroke-linecap="butt" d="m296.0 64.43974l0 0c0 -3.0615463 2.4818726 -5.543419 5.5434265 -5.543419l44.598206 0c1.4701843 0 2.880188 0.5840378 3.9197693 1.6236305c1.0396118 1.0395927 1.6236267 2.4495811 1.6236267 3.9197884l0 22.173004c0 3.0615463 -2.4818726 5.543419 -5.543396 5.543419l-44.598206 0c-3.061554 0 -5.5434265 -2.4818726 -5.5434265 -5.543419z" fill-rule="evenodd"/><path fill="#000000" fill-opacity="0.0" d="m259.6063 91.185036l0.47244263 49.700798" fill-rule="evenodd"/><path stroke="#ff9750" stroke-width="2.0" stroke-linejoin="round" stroke-linecap="butt" stroke-dasharray="8.0,6.0" d="m259.72037 103.184494l0.35836792 37.70134" fill-rule="evenodd"/><path fill="#ff9750" stroke="#ff9750" stroke-width="2.0" stroke-linecap="butt" d="m263.02368 103.1531l-3.3895874 -9.044388l-3.217041 9.107185z" fill-rule="evenodd"/><path fill="#000000" fill-opacity="0.0" d="m323.6063 93.24016l0.47244263 49.70079" fill-rule="evenodd"/><path stroke="#ff9750" stroke-width="2.0" stroke-linejoin="round" stroke-linecap="butt" stroke-dasharray="8.0,6.0" d="m323.72037 105.23962l0.35836792 37.701332" fill-rule="evenodd"/><path fill="#ff9750" stroke="#ff9750" stroke-width="2.0" stroke-linecap="butt" d="m327.02368 105.20821l-3.3895874 -9.04438l-3.217041 9.107185z" fill-rule="evenodd"/></g></svg>