<svg version="1.1" viewBox="0.0 0.0 447.78477690288713 100.0" fill="none" stroke="none" stroke-linecap="square" stroke-miterlimit="10" xmlns:xlink="http://www.w3.org/1999/xlink" xmlns="http://www.w3.org/2000/svg"><clipPath id="p.0"><path d="m0 0l447.7848 0l0 100.0l-447.7848 0l0 -100.0z" clip-rule="nonzero"/></clipPath><g clip-path="url(#p.0)"><path fill="#000000" fill-opacity="0.0" d="m0 0l447.7848 0l0 100.0l-447.7848 0z" fill-rule="evenodd"/><path fill="#005a8e" d="m0 10.798011l0 0c0 -3.061545 2.4818728 -5.5434175 5.543418 -5.5434175l44.5982 0c1.4702072 0 2.8801956 0.5840368 3.9197884 1.6236291c1.0395927 1.0395927 1.6236305 2.449583 1.6236305 3.9197884l0 22.173004c0 3.0615463 -2.4818726 5.543419 -5.543419 5.543419l-44.5982 0c-3.0615451 0 -5.543418 -2.4818726 -5.543418 -5.543419z" fill-rule="evenodd"/><path stroke="#005a8e" stroke-width="1.0" stroke-linejoin="round" stroke-linecap="butt" d="m0 10.798011l0 0c0 -3.061545 2.4818728 -5.5434175 5.543418 -5.5434175l44.5982 0c1.4702072 0 2.8801956 0.5840368 3.9197884 1.6236291c1.0395927 1.0395927 1.6236305 2.449583 1.6236305 3.9197884l0 22.173004c0 3.0615463 -2.4818726 5.543419 -5.543419 5.543419l-44.5982 0c-3.0615451 0 -5.543418 -2.4818726 -5.543418 -5.543419z" fill-rule="evenodd"/><path fill="#005a8e" d="m64.0 10.798011l0 0c0 -3.061545 2.4818726 -5.5434175 5.543419 -5.5434175l44.598206 0c1.4701996 0 2.8801956 0.5840368 3.9197845 1.6236291c1.0395966 1.0395927 1.6236267 2.449583 1.6236267 3.9197884l0 22.173004c0 3.0615463 -2.4818726 5.543419 -5.5434113 5.543419l-44.598206 0c-3.0615463 0 -5.543419 -2.4818726 -5.543419 -5.543419z" fill-rule="evenodd"/><path stroke="#005a8e" stroke-width="1.0" stroke-linejoin="round" stroke-linecap="butt" d="m64.0 10.798011l0 0c0 -3.061545 2.4818726 -5.5434175 5.543419 -5.5434175l44.598206 0c1.4701996 0 2.8801956 0.5840368 3.9197845 1.6236291c1.0395966 1.0395927 1.6236267 2.449583 1.6236267 3.9197884l0 22.173004c0 3.0615463 -2.4818726 5.543419 -5.5434113 5.543419l-44.598206 0c-3.0615463 0 -5.543419 -2.4818726 -5.543419 -5.543419z" fill-rule="evenodd"/><path fill="#005a8e" d="m128.0 10.798011l0 0c0 -3.061545 2.4818726 -5.5434175 5.5434113 -5.5434175l44.598206 0c1.4702148 0 2.8802032 0.5840368 3.9197998 1.6236291c1.0395813 1.0395927 1.6236267 2.449583 1.6236267 3.9197884l0 22.173004c0 3.0615463 -2.4818726 5.543419 -5.5434265 5.543419l-44.598206 0c-3.0615387 0 -5.5434113 -2.4818726 -5.5434113 -5.543419z" fill-rule="evenodd"/><path stroke="#005a8e" stroke-width="1.0" stroke-linejoin="round" stroke-linecap="butt" d="m128.0 10.798011l0 0c0 -3.061545 2.4818726 -5.5434175 5.5434113 -5.5434175l44.598206 0c1.4702148 0 2.8802032 0.5840368 3.9197998 1.6236291c1.0395813 1.0395927 1.6236267 2.449583 1.6236267 3.9197884l0 22.173004c0 3.0615463 -2.4818726 5.543419 -5.5434265 5.543419l-44.598206 0c-3.0615387 0 -5.5434113 -2.4818726 -5.5434113 -5.543419z" fill-rule="evenodd"/><path fill="#005a8e" d="m0 50.79801l0 0c0 -3.0615463 2.4818728 -5.543419 5.543418 -5.543419l44.5982 0c1.4702072 0 2.8801956 0.5840378 3.9197884 1.6236305c1.0395927 1.0395927 1.6236305 2.4495811 1.6236305 3.9197884l0 22.173004c0 3.0615463 -2.4818726 5.543419 -5.543419 5.543419l-44.5982 0c-3.0615451 0 -5.543418 -2.4818726 -5.543418 -5.543419z" fill-rule="evenodd"/><path stroke="#005a8e" stroke-width="1.0" stroke-linejoin="round" stroke-linecap="butt" d="m0 50.79801l0 0c0 -3.0615463 2.4818728 -5.543419 5.543418 -5.543419l44.5982 0c1.4702072 0 2.8801956 0.5840378 3.9197884 1.6236305c1.0395927 1.0395927 1.6236305 2.4495811 1.6236305 3.9197884l0 22.173004c0 3.0615463 -2.4818726 5.543419 -5.543419 5.543419l-44.5982 0c-3.0615451 0 -5.543418 -2.4818726 -5.543418 -5.543419z" fill-rule="evenodd"/><path fill="#005a8e" d="m64.0 50.79801l0 0c0 -3.0615463 2.4818726 -5.543419 5.543419 -5.543419l44.598206 0c1.4701996 0 2.8801956 0.5840378 3.9197845 1.6236305c1.0395966 1.0395927 1.6236267 2.4495811 1.6236267 3.9197884l0 22.173004c0 3.0615463 -2.4818726 5.543419 -5.5434113 5.543419l-44.598206 0c-3.0615463 0 -5.543419 -2.4818726 -5.543419 -5.543419z" fill-rule="evenodd"/><path stroke="#005a8e" stroke-width="1.0" stroke-linejoin="round" stroke-linecap="butt" d="m64.0 50.79801l0 0c0 -3.0615463 2.4818726 -5.543419 5.543419 -5.543419l44.598206 0c1.4701996 0 2.8801956 0.5840378 3.9197845 1.6236305c1.0395966 1.0395927 1.6236267 2.4495811 1.6236267 3.9197884l0 22.173004c0 3.0615463 -2.4818726 5.543419 -5.5434113 5.543419l-44.598206 0c-3.0615463 0 -5.543419 -2.4818726 -5.543419 -5.543419z" fill-rule="evenodd"/><path fill="#005a8e" d="m128.0 50.79801l0 0c0 -3.0615463 2.4818726 -5.543419 5.5434113 -5.543419l44.598206 0c1.4702148 0 2.8802032 0.5840378 3.9197998 1.6236305c1.0395813 1.0395927 1.6236267 2.4495811 1.6236267 3.9197884l0 22.173004c0 3.0615463 -2.4818726 5.543419 -5.5434265 5.543419l-44.598206 0c-3.0615387 0 -5.5434113 -2.4818726 -5.5434113 -5.543419z" fill-rule="evenodd"/><path stroke="#005a8e" stroke-width="1.0" stroke-linejoin="round" stroke-linecap="butt" d="m128.0 50.79801l0 0c0 -3.0615463 2.4818726 -5.543419 5.5434113 -5.543419l44.598206 0c1.4702148 0 2.8802032 0.5840378 3.9197998 1.6236305c1.0395813 1.0395927 1.6236267 2.4495811 1.6236267 3.9197884l0 22.173004c0 3.0615463 -2.4818726 5.543419 -5.5434265 5.543419l-44.598206 0c-3.0615387 0 -5.5434113 -2.4818726 -5.5434113 -5.543419z" fill-rule="evenodd"/><path fill="#000000" fill-opacity="0.0" d="m207.03412 38.514435l61.102356 0" fill-rule="evenodd"/><path stroke="#ff9750" stroke-width="4.0" stroke-linejoin="round" stroke-linecap="butt" stroke-dasharray="4.0,12.0" d="m207.03412 38.514435l37.10237 0" fill-rule="evenodd"/><path fill="#ff9750" stroke="#ff9750" stroke-width="4.0" stroke-linecap="butt" d="m244.13649 45.121365l18.15239 -6.60693l-18.15239 -6.60693z" fill-rule="evenodd"/><path fill="#005a8e" d="m288.0 17.595888l0 0c0 -2.3976316 1.9436646 -4.3412952 4.3413086 -4.3412952l39.28589 0c1.1513977 0 2.2556152 0.45738506 3.0697632 1.2715359c0.81414795 0.8141508 1.2715454 1.918375 1.2715454 3.0697594l0 17.364656c0 2.3976288 -1.9436646 4.3412933 -4.3413086 4.3412933l-39.28589 0c-2.397644 0 -4.3413086 -1.9436646 -4.3413086 -4.3412933z" fill-rule="evenodd"/><path stroke="#005a8e" stroke-width="1.0" stroke-linejoin="round" stroke-linecap="butt" d="m288.0 17.595888l0 0c0 -2.3976316 1.9436646 -4.3412952 4.3413086 -4.3412952l39.28589 0c1.1513977 0 2.2556152 0.45738506 3.0697632 1.2715359c0.81414795 0.8141508 1.2715454 1.918375 1.2715454 3.0697594l0 17.364656c0 2.3976288 -1.9436646 4.3412933 -4.3413086 4.3412933l-39.28589 0c-2.397644 0 -4.3413086 -1.9436646 -4.3413086 -4.3412933z" fill-rule="evenodd"/><path fill="#005a8e" d="m344.0 17.595888l0 0c0 -2.3976316 1.9436646 -4.3412952 4.3413086 -4.3412952l39.28589 0c1.1513977 0 2.2556152 0.45738506 3.0697632 1.2715359c0.81414795 0.8141508 1.2715454 1.918375 1.2715454 3.0697594l0 17.364656c0 2.3976288 -1.9436646 4.3412933 -4.3413086 4.3412933l-39.28589 0c-2.397644 0 -4.3413086 -1.9436646 -4.3413086 -4.3412933z" fill-rule="evenodd"/><path stroke="#005a8e" stroke-width="1.0" stroke-linejoin="round" stroke-linecap="butt" d="m344.0 17.595888l0 0c0 -2.3976316 1.9436646 -4.3412952 4.3413086 -4.3412952l39.28589 0c1.1513977 0 2.2556152 0.45738506 3.0697632 1.2715359c0.81414795 0.8141508 1.2715454 1.918375 1.2715454 3.0697594l0 17.364656c0 2.3976288 -1.9436646 4.3412933 -4.3413086 4.3412933l-39.28589 0c-2.397644 0 -4.3413086 -1.9436646 -4.3413086 -4.3412933z" fill-rule="evenodd"/><path fill="#005a8e" d="m400.0 17.595888l0 0c0 -2.3976316 1.9436646 -4.3412952 4.3413086 -4.3412952l39.28589 0c1.1513977 0 2.2556152 0.45738506 3.0697632 1.2715359c0.81414795 0.8141508 1.2715454 1.918375 1.2715454 3.0697594l0 17.364656c0 2.3976288 -1.9436646 4.3412933 -4.3413086 4.3412933l-39.28589 0c-2.397644 0 -4.3413086 -1.9436646 -4.3413086 -4.3412933z" fill-rule="evenodd"/><path stroke="#005a8e" stroke-width="1.0" stroke-linejoin="round" stroke-linecap="butt" d="m400.0 17.595888l0 0c0 -2.3976316 1.9436646 -4.3412952 4.3413086 -4.3412952l39.28589 0c1.1513977 0 2.2556152 0.45738506 3.0697632 1.2715359c0.81414795 0.8141508 1.2715454 1.918375 1.2715454 3.0697594l0 17.364656c0 2.3976288 -1.9436646 4.3412933 -4.3413086 4.3412933l-39.28589 0c-2.397644 0 -4.3413086 -1.9436646 -4.3413086 -4.3412933z" fill-rule="evenodd"/><path fill="#005a8e" d="m288.0 49.595886l0 0c0 -2.3976288 1.9436646 -4.3412933 4.3413086 -4.3412933l39.28589 0c1.1513977 0 2.2556152 0.45738602 3.0697632 1.2715378c0.81414795 0.81414795 1.2715454 1.9183731 1.2715454 3.0697556l0 17.364655c0 2.3976364 -1.9436646 4.3412933 -4.3413086 4.3412933l-39.28589 0c-2.397644 0 -4.3413086 -1.9436569 -4.3413086 -4.3412933z" fill-rule="evenodd"/><path stroke="#005a8e" stroke-width="1.0" stroke-linejoin="round" stroke-linecap="butt" d="m288.0 49.595886l0 0c0 -2.3976288 1.9436646 -4.3412933 4.3413086 -4.3412933l39.28589 0c1.1513977 0 2.2556152 0.45738602 3.0697632 1.2715378c0.81414795 0.81414795 1.2715454 1.9183731 1.2715454 3.0697556l0 17.364655c0 2.3976364 -1.9436646 4.3412933 -4.3413086 4.3412933l-39.28589 0c-2.397644 0 -4.3413086 -1.9436569 -4.3413086 -4.3412933z" fill-rule="evenodd"/><path fill="#005a8e" d="m344.0 49.595886l0 0c0 -2.3976288 1.9436646 -4.3412933 4.3413086 -4.3412933l39.28589 0c1.1513977 0 2.2556152 0.45738602 3.0697632 1.2715378c0.81414795 0.81414795 1.2715454 1.9183731 1.2715454 3.0697556l0 17.364655c0 2.3976364 -1.9436646 4.3412933 -4.3413086 4.3412933l-39.28589 0c-2.397644 0 -4.3413086 -1.9436569 -4.3413086 -4.3412933z" fill-rule="evenodd"/><path stroke="#005a8e" stroke-width="1.0" stroke-linejoin="round" stroke-linecap="butt" d="m344.0 49.595886l0 0c0 -2.3976288 1.9436646 -4.3412933 4.3413086 -4.3412933l39.28589 0c1.1513977 0 2.2556152 0.45738602 3.0697632 1.2715378c0.81414795 0.81414795 1.2715454 1.9183731 1.2715454 3.0697556l0 17.364655c0 2.3976364 -1.9436646 4.3412933 -4.3413086 4.3412933l-39.28589 0c-2.397644 0 -4.3413086 -1.9436569 -4.3413086 -4.3412933z" fill-rule="evenodd"/><path fill="#005a8e" d="m400.0 49.595886l0 0c0 -2.3976288 1.9436646 -4.3412933 4.3413086 -4.3412933l39.28589 0c1.1513977 0 2.2556152 0.45738602 3.0697632 1.2715378c0.81414795 0.81414795 1.2715454 1.9183731 1.2715454 3.0697556l0 17.364655c0 2.3976364 -1.9436646 4.3412933 -4.3413086 4.3412933l-39.28589 0c-2.397644 0 -4.3413086 -1.9436569 -4.3413086 -4.3412933z" fill-rule="evenodd"/><path stroke="#005a8e" stroke-width="1.0" stroke-linejoin="round" stroke-linecap="butt" d="m400.0 49.595886l0 0c0 -2.3976288 1.9436646 -4.3412933 4.3413086 -4.3412933l39.28589 0c1.1513977 0 2.2556152 0.45738602 3.0697632 1.2715378c0.81414795 0.81414795 1.2715454 1.9183731 1.2715454 3.0697556l0 17.364655c0 2.3976364 -1.9436646 4.3412933 -4.3413086 4.3412933l-39.28589 0c-2.397644 0 -4.3413086 -1.9436569 -4.3413086 -4.3412933z" fill-rule="evenodd"/></g></svg>