<svg version="1.1" viewBox="0.0 0.0 328.12860892388454 168.86351706036746" fill="none" stroke="none" stroke-linecap="square" stroke-miterlimit="10" xmlns:xlink="http://www.w3.org/1999/xlink" xmlns="http://www.w3.org/2000/svg"><clipPath id="p.0"><path d="m0 0l328.1286 0l0 168.86351l-328.1286 0l0 -168.86351z" clip-rule="nonzero"/></clipPath><g clip-path="url(#p.0)"><path fill="#000000" fill-opacity="0.0" d="m0 0l328.1286 0l0 168.86351l-328.1286 0z" fill-rule="evenodd"/><path fill="#005a8e" d="m0 10.517171l0 0c0 -3.061545 2.4818728 -5.5434175 5.543418 -5.5434175l44.5982 0c1.4702072 0 2.8801956 0.5840368 3.9197884 1.6236296c1.0395927 1.0395923 1.6236305 2.4495826 1.6236305 3.919788l0 22.173008c0 3.0615463 -2.4818726 5.543419 -5.543419 5.543419l-44.5982 0c-3.0615451 0 -5.543418 -2.4818726 -5.543418 -5.543419z" fill-rule="evenodd"/><path stroke="#005a8e" stroke-width="1.0" stroke-linejoin="round" stroke-linecap="butt" d="m0 10.517171l0 0c0 -3.061545 2.4818728 -5.5434175 5.543418 -5.5434175l44.5982 0c1.4702072 0 2.8801956 0.5840368 3.9197884 1.6236296c1.0395927 1.0395923 1.6236305 2.4495826 1.6236305 3.919788l0 22.173008c0 3.0615463 -2.4818726 5.543419 -5.543419 5.543419l-44.5982 0c-3.0615451 0 -5.543418 -2.4818726 -5.543418 -5.543419z" fill-rule="evenodd"/><path fill="#005a8e" d="m64.0 10.517171l0 0c0 -3.061545 2.4818726 -5.5434175 5.543419 -5.5434175l44.598206 0c1.4701996 0 2.8801956 0.5840368 3.9197845 1.6236296c1.0395966 1.0395923 1.6236267 2.4495826 1.6236267 3.919788l0 22.173008c0 3.0615463 -2.4818726 5.543419 -5.5434113 5.543419l-44.598206 0c-3.0615463 0 -5.543419 -2.4818726 -5.543419 -5.543419z" fill-rule="evenodd"/><path stroke="#005a8e" stroke-width="1.0" stroke-linejoin="round" stroke-linecap="butt" d="m64.0 10.517171l0 0c0 -3.061545 2.4818726 -5.5434175 5.543419 -5.5434175l44.598206 0c1.4701996 0 2.8801956 0.5840368 3.9197845 1.6236296c1.0395966 1.0395923 1.6236267 2.4495826 1.6236267 3.919788l0 22.173008c0 3.0615463 -2.4818726 5.543419 -5.5434113 5.543419l-44.598206 0c-3.0615463 0 -5.543419 -2.4818726 -5.543419 -5.543419z" fill-rule="evenodd"/><path fill="#005a8e" d="m128.0 10.517171l0 0c0 -3.061545 2.4818726 -5.5434175 5.5434113 -5.5434175l44.598206 0c1.4702148 0 2.8802032 0.5840368 3.9197998 1.6236296c1.0395813 1.0395923 1.6236267 2.4495826 1.6236267 3.919788l0 22.173008c0 3.0615463 -2.4818726 5.543419 -5.5434265 5.543419l-44.598206 0c-3.0615387 0 -5.5434113 -2.4818726 -5.5434113 -5.543419z" fill-rule="evenodd"/><path stroke="#005a8e" stroke-width="1.0" stroke-linejoin="round" stroke-linecap="butt" d="m128.0 10.517171l0 0c0 -3.061545 2.4818726 -5.5434175 5.5434113 -5.5434175l44.598206 0c1.4702148 0 2.8802032 0.5840368 3.9197998 1.6236296c1.0395813 1.0395923 1.6236267 2.4495826 1.6236267 3.919788l0 22.173008c0 3.0615463 -2.4818726 5.543419 -5.5434265 5.543419l-44.598206 0c-3.0615387 0 -5.5434113 -2.4818726 -5.5434113 -5.543419z" fill-rule="evenodd"/><path fill="#005a8e" d="m0 50.51717l0 0c0 -3.0615425 2.4818728 -5.543415 5.543418 -5.543415l44.5982 0c1.4702072 0 2.8801956 0.58403397 3.9197884 1.6236267c1.0395927 1.0395927 1.6236305 2.449585 1.6236305 3.9197884l0 22.173008c0 3.0615463 -2.4818726 5.543419 -5.543419 5.543419l-44.5982 0c-3.0615451 0 -5.543418 -2.4818726 -5.543418 -5.543419z" fill-rule="evenodd"/><path stroke="#005a8e" stroke-width="1.0" stroke-linejoin="round" stroke-linecap="butt" d="m0 50.51717l0 0c0 -3.0615425 2.4818728 -5.543415 5.543418 -5.543415l44.5982 0c1.4702072 0 2.8801956 0.58403397 3.9197884 1.6236267c1.0395927 1.0395927 1.6236305 2.449585 1.6236305 3.9197884l0 22.173008c0 3.0615463 -2.4818726 5.543419 -5.543419 5.543419l-44.5982 0c-3.0615451 0 -5.543418 -2.4818726 -5.543418 -5.543419z" fill-rule="evenodd"/><path fill="#005a8e" d="m64.0 50.51717l0 0c0 -3.0615425 2.4818726 -5.543415 5.543419 -5.543415l44.598206 0c1.4701996 0 2.8801956 0.58403397 3.9197845 1.6236267c1.0395966 1.0395927 1.6236267 2.449585 1.6236267 3.9197884l0 22.173008c0 3.0615463 -2.4818726 5.543419 -5.5434113 5.543419l-44.598206 0c-3.0615463 0 -5.543419 -2.4818726 -5.543419 -5.543419z" fill-rule="evenodd"/><path stroke="#005a8e" stroke-width="1.0" stroke-linejoin="round" stroke-linecap="butt" d="m64.0 50.51717l0 0c0 -3.0615425 2.4818726 -5.543415 5.543419 -5.543415l44.598206 0c1.4701996 0 2.8801956 0.58403397 3.9197845 1.6236267c1.0395966 1.0395927 1.6236267 2.449585 1.6236267 3.9197884l0 22.173008c0 3.0615463 -2.4818726 5.543419 -5.5434113 5.543419l-44.598206 0c-3.0615463 0 -5.543419 -2.4818726 -5.543419 -5.543419z" fill-rule="evenodd"/><path fill="#005a8e" d="m128.0 50.51717l0 0c0 -3.0615425 2.4818726 -5.543415 5.5434113 -5.543415l44.598206 0c1.4702148 0 2.8802032 0.58403397 3.9197998 1.6236267c1.0395813 1.0395927 1.6236267 2.449585 1.6236267 3.9197884l0 22.173008c0 3.0615463 -2.4818726 5.543419 -5.5434265 5.543419l-44.598206 0c-3.0615387 0 -5.5434113 -2.4818726 -5.5434113 -5.543419z" fill-rule="evenodd"/><path stroke="#005a8e" stroke-width="1.0" stroke-linejoin="round" stroke-linecap="butt" d="m128.0 50.51717l0 0c0 -3.0615425 2.4818726 -5.543415 5.5434113 -5.543415l44.598206 0c1.4702148 0 2.8802032 0.58403397 3.9197998 1.6236267c1.0395813 1.0395927 1.6236267 2.449585 1.6236267 3.9197884l0 22.173008c0 3.0615463 -2.4818726 5.543419 -5.5434265 5.543419l-44.598206 0c-3.0615387 0 -5.5434113 -2.4818726 -5.5434113 -5.543419z" fill-rule="evenodd"/><path fill="#005a8e" d="m0 130.51717l0 0c0 -3.0615387 2.4818728 -5.5434113 5.543418 -5.5434113l44.5982 0c1.4702072 0 2.8801956 0.5840378 3.9197884 1.6236267c1.0395927 1.0395966 1.6236305 2.449585 1.6236305 3.9197845l0 22.173004c0 3.061554 -2.4818726 5.5434265 -5.543419 5.5434265l-44.5982 0c-3.0615451 0 -5.543418 -2.4818726 -5.543418 -5.5434265z" fill-rule="evenodd"/><path stroke="#005a8e" stroke-width="1.0" stroke-linejoin="round" stroke-linecap="butt" d="m0 130.51717l0 0c0 -3.0615387 2.4818728 -5.5434113 5.543418 -5.5434113l44.5982 0c1.4702072 0 2.8801956 0.5840378 3.9197884 1.6236267c1.0395927 1.0395966 1.6236305 2.449585 1.6236305 3.9197845l0 22.173004c0 3.061554 -2.4818726 5.5434265 -5.543419 5.5434265l-44.5982 0c-3.0615451 0 -5.543418 -2.4818726 -5.543418 -5.5434265z" fill-rule="evenodd"/><path fill="#005a8e" d="m64.0 130.51717l0 0c0 -3.0615387 2.4818726 -5.5434113 5.543419 -5.5434113l44.598206 0c1.4701996 0 2.8801956 0.5840378 3.9197845 1.6236267c1.0395966 1.0395966 1.6236267 2.449585 1.6236267 3.9197845l0 22.173004c0 3.061554 -2.4818726 5.5434265 -5.5434113 5.5434265l-44.598206 0c-3.0615463 0 -5.543419 -2.4818726 -5.543419 -5.5434265z" fill-rule="evenodd"/><path stroke="#005a8e" stroke-width="1.0" stroke-linejoin="round" stroke-linecap="butt" d="m64.0 130.51717l0 0c0 -3.0615387 2.4818726 -5.5434113 5.543419 -5.5434113l44.598206 0c1.4701996 0 2.8801956 0.5840378 3.9197845 1.6236267c1.0395966 1.0395966 1.6236267 2.449585 1.6236267 3.9197845l0 22.173004c0 3.061554 -2.4818726 5.5434265 -5.5434113 5.5434265l-44.598206 0c-3.0615463 0 -5.543419 -2.4818726 -5.543419 -5.5434265z" fill-rule="evenodd"/><path fill="#005a8e" d="m128.0 130.51717l0 0c0 -3.0615387 2.4818726 -5.5434113 5.5434113 -5.5434113l44.598206 0c1.4702148 0 2.8802032 0.5840378 3.9197998 1.6236267c1.0395813 1.0395966 1.6236267 2.449585 1.6236267 3.9197845l0 22.173004c0 3.061554 -2.4818726 5.5434265 -5.5434265 5.5434265l-44.598206 0c-3.0615387 0 -5.5434113 -2.4818726 -5.5434113 -5.5434265z" fill-rule="evenodd"/><path stroke="#005a8e" stroke-width="1.0" stroke-linejoin="round" stroke-linecap="butt" d="m128.0 130.51717l0 0c0 -3.0615387 2.4818726 -5.5434113 5.5434113 -5.5434113l44.598206 0c1.4702148 0 2.8802032 0.5840378 3.9197998 1.6236267c1.0395813 1.0395966 1.6236267 2.449585 1.6236267 3.9197845l0 22.173004c0 3.061554 -2.4818726 5.5434265 -5.5434265 5.5434265l-44.598206 0c-3.0615387 0 -5.5434113 -2.4818726 -5.5434113 -5.5434265z" fill-rule="evenodd"/><path fill="#005a8e" d="m256.0 10.517171l0 0c0 -3.061545 2.4818726 -5.5434175 5.5434265 -5.5434175l44.598206 0c1.4701843 0 2.880188 0.5840368 3.9197693 1.6236296c1.0396118 1.0395923 1.6236267 2.4495826 1.6236267 3.919788l0 22.173008c0 3.0615463 -2.4818726 5.543419 -5.543396 5.543419l-44.598206 0c-3.061554 0 -5.5434265 -2.4818726 -5.5434265 -5.543419z" fill-rule="evenodd"/><path stroke="#005a8e" stroke-width="1.0" stroke-linejoin="round" stroke-linecap="butt" d="m256.0 10.517171l0 0c0 -3.061545 2.4818726 -5.5434175 5.5434265 -5.5434175l44.598206 0c1.4701843 0 2.880188 0.5840368 3.9197693 1.6236296c1.0396118 1.0395923 1.6236267 2.4495826 1.6236267 3.919788l0 22.173008c0 3.0615463 -2.4818726 5.543419 -5.543396 5.543419l-44.598206 0c-3.061554 0 -5.5434265 -2.4818726 -5.5434265 -5.543419z" fill-rule="evenodd"/><path fill="#005a8e" d="m256.0 50.51717l0 0c0 -3.0615425 2.4818726 -5.543415 5.5434265 -5.543415l44.598206 0c1.4701843 0 2.880188 0.58403397 3.9197693 1.6236267c1.0396118 1.0395927 1.6236267 2.449585 1.6236267 3.9197884l0 22.173008c0 3.0615463 -2.4818726 5.543419 -5.543396 5.543419l-44.598206 0c-3.061554 0 -5.5434265 -2.4818726 -5.5434265 -5.543419z" fill-rule="evenodd"/><path stroke="#005a8e" stroke-width="1.0" stroke-linejoin="round" stroke-linecap="butt" d="m256.0 50.51717l0 0c0 -3.0615425 2.4818726 -5.543415 5.5434265 -5.543415l44.598206 0c1.4701843 0 2.880188 0.58403397 3.9197693 1.6236267c1.0396118 1.0395927 1.6236267 2.449585 1.6236267 3.9197884l0 22.173008c0 3.0615463 -2.4818726 5.543419 -5.543396 5.543419l-44.598206 0c-3.061554 0 -5.5434265 -2.4818726 -5.5434265 -5.543419z" fill-rule="evenodd"/><path fill="#005a8e" d="m256.0 130.51717l0 0c0 -3.0615387 2.4818726 -5.5434113 5.5434265 -5.5434113l44.598206 0c1.4701843 0 2.880188 0.5840378 3.9197693 1.6236267c1.0396118 1.0395966 1.6236267 2.449585 1.6236267 3.9197845l0 22.173004c0 3.061554 -2.4818726 5.5434265 -5.543396 5.5434265l-44.598206 0c-3.061554 0 -5.5434265 -2.4818726 -5.5434265 -5.5434265z" fill-rule="evenodd"/><path stroke="#005a8e" stroke-width="1.0" stroke-linejoin="round" stroke-linecap="butt" d="m256.0 130.51717l0 0c0 -3.0615387 2.4818726 -5.5434113 5.5434265 -5.5434113l44.598206 0c1.4701843 0 2.880188 0.5840378 3.9197693 1.6236267c1.0396118 1.0395966 1.6236267 2.449585 1.6236267 3.9197845l0 22.173004c0 3.061554 -2.4818726 5.5434265 -5.543396 5.5434265l-44.598206 0c-3.061554 0 -5.5434265 -2.4818726 -5.5434265 -5.5434265z" fill-rule="evenodd"/><path fill="#005a8e" d="m192.0 130.51717l0 0c0 -3.0615387 2.4818726 -5.5434113 5.5434113 -5.5434113l44.598206 0c1.4702148 0 2.8802032 0.5840378 3.9197998 1.6236267c1.0395813 1.0395966 1.6236267 2.449585 1.6236267 3.9197845l0 22.173004c0 3.061554 -2.4818726 5.5434265 -5.5434265 5.5434265l-44.598206 0c-3.0615387 0 -5.5434113 -2.4818726 -5.5434113 -5.5434265z" fill-rule="evenodd"/><path stroke="#005a8e" stroke-width="1.0" stroke-linejoin="round" stroke-linecap="butt" d="m192.0 130.51717l0 0c0 -3.0615387 2.4818726 -5.5434113 5.5434113 -5.5434113l44.598206 0c1.4702148 0 2.8802032 0.5840378 3.9197998 1.6236267c1.0395813 1.0395966 1.6236267 2.449585 1.6236267 3.9197845l0 22.173004c0 3.061554 -2.4818726 5.5434265 -5.5434265 5.5434265l-44.598206 0c-3.0615387 0 -5.5434113 -2.4818726 -5.5434113 -5.5434265z" fill-rule="evenodd"/><path fill="#005a8e" d="m256.0 90.51717l0 0c0 -3.0615463 2.4818726 -5.543419 5.5434265 -5.543419l44.598206 0c1.4701843 0 2.880188 0.5840378 3.9197693 1.6236267c1.0396118 1.0395966 1.6236267 2.449585 1.6236267 3.9197922l0 22.173004c0 3.0615463 -2.4818726 5.543419 -5.543396 5.543419l-44.598206 0c-3.061554 0 -5.5434265 -2.4818726 -5.5434265 -5.543419z" fill-rule="evenodd"/><path stroke="#005a8e" stroke-width="1.0" stroke-linejoin="round" stroke-linecap="butt" d="m256.0 90.51717l0 0c0 -3.0615463 2.4818726 -5.543419 5.5434265 -5.543419l44.598206 0c1.4701843 0 2.880188 0.5840378 3.9197693 1.6236267c1.0396118 1.0395966 1.6236267 2.449585 1.6236267 3.9197922l0 22.173004c0 3.0615463 -2.4818726 5.543419 -5.543396 5.543419l-44.598206 0c-3.061554 0 -5.5434265 -2.4818726 -5.5434265 -5.543419z" fill-rule="evenodd"/><path fill="#000000" fill-opacity="0.0" d="m188.75066 82.06562l54.14174 31.149605" fill-rule="evenodd"/><path stroke="#ff9750" stroke-width="4.0" stroke-linejoin="round" stroke-linecap="butt" stroke-dasharray="4.0,12.0" d="m188.75066 82.06562l33.33899 19.181068" fill-rule="evenodd"/><path fill="#ff9750" stroke="#ff9750" stroke-width="4.0" stroke-linecap="butt" d="m218.79485 106.97345l19.028946 3.3256378l-12.439346 -14.77916z" fill-rule="evenodd"/></g></svg>