<svg version="1.1" viewBox="0.0 0.0 439.6640419947507 272.48818897637796" fill="none" stroke="none" stroke-linecap="square" stroke-miterlimit="10" xmlns:xlink="http://www.w3.org/1999/xlink" xmlns="http://www.w3.org/2000/svg"><clipPath id="p.0"><path d="m0 0l439.66403 0l0 272.4882l-439.66403 0l0 -272.4882z" clip-rule="nonzero"/></clipPath><g clip-path="url(#p.0)"><path fill="#000000" fill-opacity="0.0" d="m0 0l439.66403 0l0 272.4882l-439.66403 0z" fill-rule="evenodd"/><path fill="#000000" fill-opacity="0.0" d="m187.01762 55.801273l-71.11811 45.03937" fill-rule="evenodd"/><path stroke="#ff9750" stroke-width="2.0" stroke-linejoin="round" stroke-linecap="butt" d="m187.01762 55.801273l-71.11811 45.03937" fill-rule="evenodd"/><path fill="#c1d3de" d="m180.30183 39.587925l0 0c0 -12.66341 10.265732 -22.929132 22.929138 -22.929132l0 0c6.0811768 0 11.9133 2.415741 16.213348 6.715788c4.300049 4.300047 6.71579 10.13216 6.71579 16.213345l0 0c0 12.663414 -10.265732 22.929134 -22.929138 22.929134l0 0c-12.663406 0 -22.929138 -10.26572 -22.929138 -22.929134z" fill-rule="evenodd"/><path stroke="#c1d3de" stroke-width="1.0" stroke-linejoin="round" stroke-linecap="butt" d="m180.30183 39.587925l0 0c0 -12.66341 10.265732 -22.929132 22.929138 -22.929132l0 0c6.0811768 0 11.9133 2.415741 16.213348 6.715788c4.300049 4.300047 6.71579 10.13216 6.71579 16.213345l0 0c0 12.663414 -10.265732 22.929134 -22.929138 22.929134l0 0c-12.663406 0 -22.929138 -10.26572 -22.929138 -22.929134z" fill-rule="evenodd"/><path fill="#000000" fill-opacity="0.0" d="m175.7664 18.664042l60.12599 0l0 31.93701l-60.12599 0z" fill-rule="evenodd"/><path fill="#082947" d="m188.8289 40.287167l-0.234375 0.703125l4.453125 0l-0.234375 -0.71875l-1.96875 -6.046875q-0.21875 0.796875 -2.015625 6.0625zm-1.78125 5.296875l-1.625 0l4.375 -12.578125l2.09375 0l4.3125 12.578125l-1.625 0l-1.09375 -3.296875l-5.328125 0l-1.109375 3.296875zm12.761124 0l-1.515625 0l0 -12.578125l1.90625 0l3.15625 5.296875l3.1875 5.453125q-0.078125 -1.8125 -0.078125 -5.421875l0 -5.328125l1.515625 0l0 12.578125l-1.90625 0l-3.15625 -5.265625q-0.953125 -1.578125 -1.765625 -2.953125q-0.796875 -1.375 -1.125 -1.96875l-0.3125 -0.578125q0.09375 1.9375 0.09375 5.46875l0 5.296875zm14.852539 0l-3.8125 0l0 -12.578125l3.734375 0q2.78125 0 4.5625 1.734375q1.78125 1.71875 1.78125 4.46875q0 2.71875 -1.65625 4.546875q-1.65625 1.828125 -4.609375 1.828125zm-0.09375 -11.234375l-2.1875 0l0 9.90625l2.25 0q2.34375 0 3.53125 -1.4375q1.1875 -1.453125 1.1875 -3.609375q0 -2.0625 -1.328125 -3.453125q-1.328125 -1.40625 -3.453125 -1.40625z" fill-rule="nonzero"/><path fill="#c1d3de" d="m76.75328 117.03937l0 0c0 -12.663406 10.265724 -22.92913 22.92913 -22.92913l0 0c6.0811844 0 11.9133 2.415741 16.213348 6.71579c4.300049 4.300041 6.71579 10.132156 6.71579 16.21334l0 0c0 12.663406 -10.265724 22.929138 -22.929138 22.929138l0 0c-12.663406 0 -22.92913 -10.265732 -22.92913 -22.929138z" fill-rule="evenodd"/><path stroke="#c1d3de" stroke-width="1.0" stroke-linejoin="round" stroke-linecap="butt" d="m76.75328 117.03937l0 0c0 -12.663406 10.265724 -22.92913 22.92913 -22.92913l0 0c6.0811844 0 11.9133 2.415741 16.213348 6.71579c4.300049 4.300041 6.71579 10.132156 6.71579 16.21334l0 0c0 12.663406 -10.265724 22.929138 -22.929138 22.929138l0 0c-12.663406 0 -22.92913 -10.265732 -22.92913 -22.929138z" fill-rule="evenodd"/><path fill="#000000" fill-opacity="0.0" d="m69.61942 96.65879l60.125984 0l0 31.937004l-60.125984 0z" fill-rule="evenodd"/><path fill="#082947" d="m82.68192 118.28191l-0.234375 0.703125l4.453125 0l-0.234375 -0.71875l-1.96875 -6.046875q-0.21875 0.796875 -2.015625 6.0625zm-1.78125 5.296875l-1.625 0l4.375 -12.578125l2.09375 0l4.3125 12.578125l-1.625 0l-1.09375 -3.296875l-5.328125 0l-1.109375 3.296875zm12.761124 0l-1.515625 0l0 -12.578125l1.90625 0l3.15625 5.296875l3.1875 5.453125q-0.078125 -1.8125 -0.078125 -5.421875l0 -5.328125l1.515625 0l0 12.578125l-1.90625 0l-3.15625 -5.265625q-0.953125 -1.578125 -1.765625 -2.953125q-0.796875 -1.375 -1.125 -1.96875l-0.3125 -0.578125q0.09375 1.9375 0.09375 5.46875l0 5.296875zm12.555664 0l-1.515625 0l0 -12.578125l1.90625 0l3.15625 5.296875l3.1875 5.453125q-0.078125 -1.8125 -0.078125 -5.421875l0 -5.328125l1.515625 0l0 12.578125l-1.90625 0l-3.15625 -5.265625q-0.953125 -1.578125 -1.765625 -2.953125q-0.796875 -1.375 -1.125 -1.96875l-0.3125 -0.578125q0.09375 1.9375 0.09375 5.46875l0 5.296875z" fill-rule="nonzero"/><path fill="#000000" fill-opacity="0.0" d="m36.89501 174.3307l125.57481 0l0 53.007874l-125.57481 0z" fill-rule="evenodd"/><path fill="#000000" d="m51.20751 203.14258l-3.984375 0l0 -15.421875l3.984375 0l0 1.21875l-2.625 0l0 12.953125l2.625 0l0 1.25zm8.746689 -8.875q0 2.65625 -1.046875 4.25q-1.03125 1.59375 -2.96875 1.59375q-1.78125 0 -2.859375 -1.59375q-1.0625 -1.59375 -1.0625 -4.25q0 -2.671875 1.078125 -4.21875q1.078125 -1.546875 2.84375 -1.546875q1.84375 0 2.921875 1.546875q1.09375 1.546875 1.09375 4.21875zm-5.796875 -3.296875q-0.734375 1.171875 -0.734375 3.3125q0 2.125 0.71875 3.328125q0.734375 1.203125 1.796875 1.203125q1.203125 0 1.90625 -1.171875q0.703125 -1.1875 0.703125 -3.375q0 -2.15625 -0.734375 -3.3125q-0.734375 -1.15625 -1.875 -1.15625q-1.03125 0 -1.78125 1.171875zm8.692078 7.390625q0.296875 0.296875 0.296875 0.734375q0 0.421875 -0.296875 0.71875q-0.28125 0.296875 -0.71875 0.296875q-0.4375 0 -0.734375 -0.296875q-0.28125 -0.296875 -0.28125 -0.71875q0 -0.4375 0.28125 -0.734375q0.296875 -0.296875 0.734375 -0.296875q0.4375 0 0.71875 0.296875zm5.0014496 1.609375l-1.359375 0l0 -9.84375l-2.609375 1.609375l0 -1.46875l2.6875 -1.625l1.28125 0l0 11.328125zm2.3782043 2.125l-1.203125 0l1.609375 -3.875l1.828125 0l-2.234375 3.875zm15.751846 -7.828125q0 2.65625 -1.046875 4.25q-1.03125 1.59375 -2.96875 1.59375q-1.78125 0 -2.859375 -1.59375q-1.0625 -1.59375 -1.0625 -4.25q0 -2.671875 1.078125 -4.21875q1.078125 -1.546875 2.84375 -1.546875q1.84375 0 2.921875 1.546875q1.09375 1.546875 1.09375 4.21875zm-5.796875 -3.296875q-0.734375 1.171875 -0.734375 3.3125q0 2.125 0.71875 3.328125q0.734375 1.203125 1.796875 1.203125q1.203125 0 1.90625 -1.171875q0.703125 -1.1875 0.703125 -3.375q0 -2.15625 -0.734375 -3.3125q-0.734375 -1.15625 -1.875 -1.15625q-1.03125 0 -1.78125 1.171875zm8.692078 7.390625q0.296875 0.296875 0.296875 0.734375q0 0.421875 -0.296875 0.71875q-0.28125 0.296875 -0.71875 0.296875q-0.4375 0 -0.734375 -0.296875q-0.28125 -0.296875 -0.28125 -0.71875q0 -0.4375 0.28125 -0.734375q0.296875 -0.296875 0.734375 -0.296875q0.4375 0 0.71875 0.296875zm2.8295746 -2.34375l3.796875 0l0 -6.5625l-3.796875 6.5625zm5.15625 3.953125l-1.359375 0l0 -2.75l-5.171875 0l0 -1.203125l4.3125 -7.375l2.21875 0l0 7.375l1.671875 0l0 1.203125l-1.671875 0l0 2.75zm3.154007 2.125l-1.203125 0l1.609375 -3.875l1.828125 0l-2.234375 3.875zm15.751846 -7.828125q0 2.65625 -1.046875 4.25q-1.03125 1.59375 -2.96875 1.59375q-1.78125 0 -2.859375 -1.59375q-1.0625 -1.59375 -1.0625 -4.25q0 -2.671875 1.078125 -4.21875q1.078125 -1.546875 2.84375 -1.546875q1.84375 0 2.921875 1.546875q1.09375 1.546875 1.09375 4.21875zm-5.796875 -3.296875q-0.734375 1.171875 -0.734375 3.3125q0 2.125 0.71875 3.328125q0.734375 1.203125 1.796875 1.203125q1.203125 0 1.90625 -1.171875q0.703125 -1.1875 0.703125 -3.375q0 -2.15625 -0.734375 -3.3125q-0.734375 -1.15625 -1.875 -1.15625q-1.03125 0 -1.78125 1.171875zm8.692078 7.390625q0.296875 0.296875 0.296875 0.734375q0 0.421875 -0.296875 0.71875q-0.28125 0.296875 -0.71875 0.296875q-0.4375 0 -0.734375 -0.296875q-0.28125 -0.296875 -0.28125 -0.71875q0 -0.4375 0.28125 -0.734375q0.296875 -0.296875 0.734375 -0.296875q0.4375 0 0.71875 0.296875zm5.0795746 -3.65625q1.421875 0 2.296875 -1.109375l0 -0.09375q0 -1.640625 -0.578125 -2.6875q-0.578125 -1.046875 -1.875 -1.046875q-0.984375 0 -1.578125 0.65625q-0.578125 0.65625 -0.578125 1.796875q0 1.203125 0.625 1.84375q0.625 0.640625 1.6875 0.640625zm3.640625 -1.203125q0 3.09375 -1.234375 4.859375q-1.234375 1.75 -3.703125 1.75q-1.0 0 -1.953125 -0.328125l0 -1.359375q0.90625 0.40625 1.90625 0.40625q3.140625 0 3.5625 -3.9375q-0.859375 1.015625 -2.5625 1.015625q-1.375 0 -2.390625 -1.0q-1.0 -1.015625 -1.0 -2.6875q0 -1.609375 0.953125 -2.65625q0.953125 -1.0625 2.59375 -1.0625q1.90625 0 2.859375 1.421875q0.96875 1.421875 0.96875 3.578125zm1.7958298 8.59375l-1.2031326 0l1.6093826 -3.875l1.828125 0l-2.234375 3.875zm9.220596 -3.734375q0.296875 0.296875 0.296875 0.734375q0 0.421875 -0.296875 0.71875q-0.28125 0.296875 -0.71875 0.296875q-0.4375 0 -0.734375 -0.296875q-0.28125 -0.296875 -0.28125 -0.71875q0 -0.4375 0.28125 -0.734375q0.296875 -0.296875 0.734375 -0.296875q0.4375 0 0.71875 0.296875zm2.8764496 0q0.296875 0.296875 0.296875 0.734375q0 0.421875 -0.296875 0.71875q-0.28125 0.296875 -0.71875 0.296875q-0.4375 0 -0.734375 -0.296875q-0.28125 -0.296875 -0.28125 -0.71875q0 -0.4375 0.28125 -0.734375q0.296875 -0.296875 0.734375 -0.296875q0.4375 0 0.71875 0.296875zm2.8764496 0q0.296875 0.296875 0.296875 0.734375q0 0.421875 -0.296875 0.71875q-0.28125 0.296875 -0.71875 0.296875q-0.4375 0 -0.734375 -0.296875q-0.28125 -0.296875 -0.28125 -0.71875q0 -0.4375 0.28125 -0.734375q0.296875 -0.296875 0.734375 -0.296875q0.4375 0 0.71875 0.296875zm4.7514496 4.78125l-3.984375 0l0 -1.25l2.640625 0l0 -12.953125l-2.640625 0l0 -1.21875l3.984375 0l0 15.421875z" fill-rule="nonzero"/><path fill="#c1d3de" d="m223.60367 189.03937l0 0c0 -12.663406 10.265732 -22.929138 22.929138 -22.929138l0 0c6.081192 0 11.9133 2.415741 16.213348 6.71579c4.300049 4.300049 6.71579 10.132172 6.71579 16.213348l0 0c0 12.663406 -10.265717 22.929138 -22.929138 22.929138l0 0c-12.663406 0 -22.929138 -10.265732 -22.929138 -22.929138z" fill-rule="evenodd"/><path stroke="#c1d3de" stroke-width="1.0" stroke-linejoin="round" stroke-linecap="butt" d="m223.60367 189.03937l0 0c0 -12.663406 10.265732 -22.929138 22.929138 -22.929138l0 0c6.081192 0 11.9133 2.415741 16.213348 6.71579c4.300049 4.300049 6.71579 10.132172 6.71579 16.213348l0 0c0 12.663406 -10.265717 22.929138 -22.929138 22.929138l0 0c-12.663406 0 -22.929138 -10.265732 -22.929138 -22.929138z" fill-rule="evenodd"/><path fill="#000000" fill-opacity="0.0" d="m220.60367 168.27559l60.125977 0l0 31.937012l-60.125977 0z" fill-rule="evenodd"/><path fill="#082947" d="m249.2359 187.60184l-8.203125 0l0 -1.265625l8.203125 0l0 1.265625zm0 3.765625l-8.203125 0l0 -1.28125l8.203125 0l0 1.28125z" fill-rule="nonzero"/><path fill="#000000" fill-opacity="0.0" d="m180.30183 232.7874l66.86615 0l0 53.00789l-66.86615 0z" fill-rule="evenodd"/><path fill="#000000" d="m198.30183 254.06802q0 1.953125 -1.109375 3.234375q-1.109375 1.28125 -3.0625 1.28125q-1.875 0 -2.984375 -1.265625q-1.09375 -1.28125 -1.09375 -3.21875q0 -1.96875 1.125 -3.265625q1.140625 -1.3125 2.953125 -1.3125q2.0 0 3.078125 1.28125q1.09375 1.28125 1.09375 3.265625zm-6.828125 0.015625q0 1.359375 0.71875 2.328125q0.734375 0.953125 1.9375 0.953125q1.328125 0 2.03125 -0.9375q0.71875 -0.953125 0.71875 -2.34375q0 -1.46875 -0.6875 -2.40625q-0.671875 -0.9375 -2.0625 -0.9375q-1.234375 0 -1.953125 0.96875q-0.703125 0.96875 -0.703125 2.375zm10.175842 7.75l-1.34375 0l0 -12.1875l1.34375 0l0 1.328125q0.921875 -1.46875 2.734375 -1.46875q1.75 0 2.734375 1.28125q1.0 1.265625 1.0 3.171875q0 2.03125 -1.046875 3.328125q-1.046875 1.28125 -2.734375 1.28125q-1.734375 0 -2.6875 -1.46875l0 4.734375zm0 -7.796875q0 1.6875 0.78125 2.484375q0.78125 0.796875 1.734375 0.796875q1.109375 0 1.8125 -0.875q0.71875 -0.875 0.71875 -2.484375q0 -1.4375 -0.703125 -2.3125q-0.6875 -0.890625 -1.75 -0.890625q-1.046875 0 -1.828125 0.765625q-0.765625 0.765625 -0.765625 2.515625zm14.887497 3.9375q-1.015625 0.546875 -2.484375 0.546875q-2.0 0 -3.21875 -1.21875q-1.21875 -1.234375 -1.21875 -3.234375q0 -2.109375 1.078125 -3.3125q1.09375 -1.21875 2.8125 -1.21875q1.65625 0 2.625 1.0625q0.96875 1.046875 0.96875 3.0q0 0.546875 -0.09375 1.015625l-5.984375 0q0.140625 1.296875 0.96875 2.0q0.84375 0.6875 2.1875 0.6875q1.484375 0 2.359375 -0.609375l0 1.28125zm-3.03125 -7.234375q-0.984375 0 -1.6875 0.71875q-0.6875 0.703125 -0.796875 2.015625l4.703125 0l0 -0.34375q0 -1.09375 -0.59375 -1.734375q-0.578125 -0.65625 -1.625 -0.65625zm12.607727 7.6875l-1.375 0l0 -5.6875q0 -0.96875 -0.5 -1.46875q-0.484375 -0.515625 -1.28125 -0.515625q-0.984375 0 -1.71875 0.765625q-0.71875 0.75 -0.71875 2.109375l0 4.796875l-1.34375 0l0 -8.78125l1.34375 0l0 1.515625q0.78125 -1.640625 2.78125 -1.640625q1.28125 0 2.046875 0.78125q0.765625 0.78125 0.765625 2.078125l0 6.046875z" fill-rule="nonzero"/><path fill="#c1d3de" d="m288.91077 117.03937l0 0c0 -12.663406 10.265717 -22.92913 22.929138 -22.92913l0 0c6.0811768 0 11.9133 2.415741 16.213348 6.71579c4.300049 4.300041 6.71579 10.132156 6.71579 16.21334l0 0c0 12.663406 -10.265747 22.929138 -22.929138 22.929138l0 0c-12.663422 0 -22.929138 -10.265732 -22.929138 -22.929138z" fill-rule="evenodd"/><path stroke="#c1d3de" stroke-width="1.0" stroke-linejoin="round" stroke-linecap="butt" d="m288.91077 117.03937l0 0c0 -12.663406 10.265717 -22.92913 22.929138 -22.92913l0 0c6.0811768 0 11.9133 2.415741 16.213348 6.71579c4.300049 4.300041 6.71579 10.132156 6.71579 16.21334l0 0c0 12.663406 -10.265747 22.929138 -22.929138 22.929138l0 0c-12.663422 0 -22.929138 -10.265732 -22.929138 -22.929138z" fill-rule="evenodd"/><path fill="#000000" fill-opacity="0.0" d="m284.15747 96.65879l60.126007 0l0 31.937004l-60.126007 0z" fill-rule="evenodd"/><path fill="#082947" d="m297.21997 118.28191l-0.234375 0.703125l4.453125 0l-0.234375 -0.71875l-1.96875 -6.046875q-0.21875 0.796875 -2.015625 6.0625zm-1.78125 5.296875l-1.625 0l4.375 -12.578125l2.09375 0l4.3125 12.578125l-1.625 0l-1.09375 -3.296875l-5.328125 0l-1.109375 3.296875zm12.761139 0l-1.515625 0l0 -12.578125l1.90625 0l3.15625 5.296875l3.1875 5.453125q-0.078125 -1.8125 -0.078125 -5.421875l0 -5.328125l1.515625 0l0 12.578125l-1.90625 0l-3.15625 -5.265625q-0.953125 -1.578125 -1.765625 -2.953125q-0.796875 -1.375 -1.125 -1.96875l-0.3125 -0.578125q0.09375 1.9375 0.09375 5.46875l0 5.296875zm14.852539 0l-3.8125 0l0 -12.578125l3.734375 0q2.78125 0 4.5625 1.734375q1.78125 1.71875 1.78125 4.46875q0 2.71875 -1.65625 4.546875q-1.65625 1.828125 -4.609375 1.828125zm-0.09375 -11.234375l-2.1875 0l0 9.90625l2.25 0q2.34375 0 3.53125 -1.4375q1.1875 -1.453125 1.1875 -3.609375q0 -2.0625 -1.328125 -3.453125q-1.328125 -1.40625 -3.453125 -1.40625z" fill-rule="nonzero"/><path fill="#c1d3de" d="m352.91077 189.03937l0 0c0 -12.663406 10.265717 -22.929138 22.929138 -22.929138l0 0c6.0811768 0 11.9133 2.415741 16.213348 6.71579c4.300049 4.300049 6.71579 10.132172 6.71579 16.213348l0 0c0 12.663406 -10.265747 22.929138 -22.929138 22.929138l0 0c-12.663422 0 -22.929138 -10.265732 -22.929138 -22.929138z" fill-rule="evenodd"/><path stroke="#c1d3de" stroke-width="1.0" stroke-linejoin="round" stroke-linecap="butt" d="m352.91077 189.03937l0 0c0 -12.663406 10.265717 -22.929138 22.929138 -22.929138l0 0c6.0811768 0 11.9133 2.415741 16.213348 6.71579c4.300049 4.300049 6.71579 10.132172 6.71579 16.213348l0 0c0 12.663406 -10.265747 22.929138 -22.929138 22.929138l0 0c-12.663422 0 -22.929138 -10.265732 -22.929138 -22.929138z" fill-rule="evenodd"/><path fill="#000000" fill-opacity="0.0" d="m352.91077 168.27559l60.125977 0l0 31.937012l-60.125977 0z" fill-rule="evenodd"/><path fill="#082947" d="m374.09827 188.85184q0 2.96875 -1.53125 4.734375q-1.515625 1.765625 -4.109375 1.765625q-2.546875 0 -4.109375 -1.765625q-1.546875 -1.78125 -1.546875 -4.734375q0 -2.96875 1.515625 -4.71875q1.53125 -1.75 4.125 -1.75q2.640625 0 4.140625 1.75q1.515625 1.734375 1.515625 4.71875zm-9.703125 0q0 2.328125 1.109375 3.703125q1.109375 1.359375 2.953125 1.359375q1.921875 0 2.96875 -1.34375q1.0625 -1.34375 1.0625 -3.71875q0 -2.375 -1.0625 -3.71875q-1.0625 -1.34375 -2.984375 -1.34375q-1.90625 0 -2.984375 1.359375q-1.0625 1.359375 -1.0625 3.703125zm15.262482 -4.921875l-1.734375 0l0 5.015625l1.890625 0q1.296875 0 1.96875 -0.703125q0.6875 -0.703125 0.6875 -1.796875q0 -2.515625 -2.8125 -2.515625zm0.0625 6.296875l-1.796875 0l0 4.96875l-1.515625 0l0 -12.578125l3.15625 0q2.171875 0 3.296875 1.03125q1.140625 1.03125 1.140625 2.828125q-0.03125 1.3125 -0.6875 2.234375q-0.65625 0.90625 -1.84375 1.28125l3.296875 5.203125l-1.8125 0l-3.078125 -4.96875l-0.15625 0z" fill-rule="nonzero"/><path fill="#000000" fill-opacity="0.0" d="m252.30183 232.7874l56.88188 0l0 53.00789l-56.88188 0z" fill-rule="evenodd"/><path fill="#000000" d="m266.97372 258.20865q-0.578125 0.3125 -1.28125 0.3125q-2.609375 0 -2.609375 -2.65625l0 -5.109375l-1.40625 0l0 -1.109375l1.40625 0l0 -2.1875l1.375 0l0 2.1875l2.421875 0l0 1.109375l-2.421875 0l0 5.140625q0 1.40625 1.3125 1.40625q0.671875 0 1.203125 -0.40625l0 1.3125zm3.331543 0.21875l-1.359375 0l0.015625 -8.78125l1.34375 0l0 1.53125q0.703125 -1.625 2.390625 -1.625q0.3125 0 0.5 0.03125l0 1.359375q-0.375 -0.125 -0.75 -0.125q-0.921875 0 -1.53125 0.859375q-0.609375 0.84375 -0.609375 1.953125l0 4.796875zm11.133301 0l-1.375 0l0 -1.53125q-0.6875 1.640625 -2.75 1.640625q-1.296875 0 -2.0625 -0.765625q-0.75 -0.78125 -0.75 -2.078125l0 -6.046875l1.375 0l0 5.703125q0 0.953125 0.484375 1.453125q0.484375 0.5 1.3125 0.5q1.09375 0 1.734375 -0.765625q0.65625 -0.765625 0.65625 -2.0625l0 -4.828125l1.375 0l0 8.78125zm8.935272 -0.453125q-1.015625 0.546875 -2.484375 0.546875q-2.0 0 -3.21875 -1.21875q-1.21875 -1.234375 -1.21875 -3.234375q0 -2.109375 1.078125 -3.3125q1.09375 -1.21875 2.8125 -1.21875q1.65625 0 2.625 1.0625q0.96875 1.046875 0.96875 3.0q0 0.546875 -0.09375 1.015625l-5.984375 0q0.140625 1.296875 0.96875 2.0q0.84375 0.6875 2.1875 0.6875q1.484375 0 2.359375 -0.609375l0 1.28125zm-3.03125 -7.234375q-0.984375 0 -1.6875 0.71875q-0.6875 0.703125 -0.796875 2.015625l4.703125 0l0 -0.34375q0 -1.09375 -0.59375 -1.734375q-0.578125 -0.65625 -1.625 -0.65625z" fill-rule="nonzero"/><path fill="#000000" fill-opacity="0.0" d="m308.30185 232.7874l75.212585 0l0 53.00789l-75.212585 0z" fill-rule="evenodd"/><path fill="#000000" d="m319.19247 250.27115l-1.6875 0l2.078125 -3.890625l1.0625 0l-1.453125 3.890625zm2.515625 0l-1.65625 0l2.03125 -3.890625l1.0625 0l-1.4375 3.890625zm3.8173828 11.5625l-1.34375 0l0 -12.1875l1.34375 0l0 1.328125q0.921875 -1.46875 2.734375 -1.46875q1.75 0 2.734375 1.28125q1.0 1.265625 1.0 3.171875q0 2.03125 -1.046875 3.328125q-1.046875 1.28125 -2.734375 1.28125q-1.734375 0 -2.6875 -1.46875l0 4.734375zm0 -7.796875q0 1.6875 0.78125 2.484375q0.78125 0.796875 1.734375 0.796875q1.109375 0 1.8125 -0.875q0.71875 -0.875 0.71875 -2.484375q0 -1.4375 -0.703125 -2.3125q-0.6875 -0.890625 -1.75 -0.890625q-1.046875 0 -1.828125 0.765625q-0.765625 0.765625 -0.765625 2.515625zm9.918762 4.390625l-1.375 0l0 -8.78125l1.375 0l0 8.78125zm-0.0625 -12.171875q0.265625 0.25 0.265625 0.640625q0 0.375 -0.265625 0.625q-0.25 0.25 -0.640625 0.25q-0.375 0 -0.625 -0.25q-0.25 -0.25 -0.25 -0.625q0 -0.390625 0.25 -0.640625q0.25 -0.265625 0.625 -0.265625q0.390625 0 0.640625 0.265625zm8.49054 12.171875l-6.328125 0l0 -1.078125l4.453125 -6.5l-4.28125 0l0 -1.203125l5.90625 0l0 1.0l-4.5 6.546875l4.75 0l0 1.234375zm7.8496094 0l-6.328125 0l0 -1.078125l4.453125 -6.5l-4.28125 0l0 -1.203125l5.90625 0l0 1.0l-4.5 6.546875l4.75 0l0 1.234375zm4.708954 -1.0625q0.9375 0 1.484375 -0.515625q0.5625 -0.53125 0.5625 -1.34375l0 -1.140625l-1.53125 0q-1.109375 0 -1.671875 0.4375q-0.546875 0.4375 -0.546875 1.09375q0 0.65625 0.4375 1.0625q0.4375 0.40625 1.265625 0.40625zm2.0625 0.015625q-0.671875 1.140625 -2.46875 1.140625q-1.21875 0 -1.984375 -0.734375q-0.75 -0.734375 -0.75 -1.84375q0 -1.265625 0.953125 -1.953125q0.96875 -0.703125 2.640625 -0.703125l1.59375 0l0 -0.453125q0 -1.046875 -0.46875 -1.5625q-0.46875 -0.53125 -1.578125 -0.53125q-1.40625 0 -2.5 0.734375l0 -1.359375q0.984375 -0.609375 2.609375 -0.609375q3.296875 0 3.296875 3.359375l0 5.5625l-1.34375 0l0 -1.046875zm3.7753906 -7.109375l-1.0625 0l1.4375 -3.890625l1.640625 0l-2.015625 3.890625zm2.484375 0l-1.0625 0l1.46875 -3.890625l1.6875 0l-2.09375 3.890625z" fill-rule="nonzero"/><path fill="#000000" fill-opacity="0.0" d="m372.30185 232.7874l75.212585 0l0 53.00789l-75.212585 0z" fill-rule="evenodd"/><path fill="#000000" d="m383.19247 250.27115l-1.6875 0l2.078125 -3.890625l1.0625 0l-1.453125 3.890625zm2.515625 0l-1.65625 0l2.03125 -3.890625l1.0625 0l-1.4375 3.890625zm7.754883 5.8125q0 1.125 -0.796875 1.796875q-0.78125 0.65625 -2.140625 0.65625q-1.59375 0 -2.59375 -0.546875l0 -1.328125q1.171875 0.6875 2.5 0.6875q0.796875 0 1.203125 -0.3125q0.421875 -0.3125 0.421875 -0.84375q0 -0.625 -0.453125 -0.96875q-0.453125 -0.34375 -1.53125 -0.78125q-0.984375 -0.375 -1.59375 -0.953125q-0.59375 -0.578125 -0.59375 -1.546875q0 -1.09375 0.8125 -1.734375q0.828125 -0.65625 2.0625 -0.65625q1.375 0 2.203125 0.390625l0 1.296875q-0.796875 -0.484375 -2.1875 -0.484375q-0.6875 0 -1.09375 0.328125q-0.40625 0.3125 -0.40625 0.8125q0 0.3125 0.109375 0.546875q0.125 0.234375 0.484375 0.46875q0.359375 0.21875 0.515625 0.296875q0.171875 0.078125 0.71875 0.3125q1.109375 0.453125 1.734375 1.03125q0.625 0.5625 0.625 1.53125zm8.686035 2.34375l-1.375 0l0 -1.53125q-0.6875 1.640625 -2.75 1.640625q-1.296875 0 -2.0625 -0.765625q-0.75 -0.78125 -0.75 -2.078125l0 -6.046875l1.375 0l0 5.703125q0 0.953125 0.484375 1.453125q0.484375 0.5 1.3125 0.5q1.09375 0 1.734375 -0.765625q0.65625 -0.765625 0.65625 -2.0625l0 -4.828125l1.375 0l0 8.78125zm7.8102417 -2.34375q0 1.125 -0.796875 1.796875q-0.78125 0.65625 -2.140625 0.65625q-1.59375 0 -2.59375 -0.546875l0 -1.328125q1.171875 0.6875 2.5 0.6875q0.796875 0 1.203125 -0.3125q0.421875 -0.3125 0.421875 -0.84375q0 -0.625 -0.453125 -0.96875q-0.453125 -0.34375 -1.53125 -0.78125q-0.984375 -0.375 -1.59375 -0.953125q-0.59375 -0.578125 -0.59375 -1.546875q0 -1.09375 0.8125 -1.734375q0.828125 -0.65625 2.0625 -0.65625q1.375 0 2.203125 0.390625l0 1.296875q-0.796875 -0.484375 -2.1875 -0.484375q-0.6875 0 -1.09375 0.328125q-0.40625 0.3125 -0.40625 0.8125q0 0.3125 0.109375 0.546875q0.125 0.234375 0.484375 0.46875q0.359375 0.21875 0.515625 0.296875q0.171875 0.078125 0.71875 0.3125q1.109375 0.453125 1.734375 1.03125q0.625 0.5625 0.625 1.53125zm8.79541 2.34375l-1.375 0l0 -5.6875q0 -0.953125 -0.5 -1.46875q-0.484375 -0.515625 -1.28125 -0.515625q-0.96875 0 -1.703125 0.75q-0.734375 0.734375 -0.734375 2.125l0 4.796875l-1.34375 0l0 -12.25l1.34375 0l0 4.984375q0.78125 -1.640625 2.78125 -1.640625q1.265625 0 2.03125 0.78125q0.78125 0.78125 0.78125 2.109375l0 6.015625zm3.8571167 0l-1.375 0l0 -8.78125l1.375 0l0 8.78125zm-0.0625 -12.171875q0.265625 0.25 0.265625 0.640625q0 0.375 -0.265625 0.625q-0.25 0.25 -0.640625 0.25q-0.375 0 -0.625 -0.25q-0.25 -0.25 -0.25 -0.625q0 -0.390625 0.25 -0.640625q0.25 -0.265625 0.625 -0.265625q0.390625 0 0.640625 0.265625zm2.662445 4.015625l-1.0625 0l1.4375 -3.890625l1.640625 0l-2.015625 3.890625zm2.484375 0l-1.0625 0l1.46875 -3.890625l1.6875 0l-2.09375 3.890625z" fill-rule="nonzero"/><path fill="#000000" fill-opacity="0.0" d="m219.44432 55.801273l76.18898 45.03937" fill-rule="evenodd"/><path stroke="#ff9750" stroke-width="2.0" stroke-linejoin="round" stroke-linecap="butt" d="m219.44432 55.801273l76.18898 45.03937" fill-rule="evenodd"/><path fill="#000000" fill-opacity="0.0" d="m99.50844 139.96925l0.34645844 34.362198" fill-rule="evenodd"/><path stroke="#ff9750" stroke-width="2.0" stroke-linejoin="round" stroke-linecap="butt" d="m99.50844 139.96925l0.34645844 34.362198" fill-rule="evenodd"/><path fill="#000000" fill-opacity="0.0" d="m295.62656 133.25272l-32.881897 39.55905" fill-rule="evenodd"/><path stroke="#ff9750" stroke-width="2.0" stroke-linejoin="round" stroke-linecap="butt" d="m295.62656 133.25272l-32.881897 39.55905" fill-rule="evenodd"/><path fill="#000000" fill-opacity="0.0" d="m328.05325 133.25272l31.559052 39.55905" fill-rule="evenodd"/><path stroke="#ff9750" stroke-width="2.0" stroke-linejoin="round" stroke-linecap="butt" d="m328.05325 133.25272l31.559052 39.55905" fill-rule="evenodd"/><path fill="#000000" fill-opacity="0.0" d="m230.31946 205.25272l-16.59842 27.527557" fill-rule="evenodd"/><path stroke="#ff9750" stroke-width="2.0" stroke-linejoin="round" stroke-linecap="butt" d="m230.31946 205.25272l-16.59842 27.527557" fill-rule="evenodd"/><path fill="#000000" fill-opacity="0.0" d="m262.74615 205.25272l17.984253 27.527557" fill-rule="evenodd"/><path stroke="#ff9750" stroke-width="2.0" stroke-linejoin="round" stroke-linecap="butt" d="m262.74615 205.25272l17.984253 27.527557" fill-rule="evenodd"/><path fill="#000000" fill-opacity="0.0" d="m359.62656 205.25272l-13.7323 27.527557" fill-rule="evenodd"/><path stroke="#ff9750" stroke-width="2.0" stroke-linejoin="round" stroke-linecap="butt" d="m359.62656 205.25272l-13.7323 27.527557" fill-rule="evenodd"/><path fill="#000000" fill-opacity="0.0" d="m392.05325 205.25272l17.858246 27.527557" fill-rule="evenodd"/><path stroke="#ff9750" stroke-width="2.0" stroke-linejoin="round" stroke-linecap="butt" d="m392.05325 205.25272l17.858246 27.527557" fill-rule="evenodd"/></g></svg>