<svg version="1.1" viewBox="0.0 0.0 376.9265091863517 169.93963254593177" fill="none" stroke="none" stroke-linecap="square" stroke-miterlimit="10" xmlns:xlink="http://www.w3.org/1999/xlink" xmlns="http://www.w3.org/2000/svg"><clipPath id="p.0"><path d="m0 0l376.9265 0l0 169.93964l-376.9265 0l0 -169.93964z" clip-rule="nonzero"/></clipPath><g clip-path="url(#p.0)"><path fill="#000000" fill-opacity="0.0" d="m0 0l376.9265 0l0 169.93964l-376.9265 0z" fill-rule="evenodd"/><path fill="#005a8e" d="m192.0 130.798l0 0c0 -3.0615387 2.4818726 -5.5434113 5.5434113 -5.5434113l44.598206 0c1.4702148 0 2.8802032 0.5840378 3.9197998 1.6236267c1.0395813 1.0395966 1.6236267 2.449585 1.6236267 3.9197845l0 22.17302c0 3.0615387 -2.4818726 5.5434113 -5.5434265 5.5434113l-44.598206 0c-3.0615387 0 -5.5434113 -2.4818726 -5.5434113 -5.5434113z" fill-rule="evenodd"/><path stroke="#005a8e" stroke-width="1.0" stroke-linejoin="round" stroke-linecap="butt" d="m192.0 130.798l0 0c0 -3.0615387 2.4818726 -5.5434113 5.5434113 -5.5434113l44.598206 0c1.4702148 0 2.8802032 0.5840378 3.9197998 1.6236267c1.0395813 1.0395966 1.6236267 2.449585 1.6236267 3.9197845l0 22.17302c0 3.0615387 -2.4818726 5.5434113 -5.5434265 5.5434113l-44.598206 0c-3.0615387 0 -5.5434113 -2.4818726 -5.5434113 -5.5434113z" fill-rule="evenodd"/><path fill="#005a8e" d="m256.0 130.798l0 0c0 -3.0615387 2.4818726 -5.5434113 5.5434265 -5.5434113l44.598206 0c1.4701843 0 2.880188 0.5840378 3.9197693 1.6236267c1.0396118 1.0395966 1.6236267 2.449585 1.6236267 3.9197845l0 22.17302c0 3.0615387 -2.4818726 5.5434113 -5.543396 5.5434113l-44.598206 0c-3.061554 0 -5.5434265 -2.4818726 -5.5434265 -5.5434113z" fill-rule="evenodd"/><path stroke="#005a8e" stroke-width="1.0" stroke-linejoin="round" stroke-linecap="butt" d="m256.0 130.798l0 0c0 -3.0615387 2.4818726 -5.5434113 5.5434265 -5.5434113l44.598206 0c1.4701843 0 2.880188 0.5840378 3.9197693 1.6236267c1.0396118 1.0395966 1.6236267 2.449585 1.6236267 3.9197845l0 22.17302c0 3.0615387 -2.4818726 5.5434113 -5.543396 5.5434113l-44.598206 0c-3.061554 0 -5.5434265 -2.4818726 -5.5434265 -5.5434113z" fill-rule="evenodd"/><path fill="#005a8e" d="m320.0 130.798l0 0c0 -3.0615387 2.4818726 -5.5434113 5.5434265 -5.5434113l44.598206 0c1.4701843 0 2.880188 0.5840378 3.9197693 1.6236267c1.0396118 1.0395966 1.6236267 2.449585 1.6236267 3.9197845l0 22.17302c0 3.0615387 -2.4818726 5.5434113 -5.543396 5.5434113l-44.598206 0c-3.061554 0 -5.5434265 -2.4818726 -5.5434265 -5.5434113z" fill-rule="evenodd"/><path stroke="#005a8e" stroke-width="1.0" stroke-linejoin="round" stroke-linecap="butt" d="m320.0 130.798l0 0c0 -3.0615387 2.4818726 -5.5434113 5.5434265 -5.5434113l44.598206 0c1.4701843 0 2.880188 0.5840378 3.9197693 1.6236267c1.0396118 1.0395966 1.6236267 2.449585 1.6236267 3.9197845l0 22.17302c0 3.0615387 -2.4818726 5.5434113 -5.543396 5.5434113l-44.598206 0c-3.061554 0 -5.5434265 -2.4818726 -5.5434265 -5.5434113z" fill-rule="evenodd"/><path fill="#005a8e" d="m0 130.798l0 0c0 -3.0615387 2.4818728 -5.5434113 5.543418 -5.5434113l44.5982 0c1.4702072 0 2.8801956 0.5840378 3.9197884 1.6236267c1.0395927 1.0395966 1.6236305 2.449585 1.6236305 3.9197845l0 22.17302c0 3.0615387 -2.4818726 5.5434113 -5.543419 5.5434113l-44.5982 0c-3.0615451 0 -5.543418 -2.4818726 -5.543418 -5.5434113z" fill-rule="evenodd"/><path stroke="#005a8e" stroke-width="1.0" stroke-linejoin="round" stroke-linecap="butt" d="m0 130.798l0 0c0 -3.0615387 2.4818728 -5.5434113 5.543418 -5.5434113l44.5982 0c1.4702072 0 2.8801956 0.5840378 3.9197884 1.6236267c1.0395927 1.0395966 1.6236305 2.449585 1.6236305 3.9197845l0 22.17302c0 3.0615387 -2.4818726 5.5434113 -5.543419 5.5434113l-44.5982 0c-3.0615451 0 -5.543418 -2.4818726 -5.543418 -5.5434113z" fill-rule="evenodd"/><path fill="#005a8e" d="m64.0 130.798l0 0c0 -3.0615387 2.4818726 -5.5434113 5.543419 -5.5434113l44.598206 0c1.4701996 0 2.8801956 0.5840378 3.9197845 1.6236267c1.0395966 1.0395966 1.6236267 2.449585 1.6236267 3.9197845l0 22.17302c0 3.0615387 -2.4818726 5.5434113 -5.5434113 5.5434113l-44.598206 0c-3.0615463 0 -5.543419 -2.4818726 -5.543419 -5.5434113z" fill-rule="evenodd"/><path stroke="#005a8e" stroke-width="1.0" stroke-linejoin="round" stroke-linecap="butt" d="m64.0 130.798l0 0c0 -3.0615387 2.4818726 -5.5434113 5.543419 -5.5434113l44.598206 0c1.4701996 0 2.8801956 0.5840378 3.9197845 1.6236267c1.0395966 1.0395966 1.6236267 2.449585 1.6236267 3.9197845l0 22.17302c0 3.0615387 -2.4818726 5.5434113 -5.5434113 5.5434113l-44.598206 0c-3.0615463 0 -5.543419 -2.4818726 -5.543419 -5.5434113z" fill-rule="evenodd"/><path fill="#005a8e" d="m128.0 130.798l0 0c0 -3.0615387 2.4818726 -5.5434113 5.5434113 -5.5434113l44.598206 0c1.4702148 0 2.8802032 0.5840378 3.9197998 1.6236267c1.0395813 1.0395966 1.6236267 2.449585 1.6236267 3.9197845l0 22.17302c0 3.0615387 -2.4818726 5.5434113 -5.5434265 5.5434113l-44.598206 0c-3.0615387 0 -5.5434113 -2.4818726 -5.5434113 -5.5434113z" fill-rule="evenodd"/><path stroke="#005a8e" stroke-width="1.0" stroke-linejoin="round" stroke-linecap="butt" d="m128.0 130.798l0 0c0 -3.0615387 2.4818726 -5.5434113 5.5434113 -5.5434113l44.598206 0c1.4702148 0 2.8802032 0.5840378 3.9197998 1.6236267c1.0395813 1.0395966 1.6236267 2.449585 1.6236267 3.9197845l0 22.17302c0 3.0615387 -2.4818726 5.5434113 -5.5434265 5.5434113l-44.598206 0c-3.0615387 0 -5.5434113 -2.4818726 -5.5434113 -5.5434113z" fill-rule="evenodd"/><path fill="#000000" fill-opacity="0.0" d="m187.2546 44.643044l-159.40158 80.59843" fill-rule="evenodd"/><path stroke="#ff9750" stroke-width="4.0" stroke-linejoin="round" stroke-linecap="butt" d="m187.2546 44.643044l-137.98378 69.76892" fill-rule="evenodd"/><path fill="#ff9750" stroke="#ff9750" stroke-width="4.0" stroke-linecap="butt" d="m46.28957 108.515884l-13.218098 14.086975l19.180576 -2.294815z" fill-rule="evenodd"/><path fill="#c1d3de" d="m159.41208 16.92662l0 0c0 -3.0615454 2.4818726 -5.543418 5.5434113 -5.543418l44.598206 0c1.4701996 0 2.880188 0.5840368 3.9197845 1.6236286c1.0395966 1.0395927 1.6236267 2.449583 1.6236267 3.9197893l0 22.173008c0 3.0615425 -2.4818726 5.543415 -5.5434113 5.543415l-44.598206 0c-3.0615387 0 -5.5434113 -2.4818726 -5.5434113 -5.543415z" fill-rule="evenodd"/><path stroke="#c1d3de" stroke-width="1.0" stroke-linejoin="round" stroke-linecap="butt" d="m159.41208 16.92662l0 0c0 -3.0615454 2.4818726 -5.543418 5.5434113 -5.543418l44.598206 0c1.4701996 0 2.880188 0.5840368 3.9197845 1.6236286c1.0395966 1.0395927 1.6236267 2.449583 1.6236267 3.9197893l0 22.173008c0 3.0615425 -2.4818726 5.543415 -5.5434113 5.543415l-44.598206 0c-3.0615387 0 -5.5434113 -2.4818726 -5.5434113 -5.543415z" fill-rule="evenodd"/><path fill="#000000" fill-opacity="0.0" d="m187.2546 44.643044l-95.40157 80.59843" fill-rule="evenodd"/><path stroke="#ff9750" stroke-width="4.0" stroke-linejoin="round" stroke-linecap="butt" d="m187.2546 44.643044l-77.068375 65.10993" fill-rule="evenodd"/><path fill="#ff9750" stroke="#ff9750" stroke-width="4.0" stroke-linecap="butt" d="m105.92241 104.70605l-9.602501 16.761642l18.13012 -6.6677933z" fill-rule="evenodd"/><path fill="#000000" fill-opacity="0.0" d="m187.2546 44.643044l-31.40158 80.59843" fill-rule="evenodd"/><path stroke="#ff9750" stroke-width="4.0" stroke-linejoin="round" stroke-linecap="butt" d="m187.2546 44.643044l-22.68895 58.235733" fill-rule="evenodd"/><path fill="#ff9750" stroke="#ff9750" stroke-width="4.0" stroke-linecap="butt" d="m158.40944 100.480286l-0.43359375 19.312508l12.746002 -14.515533z" fill-rule="evenodd"/><path fill="#000000" fill-opacity="0.0" d="m187.2546 44.643044l32.59842 80.59843" fill-rule="evenodd"/><path stroke="#ff9750" stroke-width="4.0" stroke-linejoin="round" stroke-linecap="butt" d="m187.2546 44.643044l23.59967 58.349327" fill-rule="evenodd"/><path fill="#ff9750" stroke="#ff9750" stroke-width="4.0" stroke-linecap="butt" d="m204.72934 105.46963l12.931122 14.350838l-0.6812744 -19.305351z" fill-rule="evenodd"/><path fill="#000000" fill-opacity="0.0" d="m187.2546 44.643044l32.59842 80.59843" fill-rule="evenodd"/><path stroke="#ff9750" stroke-width="4.0" stroke-linejoin="round" stroke-linecap="butt" d="m187.2546 44.643044l23.59967 58.349327" fill-rule="evenodd"/><path fill="#ff9750" stroke="#ff9750" stroke-width="4.0" stroke-linecap="butt" d="m204.72934 105.46963l12.931122 14.350838l-0.6812744 -19.305351z" fill-rule="evenodd"/><path fill="#000000" fill-opacity="0.0" d="m187.2546 44.643044l96.598434 80.59843" fill-rule="evenodd"/><path stroke="#ff9750" stroke-width="4.0" stroke-linejoin="round" stroke-linecap="butt" d="m187.2546 44.643044l78.17049 65.22277" fill-rule="evenodd"/><path fill="#ff9750" stroke="#ff9750" stroke-width="4.0" stroke-linecap="butt" d="m261.19232 114.93883l18.170715 6.5563583l-9.705231 -16.702377z" fill-rule="evenodd"/><path fill="#000000" fill-opacity="0.0" d="m187.2546 44.643044l160.59843 80.59843" fill-rule="evenodd"/><path stroke="#ff9750" stroke-width="4.0" stroke-linejoin="round" stroke-linecap="butt" d="m187.2546 44.643044l139.14818 69.83334" fill-rule="evenodd"/><path fill="#ff9750" stroke="#ff9750" stroke-width="4.0" stroke-linecap="butt" d="m323.43927 120.38139l19.187378 2.2371597l-13.260376 -14.04718z" fill-rule="evenodd"/></g></svg>