<svg xmlns="http://www.w3.org/2000/svg" xmlns:xlink="http://www.w3.org/1999/xlink" xmlns:lucid="lucid" width="735.2" height="386.67"><g transform="translate(-360 -346.66666666666663)" lucid:page-tab-id="0_0"><path d="M0 0h1870.4v1323.2H0z" fill="#fff"/><path d="M639.5 366.67h280V500h-280z" stroke="#000" stroke-width="2" fill="#fff"/><use xlink:href="#a" transform="matrix(1,0,0,1,644.5,371.66666666666663) translate(0 14.4)"/><path d="M659.5 396.67h240v80h-240z" stroke="#000" stroke-width="2" fill="#e5e5e5"/><use xlink:href="#b" transform="matrix(1,0,0,1,664.5,401.66666666666663) translate(0 14.4)"/><use xlink:href="#c" transform="matrix(1,0,0,1,664.5,401.66666666666663) translate(31.950000000000003 14.4)"/><path d="M380 400h160v80c-26.72-13.36-43.36-13.36-53.44-13.36-16 0-37.28 13.36-53.28 13.36-9.92 0-26.72 0-53.28-13.36z" stroke="#000" stroke-width="2" fill="#fff"/><use xlink:href="#d" transform="matrix(1,0,0,1,385,405) translate(50.525 32.2125)"/><path d="M743.33 478.67v49.66H620v32.17" stroke="#000" stroke-width="2" fill="none"/><path d="M744.33 478.7h-2v-1.03h2z"/><path d="M620 575.76l-4.64-14.26h9.28z" stroke="#000" stroke-width="2"/><path d="M542 440h98.5" stroke="#000" stroke-width="2" fill="none"/><path d="M542.03 441H541v-2h1.03z"/><path d="M655.76 440l-14.26 4.64v-9.28z" stroke="#000" stroke-width="2"/><path d="M480 580h280v133.33H480z" stroke="#000" stroke-width="2" fill="#fff"/><use xlink:href="#e" transform="matrix(1,0,0,1,485,585) translate(0 14.4)"/><use xlink:href="#f" transform="matrix(1,0,0,1,485,585) translate(67.95 14.4)"/><use xlink:href="#g" transform="matrix(1,0,0,1,485,585) translate(125.85000000000001 14.4)"/><path d="M795.2 580h280v133.33h-280z" stroke="#000" stroke-width="2" fill="#fff"/><use xlink:href="#e" transform="matrix(1,0,0,1,800.1999999999999,585) translate(0 14.4)"/><use xlink:href="#f" transform="matrix(1,0,0,1,800.1999999999999,585) translate(67.95 14.4)"/><use xlink:href="#h" transform="matrix(1,0,0,1,800.1999999999999,585) translate(125.85000000000001 14.4)"/><path d="M809.33 478.67v49.66H935.2v32.17" stroke="#000" stroke-width="2" fill="none"/><path d="M810.33 478.7h-2v-1.03h2z"/><path d="M935.2 575.76l-4.64-14.26h9.28z" stroke="#000" stroke-width="2"/><defs><path d="M212-179c-10-28-35-45-73-45-59 0-87 40-87 99 0 60 29 101 89 101 43 0 62-24 78-52l27 14C228-24 195 4 139 4 59 4 22-46 18-125c-6-104 99-153 187-111 19 9 31 26 39 46" id="i"/><path d="M100-194c62-1 85 37 85 99 1 63-27 99-86 99S16-35 15-95c0-66 28-99 85-99zM99-20c44 1 53-31 53-75 0-43-8-75-51-75s-53 32-53 75 10 74 51 75" id="j"/><path d="M117-194c89-4 53 116 60 194h-32v-121c0-31-8-49-39-48C34-167 62-67 57 0H25l-1-190h30c1 10-1 24 2 32 11-22 29-35 61-36" id="k"/><path d="M59-47c-2 24 18 29 38 22v24C64 9 27 4 27-40v-127H5v-23h24l9-43h21v43h35v23H59v120" id="l"/><path d="M141-36C126-15 110 5 73 4 37 3 15-17 15-53c-1-64 63-63 125-63 3-35-9-54-41-54-24 1-41 7-42 31l-33-3c5-37 33-52 76-52 45 0 72 20 72 64v82c-1 20 7 32 28 27v20c-31 9-61-2-59-35zM48-53c0 20 12 33 32 33 41-3 63-29 60-74-43 2-92-5-92 41" id="m"/><path d="M24-231v-30h32v30H24zM24 0v-190h32V0H24" id="n"/><path d="M100-194c63 0 86 42 84 106H49c0 40 14 67 53 68 26 1 43-12 49-29l28 8c-11 28-37 45-77 45C44 4 14-33 15-96c1-61 26-98 85-98zm52 81c6-60-76-77-97-28-3 7-6 17-6 28h103" id="o"/><path d="M114-163C36-179 61-72 57 0H25l-1-190h30c1 12-1 29 2 39 6-27 23-49 58-41v29" id="p"/><g id="a"><use transform="matrix(0.05,0,0,0.05,0,0)" xlink:href="#i"/><use transform="matrix(0.05,0,0,0.05,12.950000000000001,0)" xlink:href="#j"/><use transform="matrix(0.05,0,0,0.05,22.950000000000003,0)" xlink:href="#k"/><use transform="matrix(0.05,0,0,0.05,32.95,0)" xlink:href="#l"/><use transform="matrix(0.05,0,0,0.05,37.95,0)" xlink:href="#m"/><use transform="matrix(0.05,0,0,0.05,47.95,0)" xlink:href="#n"/><use transform="matrix(0.05,0,0,0.05,51.900000000000006,0)" xlink:href="#k"/><use transform="matrix(0.05,0,0,0.05,61.900000000000006,0)" xlink:href="#o"/><use transform="matrix(0.05,0,0,0.05,71.9,0)" xlink:href="#p"/></g><path d="M140-251c81 0 123 46 123 126C263-53 228-8 163 1c7 30 30 48 69 40v23c-55 16-95-15-103-61C56-3 17-48 17-125c0-80 42-126 123-126zm0 227c63 0 89-41 89-101s-29-99-89-99c-61 0-89 39-89 99S79-25 140-24" id="q"/><path d="M233-177c-1 41-23 64-60 70L243 0h-38l-65-103H63V0H30v-248c88 3 205-21 203 71zM63-129c60-2 137 13 137-47 0-61-80-42-137-45v92" id="r"/><g id="b"><use transform="matrix(0.05,0,0,0.05,0,0)" xlink:href="#q"/><use transform="matrix(0.05,0,0,0.05,14,0)" xlink:href="#r"/></g><path d="M135-143c-3-34-86-38-87 0 15 53 115 12 119 90S17 21 10-45l28-5c4 36 97 45 98 0-10-56-113-15-118-90-4-57 82-63 122-42 12 7 21 19 24 35" id="s"/><path d="M108 0H70L1-190h34L89-25l56-165h34" id="t"/><g id="c"><use transform="matrix(0.05,0,0,0.05,0,0)" xlink:href="#s"/><use transform="matrix(0.05,0,0,0.05,9,0)" xlink:href="#o"/><use transform="matrix(0.05,0,0,0.05,19,0)" xlink:href="#p"/><use transform="matrix(0.05,0,0,0.05,24.95,0)" xlink:href="#t"/><use transform="matrix(0.05,0,0,0.05,33.95,0)" xlink:href="#o"/><use transform="matrix(0.05,0,0,0.05,43.95,0)" xlink:href="#p"/></g><path d="M84 4C-5 8 30-112 23-190h32v120c0 31 7 50 39 49 72-2 45-101 50-169h31l1 190h-30c-1-10 1-25-2-33-11 22-28 36-60 37" id="u"/><path d="M179-190L93 31C79 59 56 82 12 73V49c39 6 53-20 64-50L1-190h34L92-34l54-156h33" id="v"/><g id="d"><use transform="matrix(0.05,0,0,0.05,0,0)" xlink:href="#q"/><use transform="matrix(0.05,0,0,0.05,14,0)" xlink:href="#u"/><use transform="matrix(0.05,0,0,0.05,24,0)" xlink:href="#o"/><use transform="matrix(0.05,0,0,0.05,34,0)" xlink:href="#p"/><use transform="matrix(0.05,0,0,0.05,39.95,0)" xlink:href="#v"/></g><g id="e"><use transform="matrix(0.05,0,0,0.05,0,0)" xlink:href="#i"/><use transform="matrix(0.05,0,0,0.05,12.950000000000001,0)" xlink:href="#j"/><use transform="matrix(0.05,0,0,0.05,22.950000000000003,0)" xlink:href="#k"/><use transform="matrix(0.05,0,0,0.05,32.95,0)" xlink:href="#l"/><use transform="matrix(0.05,0,0,0.05,37.95,0)" xlink:href="#o"/><use transform="matrix(0.05,0,0,0.05,47.95,0)" xlink:href="#k"/><use transform="matrix(0.05,0,0,0.05,57.95,0)" xlink:href="#l"/></g><path d="M96-169c-40 0-48 33-48 73s9 75 48 75c24 0 41-14 43-38l32 2c-6 37-31 61-74 61-59 0-76-41-82-99-10-93 101-131 147-64 4 7 5 14 7 22l-32 3c-4-21-16-35-41-35" id="w"/><path d="M24 0v-261h32V0H24" id="x"/><g id="f"><use transform="matrix(0.05,0,0,0.05,0,0)" xlink:href="#w"/><use transform="matrix(0.05,0,0,0.05,9,0)" xlink:href="#x"/><use transform="matrix(0.05,0,0,0.05,12.949999999999998,0)" xlink:href="#u"/><use transform="matrix(0.05,0,0,0.05,22.95,0)" xlink:href="#s"/><use transform="matrix(0.05,0,0,0.05,31.950000000000003,0)" xlink:href="#l"/><use transform="matrix(0.05,0,0,0.05,36.95,0)" xlink:href="#o"/><use transform="matrix(0.05,0,0,0.05,46.95,0)" xlink:href="#p"/></g><path d="M101-251c68 0 85 55 85 127S166 4 100 4C33 4 14-52 14-124c0-73 17-127 87-127zm-1 229c47 0 54-49 54-102s-4-102-53-102c-51 0-55 48-55 102 0 53 5 102 54 102" id="y"/><use transform="matrix(0.05,0,0,0.05,0,0)" xlink:href="#y" id="g"/><use transform="matrix(0.05,0,0,0.05,0,0)" xlink:href="#k" id="h"/></defs></g></svg>