<svg id="Layer_1" data-name="Layer 1" xmlns="http://www.w3.org/2000/svg" xmlns:xlink="http://www.w3.org/1999/xlink" viewBox="0 0 426.73 150"><defs><style>.cls-1{fill:none;clip-rule:evenodd;}.cls-2{clip-path:url(#clip-path);}.cls-3{clip-path:url(#clip-path-2);}.cls-4{clip-path:url(#clip-path-3);}.cls-5{clip-path:url(#clip-path-4);}.cls-6{clip-path:url(#clip-path-5);}.cls-7{clip-path:url(#clip-path-6);}.cls-8{clip-path:url(#clip-path-7);}.cls-9{clip-path:url(#clip-path-8);}.cls-10{clip-path:url(#clip-path-9);}.cls-11{clip-path:url(#clip-path-10);}.cls-12{clip-path:url(#clip-path-11);}.cls-13{clip-path:url(#clip-path-12);}.cls-14{clip-path:url(#clip-path-13);}.cls-15{clip-path:url(#clip-path-14);}.cls-16{clip-path:url(#clip-path-15);}.cls-17{clip-path:url(#clip-path-16);}.cls-18{clip-path:url(#clip-path-17);}.cls-19{clip-path:url(#clip-path-18);}.cls-20{clip-path:url(#clip-path-19);}.cls-21{clip-path:url(#clip-path-20);}.cls-22{clip-path:url(#clip-path-21);}.cls-23{clip-path:url(#clip-path-22);}.cls-24{clip-path:url(#clip-path-23);}.cls-25{clip-path:url(#clip-path-24);}.cls-26{clip-path:url(#clip-path-25);}.cls-27{fill:#ff9d4b;}.cls-28{fill:url(#linear-gradient);}.cls-29{fill:#1a7db6;}.cls-30{fill:url(#linear-gradient-2);}.cls-31{fill:#fff;}</style><clipPath id="clip-path"><polygon class="cls-1" points="-126.52 -1264.69 133.48 -1165.35 133.48 -1426.02 -126.52 -1525.35 -126.52 -1264.69"/></clipPath><clipPath id="clip-path-2"><path class="cls-1" d="M-1.82-1449.71a6.31,6.31,0,0,1-6.3-6.32,6.3,6.3,0,0,1,6.3-6.32,6.3,6.3,0,0,1,6.3,6.32,6.31,6.31,0,0,1-6.3,6.32"/></clipPath><clipPath id="clip-path-3"><path class="cls-1" d="M-1.82-1393.24a6.31,6.31,0,0,1-6.3-6.32,6.3,6.3,0,0,1,6.3-6.32,6.3,6.3,0,0,1,6.3,6.32,6.31,6.31,0,0,1-6.3,6.32"/></clipPath><clipPath id="clip-path-4"><path class="cls-1" d="M-1.82-1336.77a6.31,6.31,0,0,1-6.3-6.32,6.31,6.31,0,0,1,6.3-6.32,6.31,6.31,0,0,1,6.3,6.32,6.31,6.31,0,0,1-6.3,6.32"/></clipPath><clipPath id="clip-path-5"><path class="cls-1" d="M-1.82-1282a6.31,6.31,0,0,1-6.3-6.33,6.31,6.31,0,0,1,6.3-6.32,6.31,6.31,0,0,1,6.3,6.32,6.31,6.31,0,0,1-6.3,6.33"/></clipPath><clipPath id="clip-path-6"><path class="cls-1" d="M-1.82-1223.83a6.31,6.31,0,0,1-6.3-6.32,6.31,6.31,0,0,1,6.3-6.32,6.31,6.31,0,0,1,6.3,6.32,6.31,6.31,0,0,1-6.3,6.32"/></clipPath><clipPath id="clip-path-7"><path class="cls-1" d="M-1.82-1167.35a6.32,6.32,0,0,1-6.3-6.33,6.31,6.31,0,0,1,6.3-6.32,6.31,6.31,0,0,1,6.3,6.32,6.32,6.32,0,0,1-6.3,6.33"/></clipPath><clipPath id="clip-path-8"><path class="cls-1" d="M-55.58-1449.71a6.31,6.31,0,0,1-6.3-6.32,6.3,6.3,0,0,1,6.3-6.32,6.3,6.3,0,0,1,6.3,6.32,6.31,6.31,0,0,1-6.3,6.32"/></clipPath><clipPath id="clip-path-9"><path class="cls-1" d="M-55.58-1393.24a6.31,6.31,0,0,1-6.3-6.32,6.3,6.3,0,0,1,6.3-6.32,6.3,6.3,0,0,1,6.3,6.32,6.31,6.31,0,0,1-6.3,6.32"/></clipPath><clipPath id="clip-path-10"><path class="cls-1" d="M-55.58-1336.77a6.31,6.31,0,0,1-6.3-6.32,6.31,6.31,0,0,1,6.3-6.32,6.31,6.31,0,0,1,6.3,6.32,6.31,6.31,0,0,1-6.3,6.32"/></clipPath><clipPath id="clip-path-11"><path class="cls-1" d="M-55.58-1282a6.31,6.31,0,0,1-6.3-6.33,6.31,6.31,0,0,1,6.3-6.32,6.31,6.31,0,0,1,6.3,6.32,6.31,6.31,0,0,1-6.3,6.33"/></clipPath><clipPath id="clip-path-12"><path class="cls-1" d="M-55.58-1223.83a6.31,6.31,0,0,1-6.3-6.32,6.31,6.31,0,0,1,6.3-6.32,6.31,6.31,0,0,1,6.3,6.32,6.31,6.31,0,0,1-6.3,6.32"/></clipPath><clipPath id="clip-path-13"><path class="cls-1" d="M-55.58-1167.35a6.32,6.32,0,0,1-6.3-6.33,6.31,6.31,0,0,1,6.3-6.32,6.31,6.31,0,0,1,6.3,6.32,6.32,6.32,0,0,1-6.3,6.33"/></clipPath><clipPath id="clip-path-14"><path class="cls-1" d="M-106-1449.71a6.31,6.31,0,0,1-6.3-6.32,6.3,6.3,0,0,1,6.3-6.32,6.3,6.3,0,0,1,6.3,6.32,6.31,6.31,0,0,1-6.3,6.32"/></clipPath><clipPath id="clip-path-15"><path class="cls-1" d="M-106-1393.24a6.31,6.31,0,0,1-6.3-6.32,6.3,6.3,0,0,1,6.3-6.32,6.3,6.3,0,0,1,6.3,6.32,6.31,6.31,0,0,1-6.3,6.32"/></clipPath><clipPath id="clip-path-16"><path class="cls-1" d="M-106-1336.77a6.31,6.31,0,0,1-6.3-6.32,6.31,6.31,0,0,1,6.3-6.32,6.31,6.31,0,0,1,6.3,6.32,6.31,6.31,0,0,1-6.3,6.32"/></clipPath><clipPath id="clip-path-17"><path class="cls-1" d="M-106-1282a6.31,6.31,0,0,1-6.3-6.33,6.31,6.31,0,0,1,6.3-6.32,6.31,6.31,0,0,1,6.3,6.32A6.31,6.31,0,0,1-106-1282"/></clipPath><clipPath id="clip-path-18"><path class="cls-1" d="M-106-1223.83a6.31,6.31,0,0,1-6.3-6.32,6.31,6.31,0,0,1,6.3-6.32,6.31,6.31,0,0,1,6.3,6.32,6.31,6.31,0,0,1-6.3,6.32"/></clipPath><clipPath id="clip-path-19"><path class="cls-1" d="M-106-1167.35a6.32,6.32,0,0,1-6.3-6.33A6.31,6.31,0,0,1-106-1180a6.31,6.31,0,0,1,6.3,6.32,6.32,6.32,0,0,1-6.3,6.33"/></clipPath><clipPath id="clip-path-20"><path class="cls-1" d="M-157.22-1449.71a6.31,6.31,0,0,1-6.3-6.32,6.3,6.3,0,0,1,6.3-6.32,6.3,6.3,0,0,1,6.3,6.32,6.31,6.31,0,0,1-6.3,6.32"/></clipPath><clipPath id="clip-path-21"><path class="cls-1" d="M-157.22-1393.24a6.31,6.31,0,0,1-6.3-6.32,6.3,6.3,0,0,1,6.3-6.32,6.3,6.3,0,0,1,6.3,6.32,6.31,6.31,0,0,1-6.3,6.32"/></clipPath><clipPath id="clip-path-22"><path class="cls-1" d="M-157.22-1336.77a6.31,6.31,0,0,1-6.3-6.32,6.31,6.31,0,0,1,6.3-6.32,6.31,6.31,0,0,1,6.3,6.32,6.31,6.31,0,0,1-6.3,6.32"/></clipPath><clipPath id="clip-path-23"><path class="cls-1" d="M-157.22-1282a6.31,6.31,0,0,1-6.3-6.33,6.31,6.31,0,0,1,6.3-6.32,6.31,6.31,0,0,1,6.3,6.32,6.31,6.31,0,0,1-6.3,6.33"/></clipPath><clipPath id="clip-path-24"><path class="cls-1" d="M-157.22-1223.83a6.31,6.31,0,0,1-6.3-6.32,6.31,6.31,0,0,1,6.3-6.32,6.31,6.31,0,0,1,6.3,6.32,6.31,6.31,0,0,1-6.3,6.32"/></clipPath><clipPath id="clip-path-25"><path class="cls-1" d="M-157.22-1167.35a6.32,6.32,0,0,1-6.3-6.33,6.31,6.31,0,0,1,6.3-6.32,6.31,6.31,0,0,1,6.3,6.32,6.32,6.32,0,0,1-6.3,6.33"/></clipPath><linearGradient id="linear-gradient" x1="838.35" y1="44.83" x2="793.28" y2="73.4" gradientTransform="matrix(-1, 0, 0, 1, 920.21, 0)" gradientUnits="userSpaceOnUse"><stop offset="0.01" stop-color="#c6783e"/><stop offset="0.54" stop-color="#ff9750"/></linearGradient><linearGradient id="linear-gradient-2" x1="51.41" y1="104.56" x2="-24.85" y2="63" gradientUnits="userSpaceOnUse"><stop offset="0" stop-color="#005a8e"/><stop offset="0.54" stop-color="#1a7db6"/></linearGradient></defs><polygon class="cls-27" points="75.53 10 24.79 44.46 24.79 103.78 75.53 68.02 126.27 103.78 126.27 44.46 75.53 10"/><polygon class="cls-28" points="75.53 68.02 75.53 10 126.27 44.46 126.27 103.78 75.53 68.02"/><polygon class="cls-29" points="55.77 81.99 5.03 46.22 5.03 105.54 55.77 140 106.51 105.54 106.51 46.22 55.77 81.99"/><polygon class="cls-30" points="55.77 81.99 55.77 140 5.03 105.54 5.03 46.22 55.77 81.99"/><path class="cls-31" d="M186.09,102.13H171a.91.91,0,0,1-.85-.61L151.62,48.23a.9.9,0,0,1,.85-1.2h7.89a8.49,8.49,0,0,1,8.19,6.22l10,35.82h.3l9.93-35.81A8.5,8.5,0,0,1,197,47h7.54a.9.9,0,0,1,.85,1.2L187,101.52A.92.92,0,0,1,186.09,102.13Z"/><path class="cls-31" d="M283.73,46.08c13.18,0,22.09,6.53,22.82,16.49a.9.9,0,0,1-.9,1H293.88a.88.88,0,0,1-.88-.74c-.65-3.92-4.2-6.36-9.47-6.36s-8.76,2.35-8.76,5.9c0,2.76,2.4,4.61,7.35,5.76l10.36,2.25c11.06,2.5,15.46,6.76,15.46,15,0,10.71-9.85,17.77-24.26,17.77-14.05,0-23-6.56-24.28-16.6a.92.92,0,0,1,.9-1h12.52a.91.91,0,0,1,.88.69c.95,4.22,4.63,6.57,10.38,6.57s9.35-2.25,9.35-5.86c0-2.85-1.9-4.35-6.9-5.55L276.37,79C266,76.66,260.66,71.3,260.66,63.24,260.66,52.89,269.76,46.08,283.73,46.08Z"/><path class="cls-31" d="M367.47,74.55c0,17.52-8.6,28.23-22.41,28.23-8,0-14.11-3.66-17.12-9.91h-.3v18.77a8.49,8.49,0,0,1-8.5,8.5h-5.21a.9.9,0,0,1-.9-.9V47.93a.9.9,0,0,1,.9-.9h12.61a.9.9,0,0,1,.9.9v8.51h.3c2.9-6.21,9.36-10.06,17.12-10.06C358.82,46.38,367.47,57,367.47,74.55Zm-15,0c0-9.9-4.95-16.36-12.51-16.36s-12.41,6.56-12.41,16.41S332.55,91,340,91,352.51,84.56,352.51,74.55Z"/><path class="cls-31" d="M371.86,86.26c0-10,7.66-15.66,21.72-16.51l12.91-.8a.9.9,0,0,0,.85-.9v-2.8c0-5.31-3.65-8.21-9.66-8.21-5,0-8.59,2.5-9.56,6.15a.94.94,0,0,1-.9.66H375.58a.89.89,0,0,1-.9-1c.92-10,10.26-16.8,23.6-16.8,14.16,0,23.42,7.26,23.42,18.27v36.88a.9.9,0,0,1-.9.9h-4.7a8.51,8.51,0,0,1-8.51-8.51h-.3c-3,5.75-9.81,9.16-16.86,9.16C379.82,102.78,371.86,96.12,371.86,86.26Zm35.48-4.35v-4l-11.56.8c-6.11.4-9.36,2.8-9.36,6.85s3.46,6.61,8.76,6.61C401.93,92.12,407.34,87.91,407.34,81.91Z"/><path class="cls-31" d="M229.48,46.08C213.32,46.08,203,57.29,203,74.81s10.26,28.27,27,28.27c12.47,0,22-6.16,24.51-15.6a1.71,1.71,0,0,0-1.64-2.17H242.68a1.87,1.87,0,0,0-1.53,1c-1.71,3.67-5.8,5.88-10.87,5.88A12.63,12.63,0,0,1,221,88.5a13.58,13.58,0,0,1-3.54-9.64V78h36.33a1.7,1.7,0,0,0,1.7-1.7V73.45C255.45,56.69,245.34,46.08,229.48,46.08ZM217.57,68.9C218.08,61.84,223,57,229.64,57s11.45,4.7,11.7,11.91Z"/></svg>