<svg xmlns="http://www.w3.org/2000/svg" xmlns:xlink="http://www.w3.org/1999/xlink" xmlns:lucid="lucid" width="681" height="820"><g transform="translate(-500 -40)" lucid:page-tab-id="0_0"><path d="M0 0h1870.4v1323.2H0z" fill="#fff"/><path d="M890 240c16.57 0 30 13.43 30 30v220c0 16.57-13.43 30-30 30H550c-16.57 0-30-13.43-30-30V270c0-16.57 13.43-30 30-30zM890 560c16.57 0 30 13.43 30 30v220c0 16.57-13.43 30-30 30H550c-16.57 0-30-13.43-30-30V590c0-16.57 13.43-30 30-30z" stroke="#1a7db6" stroke-width="2" fill="#1a7db6"/><path d="M620 420h200v40H620z" stroke="#000" stroke-width="2" fill="#fff"/><use xlink:href="#a" transform="matrix(1,0,0,1,625,425) translate(37.05 18.15)"/><use xlink:href="#b" transform="matrix(1,0,0,1,625,425) translate(123.95 18.15)"/><path d="M620 340h200v80H620z" stroke="#000" stroke-width="2" fill="#fff"/><use xlink:href="#a" transform="matrix(1,0,0,1,625,345) translate(2.0999999999999943 27.525)"/><use xlink:href="#c" transform="matrix(1,0,0,1,625,345) translate(89 27.525)"/><use xlink:href="#d" transform="matrix(1,0,0,1,625,345) translate(182.9 27.525)"/><use xlink:href="#e" transform="matrix(1,0,0,1,625,345) translate(61.55 49.125)"/><path d="M620 600h200v80H620z" stroke="#000" stroke-width="2" fill="#fff"/><use xlink:href="#f" transform="matrix(1,0,0,1,625,605) translate(54.12499999999999 38.4625)"/><path d="M620 740h200v80H620z" stroke="#000" stroke-width="2" fill="#fff"/><use xlink:href="#g" transform="matrix(1,0,0,1,625,745) translate(68.525 38.4625)"/><path d="M961 621.6h200v80H961z" stroke="#000" stroke-width="2" fill="#fff"/><use xlink:href="#h" transform="matrix(1,0,0,1,966,626.5999999999999) translate(27.174999999999983 38.4625)"/><use xlink:href="#i" transform="matrix(1,0,0,1,966,626.5999999999999) translate(89.02499999999999 38.4625)"/><path d="M720 182v98.5" stroke="#000" stroke-width="2" fill="none"/><path d="M721 182.03h-2V181h2z"/><path d="M720 295.76l-4.64-14.26h9.28z" stroke="#000" stroke-width="2"/><path d="M720 462v118.5" stroke="#000" stroke-width="2" fill="none"/><path d="M721 462.03h-2V461h2z"/><path d="M720 595.76l-4.64-14.26h9.28z" stroke="#000" stroke-width="2"/><path d="M720 682v38.5" stroke="#000" stroke-width="2" fill="none"/><path d="M721 682.03h-2V681h2z"/><path d="M720 735.76l-4.64-14.26h9.28z" stroke="#000" stroke-width="2"/><path d="M959 636.67h-4.27m-8.53 0h-8.54m-8.53 0h-8.54m-8.55 0h-8.53m-8.54 0h-8.53m-8.54 0h-8.52m-8.54 0h-8.53m-8.53 0h-4.27" stroke="#000" stroke-width="2" fill="none"/><path d="M960 637.67h-1.03v-2H960z"/><path d="M824.24 636.67l14.26-4.64v9.27z" stroke="#000" stroke-width="2"/><path d="M959 661.6h-3.96m-7.93 0h-7.92m-7.93 0h-7.93m-7.93 0h-7.94m-7.93 0h-7.93m-1.1 6.83v7.93m0 7.93v7.92m0 7.93v7.93m0 7.93v7.94m0 7.93v7.93m0 7.93v7.93m0 7.93v7.92m0 7.93v.55h-7.38m-7.93 0h-7.94m-7.93 0h-7.93m-7.93 0h-3.97" stroke="#000" stroke-width="2" fill="none"/><path d="M960 662.6h-1.03v-2H960z"/><path d="M824.24 780l14.26-4.64v9.28z" stroke="#000" stroke-width="2"/><path d="M961 480h200v80H961z" stroke="#000" stroke-width="2" fill="#fff"/><use xlink:href="#j" transform="matrix(1,0,0,1,966,485) translate(24.099999999999994 27.525)"/><use xlink:href="#k" transform="matrix(1,0,0,1,966,485) translate(98.05 27.525)"/><use xlink:href="#l" transform="matrix(1,0,0,1,966,485) translate(109 27.525)"/><use xlink:href="#m" transform="matrix(1,0,0,1,966,485) translate(36.099999999999994 49.125)"/><use xlink:href="#n" transform="matrix(1,0,0,1,966,485) translate(103 49.125)"/><path d="M1061 619.6v-3.34m0-6.68v-6.7m0-6.67v-6.67m0-6.7v-3.33" stroke="#000" stroke-width="2" fill="none"/><path d="M1062 620.6h-2v-1.03h2z"/><path d="M1061 564.24l4.64 14.26h-9.28z" stroke="#000" stroke-width="2"/><path d="M540 540h140v80H540z" stroke="#000" stroke-opacity="0" stroke-width="2" fill="#fff" fill-opacity="0"/><use xlink:href="#o" transform="matrix(1,0,0,1,545,545) translate(0 38.4625)"/><use xlink:href="#p" transform="matrix(1,0,0,1,545,545) translate(69.75000000000001 38.4625)"/><path d="M540 220h160v80H540z" stroke="#000" stroke-opacity="0" stroke-width="2" fill="#fff" fill-opacity="0"/><g><use xlink:href="#q" transform="matrix(1,0,0,1,545,225) translate(0 38.4625)"/><use xlink:href="#p" transform="matrix(1,0,0,1,545,225) translate(85.80000000000001 38.4625)"/></g><path d="M620 60h200v80H620z" stroke="#000" stroke-width="2" fill="#fff"/><g><use xlink:href="#r" transform="matrix(1,0,0,1,625,65) translate(45.525 38.4625)"/></g><path d="M620 140h200v40H620z" stroke="#000" stroke-width="2" fill="#fff"/><g><use xlink:href="#a" transform="matrix(1,0,0,1,625,145) translate(37.05 18.15)"/><use xlink:href="#b" transform="matrix(1,0,0,1,625,145) translate(123.95 18.15)"/></g><path d="M620 300h200v40H620z" stroke="#000" stroke-width="2" fill="#fff"/><g><use xlink:href="#a" transform="matrix(1,0,0,1,625,305) translate(37.05 18.15)"/><use xlink:href="#b" transform="matrix(1,0,0,1,625,305) translate(123.95 18.15)"/></g><defs><path d="M30-248c118-7 216 8 213 122C240-48 200 0 122 0H30v-248zM63-27c89 8 146-16 146-99s-60-101-146-95v194" id="s"/><path d="M100-194c62-1 85 37 85 99 1 63-27 99-86 99S16-35 15-95c0-66 28-99 85-99zM99-20c44 1 53-31 53-75 0-43-8-75-51-75s-53 32-53 75 10 74 51 75" id="t"/><path d="M96-169c-40 0-48 33-48 73s9 75 48 75c24 0 41-14 43-38l32 2c-6 37-31 61-74 61-59 0-76-41-82-99-10-93 101-131 147-64 4 7 5 14 7 22l-32 3c-4-21-16-35-41-35" id="u"/><path d="M84 4C-5 8 30-112 23-190h32v120c0 31 7 50 39 49 72-2 45-101 50-169h31l1 190h-30c-1-10 1-25-2-33-11 22-28 36-60 37" id="v"/><path d="M210-169c-67 3-38 105-44 169h-31v-121c0-29-5-50-35-48C34-165 62-65 56 0H25l-1-190h30c1 10-1 24 2 32 10-44 99-50 107 0 11-21 27-35 58-36 85-2 47 119 55 194h-31v-121c0-29-5-49-35-48" id="w"/><path d="M100-194c63 0 86 42 84 106H49c0 40 14 67 53 68 26 1 43-12 49-29l28 8c-11 28-37 45-77 45C44 4 14-33 15-96c1-61 26-98 85-98zm52 81c6-60-76-77-97-28-3 7-6 17-6 28h103" id="x"/><path d="M117-194c89-4 53 116 60 194h-32v-121c0-31-8-49-39-48C34-167 62-67 57 0H25l-1-190h30c1 10-1 24 2 32 11-22 29-35 61-36" id="y"/><path d="M59-47c-2 24 18 29 38 22v24C64 9 27 4 27-40v-127H5v-23h24l9-43h21v43h35v23H59v120" id="z"/><g id="a"><use transform="matrix(0.05,0,0,0.05,0,0)" xlink:href="#s"/><use transform="matrix(0.05,0,0,0.05,12.950000000000001,0)" xlink:href="#t"/><use transform="matrix(0.05,0,0,0.05,22.950000000000003,0)" xlink:href="#u"/><use transform="matrix(0.05,0,0,0.05,31.950000000000003,0)" xlink:href="#v"/><use transform="matrix(0.05,0,0,0.05,41.95,0)" xlink:href="#w"/><use transform="matrix(0.05,0,0,0.05,56.900000000000006,0)" xlink:href="#x"/><use transform="matrix(0.05,0,0,0.05,66.9,0)" xlink:href="#y"/><use transform="matrix(0.05,0,0,0.05,76.9,0)" xlink:href="#z"/></g><path d="M205 0l-28-72H64L36 0H1l101-248h38L239 0h-34zm-38-99l-47-123c-12 45-31 82-46 123h93" id="A"/><path d="M30-248c87 1 191-15 191 75 0 78-77 80-158 76V0H30v-248zm33 125c57 0 124 11 124-50 0-59-68-47-124-48v98" id="B"/><path d="M33 0v-248h34V0H33" id="C"/><g id="b"><use transform="matrix(0.05,0,0,0.05,0,0)" xlink:href="#A"/><use transform="matrix(0.05,0,0,0.05,12,0)" xlink:href="#B"/><use transform="matrix(0.05,0,0,0.05,24,0)" xlink:href="#C"/></g><path d="M114-163C36-179 61-72 57 0H25l-1-190h30c1 12-1 29 2 39 6-27 23-49 58-41v29" id="D"/><path d="M135-143c-3-34-86-38-87 0 15 53 115 12 119 90S17 21 10-45l28-5c4 36 97 45 98 0-10-56-113-15-118-90-4-57 82-63 122-42 12 7 21 19 24 35" id="E"/><path d="M24-231v-30h32v30H24zM24 0v-190h32V0H24" id="F"/><path d="M177-190C167-65 218 103 67 71c-23-6-38-20-44-43l32-5c15 47 100 32 89-28v-30C133-14 115 1 83 1 29 1 15-40 15-95c0-56 16-97 71-98 29-1 48 16 59 35 1-10 0-23 2-32h30zM94-22c36 0 50-32 50-73 0-42-14-75-50-75-39 0-46 34-46 75s6 73 46 73" id="G"/><g id="c"><use transform="matrix(0.05,0,0,0.05,0,0)" xlink:href="#B"/><use transform="matrix(0.05,0,0,0.05,12,0)" xlink:href="#D"/><use transform="matrix(0.05,0,0,0.05,17.95,0)" xlink:href="#t"/><use transform="matrix(0.05,0,0,0.05,27.950000000000003,0)" xlink:href="#u"/><use transform="matrix(0.05,0,0,0.05,36.95,0)" xlink:href="#x"/><use transform="matrix(0.05,0,0,0.05,46.95,0)" xlink:href="#E"/><use transform="matrix(0.05,0,0,0.05,55.95,0)" xlink:href="#E"/><use transform="matrix(0.05,0,0,0.05,64.95,0)" xlink:href="#F"/><use transform="matrix(0.05,0,0,0.05,68.9,0)" xlink:href="#y"/><use transform="matrix(0.05,0,0,0.05,78.9,0)" xlink:href="#G"/></g><path d="M0 4l72-265h28L28 4H0" id="H"/><use transform="matrix(0.05,0,0,0.05,0,0)" xlink:href="#H" id="d"/><path d="M85-194c31 0 48 13 60 33l-1-100h32l1 261h-30c-2-10 0-23-3-31C134-8 116 4 85 4 32 4 16-35 15-94c0-66 23-100 70-100zm9 24c-40 0-46 34-46 75 0 40 6 74 45 74 42 0 51-32 51-76 0-42-9-74-50-73" id="I"/><path d="M141 0L90-78 38 0H4l68-98-65-92h35l48 74 47-74h35l-64 92 68 98h-35" id="J"/><g id="e"><use transform="matrix(0.05,0,0,0.05,0,0)" xlink:href="#F"/><use transform="matrix(0.05,0,0,0.05,3.95,0)" xlink:href="#y"/><use transform="matrix(0.05,0,0,0.05,13.949999999999998,0)" xlink:href="#I"/><use transform="matrix(0.05,0,0,0.05,23.95,0)" xlink:href="#x"/><use transform="matrix(0.05,0,0,0.05,33.95,0)" xlink:href="#J"/><use transform="matrix(0.05,0,0,0.05,42.95,0)" xlink:href="#F"/><use transform="matrix(0.05,0,0,0.05,46.900000000000006,0)" xlink:href="#y"/><use transform="matrix(0.05,0,0,0.05,56.900000000000006,0)" xlink:href="#G"/></g><path d="M115-194c53 0 69 39 70 98 0 66-23 100-70 100C84 3 66-7 56-30L54 0H23l1-261h32v101c10-23 28-34 59-34zm-8 174c40 0 45-34 45-75 0-40-5-75-45-74-42 0-51 32-51 76 0 43 10 73 51 73" id="K"/><g id="f"><use transform="matrix(0.05,0,0,0.05,0,0)" xlink:href="#s"/><use transform="matrix(0.05,0,0,0.05,12.950000000000001,0)" xlink:href="#F"/><use transform="matrix(0.05,0,0,0.05,16.900000000000002,0)" xlink:href="#E"/><use transform="matrix(0.05,0,0,0.05,25.900000000000002,0)" xlink:href="#z"/><use transform="matrix(0.05,0,0,0.05,30.900000000000002,0)" xlink:href="#D"/><use transform="matrix(0.05,0,0,0.05,36.85,0)" xlink:href="#F"/><use transform="matrix(0.05,0,0,0.05,40.800000000000004,0)" xlink:href="#K"/><use transform="matrix(0.05,0,0,0.05,50.800000000000004,0)" xlink:href="#v"/><use transform="matrix(0.05,0,0,0.05,60.800000000000004,0)" xlink:href="#z"/><use transform="matrix(0.05,0,0,0.05,65.80000000000001,0)" xlink:href="#t"/><use transform="matrix(0.05,0,0,0.05,75.80000000000001,0)" xlink:href="#D"/></g><g id="g"><use transform="matrix(0.05,0,0,0.05,0,0)" xlink:href="#B"/><use transform="matrix(0.05,0,0,0.05,12,0)" xlink:href="#D"/><use transform="matrix(0.05,0,0,0.05,17.95,0)" xlink:href="#t"/><use transform="matrix(0.05,0,0,0.05,27.950000000000003,0)" xlink:href="#z"/><use transform="matrix(0.05,0,0,0.05,32.95,0)" xlink:href="#t"/><use transform="matrix(0.05,0,0,0.05,42.95,0)" xlink:href="#y"/></g><path d="M212-179c-10-28-35-45-73-45-59 0-87 40-87 99 0 60 29 101 89 101 43 0 62-24 78-52l27 14C228-24 195 4 139 4 59 4 22-46 18-125c-6-104 99-153 187-111 19 9 31 26 39 46" id="L"/><path d="M24 0v-261h32V0H24" id="M"/><g id="h"><use transform="matrix(0.05,0,0,0.05,0,0)" xlink:href="#L"/><use transform="matrix(0.05,0,0,0.05,12.950000000000001,0)" xlink:href="#M"/><use transform="matrix(0.05,0,0,0.05,16.900000000000002,0)" xlink:href="#v"/><use transform="matrix(0.05,0,0,0.05,26.900000000000002,0)" xlink:href="#E"/><use transform="matrix(0.05,0,0,0.05,35.900000000000006,0)" xlink:href="#z"/><use transform="matrix(0.05,0,0,0.05,40.900000000000006,0)" xlink:href="#x"/><use transform="matrix(0.05,0,0,0.05,50.900000000000006,0)" xlink:href="#D"/></g><g id="i"><use transform="matrix(0.05,0,0,0.05,0,0)" xlink:href="#u"/><use transform="matrix(0.05,0,0,0.05,9,0)" xlink:href="#t"/><use transform="matrix(0.05,0,0,0.05,19,0)" xlink:href="#y"/><use transform="matrix(0.05,0,0,0.05,29,0)" xlink:href="#z"/><use transform="matrix(0.05,0,0,0.05,34,0)" xlink:href="#D"/><use transform="matrix(0.05,0,0,0.05,39.95,0)" xlink:href="#t"/><use transform="matrix(0.05,0,0,0.05,49.95,0)" xlink:href="#M"/><use transform="matrix(0.05,0,0,0.05,53.900000000000006,0)" xlink:href="#M"/><use transform="matrix(0.05,0,0,0.05,57.85,0)" xlink:href="#x"/><use transform="matrix(0.05,0,0,0.05,67.85000000000001,0)" xlink:href="#D"/></g><path d="M185-189c-5-48-123-54-124 2 14 75 158 14 163 119 3 78-121 87-175 55-17-10-28-26-33-46l33-7c5 56 141 63 141-1 0-78-155-14-162-118-5-82 145-84 179-34 5 7 8 16 11 25" id="N"/><path d="M30 0v-248h33v221h125V0H30" id="O"/><path d="M160-131c35 5 61 23 61 61C221 17 115-2 30 0v-248c76 3 177-17 177 60 0 33-19 50-47 57zm-97-11c50-1 110 9 110-42 0-47-63-36-110-37v79zm0 115c55-2 124 14 124-45 0-56-70-42-124-44v89" id="P"/><path d="M143 0L79-87 56-68V0H24v-261h32v163l83-92h37l-77 82L181 0h-38" id="Q"/><g id="j"><use transform="matrix(0.05,0,0,0.05,0,0)" xlink:href="#N"/><use transform="matrix(0.05,0,0,0.05,12,0)" xlink:href="#O"/><use transform="matrix(0.05,0,0,0.05,22,0)" xlink:href="#t"/><use transform="matrix(0.05,0,0,0.05,32,0)" xlink:href="#P"/><use transform="matrix(0.05,0,0,0.05,44,0)" xlink:href="#D"/><use transform="matrix(0.05,0,0,0.05,49.95,0)" xlink:href="#t"/><use transform="matrix(0.05,0,0,0.05,59.95,0)" xlink:href="#Q"/></g><path d="M16-82v-28h88v28H16" id="R"/><use transform="matrix(0.05,0,0,0.05,0,0)" xlink:href="#R" id="k"/><path d="M108 0H70L1-190h34L89-25l56-165h34" id="S"/><g id="l"><use transform="matrix(0.05,0,0,0.05,0,0)" xlink:href="#E"/><use transform="matrix(0.05,0,0,0.05,9,0)" xlink:href="#x"/><use transform="matrix(0.05,0,0,0.05,19,0)" xlink:href="#D"/><use transform="matrix(0.05,0,0,0.05,24.95,0)" xlink:href="#S"/><use transform="matrix(0.05,0,0,0.05,33.95,0)" xlink:href="#F"/><use transform="matrix(0.05,0,0,0.05,37.900000000000006,0)" xlink:href="#u"/><use transform="matrix(0.05,0,0,0.05,46.900000000000006,0)" xlink:href="#x"/></g><path d="M141-36C126-15 110 5 73 4 37 3 15-17 15-53c-1-64 63-63 125-63 3-35-9-54-41-54-24 1-41 7-42 31l-33-3c5-37 33-52 76-52 45 0 72 20 72 64v82c-1 20 7 32 28 27v20c-31 9-61-2-59-35zM48-53c0 20 12 33 32 33 41-3 63-29 60-74-43 2-92-5-92 41" id="T"/><g id="m"><use transform="matrix(0.05,0,0,0.05,0,0)" xlink:href="#M"/><use transform="matrix(0.05,0,0,0.05,3.95,0)" xlink:href="#t"/><use transform="matrix(0.05,0,0,0.05,13.949999999999998,0)" xlink:href="#u"/><use transform="matrix(0.05,0,0,0.05,22.95,0)" xlink:href="#T"/><use transform="matrix(0.05,0,0,0.05,32.95,0)" xlink:href="#z"/><use transform="matrix(0.05,0,0,0.05,37.95,0)" xlink:href="#F"/><use transform="matrix(0.05,0,0,0.05,41.900000000000006,0)" xlink:href="#t"/><use transform="matrix(0.05,0,0,0.05,51.900000000000006,0)" xlink:href="#y"/></g><g id="n"><use transform="matrix(0.05,0,0,0.05,0,0)" xlink:href="#K"/><use transform="matrix(0.05,0,0,0.05,10,0)" xlink:href="#D"/><use transform="matrix(0.05,0,0,0.05,15.949999999999998,0)" xlink:href="#t"/><use transform="matrix(0.05,0,0,0.05,25.950000000000003,0)" xlink:href="#Q"/><use transform="matrix(0.05,0,0,0.05,34.95,0)" xlink:href="#x"/><use transform="matrix(0.05,0,0,0.05,44.95,0)" xlink:href="#D"/></g><path fill="#fff" d="M190-63c-7 42-38 67-86 67-59 0-84-38-90-98-12-110 154-137 174-36l-49 2c-2-19-15-32-35-32-30 0-35 28-38 64-6 74 65 87 74 30" id="U"/><path fill="#fff" d="M110-194c64 0 96 36 96 99 0 64-35 99-97 99-61 0-95-36-95-99 0-62 34-99 96-99zm-1 164c35 0 45-28 45-65 0-40-10-65-43-65-34 0-45 26-45 65 0 36 10 65 43 65" id="V"/><path fill="#fff" d="M135-194c87-1 58 113 63 194h-50c-7-57 23-157-34-157-59 0-34 97-39 157H25l-1-190h47c2 12-1 28 3 38 12-26 28-41 61-42" id="W"/><path fill="#fff" d="M115-3C79 11 28 4 28-45v-112H4v-33h27l15-45h31v45h36v33H77v99c-1 23 16 31 38 25v30" id="X"/><path fill="#fff" d="M185-48c-13 30-37 53-82 52C43 2 14-33 14-96s30-98 90-98c62 0 83 45 84 108H66c0 31 8 55 39 56 18 0 30-7 34-22zm-45-69c5-46-57-63-70-21-2 6-4 13-4 21h74" id="Y"/><g id="o"><use transform="matrix(0.05,0,0,0.05,0,0)" xlink:href="#U"/><use transform="matrix(0.05,0,0,0.05,10,0)" xlink:href="#V"/><use transform="matrix(0.05,0,0,0.05,20.950000000000003,0)" xlink:href="#W"/><use transform="matrix(0.05,0,0,0.05,31.900000000000006,0)" xlink:href="#X"/><use transform="matrix(0.05,0,0,0.05,37.85000000000001,0)" xlink:href="#Y"/><use transform="matrix(0.05,0,0,0.05,47.85000000000001,0)" xlink:href="#W"/><use transform="matrix(0.05,0,0,0.05,58.80000000000001,0)" xlink:href="#X"/></g><path fill="#fff" d="M88-194c31-1 46 15 58 34l-1-101h50l1 261h-48c-2-10 0-23-3-31C134-8 116 4 84 4 32 4 16-41 15-95c0-56 19-97 73-99zm17 164c33 0 40-30 41-66 1-37-9-64-41-64s-38 30-39 65c0 43 13 65 39 65" id="Z"/><g id="p"><use transform="matrix(0.05,0,0,0.05,0,0)" xlink:href="#W"/><use transform="matrix(0.05,0,0,0.05,10.950000000000001,0)" xlink:href="#V"/><use transform="matrix(0.05,0,0,0.05,21.900000000000002,0)" xlink:href="#Z"/><use transform="matrix(0.05,0,0,0.05,32.85,0)" xlink:href="#Y"/></g><path fill="#fff" d="M133-34C117-15 103 5 69 4 32 3 11-16 11-54c-1-60 55-63 116-61 1-26-3-47-28-47-18 1-26 9-28 27l-52-2c7-38 36-58 82-57s74 22 75 68l1 82c-1 14 12 18 25 15v27c-30 8-71 5-69-32zm-48 3c29 0 43-24 42-57-32 0-66-3-65 30 0 17 8 27 23 27" id="aa"/><path fill="#fff" d="M25-224v-37h50v37H25zM25 0v-190h50V0H25" id="ab"/><path fill="#fff" d="M135-150c-39-12-60 13-60 57V0H25l-1-190h47c2 13-1 29 3 40 6-28 27-53 61-41v41" id="ac"/><g id="q"><use transform="matrix(0.05,0,0,0.05,0,0)" xlink:href="#U"/><use transform="matrix(0.05,0,0,0.05,10,0)" xlink:href="#V"/><use transform="matrix(0.05,0,0,0.05,20.950000000000003,0)" xlink:href="#W"/><use transform="matrix(0.05,0,0,0.05,31.900000000000006,0)" xlink:href="#X"/><use transform="matrix(0.05,0,0,0.05,37.85000000000001,0)" xlink:href="#aa"/><use transform="matrix(0.05,0,0,0.05,47.85000000000001,0)" xlink:href="#ab"/><use transform="matrix(0.05,0,0,0.05,52.85,0)" xlink:href="#W"/><use transform="matrix(0.05,0,0,0.05,63.80000000000001,0)" xlink:href="#Y"/><use transform="matrix(0.05,0,0,0.05,73.80000000000001,0)" xlink:href="#ac"/></g><path d="M115-194c55 1 70 41 70 98S169 2 115 4C84 4 66-9 55-30l1 105H24l-1-265h31l2 30c10-21 28-34 59-34zm-8 174c40 0 45-34 45-75s-6-73-45-74c-42 0-51 32-51 76 0 43 10 73 51 73" id="ad"/><path d="M101-234c-31-9-42 10-38 44h38v23H63V0H32v-167H5v-23h27c-7-52 17-82 69-68v24" id="ae"/><g id="r"><use transform="matrix(0.05,0,0,0.05,0,0)" xlink:href="#S"/><use transform="matrix(0.05,0,0,0.05,9,0)" xlink:href="#x"/><use transform="matrix(0.05,0,0,0.05,19,0)" xlink:href="#E"/><use transform="matrix(0.05,0,0,0.05,28,0)" xlink:href="#ad"/><use transform="matrix(0.05,0,0,0.05,38,0)" xlink:href="#T"/><use transform="matrix(0.05,0,0,0.05,48,0)" xlink:href="#ae"/><use transform="matrix(0.05,0,0,0.05,53,0)" xlink:href="#x"/><use transform="matrix(0.05,0,0,0.05,63,0)" xlink:href="#x"/><use transform="matrix(0.05,0,0,0.05,73,0)" xlink:href="#I"/><use transform="matrix(0.05,0,0,0.05,83,0)" xlink:href="#x"/><use transform="matrix(0.05,0,0,0.05,93,0)" xlink:href="#D"/></g></defs></g></svg>