<svg xmlns="http://www.w3.org/2000/svg" xmlns:xlink="http://www.w3.org/1999/xlink" xmlns:lucid="lucid" width="620" height="680"><g transform="translate(-220 -160)" lucid:page-tab-id="0_0"><path d="M0 0h1870.4v1323.2H0z" fill="#fff"/><path d="M620 320h200v80H620z" stroke="#000" stroke-width="2" fill="#fff"/><use xlink:href="#a" transform="matrix(1,0,0,1,625,325) translate(37.05 38.4625)"/><use xlink:href="#b" transform="matrix(1,0,0,1,625,325) translate(123.95 38.4625)"/><path d="M620 460h200v80H620z" stroke="#000" stroke-width="2" fill="#fff"/><use xlink:href="#a" transform="matrix(1,0,0,1,625,465) translate(2.0999999999999943 27.525)"/><use xlink:href="#c" transform="matrix(1,0,0,1,625,465) translate(89 27.525)"/><use xlink:href="#d" transform="matrix(1,0,0,1,625,465) translate(182.9 27.525)"/><use xlink:href="#e" transform="matrix(1,0,0,1,625,465) translate(61.55 49.125)"/><path d="M620 600h200v80H620z" stroke="#000" stroke-width="2" fill="#fff"/><use xlink:href="#f" transform="matrix(1,0,0,1,625,605) translate(54.12499999999999 38.4625)"/><path d="M620 740h200v80H620z" stroke="#000" stroke-width="2" fill="#fff"/><use xlink:href="#g" transform="matrix(1,0,0,1,625,745) translate(41.025 38.4625)"/><use xlink:href="#h" transform="matrix(1,0,0,1,625,745) translate(108.975 38.4625)"/><path d="M240 600h200v80H240z" stroke="#000" stroke-width="2" fill="#fff"/><use xlink:href="#i" transform="matrix(1,0,0,1,245,605) translate(27.174999999999983 38.4625)"/><use xlink:href="#j" transform="matrix(1,0,0,1,245,605) translate(89.02499999999999 38.4625)"/><path d="M720 402v38.5" stroke="#000" stroke-width="2" fill="none"/><path d="M721 402.03h-2V401h2z"/><path d="M720 455.76l-4.64-14.26h9.28z" stroke="#000" stroke-width="2"/><path d="M720 542v38.5" stroke="#000" stroke-width="2" fill="none"/><path d="M721 542.03h-2V541h2z"/><path d="M720 595.76l-4.64-14.26h9.28z" stroke="#000" stroke-width="2"/><path d="M720 682v38.5" stroke="#000" stroke-width="2" fill="none"/><path d="M721 682.03h-2V681h2z"/><path d="M720 735.76l-4.64-14.26h9.28z" stroke="#000" stroke-width="2"/><path d="M442 621.33h88V500h70.5" fill="none"/><path d="M442 621.33h4.12m8.23 0h8.23m8.23 0h8.24m8.23 0h8.23m8.23 0h8.23m8.23 0h8.22m1.58-6.65v-8.23m0-8.23V590m0-8.24v-8.23m0-8.23v-8.23m0-8.23v-8.23m0-8.22v-8.23m0-8.23v-8.23m.54-7.7h8.23m8.23 0h8.23m8.23 0h8.23m8.22 0h8.23m8.23 0h4.12" stroke="#000" stroke-width="2" fill="none"/><path d="M442.03 622.33H441v-2h1.03z"/><path d="M615.76 500l-14.26 4.64v-9.28z" stroke="#000" stroke-width="2"/><path d="M442 658.67h88V780h70.5" fill="none"/><path d="M442 658.67h4.12m8.23 0h8.23m8.23 0h8.24m8.23 0h8.23m8.23 0h8.23m8.23 0h8.22m1.58 6.65v8.23m0 8.23V690m0 8.24v8.23m0 8.23v8.23m0 8.23v8.23m0 8.22v8.23m0 8.23v8.23m.54 7.7h8.23m8.23 0h8.23m8.23 0h8.23m8.22 0h8.23m8.23 0h4.12" stroke="#000" stroke-width="2" fill="none"/><path d="M442.03 659.67H441v-2h1.03z"/><path d="M615.76 780l-14.26 4.64v-9.28z" stroke="#000" stroke-width="2"/><path d="M620 180h200v80c-33.4-13.36-54.2-13.36-66.8-13.36-20 0-46.6 13.36-66.6 13.36-12.4 0-33.4 0-66.6-13.36z" stroke="#000" stroke-width="2" fill="#fff"/><g><use xlink:href="#k" transform="matrix(1,0,0,1,625,185) translate(54.05 32.2125)"/></g><path d="M720 255.1v45.4" stroke="#000" stroke-width="2" fill="none"/><path d="M721 255.1h-2v-.76l2-.5z"/><path d="M720 315.76l-4.64-14.26h9.28z" stroke="#000" stroke-width="2"/><defs><path d="M30-248c118-7 216 8 213 122C240-48 200 0 122 0H30v-248zM63-27c89 8 146-16 146-99s-60-101-146-95v194" id="l"/><path d="M100-194c62-1 85 37 85 99 1 63-27 99-86 99S16-35 15-95c0-66 28-99 85-99zM99-20c44 1 53-31 53-75 0-43-8-75-51-75s-53 32-53 75 10 74 51 75" id="m"/><path d="M96-169c-40 0-48 33-48 73s9 75 48 75c24 0 41-14 43-38l32 2c-6 37-31 61-74 61-59 0-76-41-82-99-10-93 101-131 147-64 4 7 5 14 7 22l-32 3c-4-21-16-35-41-35" id="n"/><path d="M84 4C-5 8 30-112 23-190h32v120c0 31 7 50 39 49 72-2 45-101 50-169h31l1 190h-30c-1-10 1-25-2-33-11 22-28 36-60 37" id="o"/><path d="M210-169c-67 3-38 105-44 169h-31v-121c0-29-5-50-35-48C34-165 62-65 56 0H25l-1-190h30c1 10-1 24 2 32 10-44 99-50 107 0 11-21 27-35 58-36 85-2 47 119 55 194h-31v-121c0-29-5-49-35-48" id="p"/><path d="M100-194c63 0 86 42 84 106H49c0 40 14 67 53 68 26 1 43-12 49-29l28 8c-11 28-37 45-77 45C44 4 14-33 15-96c1-61 26-98 85-98zm52 81c6-60-76-77-97-28-3 7-6 17-6 28h103" id="q"/><path d="M117-194c89-4 53 116 60 194h-32v-121c0-31-8-49-39-48C34-167 62-67 57 0H25l-1-190h30c1 10-1 24 2 32 11-22 29-35 61-36" id="r"/><path d="M59-47c-2 24 18 29 38 22v24C64 9 27 4 27-40v-127H5v-23h24l9-43h21v43h35v23H59v120" id="s"/><g id="a"><use transform="matrix(0.05,0,0,0.05,0,0)" xlink:href="#l"/><use transform="matrix(0.05,0,0,0.05,12.950000000000001,0)" xlink:href="#m"/><use transform="matrix(0.05,0,0,0.05,22.950000000000003,0)" xlink:href="#n"/><use transform="matrix(0.05,0,0,0.05,31.950000000000003,0)" xlink:href="#o"/><use transform="matrix(0.05,0,0,0.05,41.95,0)" xlink:href="#p"/><use transform="matrix(0.05,0,0,0.05,56.900000000000006,0)" xlink:href="#q"/><use transform="matrix(0.05,0,0,0.05,66.9,0)" xlink:href="#r"/><use transform="matrix(0.05,0,0,0.05,76.9,0)" xlink:href="#s"/></g><path d="M205 0l-28-72H64L36 0H1l101-248h38L239 0h-34zm-38-99l-47-123c-12 45-31 82-46 123h93" id="t"/><path d="M30-248c87 1 191-15 191 75 0 78-77 80-158 76V0H30v-248zm33 125c57 0 124 11 124-50 0-59-68-47-124-48v98" id="u"/><path d="M33 0v-248h34V0H33" id="v"/><g id="b"><use transform="matrix(0.05,0,0,0.05,0,0)" xlink:href="#t"/><use transform="matrix(0.05,0,0,0.05,12,0)" xlink:href="#u"/><use transform="matrix(0.05,0,0,0.05,24,0)" xlink:href="#v"/></g><path d="M114-163C36-179 61-72 57 0H25l-1-190h30c1 12-1 29 2 39 6-27 23-49 58-41v29" id="w"/><path d="M135-143c-3-34-86-38-87 0 15 53 115 12 119 90S17 21 10-45l28-5c4 36 97 45 98 0-10-56-113-15-118-90-4-57 82-63 122-42 12 7 21 19 24 35" id="x"/><path d="M24-231v-30h32v30H24zM24 0v-190h32V0H24" id="y"/><path d="M177-190C167-65 218 103 67 71c-23-6-38-20-44-43l32-5c15 47 100 32 89-28v-30C133-14 115 1 83 1 29 1 15-40 15-95c0-56 16-97 71-98 29-1 48 16 59 35 1-10 0-23 2-32h30zM94-22c36 0 50-32 50-73 0-42-14-75-50-75-39 0-46 34-46 75s6 73 46 73" id="z"/><g id="c"><use transform="matrix(0.05,0,0,0.05,0,0)" xlink:href="#u"/><use transform="matrix(0.05,0,0,0.05,12,0)" xlink:href="#w"/><use transform="matrix(0.05,0,0,0.05,17.95,0)" xlink:href="#m"/><use transform="matrix(0.05,0,0,0.05,27.950000000000003,0)" xlink:href="#n"/><use transform="matrix(0.05,0,0,0.05,36.95,0)" xlink:href="#q"/><use transform="matrix(0.05,0,0,0.05,46.95,0)" xlink:href="#x"/><use transform="matrix(0.05,0,0,0.05,55.95,0)" xlink:href="#x"/><use transform="matrix(0.05,0,0,0.05,64.95,0)" xlink:href="#y"/><use transform="matrix(0.05,0,0,0.05,68.9,0)" xlink:href="#r"/><use transform="matrix(0.05,0,0,0.05,78.9,0)" xlink:href="#z"/></g><path d="M0 4l72-265h28L28 4H0" id="A"/><use transform="matrix(0.05,0,0,0.05,0,0)" xlink:href="#A" id="d"/><path d="M85-194c31 0 48 13 60 33l-1-100h32l1 261h-30c-2-10 0-23-3-31C134-8 116 4 85 4 32 4 16-35 15-94c0-66 23-100 70-100zm9 24c-40 0-46 34-46 75 0 40 6 74 45 74 42 0 51-32 51-76 0-42-9-74-50-73" id="B"/><path d="M141 0L90-78 38 0H4l68-98-65-92h35l48 74 47-74h35l-64 92 68 98h-35" id="C"/><g id="e"><use transform="matrix(0.05,0,0,0.05,0,0)" xlink:href="#y"/><use transform="matrix(0.05,0,0,0.05,3.95,0)" xlink:href="#r"/><use transform="matrix(0.05,0,0,0.05,13.949999999999998,0)" xlink:href="#B"/><use transform="matrix(0.05,0,0,0.05,23.95,0)" xlink:href="#q"/><use transform="matrix(0.05,0,0,0.05,33.95,0)" xlink:href="#C"/><use transform="matrix(0.05,0,0,0.05,42.95,0)" xlink:href="#y"/><use transform="matrix(0.05,0,0,0.05,46.900000000000006,0)" xlink:href="#r"/><use transform="matrix(0.05,0,0,0.05,56.900000000000006,0)" xlink:href="#z"/></g><path d="M115-194c53 0 69 39 70 98 0 66-23 100-70 100C84 3 66-7 56-30L54 0H23l1-261h32v101c10-23 28-34 59-34zm-8 174c40 0 45-34 45-75 0-40-5-75-45-74-42 0-51 32-51 76 0 43 10 73 51 73" id="D"/><g id="f"><use transform="matrix(0.05,0,0,0.05,0,0)" xlink:href="#l"/><use transform="matrix(0.05,0,0,0.05,12.950000000000001,0)" xlink:href="#y"/><use transform="matrix(0.05,0,0,0.05,16.900000000000002,0)" xlink:href="#x"/><use transform="matrix(0.05,0,0,0.05,25.900000000000002,0)" xlink:href="#s"/><use transform="matrix(0.05,0,0,0.05,30.900000000000002,0)" xlink:href="#w"/><use transform="matrix(0.05,0,0,0.05,36.85,0)" xlink:href="#y"/><use transform="matrix(0.05,0,0,0.05,40.800000000000004,0)" xlink:href="#D"/><use transform="matrix(0.05,0,0,0.05,50.800000000000004,0)" xlink:href="#o"/><use transform="matrix(0.05,0,0,0.05,60.800000000000004,0)" xlink:href="#s"/><use transform="matrix(0.05,0,0,0.05,65.80000000000001,0)" xlink:href="#m"/><use transform="matrix(0.05,0,0,0.05,75.80000000000001,0)" xlink:href="#w"/></g><path d="M212-179c-10-28-35-45-73-45-59 0-87 40-87 99 0 60 29 101 89 101 43 0 62-24 78-52l27 14C228-24 195 4 139 4 59 4 22-46 18-125c-6-104 99-153 187-111 19 9 31 26 39 46" id="E"/><g id="g"><use transform="matrix(0.05,0,0,0.05,0,0)" xlink:href="#E"/><use transform="matrix(0.05,0,0,0.05,12.950000000000001,0)" xlink:href="#m"/><use transform="matrix(0.05,0,0,0.05,22.950000000000003,0)" xlink:href="#r"/><use transform="matrix(0.05,0,0,0.05,32.95,0)" xlink:href="#s"/><use transform="matrix(0.05,0,0,0.05,37.95,0)" xlink:href="#q"/><use transform="matrix(0.05,0,0,0.05,47.95,0)" xlink:href="#r"/><use transform="matrix(0.05,0,0,0.05,57.95,0)" xlink:href="#s"/></g><g id="h"><use transform="matrix(0.05,0,0,0.05,0,0)" xlink:href="#r"/><use transform="matrix(0.05,0,0,0.05,10,0)" xlink:href="#m"/><use transform="matrix(0.05,0,0,0.05,20,0)" xlink:href="#B"/><use transform="matrix(0.05,0,0,0.05,30,0)" xlink:href="#q"/></g><path d="M24 0v-261h32V0H24" id="F"/><g id="i"><use transform="matrix(0.05,0,0,0.05,0,0)" xlink:href="#E"/><use transform="matrix(0.05,0,0,0.05,12.950000000000001,0)" xlink:href="#F"/><use transform="matrix(0.05,0,0,0.05,16.900000000000002,0)" xlink:href="#o"/><use transform="matrix(0.05,0,0,0.05,26.900000000000002,0)" xlink:href="#x"/><use transform="matrix(0.05,0,0,0.05,35.900000000000006,0)" xlink:href="#s"/><use transform="matrix(0.05,0,0,0.05,40.900000000000006,0)" xlink:href="#q"/><use transform="matrix(0.05,0,0,0.05,50.900000000000006,0)" xlink:href="#w"/></g><g id="j"><use transform="matrix(0.05,0,0,0.05,0,0)" xlink:href="#n"/><use transform="matrix(0.05,0,0,0.05,9,0)" xlink:href="#m"/><use transform="matrix(0.05,0,0,0.05,19,0)" xlink:href="#r"/><use transform="matrix(0.05,0,0,0.05,29,0)" xlink:href="#s"/><use transform="matrix(0.05,0,0,0.05,34,0)" xlink:href="#w"/><use transform="matrix(0.05,0,0,0.05,39.95,0)" xlink:href="#m"/><use transform="matrix(0.05,0,0,0.05,49.95,0)" xlink:href="#F"/><use transform="matrix(0.05,0,0,0.05,53.900000000000006,0)" xlink:href="#F"/><use transform="matrix(0.05,0,0,0.05,57.85,0)" xlink:href="#q"/><use transform="matrix(0.05,0,0,0.05,67.85000000000001,0)" xlink:href="#w"/></g><g id="k"><use transform="matrix(0.05,0,0,0.05,0,0)" xlink:href="#l"/><use transform="matrix(0.05,0,0,0.05,12.950000000000001,0)" xlink:href="#m"/><use transform="matrix(0.05,0,0,0.05,22.950000000000003,0)" xlink:href="#n"/><use transform="matrix(0.05,0,0,0.05,31.950000000000003,0)" xlink:href="#o"/><use transform="matrix(0.05,0,0,0.05,41.95,0)" xlink:href="#p"/><use transform="matrix(0.05,0,0,0.05,56.900000000000006,0)" xlink:href="#q"/><use transform="matrix(0.05,0,0,0.05,66.9,0)" xlink:href="#r"/><use transform="matrix(0.05,0,0,0.05,76.9,0)" xlink:href="#s"/></g></defs></g></svg>