<svg xmlns="http://www.w3.org/2000/svg" xmlns:xlink="http://www.w3.org/1999/xlink" xmlns:lucid="lucid" width="1000" height="1100"><g transform="translate(-120 -120)" lucid:page-tab-id="0_0"><path d="M0 0h1870.4v1323.2H0z" fill="#fff"/><path d="M140 520h960v680H140z" stroke="#000" stroke-width="2" fill="#e5e5e5"/><use xlink:href="#a" transform="matrix(1,0,0,1,145,525) translate(0 14.4)"/><use xlink:href="#b" transform="matrix(1,0,0,1,145,525) translate(61.95 14.4)"/><path d="M160 680h920v500H160z" stroke="#000" stroke-width="2" fill="#fff"/><use xlink:href="#c" transform="matrix(1,0,0,1,165,685) translate(0 14.4)"/><path d="M860 860h200v300H860z" stroke="#000" stroke-width="2" fill="#e5e5e5"/><use xlink:href="#d" transform="matrix(1,0,0,1,865,865) translate(0 14.4)"/><path d="M620 860h200v300H620z" stroke="#000" stroke-width="2" fill="#e5e5e5"/><use xlink:href="#e" transform="matrix(1,0,0,1,625,865) translate(0 14.4)"/><use xlink:href="#f" transform="matrix(1,0,0,1,625,865) translate(32.95 14.4)"/><path d="M180 860h400v300H180z" stroke="#000" stroke-width="2" fill="#e5e5e5"/><use xlink:href="#g" transform="matrix(1,0,0,1,185,865) translate(0 14.4)"/><path d="M640 140h160v80c-26.72-13.36-43.36-13.36-53.44-13.36-16 0-37.28 13.36-53.28 13.36-9.92 0-26.72 0-53.28-13.36z" stroke="#000" stroke-width="2" fill="#fff"/><use xlink:href="#h" transform="matrix(1,0,0,1,645,145) translate(41.525 32.2125)"/><path d="M640 280h160v80H640z" stroke="#000" stroke-width="2" fill="#fff"/><use xlink:href="#i" transform="matrix(1,0,0,1,645,285) translate(17.049999999999997 38.4625)"/><use xlink:href="#j" transform="matrix(1,0,0,1,645,285) translate(103.95 38.4625)"/><path d="M640 420h160v80H640z" stroke="#000" stroke-width="2" fill="#fff"/><use xlink:href="#k" transform="matrix(1,0,0,1,645,425) translate(34.12499999999999 38.4625)"/><path d="M640 560h160v80H640z" stroke="#000" stroke-width="2" fill="#fff"/><use xlink:href="#l" transform="matrix(1,0,0,1,645,565) translate(28.049999999999997 27.525)"/><use xlink:href="#m" transform="matrix(1,0,0,1,645,565) translate(48.025 49.125)"/><path d="M640 700h160v80H640z" stroke="#000" stroke-width="2" fill="#fff"/><use xlink:href="#n" transform="matrix(1,0,0,1,645,705) translate(5.574999999999989 27.525)"/><use xlink:href="#o" transform="matrix(1,0,0,1,645,705) translate(37.575 49.125)"/><path d="M640 900h160v80H640z" stroke="#000" stroke-width="2" fill="#fff"/><use xlink:href="#p" transform="matrix(1,0,0,1,645,905) translate(34.05 27.525)"/><use xlink:href="#q" transform="matrix(1,0,0,1,645,905) translate(42.1 49.125)"/><path d="M800 1130c0 5.52-35.82 10-80 10s-80-4.48-80-10v-80c0-5.52 35.82-10 80-10s80 4.48 80 10z" stroke="#000" stroke-width="2" fill="#fff"/><path d="M800 1050c0 5.52-35.82 10-80 10s-80-4.48-80-10" stroke="#000" stroke-width="2" fill="none"/><use xlink:href="#i" transform="matrix(1,0,0,1,645,1065) translate(11.574999999999996 38.4625)"/><use xlink:href="#r" transform="matrix(1,0,0,1,645,1065) translate(98.475 38.4625)"/><path d="M880 900h160v80H880z" stroke="#000" stroke-width="2" fill="#fff"/><use xlink:href="#p" transform="matrix(1,0,0,1,885,905) translate(34.05 27.525)"/><use xlink:href="#q" transform="matrix(1,0,0,1,885,905) translate(42.1 49.125)"/><path d="M1040 1130c0 5.52-35.82 10-80 10s-80-4.48-80-10v-80c0-5.52 35.82-10 80-10s80 4.48 80 10z" stroke="#000" stroke-width="2" fill="#fff"/><path d="M1040 1050c0 5.52-35.82 10-80 10s-80-4.48-80-10" stroke="#000" stroke-width="2" fill="none"/><use xlink:href="#i" transform="matrix(1,0,0,1,885,1065) translate(11.574999999999996 38.4625)"/><use xlink:href="#r" transform="matrix(1,0,0,1,885,1065) translate(98.475 38.4625)"/><path d="M300 900h160v80H300z" stroke="#000" stroke-width="2" fill="#fff"/><use xlink:href="#p" transform="matrix(1,0,0,1,305,905) translate(34.05 27.525)"/><use xlink:href="#q" transform="matrix(1,0,0,1,305,905) translate(42.1 49.125)"/><path d="M560 1130c0 5.52-35.82 10-80 10s-80-4.48-80-10v-80c0-5.52 35.82-10 80-10s80 4.48 80 10z" stroke="#000" stroke-width="2" fill="#fff"/><path d="M560 1050c0 5.52-35.82 10-80 10s-80-4.48-80-10" stroke="#000" stroke-width="2" fill="none"/><use xlink:href="#i" transform="matrix(1,0,0,1,405,1065) translate(11.574999999999996 38.4625)"/><use xlink:href="#r" transform="matrix(1,0,0,1,405,1065) translate(98.475 38.4625)"/><path d="M360 1130c0 5.52-35.82 10-80 10s-80-4.48-80-10v-80c0-5.52 35.82-10 80-10s80 4.48 80 10z" stroke="#000" stroke-width="2" fill="#fff"/><path d="M360 1050c0 5.52-35.82 10-80 10s-80-4.48-80-10" stroke="#000" stroke-width="2" fill="none"/><use xlink:href="#s" transform="matrix(1,0,0,1,205,1065) translate(37.05 38.4625)"/><path d="M280 1038v-28h79.33v-10.5" stroke="#000" stroke-width="2" fill="none"/><path d="M281 1039.03l-1-.03h-1v-1.03h2z"/><path d="M359.33 984.24l4.64 14.26h-9.27z" stroke="#000" stroke-width="2"/><path d="M480 1038v-28h-75.33v-10.5" stroke="#000" stroke-width="2" fill="none"/><path d="M481 1039.03l-1-.03h-1v-1.03h2z"/><path d="M404.67 984.24l4.63 14.26h-9.27z" stroke="#000" stroke-width="2"/><path d="M720 1038v-38.5" stroke="#000" stroke-width="2" fill="none"/><path d="M721 1039.03l-1-.03h-1v-1.03h2z"/><path d="M720 984.24l4.64 14.26h-9.28z" stroke="#000" stroke-width="2"/><path d="M960 1038v-38.5" stroke="#000" stroke-width="2" fill="none"/><path d="M961 1039.03l-1-.03h-1v-1.03h2z"/><path d="M960 984.24l4.64 14.26h-9.28z" stroke="#000" stroke-width="2"/><path d="M380 898v-58h318v-40.5" stroke="#000" stroke-width="2" fill="none"/><path d="M381 899h-2v-1.03h2z"/><path d="M698 784.24l4.64 14.26h-9.28z" stroke="#000" stroke-width="2"/><path d="M720 898v-98.5" stroke="#000" stroke-width="2" fill="none"/><path d="M721 899h-2v-1.03h2z"/><path d="M720 784.24l4.64 14.26h-9.28z" stroke="#000" stroke-width="2"/><path d="M960 898v-58H740.67v-40.5" stroke="#000" stroke-width="2" fill="none"/><path d="M961 899h-2v-1.03h2z"/><path d="M740.67 784.24l4.63 14.26h-9.27z" stroke="#000" stroke-width="2"/><path d="M720 698v-38.5" stroke="#000" stroke-width="2" fill="none"/><path d="M721 699h-2v-1.03h2z"/><path d="M720 644.24l4.64 14.26h-9.28z" stroke="#000" stroke-width="2"/><path d="M720 215.1v45.4" stroke="#000" stroke-width="2" fill="none"/><path d="M721 215.13h-2v-.7l2-.64z"/><path d="M720 275.76l-4.64-14.26h9.28z" stroke="#000" stroke-width="2"/><path d="M720 362v38.5" stroke="#000" stroke-width="2" fill="none"/><path d="M721 362.03h-2V361h2z"/><path d="M720 415.76l-4.64-14.26h9.28z" stroke="#000" stroke-width="2"/><path d="M720 502v38.5" stroke="#000" stroke-width="2" fill="none"/><path d="M721 502.03h-2V501h2z"/><path d="M720 555.76l-4.64-14.26h9.28z" stroke="#000" stroke-width="2"/><defs><path d="M185-189c-5-48-123-54-124 2 14 75 158 14 163 119 3 78-121 87-175 55-17-10-28-26-33-46l33-7c5 56 141 63 141-1 0-78-155-14-162-118-5-82 145-84 179-34 5 7 8 16 11 25" id="t"/><path d="M100-194c63 0 86 42 84 106H49c0 40 14 67 53 68 26 1 43-12 49-29l28 8c-11 28-37 45-77 45C44 4 14-33 15-96c1-61 26-98 85-98zm52 81c6-60-76-77-97-28-3 7-6 17-6 28h103" id="u"/><path d="M141-36C126-15 110 5 73 4 37 3 15-17 15-53c-1-64 63-63 125-63 3-35-9-54-41-54-24 1-41 7-42 31l-33-3c5-37 33-52 76-52 45 0 72 20 72 64v82c-1 20 7 32 28 27v20c-31 9-61-2-59-35zM48-53c0 20 12 33 32 33 41-3 63-29 60-74-43 2-92-5-92 41" id="v"/><path d="M114-163C36-179 61-72 57 0H25l-1-190h30c1 12-1 29 2 39 6-27 23-49 58-41v29" id="w"/><path d="M96-169c-40 0-48 33-48 73s9 75 48 75c24 0 41-14 43-38l32 2c-6 37-31 61-74 61-59 0-76-41-82-99-10-93 101-131 147-64 4 7 5 14 7 22l-32 3c-4-21-16-35-41-35" id="x"/><path d="M106-169C34-169 62-67 57 0H25v-261h32l-1 103c12-21 28-36 61-36 89 0 53 116 60 194h-32v-121c2-32-8-49-39-48" id="y"/><g id="a"><use transform="matrix(0.05,0,0,0.05,0,0)" xlink:href="#t"/><use transform="matrix(0.05,0,0,0.05,12,0)" xlink:href="#u"/><use transform="matrix(0.05,0,0,0.05,22,0)" xlink:href="#v"/><use transform="matrix(0.05,0,0,0.05,32,0)" xlink:href="#w"/><use transform="matrix(0.05,0,0,0.05,37.95,0)" xlink:href="#x"/><use transform="matrix(0.05,0,0,0.05,46.95,0)" xlink:href="#y"/></g><path d="M117-194c89-4 53 116 60 194h-32v-121c0-31-8-49-39-48C34-167 62-67 57 0H25l-1-190h30c1 10-1 24 2 32 11-22 29-35 61-36" id="z"/><path d="M100-194c62-1 85 37 85 99 1 63-27 99-86 99S16-35 15-95c0-66 28-99 85-99zM99-20c44 1 53-31 53-75 0-43-8-75-51-75s-53 32-53 75 10 74 51 75" id="A"/><path d="M85-194c31 0 48 13 60 33l-1-100h32l1 261h-30c-2-10 0-23-3-31C134-8 116 4 85 4 32 4 16-35 15-94c0-66 23-100 70-100zm9 24c-40 0-46 34-46 75 0 40 6 74 45 74 42 0 51-32 51-76 0-42-9-74-50-73" id="B"/><g id="b"><use transform="matrix(0.05,0,0,0.05,0,0)" xlink:href="#z"/><use transform="matrix(0.05,0,0,0.05,10,0)" xlink:href="#A"/><use transform="matrix(0.05,0,0,0.05,20,0)" xlink:href="#B"/><use transform="matrix(0.05,0,0,0.05,30,0)" xlink:href="#u"/></g><path d="M30-248c118-7 216 8 213 122C240-48 200 0 122 0H30v-248zM63-27c89 8 146-16 146-99s-60-101-146-95v194" id="C"/><path d="M84 4C-5 8 30-112 23-190h32v120c0 31 7 50 39 49 72-2 45-101 50-169h31l1 190h-30c-1-10 1-25-2-33-11 22-28 36-60 37" id="D"/><path d="M210-169c-67 3-38 105-44 169h-31v-121c0-29-5-50-35-48C34-165 62-65 56 0H25l-1-190h30c1 10-1 24 2 32 10-44 99-50 107 0 11-21 27-35 58-36 85-2 47 119 55 194h-31v-121c0-29-5-49-35-48" id="E"/><path d="M59-47c-2 24 18 29 38 22v24C64 9 27 4 27-40v-127H5v-23h24l9-43h21v43h35v23H59v120" id="F"/><path d="M160-131c35 5 61 23 61 61C221 17 115-2 30 0v-248c76 3 177-17 177 60 0 33-19 50-47 57zm-97-11c50-1 110 9 110-42 0-47-63-36-110-37v79zm0 115c55-2 124 14 124-45 0-56-70-42-124-44v89" id="G"/><g id="c"><use transform="matrix(0.05,0,0,0.05,0,0)" xlink:href="#C"/><use transform="matrix(0.05,0,0,0.05,12.950000000000001,0)" xlink:href="#A"/><use transform="matrix(0.05,0,0,0.05,22.950000000000003,0)" xlink:href="#x"/><use transform="matrix(0.05,0,0,0.05,31.950000000000003,0)" xlink:href="#D"/><use transform="matrix(0.05,0,0,0.05,41.95,0)" xlink:href="#E"/><use transform="matrix(0.05,0,0,0.05,56.900000000000006,0)" xlink:href="#u"/><use transform="matrix(0.05,0,0,0.05,66.9,0)" xlink:href="#z"/><use transform="matrix(0.05,0,0,0.05,76.9,0)" xlink:href="#F"/><use transform="matrix(0.05,0,0,0.05,81.9,0)" xlink:href="#C"/><use transform="matrix(0.05,0,0,0.05,94.85000000000001,0)" xlink:href="#G"/></g><path d="M233-177c-1 41-23 64-60 70L243 0h-38l-65-103H63V0H30v-248c88 3 205-21 203 71zM63-129c60-2 137 13 137-47 0-61-80-42-137-45v92" id="H"/><path d="M108 0H70L1-190h34L89-25l56-165h34" id="I"/><g id="d"><use transform="matrix(0.05,0,0,0.05,0,0)" xlink:href="#H"/><use transform="matrix(0.05,0,0,0.05,12.950000000000001,0)" xlink:href="#u"/><use transform="matrix(0.05,0,0,0.05,22.950000000000003,0)" xlink:href="#E"/><use transform="matrix(0.05,0,0,0.05,37.900000000000006,0)" xlink:href="#A"/><use transform="matrix(0.05,0,0,0.05,47.900000000000006,0)" xlink:href="#I"/><use transform="matrix(0.05,0,0,0.05,56.900000000000006,0)" xlink:href="#u"/><use transform="matrix(0.05,0,0,0.05,66.9,0)" xlink:href="#B"/></g><path d="M190 0L58-211 59 0H30v-248h39L202-35l-2-213h31V0h-41" id="J"/><g id="e"><use transform="matrix(0.05,0,0,0.05,0,0)" xlink:href="#J"/><use transform="matrix(0.05,0,0,0.05,12.950000000000001,0)" xlink:href="#A"/><use transform="matrix(0.05,0,0,0.05,22.950000000000003,0)" xlink:href="#F"/></g><path d="M179-190L93 31C79 59 56 82 12 73V49c39 6 53-20 64-50L1-190h34L92-34l54-156h33" id="K"/><g id="f"><use transform="matrix(0.05,0,0,0.05,0,0)" xlink:href="#w"/><use transform="matrix(0.05,0,0,0.05,5.95,0)" xlink:href="#u"/><use transform="matrix(0.05,0,0,0.05,15.949999999999998,0)" xlink:href="#v"/><use transform="matrix(0.05,0,0,0.05,25.950000000000003,0)" xlink:href="#B"/><use transform="matrix(0.05,0,0,0.05,35.95,0)" xlink:href="#K"/></g><g id="g"><use transform="matrix(0.05,0,0,0.05,0,0)" xlink:href="#H"/><use transform="matrix(0.05,0,0,0.05,12.950000000000001,0)" xlink:href="#u"/><use transform="matrix(0.05,0,0,0.05,22.950000000000003,0)" xlink:href="#v"/><use transform="matrix(0.05,0,0,0.05,32.95,0)" xlink:href="#B"/><use transform="matrix(0.05,0,0,0.05,42.95,0)" xlink:href="#K"/></g><path d="M145-31C134-9 116 4 85 4 32 4 16-35 15-94c0-59 17-99 70-100 32-1 48 14 60 33 0-11-1-24 2-32h30l-1 268h-32zM93-21c41 0 51-33 51-76s-8-73-50-73c-40 0-46 35-46 75s5 74 45 74" id="L"/><path d="M135-143c-3-34-86-38-87 0 15 53 115 12 119 90S17 21 10-45l28-5c4 36 97 45 98 0-10-56-113-15-118-90-4-57 82-63 122-42 12 7 21 19 24 35" id="M"/><g id="h"><use transform="matrix(0.05,0,0,0.05,0,0)" xlink:href="#H"/><use transform="matrix(0.05,0,0,0.05,12.950000000000001,0)" xlink:href="#u"/><use transform="matrix(0.05,0,0,0.05,22.950000000000003,0)" xlink:href="#L"/><use transform="matrix(0.05,0,0,0.05,32.95,0)" xlink:href="#D"/><use transform="matrix(0.05,0,0,0.05,42.95,0)" xlink:href="#u"/><use transform="matrix(0.05,0,0,0.05,52.95,0)" xlink:href="#M"/><use transform="matrix(0.05,0,0,0.05,61.95,0)" xlink:href="#F"/></g><g id="i"><use transform="matrix(0.05,0,0,0.05,0,0)" xlink:href="#C"/><use transform="matrix(0.05,0,0,0.05,12.950000000000001,0)" xlink:href="#A"/><use transform="matrix(0.05,0,0,0.05,22.950000000000003,0)" xlink:href="#x"/><use transform="matrix(0.05,0,0,0.05,31.950000000000003,0)" xlink:href="#D"/><use transform="matrix(0.05,0,0,0.05,41.95,0)" xlink:href="#E"/><use transform="matrix(0.05,0,0,0.05,56.900000000000006,0)" xlink:href="#u"/><use transform="matrix(0.05,0,0,0.05,66.9,0)" xlink:href="#z"/><use transform="matrix(0.05,0,0,0.05,76.9,0)" xlink:href="#F"/></g><path d="M205 0l-28-72H64L36 0H1l101-248h38L239 0h-34zm-38-99l-47-123c-12 45-31 82-46 123h93" id="N"/><path d="M30-248c87 1 191-15 191 75 0 78-77 80-158 76V0H30v-248zm33 125c57 0 124 11 124-50 0-59-68-47-124-48v98" id="O"/><path d="M33 0v-248h34V0H33" id="P"/><g id="j"><use transform="matrix(0.05,0,0,0.05,0,0)" xlink:href="#N"/><use transform="matrix(0.05,0,0,0.05,12,0)" xlink:href="#O"/><use transform="matrix(0.05,0,0,0.05,24,0)" xlink:href="#P"/></g><path d="M24-231v-30h32v30H24zM24 0v-190h32V0H24" id="Q"/><path d="M115-194c53 0 69 39 70 98 0 66-23 100-70 100C84 3 66-7 56-30L54 0H23l1-261h32v101c10-23 28-34 59-34zm-8 174c40 0 45-34 45-75 0-40-5-75-45-74-42 0-51 32-51 76 0 43 10 73 51 73" id="R"/><g id="k"><use transform="matrix(0.05,0,0,0.05,0,0)" xlink:href="#C"/><use transform="matrix(0.05,0,0,0.05,12.950000000000001,0)" xlink:href="#Q"/><use transform="matrix(0.05,0,0,0.05,16.900000000000002,0)" xlink:href="#M"/><use transform="matrix(0.05,0,0,0.05,25.900000000000002,0)" xlink:href="#F"/><use transform="matrix(0.05,0,0,0.05,30.900000000000002,0)" xlink:href="#w"/><use transform="matrix(0.05,0,0,0.05,36.85,0)" xlink:href="#Q"/><use transform="matrix(0.05,0,0,0.05,40.800000000000004,0)" xlink:href="#R"/><use transform="matrix(0.05,0,0,0.05,50.800000000000004,0)" xlink:href="#D"/><use transform="matrix(0.05,0,0,0.05,60.800000000000004,0)" xlink:href="#F"/><use transform="matrix(0.05,0,0,0.05,65.80000000000001,0)" xlink:href="#A"/><use transform="matrix(0.05,0,0,0.05,75.80000000000001,0)" xlink:href="#w"/></g><g id="l"><use transform="matrix(0.05,0,0,0.05,0,0)" xlink:href="#O"/><use transform="matrix(0.05,0,0,0.05,12,0)" xlink:href="#u"/><use transform="matrix(0.05,0,0,0.05,22,0)" xlink:href="#w"/><use transform="matrix(0.05,0,0,0.05,27.950000000000003,0)" xlink:href="#M"/><use transform="matrix(0.05,0,0,0.05,36.95,0)" xlink:href="#Q"/><use transform="matrix(0.05,0,0,0.05,40.900000000000006,0)" xlink:href="#M"/><use transform="matrix(0.05,0,0,0.05,49.900000000000006,0)" xlink:href="#F"/><use transform="matrix(0.05,0,0,0.05,54.900000000000006,0)" xlink:href="#u"/><use transform="matrix(0.05,0,0,0.05,64.9,0)" xlink:href="#z"/><use transform="matrix(0.05,0,0,0.05,74.9,0)" xlink:href="#x"/><use transform="matrix(0.05,0,0,0.05,83.9,0)" xlink:href="#u"/></g><path d="M177-190C167-65 218 103 67 71c-23-6-38-20-44-43l32-5c15 47 100 32 89-28v-30C133-14 115 1 83 1 29 1 15-40 15-95c0-56 16-97 71-98 29-1 48 16 59 35 1-10 0-23 2-32h30zM94-22c36 0 50-32 50-73 0-42-14-75-50-75-39 0-46 34-46 75s6 73 46 73" id="S"/><g id="m"><use transform="matrix(0.05,0,0,0.05,0,0)" xlink:href="#u"/><use transform="matrix(0.05,0,0,0.05,10,0)" xlink:href="#z"/><use transform="matrix(0.05,0,0,0.05,20,0)" xlink:href="#S"/><use transform="matrix(0.05,0,0,0.05,30,0)" xlink:href="#Q"/><use transform="matrix(0.05,0,0,0.05,33.95,0)" xlink:href="#z"/><use transform="matrix(0.05,0,0,0.05,43.95,0)" xlink:href="#u"/></g><g id="n"><use transform="matrix(0.05,0,0,0.05,0,0)" xlink:href="#C"/><use transform="matrix(0.05,0,0,0.05,12.950000000000001,0)" xlink:href="#A"/><use transform="matrix(0.05,0,0,0.05,22.950000000000003,0)" xlink:href="#x"/><use transform="matrix(0.05,0,0,0.05,31.950000000000003,0)" xlink:href="#D"/><use transform="matrix(0.05,0,0,0.05,41.95,0)" xlink:href="#E"/><use transform="matrix(0.05,0,0,0.05,56.900000000000006,0)" xlink:href="#u"/><use transform="matrix(0.05,0,0,0.05,66.9,0)" xlink:href="#z"/><use transform="matrix(0.05,0,0,0.05,76.9,0)" xlink:href="#F"/><use transform="matrix(0.05,0,0,0.05,81.9,0)" xlink:href="#t"/><use transform="matrix(0.05,0,0,0.05,93.9,0)" xlink:href="#D"/><use transform="matrix(0.05,0,0,0.05,103.9,0)" xlink:href="#R"/><use transform="matrix(0.05,0,0,0.05,113.9,0)" xlink:href="#C"/><use transform="matrix(0.05,0,0,0.05,126.85000000000001,0)" xlink:href="#G"/></g><path d="M24 0v-261h32V0H24" id="T"/><g id="o"><use transform="matrix(0.05,0,0,0.05,0,0)" xlink:href="#x"/><use transform="matrix(0.05,0,0,0.05,9,0)" xlink:href="#A"/><use transform="matrix(0.05,0,0,0.05,19,0)" xlink:href="#T"/><use transform="matrix(0.05,0,0,0.05,22.95,0)" xlink:href="#T"/><use transform="matrix(0.05,0,0,0.05,26.899999999999995,0)" xlink:href="#u"/><use transform="matrix(0.05,0,0,0.05,36.9,0)" xlink:href="#x"/><use transform="matrix(0.05,0,0,0.05,45.9,0)" xlink:href="#F"/><use transform="matrix(0.05,0,0,0.05,50.9,0)" xlink:href="#Q"/><use transform="matrix(0.05,0,0,0.05,54.85,0)" xlink:href="#A"/><use transform="matrix(0.05,0,0,0.05,64.85,0)" xlink:href="#z"/></g><g id="p"><use transform="matrix(0.05,0,0,0.05,0,0)" xlink:href="#C"/><use transform="matrix(0.05,0,0,0.05,12.950000000000001,0)" xlink:href="#A"/><use transform="matrix(0.05,0,0,0.05,22.950000000000003,0)" xlink:href="#x"/><use transform="matrix(0.05,0,0,0.05,31.950000000000003,0)" xlink:href="#D"/><use transform="matrix(0.05,0,0,0.05,41.95,0)" xlink:href="#E"/><use transform="matrix(0.05,0,0,0.05,56.900000000000006,0)" xlink:href="#u"/><use transform="matrix(0.05,0,0,0.05,66.9,0)" xlink:href="#z"/><use transform="matrix(0.05,0,0,0.05,76.9,0)" xlink:href="#F"/></g><g id="q"><use transform="matrix(0.05,0,0,0.05,0,0)" xlink:href="#w"/><use transform="matrix(0.05,0,0,0.05,5.95,0)" xlink:href="#u"/><use transform="matrix(0.05,0,0,0.05,15.949999999999998,0)" xlink:href="#F"/><use transform="matrix(0.05,0,0,0.05,20.95,0)" xlink:href="#w"/><use transform="matrix(0.05,0,0,0.05,26.899999999999995,0)" xlink:href="#Q"/><use transform="matrix(0.05,0,0,0.05,30.849999999999994,0)" xlink:href="#u"/><use transform="matrix(0.05,0,0,0.05,40.849999999999994,0)" xlink:href="#I"/><use transform="matrix(0.05,0,0,0.05,49.849999999999994,0)" xlink:href="#u"/><use transform="matrix(0.05,0,0,0.05,59.849999999999994,0)" xlink:href="#w"/></g><g id="r"><use transform="matrix(0.05,0,0,0.05,0,0)" xlink:href="#M"/><use transform="matrix(0.05,0,0,0.05,9,0)" xlink:href="#F"/><use transform="matrix(0.05,0,0,0.05,14,0)" xlink:href="#A"/><use transform="matrix(0.05,0,0,0.05,24,0)" xlink:href="#w"/><use transform="matrix(0.05,0,0,0.05,29.950000000000003,0)" xlink:href="#u"/></g><g id="s"><use transform="matrix(0.05,0,0,0.05,0,0)" xlink:href="#N"/><use transform="matrix(0.05,0,0,0.05,12,0)" xlink:href="#F"/><use transform="matrix(0.05,0,0,0.05,17,0)" xlink:href="#F"/><use transform="matrix(0.05,0,0,0.05,22,0)" xlink:href="#w"/><use transform="matrix(0.05,0,0,0.05,27.950000000000003,0)" xlink:href="#Q"/><use transform="matrix(0.05,0,0,0.05,31.899999999999995,0)" xlink:href="#R"/><use transform="matrix(0.05,0,0,0.05,41.9,0)" xlink:href="#D"/><use transform="matrix(0.05,0,0,0.05,51.900000000000006,0)" xlink:href="#F"/><use transform="matrix(0.05,0,0,0.05,56.900000000000006,0)" xlink:href="#u"/><use transform="matrix(0.05,0,0,0.05,66.9,0)" xlink:href="#M"/></g></defs></g></svg>