<svg xmlns="http://www.w3.org/2000/svg" xmlns:xlink="http://www.w3.org/1999/xlink" xmlns:lucid="lucid" width="770" height="640"><g transform="translate(-70 -140)" lucid:page-tab-id="0_0"><path d="M0 0h1870.4v1323.2H0z" fill="#fff"/><path d="M125 580h555v180H125z" stroke="#000" stroke-width="2" fill="#e5e5e5"/><use xlink:href="#a" transform="matrix(1,0,0,1,130,585) translate(0 14.4)"/><use xlink:href="#b" transform="matrix(1,0,0,1,130,585) translate(64.95 14.4)"/><path d="M210 160h40v340h-40z" stroke="#000" stroke-width="2" fill="#e5e5e5"/><use xlink:href="#c" transform="matrix(1,0,0,1,215,165) translate(0 14.4)"/><path d="M90 220h40v20H90zM90 260h40v20H90zM90 340h40v20H90zM90 300h40v20H90zM90 380h40v20H90zM90 420h40v20H90zM90 460h40v20H90zM140 220h60v20h-60zM140 260h60v20h-60zM140 300h60v20h-60zM140 340h60v20h-60zM140 380h60v20h-60zM140 420h60v20h-60zM140 460h60v20h-60zM220 220h20v20h-20zM220 260h20v20h-20zM220 300h20v20h-20zM220 340h20v20h-20zM220 380h20v20h-20zM220 420h20v20h-20zM220 460h20v20h-20zM260 220h60v20h-60zM260 260h60v20h-60zM260 300h60v20h-60zM260 340h60v20h-60zM260 380h60v20h-60zM260 420h60v20h-60zM260 460h60v20h-60zM500 220h320v20H500zM500 260h200v20H500zM500 300h260v20H500zM500 340h120v20H500zM500 380h280v20H500zM500 420h300v20H500zM500 460h240v20H500zM380 220h60v20h-60zM380 260h60v20h-60zM380 300h60v20h-60zM380 340h60v20h-60zM380 380h60v20h-60zM380 420h60v20h-60zM380 460h60v20h-60zM270 608.4h20v20h-20zM210 660h20v20h-20zM230 660h20v20h-20z" stroke="#000" stroke-width="2" fill="#fff"/><path d="M330 160h40v340h-40z" stroke="#000" stroke-width="2" fill="#e5e5e5"/><use xlink:href="#d" transform="matrix(1,0,0,1,335,165) translate(0 14.4)"/><path d="M340 220h20v20h-20zM340 260h20v20h-20zM340 300h20v20h-20zM340 340h20v20h-20zM340 380h20v20h-20zM340 420h20v20h-20zM340 460h20v20h-20z" stroke="#000" stroke-width="2" fill="#fff"/><path d="M450 160h40v340h-40z" stroke="#000" stroke-width="2" fill="#e5e5e5"/><use xlink:href="#e" transform="matrix(1,0,0,1,455,165) translate(0 14.4)"/><path d="M460 220h20v20h-20zM460 260h20v20h-20zM460 300h20v20h-20zM460 340h20v20h-20zM460 380h20v20h-20zM460 420h20v20h-20zM460 460h20v20h-20z" stroke="#000" stroke-width="2" fill="#fff"/><path d="M230.5 501.86l36.1 61.2" stroke="#000" stroke-width="2" fill="none"/><path d="M231.38 501.38l-1.72 1-.82-1.38h2.32z"/><path d="M274.36 576.2l-11.24-9.92 7.98-4.7z" stroke="#000" stroke-width="2"/><path d="M268.2 630l-36.74 28.4" stroke="#000" stroke-width="2" fill="none"/><path d="M269 629.4h1.64l-1.84 1.42-1.22-1.58 1.42-1.1zM232.1 659.16l-1.1.85v-1h-1.97l1.84-1.42z"/><path d="M270 660h20v20h-20zM290 660h20v20h-20zM290 608.4h20v20h-20z" stroke="#000" stroke-width="2" fill="#fff"/><path d="M290 621v38M290 621.03V620M290 658.97V660" stroke="#000" stroke-width="2" fill="none"/><path d="M330 660h20v20h-20zM350 660h20v20h-20z" stroke="#000" stroke-width="2" fill="#fff"/><path d="M311.8 630l38.07 28.4" stroke="#000" stroke-width="2" fill="none"/><path d="M312.42 629.2l-1.2 1.6-1.9-1.4H311v-1.25zM353.67 660l-1.2 1.6-1.47-1.1V659h-1.6l1.04-1.4z"/><path d="M151 710h20v20h-20zM171 710h20v20h-20z" stroke="#000" stroke-width="2" fill="#fff"/><path d="M209.2 680l-36.74 28.4M209.2 680.03l.8-.63" stroke="#000" stroke-width="2" fill="none"/><path d="M173.1 709.16l-1.1.85v-1h-1.97l1.84-1.42z"/><path d="M210 710h20v20h-20zM230 710h20v20h-20z" stroke="#000" stroke-width="2" fill="#fff"/><path d="M230 671v38M230 671.03V670M230 708.97V710" stroke="#000" stroke-width="2" fill="none"/><path d="M330 709h20v20h-20zM350 709h20v20h-20z" stroke="#000" stroke-width="2" fill="#fff"/><path d="M371.8 681.58l36.05 25.84" stroke="#000" stroke-width="2" fill="none"/><path d="M372.42 680.78l-1.17 1.63-1.97-1.4H371v-1.23zM411.7 708.94l-1.18 1.62-.52-.37V708h-2.6l1.02-1.4z"/><path d="M389 709h20v20h-20zM409 709h20v20h-20z" stroke="#000" stroke-width="2" fill="#fff"/><path d="M350 670v38M350 670.03V669M350 707.97V709M431 720h70.5" stroke="#000" stroke-width="2" fill="none"/><path d="M431.03 721H430v-2h1.03z"/><path d="M516.76 720l-14.26 4.64v-9.28z" stroke="#000" stroke-width="2"/><path d="M520 700h140v40H520z" stroke="#000" stroke-width="2" fill="#fff"/><use xlink:href="#f" transform="matrix(1,0,0,1,525,705) translate(13.574999999999996 18.15)"/><use xlink:href="#g" transform="matrix(1,0,0,1,525,705) translate(47.574999999999996 18.15)"/><use xlink:href="#h" transform="matrix(1,0,0,1,525,705) translate(89.475 18.15)"/><defs><path d="M30-248c87 1 191-15 191 75 0 78-77 80-158 76V0H30v-248zm33 125c57 0 124 11 124-50 0-59-68-47-124-48v98" id="i"/><path d="M100-194c62-1 85 37 85 99 1 63-27 99-86 99S16-35 15-95c0-66 28-99 85-99zM99-20c44 1 53-31 53-75 0-43-8-75-51-75s-53 32-53 75 10 74 51 75" id="j"/><path d="M135-143c-3-34-86-38-87 0 15 53 115 12 119 90S17 21 10-45l28-5c4 36 97 45 98 0-10-56-113-15-118-90-4-57 82-63 122-42 12 7 21 19 24 35" id="k"/><path d="M59-47c-2 24 18 29 38 22v24C64 9 27 4 27-40v-127H5v-23h24l9-43h21v43h35v23H59v120" id="l"/><path d="M24-231v-30h32v30H24zM24 0v-190h32V0H24" id="m"/><path d="M117-194c89-4 53 116 60 194h-32v-121c0-31-8-49-39-48C34-167 62-67 57 0H25l-1-190h30c1 10-1 24 2 32 11-22 29-35 61-36" id="n"/><path d="M177-190C167-65 218 103 67 71c-23-6-38-20-44-43l32-5c15 47 100 32 89-28v-30C133-14 115 1 83 1 29 1 15-40 15-95c0-56 16-97 71-98 29-1 48 16 59 35 1-10 0-23 2-32h30zM94-22c36 0 50-32 50-73 0-42-14-75-50-75-39 0-46 34-46 75s6 73 46 73" id="o"/><g id="a"><use transform="matrix(0.05,0,0,0.05,0,0)" xlink:href="#i"/><use transform="matrix(0.05,0,0,0.05,12,0)" xlink:href="#j"/><use transform="matrix(0.05,0,0,0.05,22,0)" xlink:href="#k"/><use transform="matrix(0.05,0,0,0.05,31,0)" xlink:href="#l"/><use transform="matrix(0.05,0,0,0.05,36,0)" xlink:href="#m"/><use transform="matrix(0.05,0,0,0.05,39.95,0)" xlink:href="#n"/><use transform="matrix(0.05,0,0,0.05,49.95,0)" xlink:href="#o"/></g><path d="M24 0v-261h32V0H24" id="p"/><g id="b"><use transform="matrix(0.05,0,0,0.05,0,0)" xlink:href="#p"/><use transform="matrix(0.05,0,0,0.05,3.95,0)" xlink:href="#m"/><use transform="matrix(0.05,0,0,0.05,7.9,0)" xlink:href="#k"/><use transform="matrix(0.05,0,0,0.05,16.9,0)" xlink:href="#l"/><use transform="matrix(0.05,0,0,0.05,21.9,0)" xlink:href="#k"/></g><path d="M205 0l-28-72H64L36 0H1l101-248h38L239 0h-34zm-38-99l-47-123c-12 45-31 82-46 123h93" id="q"/><use transform="matrix(0.05,0,0,0.05,0,0)" xlink:href="#q" id="c"/><path d="M160-131c35 5 61 23 61 61C221 17 115-2 30 0v-248c76 3 177-17 177 60 0 33-19 50-47 57zm-97-11c50-1 110 9 110-42 0-47-63-36-110-37v79zm0 115c55-2 124 14 124-45 0-56-70-42-124-44v89" id="r"/><use transform="matrix(0.05,0,0,0.05,0,0)" xlink:href="#r" id="d"/><path d="M212-179c-10-28-35-45-73-45-59 0-87 40-87 99 0 60 29 101 89 101 43 0 62-24 78-52l27 14C228-24 195 4 139 4 59 4 22-46 18-125c-6-104 99-153 187-111 19 9 31 26 39 46" id="s"/><use transform="matrix(0.05,0,0,0.05,0,0)" xlink:href="#s" id="e"/><path d="M85-194c31 0 48 13 60 33l-1-100h32l1 261h-30c-2-10 0-23-3-31C134-8 116 4 85 4 32 4 16-35 15-94c0-66 23-100 70-100zm9 24c-40 0-46 34-46 75 0 40 6 74 45 74 42 0 51-32 51-76 0-42-9-74-50-73" id="t"/><path d="M96-169c-40 0-48 33-48 73s9 75 48 75c24 0 41-14 43-38l32 2c-6 37-31 61-74 61-59 0-76-41-82-99-10-93 101-131 147-64 4 7 5 14 7 22l-32 3c-4-21-16-35-41-35" id="u"/><g id="f"><use transform="matrix(0.05,0,0,0.05,0,0)" xlink:href="#t"/><use transform="matrix(0.05,0,0,0.05,10,0)" xlink:href="#j"/><use transform="matrix(0.05,0,0,0.05,20,0)" xlink:href="#u"/></g><path d="M141-36C126-15 110 5 73 4 37 3 15-17 15-53c-1-64 63-63 125-63 3-35-9-54-41-54-24 1-41 7-42 31l-33-3c5-37 33-52 76-52 45 0 72 20 72 64v82c-1 20 7 32 28 27v20c-31 9-61-2-59-35zM48-53c0 20 12 33 32 33 41-3 63-29 60-74-43 2-92-5-92 41" id="v"/><g id="g"><use transform="matrix(0.05,0,0,0.05,0,0)" xlink:href="#p"/><use transform="matrix(0.05,0,0,0.05,3.95,0)" xlink:href="#j"/><use transform="matrix(0.05,0,0,0.05,13.949999999999998,0)" xlink:href="#u"/><use transform="matrix(0.05,0,0,0.05,22.95,0)" xlink:href="#v"/><use transform="matrix(0.05,0,0,0.05,32.95,0)" xlink:href="#p"/></g><path d="M33 0v-248h34V0H33" id="w"/><path d="M30-248c118-7 216 8 213 122C240-48 200 0 122 0H30v-248zM63-27c89 8 146-16 146-99s-60-101-146-95v194" id="x"/><g id="h"><use transform="matrix(0.05,0,0,0.05,0,0)" xlink:href="#w"/><use transform="matrix(0.05,0,0,0.05,5,0)" xlink:href="#x"/><use transform="matrix(0.05,0,0,0.05,17.950000000000003,0)" xlink:href="#k"/></g></defs></g></svg>