<svg xmlns="http://www.w3.org/2000/svg" xmlns:xlink="http://www.w3.org/1999/xlink" xmlns:lucid="lucid" width="770" height="731.6"><g transform="translate(-70 -140)" lucid:page-tab-id="0_0"><path d="M0 0h1870.4v1323.2H0z" fill="#fff"/><path d="M132.5 580H720v271.6H132.5z" stroke="#000" stroke-width="2" fill="#e5e5e5"/><use xlink:href="#a" transform="matrix(1,0,0,1,137.5,585) translate(0 14.4)"/><path d="M210 160h40v340h-40z" stroke="#000" stroke-width="2" fill="#e5e5e5"/><use xlink:href="#b" transform="matrix(1,0,0,1,215,165) translate(0 14.4)"/><path d="M90 220h40v20H90zM90 260h40v20H90zM90 340h40v20H90zM90 300h40v20H90zM90 380h40v20H90zM90 420h40v20H90zM90 460h40v20H90zM140 220h60v20h-60zM140 260h60v20h-60zM140 300h60v20h-60zM140 340h60v20h-60zM140 380h60v20h-60zM140 420h60v20h-60zM140 460h60v20h-60zM220 220h20v20h-20zM220 260h20v20h-20zM220 300h20v20h-20zM220 340h20v20h-20zM220 380h20v20h-20zM220 420h20v20h-20zM220 460h20v20h-20zM260 220h60v20h-60zM260 260h60v20h-60zM260 300h60v20h-60zM260 340h60v20h-60zM260 380h60v20h-60zM260 420h60v20h-60zM260 460h60v20h-60zM500 220h320v20H500zM500 260h200v20H500zM500 300h260v20H500zM500 340h120v20H500zM500 380h280v20H500zM500 420h300v20H500zM500 460h240v20H500zM380 220h60v20h-60zM380 260h60v20h-60zM380 300h60v20h-60zM380 340h60v20h-60zM380 380h60v20h-60zM380 420h60v20h-60zM380 460h60v20h-60zM270 608.4h20v20h-20zM210 660h20v20h-20zM230 660h20v20h-20z" stroke="#000" stroke-width="2" fill="#fff"/><path d="M330 160h40v340h-40z" stroke="#000" stroke-width="2" fill="#e5e5e5"/><use xlink:href="#c" transform="matrix(1,0,0,1,335,165) translate(0 14.4)"/><path d="M340 220h20v20h-20zM340 260h20v20h-20zM340 300h20v20h-20zM340 340h20v20h-20zM340 380h20v20h-20zM340 420h20v20h-20zM340 460h20v20h-20z" stroke="#000" stroke-width="2" fill="#fff"/><path d="M450 160h40v340h-40z" stroke="#000" stroke-width="2" fill="#e5e5e5"/><use xlink:href="#d" transform="matrix(1,0,0,1,455,165) translate(0 14.4)"/><path d="M460 220h20v20h-20zM460 260h20v20h-20zM460 300h20v20h-20zM460 340h20v20h-20zM460 380h20v20h-20zM460 420h20v20h-20zM460 460h20v20h-20z" stroke="#000" stroke-width="2" fill="#fff"/><path d="M230.63 501.78l50.6 62.8" stroke="#000" stroke-width="2" fill="none"/><path d="M231.42 501.17l-1.56 1.26-1.14-1.43h2.56z"/><path d="M290.8 576.48l-12.55-8.2 7.22-5.82z" stroke="#000" stroke-width="2"/><path d="M268.2 630l-36.74 28.4" stroke="#000" stroke-width="2" fill="none"/><path d="M269 629.4h1.64l-1.84 1.42-1.22-1.58 1.42-1.1zM232.1 659.16l-1.1.85v-1h-1.97l1.84-1.42z"/><path d="M270 660h20v20h-20zM290 660h20v20h-20zM290 608.4h20v20h-20z" stroke="#000" stroke-width="2" fill="#fff"/><path d="M290 621v38M290 621.03V620M290 658.97V660" stroke="#000" stroke-width="2" fill="none"/><path d="M330 660h20v20h-20zM350 660h20v20h-20z" stroke="#000" stroke-width="2" fill="#fff"/><path d="M311.8 630l38.07 28.4" stroke="#000" stroke-width="2" fill="none"/><path d="M312.42 629.2l-1.2 1.6-1.9-1.4H311v-1.25zM353.67 660l-1.2 1.6-1.47-1.1V659h-1.6l1.04-1.4z"/><path d="M151 710h20v20h-20zM171 710h20v20h-20z" stroke="#000" stroke-width="2" fill="#fff"/><path d="M209.2 680l-36.74 28.4M209.2 680.03l.8-.63" stroke="#000" stroke-width="2" fill="none"/><path d="M173.1 709.16l-1.1.85v-1h-1.97l1.84-1.42z"/><path d="M210 710h20v20h-20zM230 710h20v20h-20z" stroke="#000" stroke-width="2" fill="#fff"/><path d="M230 671v38M230 671.03V670M230 708.97V710" stroke="#000" stroke-width="2" fill="none"/><path d="M330 709h20v20h-20zM350 709h20v20h-20z" stroke="#000" stroke-width="2" fill="#fff"/><path d="M371.8 681.58l36.05 25.84" stroke="#000" stroke-width="2" fill="none"/><path d="M372.42 680.78l-1.17 1.63-1.97-1.4H371v-1.23zM411.7 708.94l-1.18 1.62-.52-.37V708h-2.6l1.02-1.4z"/><path d="M389 709h20v20h-20zM409 709h20v20h-20z" stroke="#000" stroke-width="2" fill="#fff"/><path d="M350 670v38M350 670.03V669M350 707.97V709M430.92 720.4l72.75 31.3" stroke="#000" stroke-width="2" fill="none"/><path d="M431.34 719.5l-.8 1.82-.54-.23v-2.2z"/><path d="M517.7 757.72l-14.94-1.38 3.66-8.5z" stroke="#000" stroke-width="2"/><path d="M520 760h40v20h-40zM420 811.6h40v20h-40zM460 811.6h40v20h-40z" stroke="#000" stroke-width="2" fill="#fff"/><path d="M518.1 780.96l-56.2 29.35" stroke="#000" stroke-width="2" fill="none"/><path d="M519 781h1.2l-1.65.86-.92-1.77 1.37-.73zM462.37 811.18l-1.37.72v-1.3h-1.83l2.28-1.2z"/><path d="M520 811.6h40v20h-40zM560 811.6h40v20h-40zM560 760h40v20h-40z" stroke="#000" stroke-width="2" fill="#fff"/><path d="M560 772.6v38M560 772.63v-1.03M560 810.57v1.03" stroke="#000" stroke-width="2" fill="none"/><path d="M620 811.6h40v20h-40zM660 811.6h40v20h-40z" stroke="#000" stroke-width="2" fill="#fff"/><path d="M601.9 780.95l58.2 29.37" stroke="#000" stroke-width="2" fill="none"/><path d="M602.37 780.07l-.9 1.78-1.7-.85H601v-1.62zM664.13 811.23l-.9 1.8-2.23-1.14v-1.3h-1.06l.6-1.18z"/><defs><path d="M30-248c118-7 216 8 213 122C240-48 200 0 122 0H30v-248zM63-27c89 8 146-16 146-99s-60-101-146-95v194" id="e"/><path d="M24-231v-30h32v30H24zM24 0v-190h32V0H24" id="f"/><path d="M96-169c-40 0-48 33-48 73s9 75 48 75c24 0 41-14 43-38l32 2c-6 37-31 61-74 61-59 0-76-41-82-99-10-93 101-131 147-64 4 7 5 14 7 22l-32 3c-4-21-16-35-41-35" id="g"/><path d="M59-47c-2 24 18 29 38 22v24C64 9 27 4 27-40v-127H5v-23h24l9-43h21v43h35v23H59v120" id="h"/><path d="M100-194c62-1 85 37 85 99 1 63-27 99-86 99S16-35 15-95c0-66 28-99 85-99zM99-20c44 1 53-31 53-75 0-43-8-75-51-75s-53 32-53 75 10 74 51 75" id="i"/><path d="M117-194c89-4 53 116 60 194h-32v-121c0-31-8-49-39-48C34-167 62-67 57 0H25l-1-190h30c1 10-1 24 2 32 11-22 29-35 61-36" id="j"/><path d="M141-36C126-15 110 5 73 4 37 3 15-17 15-53c-1-64 63-63 125-63 3-35-9-54-41-54-24 1-41 7-42 31l-33-3c5-37 33-52 76-52 45 0 72 20 72 64v82c-1 20 7 32 28 27v20c-31 9-61-2-59-35zM48-53c0 20 12 33 32 33 41-3 63-29 60-74-43 2-92-5-92 41" id="k"/><path d="M114-163C36-179 61-72 57 0H25l-1-190h30c1 12-1 29 2 39 6-27 23-49 58-41v29" id="l"/><path d="M179-190L93 31C79 59 56 82 12 73V49c39 6 53-20 64-50L1-190h34L92-34l54-156h33" id="m"/><g id="a"><use transform="matrix(0.05,0,0,0.05,0,0)" xlink:href="#e"/><use transform="matrix(0.05,0,0,0.05,12.950000000000001,0)" xlink:href="#f"/><use transform="matrix(0.05,0,0,0.05,16.900000000000002,0)" xlink:href="#g"/><use transform="matrix(0.05,0,0,0.05,25.900000000000002,0)" xlink:href="#h"/><use transform="matrix(0.05,0,0,0.05,30.900000000000002,0)" xlink:href="#f"/><use transform="matrix(0.05,0,0,0.05,34.85,0)" xlink:href="#i"/><use transform="matrix(0.05,0,0,0.05,44.85,0)" xlink:href="#j"/><use transform="matrix(0.05,0,0,0.05,54.85,0)" xlink:href="#k"/><use transform="matrix(0.05,0,0,0.05,64.85,0)" xlink:href="#l"/><use transform="matrix(0.05,0,0,0.05,70.8,0)" xlink:href="#m"/></g><path d="M205 0l-28-72H64L36 0H1l101-248h38L239 0h-34zm-38-99l-47-123c-12 45-31 82-46 123h93" id="n"/><use transform="matrix(0.05,0,0,0.05,0,0)" xlink:href="#n" id="b"/><path d="M160-131c35 5 61 23 61 61C221 17 115-2 30 0v-248c76 3 177-17 177 60 0 33-19 50-47 57zm-97-11c50-1 110 9 110-42 0-47-63-36-110-37v79zm0 115c55-2 124 14 124-45 0-56-70-42-124-44v89" id="o"/><use transform="matrix(0.05,0,0,0.05,0,0)" xlink:href="#o" id="c"/><path d="M212-179c-10-28-35-45-73-45-59 0-87 40-87 99 0 60 29 101 89 101 43 0 62-24 78-52l27 14C228-24 195 4 139 4 59 4 22-46 18-125c-6-104 99-153 187-111 19 9 31 26 39 46" id="p"/><use transform="matrix(0.05,0,0,0.05,0,0)" xlink:href="#p" id="d"/></defs></g></svg>