<svg xmlns="http://www.w3.org/2000/svg" xmlns:xlink="http://www.w3.org/1999/xlink" xmlns:lucid="lucid" width="1440" height="700"><g transform="translate(-40 -159.99999999999997)" lucid:page-tab-id="0_0"><path d="M0 0h1870.87v1322.83H0z" fill="#fff"/><path d="M60 606c0-3.3 2.7-6 6-6h1388c3.3 0 6 2.7 6 6v228c0 3.3-2.7 6-6 6H66c-3.3 0-6-2.7-6-6z" stroke="#e5e5e5" stroke-width="3" fill="#e5e5e5"/><use xlink:href="#a" transform="matrix(1,0,0,1,65,605) translate(0 17.77777777777778)"/><use xlink:href="#b" transform="matrix(1,0,0,1,65,605) translate(70.30864197530863 17.77777777777778)"/><use xlink:href="#c" transform="matrix(1,0,0,1,65,605) translate(160.06172839506172 17.77777777777778)"/><use xlink:href="#d" transform="matrix(1,0,0,1,65,605) translate(219.1358024691358 17.77777777777778)"/><path d="M60 366c0-3.3 2.7-6 6-6h1388c3.3 0 6 2.7 6 6v168c0 3.3-2.7 6-6 6H66c-3.3 0-6-2.7-6-6z" stroke="#e5e5e5" stroke-width="3" fill="#e5e5e5"/><use xlink:href="#e" transform="matrix(1,0,0,1,65,365) translate(0 17.77777777777778)"/><use xlink:href="#f" transform="matrix(1,0,0,1,65,365) translate(70.30864197530863 17.77777777777778)"/><use xlink:href="#g" transform="matrix(1,0,0,1,65,365) translate(179.87654320987653 17.77777777777778)"/><path d="M600 186c0-3.3 2.7-6 6-6h288c3.3 0 6 2.7 6 6v96.24c0 3.3-2.7 6-6 6H606c-3.3 0-6-2.7-6-6z" stroke="#5e5e5e" stroke-width="3" fill="#b2d6ef"/><use xlink:href="#h" transform="matrix(1,0,0,1,605,184.99999999999997) translate(74.69135802469135 17.77777777777778)"/><use xlink:href="#i" transform="matrix(1,0,0,1,605,184.99999999999997) translate(130.2469135802469 17.77777777777778)"/><path d="M280 406c0-3.3 2.7-6 6-6h288c3.3 0 6 2.7 6 6v96.24c0 3.3-2.7 6-6 6H286c-3.3 0-6-2.7-6-6z" stroke="#5e5e5e" stroke-width="3" fill="#b2d6ef"/><use xlink:href="#j" transform="matrix(1,0,0,1,285,405) translate(96.94444444444443 17.77777777777778)"/><path d="M100 667.06c0-3.3 2.7-6 6-6h288c3.3 0 6 2.7 6 6v96.23c0 3.3-2.7 6-6 6H106c-3.3 0-6-2.7-6-6z" stroke="#5e5e5e" stroke-width="3" fill="#b2d6ef"/><use xlink:href="#k" transform="matrix(1,0,0,1,105.00000000000006,666.0588239999998) translate(78.3641975308642 17.77777777777778)"/><use xlink:href="#l" transform="matrix(1,0,0,1,105.00000000000006,666.0588239999998) translate(162.2530864197531 17.77777777777778)"/><path d="M240 751.88c0 3.12-26.86 5.65-60 5.65s-60-2.53-60-5.65V706.7c0-3.1 26.86-5.64 60-5.64s60 2.53 60 5.65z" stroke="#5e5e5e" stroke-width="3" fill="#fff"/><path d="M240 706.7c0 3.12-26.86 5.65-60 5.65s-60-2.53-60-5.64" stroke="#5e5e5e" stroke-width="3" fill="none"/><use xlink:href="#m" transform="matrix(1,0,0,1,125,717.3529416470587) translate(27.25308641975309 22.27777777777778)"/><path d="M380 751.88c0 3.12-26.86 5.65-60 5.65s-60-2.53-60-5.65V706.7c0-3.1 26.86-5.64 60-5.64s60 2.53 60 5.65z" stroke="#5e5e5e" stroke-width="3" fill="#fff"/><path d="M380 706.7c0 3.12-26.86 5.65-60 5.65s-60-2.53-60-5.64" stroke="#5e5e5e" stroke-width="3" fill="none"/><use xlink:href="#n" transform="matrix(1,0,0,1,265,717.3529416470587) translate(8.73456790123457 22.27777777777778)"/><use xlink:href="#o" transform="matrix(1,0,0,1,265,717.3529416470587) translate(45.77160493827161 22.27777777777778)"/><path d="M940 406c0-3.3 2.7-6 6-6h288c3.3 0 6 2.7 6 6v96.24c0 3.3-2.7 6-6 6H946c-3.3 0-6-2.7-6-6z" stroke="#5e5e5e" stroke-width="3" fill="#b2d6ef"/><use xlink:href="#j" transform="matrix(1,0,0,1,945,405) translate(96.94444444444443 17.77777777777778)"/><path d="M750 290.74v47.38c0 3.3-2.7 6-6 6H436c-3.3 0-6 2.68-6 6V380" stroke="#5e5e5e" stroke-width="2" fill="none"/><path d="M751 290.76h-2v-1.02h2z" fill="#5e5e5e"/><path d="M430 395.26L425.36 381h9.28z" stroke="#5e5e5e" stroke-width="2" fill="#5e5e5e"/><path d="M750 290.74v47.38c0 3.3 2.7 6 6 6h328c3.3 0 6 2.68 6 6V380" stroke="#5e5e5e" stroke-width="2" fill="none"/><path d="M751 290.76h-2v-1.02h2z" fill="#5e5e5e"/><path d="M1090 395.26l-4.64-14.26h9.28z" stroke="#5e5e5e" stroke-width="2" fill="#5e5e5e"/><path d="M430 510.74v67.9c0 3.32-2.7 6-6 6H256c-3.3 0-6 2.7-6 6v50.42" stroke="#5e5e5e" stroke-width="2" fill="none"/><path d="M431 510.76h-2v-1.02h2z" fill="#5e5e5e"/><path d="M250 656.32l-4.64-14.26h9.28z" stroke="#5e5e5e" stroke-width="2" fill="#5e5e5e"/><path d="M440 667.06c0-3.3 2.7-6 6-6h288c3.3 0 6 2.7 6 6v96.23c0 3.3-2.7 6-6 6H446c-3.3 0-6-2.7-6-6z" stroke="#5e5e5e" stroke-width="3" fill="#b2d6ef"/><use xlink:href="#k" transform="matrix(1,0,0,1,445,666.0588239999998) translate(78.3641975308642 17.77777777777778)"/><use xlink:href="#l" transform="matrix(1,0,0,1,445,666.0588239999998) translate(162.2530864197531 17.77777777777778)"/><path d="M580 751.88c0 3.12-26.86 5.65-60 5.65s-60-2.53-60-5.65V706.7c0-3.1 26.86-5.64 60-5.64s60 2.53 60 5.65z" stroke="#5e5e5e" stroke-width="3" fill="#fff"/><path d="M580 706.7c0 3.12-26.86 5.65-60 5.65s-60-2.53-60-5.64" stroke="#5e5e5e" stroke-width="3" fill="none"/><use xlink:href="#m" transform="matrix(1,0,0,1,464.9999999999998,717.3529416470587) translate(27.25308641975309 22.27777777777778)"/><path d="M720 751.88c0 3.12-26.86 5.65-60 5.65s-60-2.53-60-5.65V706.7c0-3.1 26.86-5.64 60-5.64s60 2.53 60 5.65z" stroke="#5e5e5e" stroke-width="3" fill="#fff"/><path d="M720 706.7c0 3.12-26.86 5.65-60 5.65s-60-2.53-60-5.64" stroke="#5e5e5e" stroke-width="3" fill="none"/><use xlink:href="#n" transform="matrix(1,0,0,1,605,717.3529416470587) translate(8.73456790123457 22.27777777777778)"/><use xlink:href="#o" transform="matrix(1,0,0,1,605,717.3529416470587) translate(45.77160493827161 22.27777777777778)"/><path d="M780 667.06c0-3.3 2.7-6 6-6h288c3.3 0 6 2.7 6 6v96.23c0 3.3-2.7 6-6 6H786c-3.3 0-6-2.7-6-6z" stroke="#5e5e5e" stroke-width="3" fill="#b2d6ef"/><use xlink:href="#k" transform="matrix(1,0,0,1,785,666.0588239999998) translate(78.3641975308642 17.77777777777778)"/><use xlink:href="#l" transform="matrix(1,0,0,1,785,666.0588239999998) translate(162.2530864197531 17.77777777777778)"/><path d="M920 751.88c0 3.12-26.86 5.65-60 5.65s-60-2.53-60-5.65V706.7c0-3.1 26.86-5.64 60-5.64s60 2.53 60 5.65z" stroke="#5e5e5e" stroke-width="3" fill="#fff"/><path d="M920 706.7c0 3.12-26.86 5.65-60 5.65s-60-2.53-60-5.64" stroke="#5e5e5e" stroke-width="3" fill="none"/><use xlink:href="#m" transform="matrix(1,0,0,1,804.9999999999998,717.3529416470587) translate(27.25308641975309 22.27777777777778)"/><path d="M1060 751.88c0 3.12-26.86 5.65-60 5.65s-60-2.53-60-5.65V706.7c0-3.1 26.86-5.64 60-5.64s60 2.53 60 5.65z" stroke="#5e5e5e" stroke-width="3" fill="#fff"/><path d="M1060 706.7c0 3.12-26.86 5.65-60 5.65s-60-2.53-60-5.64" stroke="#5e5e5e" stroke-width="3" fill="none"/><use xlink:href="#n" transform="matrix(1,0,0,1,945,717.3529416470587) translate(8.73456790123457 22.27777777777778)"/><use xlink:href="#o" transform="matrix(1,0,0,1,945,717.3529416470587) translate(45.77160493827161 22.27777777777778)"/><path d="M1120 667.06c0-3.3 2.7-6 6-6h288c3.3 0 6 2.7 6 6v96.23c0 3.3-2.7 6-6 6h-288c-3.3 0-6-2.7-6-6z" stroke="#5e5e5e" stroke-width="3" fill="#b2d6ef"/><use xlink:href="#k" transform="matrix(1,0,0,1,1125,666.0588239999998) translate(78.3641975308642 17.77777777777778)"/><use xlink:href="#l" transform="matrix(1,0,0,1,1125,666.0588239999998) translate(162.2530864197531 17.77777777777778)"/><path d="M1260 751.88c0 3.12-26.86 5.65-60 5.65s-60-2.53-60-5.65V706.7c0-3.1 26.86-5.64 60-5.64s60 2.53 60 5.65z" stroke="#5e5e5e" stroke-width="3" fill="#fff"/><path d="M1260 706.7c0 3.12-26.86 5.65-60 5.65s-60-2.53-60-5.64" stroke="#5e5e5e" stroke-width="3" fill="none"/><use xlink:href="#m" transform="matrix(1,0,0,1,1145,717.3529416470587) translate(27.25308641975309 22.27777777777778)"/><path d="M1400 751.88c0 3.12-26.86 5.65-60 5.65s-60-2.53-60-5.65V706.7c0-3.1 26.86-5.64 60-5.64s60 2.53 60 5.65z" stroke="#5e5e5e" stroke-width="3" fill="#fff"/><path d="M1400 706.7c0 3.12-26.86 5.65-60 5.65s-60-2.53-60-5.64" stroke="#5e5e5e" stroke-width="3" fill="none"/><g><use xlink:href="#n" transform="matrix(1,0,0,1,1285,717.3529416470587) translate(8.73456790123457 22.27777777777778)"/><use xlink:href="#o" transform="matrix(1,0,0,1,1285,717.3529416470587) translate(45.77160493827161 22.27777777777778)"/></g><path d="M430 510.74v67.9c0 3.32 2.7 6 6 6h148c3.3 0 6 2.7 6 6v50.42" stroke="#5e5e5e" stroke-width="2" fill="none"/><path d="M431 510.76h-2v-1.02h2z" fill="#5e5e5e"/><path d="M590 656.32l-4.64-14.26h9.28z" stroke="#5e5e5e" stroke-width="2" fill="#5e5e5e"/><path d="M430 510.74v67.9c0 3.32 2.7 6 6 6h488c3.3 0 6 2.7 6 6v50.42" stroke="#5e5e5e" stroke-width="2" fill="none"/><path d="M431 510.76h-2v-1.02h2z" fill="#5e5e5e"/><path d="M930 656.32l-4.64-14.26h9.28z" stroke="#5e5e5e" stroke-width="2" fill="#5e5e5e"/><path d="M430 510.74v67.9c0 3.32 2.7 6 6 6h828c3.3 0 6 2.7 6 6v50.42" stroke="#5e5e5e" stroke-width="2" fill="none"/><path d="M431 510.76h-2v-1.02h2z" fill="#5e5e5e"/><path d="M1270 656.32l-4.64-14.26h9.28z" stroke="#5e5e5e" stroke-width="2" fill="#5e5e5e"/><defs><path fill="#333" d="M147 0H94L2-248h55l64 206c17-72 42-137 63-206h54" id="p"/><path fill="#333" d="M185-48c-13 30-37 53-82 52C43 2 14-33 14-96s30-98 90-98c62 0 83 45 84 108H66c0 31 8 55 39 56 18 0 30-7 34-22zm-45-69c5-46-57-63-70-21-2 6-4 13-4 21h74" id="q"/><path fill="#333" d="M137-138c1-29-70-34-71-4 15 46 118 7 119 86 1 83-164 76-172 9l43-7c4 19 20 25 44 25 33 8 57-30 24-41C81-84 22-81 20-136c-2-80 154-74 161-7" id="r"/><path fill="#333" d="M135-194c53 0 70 44 70 98 0 56-19 98-73 100-31 1-45-17-59-34 3 33 2 69 2 105H25l-1-265h48c2 10 0 23 3 31 11-24 29-35 60-35zM114-30c33 0 39-31 40-66 0-38-9-64-40-64-56 0-55 130 0 130" id="s"/><path fill="#333" d="M133-34C117-15 103 5 69 4 32 3 11-16 11-54c-1-60 55-63 116-61 1-26-3-47-28-47-18 1-26 9-28 27l-52-2c7-38 36-58 82-57s74 22 75 68l1 82c-1 14 12 18 25 15v27c-30 8-71 5-69-32zm-48 3c29 0 43-24 42-57-32 0-66-3-65 30 0 17 8 27 23 27" id="t"/><g id="a"><use transform="matrix(0.06172839506172839,0,0,0.06172839506172839,0,0)" xlink:href="#p"/><use transform="matrix(0.06172839506172839,0,0,0.06172839506172839,13.580246913580245,0)" xlink:href="#q"/><use transform="matrix(0.06172839506172839,0,0,0.06172839506172839,25.925925925925924,0)" xlink:href="#r"/><use transform="matrix(0.06172839506172839,0,0,0.06172839506172839,38.2716049382716,0)" xlink:href="#s"/><use transform="matrix(0.06172839506172839,0,0,0.06172839506172839,51.79012345679012,0)" xlink:href="#t"/></g><path fill="#333" d="M67-125c0 53 21 87 73 88 37 1 54-22 65-47l45 17C233-25 199 4 140 4 58 4 20-42 15-125 8-235 124-281 211-232c18 10 29 29 36 50l-46 12c-8-25-30-41-62-41-52 0-71 34-72 86" id="u"/><path fill="#333" d="M110-194c64 0 96 36 96 99 0 64-35 99-97 99-61 0-95-36-95-99 0-62 34-99 96-99zm-1 164c35 0 45-28 45-65 0-40-10-65-43-65-34 0-45 26-45 65 0 36 10 65 43 65" id="v"/><path fill="#333" d="M135-194c87-1 58 113 63 194h-50c-7-57 23-157-34-157-59 0-34 97-39 157H25l-1-190h47c2 12-1 28 3 38 12-26 28-41 61-42" id="w"/><path fill="#333" d="M115-3C79 11 28 4 28-45v-112H4v-33h27l15-45h31v45h36v33H77v99c-1 23 16 31 38 25v30" id="x"/><g id="b"><use transform="matrix(0.06172839506172839,0,0,0.06172839506172839,0,0)" xlink:href="#u"/><use transform="matrix(0.06172839506172839,0,0,0.06172839506172839,15.987654320987653,0)" xlink:href="#v"/><use transform="matrix(0.06172839506172839,0,0,0.06172839506172839,29.50617283950617,0)" xlink:href="#w"/><use transform="matrix(0.06172839506172839,0,0,0.06172839506172839,43.02469135802469,0)" xlink:href="#x"/><use transform="matrix(0.06172839506172839,0,0,0.06172839506172839,50.37037037037037,0)" xlink:href="#q"/><use transform="matrix(0.06172839506172839,0,0,0.06172839506172839,62.716049382716044,0)" xlink:href="#w"/><use transform="matrix(0.06172839506172839,0,0,0.06172839506172839,76.23456790123456,0)" xlink:href="#x"/></g><path fill="#333" d="M88-194c31-1 46 15 58 34l-1-101h50l1 261h-48c-2-10 0-23-3-31C134-8 116 4 84 4 32 4 16-41 15-95c0-56 19-97 73-99zm17 164c33 0 40-30 41-66 1-37-9-64-41-64s-38 30-39 65c0 43 13 65 39 65" id="y"/><g id="c"><use transform="matrix(0.06172839506172839,0,0,0.06172839506172839,0,0)" xlink:href="#w"/><use transform="matrix(0.06172839506172839,0,0,0.06172839506172839,13.518518518518517,0)" xlink:href="#v"/><use transform="matrix(0.06172839506172839,0,0,0.06172839506172839,27.037037037037035,0)" xlink:href="#y"/><use transform="matrix(0.06172839506172839,0,0,0.06172839506172839,40.55555555555555,0)" xlink:href="#q"/></g><path fill="#333" d="M190-63c-7 42-38 67-86 67-59 0-84-38-90-98-12-110 154-137 174-36l-49 2c-2-19-15-32-35-32-30 0-35 28-38 64-6 74 65 87 74 30" id="z"/><path fill="#333" d="M25 0v-261h50V0H25" id="A"/><path fill="#333" d="M85 4C-2 5 27-109 22-190h50c7 57-23 150 33 157 60-5 35-97 40-157h50l1 190h-47c-2-12 1-28-3-38-12 25-28 42-61 42" id="B"/><path fill="#333" d="M135-150c-39-12-60 13-60 57V0H25l-1-190h47c2 13-1 29 3 40 6-28 27-53 61-41v41" id="C"/><g id="d"><use transform="matrix(0.06172839506172839,0,0,0.06172839506172839,0,0)" xlink:href="#z"/><use transform="matrix(0.06172839506172839,0,0,0.06172839506172839,12.345679012345679,0)" xlink:href="#A"/><use transform="matrix(0.06172839506172839,0,0,0.06172839506172839,18.51851851851852,0)" xlink:href="#B"/><use transform="matrix(0.06172839506172839,0,0,0.06172839506172839,32.03703703703704,0)" xlink:href="#r"/><use transform="matrix(0.06172839506172839,0,0,0.06172839506172839,44.382716049382715,0)" xlink:href="#x"/><use transform="matrix(0.06172839506172839,0,0,0.06172839506172839,51.72839506172839,0)" xlink:href="#q"/><use transform="matrix(0.06172839506172839,0,0,0.06172839506172839,64.07407407407408,0)" xlink:href="#C"/></g><g id="e"><use transform="matrix(0.06172839506172839,0,0,0.06172839506172839,0,0)" xlink:href="#p"/><use transform="matrix(0.06172839506172839,0,0,0.06172839506172839,13.580246913580245,0)" xlink:href="#q"/><use transform="matrix(0.06172839506172839,0,0,0.06172839506172839,25.925925925925924,0)" xlink:href="#r"/><use transform="matrix(0.06172839506172839,0,0,0.06172839506172839,38.2716049382716,0)" xlink:href="#s"/><use transform="matrix(0.06172839506172839,0,0,0.06172839506172839,51.79012345679012,0)" xlink:href="#t"/></g><path fill="#333" d="M25-224v-37h50v37H25zM25 0v-190h50V0H25" id="D"/><g id="f"><use transform="matrix(0.06172839506172839,0,0,0.06172839506172839,0,0)" xlink:href="#u"/><use transform="matrix(0.06172839506172839,0,0,0.06172839506172839,15.987654320987653,0)" xlink:href="#v"/><use transform="matrix(0.06172839506172839,0,0,0.06172839506172839,29.50617283950617,0)" xlink:href="#w"/><use transform="matrix(0.06172839506172839,0,0,0.06172839506172839,43.02469135802469,0)" xlink:href="#x"/><use transform="matrix(0.06172839506172839,0,0,0.06172839506172839,50.37037037037037,0)" xlink:href="#t"/><use transform="matrix(0.06172839506172839,0,0,0.06172839506172839,62.716049382716044,0)" xlink:href="#D"/><use transform="matrix(0.06172839506172839,0,0,0.06172839506172839,68.88888888888889,0)" xlink:href="#w"/><use transform="matrix(0.06172839506172839,0,0,0.06172839506172839,82.4074074074074,0)" xlink:href="#q"/><use transform="matrix(0.06172839506172839,0,0,0.06172839506172839,94.75308641975309,0)" xlink:href="#C"/></g><g id="g"><use transform="matrix(0.06172839506172839,0,0,0.06172839506172839,0,0)" xlink:href="#z"/><use transform="matrix(0.06172839506172839,0,0,0.06172839506172839,12.345679012345679,0)" xlink:href="#A"/><use transform="matrix(0.06172839506172839,0,0,0.06172839506172839,18.51851851851852,0)" xlink:href="#B"/><use transform="matrix(0.06172839506172839,0,0,0.06172839506172839,32.03703703703704,0)" xlink:href="#r"/><use transform="matrix(0.06172839506172839,0,0,0.06172839506172839,44.382716049382715,0)" xlink:href="#x"/><use transform="matrix(0.06172839506172839,0,0,0.06172839506172839,51.72839506172839,0)" xlink:href="#q"/><use transform="matrix(0.06172839506172839,0,0,0.06172839506172839,64.07407407407408,0)" xlink:href="#C"/></g><path fill="#333" d="M30 0v-248h33v221h125V0H30" id="E"/><path fill="#333" d="M100-194c62-1 85 37 85 99 1 63-27 99-86 99S16-35 15-95c0-66 28-99 85-99zM99-20c44 1 53-31 53-75 0-43-8-75-51-75s-53 32-53 75 10 74 51 75" id="F"/><path fill="#333" d="M141-36C126-15 110 5 73 4 37 3 15-17 15-53c-1-64 63-63 125-63 3-35-9-54-41-54-24 1-41 7-42 31l-33-3c5-37 33-52 76-52 45 0 72 20 72 64v82c-1 20 7 32 28 27v20c-31 9-61-2-59-35zM48-53c0 20 12 33 32 33 41-3 63-29 60-74-43 2-92-5-92 41" id="G"/><path fill="#333" d="M85-194c31 0 48 13 60 33l-1-100h32l1 261h-30c-2-10 0-23-3-31C134-8 116 4 85 4 32 4 16-35 15-94c0-66 23-100 70-100zm9 24c-40 0-46 34-46 75 0 40 6 74 45 74 42 0 51-32 51-76 0-42-9-74-50-73" id="H"/><g id="h"><use transform="matrix(0.06172839506172839,0,0,0.06172839506172839,0,0)" xlink:href="#E"/><use transform="matrix(0.06172839506172839,0,0,0.06172839506172839,12.345679012345679,0)" xlink:href="#F"/><use transform="matrix(0.06172839506172839,0,0,0.06172839506172839,24.691358024691358,0)" xlink:href="#G"/><use transform="matrix(0.06172839506172839,0,0,0.06172839506172839,37.03703703703704,0)" xlink:href="#H"/></g><path fill="#333" d="M115-194c53 0 69 39 70 98 0 66-23 100-70 100C84 3 66-7 56-30L54 0H23l1-261h32v101c10-23 28-34 59-34zm-8 174c40 0 45-34 45-75 0-40-5-75-45-74-42 0-51 32-51 76 0 43 10 73 51 73" id="I"/><path fill="#333" d="M24 0v-261h32V0H24" id="J"/><path fill="#333" d="M117-194c89-4 53 116 60 194h-32v-121c0-31-8-49-39-48C34-167 62-67 57 0H25l-1-190h30c1 10-1 24 2 32 11-22 29-35 61-36" id="K"/><path fill="#333" d="M96-169c-40 0-48 33-48 73s9 75 48 75c24 0 41-14 43-38l32 2c-6 37-31 61-74 61-59 0-76-41-82-99-10-93 101-131 147-64 4 7 5 14 7 22l-32 3c-4-21-16-35-41-35" id="L"/><path fill="#333" d="M100-194c63 0 86 42 84 106H49c0 40 14 67 53 68 26 1 43-12 49-29l28 8c-11 28-37 45-77 45C44 4 14-33 15-96c1-61 26-98 85-98zm52 81c6-60-76-77-97-28-3 7-6 17-6 28h103" id="M"/><path fill="#333" d="M114-163C36-179 61-72 57 0H25l-1-190h30c1 12-1 29 2 39 6-27 23-49 58-41v29" id="N"/><g id="i"><use transform="matrix(0.06172839506172839,0,0,0.06172839506172839,0,0)" xlink:href="#I"/><use transform="matrix(0.06172839506172839,0,0,0.06172839506172839,12.345679012345679,0)" xlink:href="#G"/><use transform="matrix(0.06172839506172839,0,0,0.06172839506172839,24.691358024691358,0)" xlink:href="#J"/><use transform="matrix(0.06172839506172839,0,0,0.06172839506172839,29.5679012345679,0)" xlink:href="#G"/><use transform="matrix(0.06172839506172839,0,0,0.06172839506172839,41.913580246913575,0)" xlink:href="#K"/><use transform="matrix(0.06172839506172839,0,0,0.06172839506172839,54.25925925925925,0)" xlink:href="#L"/><use transform="matrix(0.06172839506172839,0,0,0.06172839506172839,65.37037037037037,0)" xlink:href="#M"/><use transform="matrix(0.06172839506172839,0,0,0.06172839506172839,77.71604938271605,0)" xlink:href="#N"/></g><path fill="#333" d="M212-179c-10-28-35-45-73-45-59 0-87 40-87 99 0 60 29 101 89 101 43 0 62-24 78-52l27 14C228-24 195 4 139 4 59 4 22-46 18-125c-6-104 99-153 187-111 19 9 31 26 39 46" id="O"/><path fill="#333" d="M59-47c-2 24 18 29 38 22v24C64 9 27 4 27-40v-127H5v-23h24l9-43h21v43h35v23H59v120" id="P"/><path fill="#333" d="M24-231v-30h32v30H24zM24 0v-190h32V0H24" id="Q"/><g id="j"><use transform="matrix(0.06172839506172839,0,0,0.06172839506172839,0,0)" xlink:href="#O"/><use transform="matrix(0.06172839506172839,0,0,0.06172839506172839,15.987654320987653,0)" xlink:href="#F"/><use transform="matrix(0.06172839506172839,0,0,0.06172839506172839,28.333333333333332,0)" xlink:href="#K"/><use transform="matrix(0.06172839506172839,0,0,0.06172839506172839,40.67901234567901,0)" xlink:href="#P"/><use transform="matrix(0.06172839506172839,0,0,0.06172839506172839,46.851851851851855,0)" xlink:href="#G"/><use transform="matrix(0.06172839506172839,0,0,0.06172839506172839,59.19753086419753,0)" xlink:href="#Q"/><use transform="matrix(0.06172839506172839,0,0,0.06172839506172839,64.07407407407408,0)" xlink:href="#K"/><use transform="matrix(0.06172839506172839,0,0,0.06172839506172839,76.41975308641976,0)" xlink:href="#M"/><use transform="matrix(0.06172839506172839,0,0,0.06172839506172839,88.76543209876544,0)" xlink:href="#N"/></g><g id="k"><use transform="matrix(0.06172839506172839,0,0,0.06172839506172839,0,0)" xlink:href="#O"/><use transform="matrix(0.06172839506172839,0,0,0.06172839506172839,15.987654320987653,0)" xlink:href="#F"/><use transform="matrix(0.06172839506172839,0,0,0.06172839506172839,28.333333333333332,0)" xlink:href="#K"/><use transform="matrix(0.06172839506172839,0,0,0.06172839506172839,40.67901234567901,0)" xlink:href="#P"/><use transform="matrix(0.06172839506172839,0,0,0.06172839506172839,46.851851851851855,0)" xlink:href="#M"/><use transform="matrix(0.06172839506172839,0,0,0.06172839506172839,59.19753086419753,0)" xlink:href="#K"/><use transform="matrix(0.06172839506172839,0,0,0.06172839506172839,71.54320987654322,0)" xlink:href="#P"/></g><g id="l"><use transform="matrix(0.06172839506172839,0,0,0.06172839506172839,0,0)" xlink:href="#K"/><use transform="matrix(0.06172839506172839,0,0,0.06172839506172839,12.345679012345679,0)" xlink:href="#F"/><use transform="matrix(0.06172839506172839,0,0,0.06172839506172839,24.691358024691358,0)" xlink:href="#H"/><use transform="matrix(0.06172839506172839,0,0,0.06172839506172839,37.03703703703704,0)" xlink:href="#M"/></g><path fill="#333" d="M179-190L93 31C79 59 56 82 12 73V49c39 6 53-20 64-50L1-190h34L92-34l54-156h33" id="R"/><g id="m"><use transform="matrix(0.06172839506172839,0,0,0.06172839506172839,0,0)" xlink:href="#N"/><use transform="matrix(0.06172839506172839,0,0,0.06172839506172839,7.345679012345679,0)" xlink:href="#M"/><use transform="matrix(0.06172839506172839,0,0,0.06172839506172839,19.691358024691358,0)" xlink:href="#G"/><use transform="matrix(0.06172839506172839,0,0,0.06172839506172839,32.03703703703704,0)" xlink:href="#H"/><use transform="matrix(0.06172839506172839,0,0,0.06172839506172839,44.382716049382715,0)" xlink:href="#R"/></g><g id="n"><use transform="matrix(0.06172839506172839,0,0,0.06172839506172839,0,0)" xlink:href="#K"/><use transform="matrix(0.06172839506172839,0,0,0.06172839506172839,12.345679012345679,0)" xlink:href="#F"/><use transform="matrix(0.06172839506172839,0,0,0.06172839506172839,24.691358024691358,0)" xlink:href="#P"/></g><g id="o"><use transform="matrix(0.06172839506172839,0,0,0.06172839506172839,0,0)" xlink:href="#N"/><use transform="matrix(0.06172839506172839,0,0,0.06172839506172839,7.345679012345679,0)" xlink:href="#M"/><use transform="matrix(0.06172839506172839,0,0,0.06172839506172839,19.691358024691358,0)" xlink:href="#G"/><use transform="matrix(0.06172839506172839,0,0,0.06172839506172839,32.03703703703704,0)" xlink:href="#H"/><use transform="matrix(0.06172839506172839,0,0,0.06172839506172839,44.382716049382715,0)" xlink:href="#R"/></g></defs></g></svg>