<svg xmlns="http://www.w3.org/2000/svg" xmlns:xlink="http://www.w3.org/1999/xlink" xmlns:lucid="lucid" width="1060" height="1060"><g transform="translate(-220 -200)" lucid:page-tab-id="0_0"><path d="M0 0h1870.4v1323.2H0z" fill="#fff"/><path d="M240 220h1020v460H240z" stroke="#000" stroke-width="2" fill="#e5e5e5"/><use xlink:href="#a" transform="matrix(1,0,0,1,245,225) translate(0 14.4)"/><use xlink:href="#b" transform="matrix(1,0,0,1,245,225) translate(56.900000000000006 14.4)"/><path d="M300 720h420v520H300z" stroke="#000" stroke-width="2" fill="#fff"/><use xlink:href="#c" transform="matrix(1,0,0,1,305,725) translate(0 14.4)"/><path d="M340 760h160v40H340z" stroke="#000" stroke-width="2" fill="#fff"/><use xlink:href="#d" transform="matrix(1,0,0,1,345,765) translate(0 18.6)"/><path d="M340 820h160v40H340z" stroke="#000" stroke-width="2" fill="#fff"/><use xlink:href="#e" transform="matrix(1,0,0,1,345,825) translate(0 18.6)"/><path d="M340 880h160v40H340z" stroke="#000" stroke-width="2" fill="#fff"/><use xlink:href="#f" transform="matrix(1,0,0,1,345,885) translate(0 18.6)"/><path d="M300 460h420v180H300z" stroke="#000" stroke-width="2" fill="#fff"/><use xlink:href="#g" transform="matrix(1,0,0,1,305,465) translate(0 14.4)"/><path d="M340 560h160v40H340z" stroke="#000" stroke-width="2" fill="#fff"/><use xlink:href="#h" transform="matrix(1,0,0,1,345,565) translate(0 18.6)"/><path d="M340 500h160v40H340z" stroke="#000" stroke-width="2" fill="#fff"/><use xlink:href="#i" transform="matrix(1,0,0,1,345,505) translate(0 18.6)"/><path d="M300 260h420v120H300z" stroke="#000" stroke-width="2" fill="#fff"/><use xlink:href="#j" transform="matrix(1,0,0,1,305,265) translate(0 14.4)"/><path d="M340 300h160v40H340z" stroke="#000" stroke-width="2" fill="#fff"/><use xlink:href="#k" transform="matrix(1,0,0,1,345,305) translate(0 18.6)"/><path d="M501 320h239v260H519.24M501 320h-3" stroke="#000" stroke-width="2" fill="none"/><path d="M504.24 580l14.26-4.64v9.28z" stroke="#000" stroke-width="2"/><path d="M339 580h-59v200h40.76M339 580h3" stroke="#000" stroke-width="2" fill="none"/><path d="M335.76 780l-14.26 4.64v-9.28z" stroke="#000" stroke-width="2"/><path d="M339 520h-79v320h60.76M339 520h3" stroke="#000" stroke-width="2" fill="none"/><path d="M335.76 840l-14.26 4.64v-9.28z" stroke="#000" stroke-width="2"/><path d="M800 460h420v180H800z" stroke="#000" stroke-width="2" fill="#fff"/><use xlink:href="#l" transform="matrix(1,0,0,1,805,465) translate(0 14.4)"/><path d="M840 500h160v40H840z" stroke="#000" stroke-width="2" fill="#fff"/><use xlink:href="#m" transform="matrix(1,0,0,1,845,505) translate(0 18.6)"/><path d="M839 520h-79v380H519.24M839 520h3" stroke="#000" stroke-width="2" fill="none"/><path d="M504.24 900l14.26-4.64v9.28z" stroke="#000" stroke-width="2"/><path d="M319 1000h241v220H319z" stroke="#000" stroke-width="2" fill="#e5e5e5"/><use xlink:href="#n" transform="matrix(1,0,0,1,324,1005) translate(0 14.4)"/><use xlink:href="#o" transform="matrix(1,0,0,1,324,1005) translate(47.9 14.4)"/><use xlink:href="#p" transform="matrix(1,0,0,1,324,1005) translate(67.9 14.4)"/><path d="M340 1040h158v120H340z" stroke="#000" stroke-width="2" fill="#fff"/><use xlink:href="#q" transform="matrix(1,0,0,1,345,1045) translate(0 15.399999999999993)"/><use xlink:href="#r" transform="matrix(1,0,0,1,345,1045) translate(0 36.99999999999999)"/><use xlink:href="#s" transform="matrix(1,0,0,1,345,1045) translate(20 36.99999999999999)"/><use xlink:href="#r" transform="matrix(1,0,0,1,345,1045) translate(0 58.599999999999994)"/><use xlink:href="#t" transform="matrix(1,0,0,1,345,1045) translate(20 58.599999999999994)"/><use xlink:href="#r" transform="matrix(1,0,0,1,345,1045) translate(0 80.20000000000002)"/><use xlink:href="#u" transform="matrix(1,0,0,1,345,1045) translate(20 80.20000000000002)"/><use xlink:href="#v" transform="matrix(1,0,0,1,345,1045) translate(0 101.80000000000001)"/><path d="M360 1060h158v120H360z" stroke="#000" stroke-width="2" fill="#fff"/><use xlink:href="#q" transform="matrix(1,0,0,1,365,1065) translate(0 15.399999999999993)"/><use xlink:href="#r" transform="matrix(1,0,0,1,365,1065) translate(0 36.99999999999999)"/><use xlink:href="#s" transform="matrix(1,0,0,1,365,1065) translate(20 36.99999999999999)"/><use xlink:href="#r" transform="matrix(1,0,0,1,365,1065) translate(0 58.599999999999994)"/><use xlink:href="#t" transform="matrix(1,0,0,1,365,1065) translate(20 58.599999999999994)"/><use xlink:href="#r" transform="matrix(1,0,0,1,365,1065) translate(0 80.20000000000002)"/><use xlink:href="#u" transform="matrix(1,0,0,1,365,1065) translate(20 80.20000000000002)"/><use xlink:href="#v" transform="matrix(1,0,0,1,365,1065) translate(0 101.80000000000001)"/><path d="M380 1080h158v120H380z" stroke="#000" stroke-width="2" fill="#fff"/><g><use xlink:href="#q" transform="matrix(1,0,0,1,385,1085) translate(0 15.399999999999993)"/><use xlink:href="#r" transform="matrix(1,0,0,1,385,1085) translate(0 36.99999999999999)"/><use xlink:href="#s" transform="matrix(1,0,0,1,385,1085) translate(20 36.99999999999999)"/><use xlink:href="#r" transform="matrix(1,0,0,1,385,1085) translate(0 58.599999999999994)"/><use xlink:href="#t" transform="matrix(1,0,0,1,385,1085) translate(20 58.599999999999994)"/><use xlink:href="#r" transform="matrix(1,0,0,1,385,1085) translate(0 80.20000000000002)"/><use xlink:href="#u" transform="matrix(1,0,0,1,385,1085) translate(20 80.20000000000002)"/><use xlink:href="#v" transform="matrix(1,0,0,1,385,1085) translate(0 101.80000000000001)"/></g><path d="M340 940h160v40H340z" stroke="#000" stroke-width="2" fill="#fff"/><g><use xlink:href="#w" transform="matrix(1,0,0,1,345,945) translate(0 18.6)"/></g><path d="M840 560h160v40H840z" stroke="#000" stroke-width="2" fill="#fff"/><g><use xlink:href="#x" transform="matrix(1,0,0,1,845,565) translate(0 18.6)"/></g><path d="M839 580h-59v380H519.24M839 580h3" stroke="#000" stroke-width="2" fill="none"/><path d="M504.24 960l14.26-4.64v9.28z" stroke="#000" stroke-width="2"/><defs><path d="M143 4C61 4 22-44 18-125c-5-107 100-154 193-111 17 8 29 25 37 43l-32 9c-13-25-37-40-76-40-61 0-88 39-88 99 0 61 29 100 91 101 35 0 62-11 79-27v-45h-74v-28h105v86C228-13 192 4 143 4" id="y"/><path d="M24 0v-261h32V0H24" id="z"/><path d="M100-194c62-1 85 37 85 99 1 63-27 99-86 99S16-35 15-95c0-66 28-99 85-99zM99-20c44 1 53-31 53-75 0-43-8-75-51-75s-53 32-53 75 10 74 51 75" id="A"/><path d="M115-194c53 0 69 39 70 98 0 66-23 100-70 100C84 3 66-7 56-30L54 0H23l1-261h32v101c10-23 28-34 59-34zm-8 174c40 0 45-34 45-75 0-40-5-75-45-74-42 0-51 32-51 76 0 43 10 73 51 73" id="B"/><path d="M141-36C126-15 110 5 73 4 37 3 15-17 15-53c-1-64 63-63 125-63 3-35-9-54-41-54-24 1-41 7-42 31l-33-3c5-37 33-52 76-52 45 0 72 20 72 64v82c-1 20 7 32 28 27v20c-31 9-61-2-59-35zM48-53c0 20 12 33 32 33 41-3 63-29 60-74-43 2-92-5-92 41" id="C"/><g id="a"><use transform="matrix(0.05,0,0,0.05,0,0)" xlink:href="#y"/><use transform="matrix(0.05,0,0,0.05,14,0)" xlink:href="#z"/><use transform="matrix(0.05,0,0,0.05,17.95,0)" xlink:href="#A"/><use transform="matrix(0.05,0,0,0.05,27.950000000000003,0)" xlink:href="#B"/><use transform="matrix(0.05,0,0,0.05,37.95,0)" xlink:href="#C"/><use transform="matrix(0.05,0,0,0.05,47.95,0)" xlink:href="#z"/></g><path d="M85-194c31 0 48 13 60 33l-1-100h32l1 261h-30c-2-10 0-23-3-31C134-8 116 4 85 4 32 4 16-35 15-94c0-66 23-100 70-100zm9 24c-40 0-46 34-46 75 0 40 6 74 45 74 42 0 51-32 51-76 0-42-9-74-50-73" id="D"/><path d="M96-169c-40 0-48 33-48 73s9 75 48 75c24 0 41-14 43-38l32 2c-6 37-31 61-74 61-59 0-76-41-82-99-10-93 101-131 147-64 4 7 5 14 7 22l-32 3c-4-21-16-35-41-35" id="E"/><path d="M84 4C-5 8 30-112 23-190h32v120c0 31 7 50 39 49 72-2 45-101 50-169h31l1 190h-30c-1-10 1-25-2-33-11 22-28 36-60 37" id="F"/><path d="M210-169c-67 3-38 105-44 169h-31v-121c0-29-5-50-35-48C34-165 62-65 56 0H25l-1-190h30c1 10-1 24 2 32 10-44 99-50 107 0 11-21 27-35 58-36 85-2 47 119 55 194h-31v-121c0-29-5-49-35-48" id="G"/><path d="M100-194c63 0 86 42 84 106H49c0 40 14 67 53 68 26 1 43-12 49-29l28 8c-11 28-37 45-77 45C44 4 14-33 15-96c1-61 26-98 85-98zm52 81c6-60-76-77-97-28-3 7-6 17-6 28h103" id="H"/><path d="M117-194c89-4 53 116 60 194h-32v-121c0-31-8-49-39-48C34-167 62-67 57 0H25l-1-190h30c1 10-1 24 2 32 11-22 29-35 61-36" id="I"/><path d="M59-47c-2 24 18 29 38 22v24C64 9 27 4 27-40v-127H5v-23h24l9-43h21v43h35v23H59v120" id="J"/><path d="M135-143c-3-34-86-38-87 0 15 53 115 12 119 90S17 21 10-45l28-5c4 36 97 45 98 0-10-56-113-15-118-90-4-57 82-63 122-42 12 7 21 19 24 35" id="K"/><g id="b"><use transform="matrix(0.05,0,0,0.05,0,0)" xlink:href="#D"/><use transform="matrix(0.05,0,0,0.05,10,0)" xlink:href="#A"/><use transform="matrix(0.05,0,0,0.05,20,0)" xlink:href="#E"/><use transform="matrix(0.05,0,0,0.05,29,0)" xlink:href="#F"/><use transform="matrix(0.05,0,0,0.05,39,0)" xlink:href="#G"/><use transform="matrix(0.05,0,0,0.05,53.95,0)" xlink:href="#H"/><use transform="matrix(0.05,0,0,0.05,63.95,0)" xlink:href="#I"/><use transform="matrix(0.05,0,0,0.05,73.95,0)" xlink:href="#J"/><use transform="matrix(0.05,0,0,0.05,78.95,0)" xlink:href="#K"/></g><path d="M24-231v-30h32v30H24zM24 0v-190h32V0H24" id="L"/><path d="M33-154v-36h34v36H33zM33 0v-36h34V0H33" id="M"/><path d="M115-194c55 1 70 41 70 98S169 2 115 4C84 4 66-9 55-30l1 105H24l-1-265h31l2 30c10-21 28-34 59-34zm-8 174c40 0 45-34 45-75s-6-73-45-74c-42 0-51 32-51 76 0 43 10 73 51 73" id="N"/><path d="M179-190L93 31C79 59 56 82 12 73V49c39 6 53-20 64-50L1-190h34L92-34l54-156h33" id="O"/><g id="c"><use transform="matrix(0.05,0,0,0.05,0,0)" xlink:href="#L"/><use transform="matrix(0.05,0,0,0.05,3.95,0)" xlink:href="#D"/><use transform="matrix(0.05,0,0,0.05,13.949999999999998,0)" xlink:href="#M"/><use transform="matrix(0.05,0,0,0.05,18.95,0)" xlink:href="#I"/><use transform="matrix(0.05,0,0,0.05,28.950000000000003,0)" xlink:href="#C"/><use transform="matrix(0.05,0,0,0.05,38.95,0)" xlink:href="#G"/><use transform="matrix(0.05,0,0,0.05,53.900000000000006,0)" xlink:href="#H"/><use transform="matrix(0.05,0,0,0.05,63.900000000000006,0)" xlink:href="#K"/><use transform="matrix(0.05,0,0,0.05,72.9,0)" xlink:href="#N"/><use transform="matrix(0.05,0,0,0.05,82.9,0)" xlink:href="#C"/><use transform="matrix(0.05,0,0,0.05,92.9,0)" xlink:href="#E"/><use transform="matrix(0.05,0,0,0.05,101.9,0)" xlink:href="#H"/><use transform="matrix(0.05,0,0,0.05,111.9,0)" xlink:href="#M"/><use transform="matrix(0.05,0,0,0.05,116.9,0)" xlink:href="#D"/><use transform="matrix(0.05,0,0,0.05,126.9,0)" xlink:href="#A"/><use transform="matrix(0.05,0,0,0.05,136.9,0)" xlink:href="#E"/><use transform="matrix(0.05,0,0,0.05,145.9,0)" xlink:href="#J"/><use transform="matrix(0.05,0,0,0.05,150.9,0)" xlink:href="#O"/><use transform="matrix(0.05,0,0,0.05,159.9,0)" xlink:href="#N"/><use transform="matrix(0.05,0,0,0.05,169.9,0)" xlink:href="#H"/><use transform="matrix(0.05,0,0,0.05,179.9,0)" xlink:href="#M"/><use transform="matrix(0.05,0,0,0.05,184.9,0)" xlink:href="#M"/><use transform="matrix(0.05,0,0,0.05,189.9,0)" xlink:href="#G"/><use transform="matrix(0.05,0,0,0.05,204.85000000000002,0)" xlink:href="#O"/><use transform="matrix(0.05,0,0,0.05,213.85000000000002,0)" xlink:href="#D"/><use transform="matrix(0.05,0,0,0.05,223.85000000000002,0)" xlink:href="#A"/><use transform="matrix(0.05,0,0,0.05,233.85000000000002,0)" xlink:href="#E"/><use transform="matrix(0.05,0,0,0.05,242.85000000000002,0)" xlink:href="#L"/><use transform="matrix(0.05,0,0,0.05,246.79999999999995,0)" xlink:href="#D"/></g><path d="M177-190C167-65 218 103 67 71c-23-6-38-20-44-43l32-5c15 47 100 32 89-28v-30C133-14 115 1 83 1 29 1 15-40 15-95c0-56 16-97 71-98 29-1 48 16 59 35 1-10 0-23 2-32h30zM94-22c36 0 50-32 50-73 0-42-14-75-50-75-39 0-46 34-46 75s6 73 46 73" id="P"/><path d="M114-163C36-179 61-72 57 0H25l-1-190h30c1 12-1 29 2 39 6-27 23-49 58-41v29" id="Q"/><path d="M101-234c-31-9-42 10-38 44h38v23H63V0H32v-167H5v-23h27c-7-52 17-82 69-68v24" id="R"/><g id="d"><use transform="matrix(0.05,0,0,0.05,0,0)" xlink:href="#P"/><use transform="matrix(0.05,0,0,0.05,10,0)" xlink:href="#Q"/><use transform="matrix(0.05,0,0,0.05,15.949999999999998,0)" xlink:href="#C"/><use transform="matrix(0.05,0,0,0.05,25.950000000000003,0)" xlink:href="#I"/><use transform="matrix(0.05,0,0,0.05,35.95,0)" xlink:href="#D"/><use transform="matrix(0.05,0,0,0.05,45.95,0)" xlink:href="#N"/><use transform="matrix(0.05,0,0,0.05,55.95,0)" xlink:href="#C"/><use transform="matrix(0.05,0,0,0.05,65.95,0)" xlink:href="#Q"/><use transform="matrix(0.05,0,0,0.05,71.9,0)" xlink:href="#H"/><use transform="matrix(0.05,0,0,0.05,81.9,0)" xlink:href="#I"/><use transform="matrix(0.05,0,0,0.05,91.9,0)" xlink:href="#J"/><use transform="matrix(0.05,0,0,0.05,96.9,0)" xlink:href="#R"/><use transform="matrix(0.05,0,0,0.05,101.9,0)" xlink:href="#L"/><use transform="matrix(0.05,0,0,0.05,105.85000000000001,0)" xlink:href="#H"/><use transform="matrix(0.05,0,0,0.05,115.85000000000001,0)" xlink:href="#z"/><use transform="matrix(0.05,0,0,0.05,119.80000000000001,0)" xlink:href="#D"/></g><path d="M-5 72V49h209v23H-5" id="S"/><path d="M27 0v-27h64v-190l-56 39v-29l58-41h29v221h61V0H27" id="T"/><g id="e"><use transform="matrix(0.05,0,0,0.05,0,0)" xlink:href="#N"/><use transform="matrix(0.05,0,0,0.05,10,0)" xlink:href="#C"/><use transform="matrix(0.05,0,0,0.05,20,0)" xlink:href="#Q"/><use transform="matrix(0.05,0,0,0.05,25.950000000000003,0)" xlink:href="#H"/><use transform="matrix(0.05,0,0,0.05,35.95,0)" xlink:href="#I"/><use transform="matrix(0.05,0,0,0.05,45.95,0)" xlink:href="#J"/><use transform="matrix(0.05,0,0,0.05,50.95,0)" xlink:href="#R"/><use transform="matrix(0.05,0,0,0.05,55.95,0)" xlink:href="#L"/><use transform="matrix(0.05,0,0,0.05,59.900000000000006,0)" xlink:href="#H"/><use transform="matrix(0.05,0,0,0.05,69.9,0)" xlink:href="#z"/><use transform="matrix(0.05,0,0,0.05,73.85000000000001,0)" xlink:href="#D"/><use transform="matrix(0.05,0,0,0.05,83.85000000000001,0)" xlink:href="#S"/><use transform="matrix(0.05,0,0,0.05,93.85000000000001,0)" xlink:href="#T"/></g><path d="M101-251c82-7 93 87 43 132L82-64C71-53 59-42 53-27h129V0H18c2-99 128-94 128-182 0-28-16-43-45-43s-46 15-49 41l-32-3c6-41 34-60 81-64" id="U"/><g id="f"><use transform="matrix(0.05,0,0,0.05,0,0)" xlink:href="#N"/><use transform="matrix(0.05,0,0,0.05,10,0)" xlink:href="#C"/><use transform="matrix(0.05,0,0,0.05,20,0)" xlink:href="#Q"/><use transform="matrix(0.05,0,0,0.05,25.950000000000003,0)" xlink:href="#H"/><use transform="matrix(0.05,0,0,0.05,35.95,0)" xlink:href="#I"/><use transform="matrix(0.05,0,0,0.05,45.95,0)" xlink:href="#J"/><use transform="matrix(0.05,0,0,0.05,50.95,0)" xlink:href="#R"/><use transform="matrix(0.05,0,0,0.05,55.95,0)" xlink:href="#L"/><use transform="matrix(0.05,0,0,0.05,59.900000000000006,0)" xlink:href="#H"/><use transform="matrix(0.05,0,0,0.05,69.9,0)" xlink:href="#z"/><use transform="matrix(0.05,0,0,0.05,73.85000000000001,0)" xlink:href="#D"/><use transform="matrix(0.05,0,0,0.05,83.85000000000001,0)" xlink:href="#S"/><use transform="matrix(0.05,0,0,0.05,93.85000000000001,0)" xlink:href="#U"/></g><g id="g"><use transform="matrix(0.05,0,0,0.05,0,0)" xlink:href="#L"/><use transform="matrix(0.05,0,0,0.05,3.95,0)" xlink:href="#D"/><use transform="matrix(0.05,0,0,0.05,13.949999999999998,0)" xlink:href="#M"/><use transform="matrix(0.05,0,0,0.05,18.95,0)" xlink:href="#I"/><use transform="matrix(0.05,0,0,0.05,28.950000000000003,0)" xlink:href="#C"/><use transform="matrix(0.05,0,0,0.05,38.95,0)" xlink:href="#G"/><use transform="matrix(0.05,0,0,0.05,53.900000000000006,0)" xlink:href="#H"/><use transform="matrix(0.05,0,0,0.05,63.900000000000006,0)" xlink:href="#K"/><use transform="matrix(0.05,0,0,0.05,72.9,0)" xlink:href="#N"/><use transform="matrix(0.05,0,0,0.05,82.9,0)" xlink:href="#C"/><use transform="matrix(0.05,0,0,0.05,92.9,0)" xlink:href="#E"/><use transform="matrix(0.05,0,0,0.05,101.9,0)" xlink:href="#H"/><use transform="matrix(0.05,0,0,0.05,111.9,0)" xlink:href="#M"/><use transform="matrix(0.05,0,0,0.05,116.9,0)" xlink:href="#N"/><use transform="matrix(0.05,0,0,0.05,126.9,0)" xlink:href="#C"/><use transform="matrix(0.05,0,0,0.05,136.9,0)" xlink:href="#Q"/><use transform="matrix(0.05,0,0,0.05,142.85,0)" xlink:href="#H"/><use transform="matrix(0.05,0,0,0.05,152.85,0)" xlink:href="#I"/><use transform="matrix(0.05,0,0,0.05,162.85,0)" xlink:href="#J"/><use transform="matrix(0.05,0,0,0.05,167.85,0)" xlink:href="#D"/><use transform="matrix(0.05,0,0,0.05,177.85,0)" xlink:href="#A"/><use transform="matrix(0.05,0,0,0.05,187.85,0)" xlink:href="#E"/><use transform="matrix(0.05,0,0,0.05,196.85,0)" xlink:href="#J"/><use transform="matrix(0.05,0,0,0.05,201.85,0)" xlink:href="#O"/><use transform="matrix(0.05,0,0,0.05,210.85000000000002,0)" xlink:href="#N"/><use transform="matrix(0.05,0,0,0.05,220.85000000000002,0)" xlink:href="#H"/><use transform="matrix(0.05,0,0,0.05,230.85000000000002,0)" xlink:href="#S"/><use transform="matrix(0.05,0,0,0.05,240.85000000000002,0)" xlink:href="#T"/><use transform="matrix(0.05,0,0,0.05,250.85000000000002,0)" xlink:href="#M"/><use transform="matrix(0.05,0,0,0.05,255.85000000000002,0)" xlink:href="#M"/><use transform="matrix(0.05,0,0,0.05,260.85,0)" xlink:href="#B"/><use transform="matrix(0.05,0,0,0.05,270.85,0)" xlink:href="#S"/><use transform="matrix(0.05,0,0,0.05,280.85,0)" xlink:href="#D"/><use transform="matrix(0.05,0,0,0.05,290.85,0)" xlink:href="#A"/><use transform="matrix(0.05,0,0,0.05,300.85,0)" xlink:href="#E"/><use transform="matrix(0.05,0,0,0.05,309.85,0)" xlink:href="#L"/><use transform="matrix(0.05,0,0,0.05,313.8,0)" xlink:href="#D"/></g><g id="h"><use transform="matrix(0.05,0,0,0.05,0,0)" xlink:href="#N"/><use transform="matrix(0.05,0,0,0.05,10,0)" xlink:href="#C"/><use transform="matrix(0.05,0,0,0.05,20,0)" xlink:href="#Q"/><use transform="matrix(0.05,0,0,0.05,25.950000000000003,0)" xlink:href="#H"/><use transform="matrix(0.05,0,0,0.05,35.95,0)" xlink:href="#I"/><use transform="matrix(0.05,0,0,0.05,45.95,0)" xlink:href="#J"/><use transform="matrix(0.05,0,0,0.05,50.95,0)" xlink:href="#R"/><use transform="matrix(0.05,0,0,0.05,55.95,0)" xlink:href="#L"/><use transform="matrix(0.05,0,0,0.05,59.900000000000006,0)" xlink:href="#H"/><use transform="matrix(0.05,0,0,0.05,69.9,0)" xlink:href="#z"/><use transform="matrix(0.05,0,0,0.05,73.85000000000001,0)" xlink:href="#D"/></g><g id="i"><use transform="matrix(0.05,0,0,0.05,0,0)" xlink:href="#B"/><use transform="matrix(0.05,0,0,0.05,10,0)" xlink:href="#S"/><use transform="matrix(0.05,0,0,0.05,20,0)" xlink:href="#R"/><use transform="matrix(0.05,0,0,0.05,25,0)" xlink:href="#L"/><use transform="matrix(0.05,0,0,0.05,28.950000000000003,0)" xlink:href="#H"/><use transform="matrix(0.05,0,0,0.05,38.95,0)" xlink:href="#z"/><use transform="matrix(0.05,0,0,0.05,42.900000000000006,0)" xlink:href="#D"/></g><g id="j"><use transform="matrix(0.05,0,0,0.05,0,0)" xlink:href="#L"/><use transform="matrix(0.05,0,0,0.05,3.95,0)" xlink:href="#D"/><use transform="matrix(0.05,0,0,0.05,13.949999999999998,0)" xlink:href="#M"/><use transform="matrix(0.05,0,0,0.05,18.95,0)" xlink:href="#I"/><use transform="matrix(0.05,0,0,0.05,28.950000000000003,0)" xlink:href="#C"/><use transform="matrix(0.05,0,0,0.05,38.95,0)" xlink:href="#G"/><use transform="matrix(0.05,0,0,0.05,53.900000000000006,0)" xlink:href="#H"/><use transform="matrix(0.05,0,0,0.05,63.900000000000006,0)" xlink:href="#K"/><use transform="matrix(0.05,0,0,0.05,72.9,0)" xlink:href="#N"/><use transform="matrix(0.05,0,0,0.05,82.9,0)" xlink:href="#C"/><use transform="matrix(0.05,0,0,0.05,92.9,0)" xlink:href="#E"/><use transform="matrix(0.05,0,0,0.05,101.9,0)" xlink:href="#H"/><use transform="matrix(0.05,0,0,0.05,111.9,0)" xlink:href="#M"/><use transform="matrix(0.05,0,0,0.05,116.9,0)" xlink:href="#P"/><use transform="matrix(0.05,0,0,0.05,126.9,0)" xlink:href="#Q"/><use transform="matrix(0.05,0,0,0.05,132.85,0)" xlink:href="#C"/><use transform="matrix(0.05,0,0,0.05,142.85,0)" xlink:href="#I"/><use transform="matrix(0.05,0,0,0.05,152.85,0)" xlink:href="#D"/><use transform="matrix(0.05,0,0,0.05,162.85,0)" xlink:href="#N"/><use transform="matrix(0.05,0,0,0.05,172.85,0)" xlink:href="#C"/><use transform="matrix(0.05,0,0,0.05,182.85,0)" xlink:href="#Q"/><use transform="matrix(0.05,0,0,0.05,188.79999999999998,0)" xlink:href="#H"/><use transform="matrix(0.05,0,0,0.05,198.79999999999998,0)" xlink:href="#I"/><use transform="matrix(0.05,0,0,0.05,208.79999999999995,0)" xlink:href="#J"/><use transform="matrix(0.05,0,0,0.05,213.79999999999995,0)" xlink:href="#D"/><use transform="matrix(0.05,0,0,0.05,223.79999999999995,0)" xlink:href="#A"/><use transform="matrix(0.05,0,0,0.05,233.79999999999995,0)" xlink:href="#E"/><use transform="matrix(0.05,0,0,0.05,242.79999999999995,0)" xlink:href="#J"/><use transform="matrix(0.05,0,0,0.05,247.79999999999995,0)" xlink:href="#O"/><use transform="matrix(0.05,0,0,0.05,256.79999999999995,0)" xlink:href="#N"/><use transform="matrix(0.05,0,0,0.05,266.79999999999995,0)" xlink:href="#H"/><use transform="matrix(0.05,0,0,0.05,276.79999999999995,0)" xlink:href="#M"/><use transform="matrix(0.05,0,0,0.05,281.79999999999995,0)" xlink:href="#M"/><use transform="matrix(0.05,0,0,0.05,286.79999999999995,0)" xlink:href="#C"/><use transform="matrix(0.05,0,0,0.05,296.79999999999995,0)" xlink:href="#S"/><use transform="matrix(0.05,0,0,0.05,306.79999999999995,0)" xlink:href="#D"/><use transform="matrix(0.05,0,0,0.05,316.79999999999995,0)" xlink:href="#A"/><use transform="matrix(0.05,0,0,0.05,326.79999999999995,0)" xlink:href="#E"/><use transform="matrix(0.05,0,0,0.05,335.79999999999995,0)" xlink:href="#L"/><use transform="matrix(0.05,0,0,0.05,339.74999999999994,0)" xlink:href="#D"/></g><g id="k"><use transform="matrix(0.05,0,0,0.05,0,0)" xlink:href="#C"/><use transform="matrix(0.05,0,0,0.05,10,0)" xlink:href="#S"/><use transform="matrix(0.05,0,0,0.05,20,0)" xlink:href="#R"/><use transform="matrix(0.05,0,0,0.05,25,0)" xlink:href="#L"/><use transform="matrix(0.05,0,0,0.05,28.950000000000003,0)" xlink:href="#H"/><use transform="matrix(0.05,0,0,0.05,38.95,0)" xlink:href="#z"/><use transform="matrix(0.05,0,0,0.05,42.900000000000006,0)" xlink:href="#D"/></g><g id="l"><use transform="matrix(0.05,0,0,0.05,0,0)" xlink:href="#L"/><use transform="matrix(0.05,0,0,0.05,3.95,0)" xlink:href="#D"/><use transform="matrix(0.05,0,0,0.05,13.949999999999998,0)" xlink:href="#M"/><use transform="matrix(0.05,0,0,0.05,18.95,0)" xlink:href="#I"/><use transform="matrix(0.05,0,0,0.05,28.950000000000003,0)" xlink:href="#C"/><use transform="matrix(0.05,0,0,0.05,38.95,0)" xlink:href="#G"/><use transform="matrix(0.05,0,0,0.05,53.900000000000006,0)" xlink:href="#H"/><use transform="matrix(0.05,0,0,0.05,63.900000000000006,0)" xlink:href="#K"/><use transform="matrix(0.05,0,0,0.05,72.9,0)" xlink:href="#N"/><use transform="matrix(0.05,0,0,0.05,82.9,0)" xlink:href="#C"/><use transform="matrix(0.05,0,0,0.05,92.9,0)" xlink:href="#E"/><use transform="matrix(0.05,0,0,0.05,101.9,0)" xlink:href="#H"/><use transform="matrix(0.05,0,0,0.05,111.9,0)" xlink:href="#M"/><use transform="matrix(0.05,0,0,0.05,116.9,0)" xlink:href="#N"/><use transform="matrix(0.05,0,0,0.05,126.9,0)" xlink:href="#C"/><use transform="matrix(0.05,0,0,0.05,136.9,0)" xlink:href="#Q"/><use transform="matrix(0.05,0,0,0.05,142.85,0)" xlink:href="#H"/><use transform="matrix(0.05,0,0,0.05,152.85,0)" xlink:href="#I"/><use transform="matrix(0.05,0,0,0.05,162.85,0)" xlink:href="#J"/><use transform="matrix(0.05,0,0,0.05,167.85,0)" xlink:href="#D"/><use transform="matrix(0.05,0,0,0.05,177.85,0)" xlink:href="#A"/><use transform="matrix(0.05,0,0,0.05,187.85,0)" xlink:href="#E"/><use transform="matrix(0.05,0,0,0.05,196.85,0)" xlink:href="#J"/><use transform="matrix(0.05,0,0,0.05,201.85,0)" xlink:href="#O"/><use transform="matrix(0.05,0,0,0.05,210.85000000000002,0)" xlink:href="#N"/><use transform="matrix(0.05,0,0,0.05,220.85000000000002,0)" xlink:href="#H"/><use transform="matrix(0.05,0,0,0.05,230.85000000000002,0)" xlink:href="#S"/><use transform="matrix(0.05,0,0,0.05,240.85000000000002,0)" xlink:href="#U"/><use transform="matrix(0.05,0,0,0.05,250.85000000000002,0)" xlink:href="#M"/><use transform="matrix(0.05,0,0,0.05,255.85000000000002,0)" xlink:href="#M"/><use transform="matrix(0.05,0,0,0.05,260.85,0)" xlink:href="#E"/><use transform="matrix(0.05,0,0,0.05,269.85,0)" xlink:href="#S"/><use transform="matrix(0.05,0,0,0.05,279.85,0)" xlink:href="#D"/><use transform="matrix(0.05,0,0,0.05,289.85,0)" xlink:href="#A"/><use transform="matrix(0.05,0,0,0.05,299.85,0)" xlink:href="#E"/><use transform="matrix(0.05,0,0,0.05,308.85,0)" xlink:href="#L"/><use transform="matrix(0.05,0,0,0.05,312.8,0)" xlink:href="#D"/></g><g id="m"><use transform="matrix(0.05,0,0,0.05,0,0)" xlink:href="#E"/><use transform="matrix(0.05,0,0,0.05,9,0)" xlink:href="#S"/><use transform="matrix(0.05,0,0,0.05,19,0)" xlink:href="#R"/><use transform="matrix(0.05,0,0,0.05,24,0)" xlink:href="#L"/><use transform="matrix(0.05,0,0,0.05,27.950000000000003,0)" xlink:href="#H"/><use transform="matrix(0.05,0,0,0.05,37.95,0)" xlink:href="#z"/><use transform="matrix(0.05,0,0,0.05,41.900000000000006,0)" xlink:href="#D"/></g><path d="M205 0l-28-72H64L36 0H1l101-248h38L239 0h-34zm-38-99l-47-123c-12 45-31 82-46 123h93" id="V"/><g id="n"><use transform="matrix(0.05,0,0,0.05,0,0)" xlink:href="#V"/><use transform="matrix(0.05,0,0,0.05,12,0)" xlink:href="#Q"/><use transform="matrix(0.05,0,0,0.05,17.95,0)" xlink:href="#Q"/><use transform="matrix(0.05,0,0,0.05,23.9,0)" xlink:href="#C"/><use transform="matrix(0.05,0,0,0.05,33.9,0)" xlink:href="#O"/></g><g id="o"><use transform="matrix(0.05,0,0,0.05,0,0)" xlink:href="#A"/><use transform="matrix(0.05,0,0,0.05,10,0)" xlink:href="#R"/></g><g id="p"><use transform="matrix(0.05,0,0,0.05,0,0)" xlink:href="#K"/><use transform="matrix(0.05,0,0,0.05,9,0)" xlink:href="#J"/><use transform="matrix(0.05,0,0,0.05,14,0)" xlink:href="#Q"/><use transform="matrix(0.05,0,0,0.05,19.95,0)" xlink:href="#F"/><use transform="matrix(0.05,0,0,0.05,29.950000000000003,0)" xlink:href="#E"/><use transform="matrix(0.05,0,0,0.05,38.95,0)" xlink:href="#J"/></g><path d="M39-94c74 12-11 154 75 146v23c-44 4-70-10-70-52C44-23 55-84 6-82v-22c81 4-7-162 84-157h24v23c-82-15-2 131-75 144" id="W"/><use transform="matrix(0.05,0,0,0.05,0,0)" xlink:href="#W" id="q"/><g id="s"><use transform="matrix(0.05,0,0,0.05,0,0)" xlink:href="#K"/><use transform="matrix(0.05,0,0,0.05,9,0)" xlink:href="#J"/><use transform="matrix(0.05,0,0,0.05,14,0)" xlink:href="#Q"/><use transform="matrix(0.05,0,0,0.05,19.95,0)" xlink:href="#F"/><use transform="matrix(0.05,0,0,0.05,29.950000000000003,0)" xlink:href="#E"/><use transform="matrix(0.05,0,0,0.05,38.95,0)" xlink:href="#J"/><use transform="matrix(0.05,0,0,0.05,43.95,0)" xlink:href="#R"/><use transform="matrix(0.05,0,0,0.05,48.95,0)" xlink:href="#L"/><use transform="matrix(0.05,0,0,0.05,52.900000000000006,0)" xlink:href="#H"/><use transform="matrix(0.05,0,0,0.05,62.900000000000006,0)" xlink:href="#z"/><use transform="matrix(0.05,0,0,0.05,66.85000000000001,0)" xlink:href="#D"/><use transform="matrix(0.05,0,0,0.05,76.85000000000001,0)" xlink:href="#S"/><use transform="matrix(0.05,0,0,0.05,86.85000000000001,0)" xlink:href="#T"/></g><g id="t"><use transform="matrix(0.05,0,0,0.05,0,0)" xlink:href="#K"/><use transform="matrix(0.05,0,0,0.05,9,0)" xlink:href="#J"/><use transform="matrix(0.05,0,0,0.05,14,0)" xlink:href="#Q"/><use transform="matrix(0.05,0,0,0.05,19.95,0)" xlink:href="#F"/><use transform="matrix(0.05,0,0,0.05,29.950000000000003,0)" xlink:href="#E"/><use transform="matrix(0.05,0,0,0.05,38.95,0)" xlink:href="#J"/><use transform="matrix(0.05,0,0,0.05,43.95,0)" xlink:href="#R"/><use transform="matrix(0.05,0,0,0.05,48.95,0)" xlink:href="#L"/><use transform="matrix(0.05,0,0,0.05,52.900000000000006,0)" xlink:href="#H"/><use transform="matrix(0.05,0,0,0.05,62.900000000000006,0)" xlink:href="#z"/><use transform="matrix(0.05,0,0,0.05,66.85000000000001,0)" xlink:href="#D"/><use transform="matrix(0.05,0,0,0.05,76.85000000000001,0)" xlink:href="#S"/><use transform="matrix(0.05,0,0,0.05,86.85000000000001,0)" xlink:href="#U"/></g><path d="M126-127c33 6 58 20 58 59 0 88-139 92-164 29-3-8-5-16-6-25l32-3c6 27 21 44 54 44 32 0 52-15 52-46 0-38-36-46-79-43v-28c39 1 72-4 72-42 0-27-17-43-46-43-28 0-47 15-49 41l-32-3c6-42 35-63 81-64 48-1 79 21 79 65 0 36-21 52-52 59" id="X"/><g id="u"><use transform="matrix(0.05,0,0,0.05,0,0)" xlink:href="#K"/><use transform="matrix(0.05,0,0,0.05,9,0)" xlink:href="#J"/><use transform="matrix(0.05,0,0,0.05,14,0)" xlink:href="#Q"/><use transform="matrix(0.05,0,0,0.05,19.95,0)" xlink:href="#F"/><use transform="matrix(0.05,0,0,0.05,29.950000000000003,0)" xlink:href="#E"/><use transform="matrix(0.05,0,0,0.05,38.95,0)" xlink:href="#J"/><use transform="matrix(0.05,0,0,0.05,43.95,0)" xlink:href="#R"/><use transform="matrix(0.05,0,0,0.05,48.95,0)" xlink:href="#L"/><use transform="matrix(0.05,0,0,0.05,52.900000000000006,0)" xlink:href="#H"/><use transform="matrix(0.05,0,0,0.05,62.900000000000006,0)" xlink:href="#z"/><use transform="matrix(0.05,0,0,0.05,66.85000000000001,0)" xlink:href="#D"/><use transform="matrix(0.05,0,0,0.05,76.85000000000001,0)" xlink:href="#S"/><use transform="matrix(0.05,0,0,0.05,86.85000000000001,0)" xlink:href="#X"/></g><path d="M76-40C78 24 84 88 6 75V52C86 64 9-79 80-94c-40-6-34-59-34-106 1-29-11-41-40-38v-23c44-4 70 10 70 52 0 47-12 108 38 105v22c-26 1-39 14-38 42" id="Y"/><use transform="matrix(0.05,0,0,0.05,0,0)" xlink:href="#Y" id="v"/><g id="w"><use transform="matrix(0.05,0,0,0.05,0,0)" xlink:href="#N"/><use transform="matrix(0.05,0,0,0.05,10,0)" xlink:href="#C"/><use transform="matrix(0.05,0,0,0.05,20,0)" xlink:href="#Q"/><use transform="matrix(0.05,0,0,0.05,25.950000000000003,0)" xlink:href="#H"/><use transform="matrix(0.05,0,0,0.05,35.95,0)" xlink:href="#I"/><use transform="matrix(0.05,0,0,0.05,45.95,0)" xlink:href="#J"/><use transform="matrix(0.05,0,0,0.05,50.95,0)" xlink:href="#R"/><use transform="matrix(0.05,0,0,0.05,55.95,0)" xlink:href="#L"/><use transform="matrix(0.05,0,0,0.05,59.900000000000006,0)" xlink:href="#H"/><use transform="matrix(0.05,0,0,0.05,69.9,0)" xlink:href="#z"/><use transform="matrix(0.05,0,0,0.05,73.85000000000001,0)" xlink:href="#D"/><use transform="matrix(0.05,0,0,0.05,83.85000000000001,0)" xlink:href="#S"/><use transform="matrix(0.05,0,0,0.05,93.85000000000001,0)" xlink:href="#X"/></g><g id="x"><use transform="matrix(0.05,0,0,0.05,0,0)" xlink:href="#D"/><use transform="matrix(0.05,0,0,0.05,10,0)" xlink:href="#S"/><use transform="matrix(0.05,0,0,0.05,20,0)" xlink:href="#R"/><use transform="matrix(0.05,0,0,0.05,25,0)" xlink:href="#L"/><use transform="matrix(0.05,0,0,0.05,28.950000000000003,0)" xlink:href="#H"/><use transform="matrix(0.05,0,0,0.05,38.95,0)" xlink:href="#z"/><use transform="matrix(0.05,0,0,0.05,42.900000000000006,0)" xlink:href="#D"/></g></defs></g></svg>