<svg xmlns="http://www.w3.org/2000/svg" xmlns:xlink="http://www.w3.org/1999/xlink" xmlns:lucid="lucid" width="1249.33" height="500"><g transform="translate(-240 -220)" lucid:page-tab-id="0_0"><path d="M0 0h1870.4v1323.2H0z" fill="#fff"/><path d="M1009.33 440h460v260h-460z" fill="#fff"/><path d="M1029.78 440h20.44m10.22 0h20.45m10.2 0h20.46m10.22 0h20.44m10.22 0h20.45m10.2 0h20.46m10.22 0h20.44m10.22 0h20.45m10.2 0h20.46m10.22 0h20.44m10.22 0h20.45m10.2 0h20.46m10.22 0h20.44m10.22 0h20.45m10.2 0h10.23v9.63m0 9.63v19.26m0 9.63v19.26m0 9.64v19.26m0 9.63v19.26m0 9.6v19.27m0 9.63v19.26m0 9.63v19.25m0 9.63v19.26m0 9.63V700h-10.22m-10.2 0h-20.46m-10.22 0h-20.44m-10.22 0h-20.45m-10.2 0h-20.46m-10.22 0h-20.44m-10.22 0h-20.45m-10.2 0h-20.46m-10.22 0h-20.44m-10.22 0h-20.45m-10.2 0h-20.46m-10.22 0h-20.44m-10.22 0h-20.45m-10.2 0h-20.46m-10.22 0h-20.44m-10.22 0h-10.23v-9.63m0-9.63v-19.26m0-9.63V632.6m0-9.64V603.7m0-9.63V574.8m0-9.6v-19.27m0-9.63v-19.26m0-9.63v-19.25m0-9.63v-19.26m0-9.63V440h10.23" stroke="#000" stroke-width="2" fill="none"/><use xlink:href="#a" transform="matrix(1,0,0,1,1014.333333333333,445) translate(0 14.4)"/><use xlink:href="#b" transform="matrix(1,0,0,1,1014.333333333333,445) translate(61.85000000000001 14.4)"/><path d="M260 440h680v260H260z" fill="#fff"/><path d="M279.7 440h19.72m9.86 0h19.7m9.86 0h19.7m9.87 0h19.72m9.85 0h19.7m9.87 0h19.7m9.86 0h19.7m9.87 0h19.7m9.86 0h19.7m9.87 0h19.7m9.86 0h19.7m9.87 0h19.7m9.86 0h19.7m9.86 0h19.7m9.86 0h19.7m9.87 0h19.7m9.85 0h19.7m9.87 0h19.7m9.86 0h19.7m9.87 0h19.7m9.86 0h19.72m9.86 0h19.7m9.86 0H940v9.63m0 9.63v19.26m0 9.63v19.26m0 9.64v19.26m0 9.63v19.26m0 9.6v19.27m0 9.63v19.26m0 9.63v19.25m0 9.63v19.26m0 9.63V700h-9.86m-9.85 0h-19.72m-9.86 0h-19.7m-9.86 0h-19.7m-9.87 0h-19.72m-9.85 0h-19.7m-9.87 0h-19.7m-9.86 0h-19.7m-9.87 0h-19.7m-9.86 0h-19.7m-9.87 0h-19.7m-9.86 0h-19.7m-9.87 0h-19.7m-9.86 0h-19.7m-9.86 0h-19.7m-9.86 0h-19.7m-9.87 0h-19.7m-9.85 0h-19.7m-9.87 0h-19.7m-9.86 0h-19.7m-9.87 0h-19.7m-9.86 0h-19.72m-9.86 0h-19.7m-9.86 0H260v-9.63m0-9.63v-19.26m0-9.63V632.6m0-9.64V603.7m0-9.63V574.8m0-9.6v-19.27m0-9.63v-19.26m0-9.63v-19.25m0-9.63v-19.26m0-9.63V440h9.86" stroke="#000" stroke-width="2" fill="none"/><use xlink:href="#a" transform="matrix(1,0,0,1,265,445) translate(0 14.4)"/><use xlink:href="#c" transform="matrix(1,0,0,1,265,445) translate(61.85000000000001 14.4)"/><path d="M835.2 240h200v80h-200z" stroke="#000" stroke-width="2" fill="#fff"/><use xlink:href="#d" transform="matrix(1,0,0,1,840.1999999999999,245) translate(75.525 38.4625)"/><path d="M280 480h200v80H280z" stroke="#000" stroke-width="2" fill="#fff"/><use xlink:href="#e" transform="matrix(1,0,0,1,285,485) translate(68.525 38.4625)"/><path d="M500 480h200v80H500z" stroke="#000" stroke-width="2" fill="#fff"/><use xlink:href="#e" transform="matrix(1,0,0,1,505,485) translate(68.525 38.4625)"/><path d="M720 480h200v80H720z" stroke="#000" stroke-width="2" fill="#fff"/><use xlink:href="#e" transform="matrix(1,0,0,1,725,485) translate(68.525 38.4625)"/><path d="M1029.33 480h200v80h-200z" stroke="#000" stroke-width="2" fill="#fff"/><use xlink:href="#e" transform="matrix(1,0,0,1,1034.333333333333,485) translate(68.525 38.4625)"/><path d="M1249.33 480h200v80h-200z" stroke="#000" stroke-width="2" fill="#fff"/><use xlink:href="#e" transform="matrix(1,0,0,1,1254.333333333333,485) translate(68.525 38.4625)"/><path d="M440 674c0 3.3-26.86 6-60 6s-60-2.7-60-6v-48c0-3.3 26.86-6 60-6s60 2.7 60 6z" stroke="#000" stroke-width="2" fill="#fff"/><path d="M440 626c0 3.3-26.86 6-60 6s-60-2.7-60-6" stroke="#000" stroke-width="2" fill="none"/><use xlink:href="#f" transform="matrix(1,0,0,1,325,637) translate(33 21.525)"/><path d="M660 674c0 3.3-26.86 6-60 6s-60-2.7-60-6v-48c0-3.3 26.86-6 60-6s60 2.7 60 6z" stroke="#000" stroke-width="2" fill="#fff"/><path d="M660 626c0 3.3-26.86 6-60 6s-60-2.7-60-6" stroke="#000" stroke-width="2" fill="none"/><use xlink:href="#f" transform="matrix(1,0,0,1,545,637) translate(33 21.525)"/><path d="M880 674c0 3.3-26.86 6-60 6s-60-2.7-60-6v-48c0-3.3 26.86-6 60-6s60 2.7 60 6z" stroke="#000" stroke-width="2" fill="#fff"/><path d="M880 626c0 3.3-26.86 6-60 6s-60-2.7-60-6" stroke="#000" stroke-width="2" fill="none"/><use xlink:href="#f" transform="matrix(1,0,0,1,765,637) translate(33 21.525)"/><path d="M1189.33 674c0 3.3-26.86 6-60 6-33.13 0-60-2.7-60-6v-48c0-3.3 26.87-6 60-6 33.14 0 60 2.7 60 6z" stroke="#000" stroke-width="2" fill="#fff"/><path d="M1189.33 626c0 3.3-26.86 6-60 6-33.13 0-60-2.7-60-6" stroke="#000" stroke-width="2" fill="none"/><use xlink:href="#f" transform="matrix(1,0,0,1,1074.333333333333,637) translate(33 21.525)"/><path d="M1409.33 674c0 3.3-26.86 6-60 6-33.13 0-60-2.7-60-6v-48c0-3.3 26.87-6 60-6 33.14 0 60 2.7 60 6z" stroke="#000" stroke-width="2" fill="#fff"/><path d="M1409.33 626c0 3.3-26.86 6-60 6-33.13 0-60-2.7-60-6" stroke="#000" stroke-width="2" fill="none"/><use xlink:href="#f" transform="matrix(1,0,0,1,1294.333333333333,637) translate(33 21.525)"/><path d="M860.67 322v78H380v60.5" stroke="#000" stroke-width="2" fill="none"/><path d="M861.67 322.03h-2V321h2z"/><path d="M380 475.76l-4.64-14.26h9.28z" stroke="#000" stroke-width="2"/><path d="M878 322v78H600v60.5" stroke="#000" stroke-width="2" fill="none"/><path d="M879 322.03h-2V321h2z"/><path d="M600 475.76l-4.64-14.26h9.28z" stroke="#000" stroke-width="2"/><path d="M899.33 322v78H820v60.5" stroke="#000" stroke-width="2" fill="none"/><path d="M900.33 322.03h-2V321h2z"/><path d="M820 475.76l-4.64-14.26h9.28z" stroke="#000" stroke-width="2"/><path d="M975.33 322v78h153.6v60.5" stroke="#000" stroke-width="2" fill="none"/><path d="M976.33 322.03h-2V321h2z"/><path d="M1128.93 475.76l-4.63-14.26h9.27z" stroke="#000" stroke-width="2"/><path d="M999.33 322v78h350v60.5" stroke="#000" stroke-width="2" fill="none"/><path d="M1000.33 322.03h-2V321h2z"/><path d="M1349.33 475.76l-4.63-14.26h9.27z" stroke="#000" stroke-width="2"/><path d="M380 562v38.5" stroke="#000" stroke-width="2" fill="none"/><path d="M381 562.03h-2V561h2z"/><path d="M380 615.76l-4.64-14.26h9.28z" stroke="#000" stroke-width="2"/><path d="M600 562v38.5" stroke="#000" stroke-width="2" fill="none"/><path d="M601 562.03h-2V561h2z"/><path d="M600 615.76l-4.64-14.26h9.28z" stroke="#000" stroke-width="2"/><path d="M820 562v38.5" stroke="#000" stroke-width="2" fill="none"/><path d="M821 562.03h-2V561h2z"/><path d="M820 615.76l-4.64-14.26h9.28z" stroke="#000" stroke-width="2"/><path d="M1129.33 562v38.5" stroke="#000" stroke-width="2" fill="none"/><path d="M1130.33 562.03h-2V561h2z"/><path d="M1129.33 615.76l-4.63-14.26h9.27z" stroke="#000" stroke-width="2"/><path d="M1349.33 562v38.5" stroke="#000" stroke-width="2" fill="none"/><path d="M1350.33 562.03h-2V561h2z"/><path d="M1349.33 615.76l-4.63-14.26h9.27z" stroke="#000" stroke-width="2"/><defs><path d="M212-179c-10-28-35-45-73-45-59 0-87 40-87 99 0 60 29 101 89 101 43 0 62-24 78-52l27 14C228-24 195 4 139 4 59 4 22-46 18-125c-6-104 99-153 187-111 19 9 31 26 39 46" id="g"/><path d="M24 0v-261h32V0H24" id="h"/><path d="M84 4C-5 8 30-112 23-190h32v120c0 31 7 50 39 49 72-2 45-101 50-169h31l1 190h-30c-1-10 1-25-2-33-11 22-28 36-60 37" id="i"/><path d="M135-143c-3-34-86-38-87 0 15 53 115 12 119 90S17 21 10-45l28-5c4 36 97 45 98 0-10-56-113-15-118-90-4-57 82-63 122-42 12 7 21 19 24 35" id="j"/><path d="M59-47c-2 24 18 29 38 22v24C64 9 27 4 27-40v-127H5v-23h24l9-43h21v43h35v23H59v120" id="k"/><path d="M100-194c63 0 86 42 84 106H49c0 40 14 67 53 68 26 1 43-12 49-29l28 8c-11 28-37 45-77 45C44 4 14-33 15-96c1-61 26-98 85-98zm52 81c6-60-76-77-97-28-3 7-6 17-6 28h103" id="l"/><path d="M114-163C36-179 61-72 57 0H25l-1-190h30c1 12-1 29 2 39 6-27 23-49 58-41v29" id="m"/><g id="a"><use transform="matrix(0.05,0,0,0.05,0,0)" xlink:href="#g"/><use transform="matrix(0.05,0,0,0.05,12.950000000000001,0)" xlink:href="#h"/><use transform="matrix(0.05,0,0,0.05,16.900000000000002,0)" xlink:href="#i"/><use transform="matrix(0.05,0,0,0.05,26.900000000000002,0)" xlink:href="#j"/><use transform="matrix(0.05,0,0,0.05,35.900000000000006,0)" xlink:href="#k"/><use transform="matrix(0.05,0,0,0.05,40.900000000000006,0)" xlink:href="#l"/><use transform="matrix(0.05,0,0,0.05,50.900000000000006,0)" xlink:href="#m"/></g><path d="M160-131c35 5 61 23 61 61C221 17 115-2 30 0v-248c76 3 177-17 177 60 0 33-19 50-47 57zm-97-11c50-1 110 9 110-42 0-47-63-36-110-37v79zm0 115c55-2 124 14 124-45 0-56-70-42-124-44v89" id="n"/><use transform="matrix(0.05,0,0,0.05,0,0)" xlink:href="#n" id="b"/><path d="M205 0l-28-72H64L36 0H1l101-248h38L239 0h-34zm-38-99l-47-123c-12 45-31 82-46 123h93" id="o"/><use transform="matrix(0.05,0,0,0.05,0,0)" xlink:href="#o" id="c"/><path d="M140-251c81 0 123 46 123 126C263-53 228-8 163 1c7 30 30 48 69 40v23c-55 16-95-15-103-61C56-3 17-48 17-125c0-80 42-126 123-126zm0 227c63 0 89-41 89-101s-29-99-89-99c-61 0-89 39-89 99S79-25 140-24" id="p"/><path d="M233-177c-1 41-23 64-60 70L243 0h-38l-65-103H63V0H30v-248c88 3 205-21 203 71zM63-129c60-2 137 13 137-47 0-61-80-42-137-45v92" id="q"/><path d="M185-189c-5-48-123-54-124 2 14 75 158 14 163 119 3 78-121 87-175 55-17-10-28-26-33-46l33-7c5 56 141 63 141-1 0-78-155-14-162-118-5-82 145-84 179-34 5 7 8 16 11 25" id="r"/><g id="d"><use transform="matrix(0.05,0,0,0.05,0,0)" xlink:href="#p"/><use transform="matrix(0.05,0,0,0.05,14,0)" xlink:href="#q"/><use transform="matrix(0.05,0,0,0.05,26.950000000000003,0)" xlink:href="#r"/></g><path d="M30-248c87 1 191-15 191 75 0 78-77 80-158 76V0H30v-248zm33 125c57 0 124 11 124-50 0-59-68-47-124-48v98" id="s"/><path d="M100-194c62-1 85 37 85 99 1 63-27 99-86 99S16-35 15-95c0-66 28-99 85-99zM99-20c44 1 53-31 53-75 0-43-8-75-51-75s-53 32-53 75 10 74 51 75" id="t"/><path d="M117-194c89-4 53 116 60 194h-32v-121c0-31-8-49-39-48C34-167 62-67 57 0H25l-1-190h30c1 10-1 24 2 32 11-22 29-35 61-36" id="u"/><g id="e"><use transform="matrix(0.05,0,0,0.05,0,0)" xlink:href="#s"/><use transform="matrix(0.05,0,0,0.05,12,0)" xlink:href="#m"/><use transform="matrix(0.05,0,0,0.05,17.95,0)" xlink:href="#t"/><use transform="matrix(0.05,0,0,0.05,27.950000000000003,0)" xlink:href="#k"/><use transform="matrix(0.05,0,0,0.05,32.95,0)" xlink:href="#t"/><use transform="matrix(0.05,0,0,0.05,42.95,0)" xlink:href="#u"/></g><path d="M33 0v-248h34V0H33" id="v"/><path d="M85-194c31 0 48 13 60 33l-1-100h32l1 261h-30c-2-10 0-23-3-31C134-8 116 4 85 4 32 4 16-35 15-94c0-66 23-100 70-100zm9 24c-40 0-46 34-46 75 0 40 6 74 45 74 42 0 51-32 51-76 0-42-9-74-50-73" id="w"/><path d="M141 0L90-78 38 0H4l68-98-65-92h35l48 74 47-74h35l-64 92 68 98h-35" id="x"/><g id="f"><use transform="matrix(0.05,0,0,0.05,0,0)" xlink:href="#v"/><use transform="matrix(0.05,0,0,0.05,5,0)" xlink:href="#u"/><use transform="matrix(0.05,0,0,0.05,15,0)" xlink:href="#w"/><use transform="matrix(0.05,0,0,0.05,25,0)" xlink:href="#l"/><use transform="matrix(0.05,0,0,0.05,35,0)" xlink:href="#x"/></g></defs></g></svg>