<svg xmlns="http://www.w3.org/2000/svg" xmlns:lucid="lucid" width="423" height="123"><g lucid:page-tab-id="0_0"><path d="M-340.5-159.83h1000v500h-1000z" fill="#fff"/><path d="M21.5 27.5a6 6 0 0 1 6-6h368a6 6 0 0 1 6 6v68a6 6 0 0 1-6 6h-368a6 6 0 0 1-6-6z" stroke="#000" stroke-opacity="0" stroke-width="3" fill="#baedce"/><path d="M41.5 47.5a6 6 0 0 1 6-6h28a6 6 0 0 1 6 6v28a6 6 0 0 1-6 6h-28a6 6 0 0 1-6-6zM101.5 47.5a6 6 0 0 1 6-6h28a6 6 0 0 1 6 6v28a6 6 0 0 1-6 6h-28a6 6 0 0 1-6-6zM161.5 47.5a6 6 0 0 1 6-6h28a6 6 0 0 1 6 6v28a6 6 0 0 1-6 6h-28a6 6 0 0 1-6-6zM221.5 47.5a6 6 0 0 1 6-6h28a6 6 0 0 1 6 6v28a6 6 0 0 1-6 6h-28a6 6 0 0 1-6-6zM281.5 47.5a6 6 0 0 1 6-6h28a6 6 0 0 1 6 6v28a6 6 0 0 1-6 6h-28a6 6 0 0 1-6-6zM341.5 47.5a6 6 0 0 1 6-6h28a6 6 0 0 1 6 6v28a6 6 0 0 1-6 6h-28a6 6 0 0 1-6-6z" stroke="#000" stroke-opacity="0" stroke-width="3" fill="#1b6a3a"/></g></svg>