<svg xmlns="http://www.w3.org/2000/svg" xmlns:xlink="http://www.w3.org/1999/xlink" xmlns:lucid="lucid" width="1269.5" height="733.6"><g transform="translate(-59 -139)" lucid:page-tab-id="0_0"><path d="M0 0h1870.4v1323.2H0z" fill="#fff"/><path d="M80 580h587.5v271.6H80z" stroke="#2e2f27" stroke-width="2" fill="#c4c5b9"/><use xlink:href="#a" transform="matrix(1,0,0,1,85,585) translate(0 14.4)"/><use xlink:href="#b" transform="matrix(1,0,0,1,85,585) translate(89.8 14.4)"/><path d="M460 160h40v340h-40z" stroke="#2e2f27" stroke-width="2" fill="#c4c5b9"/><use xlink:href="#c" transform="matrix(1,0,0,1,465,165) translate(0 14.4)"/><path d="M340 220h40v20h-40zM340 260h40v20h-40zM340 340h40v20h-40zM340 300h40v20h-40zM340 380h40v20h-40zM340 420h40v20h-40zM340 460h40v20h-40zM390 220h60v20h-60zM390 260h60v20h-60zM390 300h60v20h-60zM390 340h60v20h-60zM390 380h60v20h-60zM390 420h60v20h-60zM390 460h60v20h-60zM470 220h20v20h-20zM470 260h20v20h-20zM470 300h20v20h-20zM470 340h20v20h-20zM470 380h20v20h-20zM470 420h20v20h-20zM470 460h20v20h-20zM510 220h60v20h-60zM510 260h60v20h-60zM510 300h60v20h-60zM510 340h60v20h-60zM510 380h60v20h-60zM510 420h60v20h-60zM510 460h60v20h-60zM750 220h320v20H750zM750 260h200v20H750zM750 300h260v20H750zM750 340h120v20H750zM750 380h280v20H750zM750 420h300v20H750zM750 460h240v20H750zM630 220h60v20h-60zM630 260h60v20h-60zM630 300h60v20h-60zM630 340h60v20h-60zM630 380h60v20h-60zM630 420h60v20h-60zM630 460h60v20h-60zM217.5 608.4h20v20h-20zM157.5 660h20v20h-20zM177.5 660h20v20h-20z" stroke="#2e2f27" stroke-width="2" fill="#fff"/><path d="M580 160h40v340h-40z" stroke="#2e2f27" stroke-width="2" fill="#c4c5b9"/><use xlink:href="#d" transform="matrix(1,0,0,1,585,165) translate(0 14.4)"/><path d="M590 220h20v20h-20zM590 260h20v20h-20zM590 300h20v20h-20zM590 340h20v20h-20zM590 380h20v20h-20zM590 420h20v20h-20zM590 460h20v20h-20z" stroke="#2e2f27" stroke-width="2" fill="#fff"/><path d="M700 160h40v340h-40z" stroke="#2e2f27" stroke-width="2" fill="#c4c5b9"/><use xlink:href="#e" transform="matrix(1,0,0,1,705,165) translate(0 14.4)"/><path d="M710 220h20v20h-20zM710 260h20v20h-20zM710 300h20v20h-20zM710 340h20v20h-20zM710 380h20v20h-20zM710 420h20v20h-20zM710 460h20v20h-20z" stroke="#2e2f27" stroke-width="2" fill="#fff"/><path d="M479.05 501.3l-221.12 71.97" stroke="#2e2f27" stroke-width="2" fill="none"/><path d="M483.16 501.02l-3.83 1.25-.4-1.27h4.22z" stroke="#2e2f27" stroke-width=".05" fill="#2e2f27"/><path d="M243.42 578l12.13-8.82 2.87 8.8z" stroke="#2e2f27" stroke-width="2" fill="#2e2f27"/><path d="M215.7 630l-36.74 28.4" stroke="#2e2f27" stroke-width="2" fill="none"/><path d="M216.5 629.4h1.64l-1.84 1.42-1.22-1.6 1.42-1.08zM179.6 659.16l-1.1.85v-1h-1.97l1.84-1.42z" stroke="#2e2f27" stroke-width=".05" fill="#2e2f27"/><path d="M217.5 660h20v20h-20zM237.5 660h20v20h-20zM237.5 608.4h20v20h-20z" stroke="#2e2f27" stroke-width="2" fill="#fff"/><path d="M237.5 621v38M237.5 621.03V620M237.5 658.97V660" stroke="#2e2f27" stroke-width="2" fill="none"/><path d="M277.5 660h20v20h-20zM297.5 660h20v20h-20z" stroke="#2e2f27" stroke-width="2" fill="#fff"/><path d="M259.3 630l38.06 28.4" stroke="#2e2f27" stroke-width="2" fill="none"/><path d="M259.92 629.2l-1.2 1.62-1.9-1.42h1.68v-1.25zM301.17 660l-1.2 1.6-1.47-1.1V659h-1.6l1.04-1.4z" stroke="#2e2f27" stroke-width=".05" fill="#2e2f27"/><path d="M98.5 710h20v20h-20zM118.5 710h20v20h-20z" stroke="#2e2f27" stroke-width="2" fill="#fff"/><path d="M156.7 680l-36.74 28.4M156.7 680.03l.8-.63" stroke="#2e2f27" stroke-width="2" fill="none"/><path d="M120.6 709.16l-1.1.85v-1h-1.97l1.84-1.42z" stroke="#2e2f27" stroke-width=".05" fill="#2e2f27"/><path d="M157.5 710h20v20h-20zM177.5 710h20v20h-20z" stroke="#2e2f27" stroke-width="2" fill="#fff"/><path d="M177.5 671v38M177.5 671.03V670M177.5 708.97V710" stroke="#2e2f27" stroke-width="2" fill="none"/><path d="M277.5 709h20v20h-20zM297.5 709h20v20h-20z" stroke="#2e2f27" stroke-width="2" fill="#fff"/><path d="M319.3 681.58l36.05 25.84" stroke="#2e2f27" stroke-width="2" fill="none"/><path d="M319.92 680.8l-1.17 1.6-1.97-1.4h1.72v-1.23zM359.2 708.93l-1.18 1.63-.52-.37V708h-2.6l1.02-1.4z" stroke="#2e2f27" stroke-width=".05" fill="#2e2f27"/><path d="M336.5 709h20v20h-20zM356.5 709h20v20h-20z" stroke="#2e2f27" stroke-width="2" fill="#fff"/><path d="M297.5 670v38M297.5 670.03V669M297.5 707.97V709M378.42 720.4l72.75 31.3" stroke="#2e2f27" stroke-width="2" fill="none"/><path d="M378.84 719.5l-.8 1.82-.54-.23v-2.2z" stroke="#2e2f27" stroke-width=".05" fill="#2e2f27"/><path d="M465.2 757.72l-14.94-1.38 3.66-8.5z" stroke="#2e2f27" stroke-width="2" fill="#2e2f27"/><path d="M467.5 760h40v20h-40zM367.5 811.6h40v20h-40zM407.5 811.6h40v20h-40z" stroke="#2e2f27" stroke-width="2" fill="#fff"/><path d="M465.6 780.96l-56.2 29.35" stroke="#2e2f27" stroke-width="2" fill="none"/><path d="M466.5 781h1.2l-1.65.86-.92-1.77 1.37-.73zM409.87 811.18l-1.37.72v-1.3h-1.83l2.28-1.2z" stroke="#2e2f27" stroke-width=".05" fill="#2e2f27"/><path d="M467.5 811.6h40v20h-40zM507.5 811.6h40v20h-40zM507.5 760h40v20h-40z" stroke="#2e2f27" stroke-width="2" fill="#fff"/><path d="M507.5 772.6v38M507.5 772.63v-1.03M507.5 810.57v1.03" stroke="#2e2f27" stroke-width="2" fill="none"/><path d="M567.5 811.6h40v20h-40zM607.5 811.6h40v20h-40z" stroke="#2e2f27" stroke-width="2" fill="#fff"/><path d="M549.4 780.95l58.2 29.37" stroke="#2e2f27" stroke-width="2" fill="none"/><path d="M549.87 780.07l-.9 1.78-1.7-.85h1.23v-1.62zM611.63 811.23l-.9 1.8-2.23-1.14v-1.3h-1.06l.6-1.18z" stroke="#2e2f27" stroke-width=".05" fill="#2e2f27"/><path d="M720 580h587.5v271.6H720z" stroke="#2e2f27" stroke-width="2" fill="#c4c5b9"/><use xlink:href="#a" transform="matrix(1,0,0,1,725,585) translate(0 14.4)"/><use xlink:href="#f" transform="matrix(1,0,0,1,725,585) translate(89.8 14.4)"/><path d="M760 640h20v20h-20zM760 660h20v20h-20zM760 680h20v20h-20zM760 700h20v20h-20zM760 720h20v20h-20zM760 740h20v20h-20zM760 760h20v20h-20zM760 780h20v20h-20zM760 800h20v20h-20zM760 820h20v20h-20z" stroke="#2e2f27" stroke-width="2" fill="#fff"/><path d="M760 820h20v20h-20zM820 640h40v20h-40zM860 640h40v20h-40zM900 640h40v20h-40zM820 700h40v20h-40zM820 740h40v20h-40zM860 740h40v20h-40z" stroke="#2e2f27" stroke-width="2" fill="#fff"/><path d="M782 650h18.5" stroke="#2e2f27" stroke-width="2" fill="none"/><path d="M782.03 651H781v-2h1.03z" stroke="#2e2f27" stroke-width=".05" fill="#2e2f27"/><path d="M815.76 650l-14.26 4.63v-9.26z" stroke="#2e2f27" stroke-width="2" fill="#2e2f27"/><path d="M782 710h18.5" stroke="#2e2f27" stroke-width="2" fill="none"/><path d="M782.03 711H781v-2h1.03z" stroke="#2e2f27" stroke-width=".05" fill="#2e2f27"/><path d="M815.76 710l-14.26 4.63v-9.26z" stroke="#2e2f27" stroke-width="2" fill="#2e2f27"/><path d="M782 750h18.5" stroke="#2e2f27" stroke-width="2" fill="none"/><path d="M782.03 751H781v-2h1.03z" stroke="#2e2f27" stroke-width=".05" fill="#2e2f27"/><path d="M815.76 750l-14.26 4.63v-9.26z" stroke="#2e2f27" stroke-width="2" fill="#2e2f27"/><path d="M720.87 501.5l121.67 68.43" stroke="#2e2f27" stroke-width="2" fill="none"/><path d="M720.4 502.37l-2.44-1.37h3.22z" stroke="#2e2f27" stroke-width=".05" fill="#2e2f27"/><path d="M855.85 577.4l-14.7-2.94 4.53-8.08z" stroke="#2e2f27" stroke-width="2" fill="#2e2f27"/><defs><path fill="#2e2f27" d="M30-248c118-7 216 8 213 122C240-48 200 0 122 0H30v-248zM63-27c89 8 146-16 146-99s-60-101-146-95v194" id="g"/><path fill="#2e2f27" d="M24-231v-30h32v30H24zM24 0v-190h32V0H24" id="h"/><path fill="#2e2f27" d="M96-169c-40 0-48 33-48 73s9 75 48 75c24 0 41-14 43-38l32 2c-6 37-31 61-74 61-59 0-76-41-82-99-10-93 101-131 147-64 4 7 5 14 7 22l-32 3c-4-21-16-35-41-35" id="i"/><path fill="#2e2f27" d="M59-47c-2 24 18 29 38 22v24C64 9 27 4 27-40v-127H5v-23h24l9-43h21v43h35v23H59v120" id="j"/><path fill="#2e2f27" d="M100-194c62-1 85 37 85 99 1 63-27 99-86 99S16-35 15-95c0-66 28-99 85-99zM99-20c44 1 53-31 53-75 0-43-8-75-51-75s-53 32-53 75 10 74 51 75" id="k"/><path fill="#2e2f27" d="M117-194c89-4 53 116 60 194h-32v-121c0-31-8-49-39-48C34-167 62-67 57 0H25l-1-190h30c1 10-1 24 2 32 11-22 29-35 61-36" id="l"/><path fill="#2e2f27" d="M141-36C126-15 110 5 73 4 37 3 15-17 15-53c-1-64 63-63 125-63 3-35-9-54-41-54-24 1-41 7-42 31l-33-3c5-37 33-52 76-52 45 0 72 20 72 64v82c-1 20 7 32 28 27v20c-31 9-61-2-59-35zM48-53c0 20 12 33 32 33 41-3 63-29 60-74-43 2-92-5-92 41" id="m"/><path fill="#2e2f27" d="M114-163C36-179 61-72 57 0H25l-1-190h30c1 12-1 29 2 39 6-27 23-49 58-41v29" id="n"/><path fill="#2e2f27" d="M179-190L93 31C79 59 56 82 12 73V49c39 6 53-20 64-50L1-190h34L92-34l54-156h33" id="o"/><path fill="#2e2f27" d="M33-154v-36h34v36H33zM33 0v-36h34V0H33" id="p"/><g id="a"><use transform="matrix(0.05,0,0,0.05,0,0)" xlink:href="#g"/><use transform="matrix(0.05,0,0,0.05,12.950000000000001,0)" xlink:href="#h"/><use transform="matrix(0.05,0,0,0.05,16.900000000000002,0)" xlink:href="#i"/><use transform="matrix(0.05,0,0,0.05,25.900000000000002,0)" xlink:href="#j"/><use transform="matrix(0.05,0,0,0.05,30.900000000000002,0)" xlink:href="#h"/><use transform="matrix(0.05,0,0,0.05,34.85,0)" xlink:href="#k"/><use transform="matrix(0.05,0,0,0.05,44.85,0)" xlink:href="#l"/><use transform="matrix(0.05,0,0,0.05,54.85,0)" xlink:href="#m"/><use transform="matrix(0.05,0,0,0.05,64.85,0)" xlink:href="#n"/><use transform="matrix(0.05,0,0,0.05,70.8,0)" xlink:href="#o"/><use transform="matrix(0.05,0,0,0.05,79.8,0)" xlink:href="#p"/></g><path fill="#2e2f27" d="M115-194c53 0 69 39 70 98 0 66-23 100-70 100C84 3 66-7 56-30L54 0H23l1-261h32v101c10-23 28-34 59-34zm-8 174c40 0 45-34 45-75 0-40-5-75-45-74-42 0-51 32-51 76 0 43 10 73 51 73" id="q"/><path fill="#2e2f27" d="M16-82v-28h88v28H16" id="r"/><path fill="#2e2f27" d="M100-194c63 0 86 42 84 106H49c0 40 14 67 53 68 26 1 43-12 49-29l28 8c-11 28-37 45-77 45C44 4 14-33 15-96c1-61 26-98 85-98zm52 81c6-60-76-77-97-28-3 7-6 17-6 28h103" id="s"/><g id="b"><use transform="matrix(0.05,0,0,0.05,0,0)" xlink:href="#q"/><use transform="matrix(0.05,0,0,0.05,10,0)" xlink:href="#r"/><use transform="matrix(0.05,0,0,0.05,15.949999999999998,0)" xlink:href="#j"/><use transform="matrix(0.05,0,0,0.05,20.95,0)" xlink:href="#n"/><use transform="matrix(0.05,0,0,0.05,26.899999999999995,0)" xlink:href="#s"/><use transform="matrix(0.05,0,0,0.05,36.9,0)" xlink:href="#s"/></g><path fill="#2e2f27" d="M205 0l-28-72H64L36 0H1l101-248h38L239 0h-34zm-38-99l-47-123c-12 45-31 82-46 123h93" id="t"/><use transform="matrix(0.05,0,0,0.05,0,0)" xlink:href="#t" id="c"/><path fill="#2e2f27" d="M160-131c35 5 61 23 61 61C221 17 115-2 30 0v-248c76 3 177-17 177 60 0 33-19 50-47 57zm-97-11c50-1 110 9 110-42 0-47-63-36-110-37v79zm0 115c55-2 124 14 124-45 0-56-70-42-124-44v89" id="u"/><use transform="matrix(0.05,0,0,0.05,0,0)" xlink:href="#u" id="d"/><path fill="#2e2f27" d="M212-179c-10-28-35-45-73-45-59 0-87 40-87 99 0 60 29 101 89 101 43 0 62-24 78-52l27 14C228-24 195 4 139 4 59 4 22-46 18-125c-6-104 99-153 187-111 19 9 31 26 39 46" id="v"/><use transform="matrix(0.05,0,0,0.05,0,0)" xlink:href="#v" id="e"/><path fill="#2e2f27" d="M106-169C34-169 62-67 57 0H25v-261h32l-1 103c12-21 28-36 61-36 89 0 53 116 60 194h-32v-121c2-32-8-49-39-48" id="w"/><path fill="#2e2f27" d="M135-143c-3-34-86-38-87 0 15 53 115 12 119 90S17 21 10-45l28-5c4 36 97 45 98 0-10-56-113-15-118-90-4-57 82-63 122-42 12 7 21 19 24 35" id="x"/><g id="f"><use transform="matrix(0.05,0,0,0.05,0,0)" xlink:href="#w"/><use transform="matrix(0.05,0,0,0.05,10,0)" xlink:href="#m"/><use transform="matrix(0.05,0,0,0.05,20,0)" xlink:href="#x"/><use transform="matrix(0.05,0,0,0.05,29,0)" xlink:href="#w"/></g></defs></g></svg>