<svg xmlns="http://www.w3.org/2000/svg" xmlns:xlink="http://www.w3.org/1999/xlink" xmlns:lucid="lucid" width="1052" height="522"><g transform="translate(-179 -259)" lucid:page-tab-id="0_0"><path d="M0 0h1870.4v1323.2H0z" fill="#fff"/><path d="M480 420h40v340h-40z" stroke="#2e2f27" stroke-width="2" fill="#c4c5b9"/><use xlink:href="#a" transform="matrix(1,0,0,1,485,425) translate(0 14.4)"/><path d="M360 480h40v20h-40zM360 520h40v20h-40zM360 600h40v20h-40zM360 560h40v20h-40zM360 640h40v20h-40zM360 680h40v20h-40zM360 720h40v20h-40zM410 480h60v20h-60zM410 520h60v20h-60zM410 560h60v20h-60zM410 600h60v20h-60zM410 640h60v20h-60zM410 680h60v20h-60zM410 720h60v20h-60zM490 480h20v20h-20zM490 520h20v20h-20zM490 560h20v20h-20zM490 600h20v20h-20zM490 640h20v20h-20zM490 680h20v20h-20zM490 720h20v20h-20zM530 480h60v20h-60zM530 520h60v20h-60zM530 560h60v20h-60zM530 600h60v20h-60zM530 640h60v20h-60zM530 680h60v20h-60zM530 720h60v20h-60zM890 480h320v20H890zM890 520h200v20H890zM890 560h260v20H890zM890 600h120v20H890zM890 640h280v20H890zM890 680h300v20H890zM890 720h240v20H890zM650 480h60v20h-60zM650 520h60v20h-60zM650 560h60v20h-60zM650 600h60v20h-60zM650 640h60v20h-60zM650 680h60v20h-60zM650 720h60v20h-60z" stroke="#2e2f27" stroke-width="2" fill="#fff"/><path d="M600 420h40v340h-40z" stroke="#2e2f27" stroke-width="2" fill="#c4c5b9"/><use xlink:href="#b" transform="matrix(1,0,0,1,605,425) translate(0 14.4)"/><path d="M610 480h20v20h-20zM610 520h20v20h-20zM610 560h20v20h-20zM610 600h20v20h-20zM610 640h20v20h-20zM610 680h20v20h-20zM610 720h20v20h-20z" stroke="#2e2f27" stroke-width="2" fill="#fff"/><path d="M720 420h40v340h-40z" stroke="#2e2f27" stroke-width="2" fill="#c4c5b9"/><use xlink:href="#c" transform="matrix(1,0,0,1,725,425) translate(0 14.4)"/><path d="M730 480h20v20h-20zM730 520h20v20h-20zM730 560h20v20h-20zM730 600h20v20h-20zM730 640h20v20h-20zM730 680h20v20h-20zM730 720h20v20h-20zM770 480h60v20h-60zM770 520h60v20h-60zM770 560h60v20h-60zM770 600h60v20h-60zM770 640h60v20h-60zM770 680h60v20h-60zM770 720h60v20h-60z" stroke="#2e2f27" stroke-width="2" fill="#fff"/><path d="M840 420h40v340h-40z" stroke="#2e2f27" stroke-width="2" fill="#c4c5b9"/><use xlink:href="#d" transform="matrix(1,0,0,1,845,425) translate(0 14.4)"/><path d="M850 480h20v20h-20zM850 520h20v20h-20zM850 560h20v20h-20zM850 600h20v20h-20zM850 640h20v20h-20zM850 680h20v20h-20zM850 720h20v20h-20zM200 280h144v119c-24.05-19.87-39.02-19.87-48.1-19.87-14.4 0-33.55 19.87-47.95 19.87-8.93 0-24.05 0-47.95-19.87z" stroke="#2e2f27" stroke-width="2" fill="#fff"/><path d="M208 290.5h144v119c-24.05-19.87-39.02-19.87-48.1-19.87-14.4 0-33.55 19.87-47.95 19.87-8.93 0-24.05 0-47.95-19.87z" stroke="#2e2f27" stroke-width="2" fill="#fff"/><path d="M216 301h144v119c-24.05-19.87-39.02-19.87-48.1-19.87-14.4 0-33.55 19.87-47.95 19.87-8.93 0-24.05 0-47.95-19.87z" stroke="#2e2f27" stroke-width="2" fill="#fff"/><use xlink:href="#e" transform="matrix(1,0,0,1,221,306) translate(0 14.4)"/><use xlink:href="#f" transform="matrix(1,0,0,1,221,306) translate(0 36)"/><use xlink:href="#g" transform="matrix(1,0,0,1,221,306) translate(20 36)"/><use xlink:href="#h" transform="matrix(1,0,0,1,221,306) translate(54.7 36)"/><use xlink:href="#f" transform="matrix(1,0,0,1,221,306) translate(0 57.6)"/><use xlink:href="#i" transform="matrix(1,0,0,1,221,306) translate(20 57.6)"/><use xlink:href="#j" transform="matrix(1,0,0,1,221,306) translate(54.7 57.6)"/><use xlink:href="#k" transform="matrix(1,0,0,1,221,306) translate(0 79.20000000000002)"/><path d="M362 350h138v50.5" stroke="#2e2f27" stroke-width="2" fill="none"/><path d="M362.03 351H361v-2h1.03z" stroke="#2e2f27" stroke-width=".05" fill="#2e2f27"/><path d="M500 415.76l-4.63-14.26h9.26z" stroke="#2e2f27" stroke-width="2" fill="#2e2f27"/><path d="M362 350h258v50.5" stroke="#2e2f27" stroke-width="2" fill="none"/><path d="M362.03 351H361v-2h1.03z" stroke="#2e2f27" stroke-width=".05" fill="#2e2f27"/><path d="M620 415.76l-4.63-14.26h9.26z" stroke="#2e2f27" stroke-width="2" fill="#2e2f27"/><defs><path fill="#2e2f27" d="M205 0l-28-72H64L36 0H1l101-248h38L239 0h-34zm-38-99l-47-123c-12 45-31 82-46 123h93" id="l"/><use transform="matrix(0.05,0,0,0.05,0,0)" xlink:href="#l" id="a"/><path fill="#2e2f27" d="M160-131c35 5 61 23 61 61C221 17 115-2 30 0v-248c76 3 177-17 177 60 0 33-19 50-47 57zm-97-11c50-1 110 9 110-42 0-47-63-36-110-37v79zm0 115c55-2 124 14 124-45 0-56-70-42-124-44v89" id="m"/><use transform="matrix(0.05,0,0,0.05,0,0)" xlink:href="#m" id="b"/><path fill="#2e2f27" d="M212-179c-10-28-35-45-73-45-59 0-87 40-87 99 0 60 29 101 89 101 43 0 62-24 78-52l27 14C228-24 195 4 139 4 59 4 22-46 18-125c-6-104 99-153 187-111 19 9 31 26 39 46" id="n"/><use transform="matrix(0.05,0,0,0.05,0,0)" xlink:href="#n" id="c"/><path fill="#2e2f27" d="M30-248c118-7 216 8 213 122C240-48 200 0 122 0H30v-248zM63-27c89 8 146-16 146-99s-60-101-146-95v194" id="o"/><use transform="matrix(0.05,0,0,0.05,0,0)" xlink:href="#o" id="d"/><path fill="#2e2f27" d="M39-94c74 12-11 154 75 146v23c-44 4-70-10-70-52C44-23 55-84 6-82v-22c81 4-7-162 84-157h24v23c-82-15-2 131-75 144" id="p"/><use transform="matrix(0.05,0,0,0.05,0,0)" xlink:href="#p" id="e"/><path fill="#2e2f27" d="M109-170H84l-4-78h32zm-65 0H19l-4-78h33" id="q"/><path fill="#2e2f27" d="M33-154v-36h34v36H33zM33 0v-36h34V0H33" id="r"/><g id="g"><use transform="matrix(0.05,0,0,0.05,0,0)" xlink:href="#q"/><use transform="matrix(0.05,0,0,0.05,6.3500000000000005,0)" xlink:href="#l"/><use transform="matrix(0.05,0,0,0.05,18.35,0)" xlink:href="#q"/><use transform="matrix(0.05,0,0,0.05,24.700000000000003,0)" xlink:href="#r"/></g><path fill="#2e2f27" d="M27 0v-27h64v-190l-56 39v-29l58-41h29v221h61V0H27" id="s"/><path fill="#2e2f27" d="M101-251c68 0 85 55 85 127S166 4 100 4C33 4 14-52 14-124c0-73 17-127 87-127zm-1 229c47 0 54-49 54-102s-4-102-53-102c-51 0-55 48-55 102 0 53 5 102 54 102" id="t"/><path fill="#2e2f27" d="M68-38c1 34 0 65-14 84H32c9-13 17-26 17-46H33v-38h35" id="u"/><g id="h"><use transform="matrix(0.05,0,0,0.05,0,0)" xlink:href="#s"/><use transform="matrix(0.05,0,0,0.05,10,0)" xlink:href="#t"/><use transform="matrix(0.05,0,0,0.05,20,0)" xlink:href="#t"/><use transform="matrix(0.05,0,0,0.05,30,0)" xlink:href="#t"/><use transform="matrix(0.05,0,0,0.05,40,0)" xlink:href="#u"/></g><g id="i"><use transform="matrix(0.05,0,0,0.05,0,0)" xlink:href="#q"/><use transform="matrix(0.05,0,0,0.05,6.3500000000000005,0)" xlink:href="#m"/><use transform="matrix(0.05,0,0,0.05,18.35,0)" xlink:href="#q"/><use transform="matrix(0.05,0,0,0.05,24.700000000000003,0)" xlink:href="#r"/></g><path fill="#2e2f27" d="M96-169c-40 0-48 33-48 73s9 75 48 75c24 0 41-14 43-38l32 2c-6 37-31 61-74 61-59 0-76-41-82-99-10-93 101-131 147-64 4 7 5 14 7 22l-32 3c-4-21-16-35-41-35" id="v"/><path fill="#2e2f27" d="M141-36C126-15 110 5 73 4 37 3 15-17 15-53c-1-64 63-63 125-63 3-35-9-54-41-54-24 1-41 7-42 31l-33-3c5-37 33-52 76-52 45 0 72 20 72 64v82c-1 20 7 32 28 27v20c-31 9-61-2-59-35zM48-53c0 20 12 33 32 33 41-3 63-29 60-74-43 2-92-5-92 41" id="w"/><path fill="#2e2f27" d="M114-163C36-179 61-72 57 0H25l-1-190h30c1 12-1 29 2 39 6-27 23-49 58-41v29" id="x"/><g id="j"><use transform="matrix(0.05,0,0,0.05,0,0)" xlink:href="#q"/><use transform="matrix(0.05,0,0,0.05,6.3500000000000005,0)" xlink:href="#v"/><use transform="matrix(0.05,0,0,0.05,15.350000000000001,0)" xlink:href="#w"/><use transform="matrix(0.05,0,0,0.05,25.35,0)" xlink:href="#x"/><use transform="matrix(0.05,0,0,0.05,31.3,0)" xlink:href="#q"/></g><path fill="#2e2f27" d="M76-40C78 24 84 88 6 75V52C86 64 9-79 80-94c-40-6-34-59-34-106 1-29-11-41-40-38v-23c44-4 70 10 70 52 0 47-12 108 38 105v22c-26 1-39 14-38 42" id="y"/><use transform="matrix(0.05,0,0,0.05,0,0)" xlink:href="#y" id="k"/></defs></g></svg>