<svg xmlns="http://www.w3.org/2000/svg" xmlns:xlink="http://www.w3.org/1999/xlink" xmlns:lucid="lucid" width="892" height="842"><g transform="translate(-69 -139)" lucid:page-tab-id="0_0"><path d="M0 0h1870.4v1323.2H0z" fill="#fff"/><path d="M380 560h260v400H380z" stroke="#2e2f27" stroke-width="2" fill="#fff"/><use xlink:href="#a" transform="matrix(1,0,0,1,385,565) translate(0 14.4)"/><use xlink:href="#b" transform="matrix(1,0,0,1,385,565) translate(71.9 14.4)"/><use xlink:href="#c" transform="matrix(1,0,0,1,385,565) translate(121.85000000000001 14.4)"/><path d="M210 160h40v340h-40z" stroke="#2e2f27" stroke-width="2" fill="#c4c5b9"/><use xlink:href="#d" transform="matrix(1,0,0,1,215,165) translate(0 14.4)"/><path d="M90 220h40v20H90zM90 260h40v20H90zM90 340h40v20H90zM90 300h40v20H90zM90 380h40v20H90zM90 420h40v20H90zM90 460h40v20H90zM140 220h60v20h-60zM140 260h60v20h-60zM140 300h60v20h-60zM140 340h60v20h-60zM140 380h60v20h-60zM140 420h60v20h-60zM140 460h60v20h-60zM220 220h20v20h-20zM220 260h20v20h-20zM220 300h20v20h-20zM220 340h20v20h-20zM220 380h20v20h-20zM220 420h20v20h-20zM220 460h20v20h-20zM260 220h60v20h-60zM260 260h60v20h-60zM260 300h60v20h-60zM260 340h60v20h-60zM260 380h60v20h-60zM260 420h60v20h-60zM260 460h60v20h-60zM620 220h320v20H620zM620 260h200v20H620zM620 300h260v20H620zM620 340h120v20H620zM620 380h280v20H620zM620 420h300v20H620zM620 460h240v20H620zM380 220h60v20h-60zM380 260h60v20h-60zM380 300h60v20h-60zM380 340h60v20h-60zM380 380h60v20h-60zM380 420h60v20h-60zM380 460h60v20h-60z" stroke="#2e2f27" stroke-width="2" fill="#fff"/><path d="M390 598.4h240v160H390z" stroke="#2e2f27" stroke-width="2" fill="#c4c5b9"/><path d="M400 608.4h20v20h-20zM420 608.4h60v20h-60zM480 608.4h120v20H480zM100 560h230v400H100z" stroke="#2e2f27" stroke-width="2" fill="#fff"/><use xlink:href="#e" transform="matrix(1,0,0,1,105,565) translate(0 13.866666666666669)"/><use xlink:href="#f" transform="matrix(1,0,0,1,105,565) translate(69.23703703703704 13.866666666666669)"/><use xlink:href="#g" transform="matrix(1,0,0,1,105,565) translate(151.85925925925926 13.866666666666669)"/><path d="M110 598.4h40v100h-40z" stroke="#2e2f27" stroke-width="2" fill="#c4c5b9"/><path d="M120 608.4h20v20h-20zM120 638.4h20v20h-20zM120 668.4h20v20h-20z" stroke="#2e2f27" stroke-width="2" fill="#fff"/><path d="M110 718.4h60v100h-60zM330 160h40v340h-40z" stroke="#2e2f27" stroke-width="2" fill="#c4c5b9"/><use xlink:href="#h" transform="matrix(1,0,0,1,335,165) translate(0 14.4)"/><path d="M340 220h20v20h-20zM340 260h20v20h-20zM340 300h20v20h-20zM340 340h20v20h-20zM340 380h20v20h-20zM340 420h20v20h-20zM340 460h20v20h-20z" stroke="#2e2f27" stroke-width="2" fill="#fff"/><path d="M450 160h40v340h-40z" stroke="#2e2f27" stroke-width="2" fill="#c4c5b9"/><use xlink:href="#i" transform="matrix(1,0,0,1,455,165) translate(0 14.4)"/><path d="M460 220h20v20h-20zM460 260h20v20h-20zM460 300h20v20h-20zM460 340h20v20h-20zM460 380h20v20h-20zM460 420h20v20h-20zM460 460h20v20h-20zM120 728.4h20v20h-20zM120 758.4h20v20h-20zM120 788.4h20v20h-20zM140 788.4h20v20h-20zM140 758.4h20v20h-20zM140 728.4h20v20h-20z" stroke="#2e2f27" stroke-width="2" fill="#fff"/><path d="M110 840h80v100h-80z" stroke="#2e2f27" stroke-width="2" fill="#c4c5b9"/><path d="M120 850h20v20h-20zM120 880h20v20h-20zM120 910h20v20h-20zM140 910h20v20h-20zM140 880h20v20h-20zM140 850h20v20h-20zM160 850h20v20h-20zM160 880h20v20h-20zM160 910h20v20h-20zM400 638.4h100v20H400zM500 638.4h20v20h-20zM520 638.4h100v20H520zM400 668.4h180v20H400zM580 668.4h40v20h-40zM400 698.4h100v20H400zM500 698.4h100v20H500zM400 728.4h40v20h-40zM500 220h60v20h-60zM500 260h60v20h-60zM500 300h60v20h-60zM500 340h60v20h-60zM500 380h60v20h-60zM500 420h60v20h-60zM500 460h60v20h-60z" stroke="#2e2f27" stroke-width="2" fill="#fff"/><path d="M570 160h40v340h-40z" stroke="#2e2f27" stroke-width="2" fill="#c4c5b9"/><use xlink:href="#j" transform="matrix(1,0,0,1,575,165) translate(0 14.4)"/><path d="M580 220h20v20h-20zM580 260h20v20h-20zM580 300h20v20h-20zM580 340h20v20h-20zM580 380h20v20h-20zM580 420h20v20h-20zM580 460h20v20h-20zM670 560h260v400H670z" stroke="#2e2f27" stroke-width="2" fill="#fff"/><use xlink:href="#k" transform="matrix(1,0,0,1,675,565) translate(0 14.4)"/><use xlink:href="#c" transform="matrix(1,0,0,1,675,565) translate(58.900000000000006 14.4)"/><path d="M680 598.4h240V700H680z" stroke="#2e2f27" stroke-width="2" fill="#c4c5b9"/><path d="M690 608.4h20v20h-20zM710 608.4h60v20h-60zM770 608.4h120v20H770zM690 638.4h100v20H690zM790 638.4h20v20h-20zM810 638.4h100v20H810zM690 668.4h180v20H690zM870 668.4h40v20h-40z" stroke="#2e2f27" stroke-width="2" fill="#fff"/><path d="M680 720h60v100h-60z" stroke="#2e2f27" stroke-width="2" fill="#c4c5b9"/><path d="M690 730h20v20h-20zM690 760h20v20h-20zM690 790h20v20h-20zM710 790h20v20h-20zM710 760h20v20h-20zM710 730h20v20h-20z" stroke="#2e2f27" stroke-width="2" fill="#fff"/><path d="M590 502v28h210v10.5" stroke="#2e2f27" stroke-width="2" fill="none"/><path d="M591 502.03h-2V501h2z" stroke="#2e2f27" stroke-width=".05" fill="#2e2f27"/><path d="M800 555.76l-4.63-14.26h9.26z" stroke="#2e2f27" stroke-width="2" fill="#2e2f27"/><path d="M470 502v28h40v10.5" stroke="#2e2f27" stroke-width="2" fill="none"/><path d="M471 502.03h-2V501h2z" stroke="#2e2f27" stroke-width=".05" fill="#2e2f27"/><path d="M510 555.76l-4.63-14.26h9.26z" stroke="#2e2f27" stroke-width="2" fill="#2e2f27"/><path d="M350 502v28H215v10.5" stroke="#2e2f27" stroke-width="2" fill="none"/><path d="M351 502.03h-2V501h2z" stroke="#2e2f27" stroke-width=".05" fill="#2e2f27"/><path d="M215 555.76l-4.63-14.26h9.26z" stroke="#2e2f27" stroke-width="2" fill="#2e2f27"/><defs><path fill="#2e2f27" d="M205 0l-28-72H64L36 0H1l101-248h38L239 0h-34zm-38-99l-47-123c-12 45-31 82-46 123h93" id="l"/><path fill="#2e2f27" d="M59-47c-2 24 18 29 38 22v24C64 9 27 4 27-40v-127H5v-23h24l9-43h21v43h35v23H59v120" id="m"/><path fill="#2e2f27" d="M114-163C36-179 61-72 57 0H25l-1-190h30c1 12-1 29 2 39 6-27 23-49 58-41v29" id="n"/><path fill="#2e2f27" d="M24-231v-30h32v30H24zM24 0v-190h32V0H24" id="o"/><path fill="#2e2f27" d="M115-194c53 0 69 39 70 98 0 66-23 100-70 100C84 3 66-7 56-30L54 0H23l1-261h32v101c10-23 28-34 59-34zm-8 174c40 0 45-34 45-75 0-40-5-75-45-74-42 0-51 32-51 76 0 43 10 73 51 73" id="p"/><path fill="#2e2f27" d="M84 4C-5 8 30-112 23-190h32v120c0 31 7 50 39 49 72-2 45-101 50-169h31l1 190h-30c-1-10 1-25-2-33-11 22-28 36-60 37" id="q"/><path fill="#2e2f27" d="M100-194c63 0 86 42 84 106H49c0 40 14 67 53 68 26 1 43-12 49-29l28 8c-11 28-37 45-77 45C44 4 14-33 15-96c1-61 26-98 85-98zm52 81c6-60-76-77-97-28-3 7-6 17-6 28h103" id="r"/><g id="a"><use transform="matrix(0.05,0,0,0.05,0,0)" xlink:href="#l"/><use transform="matrix(0.05,0,0,0.05,12,0)" xlink:href="#m"/><use transform="matrix(0.05,0,0,0.05,17,0)" xlink:href="#m"/><use transform="matrix(0.05,0,0,0.05,22,0)" xlink:href="#n"/><use transform="matrix(0.05,0,0,0.05,27.950000000000003,0)" xlink:href="#o"/><use transform="matrix(0.05,0,0,0.05,31.899999999999995,0)" xlink:href="#p"/><use transform="matrix(0.05,0,0,0.05,41.9,0)" xlink:href="#q"/><use transform="matrix(0.05,0,0,0.05,51.900000000000006,0)" xlink:href="#m"/><use transform="matrix(0.05,0,0,0.05,56.900000000000006,0)" xlink:href="#r"/></g><path fill="#2e2f27" d="M117-194c89-4 53 116 60 194h-32v-121c0-31-8-49-39-48C34-167 62-67 57 0H25l-1-190h30c1 10-1 24 2 32 11-22 29-35 61-36" id="s"/><path fill="#2e2f27" d="M210-169c-67 3-38 105-44 169h-31v-121c0-29-5-50-35-48C34-165 62-65 56 0H25l-1-190h30c1 10-1 24 2 32 10-44 99-50 107 0 11-21 27-35 58-36 85-2 47 119 55 194h-31v-121c0-29-5-49-35-48" id="t"/><g id="b"><use transform="matrix(0.05,0,0,0.05,0,0)" xlink:href="#r"/><use transform="matrix(0.05,0,0,0.05,10,0)" xlink:href="#s"/><use transform="matrix(0.05,0,0,0.05,20,0)" xlink:href="#q"/><use transform="matrix(0.05,0,0,0.05,30,0)" xlink:href="#t"/></g><path fill="#2e2f27" d="M135-143c-3-34-86-38-87 0 15 53 115 12 119 90S17 21 10-45l28-5c4 36 97 45 98 0-10-56-113-15-118-90-4-57 82-63 122-42 12 7 21 19 24 35" id="u"/><path fill="#2e2f27" d="M100-194c62-1 85 37 85 99 1 63-27 99-86 99S16-35 15-95c0-66 28-99 85-99zM99-20c44 1 53-31 53-75 0-43-8-75-51-75s-53 32-53 75 10 74 51 75" id="v"/><g id="c"><use transform="matrix(0.05,0,0,0.05,0,0)" xlink:href="#u"/><use transform="matrix(0.05,0,0,0.05,9,0)" xlink:href="#m"/><use transform="matrix(0.05,0,0,0.05,14,0)" xlink:href="#v"/><use transform="matrix(0.05,0,0,0.05,24,0)" xlink:href="#n"/><use transform="matrix(0.05,0,0,0.05,29.950000000000003,0)" xlink:href="#r"/></g><use transform="matrix(0.05,0,0,0.05,0,0)" xlink:href="#l" id="d"/><g id="e"><use transform="matrix(0.048148148148148155,0,0,0.048148148148148155,0,0)" xlink:href="#l"/><use transform="matrix(0.048148148148148155,0,0,0.048148148148148155,11.555555555555557,0)" xlink:href="#m"/><use transform="matrix(0.048148148148148155,0,0,0.048148148148148155,16.370370370370374,0)" xlink:href="#m"/><use transform="matrix(0.048148148148148155,0,0,0.048148148148148155,21.18518518518519,0)" xlink:href="#n"/><use transform="matrix(0.048148148148148155,0,0,0.048148148148148155,26.914814814814825,0)" xlink:href="#o"/><use transform="matrix(0.048148148148148155,0,0,0.048148148148148155,30.718518518518522,0)" xlink:href="#p"/><use transform="matrix(0.048148148148148155,0,0,0.048148148148148155,40.348148148148155,0)" xlink:href="#q"/><use transform="matrix(0.048148148148148155,0,0,0.048148148148148155,49.97777777777779,0)" xlink:href="#m"/><use transform="matrix(0.048148148148148155,0,0,0.048148148148148155,54.7925925925926,0)" xlink:href="#r"/></g><path fill="#2e2f27" d="M24 0v-261h32V0H24" id="w"/><path fill="#2e2f27" d="M108 0H70L1-190h34L89-25l56-165h34" id="x"/><path fill="#2e2f27" d="M141-36C126-15 110 5 73 4 37 3 15-17 15-53c-1-64 63-63 125-63 3-35-9-54-41-54-24 1-41 7-42 31l-33-3c5-37 33-52 76-52 45 0 72 20 72 64v82c-1 20 7 32 28 27v20c-31 9-61-2-59-35zM48-53c0 20 12 33 32 33 41-3 63-29 60-74-43 2-92-5-92 41" id="y"/><g id="f"><use transform="matrix(0.048148148148148155,0,0,0.048148148148148155,0,0)" xlink:href="#t"/><use transform="matrix(0.048148148148148155,0,0,0.048148148148148155,14.396296296296299,0)" xlink:href="#q"/><use transform="matrix(0.048148148148148155,0,0,0.048148148148148155,24.025925925925932,0)" xlink:href="#w"/><use transform="matrix(0.048148148148148155,0,0,0.048148148148148155,27.829629629629633,0)" xlink:href="#m"/><use transform="matrix(0.048148148148148155,0,0,0.048148148148148155,32.64444444444445,0)" xlink:href="#o"/><use transform="matrix(0.048148148148148155,0,0,0.048148148148148155,36.44814814814816,0)" xlink:href="#x"/><use transform="matrix(0.048148148148148155,0,0,0.048148148148148155,45.11481481481482,0)" xlink:href="#y"/><use transform="matrix(0.048148148148148155,0,0,0.048148148148148155,54.744444444444454,0)" xlink:href="#w"/><use transform="matrix(0.048148148148148155,0,0,0.048148148148148155,58.54814814814816,0)" xlink:href="#q"/><use transform="matrix(0.048148148148148155,0,0,0.048148148148148155,68.17777777777779,0)" xlink:href="#r"/></g><path fill="#2e2f27" d="M115-194c55 1 70 41 70 98S169 2 115 4C84 4 66-9 55-30l1 105H24l-1-265h31l2 30c10-21 28-34 59-34zm-8 174c40 0 45-34 45-75s-6-73-45-74c-42 0-51 32-51 76 0 43 10 73 51 73" id="z"/><path fill="#2e2f27" d="M177-190C167-65 218 103 67 71c-23-6-38-20-44-43l32-5c15 47 100 32 89-28v-30C133-14 115 1 83 1 29 1 15-40 15-95c0-56 16-97 71-98 29-1 48 16 59 35 1-10 0-23 2-32h30zM94-22c36 0 50-32 50-73 0-42-14-75-50-75-39 0-46 34-46 75s6 73 46 73" id="A"/><g id="g"><use transform="matrix(0.048148148148148155,0,0,0.048148148148148155,0,0)" xlink:href="#t"/><use transform="matrix(0.048148148148148155,0,0,0.048148148148148155,14.396296296296299,0)" xlink:href="#y"/><use transform="matrix(0.048148148148148155,0,0,0.048148148148148155,24.025925925925932,0)" xlink:href="#z"/><use transform="matrix(0.048148148148148155,0,0,0.048148148148148155,33.655555555555566,0)" xlink:href="#z"/><use transform="matrix(0.048148148148148155,0,0,0.048148148148148155,43.2851851851852,0)" xlink:href="#o"/><use transform="matrix(0.048148148148148155,0,0,0.048148148148148155,47.0888888888889,0)" xlink:href="#s"/><use transform="matrix(0.048148148148148155,0,0,0.048148148148148155,56.718518518518536,0)" xlink:href="#A"/></g><path fill="#2e2f27" d="M160-131c35 5 61 23 61 61C221 17 115-2 30 0v-248c76 3 177-17 177 60 0 33-19 50-47 57zm-97-11c50-1 110 9 110-42 0-47-63-36-110-37v79zm0 115c55-2 124 14 124-45 0-56-70-42-124-44v89" id="B"/><use transform="matrix(0.05,0,0,0.05,0,0)" xlink:href="#B" id="h"/><path fill="#2e2f27" d="M212-179c-10-28-35-45-73-45-59 0-87 40-87 99 0 60 29 101 89 101 43 0 62-24 78-52l27 14C228-24 195 4 139 4 59 4 22-46 18-125c-6-104 99-153 187-111 19 9 31 26 39 46" id="C"/><use transform="matrix(0.05,0,0,0.05,0,0)" xlink:href="#C" id="i"/><path fill="#2e2f27" d="M30-248c118-7 216 8 213 122C240-48 200 0 122 0H30v-248zM63-27c89 8 146-16 146-99s-60-101-146-95v194" id="D"/><use transform="matrix(0.05,0,0,0.05,0,0)" xlink:href="#D" id="j"/><path fill="#2e2f27" d="M127-220V0H93v-220H8v-28h204v28h-85" id="E"/><g id="k"><use transform="matrix(0.05,0,0,0.05,0,0)" xlink:href="#E"/><use transform="matrix(0.05,0,0,0.05,8.950000000000001,0)" xlink:href="#r"/><use transform="matrix(0.05,0,0,0.05,18.950000000000003,0)" xlink:href="#s"/><use transform="matrix(0.05,0,0,0.05,28.950000000000003,0)" xlink:href="#u"/><use transform="matrix(0.05,0,0,0.05,37.95,0)" xlink:href="#v"/><use transform="matrix(0.05,0,0,0.05,47.95,0)" xlink:href="#n"/></g></defs></g></svg>