<svg xmlns="http://www.w3.org/2000/svg" xmlns:xlink="http://www.w3.org/1999/xlink" xmlns:lucid="lucid" width="903.17" height="403"><g transform="translate(-58.5 -418.5)" lucid:page-tab-id="0_0"><path d="M0 0h1870.87v1322.84H0z" fill="#fff"/><path d="M400.67 446a6 6 0 0 1 6-6H514a6 6 0 0 1 6 6v68a6 6 0 0 1-6 6H406.67a6 6 0 0 1-6-6z" stroke="#000" stroke-opacity="0" stroke-width="3" fill="#1b6a3a"/><use xlink:href="#a" transform="matrix(1,0,0,1,412.6666666666666,452) translate(20.5 31.9)"/><use xlink:href="#b" transform="matrix(1,0,0,1,412.6666666666666,452) translate(65.5 31.9)"/><path d="M540 446a6 6 0 0 1 6-6h107.33a6 6 0 0 1 6 6v68a6 6 0 0 1-6 6H546a6 6 0 0 1-6-6z" stroke="#000" stroke-opacity="0" stroke-width="3" fill="#1b6a3a"/><use xlink:href="#a" transform="matrix(1,0,0,1,552,452) translate(20.5 31.9)"/><use xlink:href="#c" transform="matrix(1,0,0,1,552,452) translate(65.5 31.9)"/><path d="M680 446a6 6 0 0 1 6-6h107.33a6 6 0 0 1 6 6v68a6 6 0 0 1-6 6H686a6 6 0 0 1-6-6z" stroke="#000" stroke-opacity="0" stroke-width="3" fill="#1b6a3a"/><use xlink:href="#a" transform="matrix(1,0,0,1,692,452) translate(20.5 31.9)"/><use xlink:href="#d" transform="matrix(1,0,0,1,692,452) translate(65.5 31.9)"/><path d="M400 686a6 6 0 0 1 6-6h107.33a6 6 0 0 1 6 6v68a6 6 0 0 1-6 6H406a6 6 0 0 1-6-6z" stroke="#000" stroke-opacity="0" stroke-width="3" fill="#1b6a3a"/><use xlink:href="#a" transform="matrix(1,0,0,1,412.00000000000006,692) translate(20.5 31.9)"/><use xlink:href="#c" transform="matrix(1,0,0,1,412.00000000000006,692) translate(65.5 31.9)"/><path d="M539.33 686a6 6 0 0 1 6-6h107.34a6 6 0 0 1 6 6v68a6 6 0 0 1-6 6H545.33a6 6 0 0 1-6-6z" stroke="#000" stroke-opacity="0" stroke-width="3" fill="#1b6a3a"/><use xlink:href="#a" transform="matrix(1,0,0,1,551.3333333333335,692) translate(20.5 31.9)"/><use xlink:href="#e" transform="matrix(1,0,0,1,551.3333333333335,692) translate(65.5 31.9)"/><path d="M679.33 686a6 6 0 0 1 6-6h107.34a6 6 0 0 1 6 6v68a6 6 0 0 1-6 6H685.33a6 6 0 0 1-6-6z" stroke="#000" stroke-opacity="0" stroke-width="3" fill="#1b6a3a"/><use xlink:href="#a" transform="matrix(1,0,0,1,691.3333333333335,692) translate(20.5 31.9)"/><use xlink:href="#b" transform="matrix(1,0,0,1,691.3333333333335,692) translate(65.5 31.9)"/><path d="M400 526a6 6 0 0 1 6-6h108a6 6 0 0 1 6 6v26.67a6 6 0 0 1-6 6H406a6 6 0 0 1-6-6z" stroke="#2e2f27" stroke-width="2" fill="#fff"/><use xlink:href="#f" transform="matrix(1,0,0,1,405,525) translate(32.5 18.025)"/><path d="M540 526a6 6 0 0 1 6-6h108a6 6 0 0 1 6 6v26.67a6 6 0 0 1-6 6H546a6 6 0 0 1-6-6z" stroke="#2e2f27" stroke-width="2" fill="#fff"/><use xlink:href="#g" transform="matrix(1,0,0,1,545,525) translate(32.5 18.025)"/><path d="M680 526a6 6 0 0 1 6-6h108a6 6 0 0 1 6 6v26.67a6 6 0 0 1-6 6H686a6 6 0 0 1-6-6z" stroke="#2e2f27" stroke-width="2" fill="#fff"/><use xlink:href="#h" transform="matrix(1,0,0,1,685,525) translate(32.5 18.025)"/><path d="M540 766a6 6 0 0 1 6-6h108a6 6 0 0 1 6 6v26.67a6 6 0 0 1-6 6H546a6 6 0 0 1-6-6z" stroke="#2e2f27" stroke-width="2" fill="#fff"/><use xlink:href="#i" transform="matrix(1,0,0,1,545,765) translate(32.5 18.025)"/><path d="M400 766a6 6 0 0 1 6-6h108a6 6 0 0 1 6 6v26.67a6 6 0 0 1-6 6H406a6 6 0 0 1-6-6z" stroke="#2e2f27" stroke-width="2" fill="#fff"/><use xlink:href="#g" transform="matrix(1,0,0,1,405,765) translate(32.5 18.025)"/><path d="M680 766a6 6 0 0 1 6-6h108a6 6 0 0 1 6 6v26.67a6 6 0 0 1-6 6H686a6 6 0 0 1-6-6z" stroke="#2e2f27" stroke-width="2" fill="#fff"/><use xlink:href="#f" transform="matrix(1,0,0,1,685,765) translate(32.5 18.025)"/><path d="M740.76 560.32l8.32 7.17m8.33 7.17L774.07 589m8.33 7.2l16.64 14.33m8.33 7.18l16.65 14.35m8.33 7.18L849 653.58m8.32 7.17l8.33 7.17" stroke="#7b7d68" stroke-width="2" fill="none"/><path d="M740.12 561.1l-1.65-1.43h2.88z" stroke="#7b7d68" stroke-width=".05" fill="#7b7d68"/><path d="M877.2 677.9l-13.82-5.8 6.05-7.04z" stroke="#7b7d68" stroke-width="2" fill="#7b7d68"/><path d="M599.24 560.32l-6.97 5.98m-6.98 5.98l-13.95 11.96m-6.98 5.98l-13.95 11.96m-6.97 5.98l-13.95 11.96m-6.97 5.98l-13.95 11.96m-6.97 5.98L487.67 656m-6.97 5.98l-7 5.98" stroke="#7b7d68" stroke-width="2" fill="none"/><path d="M599.87 561.1l-1.22-1.43h2.9z" stroke="#7b7d68" stroke-width=".05" fill="#7b7d68"/><path d="M462.12 677.9l7.82-12.8 6.03 7.03z" stroke="#7b7d68" stroke-width="2" fill="#7b7d68"/><path d="M460.58 560.06l9.7 4.17m9.67 4.17l19.36 8.35m9.7 4.17l19.36 8.34m9.68 4.17l19.37 8.34m9.7 4.17l19.36 8.35m9.68 4.16l19.36 8.34m9.68 4.17l19.37 8.34m9.68 4.18l19.37 8.35m9.68 4.17l19.36 8.34m9.7 4.17l9.67 4.18" stroke="#7b7d68" stroke-width="2" fill="none"/><path d="M460.2 561l-3.06-1.33h3.64z" stroke="#7b7d68" stroke-width=".05" fill="#7b7d68"/><path d="M736.03 678.72l-14.94-1.4 3.66-8.5z" stroke="#7b7d68" stroke-width="2" fill="#7b7d68"/><path d="M80 527.33a6 6 0 0 1 6-6h288a6 6 0 0 1 6 6v25.34a6 6 0 0 1-6 6H86a6 6 0 0 1-6-6z" stroke="#000" stroke-opacity="0" stroke-width="3" fill="#fff" fill-opacity="0"/><use xlink:href="#j" transform="matrix(1,0,0,1,85,526.3333333333334) translate(-1.4660493827154824 18.48888888888888)"/><path d="M200 766a6 6 0 0 1 6-6h168a6 6 0 0 1 6 6v28a6 6 0 0 1-6 6H206a6 6 0 0 1-6-6z" stroke="#000" stroke-opacity="0" stroke-width="3" fill="#fff" fill-opacity="0"/><use xlink:href="#k" transform="matrix(1,0,0,1,205,765) translate(122.67962962962972 19.83055555555552)"/><path d="M820.67 446a6 6 0 0 1 6-6H934a6 6 0 0 1 6 6v68a6 6 0 0 1-6 6H826.67a6 6 0 0 1-6-6z" stroke="#000" stroke-opacity="0" stroke-width="3" fill="#1b6a3a"/><use xlink:href="#a" transform="matrix(1,0,0,1,832.6666666666665,452) translate(20.5 31.9)"/><use xlink:href="#e" transform="matrix(1,0,0,1,832.6666666666665,452) translate(65.5 31.9)"/><path d="M820 686a6 6 0 0 1 6-6h107.33a6 6 0 0 1 6 6v68a6 6 0 0 1-6 6H826a6 6 0 0 1-6-6z" stroke="#000" stroke-opacity="0" stroke-width="3" fill="#1b6a3a"/><use xlink:href="#a" transform="matrix(1,0,0,1,832,692) translate(20.5 31.9)"/><use xlink:href="#d" transform="matrix(1,0,0,1,832,692) translate(65.5 31.9)"/><path d="M820.67 526a6 6 0 0 1 6-6h108a6 6 0 0 1 6 6v26.67a6 6 0 0 1-6 6h-108a6 6 0 0 1-6-6z" stroke="#2e2f27" stroke-width="2" fill="#fff"/><g><use xlink:href="#i" transform="matrix(1,0,0,1,825.6666666666666,525) translate(32.5 18.025)"/></g><path d="M820.67 766a6 6 0 0 1 6-6h108a6 6 0 0 1 6 6v26.67a6 6 0 0 1-6 6h-108a6 6 0 0 1-6-6z" stroke="#2e2f27" stroke-width="2" fill="#fff"/><g><use xlink:href="#h" transform="matrix(1,0,0,1,825.6666666666666,765) translate(32.5 18.025)"/></g><path d="M879.75 560.06l-8.8 3.76m-8.8 3.75l-17.57 7.5m-8.8 3.77l-17.57 7.5m-8.78 3.76l-17.58 7.52m-8.8 3.75l-17.58 7.5m-8.8 3.77l-17.57 7.5m-8.8 3.77l-17.58 7.52m-8.8 3.75l-17.58 7.5m-8.8 3.77l-17.57 7.5m-8.8 3.77l-17.57 7.52m-8.8 3.76l-8.8 3.75" stroke="#7b7d68" stroke-width="2" fill="none"/><path d="M880.12 561l-.57-1.33h3.66z" stroke="#7b7d68" stroke-width=".05" fill="#7b7d68"/><path d="M601.98 678.73l11.3-9.87 3.64 8.53z" stroke="#7b7d68" stroke-width="2" fill="#7b7d68"/><defs><path fill="#fff" d="M117-194c89-4 53 116 60 194h-32v-121c0-31-8-49-39-48C34-167 62-67 57 0H25l-1-190h30c1 10-1 24 2 32 11-22 29-35 61-36" id="l"/><path fill="#fff" d="M100-194c62-1 85 37 85 99 1 63-27 99-86 99S16-35 15-95c0-66 28-99 85-99zM99-20c44 1 53-31 53-75 0-43-8-75-51-75s-53 32-53 75 10 74 51 75" id="m"/><path fill="#fff" d="M85-194c31 0 48 13 60 33l-1-100h32l1 261h-30c-2-10 0-23-3-31C134-8 116 4 85 4 32 4 16-35 15-94c0-66 23-100 70-100zm9 24c-40 0-46 34-46 75 0 40 6 74 45 74 42 0 51-32 51-76 0-42-9-74-50-73" id="n"/><path fill="#fff" d="M100-194c63 0 86 42 84 106H49c0 40 14 67 53 68 26 1 43-12 49-29l28 8c-11 28-37 45-77 45C44 4 14-33 15-96c1-61 26-98 85-98zm52 81c6-60-76-77-97-28-3 7-6 17-6 28h103" id="o"/><g id="a"><use transform="matrix(0.05,0,0,0.05,0,0)" xlink:href="#l"/><use transform="matrix(0.05,0,0,0.05,10,0)" xlink:href="#m"/><use transform="matrix(0.05,0,0,0.05,20,0)" xlink:href="#n"/><use transform="matrix(0.05,0,0,0.05,30,0)" xlink:href="#o"/></g><path fill="#fff" d="M101-251c68 0 85 55 85 127S166 4 100 4C33 4 14-52 14-124c0-73 17-127 87-127zm-1 229c47 0 54-49 54-102s-4-102-53-102c-51 0-55 48-55 102 0 53 5 102 54 102" id="p"/><use transform="matrix(0.05,0,0,0.05,0,0)" xlink:href="#p" id="b"/><path fill="#fff" d="M27 0v-27h64v-190l-56 39v-29l58-41h29v221h61V0H27" id="q"/><use transform="matrix(0.05,0,0,0.05,0,0)" xlink:href="#q" id="c"/><path fill="#fff" d="M101-251c82-7 93 87 43 132L82-64C71-53 59-42 53-27h129V0H18c2-99 128-94 128-182 0-28-16-43-45-43s-46 15-49 41l-32-3c6-41 34-60 81-64" id="r"/><use transform="matrix(0.05,0,0,0.05,0,0)" xlink:href="#r" id="d"/><path fill="#fff" d="M126-127c33 6 58 20 58 59 0 88-139 92-164 29-3-8-5-16-6-25l32-3c6 27 21 44 54 44 32 0 52-15 52-46 0-38-36-46-79-43v-28c39 1 72-4 72-42 0-27-17-43-46-43-28 0-47 15-49 41l-32-3c6-42 35-63 81-64 48-1 79 21 79 65 0 36-21 52-52 59" id="s"/><use transform="matrix(0.05,0,0,0.05,0,0)" xlink:href="#s" id="e"/><path fill="#2e2f27" d="M101-251c68 0 84 54 84 127C185-50 166 4 99 4S15-52 14-124c-1-75 17-127 87-127zm-1 216c37-5 36-46 36-89s4-89-36-89c-39 0-36 45-36 89 0 43-3 85 36 89" id="t"/><path fill="#2e2f27" d="M24 0v-54h51V0H24" id="u"/><path fill="#2e2f27" d="M182-182c0 78-84 86-111 141h115V0H12c-6-101 99-100 120-180 1-22-12-31-33-32-23 0-32 14-35 34l-49-3c5-45 32-70 84-70 51 0 83 22 83 69" id="v"/><path fill="#2e2f27" d="M138-131c27 9 52 24 51 61 0 53-36 74-89 74S11-19 11-69c0-35 22-54 51-61-78-25-46-121 38-121 51 0 83 19 83 66 0 30-18 49-45 54zm-38-16c24 0 32-13 32-36 1-23-11-34-32-34-22 0-33 12-32 34 0 22 9 36 32 36zm1 116c27 0 37-17 37-43 0-25-13-39-39-39-24 0-37 15-37 40 0 27 11 42 39 42" id="w"/><g id="f"><use transform="matrix(0.05,0,0,0.05,0,0)" xlink:href="#t"/><use transform="matrix(0.05,0,0,0.05,10,0)" xlink:href="#u"/><use transform="matrix(0.05,0,0,0.05,15,0)" xlink:href="#v"/><use transform="matrix(0.05,0,0,0.05,25,0)" xlink:href="#v"/><use transform="matrix(0.05,0,0,0.05,35,0)" xlink:href="#w"/></g><path fill="#2e2f27" d="M52 0c1-96 47-148 87-207H15v-41h169v40c-36 62-79 113-81 208H52" id="x"/><path fill="#2e2f27" d="M99-251c69 0 84 53 88 123 5 99-61 162-144 118-15-8-21-25-26-45l46-6c4 31 50 33 63 7 7-15 12-36 12-60-9 18-29 28-54 28-48 0-72-32-72-82 0-55 31-83 87-83zm-1 128c24 0 37-16 37-39 0-27-10-51-37-51-25 0-35 19-35 45 0 25 10 45 35 45" id="y"/><g id="g"><use transform="matrix(0.05,0,0,0.05,0,0)" xlink:href="#t"/><use transform="matrix(0.05,0,0,0.05,10,0)" xlink:href="#u"/><use transform="matrix(0.05,0,0,0.05,15,0)" xlink:href="#x"/><use transform="matrix(0.05,0,0,0.05,25,0)" xlink:href="#w"/><use transform="matrix(0.05,0,0,0.05,35,0)" xlink:href="#y"/></g><path fill="#2e2f27" d="M23 0v-37h61v-169l-59 37v-38l62-41h46v211h57V0H23" id="z"/><g id="h"><use transform="matrix(0.05,0,0,0.05,0,0)" xlink:href="#t"/><use transform="matrix(0.05,0,0,0.05,10,0)" xlink:href="#u"/><use transform="matrix(0.05,0,0,0.05,15,0)" xlink:href="#z"/><use transform="matrix(0.05,0,0,0.05,25,0)" xlink:href="#v"/><use transform="matrix(0.05,0,0,0.05,35,0)" xlink:href="#z"/></g><path fill="#2e2f27" d="M128-127c34 4 56 21 59 58 7 91-148 94-172 28-4-9-6-17-7-26l51-5c1 24 16 35 40 36 23 0 39-12 38-36-1-31-31-36-65-34v-40c32 2 59-3 59-33 0-20-13-33-34-33s-33 13-35 32l-50-3c6-44 37-68 86-68 50 0 83 20 83 66 0 35-22 52-53 58" id="A"/><path fill="#2e2f27" d="M165-50V0h-47v-50H5v-38l105-160h55v161h33v37h-33zm-47-37l2-116L46-87h72" id="B"/><path fill="#2e2f27" d="M139-81c0-46-55-55-73-27H18l9-140h149v37H72l-4 63c44-38 133-4 122 66C201 21 21 35 11-62l49-4c5 18 15 30 39 30 26 0 40-18 40-45" id="C"/><g id="i"><use transform="matrix(0.05,0,0,0.05,0,0)" xlink:href="#t"/><use transform="matrix(0.05,0,0,0.05,10,0)" xlink:href="#u"/><use transform="matrix(0.05,0,0,0.05,15,0)" xlink:href="#A"/><use transform="matrix(0.05,0,0,0.05,25,0)" xlink:href="#B"/><use transform="matrix(0.05,0,0,0.05,35,0)" xlink:href="#C"/></g><path fill="#2e2f27" d="M233-177c-1 41-23 64-60 70L243 0h-38l-65-103H63V0H30v-248c88 3 205-21 203 71zM63-129c60-2 137 13 137-47 0-61-80-42-137-45v92" id="D"/><path fill="#2e2f27" d="M190 0L58-211 59 0H30v-248h39L202-35l-2-213h31V0h-41" id="E"/><path fill="#2e2f27" d="M30-248c118-7 216 8 213 122C240-48 200 0 122 0H30v-248zM63-27c89 8 146-16 146-99s-60-101-146-95v194" id="F"/><path fill="#2e2f27" d="M87 75C49 33 22-17 22-94c0-76 28-126 65-167h31c-38 41-64 92-64 168S80 34 118 75H87" id="G"/><path fill="#2e2f27" d="M101-251c68 0 85 55 85 127S166 4 100 4C33 4 14-52 14-124c0-73 17-127 87-127zm-1 229c47 0 54-49 54-102s-4-102-53-102c-51 0-55 48-55 102 0 53 5 102 54 102" id="H"/><path fill="#2e2f27" d="M141 0L90-78 38 0H4l68-98-65-92h35l48 74 47-74h35l-64 92 68 98h-35" id="I"/><path fill="#2e2f27" d="M126-127c33 6 58 20 58 59 0 88-139 92-164 29-3-8-5-16-6-25l32-3c6 27 21 44 54 44 32 0 52-15 52-46 0-38-36-46-79-43v-28c39 1 72-4 72-42 0-27-17-43-46-43-28 0-47 15-49 41l-32-3c6-42 35-63 81-64 48-1 79 21 79 65 0 36-21 52-52 59" id="J"/><path fill="#2e2f27" d="M96-169c-40 0-48 33-48 73s9 75 48 75c24 0 41-14 43-38l32 2c-6 37-31 61-74 61-59 0-76-41-82-99-10-93 101-131 147-64 4 7 5 14 7 22l-32 3c-4-21-16-35-41-35" id="K"/><path fill="#2e2f27" d="M141-36C126-15 110 5 73 4 37 3 15-17 15-53c-1-64 63-63 125-63 3-35-9-54-41-54-24 1-41 7-42 31l-33-3c5-37 33-52 76-52 45 0 72 20 72 64v82c-1 20 7 32 28 27v20c-31 9-61-2-59-35zM48-53c0 20 12 33 32 33 41-3 63-29 60-74-43 2-92-5-92 41" id="L"/><path fill="#2e2f27" d="M33-261c38 41 65 92 65 168S71 34 33 75H2C39 34 66-17 66-93S39-220 2-261h31" id="M"/><path fill="#2e2f27" d="M33-154v-36h34v36H33zM33 0v-36h34V0H33" id="N"/><g id="j"><use transform="matrix(0.062345679012345556,0,0,0.062345679012345556,0,0)" xlink:href="#D"/><use transform="matrix(0.062345679012345556,0,0,0.062345679012345556,16.1475308641975,0)" xlink:href="#E"/><use transform="matrix(0.062345679012345556,0,0,0.062345679012345556,32.295061728395,0)" xlink:href="#F"/><use transform="matrix(0.062345679012345556,0,0,0.062345679012345556,48.4425925925925,0)" xlink:href="#G"/><use transform="matrix(0.062345679012345556,0,0,0.062345679012345556,55.86172839506162,0)" xlink:href="#H"/><use transform="matrix(0.062345679012345556,0,0,0.062345679012345556,68.33086419753073,0)" xlink:href="#I"/><use transform="matrix(0.062345679012345556,0,0,0.062345679012345556,79.55308641975293,0)" xlink:href="#J"/><use transform="matrix(0.062345679012345556,0,0,0.062345679012345556,92.02222222222204,0)" xlink:href="#K"/><use transform="matrix(0.062345679012345556,0,0,0.062345679012345556,103.24444444444424,0)" xlink:href="#H"/><use transform="matrix(0.062345679012345556,0,0,0.062345679012345556,115.71358024691335,0)" xlink:href="#H"/><use transform="matrix(0.062345679012345556,0,0,0.062345679012345556,128.18271604938246,0)" xlink:href="#H"/><use transform="matrix(0.062345679012345556,0,0,0.062345679012345556,140.65185185185157,0)" xlink:href="#H"/><use transform="matrix(0.062345679012345556,0,0,0.062345679012345556,153.1209876543207,0)" xlink:href="#H"/><use transform="matrix(0.062345679012345556,0,0,0.062345679012345556,165.5901234567898,0)" xlink:href="#H"/><use transform="matrix(0.062345679012345556,0,0,0.062345679012345556,178.0592592592589,0)" xlink:href="#H"/><use transform="matrix(0.062345679012345556,0,0,0.062345679012345556,190.52839506172802,0)" xlink:href="#H"/><use transform="matrix(0.062345679012345556,0,0,0.062345679012345556,202.99753086419713,0)" xlink:href="#H"/><use transform="matrix(0.062345679012345556,0,0,0.062345679012345556,215.46666666666624,0)" xlink:href="#H"/><use transform="matrix(0.062345679012345556,0,0,0.062345679012345556,227.93580246913535,0)" xlink:href="#H"/><use transform="matrix(0.062345679012345556,0,0,0.062345679012345556,240.40493827160446,0)" xlink:href="#H"/><use transform="matrix(0.062345679012345556,0,0,0.062345679012345556,252.87407407407358,0)" xlink:href="#L"/><use transform="matrix(0.062345679012345556,0,0,0.062345679012345556,265.3432098765427,0)" xlink:href="#H"/><use transform="matrix(0.062345679012345556,0,0,0.062345679012345556,277.8123456790118,0)" xlink:href="#M"/><use transform="matrix(0.062345679012345556,0,0,0.062345679012345556,285.2314814814809,0)" xlink:href="#N"/></g><path fill="#2e2f27" d="M185-189c-5-48-123-54-124 2 14 75 158 14 163 119 3 78-121 87-175 55-17-10-28-26-33-46l33-7c5 56 141 63 141-1 0-78-155-14-162-118-5-82 145-84 179-34 5 7 8 16 11 25" id="O"/><path fill="#2e2f27" d="M100-194c62-1 85 37 85 99 1 63-27 99-86 99S16-35 15-95c0-66 28-99 85-99zM99-20c44 1 53-31 53-75 0-43-8-75-51-75s-53 32-53 75 10 74 51 75" id="P"/><path fill="#2e2f27" d="M114-163C36-179 61-72 57 0H25l-1-190h30c1 12-1 29 2 39 6-27 23-49 58-41v29" id="Q"/><path fill="#2e2f27" d="M59-47c-2 24 18 29 38 22v24C64 9 27 4 27-40v-127H5v-23h24l9-43h21v43h35v23H59v120" id="R"/><g id="k"><use transform="matrix(0.062345679012345556,0,0,0.062345679012345556,0,0)" xlink:href="#O"/><use transform="matrix(0.062345679012345556,0,0,0.062345679012345556,14.962962962962933,0)" xlink:href="#P"/><use transform="matrix(0.062345679012345556,0,0,0.062345679012345556,27.432098765432045,0)" xlink:href="#Q"/><use transform="matrix(0.062345679012345556,0,0,0.062345679012345556,34.851234567901166,0)" xlink:href="#R"/><use transform="matrix(0.062345679012345556,0,0,0.062345679012345556,41.08580246913572,0)" xlink:href="#N"/></g></defs></g></svg>