<svg xmlns="http://www.w3.org/2000/svg" xmlns:xlink="http://www.w3.org/1999/xlink" xmlns:lucid="lucid" width="1083" height="403"><g transform="translate(-58.5 -338.5)" lucid:page-tab-id="0_0"><path d="M0 0h1870.87v1322.84H0z" fill="#fff"/><path d="M600 366a6 6 0 0 1 6-6h268a6 6 0 0 1 6 6v348a6 6 0 0 1-6 6H606a6 6 0 0 1-6-6z" stroke="#000" stroke-opacity="0" stroke-width="3" fill="#ae6188"/><use xlink:href="#a" transform="matrix(1,0,0,1,612,372) translate(0 14.4)"/><use xlink:href="#b" transform="matrix(1,0,0,1,612,372) translate(56.900000000000006 14.4)"/><use xlink:href="#c" transform="matrix(1,0,0,1,612,372) translate(111.80000000000001 14.4)"/><path d="M620 406a6 6 0 0 1 6-6h228a6 6 0 0 1 6 6v288a6 6 0 0 1-6 6H626a6 6 0 0 1-6-6z" stroke="#ae6188" stroke-width="2" fill="#dbb8ca"/><use xlink:href="#d" transform="matrix(1,0,0,1,625,405) translate(0 14.4)"/><use xlink:href="#e" transform="matrix(1,0,0,1,625,405) translate(68.95 14.4)"/><use xlink:href="#f" transform="matrix(1,0,0,1,625,405) translate(0 36)"/><use xlink:href="#g" transform="matrix(1,0,0,1,625,405) translate(50.95 36)"/><use xlink:href="#h" transform="matrix(1,0,0,1,625,405) translate(108.80000000000001 36)"/><path d="M780 500c0 22.1-17.9 40-40 40s-40-17.9-40-40 17.9-40 40-40 40 17.9 40 40z" stroke="#7b7d68" stroke-width="3" fill="#fff"/><path d="M771.36 528.47l21.64 52.9" stroke="#7b7d68" stroke-width="2" fill="none"/><path d="M772.3 528.1l-1.86.77-.2-.47.13-.12 1.33-1.62z" stroke="#7b7d68" stroke-width=".05" fill="#7b7d68"/><path d="M798.77 595.5l-9.68-11.45 8.56-3.5z" stroke="#7b7d68" stroke-width="2" fill="#7b7d68"/><path d="M720 640c0 22.1-17.9 40-40 40s-40-17.9-40-40 17.9-40 40-40 40 17.9 40 40zM840 640c0 22.1-17.9 40-40 40s-40-17.9-40-40 17.9-40 40-40 40 17.9 40 40z" stroke="#7b7d68" stroke-width="3" fill="#fff"/><path d="M709.33 529.2l-22.12 52.26" stroke="#7b7d68" stroke-width="2" fill="none"/><path d="M710.47 529.06l-.23.54-1.84-.78.57-1.35z" stroke="#7b7d68" stroke-width=".05" fill="#7b7d68"/><path d="M681.26 595.52l1.3-14.94 8.53 3.6z" stroke="#7b7d68" stroke-width="2" fill="#7b7d68"/><path d="M80 416a6 6 0 0 1 6-6h248a6 6 0 0 1 6 6v248a6 6 0 0 1-6 6H86a6 6 0 0 1-6-6z" stroke="#2e2f27" stroke-width="3" fill="#fff" fill-opacity="0"/><use xlink:href="#i" transform="matrix(1,0,0,1,85,415) translate(0 17.95555555555552)"/><use xlink:href="#j" transform="matrix(1,0,0,1,85,415) translate(128.0580246913578 17.95555555555552)"/><use xlink:href="#k" transform="matrix(1,0,0,1,85,415) translate(0 44.8888888888888)"/><use xlink:href="#l" transform="matrix(1,0,0,1,85,415) translate(0 71.82222222222208)"/><use xlink:href="#m" transform="matrix(1,0,0,1,85,415) translate(12.469135802469111 71.82222222222208)"/><use xlink:href="#l" transform="matrix(1,0,0,1,85,415) translate(0 98.75555555555536)"/><use xlink:href="#n" transform="matrix(1,0,0,1,85,415) translate(12.469135802469111 98.75555555555536)"/><use xlink:href="#l" transform="matrix(1,0,0,1,85,415) translate(0 125.68888888888864)"/><use xlink:href="#o" transform="matrix(1,0,0,1,85,415) translate(12.469135802469111 125.68888888888864)"/><use xlink:href="#p" transform="matrix(1,0,0,1,85,415) translate(114.52901234567878 125.68888888888864)"/><use xlink:href="#q" transform="matrix(1,0,0,1,85,415) translate(180.55308641975273 125.68888888888864)"/><use xlink:href="#l" transform="matrix(1,0,0,1,85,415) translate(0 152.62222222222192)"/><use xlink:href="#r" transform="matrix(1,0,0,1,85,415) translate(12.469135802469111 152.62222222222192)"/><use xlink:href="#s" transform="matrix(1,0,0,1,85,415) translate(62.345679012345556 152.62222222222192)"/><use xlink:href="#t" transform="matrix(1,0,0,1,85,415) translate(108.35679012345658 152.62222222222192)"/><use xlink:href="#u" transform="matrix(1,0,0,1,85,415) translate(120.82592592592569 152.62222222222192)"/><use xlink:href="#l" transform="matrix(1,0,0,1,85,415) translate(0 179.5555555555552)"/><use xlink:href="#v" transform="matrix(1,0,0,1,85,415) translate(12.469135802469111 179.5555555555552)"/><use xlink:href="#w" transform="matrix(1,0,0,1,85,415) translate(0 205.59999999999962)"/><path d="M360 506a6 6 0 0 1 6-6h128a6 6 0 0 1 6 6v28a6 6 0 0 1-6 6H366a6 6 0 0 1-6-6z" stroke="#000" stroke-opacity="0" stroke-width="3" fill="#fff" fill-opacity="0"/><g><use xlink:href="#x" transform="matrix(1,0,0,1,365,505) translate(0 18.15)"/><use xlink:href="#y" transform="matrix(1,0,0,1,365,505) translate(57.95 18.15)"/></g><path d="M501 520h60.5" stroke="#7b7d68" stroke-width="2" fill="none"/><path d="M501.03 521H500v-2h1.03z" stroke="#7b7d68" stroke-width=".05" fill="#7b7d68"/><path d="M576.76 520l-14.26 4.63v-9.26z" stroke="#7b7d68" stroke-width="2" fill="#7b7d68"/><path d="M360 566a6 6 0 0 1 6-6h128a6 6 0 0 1 6 6v28a6 6 0 0 1-6 6H366a6 6 0 0 1-6-6z" stroke="#000" stroke-opacity="0" stroke-width="3" fill="#fff" fill-opacity="0"/><g><use xlink:href="#x" transform="matrix(1,0,0,1,365,565) translate(0 18.15)"/><use xlink:href="#z" transform="matrix(1,0,0,1,365,565) translate(57.95 18.15)"/></g><path d="M501 580h60.5" stroke="#7b7d68" stroke-width="2" fill="none"/><path d="M501.03 581H500v-2h1.03z" stroke="#7b7d68" stroke-width=".05" fill="#7b7d68"/><path d="M576.76 580l-14.26 4.63v-9.26z" stroke="#7b7d68" stroke-width="2" fill="#7b7d68"/><path d="M980 506a6 6 0 0 1 6-6h128a6 6 0 0 1 6 6v28a6 6 0 0 1-6 6H986a6 6 0 0 1-6-6z" stroke="#000" stroke-opacity="0" stroke-width="3" fill="#fff" fill-opacity="0"/><g><use xlink:href="#A" transform="matrix(1,0,0,1,985,505) translate(0 18.15)"/></g><path d="M979 520h-60.5" stroke="#7b7d68" stroke-width="2" fill="none"/><path d="M980 521h-1.03v-2H980z" stroke="#7b7d68" stroke-width=".05" fill="#7b7d68"/><path d="M903.24 520l14.26-4.63v9.26z" stroke="#7b7d68" stroke-width="2" fill="#7b7d68"/><defs><path fill="#fff" d="M212-179c-10-28-35-45-73-45-59 0-87 40-87 99 0 60 29 101 89 101 43 0 62-24 78-52l27 14C228-24 195 4 139 4 59 4 22-46 18-125c-6-104 99-153 187-111 19 9 31 26 39 46" id="B"/><path fill="#fff" d="M100-194c62-1 85 37 85 99 1 63-27 99-86 99S16-35 15-95c0-66 28-99 85-99zM99-20c44 1 53-31 53-75 0-43-8-75-51-75s-53 32-53 75 10 74 51 75" id="C"/><path fill="#fff" d="M117-194c89-4 53 116 60 194h-32v-121c0-31-8-49-39-48C34-167 62-67 57 0H25l-1-190h30c1 10-1 24 2 32 11-22 29-35 61-36" id="D"/><path fill="#fff" d="M101-234c-31-9-42 10-38 44h38v23H63V0H32v-167H5v-23h27c-7-52 17-82 69-68v24" id="E"/><path fill="#fff" d="M24-231v-30h32v30H24zM24 0v-190h32V0H24" id="F"/><path fill="#fff" d="M177-190C167-65 218 103 67 71c-23-6-38-20-44-43l32-5c15 47 100 32 89-28v-30C133-14 115 1 83 1 29 1 15-40 15-95c0-56 16-97 71-98 29-1 48 16 59 35 1-10 0-23 2-32h30zM94-22c36 0 50-32 50-73 0-42-14-75-50-75-39 0-46 34-46 75s6 73 46 73" id="G"/><g id="a"><use transform="matrix(0.05,0,0,0.05,0,0)" xlink:href="#B"/><use transform="matrix(0.05,0,0,0.05,12.950000000000001,0)" xlink:href="#C"/><use transform="matrix(0.05,0,0,0.05,22.950000000000003,0)" xlink:href="#D"/><use transform="matrix(0.05,0,0,0.05,32.95,0)" xlink:href="#E"/><use transform="matrix(0.05,0,0,0.05,37.95,0)" xlink:href="#F"/><use transform="matrix(0.05,0,0,0.05,41.900000000000006,0)" xlink:href="#G"/></g><path fill="#fff" d="M135-143c-3-34-86-38-87 0 15 53 115 12 119 90S17 21 10-45l28-5c4 36 97 45 98 0-10-56-113-15-118-90-4-57 82-63 122-42 12 7 21 19 24 35" id="H"/><path fill="#fff" d="M100-194c63 0 86 42 84 106H49c0 40 14 67 53 68 26 1 43-12 49-29l28 8c-11 28-37 45-77 45C44 4 14-33 15-96c1-61 26-98 85-98zm52 81c6-60-76-77-97-28-3 7-6 17-6 28h103" id="I"/><path fill="#fff" d="M114-163C36-179 61-72 57 0H25l-1-190h30c1 12-1 29 2 39 6-27 23-49 58-41v29" id="J"/><path fill="#fff" d="M108 0H70L1-190h34L89-25l56-165h34" id="K"/><g id="b"><use transform="matrix(0.05,0,0,0.05,0,0)" xlink:href="#H"/><use transform="matrix(0.05,0,0,0.05,9,0)" xlink:href="#I"/><use transform="matrix(0.05,0,0,0.05,19,0)" xlink:href="#J"/><use transform="matrix(0.05,0,0,0.05,24.95,0)" xlink:href="#K"/><use transform="matrix(0.05,0,0,0.05,33.95,0)" xlink:href="#I"/><use transform="matrix(0.05,0,0,0.05,43.95,0)" xlink:href="#J"/></g><path fill="#fff" d="M85-194c31 0 48 13 60 33l-1-100h32l1 261h-30c-2-10 0-23-3-31C134-8 116 4 85 4 32 4 16-35 15-94c0-66 23-100 70-100zm9 24c-40 0-46 34-46 75 0 40 6 74 45 74 42 0 51-32 51-76 0-42-9-74-50-73" id="L"/><g id="c"><use transform="matrix(0.05,0,0,0.05,0,0)" xlink:href="#D"/><use transform="matrix(0.05,0,0,0.05,10,0)" xlink:href="#C"/><use transform="matrix(0.05,0,0,0.05,20,0)" xlink:href="#L"/><use transform="matrix(0.05,0,0,0.05,30,0)" xlink:href="#I"/></g><path fill="#2e2f27" d="M169-182c-1-43-94-46-97-3 18 66 151 10 154 114 3 95-165 93-204 36-6-8-10-19-12-30l50-8c3 46 112 56 116 5-17-69-150-10-154-114-4-87 153-88 188-35 5 8 8 18 10 28" id="M"/><path fill="#2e2f27" d="M123 10C108 53 80 86 19 72V37c35 8 53-11 59-39L3-190h52l48 148c12-52 28-100 44-148h51" id="N"/><path fill="#2e2f27" d="M137-138c1-29-70-34-71-4 15 46 118 7 119 86 1 83-164 76-172 9l43-7c4 19 20 25 44 25 33 8 57-30 24-41C81-84 22-81 20-136c-2-80 154-74 161-7" id="O"/><path fill="#2e2f27" d="M115-3C79 11 28 4 28-45v-112H4v-33h27l15-45h31v45h36v33H77v99c-1 23 16 31 38 25v30" id="P"/><path fill="#2e2f27" d="M185-48c-13 30-37 53-82 52C43 2 14-33 14-96s30-98 90-98c62 0 83 45 84 108H66c0 31 8 55 39 56 18 0 30-7 34-22zm-45-69c5-46-57-63-70-21-2 6-4 13-4 21h74" id="Q"/><path fill="#2e2f27" d="M220-157c-53 9-28 100-34 157h-49v-107c1-27-5-49-29-50C55-147 81-57 75 0H25l-1-190h47c2 12-1 28 3 38 10-53 101-56 108 0 13-22 24-43 59-42 82 1 51 116 57 194h-49v-107c-1-25-5-48-29-50" id="R"/><g id="d"><use transform="matrix(0.05,0,0,0.05,0,0)" xlink:href="#M"/><use transform="matrix(0.05,0,0,0.05,12,0)" xlink:href="#N"/><use transform="matrix(0.05,0,0,0.05,22,0)" xlink:href="#O"/><use transform="matrix(0.05,0,0,0.05,32,0)" xlink:href="#P"/><use transform="matrix(0.05,0,0,0.05,37.95,0)" xlink:href="#Q"/><use transform="matrix(0.05,0,0,0.05,47.95,0)" xlink:href="#R"/></g><path fill="#2e2f27" d="M110-194c64 0 96 36 96 99 0 64-35 99-97 99-61 0-95-36-95-99 0-62 34-99 96-99zm-1 164c35 0 45-28 45-65 0-40-10-65-43-65-34 0-45 26-45 65 0 36 10 65 43 65" id="S"/><path fill="#2e2f27" d="M88-194c31-1 46 15 58 34l-1-101h50l1 261h-48c-2-10 0-23-3-31C134-8 116 4 84 4 32 4 16-41 15-95c0-56 19-97 73-99zm17 164c33 0 40-30 41-66 1-37-9-64-41-64s-38 30-39 65c0 43 13 65 39 65" id="T"/><path fill="#2e2f27" d="M25 0v-261h50V0H25" id="U"/><g id="e"><use transform="matrix(0.05,0,0,0.05,0,0)" xlink:href="#R"/><use transform="matrix(0.05,0,0,0.05,16,0)" xlink:href="#S"/><use transform="matrix(0.05,0,0,0.05,26.950000000000003,0)" xlink:href="#T"/><use transform="matrix(0.05,0,0,0.05,37.900000000000006,0)" xlink:href="#Q"/><use transform="matrix(0.05,0,0,0.05,47.900000000000006,0)" xlink:href="#U"/></g><path fill="#2e2f27" d="M67-93c0 74 22 123 53 168H70C40 30 18-18 18-93s22-123 52-168h50c-32 44-53 94-53 168" id="V"/><path fill="#2e2f27" d="M176-78C186 10 51 31 16-35c-5-9-9-19-11-32l52-8c4 21 12 37 35 38 23 0 32-16 32-40v-130H75v-41h101v170" id="W"/><path fill="#2e2f27" d="M133-34C117-15 103 5 69 4 32 3 11-16 11-54c-1-60 55-63 116-61 1-26-3-47-28-47-18 1-26 9-28 27l-52-2c7-38 36-58 82-57s74 22 75 68l1 82c-1 14 12 18 25 15v27c-30 8-71 5-69-32zm-48 3c29 0 43-24 42-57-32 0-66-3-65 30 0 17 8 27 23 27" id="X"/><path fill="#2e2f27" d="M128 0H69L1-190h53L99-40l48-150h52" id="Y"/><g id="f"><use transform="matrix(0.05,0,0,0.05,0,0)" xlink:href="#V"/><use transform="matrix(0.05,0,0,0.05,5.95,0)" xlink:href="#W"/><use transform="matrix(0.05,0,0,0.05,15.949999999999998,0)" xlink:href="#X"/><use transform="matrix(0.05,0,0,0.05,25.950000000000003,0)" xlink:href="#Y"/><use transform="matrix(0.05,0,0,0.05,35.95,0)" xlink:href="#X"/></g><path fill="#2e2f27" d="M135-194c52 0 70 43 70 98 0 56-19 99-73 100-30 1-46-15-58-35L72 0H24l1-261h50v104c11-23 29-37 60-37zM114-30c31 0 40-27 40-66 0-37-7-63-39-63s-41 28-41 65c0 36 8 64 40 64" id="Z"/><path fill="#2e2f27" d="M25-224v-37h50v37H25zM75 22c2 45-34 59-81 51V38c22 5 31-5 31-27v-201h50V22" id="aa"/><path fill="#2e2f27" d="M190-63c-7 42-38 67-86 67-59 0-84-38-90-98-12-110 154-137 174-36l-49 2c-2-19-15-32-35-32-30 0-35 28-38 64-6 74 65 87 74 30" id="ab"/><g id="g"><use transform="matrix(0.05,0,0,0.05,0,0)" xlink:href="#S"/><use transform="matrix(0.05,0,0,0.05,10.950000000000001,0)" xlink:href="#Z"/><use transform="matrix(0.05,0,0,0.05,21.900000000000002,0)" xlink:href="#aa"/><use transform="matrix(0.05,0,0,0.05,26.900000000000002,0)" xlink:href="#Q"/><use transform="matrix(0.05,0,0,0.05,36.900000000000006,0)" xlink:href="#ab"/><use transform="matrix(0.05,0,0,0.05,46.900000000000006,0)" xlink:href="#P"/></g><path fill="#2e2f27" d="M102-93c0 74-22 123-52 168H0C30 29 54-18 53-93c0-74-22-123-53-168h50c30 45 52 94 52 168" id="ac"/><g id="h"><use transform="matrix(0.05,0,0,0.05,0,0)" xlink:href="#R"/><use transform="matrix(0.05,0,0,0.05,16,0)" xlink:href="#S"/><use transform="matrix(0.05,0,0,0.05,26.950000000000003,0)" xlink:href="#T"/><use transform="matrix(0.05,0,0,0.05,37.900000000000006,0)" xlink:href="#Q"/><use transform="matrix(0.05,0,0,0.05,47.900000000000006,0)" xlink:href="#U"/><use transform="matrix(0.05,0,0,0.05,52.900000000000006,0)" xlink:href="#ac"/></g><path fill="#2e2f27" d="M199 0l-22-63H83L61 0H9l90-248h61L250 0h-51zm-33-102l-36-108c-10 38-24 72-36 108h72" id="ad"/><path fill="#2e2f27" d="M135-194c53 0 70 44 70 98 0 56-19 98-73 100-31 1-45-17-59-34 3 33 2 69 2 105H25l-1-265h48c2 10 0 23 3 31 11-24 29-35 60-35zM114-30c33 0 39-31 40-66 0-38-9-64-40-64-56 0-55 130 0 130" id="ae"/><path fill="#2e2f27" d="M25-224v-37h50v37H25zM25 0v-190h50V0H25" id="af"/><path fill="#2e2f27" d="M135-194c87-1 58 113 63 194h-50c-7-57 23-157-34-157-59 0-34 97-39 157H25l-1-190h47c2 12-1 28 3 38 12-26 28-41 61-42" id="ag"/><g id="i"><use transform="matrix(0.062345679012345556,0,0,0.062345679012345556,0,0)" xlink:href="#ad"/><use transform="matrix(0.062345679012345556,0,0,0.062345679012345556,16.1475308641975,0)" xlink:href="#ae"/><use transform="matrix(0.062345679012345556,0,0,0.062345679012345556,29.801234567901176,0)" xlink:href="#ae"/><use transform="matrix(0.062345679012345556,0,0,0.062345679012345556,43.45493827160485,0)" xlink:href="#U"/><use transform="matrix(0.062345679012345556,0,0,0.062345679012345556,49.68950617283941,0)" xlink:href="#af"/><use transform="matrix(0.062345679012345556,0,0,0.062345679012345556,55.924074074073964,0)" xlink:href="#ab"/><use transform="matrix(0.062345679012345556,0,0,0.062345679012345556,68.39320987654307,0)" xlink:href="#X"/><use transform="matrix(0.062345679012345556,0,0,0.062345679012345556,80.86234567901218,0)" xlink:href="#P"/><use transform="matrix(0.062345679012345556,0,0,0.062345679012345556,88.28148148148131,0)" xlink:href="#af"/><use transform="matrix(0.062345679012345556,0,0,0.062345679012345556,94.51604938271586,0)" xlink:href="#S"/><use transform="matrix(0.062345679012345556,0,0,0.062345679012345556,108.16975308641955,0)" xlink:href="#ag"/></g><path fill="#2e2f27" d="M147 0L96-86 75-71V0H25v-261h50v150l67-79h53l-66 74L201 0h-54" id="ah"/><path fill="#2e2f27" d="M195-6C206 82 75 100 31 46c-4-6-6-13-8-21l49-6c3 16 16 24 34 25 40 0 42-37 40-79-11 22-30 35-61 35-53 0-70-43-70-97 0-56 18-96 73-97 30 0 46 14 59 34l2-30h47zm-90-29c32 0 41-27 41-63 0-35-9-62-40-62-32 0-39 29-40 63 0 36 9 62 39 62" id="ai"/><g id="j"><use transform="matrix(0.062345679012345556,0,0,0.062345679012345556,0,0)" xlink:href="#ae"/><use transform="matrix(0.062345679012345556,0,0,0.062345679012345556,13.653703703703677,0)" xlink:href="#X"/><use transform="matrix(0.062345679012345556,0,0,0.062345679012345556,26.122839506172788,0)" xlink:href="#ab"/><use transform="matrix(0.062345679012345556,0,0,0.062345679012345556,38.5919753086419,0)" xlink:href="#ah"/><use transform="matrix(0.062345679012345556,0,0,0.062345679012345556,51.06111111111101,0)" xlink:href="#X"/><use transform="matrix(0.062345679012345556,0,0,0.062345679012345556,63.53024691358012,0)" xlink:href="#ai"/><use transform="matrix(0.062345679012345556,0,0,0.062345679012345556,77.1839506172838,0)" xlink:href="#Q"/></g><path fill="#2e2f27" d="M135-143c-3-34-86-38-87 0 15 53 115 12 119 90S17 21 10-45l28-5c4 36 97 45 98 0-10-56-113-15-118-90-4-57 82-63 122-42 12 7 21 19 24 35" id="aj"/><path fill="#2e2f27" d="M100-194c63 0 86 42 84 106H49c0 40 14 67 53 68 26 1 43-12 49-29l28 8c-11 28-37 45-77 45C44 4 14-33 15-96c1-61 26-98 85-98zm52 81c6-60-76-77-97-28-3 7-6 17-6 28h103" id="ak"/><path fill="#2e2f27" d="M114-163C36-179 61-72 57 0H25l-1-190h30c1 12-1 29 2 39 6-27 23-49 58-41v29" id="al"/><path fill="#2e2f27" d="M108 0H70L1-190h34L89-25l56-165h34" id="am"/><path fill="#2e2f27" d="M24-231v-30h32v30H24zM24 0v-190h32V0H24" id="an"/><path fill="#2e2f27" d="M96-169c-40 0-48 33-48 73s9 75 48 75c24 0 41-14 43-38l32 2c-6 37-31 61-74 61-59 0-76-41-82-99-10-93 101-131 147-64 4 7 5 14 7 22l-32 3c-4-21-16-35-41-35" id="ao"/><path fill="#2e2f27" d="M33 0v-38h34V0H33" id="ap"/><path fill="#2e2f27" d="M141 0L90-78 38 0H4l68-98-65-92h35l48 74 47-74h35l-64 92 68 98h-35" id="aq"/><path fill="#2e2f27" d="M210-169c-67 3-38 105-44 169h-31v-121c0-29-5-50-35-48C34-165 62-65 56 0H25l-1-190h30c1 10-1 24 2 32 10-44 99-50 107 0 11-21 27-35 58-36 85-2 47 119 55 194h-31v-121c0-29-5-49-35-48" id="ar"/><path fill="#2e2f27" d="M24 0v-261h32V0H24" id="as"/><g id="m"><use transform="matrix(0.062345679012345556,0,0,0.062345679012345556,0,0)" xlink:href="#aj"/><use transform="matrix(0.062345679012345556,0,0,0.062345679012345556,11.2222222222222,0)" xlink:href="#ak"/><use transform="matrix(0.062345679012345556,0,0,0.062345679012345556,23.69135802469131,0)" xlink:href="#al"/><use transform="matrix(0.062345679012345556,0,0,0.062345679012345556,31.110493827160433,0)" xlink:href="#am"/><use transform="matrix(0.062345679012345556,0,0,0.062345679012345556,42.33271604938263,0)" xlink:href="#an"/><use transform="matrix(0.062345679012345556,0,0,0.062345679012345556,47.25802469135793,0)" xlink:href="#ao"/><use transform="matrix(0.062345679012345556,0,0,0.062345679012345556,58.48024691358013,0)" xlink:href="#ak"/><use transform="matrix(0.062345679012345556,0,0,0.062345679012345556,70.94938271604924,0)" xlink:href="#aj"/><use transform="matrix(0.062345679012345556,0,0,0.062345679012345556,82.17160493827144,0)" xlink:href="#ap"/><use transform="matrix(0.062345679012345556,0,0,0.062345679012345556,88.406172839506,0)" xlink:href="#aq"/><use transform="matrix(0.062345679012345556,0,0,0.062345679012345556,99.6283950617282,0)" xlink:href="#ar"/><use transform="matrix(0.062345679012345556,0,0,0.062345679012345556,118.26975308641951,0)" xlink:href="#as"/></g><path fill="#2e2f27" d="M106-169C34-169 62-67 57 0H25v-261h32l-1 103c12-21 28-36 61-36 89 0 53 116 60 194h-32v-121c2-32-8-49-39-48" id="at"/><path fill="#2e2f27" d="M100-194c62-1 85 37 85 99 1 63-27 99-86 99S16-35 15-95c0-66 28-99 85-99zM99-20c44 1 53-31 53-75 0-43-8-75-51-75s-53 32-53 75 10 74 51 75" id="au"/><path fill="#2e2f27" d="M59-47c-2 24 18 29 38 22v24C64 9 27 4 27-40v-127H5v-23h24l9-43h21v43h35v23H59v120" id="av"/><g id="n"><use transform="matrix(0.062345679012345556,0,0,0.062345679012345556,0,0)" xlink:href="#at"/><use transform="matrix(0.062345679012345556,0,0,0.062345679012345556,12.469135802469111,0)" xlink:href="#au"/><use transform="matrix(0.062345679012345556,0,0,0.062345679012345556,24.938271604938222,0)" xlink:href="#aj"/><use transform="matrix(0.062345679012345556,0,0,0.062345679012345556,36.16049382716042,0)" xlink:href="#av"/><use transform="matrix(0.062345679012345556,0,0,0.062345679012345556,42.39506172839498,0)" xlink:href="#aj"/><use transform="matrix(0.062345679012345556,0,0,0.062345679012345556,53.61728395061718,0)" xlink:href="#ap"/><use transform="matrix(0.062345679012345556,0,0,0.062345679012345556,59.851851851851734,0)" xlink:href="#aq"/><use transform="matrix(0.062345679012345556,0,0,0.062345679012345556,71.07407407407393,0)" xlink:href="#ar"/><use transform="matrix(0.062345679012345556,0,0,0.062345679012345556,89.71543209876526,0)" xlink:href="#as"/></g><path fill="#2e2f27" d="M141-36C126-15 110 5 73 4 37 3 15-17 15-53c-1-64 63-63 125-63 3-35-9-54-41-54-24 1-41 7-42 31l-33-3c5-37 33-52 76-52 45 0 72 20 72 64v82c-1 20 7 32 28 27v20c-31 9-61-2-59-35zM48-53c0 20 12 33 32 33 41-3 63-29 60-74-43 2-92-5-92 41" id="aw"/><path fill="#2e2f27" d="M85-194c31 0 48 13 60 33l-1-100h32l1 261h-30c-2-10 0-23-3-31C134-8 116 4 85 4 32 4 16-35 15-94c0-66 23-100 70-100zm9 24c-40 0-46 34-46 75 0 40 6 74 45 74 42 0 51-32 51-76 0-42-9-74-50-73" id="ax"/><path fill="#2e2f27" d="M117-194c89-4 53 116 60 194h-32v-121c0-31-8-49-39-48C34-167 62-67 57 0H25l-1-190h30c1 10-1 24 2 32 11-22 29-35 61-36" id="ay"/><g id="o"><use transform="matrix(0.062345679012345556,0,0,0.062345679012345556,0,0)" xlink:href="#aw"/><use transform="matrix(0.062345679012345556,0,0,0.062345679012345556,12.469135802469111,0)" xlink:href="#ax"/><use transform="matrix(0.062345679012345556,0,0,0.062345679012345556,24.938271604938222,0)" xlink:href="#ax"/><use transform="matrix(0.062345679012345556,0,0,0.062345679012345556,37.407407407407334,0)" xlink:href="#an"/><use transform="matrix(0.062345679012345556,0,0,0.062345679012345556,42.33271604938263,0)" xlink:href="#av"/><use transform="matrix(0.062345679012345556,0,0,0.062345679012345556,48.56728395061719,0)" xlink:href="#an"/><use transform="matrix(0.062345679012345556,0,0,0.062345679012345556,53.49259259259249,0)" xlink:href="#au"/><use transform="matrix(0.062345679012345556,0,0,0.062345679012345556,65.9617283950616,0)" xlink:href="#ay"/><use transform="matrix(0.062345679012345556,0,0,0.062345679012345556,78.43086419753071,0)" xlink:href="#aw"/><use transform="matrix(0.062345679012345556,0,0,0.062345679012345556,90.89999999999982,0)" xlink:href="#as"/></g><path fill="#2e2f27" d="M101-234c-31-9-42 10-38 44h38v23H63V0H32v-167H5v-23h27c-7-52 17-82 69-68v24" id="az"/><path fill="#2e2f27" d="M177-190C167-65 218 103 67 71c-23-6-38-20-44-43l32-5c15 47 100 32 89-28v-30C133-14 115 1 83 1 29 1 15-40 15-95c0-56 16-97 71-98 29-1 48 16 59 35 1-10 0-23 2-32h30zM94-22c36 0 50-32 50-73 0-42-14-75-50-75-39 0-46 34-46 75s6 73 46 73" id="aA"/><g id="p"><use transform="matrix(0.062345679012345556,0,0,0.062345679012345556,0,0)" xlink:href="#ao"/><use transform="matrix(0.062345679012345556,0,0,0.062345679012345556,11.2222222222222,0)" xlink:href="#au"/><use transform="matrix(0.062345679012345556,0,0,0.062345679012345556,23.69135802469131,0)" xlink:href="#ay"/><use transform="matrix(0.062345679012345556,0,0,0.062345679012345556,36.16049382716042,0)" xlink:href="#az"/><use transform="matrix(0.062345679012345556,0,0,0.062345679012345556,42.39506172839498,0)" xlink:href="#an"/><use transform="matrix(0.062345679012345556,0,0,0.062345679012345556,47.32037037037028,0)" xlink:href="#aA"/></g><g id="q"><use transform="matrix(0.062345679012345556,0,0,0.062345679012345556,0,0)" xlink:href="#az"/><use transform="matrix(0.062345679012345556,0,0,0.062345679012345556,6.234567901234556,0)" xlink:href="#an"/><use transform="matrix(0.062345679012345556,0,0,0.062345679012345556,11.159876543209855,0)" xlink:href="#as"/><use transform="matrix(0.062345679012345556,0,0,0.062345679012345556,16.085185185185154,0)" xlink:href="#ak"/><use transform="matrix(0.062345679012345556,0,0,0.062345679012345556,28.554320987654265,0)" xlink:href="#aj"/></g><g id="r"><use transform="matrix(0.062345679012345556,0,0,0.062345679012345556,0,0)" xlink:href="#ax"/><use transform="matrix(0.062345679012345556,0,0,0.062345679012345556,12.469135802469111,0)" xlink:href="#aw"/><use transform="matrix(0.062345679012345556,0,0,0.062345679012345556,24.938271604938222,0)" xlink:href="#av"/><use transform="matrix(0.062345679012345556,0,0,0.062345679012345556,31.172839506172778,0)" xlink:href="#aw"/></g><g id="s"><use transform="matrix(0.062345679012345556,0,0,0.062345679012345556,0,0)" xlink:href="#az"/><use transform="matrix(0.062345679012345556,0,0,0.062345679012345556,6.234567901234556,0)" xlink:href="#an"/><use transform="matrix(0.062345679012345556,0,0,0.062345679012345556,11.159876543209855,0)" xlink:href="#as"/><use transform="matrix(0.062345679012345556,0,0,0.062345679012345556,16.085185185185154,0)" xlink:href="#ak"/><use transform="matrix(0.062345679012345556,0,0,0.062345679012345556,28.554320987654265,0)" xlink:href="#aj"/></g><path fill="#2e2f27" d="M0 4l72-265h28L28 4H0" id="aB"/><use transform="matrix(0.062345679012345556,0,0,0.062345679012345556,0,0)" xlink:href="#aB" id="t"/><g id="u"><use transform="matrix(0.062345679012345556,0,0,0.062345679012345556,0,0)" xlink:href="#al"/><use transform="matrix(0.062345679012345556,0,0,0.062345679012345556,7.419135802469121,0)" xlink:href="#ak"/><use transform="matrix(0.062345679012345556,0,0,0.062345679012345556,19.888271604938232,0)" xlink:href="#az"/><use transform="matrix(0.062345679012345556,0,0,0.062345679012345556,26.122839506172788,0)" xlink:href="#ak"/><use transform="matrix(0.062345679012345556,0,0,0.062345679012345556,38.5919753086419,0)" xlink:href="#al"/><use transform="matrix(0.062345679012345556,0,0,0.062345679012345556,46.01111111111102,0)" xlink:href="#ak"/><use transform="matrix(0.062345679012345556,0,0,0.062345679012345556,58.48024691358013,0)" xlink:href="#ay"/><use transform="matrix(0.062345679012345556,0,0,0.062345679012345556,70.94938271604924,0)" xlink:href="#ao"/><use transform="matrix(0.062345679012345556,0,0,0.062345679012345556,82.17160493827144,0)" xlink:href="#ak"/><use transform="matrix(0.062345679012345556,0,0,0.062345679012345556,94.64074074074055,0)" xlink:href="#aj"/></g><g id="v"><use transform="matrix(0.062345679012345556,0,0,0.062345679012345556,0,0)" xlink:href="#ar"/><use transform="matrix(0.062345679012345556,0,0,0.062345679012345556,18.64135802469132,0)" xlink:href="#au"/><use transform="matrix(0.062345679012345556,0,0,0.062345679012345556,31.110493827160433,0)" xlink:href="#ax"/><use transform="matrix(0.062345679012345556,0,0,0.062345679012345556,43.579629629629544,0)" xlink:href="#ak"/><use transform="matrix(0.062345679012345556,0,0,0.062345679012345556,56.048765432098655,0)" xlink:href="#as"/><use transform="matrix(0.062345679012345556,0,0,0.062345679012345556,60.974074074073954,0)" xlink:href="#aj"/></g><path fill="#2e2f27" d="M115-194c55 1 70 41 70 98S169 2 115 4C84 4 66-9 55-30l1 105H24l-1-265h31l2 30c10-21 28-34 59-34zm-8 174c40 0 45-34 45-75s-6-73-45-74c-42 0-51 32-51 76 0 43 10 73 51 73" id="aC"/><path fill="#2e2f27" d="M179-190L93 31C79 59 56 82 12 73V49c39 6 53-20 64-50L1-190h34L92-34l54-156h33" id="aD"/><g id="x"><use transform="matrix(0.05,0,0,0.05,0,0)" xlink:href="#ax"/><use transform="matrix(0.05,0,0,0.05,10,0)" xlink:href="#ak"/><use transform="matrix(0.05,0,0,0.05,20,0)" xlink:href="#aC"/><use transform="matrix(0.05,0,0,0.05,30,0)" xlink:href="#as"/><use transform="matrix(0.05,0,0,0.05,33.95,0)" xlink:href="#au"/><use transform="matrix(0.05,0,0,0.05,43.95,0)" xlink:href="#aD"/></g><g id="y"><use transform="matrix(0.05,0,0,0.05,0,0)" xlink:href="#aC"/><use transform="matrix(0.05,0,0,0.05,10,0)" xlink:href="#al"/><use transform="matrix(0.05,0,0,0.05,15.949999999999998,0)" xlink:href="#ak"/><use transform="matrix(0.05,0,0,0.05,25.950000000000003,0)" xlink:href="#aC"/><use transform="matrix(0.05,0,0,0.05,35.95,0)" xlink:href="#aw"/><use transform="matrix(0.05,0,0,0.05,45.95,0)" xlink:href="#al"/><use transform="matrix(0.05,0,0,0.05,51.900000000000006,0)" xlink:href="#ak"/></g><g id="z"><use transform="matrix(0.05,0,0,0.05,0,0)" xlink:href="#aw"/><use transform="matrix(0.05,0,0,0.05,10,0)" xlink:href="#ao"/><use transform="matrix(0.05,0,0,0.05,19,0)" xlink:href="#av"/><use transform="matrix(0.05,0,0,0.05,24,0)" xlink:href="#an"/><use transform="matrix(0.05,0,0,0.05,27.950000000000003,0)" xlink:href="#am"/><use transform="matrix(0.05,0,0,0.05,36.95,0)" xlink:href="#aw"/><use transform="matrix(0.05,0,0,0.05,46.95,0)" xlink:href="#av"/><use transform="matrix(0.05,0,0,0.05,51.95,0)" xlink:href="#ak"/></g><path fill="#2e2f27" d="M84 4C-5 8 30-112 23-190h32v120c0 31 7 50 39 49 72-2 45-101 50-169h31l1 190h-30c-1-10 1-25-2-33-11 22-28 36-60 37" id="aE"/><path fill="#2e2f27" d="M115-194c53 0 69 39 70 98 0 66-23 100-70 100C84 3 66-7 56-30L54 0H23l1-261h32v101c10-23 28-34 59-34zm-8 174c40 0 45-34 45-75 0-40-5-75-45-74-42 0-51 32-51 76 0 43 10 73 51 73" id="aF"/><g id="A"><use transform="matrix(0.05,0,0,0.05,0,0)" xlink:href="#aj"/><use transform="matrix(0.05,0,0,0.05,9,0)" xlink:href="#aE"/><use transform="matrix(0.05,0,0,0.05,19,0)" xlink:href="#aF"/><use transform="matrix(0.05,0,0,0.05,29,0)" xlink:href="#aj"/><use transform="matrix(0.05,0,0,0.05,38,0)" xlink:href="#ao"/><use transform="matrix(0.05,0,0,0.05,47,0)" xlink:href="#al"/><use transform="matrix(0.05,0,0,0.05,52.95,0)" xlink:href="#an"/><use transform="matrix(0.05,0,0,0.05,56.900000000000006,0)" xlink:href="#aF"/><use transform="matrix(0.05,0,0,0.05,66.9,0)" xlink:href="#ak"/></g></defs></g></svg>