<svg xmlns="http://www.w3.org/2000/svg" xmlns:xlink="http://www.w3.org/1999/xlink" xmlns:lucid="lucid" width="922.5" height="1342.5"><g transform="translate(-219 1.5)" lucid:page-tab-id="0_0"><path d="M0 0h1870.87v1322.84H0z" fill="#fff"/><path d="M440 26a6 6 0 0 1 6-6h128a6 6 0 0 1 6 6v548a6 6 0 0 1-6 6H446a6 6 0 0 1-6-6z" stroke="#1b6a3a" stroke-width="2" fill="#fff"/><use xlink:href="#a" transform="matrix(1,0,0,1,445,25) translate(0 14.4)"/><use xlink:href="#b" transform="matrix(1,0,0,1,445,25) translate(51.900000000000006 14.4)"/><use xlink:href="#c" transform="matrix(1,0,0,1,445,25) translate(99.75 14.4)"/><path d="M640 26a6 6 0 0 1 6-6h128a6 6 0 0 1 6 6v548a6 6 0 0 1-6 6H646a6 6 0 0 1-6-6z" stroke="#1b6a3a" stroke-width="2" fill="#fff"/><use xlink:href="#d" transform="matrix(1,0,0,1,645,25) translate(0 14.4)"/><use xlink:href="#e" transform="matrix(1,0,0,1,645,25) translate(47.85 14.4)"/><path d="M240 26a6 6 0 0 1 6-6h128a6 6 0 0 1 6 6v548a6 6 0 0 1-6 6H246a6 6 0 0 1-6-6z" stroke="#1b6a3a" stroke-width="2" fill="#fff"/><use xlink:href="#d" transform="matrix(1,0,0,1,245,25) translate(0 14.4)"/><use xlink:href="#f" transform="matrix(1,0,0,1,245,25) translate(47.85 14.4)"/><path d="M280 166a6 6 0 0 1 6-6h48a6 6 0 0 1 6 6v48a6 6 0 0 1-6 6h-48a6 6 0 0 1-6-6z" fill="#d4d0e7"/><path d="M302 160h16m8 0h8l.94.07.9.22.88.35.8.5.72.6.6.72.5.8.37.88.23.9.07.95v8m0 8v16m0 8v8l-.07.94-.22.9-.35.88-.5.8-.6.72-.72.6-.8.5-.88.37-.9.23-.95.07h-8m-8 0h-16m-8 0h-8l-.94-.07-.9-.22-.88-.35-.8-.5-.72-.6-.6-.72-.5-.8-.37-.88-.23-.9-.07-.95v-8m0-8v-16m0-8v-8l.07-.94.22-.9.35-.88.5-.8.6-.72.72-.6.8-.5.88-.37.9-.23.95-.07h8" stroke="#796bb3" stroke-width="2" fill="none"/><use xlink:href="#g" transform="matrix(1,0,0,1,285,165) translate(20 30.025)"/><path d="M280 86a6 6 0 0 1 6-6h48a6 6 0 0 1 6 6v48a6 6 0 0 1-6 6h-48a6 6 0 0 1-6-6z" stroke="#796bb3" stroke-width="2" fill="#d4d0e7"/><use xlink:href="#h" transform="matrix(1,0,0,1,285,85) translate(20 30.025)"/><path d="M280 246a6 6 0 0 1 6-6h48a6 6 0 0 1 6 6v48a6 6 0 0 1-6 6h-48a6 6 0 0 1-6-6z" stroke="#796bb3" stroke-width="2" fill="#d4d0e7"/><use xlink:href="#i" transform="matrix(1,0,0,1,285,245) translate(20 30.025)"/><path d="M280 326a6 6 0 0 1 6-6h48a6 6 0 0 1 6 6v48a6 6 0 0 1-6 6h-48a6 6 0 0 1-6-6z" fill="#d4d0e7"/><path d="M302 320h16m8 0h8l.94.07.9.22.88.35.8.5.72.6.6.72.5.8.37.88.23.9.07.95v8m0 8v16m0 8v8l-.07.94-.22.9-.35.88-.5.8-.6.72-.72.6-.8.5-.88.37-.9.23-.95.07h-8m-8 0h-16m-8 0h-8l-.94-.07-.9-.22-.88-.35-.8-.5-.72-.6-.6-.72-.5-.8-.37-.88-.23-.9-.07-.95v-8m0-8v-16m0-8v-8l.07-.94.22-.9.35-.88.5-.8.6-.72.72-.6.8-.5.88-.37.9-.23.95-.07h8" stroke="#796bb3" stroke-width="2" fill="none"/><use xlink:href="#j" transform="matrix(1,0,0,1,285,325) translate(20 30.025)"/><path d="M680 86a6 6 0 0 1 6-6h48a6 6 0 0 1 6 6v48a6 6 0 0 1-6 6h-48a6 6 0 0 1-6-6z" stroke="#796bb3" stroke-width="2" fill="#d4d0e7"/><use xlink:href="#k" transform="matrix(1,0,0,1,685,85) translate(20 30.025)"/><path d="M680 166a6 6 0 0 1 6-6h48a6 6 0 0 1 6 6v48a6 6 0 0 1-6 6h-48a6 6 0 0 1-6-6z" fill="#d4d0e7"/><path d="M702 160h16m8 0h8l.94.07.9.22.88.35.8.5.72.6.6.72.5.8.37.88.23.9.07.95v8m0 8v16m0 8v8l-.07.94-.22.9-.35.88-.5.8-.6.72-.72.6-.8.5-.88.37-.9.23-.95.07h-8m-8 0h-16m-8 0h-8l-.94-.07-.9-.22-.88-.35-.8-.5-.72-.6-.6-.72-.5-.8-.37-.88-.23-.9-.07-.95v-8m0-8v-16m0-8v-8l.07-.94.22-.9.35-.88.5-.8.6-.72.72-.6.8-.5.88-.37.9-.23.95-.07h8" stroke="#796bb3" stroke-width="2" fill="none"/><use xlink:href="#i" transform="matrix(1,0,0,1,685,165) translate(20 30.025)"/><path d="M680 326a6 6 0 0 1 6-6h48a6 6 0 0 1 6 6v48a6 6 0 0 1-6 6h-48a6 6 0 0 1-6-6z" fill="#d4d0e7"/><path d="M702 320h16m8 0h8l.94.07.9.22.88.35.8.5.72.6.6.72.5.8.37.88.23.9.07.95v8m0 8v16m0 8v8l-.07.94-.22.9-.35.88-.5.8-.6.72-.72.6-.8.5-.88.37-.9.23-.95.07h-8m-8 0h-16m-8 0h-8l-.94-.07-.9-.22-.88-.35-.8-.5-.72-.6-.6-.72-.5-.8-.37-.88-.23-.9-.07-.95v-8m0-8v-16m0-8v-8l.07-.94.22-.9.35-.88.5-.8.6-.72.72-.6.8-.5.88-.37.9-.23.95-.07h8" stroke="#796bb3" stroke-width="2" fill="none"/><use xlink:href="#l" transform="matrix(1,0,0,1,685,325) translate(20 30.025)"/><path d="M680 246a6 6 0 0 1 6-6h48a6 6 0 0 1 6 6v48a6 6 0 0 1-6 6h-48a6 6 0 0 1-6-6z" stroke="#796bb3" stroke-width="2" fill="#d4d0e7"/><use xlink:href="#j" transform="matrix(1,0,0,1,685,245) translate(20 30.025)"/><path d="M480 86a6 6 0 0 1 6-6h48a6 6 0 0 1 6 6v48a6 6 0 0 1-6 6h-48a6 6 0 0 1-6-6z" fill="#fff"/><path d="M502 80h16m8 0h8l.94.07.9.22.88.35.8.5.72.6.6.72.5.8.37.88.23.9.07.95v8m0 8v16m0 8v8l-.07.94-.22.9-.35.88-.5.8-.6.72-.72.6-.8.5-.88.37-.9.23-.95.07h-8m-8 0h-16m-8 0h-8l-.94-.07-.9-.22-.88-.35-.8-.5-.72-.6-.6-.72-.5-.8-.37-.88-.23-.9-.07-.95v-8m0-8v-16m0-8v-8l.07-.94.22-.9.35-.88.5-.8.6-.72.72-.6.8-.5.88-.37.9-.23.95-.07h8" stroke="#796bb3" stroke-width="2" fill="none"/><use xlink:href="#h" transform="matrix(1,0,0,1,485,85) translate(20 30.025)"/><path d="M480 166a6 6 0 0 1 6-6h48a6 6 0 0 1 6 6v48a6 6 0 0 1-6 6h-48a6 6 0 0 1-6-6z" fill="#fff"/><path d="M502 160h16m8 0h8l.94.07.9.22.88.35.8.5.72.6.6.72.5.8.37.88.23.9.07.95v8m0 8v16m0 8v8l-.07.94-.22.9-.35.88-.5.8-.6.72-.72.6-.8.5-.88.37-.9.23-.95.07h-8m-8 0h-16m-8 0h-8l-.94-.07-.9-.22-.88-.35-.8-.5-.72-.6-.6-.72-.5-.8-.37-.88-.23-.9-.07-.95v-8m0-8v-16m0-8v-8l.07-.94.22-.9.35-.88.5-.8.6-.72.72-.6.8-.5.88-.37.9-.23.95-.07h8" stroke="#796bb3" stroke-width="2" fill="none"/><use xlink:href="#g" transform="matrix(1,0,0,1,485,165) translate(20 30.025)"/><path d="M480 246a6 6 0 0 1 6-6h48a6 6 0 0 1 6 6v48a6 6 0 0 1-6 6h-48a6 6 0 0 1-6-6z" fill="#fff"/><path d="M502 240h16m8 0h8l.94.07.9.22.88.35.8.5.72.6.6.72.5.8.37.88.23.9.07.95v8m0 8v16m0 8v8l-.07.94-.22.9-.35.88-.5.8-.6.72-.72.6-.8.5-.88.37-.9.23-.95.07h-8m-8 0h-16m-8 0h-8l-.94-.07-.9-.22-.88-.35-.8-.5-.72-.6-.6-.72-.5-.8-.37-.88-.23-.9-.07-.95v-8m0-8v-16m0-8v-8l.07-.94.22-.9.35-.88.5-.8.6-.72.72-.6.8-.5.88-.37.9-.23.95-.07h8" stroke="#796bb3" stroke-width="2" fill="none"/><use xlink:href="#k" transform="matrix(1,0,0,1,485,245) translate(20 30.025)"/><path d="M480 326a6 6 0 0 1 6-6h48a6 6 0 0 1 6 6v48a6 6 0 0 1-6 6h-48a6 6 0 0 1-6-6z" fill="#fff"/><path d="M502 320h16m8 0h8l.94.07.9.22.88.35.8.5.72.6.6.72.5.8.37.88.23.9.07.95v8m0 8v16m0 8v8l-.07.94-.22.9-.35.88-.5.8-.6.72-.72.6-.8.5-.88.37-.9.23-.95.07h-8m-8 0h-16m-8 0h-8l-.94-.07-.9-.22-.88-.35-.8-.5-.72-.6-.6-.72-.5-.8-.37-.88-.23-.9-.07-.95v-8m0-8v-16m0-8v-8l.07-.94.22-.9.35-.88.5-.8.6-.72.72-.6.8-.5.88-.37.9-.23.95-.07h8" stroke="#796bb3" stroke-width="2" fill="none"/><use xlink:href="#l" transform="matrix(1,0,0,1,485,325) translate(20 30.025)"/><path d="M680 406a6 6 0 0 1 6-6h48a6 6 0 0 1 6 6v48a6 6 0 0 1-6 6h-48a6 6 0 0 1-6-6z" fill="#fff"/><path d="M702 400h16m8 0h8l.94.07.9.22.88.35.8.5.72.6.6.72.5.8.37.88.23.9.07.95v8m0 8v16m0 8v8l-.07.94-.22.9-.35.88-.5.8-.6.72-.72.6-.8.5-.88.37-.9.23-.95.07h-8m-8 0h-16m-8 0h-8l-.94-.07-.9-.22-.88-.35-.8-.5-.72-.6-.6-.72-.5-.8-.37-.88-.23-.9-.07-.95v-8m0-8v-16m0-8v-8l.07-.94.22-.9.35-.88.5-.8.6-.72.72-.6.8-.5.88-.37.9-.23.95-.07h8" stroke="#796bb3" stroke-width="2" fill="none"/><path d="M680 486a6 6 0 0 1 6-6h48a6 6 0 0 1 6 6v48a6 6 0 0 1-6 6h-48a6 6 0 0 1-6-6z" fill="#fff"/><path d="M702 480h16m8 0h8l.94.07.9.22.88.35.8.5.72.6.6.72.5.8.37.88.23.9.07.95v8m0 8v16m0 8v8l-.07.94-.22.9-.35.88-.5.8-.6.72-.72.6-.8.5-.88.37-.9.23-.95.07h-8m-8 0h-16m-8 0h-8l-.94-.07-.9-.22-.88-.35-.8-.5-.72-.6-.6-.72-.5-.8-.37-.88-.23-.9-.07-.95v-8m0-8v-16m0-8v-8l.07-.94.22-.9.35-.88.5-.8.6-.72.72-.6.8-.5.88-.37.9-.23.95-.07h8" stroke="#796bb3" stroke-width="2" fill="none"/><path d="M678.1 350.43L357.72 502.08" stroke="#7b7d68" stroke-width="2" fill="none"/><path d="M679 351.1l-.5.24-.86-1.8 1.36-.65z" stroke="#7b7d68" stroke-width=".05" fill="#7b7d68"/><path d="M343.93 508.6l10.9-10.28 3.97 8.38z" stroke="#7b7d68" stroke-width="2" fill="#7b7d68"/><path d="M900 26a6 6 0 0 1 6-6h208a6 6 0 0 1 6 6v294.27a6 6 0 0 1-6 6H906a6 6 0 0 1-6-6z" stroke="#2e2f27" stroke-width="3" fill="#fff" fill-opacity="0"/><use xlink:href="#m" transform="matrix(1,0,0,1,905,25) translate(0 17.95555555555552)"/><use xlink:href="#n" transform="matrix(1,0,0,1,905,25) translate(0 44.8888888888888)"/><use xlink:href="#o" transform="matrix(1,0,0,1,905,25) translate(56.111111111111 44.8888888888888)"/><use xlink:href="#p" transform="matrix(1,0,0,1,905,25) translate(159.60493827160462 44.8888888888888)"/><use xlink:href="#q" transform="matrix(1,0,0,1,905,25) translate(0 71.82222222222208)"/><use xlink:href="#r" transform="matrix(1,0,0,1,905,25) translate(54.86419753086409 71.82222222222208)"/><use xlink:href="#s" transform="matrix(1,0,0,1,905,25) translate(0 98.75555555555536)"/><use xlink:href="#t" transform="matrix(1,0,0,1,905,25) translate(0 125.68888888888864)"/><use xlink:href="#u" transform="matrix(1,0,0,1,905,25) translate(18.703703703703667 125.68888888888864)"/><use xlink:href="#v" transform="matrix(1,0,0,1,905,25) translate(43.64197530864189 125.68888888888864)"/><use xlink:href="#t" transform="matrix(1,0,0,1,905,25) translate(0 152.62222222222192)"/><use xlink:href="#w" transform="matrix(1,0,0,1,905,25) translate(18.703703703703667 152.62222222222192)"/><use xlink:href="#x" transform="matrix(1,0,0,1,905,25) translate(43.64197530864189 152.62222222222192)"/><use xlink:href="#t" transform="matrix(1,0,0,1,905,25) translate(0 179.5555555555552)"/><use xlink:href="#y" transform="matrix(1,0,0,1,905,25) translate(18.703703703703667 179.5555555555552)"/><use xlink:href="#z" transform="matrix(1,0,0,1,905,25) translate(43.64197530864189 179.5555555555552)"/><use xlink:href="#t" transform="matrix(1,0,0,1,905,25) translate(0 206.48888888888848)"/><use xlink:href="#A" transform="matrix(1,0,0,1,905,25) translate(18.703703703703667 206.48888888888848)"/><use xlink:href="#B" transform="matrix(1,0,0,1,905,25) translate(43.64197530864189 206.48888888888848)"/><use xlink:href="#t" transform="matrix(1,0,0,1,905,25) translate(0 233.42222222222176)"/><use xlink:href="#C" transform="matrix(1,0,0,1,905,25) translate(18.703703703703667 233.42222222222176)"/><use xlink:href="#D" transform="matrix(1,0,0,1,905,25) translate(43.64197530864189 233.42222222222176)"/><use xlink:href="#t" transform="matrix(1,0,0,1,905,25) translate(0 260.35555555555504)"/><use xlink:href="#E" transform="matrix(1,0,0,1,905,25) translate(18.703703703703667 260.35555555555504)"/><use xlink:href="#F" transform="matrix(1,0,0,1,905,25) translate(43.64197530864189 260.35555555555504)"/><use xlink:href="#G" transform="matrix(1,0,0,1,905,25) translate(0 286.39999999999947)"/><path d="M900 406a6 6 0 0 1 6-6h208a6 6 0 0 1 6 6v168a6 6 0 0 1-6 6H906a6 6 0 0 1-6-6z" stroke="#2e2f27" stroke-width="3" fill="#fff" fill-opacity="0"/><path d="M980 426a6 6 0 0 1 6-6h88a6 6 0 0 1 6 6v48a6 6 0 0 1-6 6h-88a6 6 0 0 1-6-6z" stroke="#fff" stroke-width="3" fill="#fff" fill-opacity="0"/><use xlink:href="#H" transform="matrix(1,0,0,1,985,425) translate(0 17.06666666666667)"/><use xlink:href="#I" transform="matrix(1,0,0,1,985,425) translate(0 42.66666666666667)"/><path d="M980 506a6 6 0 0 1 6-6h108a6 6 0 0 1 6 6v49.2a6 6 0 0 1-6 6H986a6 6 0 0 1-6-6z" stroke="#fff" stroke-width="3" fill="#fff" fill-opacity="0"/><use xlink:href="#J" transform="matrix(1,0,0,1,985,505) translate(0 17.06666666666667)"/><use xlink:href="#I" transform="matrix(1,0,0,1,985,505) translate(0 42.66666666666667)"/><path d="M920 426a6 6 0 0 1 6-6h48a6 6 0 0 1 6 6v48a6 6 0 0 1-6 6h-48a6 6 0 0 1-6-6z" stroke="#796bb3" stroke-width="2" fill="#d4d0e7"/><path d="M920 506a6 6 0 0 1 6-6h48a6 6 0 0 1 6 6v48a6 6 0 0 1-6 6h-48a6 6 0 0 1-6-6z" fill="#d4d0e7"/><path d="M942 500h16m8 0h8l.94.07.9.22.88.35.8.5.72.6.6.72.5.8.37.88.23.9.07.95v8m0 8v16m0 8v8l-.07.94-.22.9-.35.88-.5.8-.6.72-.72.6-.8.5-.88.37-.9.23-.95.07h-8m-8 0h-16m-8 0h-8l-.94-.07-.9-.22-.88-.35-.8-.5-.72-.6-.6-.72-.5-.8-.37-.88-.23-.9-.07-.95v-8m0-8v-16m0-8v-8l.07-.94.22-.9.35-.88.5-.8.6-.72.72-.6.8-.5.88-.37.9-.23.95-.07h8" stroke="#796bb3" stroke-width="2" fill="none"/><path d="M240 766a6 6 0 0 1 6-6h128a6 6 0 0 1 6 6v548a6 6 0 0 1-6 6H246a6 6 0 0 1-6-6z" stroke="#1b6a3a" stroke-width="2" fill="#fff"/><use xlink:href="#d" transform="matrix(1,0,0,1,245,765) translate(0 14.4)"/><use xlink:href="#f" transform="matrix(1,0,0,1,245,765) translate(47.85 14.4)"/><path d="M280 906a6 6 0 0 1 6-6h48a6 6 0 0 1 6 6v48a6 6 0 0 1-6 6h-48a6 6 0 0 1-6-6z" stroke="#796bb3" stroke-width="2" fill="#d4d0e7"/><use xlink:href="#g" transform="matrix(1,0,0,1,285,905) translate(20 30.025)"/><path d="M280 826a6 6 0 0 1 6-6h48a6 6 0 0 1 6 6v48a6 6 0 0 1-6 6h-48a6 6 0 0 1-6-6z" stroke="#796bb3" stroke-width="2" fill="#d4d0e7"/><use xlink:href="#h" transform="matrix(1,0,0,1,285,825) translate(20 30.025)"/><path d="M280 1066a6 6 0 0 1 6-6h48a6 6 0 0 1 6 6v48a6 6 0 0 1-6 6h-48a6 6 0 0 1-6-6z" fill="#d4d0e7"/><path d="M302 1060h16m8 0h8l.94.07.9.22.88.35.8.5.72.6.6.72.5.8.37.88.23.9.07.95v8m0 8v16m0 8v8l-.07.94-.22.9-.35.88-.5.8-.6.72-.72.6-.8.5-.88.37-.9.23-.95.07h-8m-8 0h-16m-8 0h-8l-.94-.07-.9-.22-.88-.35-.8-.5-.72-.6-.6-.72-.5-.8-.37-.88-.23-.9-.07-.95v-8m0-8v-16m0-8v-8l.07-.94.22-.9.35-.88.5-.8.6-.72.72-.6.8-.5.88-.37.9-.23.95-.07h8" stroke="#796bb3" stroke-width="2" fill="none"/><use xlink:href="#j" transform="matrix(1,0,0,1,285,1065) translate(20 30.025)"/><path d="M280 986a6 6 0 0 1 6-6h48a6 6 0 0 1 6 6v48a6 6 0 0 1-6 6h-48a6 6 0 0 1-6-6z" stroke="#796bb3" stroke-width="2" fill="#d4d0e7"/><use xlink:href="#i" transform="matrix(1,0,0,1,285,985) translate(20 30.025)"/><path d="M640 766a6 6 0 0 1 6-6h128a6 6 0 0 1 6 6v548a6 6 0 0 1-6 6H646a6 6 0 0 1-6-6z" stroke="#1b6a3a" stroke-width="2" fill="#fff"/><use xlink:href="#d" transform="matrix(1,0,0,1,645,765) translate(0 14.4)"/><use xlink:href="#e" transform="matrix(1,0,0,1,645,765) translate(47.85 14.4)"/><path d="M680 906a6 6 0 0 1 6-6h48a6 6 0 0 1 6 6v48a6 6 0 0 1-6 6h-48a6 6 0 0 1-6-6z" fill="#d4d0e7"/><path d="M702 900h16m8 0h8l.94.07.9.22.88.35.8.5.72.6.6.72.5.8.37.88.23.9.07.95v8m0 8v16m0 8v8l-.07.94-.22.9-.35.88-.5.8-.6.72-.72.6-.8.5-.88.37-.9.23-.95.07h-8m-8 0h-16m-8 0h-8l-.94-.07-.9-.22-.88-.35-.8-.5-.72-.6-.6-.72-.5-.8-.37-.88-.23-.9-.07-.95v-8m0-8v-16m0-8v-8l.07-.94.22-.9.35-.88.5-.8.6-.72.72-.6.8-.5.88-.37.9-.23.95-.07h8" stroke="#796bb3" stroke-width="2" fill="none"/><use xlink:href="#i" transform="matrix(1,0,0,1,685,905) translate(20 30.025)"/><path d="M680 826a6 6 0 0 1 6-6h48a6 6 0 0 1 6 6v48a6 6 0 0 1-6 6h-48a6 6 0 0 1-6-6z" stroke="#796bb3" stroke-width="2" fill="#d4d0e7"/><g><use xlink:href="#k" transform="matrix(1,0,0,1,685,825) translate(20 30.025)"/></g><path d="M680 1066a6 6 0 0 1 6-6h48a6 6 0 0 1 6 6v48a6 6 0 0 1-6 6h-48a6 6 0 0 1-6-6z" stroke="#796bb3" stroke-width="2" fill="#d4d0e7"/><g><use xlink:href="#l" transform="matrix(1,0,0,1,685,1065) translate(20 30.025)"/></g><path d="M680 986a6 6 0 0 1 6-6h48a6 6 0 0 1 6 6v48a6 6 0 0 1-6 6h-48a6 6 0 0 1-6-6z" stroke="#796bb3" stroke-width="2" fill="#d4d0e7"/><g><use xlink:href="#j" transform="matrix(1,0,0,1,685,985) translate(20 30.025)"/></g><g><path d="M544 610a6 6 0 0 1 6 6v36a6 6 0 0 0 6 6h28a2.3 2.3 0 0 1 1.54 4l-71.08 64a6.67 6.67 0 0 1-8.92 0l-71.08-64a2.3 2.3 0 0 1 1.54-4h28a6 6 0 0 0 6-6v-36a6 6 0 0 1 6-6z" stroke="#7b7d68" stroke-width="3" fill="#fff"/></g><path d="M280 406a6 6 0 0 1 6-6h48a6 6 0 0 1 6 6v48a6 6 0 0 1-6 6h-48a6 6 0 0 1-6-6z" fill="#fff"/><path d="M302 400h16m8 0h8l.94.07.9.22.88.35.8.5.72.6.6.72.5.8.37.88.23.9.07.95v8m0 8v16m0 8v8l-.07.94-.22.9-.35.88-.5.8-.6.72-.72.6-.8.5-.88.37-.9.23-.95.07h-8m-8 0h-16m-8 0h-8l-.94-.07-.9-.22-.88-.35-.8-.5-.72-.6-.6-.72-.5-.8-.37-.88-.23-.9-.07-.95v-8m0-8v-16m0-8v-8l.07-.94.22-.9.35-.88.5-.8.6-.72.72-.6.8-.5.88-.37.9-.23.95-.07h8" stroke="#796bb3" stroke-width="2" fill="none"/><path d="M280 486a6 6 0 0 1 6-6h48a6 6 0 0 1 6 6v48a6 6 0 0 1-6 6h-48a6 6 0 0 1-6-6z" fill="#fff"/><path d="M302 480h16m8 0h8l.94.07.9.22.88.35.8.5.72.6.6.72.5.8.37.88.23.9.07.95v8m0 8v16m0 8v8l-.07.94-.22.9-.35.88-.5.8-.6.72-.72.6-.8.5-.88.37-.9.23-.95.07h-8m-8 0h-16m-8 0h-8l-.94-.07-.9-.22-.88-.35-.8-.5-.72-.6-.6-.72-.5-.8-.37-.88-.23-.9-.07-.95v-8m0-8v-16m0-8v-8l.07-.94.22-.9.35-.88.5-.8.6-.72.72-.6.8-.5.88-.37.9-.23.95-.07h8" stroke="#796bb3" stroke-width="2" fill="none"/><path d="M280 1146a6 6 0 0 1 6-6h48a6 6 0 0 1 6 6v48a6 6 0 0 1-6 6h-48a6 6 0 0 1-6-6z" fill="#d4d0e7"/><path d="M302 1140h16m8 0h8l.94.07.9.22.88.35.8.5.72.6.6.72.5.8.37.88.23.9.07.95v8m0 8v16m0 8v8l-.07.94-.22.9-.35.88-.5.8-.6.72-.72.6-.8.5-.88.37-.9.23-.95.07h-8m-8 0h-16m-8 0h-8l-.94-.07-.9-.22-.88-.35-.8-.5-.72-.6-.6-.72-.5-.8-.37-.88-.23-.9-.07-.95v-8m0-8v-16m0-8v-8l.07-.94.22-.9.35-.88.5-.8.6-.72.72-.6.8-.5.88-.37.9-.23.95-.07h8" stroke="#796bb3" stroke-width="2" fill="none"/><g><use xlink:href="#k" transform="matrix(1,0,0,1,285,1145) translate(20 30.025)"/></g><path d="M280 1226a6 6 0 0 1 6-6h48a6 6 0 0 1 6 6v48a6 6 0 0 1-6 6h-48a6 6 0 0 1-6-6z" fill="#d4d0e7"/><path d="M302 1220h16m8 0h8l.94.07.9.22.88.35.8.5.72.6.6.72.5.8.37.88.23.9.07.95v8m0 8v16m0 8v8l-.07.94-.22.9-.35.88-.5.8-.6.72-.72.6-.8.5-.88.37-.9.23-.95.07h-8m-8 0h-16m-8 0h-8l-.94-.07-.9-.22-.88-.35-.8-.5-.72-.6-.6-.72-.5-.8-.37-.88-.23-.9-.07-.95v-8m0-8v-16m0-8v-8l.07-.94.22-.9.35-.88.5-.8.6-.72.72-.6.8-.5.88-.37.9-.23.95-.07h8" stroke="#796bb3" stroke-width="2" fill="none"/><g><use xlink:href="#l" transform="matrix(1,0,0,1,285,1225) translate(20 30.025)"/></g><path d="M680 1146a6 6 0 0 1 6-6h48a6 6 0 0 1 6 6v48a6 6 0 0 1-6 6h-48a6 6 0 0 1-6-6z" fill="#d4d0e7"/><path d="M702 1140h16m8 0h8l.94.07.9.22.88.35.8.5.72.6.6.72.5.8.37.88.23.9.07.95v8m0 8v16m0 8v8l-.07.94-.22.9-.35.88-.5.8-.6.72-.72.6-.8.5-.88.37-.9.23-.95.07h-8m-8 0h-16m-8 0h-8l-.94-.07-.9-.22-.88-.35-.8-.5-.72-.6-.6-.72-.5-.8-.37-.88-.23-.9-.07-.95v-8m0-8v-16m0-8v-8l.07-.94.22-.9.35-.88.5-.8.6-.72.72-.6.8-.5.88-.37.9-.23.95-.07h8" stroke="#796bb3" stroke-width="2" fill="none"/><g><use xlink:href="#h" transform="matrix(1,0,0,1,685,1145) translate(20 30.025)"/></g><path d="M680 1226a6 6 0 0 1 6-6h48a6 6 0 0 1 6 6v48a6 6 0 0 1-6 6h-48a6 6 0 0 1-6-6z" fill="#d4d0e7"/><path d="M702 1220h16m8 0h8l.94.07.9.22.88.35.8.5.72.6.6.72.5.8.37.88.23.9.07.95v8m0 8v16m0 8v8l-.07.94-.22.9-.35.88-.5.8-.6.72-.72.6-.8.5-.88.37-.9.23-.95.07h-8m-8 0h-16m-8 0h-8l-.94-.07-.9-.22-.88-.35-.8-.5-.72-.6-.6-.72-.5-.8-.37-.88-.23-.9-.07-.95v-8m0-8v-16m0-8v-8l.07-.94.22-.9.35-.88.5-.8.6-.72.72-.6.8-.5.88-.37.9-.23.95-.07h8" stroke="#796bb3" stroke-width="2" fill="none"/><g><use xlink:href="#g" transform="matrix(1,0,0,1,685,1225) translate(20 30.025)"/></g><path d="M341.73 110.7l323.83 306.58" stroke="#7b7d68" stroke-width="2" fill="none"/><path d="M342.43 109.98l-1.37 1.45-.06-.05v-2.76z" stroke="#7b7d68" stroke-width=".05" fill="#7b7d68"/><path d="M676.65 427.77l-13.55-6.44 6.38-6.73z" stroke="#7b7d68" stroke-width="2" fill="#7b7d68"/><path d="M341.73 190.7l323.83 306.58" stroke="#7b7d68" stroke-width="2" fill="none"/><path d="M342.43 189.98l-1.37 1.45-.06-.05v-2.76z" stroke="#7b7d68" stroke-width=".05" fill="#7b7d68"/><path d="M676.65 507.77l-13.55-6.44 6.38-6.73z" stroke="#7b7d68" stroke-width="2" fill="#7b7d68"/><path d="M678.27 110.7L354.44 417.27" stroke="#7b7d68" stroke-width="2" fill="none"/><path d="M679 111.38l-.06.05-1.37-1.45 1.43-1.36z" stroke="#7b7d68" stroke-width=".05" fill="#7b7d68"/><path d="M343.35 427.77l7.17-13.17 6.38 6.73z" stroke="#7b7d68" stroke-width="2" fill="#7b7d68"/><defs><path fill="#1b6a3a" d="M121-226c-27-7-43 5-38 36h38v33H83V0H34v-157H6v-33h28c-9-59 32-81 87-68v32" id="K"/><path fill="#1b6a3a" d="M133-34C117-15 103 5 69 4 32 3 11-16 11-54c-1-60 55-63 116-61 1-26-3-47-28-47-18 1-26 9-28 27l-52-2c7-38 36-58 82-57s74 22 75 68l1 82c-1 14 12 18 25 15v27c-30 8-71 5-69-32zm-48 3c29 0 43-24 42-57-32 0-66-3-65 30 0 17 8 27 23 27" id="L"/><path fill="#1b6a3a" d="M25-224v-37h50v37H25zM25 0v-190h50V0H25" id="M"/><path fill="#1b6a3a" d="M25 0v-261h50V0H25" id="N"/><path fill="#1b6a3a" d="M185-48c-13 30-37 53-82 52C43 2 14-33 14-96s30-98 90-98c62 0 83 45 84 108H66c0 31 8 55 39 56 18 0 30-7 34-22zm-45-69c5-46-57-63-70-21-2 6-4 13-4 21h74" id="O"/><path fill="#1b6a3a" d="M88-194c31-1 46 15 58 34l-1-101h50l1 261h-48c-2-10 0-23-3-31C134-8 116 4 84 4 32 4 16-41 15-95c0-56 19-97 73-99zm17 164c33 0 40-30 41-66 1-37-9-64-41-64s-38 30-39 65c0 43 13 65 39 65" id="P"/><g id="a"><use transform="matrix(0.05,0,0,0.05,0,0)" xlink:href="#K"/><use transform="matrix(0.05,0,0,0.05,5.95,0)" xlink:href="#L"/><use transform="matrix(0.05,0,0,0.05,15.949999999999998,0)" xlink:href="#M"/><use transform="matrix(0.05,0,0,0.05,20.95,0)" xlink:href="#N"/><use transform="matrix(0.05,0,0,0.05,25.950000000000003,0)" xlink:href="#O"/><use transform="matrix(0.05,0,0,0.05,35.95,0)" xlink:href="#P"/></g><path fill="#1b6a3a" d="M135-194c87-1 58 113 63 194h-50c-7-57 23-157-34-157-59 0-34 97-39 157H25l-1-190h47c2 12-1 28 3 38 12-26 28-41 61-42" id="Q"/><path fill="#1b6a3a" d="M110-194c64 0 96 36 96 99 0 64-35 99-97 99-61 0-95-36-95-99 0-62 34-99 96-99zm-1 164c35 0 45-28 45-65 0-40-10-65-43-65-34 0-45 26-45 65 0 36 10 65 43 65" id="R"/><g id="b"><use transform="matrix(0.05,0,0,0.05,0,0)" xlink:href="#Q"/><use transform="matrix(0.05,0,0,0.05,10.950000000000001,0)" xlink:href="#R"/><use transform="matrix(0.05,0,0,0.05,21.900000000000002,0)" xlink:href="#P"/><use transform="matrix(0.05,0,0,0.05,32.85,0)" xlink:href="#O"/></g><path fill="#1b6a3a" d="M182-182c0 78-84 86-111 141h115V0H12c-6-101 99-100 120-180 1-22-12-31-33-32-23 0-32 14-35 34l-49-3c5-45 32-70 84-70 51 0 83 22 83 69" id="S"/><use transform="matrix(0.05,0,0,0.05,0,0)" xlink:href="#S" id="c"/><g id="d"><use transform="matrix(0.05,0,0,0.05,0,0)" xlink:href="#Q"/><use transform="matrix(0.05,0,0,0.05,10.950000000000001,0)" xlink:href="#R"/><use transform="matrix(0.05,0,0,0.05,21.900000000000002,0)" xlink:href="#P"/><use transform="matrix(0.05,0,0,0.05,32.85,0)" xlink:href="#O"/></g><path fill="#1b6a3a" d="M128-127c34 4 56 21 59 58 7 91-148 94-172 28-4-9-6-17-7-26l51-5c1 24 16 35 40 36 23 0 39-12 38-36-1-31-31-36-65-34v-40c32 2 59-3 59-33 0-20-13-33-34-33s-33 13-35 32l-50-3c6-44 37-68 86-68 50 0 83 20 83 66 0 35-22 52-53 58" id="T"/><use transform="matrix(0.05,0,0,0.05,0,0)" xlink:href="#T" id="e"/><path fill="#1b6a3a" d="M23 0v-37h61v-169l-59 37v-38l62-41h46v211h57V0H23" id="U"/><use transform="matrix(0.05,0,0,0.05,0,0)" xlink:href="#U" id="f"/><path fill="#796bb3" d="M182-182c0 78-84 86-111 141h115V0H12c-6-101 99-100 120-180 1-22-12-31-33-32-23 0-32 14-35 34l-49-3c5-45 32-70 84-70 51 0 83 22 83 69" id="V"/><use transform="matrix(0.05,0,0,0.05,0,0)" xlink:href="#V" id="g"/><path fill="#796bb3" d="M23 0v-37h61v-169l-59 37v-38l62-41h46v211h57V0H23" id="W"/><use transform="matrix(0.05,0,0,0.05,0,0)" xlink:href="#W" id="h"/><path fill="#796bb3" d="M165-50V0h-47v-50H5v-38l105-160h55v161h33v37h-33zm-47-37l2-116L46-87h72" id="X"/><use transform="matrix(0.05,0,0,0.05,0,0)" xlink:href="#X" id="i"/><path fill="#796bb3" d="M139-81c0-46-55-55-73-27H18l9-140h149v37H72l-4 63c44-38 133-4 122 66C201 21 21 35 11-62l49-4c5 18 15 30 39 30 26 0 40-18 40-45" id="Y"/><use transform="matrix(0.05,0,0,0.05,0,0)" xlink:href="#Y" id="j"/><path fill="#796bb3" d="M128-127c34 4 56 21 59 58 7 91-148 94-172 28-4-9-6-17-7-26l51-5c1 24 16 35 40 36 23 0 39-12 38-36-1-31-31-36-65-34v-40c32 2 59-3 59-33 0-20-13-33-34-33s-33 13-35 32l-50-3c6-44 37-68 86-68 50 0 83 20 83 66 0 35-22 52-53 58" id="Z"/><use transform="matrix(0.05,0,0,0.05,0,0)" xlink:href="#Z" id="k"/><path fill="#796bb3" d="M115-159c48 0 72 30 72 78 0 54-30 85-83 85-64 0-91-50-91-122 0-98 58-163 141-120 15 8 21 24 27 44l-47 6c-5-31-48-31-61-4-7 14-11 33-11 60 9-17 28-27 53-27zM102-35c24 0 36-20 36-45s-11-43-37-43c-23 0-36 14-36 38 0 27 11 50 37 50" id="aa"/><use transform="matrix(0.05,0,0,0.05,0,0)" xlink:href="#aa" id="l"/><path fill="#2e2f27" d="M30-248c87 1 191-15 191 75 0 78-77 80-158 76V0H30v-248zm33 125c57 0 124 11 124-50 0-59-68-47-124-48v98" id="ab"/><path fill="#2e2f27" d="M135-143c-3-34-86-38-87 0 15 53 115 12 119 90S17 21 10-45l28-5c4 36 97 45 98 0-10-56-113-15-118-90-4-57 82-63 122-42 12 7 21 19 24 35" id="ac"/><path fill="#2e2f27" d="M100-194c63 0 86 42 84 106H49c0 40 14 67 53 68 26 1 43-12 49-29l28 8c-11 28-37 45-77 45C44 4 14-33 15-96c1-61 26-98 85-98zm52 81c6-60-76-77-97-28-3 7-6 17-6 28h103" id="ad"/><path fill="#2e2f27" d="M84 4C-5 8 30-112 23-190h32v120c0 31 7 50 39 49 72-2 45-101 50-169h31l1 190h-30c-1-10 1-25-2-33-11 22-28 36-60 37" id="ae"/><path fill="#2e2f27" d="M85-194c31 0 48 13 60 33l-1-100h32l1 261h-30c-2-10 0-23-3-31C134-8 116 4 85 4 32 4 16-35 15-94c0-66 23-100 70-100zm9 24c-40 0-46 34-46 75 0 40 6 74 45 74 42 0 51-32 51-76 0-42-9-74-50-73" id="af"/><path fill="#2e2f27" d="M100-194c62-1 85 37 85 99 1 63-27 99-86 99S16-35 15-95c0-66 28-99 85-99zM99-20c44 1 53-31 53-75 0-43-8-75-51-75s-53 32-53 75 10 74 51 75" id="ag"/><path fill="#2e2f27" d="M16-82v-28h88v28H16" id="ah"/><path fill="#2e2f27" d="M114-163C36-179 61-72 57 0H25l-1-190h30c1 12-1 29 2 39 6-27 23-49 58-41v29" id="ai"/><path fill="#2e2f27" d="M141-36C126-15 110 5 73 4 37 3 15-17 15-53c-1-64 63-63 125-63 3-35-9-54-41-54-24 1-41 7-42 31l-33-3c5-37 33-52 76-52 45 0 72 20 72 64v82c-1 20 7 32 28 27v20c-31 9-61-2-59-35zM48-53c0 20 12 33 32 33 41-3 63-29 60-74-43 2-92-5-92 41" id="aj"/><path fill="#2e2f27" d="M117-194c89-4 53 116 60 194h-32v-121c0-31-8-49-39-48C34-167 62-67 57 0H25l-1-190h30c1 10-1 24 2 32 11-22 29-35 61-36" id="ak"/><path fill="#2e2f27" d="M210-169c-67 3-38 105-44 169h-31v-121c0-29-5-50-35-48C34-165 62-65 56 0H25l-1-190h30c1 10-1 24 2 32 10-44 99-50 107 0 11-21 27-35 58-36 85-2 47 119 55 194h-31v-121c0-29-5-49-35-48" id="al"/><g id="m"><use transform="matrix(0.062345679012345556,0,0,0.062345679012345556,0,0)" xlink:href="#ab"/><use transform="matrix(0.062345679012345556,0,0,0.062345679012345556,14.962962962962933,0)" xlink:href="#ac"/><use transform="matrix(0.062345679012345556,0,0,0.062345679012345556,26.185185185185134,0)" xlink:href="#ad"/><use transform="matrix(0.062345679012345556,0,0,0.062345679012345556,38.654320987654245,0)" xlink:href="#ae"/><use transform="matrix(0.062345679012345556,0,0,0.062345679012345556,51.123456790123356,0)" xlink:href="#af"/><use transform="matrix(0.062345679012345556,0,0,0.062345679012345556,63.59259259259247,0)" xlink:href="#ag"/><use transform="matrix(0.062345679012345556,0,0,0.062345679012345556,76.06172839506158,0)" xlink:href="#ah"/><use transform="matrix(0.062345679012345556,0,0,0.062345679012345556,83.4808641975307,0)" xlink:href="#ai"/><use transform="matrix(0.062345679012345556,0,0,0.062345679012345556,90.89999999999984,0)" xlink:href="#aj"/><use transform="matrix(0.062345679012345556,0,0,0.062345679012345556,103.36913580246895,0)" xlink:href="#ak"/><use transform="matrix(0.062345679012345556,0,0,0.062345679012345556,115.83827160493806,0)" xlink:href="#af"/><use transform="matrix(0.062345679012345556,0,0,0.062345679012345556,128.30740740740717,0)" xlink:href="#ag"/><use transform="matrix(0.062345679012345556,0,0,0.062345679012345556,140.77654320987628,0)" xlink:href="#al"/></g><g id="n"><use transform="matrix(0.062345679012345556,0,0,0.062345679012345556,0,0)" xlink:href="#ak"/><use transform="matrix(0.062345679012345556,0,0,0.062345679012345556,12.469135802469111,0)" xlink:href="#ag"/><use transform="matrix(0.062345679012345556,0,0,0.062345679012345556,24.938271604938222,0)" xlink:href="#af"/><use transform="matrix(0.062345679012345556,0,0,0.062345679012345556,37.407407407407334,0)" xlink:href="#ad"/></g><path fill="#2e2f27" d="M145-31C134-9 116 4 85 4 32 4 16-35 15-94c0-59 17-99 70-100 32-1 48 14 60 33 0-11-1-24 2-32h30l-1 268h-32zM93-21c41 0 51-33 51-76s-8-73-50-73c-40 0-46 35-46 75s5 74 45 74" id="am"/><path fill="#2e2f27" d="M96-169c-40 0-48 33-48 73s9 75 48 75c24 0 41-14 43-38l32 2c-6 37-31 61-74 61-59 0-76-41-82-99-10-93 101-131 147-64 4 7 5 14 7 22l-32 3c-4-21-16-35-41-35" id="an"/><g id="o"><use transform="matrix(0.062345679012345556,0,0,0.062345679012345556,0,0)" xlink:href="#ac"/><use transform="matrix(0.062345679012345556,0,0,0.062345679012345556,11.2222222222222,0)" xlink:href="#ad"/><use transform="matrix(0.062345679012345556,0,0,0.062345679012345556,23.69135802469131,0)" xlink:href="#am"/><use transform="matrix(0.062345679012345556,0,0,0.062345679012345556,36.16049382716042,0)" xlink:href="#ae"/><use transform="matrix(0.062345679012345556,0,0,0.062345679012345556,48.629629629629534,0)" xlink:href="#ad"/><use transform="matrix(0.062345679012345556,0,0,0.062345679012345556,61.098765432098645,0)" xlink:href="#ak"/><use transform="matrix(0.062345679012345556,0,0,0.062345679012345556,73.56790123456776,0)" xlink:href="#an"/><use transform="matrix(0.062345679012345556,0,0,0.062345679012345556,84.79012345678996,0)" xlink:href="#ad"/></g><path fill="#2e2f27" d="M101-234c-31-9-42 10-38 44h38v23H63V0H32v-167H5v-23h27c-7-52 17-82 69-68v24" id="ao"/><g id="p"><use transform="matrix(0.062345679012345556,0,0,0.062345679012345556,0,0)" xlink:href="#ao"/><use transform="matrix(0.062345679012345556,0,0,0.062345679012345556,6.234567901234556,0)" xlink:href="#ag"/><use transform="matrix(0.062345679012345556,0,0,0.062345679012345556,18.703703703703667,0)" xlink:href="#ai"/></g><path fill="#2e2f27" d="M106-169C34-169 62-67 57 0H25v-261h32l-1 103c12-21 28-36 61-36 89 0 53 116 60 194h-32v-121c2-32-8-49-39-48" id="ap"/><g id="q"><use transform="matrix(0.062345679012345556,0,0,0.062345679012345556,0,0)" xlink:href="#ad"/><use transform="matrix(0.062345679012345556,0,0,0.062345679012345556,12.469135802469111,0)" xlink:href="#aj"/><use transform="matrix(0.062345679012345556,0,0,0.062345679012345556,24.938271604938222,0)" xlink:href="#an"/><use transform="matrix(0.062345679012345556,0,0,0.062345679012345556,36.16049382716042,0)" xlink:href="#ap"/></g><path fill="#2e2f27" d="M115-194c53 0 69 39 70 98 0 66-23 100-70 100C84 3 66-7 56-30L54 0H23l1-261h32v101c10-23 28-34 59-34zm-8 174c40 0 45-34 45-75 0-40-5-75-45-74-42 0-51 32-51 76 0 43 10 73 51 73" id="aq"/><path fill="#2e2f27" d="M143 0L79-87 56-68V0H24v-261h32v163l83-92h37l-77 82L181 0h-38" id="ar"/><path fill="#2e2f27" d="M59-47c-2 24 18 29 38 22v24C64 9 27 4 27-40v-127H5v-23h24l9-43h21v43h35v23H59v120" id="as"/><path fill="#2e2f27" d="M33-154v-36h34v36H33zM33 0v-36h34V0H33" id="at"/><g id="r"><use transform="matrix(0.062345679012345556,0,0,0.062345679012345556,0,0)" xlink:href="#aq"/><use transform="matrix(0.062345679012345556,0,0,0.062345679012345556,12.469135802469111,0)" xlink:href="#ae"/><use transform="matrix(0.062345679012345556,0,0,0.062345679012345556,24.938271604938222,0)" xlink:href="#an"/><use transform="matrix(0.062345679012345556,0,0,0.062345679012345556,36.16049382716042,0)" xlink:href="#ar"/><use transform="matrix(0.062345679012345556,0,0,0.062345679012345556,47.38271604938262,0)" xlink:href="#ad"/><use transform="matrix(0.062345679012345556,0,0,0.062345679012345556,59.851851851851734,0)" xlink:href="#as"/><use transform="matrix(0.062345679012345556,0,0,0.062345679012345556,66.08641975308629,0)" xlink:href="#at"/></g><path fill="#2e2f27" d="M23 0v-37h61v-169l-59 37v-38l62-41h46v211h57V0H23" id="au"/><g id="u"><use transform="matrix(0.062345679012345556,0,0,0.062345679012345556,0,0)" xlink:href="#au"/><use transform="matrix(0.062345679012345556,0,0,0.062345679012345556,12.469135802469111,0)" xlink:href="#at"/></g><path fill="#2e2f27" d="M27 0v-27h64v-190l-56 39v-29l58-41h29v221h61V0H27" id="av"/><path fill="#2e2f27" d="M101-251c82-7 93 87 43 132L82-64C71-53 59-42 53-27h129V0H18c2-99 128-94 128-182 0-28-16-43-45-43s-46 15-49 41l-32-3c6-41 34-60 81-64" id="aw"/><path fill="#2e2f27" d="M126-127c33 6 58 20 58 59 0 88-139 92-164 29-3-8-5-16-6-25l32-3c6 27 21 44 54 44 32 0 52-15 52-46 0-38-36-46-79-43v-28c39 1 72-4 72-42 0-27-17-43-46-43-28 0-47 15-49 41l-32-3c6-42 35-63 81-64 48-1 79 21 79 65 0 36-21 52-52 59" id="ax"/><g id="v"><use transform="matrix(0.062345679012345556,0,0,0.062345679012345556,0,0)" xlink:href="#av"/><use transform="matrix(0.062345679012345556,0,0,0.062345679012345556,12.469135802469111,0)" xlink:href="#ah"/><use transform="matrix(0.062345679012345556,0,0,0.062345679012345556,19.888271604938232,0)" xlink:href="#aw"/><use transform="matrix(0.062345679012345556,0,0,0.062345679012345556,32.357407407407344,0)" xlink:href="#ah"/><use transform="matrix(0.062345679012345556,0,0,0.062345679012345556,39.776543209876465,0)" xlink:href="#ax"/></g><path fill="#2e2f27" d="M182-182c0 78-84 86-111 141h115V0H12c-6-101 99-100 120-180 1-22-12-31-33-32-23 0-32 14-35 34l-49-3c5-45 32-70 84-70 51 0 83 22 83 69" id="ay"/><g id="w"><use transform="matrix(0.062345679012345556,0,0,0.062345679012345556,0,0)" xlink:href="#ay"/><use transform="matrix(0.062345679012345556,0,0,0.062345679012345556,12.469135802469111,0)" xlink:href="#at"/></g><g id="x"><use transform="matrix(0.062345679012345556,0,0,0.062345679012345556,0,0)" xlink:href="#aw"/><use transform="matrix(0.062345679012345556,0,0,0.062345679012345556,12.469135802469111,0)" xlink:href="#ah"/><use transform="matrix(0.062345679012345556,0,0,0.062345679012345556,19.888271604938232,0)" xlink:href="#av"/><use transform="matrix(0.062345679012345556,0,0,0.062345679012345556,32.357407407407344,0)" xlink:href="#ah"/><use transform="matrix(0.062345679012345556,0,0,0.062345679012345556,39.776543209876465,0)" xlink:href="#ax"/></g><path fill="#2e2f27" d="M128-127c34 4 56 21 59 58 7 91-148 94-172 28-4-9-6-17-7-26l51-5c1 24 16 35 40 36 23 0 39-12 38-36-1-31-31-36-65-34v-40c32 2 59-3 59-33 0-20-13-33-34-33s-33 13-35 32l-50-3c6-44 37-68 86-68 50 0 83 20 83 66 0 35-22 52-53 58" id="az"/><g id="y"><use transform="matrix(0.062345679012345556,0,0,0.062345679012345556,0,0)" xlink:href="#az"/><use transform="matrix(0.062345679012345556,0,0,0.062345679012345556,12.469135802469111,0)" xlink:href="#at"/></g><g id="z"><use transform="matrix(0.062345679012345556,0,0,0.062345679012345556,0,0)" xlink:href="#ax"/><use transform="matrix(0.062345679012345556,0,0,0.062345679012345556,12.469135802469111,0)" xlink:href="#ah"/><use transform="matrix(0.062345679012345556,0,0,0.062345679012345556,19.888271604938232,0)" xlink:href="#aw"/><use transform="matrix(0.062345679012345556,0,0,0.062345679012345556,32.357407407407344,0)" xlink:href="#ah"/><use transform="matrix(0.062345679012345556,0,0,0.062345679012345556,39.776543209876465,0)" xlink:href="#av"/></g><path fill="#2e2f27" d="M165-50V0h-47v-50H5v-38l105-160h55v161h33v37h-33zm-47-37l2-116L46-87h72" id="aA"/><g id="A"><use transform="matrix(0.062345679012345556,0,0,0.062345679012345556,0,0)" xlink:href="#aA"/><use transform="matrix(0.062345679012345556,0,0,0.062345679012345556,12.469135802469111,0)" xlink:href="#at"/></g><g id="B"><use transform="matrix(0.062345679012345556,0,0,0.062345679012345556,0,0)" xlink:href="#av"/><use transform="matrix(0.062345679012345556,0,0,0.062345679012345556,12.469135802469111,0)" xlink:href="#ah"/><use transform="matrix(0.062345679012345556,0,0,0.062345679012345556,19.888271604938232,0)" xlink:href="#ax"/><use transform="matrix(0.062345679012345556,0,0,0.062345679012345556,32.357407407407344,0)" xlink:href="#ah"/><use transform="matrix(0.062345679012345556,0,0,0.062345679012345556,39.776543209876465,0)" xlink:href="#aw"/></g><path fill="#2e2f27" d="M139-81c0-46-55-55-73-27H18l9-140h149v37H72l-4 63c44-38 133-4 122 66C201 21 21 35 11-62l49-4c5 18 15 30 39 30 26 0 40-18 40-45" id="aB"/><g id="C"><use transform="matrix(0.062345679012345556,0,0,0.062345679012345556,0,0)" xlink:href="#aB"/><use transform="matrix(0.062345679012345556,0,0,0.062345679012345556,12.469135802469111,0)" xlink:href="#at"/></g><g id="D"><use transform="matrix(0.062345679012345556,0,0,0.062345679012345556,0,0)" xlink:href="#ax"/><use transform="matrix(0.062345679012345556,0,0,0.062345679012345556,12.469135802469111,0)" xlink:href="#ah"/><use transform="matrix(0.062345679012345556,0,0,0.062345679012345556,19.888271604938232,0)" xlink:href="#av"/><use transform="matrix(0.062345679012345556,0,0,0.062345679012345556,32.357407407407344,0)" xlink:href="#ah"/><use transform="matrix(0.062345679012345556,0,0,0.062345679012345556,39.776543209876465,0)" xlink:href="#aw"/></g><path fill="#2e2f27" d="M115-159c48 0 72 30 72 78 0 54-30 85-83 85-64 0-91-50-91-122 0-98 58-163 141-120 15 8 21 24 27 44l-47 6c-5-31-48-31-61-4-7 14-11 33-11 60 9-17 28-27 53-27zM102-35c24 0 36-20 36-45s-11-43-37-43c-23 0-36 14-36 38 0 27 11 50 37 50" id="aC"/><g id="E"><use transform="matrix(0.062345679012345556,0,0,0.062345679012345556,0,0)" xlink:href="#aC"/><use transform="matrix(0.062345679012345556,0,0,0.062345679012345556,12.469135802469111,0)" xlink:href="#at"/></g><g id="F"><use transform="matrix(0.062345679012345556,0,0,0.062345679012345556,0,0)" xlink:href="#aw"/><use transform="matrix(0.062345679012345556,0,0,0.062345679012345556,12.469135802469111,0)" xlink:href="#ah"/><use transform="matrix(0.062345679012345556,0,0,0.062345679012345556,19.888271604938232,0)" xlink:href="#ax"/><use transform="matrix(0.062345679012345556,0,0,0.062345679012345556,32.357407407407344,0)" xlink:href="#ah"/><use transform="matrix(0.062345679012345556,0,0,0.062345679012345556,39.776543209876465,0)" xlink:href="#av"/></g><path d="M30-248c87 1 191-15 191 75 0 78-77 80-158 76V0H30v-248zm33 125c57 0 124 11 124-50 0-59-68-47-124-48v98" id="aD"/><path d="M114-163C36-179 61-72 57 0H25l-1-190h30c1 12-1 29 2 39 6-27 23-49 58-41v29" id="aE"/><path d="M24-231v-30h32v30H24zM24 0v-190h32V0H24" id="aF"/><path d="M210-169c-67 3-38 105-44 169h-31v-121c0-29-5-50-35-48C34-165 62-65 56 0H25l-1-190h30c1 10-1 24 2 32 10-44 99-50 107 0 11-21 27-35 58-36 85-2 47 119 55 194h-31v-121c0-29-5-49-35-48" id="aG"/><path d="M141-36C126-15 110 5 73 4 37 3 15-17 15-53c-1-64 63-63 125-63 3-35-9-54-41-54-24 1-41 7-42 31l-33-3c5-37 33-52 76-52 45 0 72 20 72 64v82c-1 20 7 32 28 27v20c-31 9-61-2-59-35zM48-53c0 20 12 33 32 33 41-3 63-29 60-74-43 2-92-5-92 41" id="aH"/><path d="M179-190L93 31C79 59 56 82 12 73V49c39 6 53-20 64-50L1-190h34L92-34l54-156h33" id="aI"/><g id="H"><use transform="matrix(0.05925925925925927,0,0,0.05925925925925927,0,0)" xlink:href="#aD"/><use transform="matrix(0.05925925925925927,0,0,0.05925925925925927,14.222222222222225,0)" xlink:href="#aE"/><use transform="matrix(0.05925925925925927,0,0,0.05925925925925927,21.27407407407408,0)" xlink:href="#aF"/><use transform="matrix(0.05925925925925927,0,0,0.05925925925925927,25.955555555555563,0)" xlink:href="#aG"/><use transform="matrix(0.05925925925925927,0,0,0.05925925925925927,43.674074074074085,0)" xlink:href="#aH"/><use transform="matrix(0.05925925925925927,0,0,0.05925925925925927,55.52592592592594,0)" xlink:href="#aE"/><use transform="matrix(0.05925925925925927,0,0,0.05925925925925927,62.57777777777779,0)" xlink:href="#aI"/></g><path d="M96-169c-40 0-48 33-48 73s9 75 48 75c24 0 41-14 43-38l32 2c-6 37-31 61-74 61-59 0-76-41-82-99-10-93 101-131 147-64 4 7 5 14 7 22l-32 3c-4-21-16-35-41-35" id="aJ"/><path d="M100-194c62-1 85 37 85 99 1 63-27 99-86 99S16-35 15-95c0-66 28-99 85-99zM99-20c44 1 53-31 53-75 0-43-8-75-51-75s-53 32-53 75 10 74 51 75" id="aK"/><path d="M115-194c55 1 70 41 70 98S169 2 115 4C84 4 66-9 55-30l1 105H24l-1-265h31l2 30c10-21 28-34 59-34zm-8 174c40 0 45-34 45-75s-6-73-45-74c-42 0-51 32-51 76 0 43 10 73 51 73" id="aL"/><g id="I"><use transform="matrix(0.05925925925925927,0,0,0.05925925925925927,0,0)" xlink:href="#aJ"/><use transform="matrix(0.05925925925925927,0,0,0.05925925925925927,10.666666666666668,0)" xlink:href="#aK"/><use transform="matrix(0.05925925925925927,0,0,0.05925925925925927,22.51851851851852,0)" xlink:href="#aL"/><use transform="matrix(0.05925925925925927,0,0,0.05925925925925927,34.370370370370374,0)" xlink:href="#aI"/></g><path d="M185-189c-5-48-123-54-124 2 14 75 158 14 163 119 3 78-121 87-175 55-17-10-28-26-33-46l33-7c5 56 141 63 141-1 0-78-155-14-162-118-5-82 145-84 179-34 5 7 8 16 11 25" id="aM"/><path d="M100-194c63 0 86 42 84 106H49c0 40 14 67 53 68 26 1 43-12 49-29l28 8c-11 28-37 45-77 45C44 4 14-33 15-96c1-61 26-98 85-98zm52 81c6-60-76-77-97-28-3 7-6 17-6 28h103" id="aN"/><path d="M117-194c89-4 53 116 60 194h-32v-121c0-31-8-49-39-48C34-167 62-67 57 0H25l-1-190h30c1 10-1 24 2 32 11-22 29-35 61-36" id="aO"/><path d="M85-194c31 0 48 13 60 33l-1-100h32l1 261h-30c-2-10 0-23-3-31C134-8 116 4 85 4 32 4 16-35 15-94c0-66 23-100 70-100zm9 24c-40 0-46 34-46 75 0 40 6 74 45 74 42 0 51-32 51-76 0-42-9-74-50-73" id="aP"/><g id="J"><use transform="matrix(0.05925925925925927,0,0,0.05925925925925927,0,0)" xlink:href="#aM"/><use transform="matrix(0.05925925925925927,0,0,0.05925925925925927,14.222222222222225,0)" xlink:href="#aN"/><use transform="matrix(0.05925925925925927,0,0,0.05925925925925927,26.074074074074076,0)" xlink:href="#aJ"/><use transform="matrix(0.05925925925925927,0,0,0.05925925925925927,36.74074074074075,0)" xlink:href="#aK"/><use transform="matrix(0.05925925925925927,0,0,0.05925925925925927,48.5925925925926,0)" xlink:href="#aO"/><use transform="matrix(0.05925925925925927,0,0,0.05925925925925927,60.44444444444446,0)" xlink:href="#aP"/><use transform="matrix(0.05925925925925927,0,0,0.05925925925925927,72.2962962962963,0)" xlink:href="#aH"/><use transform="matrix(0.05925925925925927,0,0,0.05925925925925927,84.14814814814815,0)" xlink:href="#aE"/><use transform="matrix(0.05925925925925927,0,0,0.05925925925925927,91.2,0)" xlink:href="#aI"/></g></defs></g></svg>