<svg xmlns="http://www.w3.org/2000/svg" xmlns:xlink="http://www.w3.org/1999/xlink" xmlns:lucid="lucid" width="963" height="563"><g transform="translate(1611.5 -418.5)" lucid:page-tab-id="0_0"><path d="M-2000 0h1500v1000h-1500z" fill="#fff"/><path d="M-1590 446a6 6 0 0 1 6-6h908a6 6 0 0 1 6 6v508a6 6 0 0 1-6 6h-908a6 6 0 0 1-6-6z" stroke="#000" stroke-opacity="0" stroke-width="3" fill="#baedce"/><use xlink:href="#a" transform="matrix(1,0,0,1,-1578,452) translate(0 17.77777777777778)"/><use xlink:href="#b" transform="matrix(1,0,0,1,-1578,452) translate(89.75308641975307 17.77777777777778)"/><path d="M-1560 606a6 6 0 0 1 6-6h848a6 6 0 0 1 6 6v308a6 6 0 0 1-6 6h-848a6 6 0 0 1-6-6z" stroke="#1b6a3a" stroke-width="2" fill="#fff"/><use xlink:href="#c" transform="matrix(1,0,0,1,-1555,605) translate(0 14.4)"/><use xlink:href="#d" transform="matrix(1,0,0,1,-1555,605) translate(92.75000000000001 14.4)"/><path d="M-1151.77 666a6 6 0 0 1 6-6H-966a6 6 0 0 1 6 6v188a6 6 0 0 1-6 6h-179.77a6 6 0 0 1-6-6z" fill="#baedce"/><path d="M-1125.8 660h19.98m10 0h19.96m10 0h19.96m10 0h19.97m9.98 0h19.98m9.98 0h10l.94.07.9.22.88.35.8.5.72.6.6.72.5.8.37.88.23.9.07.95v10.44m0 10.45v20.88m0 10.44v20.9m0 10.44v20.88m0 10.45v20.88m0 10.44v20.9m0 10.44V854l-.07.94-.22.9-.35.88-.5.8-.6.72-.72.6-.8.5-.88.37-.9.23-.95.07h-10m-9.97 0h-19.98m-9.98 0h-19.98m-10 0h-19.97m-10 0h-19.96m-10 0h-19.96m-9.98 0h-10l-.92-.07-.92-.22-.87-.35-.8-.5-.7-.6-.62-.72-.5-.8-.35-.88-.22-.9-.07-.95v-10.44m0-10.45v-20.88m0-10.44v-20.9m0-10.44v-20.88m0-10.45v-20.88m0-10.44v-20.9m0-10.44V666l.08-.94.23-.9.36-.88.48-.8.6-.72.73-.6.8-.5.88-.37.92-.23.93-.07h10" stroke="#1b6a3a" stroke-width="2" fill="none"/><path d="M-1111.77 746a6 6 0 0 1 6-6h99.77a6 6 0 0 1 6 6v68a6 6 0 0 1-6 6h-99.77a6 6 0 0 1-6-6z" stroke="#000" stroke-opacity="0" stroke-width="3" fill="#1b6a3a"/><use xlink:href="#e" transform="matrix(1,0,0,1,-1099.7647058823532,752) translate(17.525 31.9)"/><path d="M-1151.77 666a6 6 0 0 1 6-6h168a6 6 0 0 1 6 6v28a6 6 0 0 1-6 6h-168a6 6 0 0 1-6-6z" stroke="#000" stroke-opacity="0" stroke-width="3" fill="#fff" fill-opacity="0"/><use xlink:href="#f" transform="matrix(1,0,0,1,-1146.7647058823532,665) translate(0 21.51111111111108)"/><use xlink:href="#g" transform="matrix(1,0,0,1,-1146.7647058823532,665) translate(49.22160493827153 21.51111111111108)"/><use xlink:href="#h" transform="matrix(1,0,0,1,-1146.7647058823532,665) translate(0 53.7777777777777)"/><use xlink:href="#i" transform="matrix(1,0,0,1,-1146.7647058823532,665) translate(53.70308641975301 53.7777777777777)"/><path d="M-1220 466a6 6 0 0 1 6-6h159.77a6 6 0 0 1 6 6v68a6 6 0 0 1-6 6H-1214a6 6 0 0 1-6-6z" stroke="#000" stroke-opacity="0" stroke-width="3" fill="#1b6a3a"/><use xlink:href="#j" transform="matrix(1,0,0,1,-1208,472) translate(25.075000000000003 31.9)"/><use xlink:href="#k" transform="matrix(1,0,0,1,-1208,472) translate(87.025 31.9)"/><path d="M-1520 666a6 6 0 0 1 6-6h328a6 6 0 0 1 6 6v188a6 6 0 0 1-6 6h-328a6 6 0 0 1-6-6z" fill="#baedce"/><path d="M-1494.12 660h19.88m9.94 0h19.88m9.94 0h19.87m9.93 0h19.88m9.95 0h19.88m9.94 0h19.88m9.94 0h19.87m9.94 0h19.88m9.94 0h19.88m9.94 0h19.88m9.94 0h9.94l.94.07.9.22.88.35.8.5.72.6.6.72.5.8.37.88.23.9.07.95v10.44m0 10.45v20.88m0 10.44v20.9m0 10.44v20.88m0 10.45v20.88m0 10.44v20.9m0 10.44V854l-.07.94-.22.9-.35.88-.5.8-.6.72-.72.6-.8.5-.88.37-.9.23-.95.07h-9.94m-9.94 0h-19.88m-9.94 0h-19.88m-9.94 0h-19.87m-9.93 0h-19.88m-9.95 0h-19.88m-9.94 0h-19.88m-9.94 0h-19.87m-9.94 0h-19.88m-9.94 0h-19.88m-9.94 0h-19.88m-9.94 0h-9.94l-.94-.07-.9-.22-.88-.35-.8-.5-.72-.6-.6-.72-.5-.8-.37-.88-.23-.9-.07-.95v-10.44m0-10.45v-20.88m0-10.44v-20.9m0-10.44v-20.88m0-10.45v-20.88m0-10.44v-20.9m0-10.44V666l.07-.94.22-.9.35-.88.5-.8.6-.72.72-.6.8-.5.88-.37.9-.23.95-.07h9.94" stroke="#1b6a3a" stroke-width="2" fill="none"/><path d="M-1520 666a6 6 0 0 1 6-6h168a6 6 0 0 1 6 6v68a6 6 0 0 1-6 6h-168a6 6 0 0 1-6-6z" stroke="#000" stroke-opacity="0" stroke-width="3" fill="#fff" fill-opacity="0"/><use xlink:href="#l" transform="matrix(1,0,0,1,-1515,665) translate(0 21.51111111111108)"/><use xlink:href="#m" transform="matrix(1,0,0,1,-1515,665) translate(0 53.7777777777777)"/><path d="M-1480 746a6 6 0 0 1 6-6h108a6 6 0 0 1 6 6v68a6 6 0 0 1-6 6h-108a6 6 0 0 1-6-6z" stroke="#000" stroke-opacity="0" stroke-width="3" fill="#1b6a3a"/><use xlink:href="#n" transform="matrix(1,0,0,1,-1468,752) translate(23.525 31.9)"/><path d="M-1134.12 541v83a6 6 0 0 1-6 6H-1414a6 6 0 0 0-6 6v85.5" stroke="#7b7d68" stroke-width="2" fill="none"/><path d="M-1133.12 541.03h-2V540h2z" stroke="#7b7d68" stroke-width=".05" fill="#7b7d68"/><path d="M-1420 736.76l-4.63-14.26h9.27z" stroke="#7b7d68" stroke-width="2" fill="#7b7d68"/><path d="M-1340 746a6 6 0 0 1 6-6h108a6 6 0 0 1 6 6v68a6 6 0 0 1-6 6h-108a6 6 0 0 1-6-6z" stroke="#000" stroke-opacity="0" stroke-width="3" fill="#1b6a3a"/><use xlink:href="#o" transform="matrix(1,0,0,1,-1328,752) translate(8.049999999999997 31.9)"/><use xlink:href="#p" transform="matrix(1,0,0,1,-1328,752) translate(41 31.9)"/><path d="M-931.76 666a6 6 0 0 1 6-6H-746a6 6 0 0 1 6 6v188a6 6 0 0 1-6 6h-179.76a6 6 0 0 1-6-6z" fill="#baedce"/><path d="M-905.8 660h19.98m10 0h19.96m10 0h19.97m10 0h19.97m9.98 0h19.98m9.98 0h10l.94.07.9.22.88.35.8.5.72.6.6.72.5.8.37.88.23.9.07.95v10.44m0 10.45v20.88m0 10.44v20.9m0 10.44v20.88m0 10.45v20.88m0 10.44v20.9m0 10.44V854l-.07.94-.22.9-.35.88-.5.8-.6.72-.72.6-.8.5-.88.37-.9.23-.95.07h-10m-9.97 0h-19.98m-9.98 0h-19.98m-10 0h-19.97m-10 0h-19.96m-10 0h-19.96m-9.98 0h-10l-.92-.07-.92-.22-.87-.35-.8-.5-.7-.6-.62-.72-.5-.8-.35-.88-.22-.9-.06-.95v-10.44m0-10.45v-20.88m0-10.44v-20.9m0-10.44v-20.88m0-10.45v-20.88m0-10.44v-20.9m0-10.44V666l.07-.94.23-.9.36-.88.48-.8.6-.72.73-.6.8-.5.88-.37.92-.23.94-.07h9.98" stroke="#1b6a3a" stroke-width="2" fill="none"/><path d="M-891.76 746a6 6 0 0 1 6-6H-786a6 6 0 0 1 6 6v68a6 6 0 0 1-6 6h-99.76a6 6 0 0 1-6-6z" stroke="#000" stroke-opacity="0" stroke-width="3" fill="#1b6a3a"/><g><use xlink:href="#q" transform="matrix(1,0,0,1,-879.7647058823532,752) translate(1.0749999999999957 31.9)"/></g><path d="M-931.76 666a6 6 0 0 1 6-6h168a6 6 0 0 1 6 6v28a6 6 0 0 1-6 6h-168a6 6 0 0 1-6-6z" stroke="#000" stroke-opacity="0" stroke-width="3" fill="#fff" fill-opacity="0"/><g><use xlink:href="#r" transform="matrix(1,0,0,1,-926.7647058823532,665) translate(0 21.51111111111108)"/><use xlink:href="#s" transform="matrix(1,0,0,1,-926.7647058823532,665) translate(0 53.7777777777777)"/><use xlink:href="#i" transform="matrix(1,0,0,1,-926.7647058823532,665) translate(53.70308641975301 53.7777777777777)"/></g><defs><path fill="#1b6a3a" d="M67-125c0 53 21 87 73 88 37 1 54-22 65-47l45 17C233-25 199 4 140 4 58 4 20-42 15-125 8-235 124-281 211-232c18 10 29 29 36 50l-46 12c-8-25-30-41-62-41-52 0-71 34-72 86" id="t"/><path fill="#1b6a3a" d="M110-194c64 0 96 36 96 99 0 64-35 99-97 99-61 0-95-36-95-99 0-62 34-99 96-99zm-1 164c35 0 45-28 45-65 0-40-10-65-43-65-34 0-45 26-45 65 0 36 10 65 43 65" id="u"/><path fill="#1b6a3a" d="M135-194c87-1 58 113 63 194h-50c-7-57 23-157-34-157-59 0-34 97-39 157H25l-1-190h47c2 12-1 28 3 38 12-26 28-41 61-42" id="v"/><path fill="#1b6a3a" d="M115-3C79 11 28 4 28-45v-112H4v-33h27l15-45h31v45h36v33H77v99c-1 23 16 31 38 25v30" id="w"/><path fill="#1b6a3a" d="M185-48c-13 30-37 53-82 52C43 2 14-33 14-96s30-98 90-98c62 0 83 45 84 108H66c0 31 8 55 39 56 18 0 30-7 34-22zm-45-69c5-46-57-63-70-21-2 6-4 13-4 21h74" id="x"/><g id="a"><use transform="matrix(0.06172839506172839,0,0,0.06172839506172839,0,0)" xlink:href="#t"/><use transform="matrix(0.06172839506172839,0,0,0.06172839506172839,15.987654320987653,0)" xlink:href="#u"/><use transform="matrix(0.06172839506172839,0,0,0.06172839506172839,29.50617283950617,0)" xlink:href="#v"/><use transform="matrix(0.06172839506172839,0,0,0.06172839506172839,43.02469135802469,0)" xlink:href="#w"/><use transform="matrix(0.06172839506172839,0,0,0.06172839506172839,50.37037037037037,0)" xlink:href="#x"/><use transform="matrix(0.06172839506172839,0,0,0.06172839506172839,62.716049382716044,0)" xlink:href="#v"/><use transform="matrix(0.06172839506172839,0,0,0.06172839506172839,76.23456790123456,0)" xlink:href="#w"/></g><path fill="#1b6a3a" d="M88-194c31-1 46 15 58 34l-1-101h50l1 261h-48c-2-10 0-23-3-31C134-8 116 4 84 4 32 4 16-41 15-95c0-56 19-97 73-99zm17 164c33 0 40-30 41-66 1-37-9-64-41-64s-38 30-39 65c0 43 13 65 39 65" id="y"/><g id="b"><use transform="matrix(0.06172839506172839,0,0,0.06172839506172839,0,0)" xlink:href="#v"/><use transform="matrix(0.06172839506172839,0,0,0.06172839506172839,13.518518518518517,0)" xlink:href="#u"/><use transform="matrix(0.06172839506172839,0,0,0.06172839506172839,27.037037037037035,0)" xlink:href="#y"/><use transform="matrix(0.06172839506172839,0,0,0.06172839506172839,40.55555555555555,0)" xlink:href="#x"/></g><path fill="#1b6a3a" d="M24-248c120-7 223 5 221 122C244-46 201 0 124 0H24v-248zM76-40c74 7 117-18 117-86 0-67-45-88-117-82v168" id="z"/><path fill="#1b6a3a" d="M190-63c-7 42-38 67-86 67-59 0-84-38-90-98-12-110 154-137 174-36l-49 2c-2-19-15-32-35-32-30 0-35 28-38 64-6 74 65 87 74 30" id="A"/><path fill="#1b6a3a" d="M85 4C-2 5 27-109 22-190h50c7 57-23 150 33 157 60-5 35-97 40-157h50l1 190h-47c-2-12 1-28-3-38-12 25-28 42-61 42" id="B"/><path fill="#1b6a3a" d="M220-157c-53 9-28 100-34 157h-49v-107c1-27-5-49-29-50C55-147 81-57 75 0H25l-1-190h47c2 12-1 28 3 38 10-53 101-56 108 0 13-22 24-43 59-42 82 1 51 116 57 194h-49v-107c-1-25-5-48-29-50" id="C"/><g id="c"><use transform="matrix(0.05,0,0,0.05,0,0)" xlink:href="#z"/><use transform="matrix(0.05,0,0,0.05,12.950000000000001,0)" xlink:href="#u"/><use transform="matrix(0.05,0,0,0.05,23.900000000000002,0)" xlink:href="#A"/><use transform="matrix(0.05,0,0,0.05,33.900000000000006,0)" xlink:href="#B"/><use transform="matrix(0.05,0,0,0.05,44.85000000000001,0)" xlink:href="#C"/><use transform="matrix(0.05,0,0,0.05,60.85,0)" xlink:href="#x"/><use transform="matrix(0.05,0,0,0.05,70.85000000000001,0)" xlink:href="#v"/><use transform="matrix(0.05,0,0,0.05,81.80000000000001,0)" xlink:href="#w"/></g><path fill="#1b6a3a" d="M133-34C117-15 103 5 69 4 32 3 11-16 11-54c-1-60 55-63 116-61 1-26-3-47-28-47-18 1-26 9-28 27l-52-2c7-38 36-58 82-57s74 22 75 68l1 82c-1 14 12 18 25 15v27c-30 8-71 5-69-32zm-48 3c29 0 43-24 42-57-32 0-66-3-65 30 0 17 8 27 23 27" id="D"/><path fill="#1b6a3a" d="M135-194c52 0 70 43 70 98 0 56-19 99-73 100-30 1-46-15-58-35L72 0H24l1-261h50v104c11-23 29-37 60-37zM114-30c31 0 40-27 40-66 0-37-7-63-39-63s-41 28-41 65c0 36 8 64 40 64" id="E"/><path fill="#1b6a3a" d="M137-138c1-29-70-34-71-4 15 46 118 7 119 86 1 83-164 76-172 9l43-7c4 19 20 25 44 25 33 8 57-30 24-41C81-84 22-81 20-136c-2-80 154-74 161-7" id="F"/><g id="d"><use transform="matrix(0.05,0,0,0.05,0,0)" xlink:href="#y"/><use transform="matrix(0.05,0,0,0.05,10.950000000000001,0)" xlink:href="#D"/><use transform="matrix(0.05,0,0,0.05,20.950000000000003,0)" xlink:href="#w"/><use transform="matrix(0.05,0,0,0.05,26.900000000000002,0)" xlink:href="#D"/><use transform="matrix(0.05,0,0,0.05,36.900000000000006,0)" xlink:href="#E"/><use transform="matrix(0.05,0,0,0.05,47.85000000000001,0)" xlink:href="#D"/><use transform="matrix(0.05,0,0,0.05,57.85,0)" xlink:href="#F"/><use transform="matrix(0.05,0,0,0.05,67.85000000000001,0)" xlink:href="#x"/><use transform="matrix(0.05,0,0,0.05,77.85000000000001,0)" xlink:href="#F"/></g><path fill="#fff" d="M185-189c-5-48-123-54-124 2 14 75 158 14 163 119 3 78-121 87-175 55-17-10-28-26-33-46l33-7c5 56 141 63 141-1 0-78-155-14-162-118-5-82 145-84 179-34 5 7 8 16 11 25" id="G"/><path fill="#fff" d="M59-47c-2 24 18 29 38 22v24C64 9 27 4 27-40v-127H5v-23h24l9-43h21v43h35v23H59v120" id="H"/><path fill="#fff" d="M100-194c62-1 85 37 85 99 1 63-27 99-86 99S16-35 15-95c0-66 28-99 85-99zM99-20c44 1 53-31 53-75 0-43-8-75-51-75s-53 32-53 75 10 74 51 75" id="I"/><path fill="#fff" d="M114-163C36-179 61-72 57 0H25l-1-190h30c1 12-1 29 2 39 6-27 23-49 58-41v29" id="J"/><path fill="#fff" d="M100-194c63 0 86 42 84 106H49c0 40 14 67 53 68 26 1 43-12 49-29l28 8c-11 28-37 45-77 45C44 4 14-33 15-96c1-61 26-98 85-98zm52 81c6-60-76-77-97-28-3 7-6 17-6 28h103" id="K"/><path fill="#fff" d="M85-194c31 0 48 13 60 33l-1-100h32l1 261h-30c-2-10 0-23-3-31C134-8 116 4 85 4 32 4 16-35 15-94c0-66 23-100 70-100zm9 24c-40 0-46 34-46 75 0 40 6 74 45 74 42 0 51-32 51-76 0-42-9-74-50-73" id="L"/><g id="e"><use transform="matrix(0.05,0,0,0.05,0,0)" xlink:href="#G"/><use transform="matrix(0.05,0,0,0.05,12,0)" xlink:href="#H"/><use transform="matrix(0.05,0,0,0.05,17,0)" xlink:href="#I"/><use transform="matrix(0.05,0,0,0.05,27,0)" xlink:href="#J"/><use transform="matrix(0.05,0,0,0.05,32.95,0)" xlink:href="#K"/><use transform="matrix(0.05,0,0,0.05,42.95,0)" xlink:href="#L"/></g><path fill="#2e2f27" d="M190 0L58-211 59 0H30v-248h39L202-35l-2-213h31V0h-41" id="M"/><path fill="#2e2f27" d="M100-194c62-1 85 37 85 99 1 63-27 99-86 99S16-35 15-95c0-66 28-99 85-99zM99-20c44 1 53-31 53-75 0-43-8-75-51-75s-53 32-53 75 10 74 51 75" id="N"/><path fill="#2e2f27" d="M59-47c-2 24 18 29 38 22v24C64 9 27 4 27-40v-127H5v-23h24l9-43h21v43h35v23H59v120" id="O"/><g id="f"><use transform="matrix(0.07469135802469125,0,0,0.07469135802469125,0,0)" xlink:href="#M"/><use transform="matrix(0.07469135802469125,0,0,0.07469135802469125,19.345061728395034,0)" xlink:href="#N"/><use transform="matrix(0.07469135802469125,0,0,0.07469135802469125,34.28333333333328,0)" xlink:href="#O"/></g><path fill="#2e2f27" d="M114-163C36-179 61-72 57 0H25l-1-190h30c1 12-1 29 2 39 6-27 23-49 58-41v29" id="P"/><path fill="#2e2f27" d="M100-194c63 0 86 42 84 106H49c0 40 14 67 53 68 26 1 43-12 49-29l28 8c-11 28-37 45-77 45C44 4 14-33 15-96c1-61 26-98 85-98zm52 81c6-60-76-77-97-28-3 7-6 17-6 28h103" id="Q"/><path fill="#2e2f27" d="M141-36C126-15 110 5 73 4 37 3 15-17 15-53c-1-64 63-63 125-63 3-35-9-54-41-54-24 1-41 7-42 31l-33-3c5-37 33-52 76-52 45 0 72 20 72 64v82c-1 20 7 32 28 27v20c-31 9-61-2-59-35zM48-53c0 20 12 33 32 33 41-3 63-29 60-74-43 2-92-5-92 41" id="R"/><path fill="#2e2f27" d="M85-194c31 0 48 13 60 33l-1-100h32l1 261h-30c-2-10 0-23-3-31C134-8 116 4 85 4 32 4 16-35 15-94c0-66 23-100 70-100zm9 24c-40 0-46 34-46 75 0 40 6 74 45 74 42 0 51-32 51-76 0-42-9-74-50-73" id="S"/><path fill="#2e2f27" d="M179-190L93 31C79 59 56 82 12 73V49c39 6 53-20 64-50L1-190h34L92-34l54-156h33" id="T"/><g id="g"><use transform="matrix(0.07469135802469125,0,0,0.07469135802469125,0,0)" xlink:href="#P"/><use transform="matrix(0.07469135802469125,0,0,0.07469135802469125,8.888271604938259,0)" xlink:href="#Q"/><use transform="matrix(0.07469135802469125,0,0,0.07469135802469125,23.826543209876508,0)" xlink:href="#R"/><use transform="matrix(0.07469135802469125,0,0,0.07469135802469125,38.764814814814756,0)" xlink:href="#S"/><use transform="matrix(0.07469135802469125,0,0,0.07469135802469125,53.70308641975301,0)" xlink:href="#T"/></g><path fill="#2e2f27" d="M87 75C49 33 22-17 22-94c0-76 28-126 65-167h31c-38 41-64 92-64 168S80 34 118 75H87" id="U"/><path fill="#2e2f27" d="M117-194c89-4 53 116 60 194h-32v-121c0-31-8-49-39-48C34-167 62-67 57 0H25l-1-190h30c1 10-1 24 2 32 11-22 29-35 61-36" id="V"/><g id="h"><use transform="matrix(0.07469135802469125,0,0,0.07469135802469125,0,0)" xlink:href="#U"/><use transform="matrix(0.07469135802469125,0,0,0.07469135802469125,8.888271604938259,0)" xlink:href="#V"/><use transform="matrix(0.07469135802469125,0,0,0.07469135802469125,23.826543209876508,0)" xlink:href="#N"/><use transform="matrix(0.07469135802469125,0,0,0.07469135802469125,38.764814814814756,0)" xlink:href="#O"/></g><path fill="#2e2f27" d="M24-231v-30h32v30H24zM24 0v-190h32V0H24" id="W"/><path fill="#2e2f27" d="M141 0L90-78 38 0H4l68-98-65-92h35l48 74 47-74h35l-64 92 68 98h-35" id="X"/><path fill="#2e2f27" d="M33-261c38 41 65 92 65 168S71 34 33 75H2C39 34 66-17 66-93S39-220 2-261h31" id="Y"/><g id="i"><use transform="matrix(0.07469135802469125,0,0,0.07469135802469125,0,0)" xlink:href="#W"/><use transform="matrix(0.07469135802469125,0,0,0.07469135802469125,5.900617283950608,0)" xlink:href="#V"/><use transform="matrix(0.07469135802469125,0,0,0.07469135802469125,20.838888888888857,0)" xlink:href="#S"/><use transform="matrix(0.07469135802469125,0,0,0.07469135802469125,35.777160493827104,0)" xlink:href="#Q"/><use transform="matrix(0.07469135802469125,0,0,0.07469135802469125,50.715432098765355,0)" xlink:href="#X"/><use transform="matrix(0.07469135802469125,0,0,0.07469135802469125,64.15987654320978,0)" xlink:href="#Q"/><use transform="matrix(0.07469135802469125,0,0,0.07469135802469125,79.09814814814803,0)" xlink:href="#S"/><use transform="matrix(0.07469135802469125,0,0,0.07469135802469125,94.03641975308628,0)" xlink:href="#Y"/></g><path fill="#fff" d="M141-36C126-15 110 5 73 4 37 3 15-17 15-53c-1-64 63-63 125-63 3-35-9-54-41-54-24 1-41 7-42 31l-33-3c5-37 33-52 76-52 45 0 72 20 72 64v82c-1 20 7 32 28 27v20c-31 9-61-2-59-35zM48-53c0 20 12 33 32 33 41-3 63-29 60-74-43 2-92-5-92 41" id="Z"/><path fill="#fff" d="M96-169c-40 0-48 33-48 73s9 75 48 75c24 0 41-14 43-38l32 2c-6 37-31 61-74 61-59 0-76-41-82-99-10-93 101-131 147-64 4 7 5 14 7 22l-32 3c-4-21-16-35-41-35" id="aa"/><path fill="#fff" d="M106-169C34-169 62-67 57 0H25v-261h32l-1 103c12-21 28-36 61-36 89 0 53 116 60 194h-32v-121c2-32-8-49-39-48" id="ab"/><g id="j"><use transform="matrix(0.05,0,0,0.05,0,0)" xlink:href="#G"/><use transform="matrix(0.05,0,0,0.05,12,0)" xlink:href="#K"/><use transform="matrix(0.05,0,0,0.05,22,0)" xlink:href="#Z"/><use transform="matrix(0.05,0,0,0.05,32,0)" xlink:href="#J"/><use transform="matrix(0.05,0,0,0.05,37.95,0)" xlink:href="#aa"/><use transform="matrix(0.05,0,0,0.05,46.95,0)" xlink:href="#ab"/></g><path fill="#fff" d="M108 0H70L1-190h34L89-25l56-165h34" id="ac"/><path fill="#fff" d="M24-231v-30h32v30H24zM24 0v-190h32V0H24" id="ad"/><path fill="#fff" d="M206 0h-36l-40-164L89 0H53L-1-190h32L70-26l43-164h34l41 164 42-164h31" id="ae"/><g id="k"><use transform="matrix(0.05,0,0,0.05,0,0)" xlink:href="#ac"/><use transform="matrix(0.05,0,0,0.05,9,0)" xlink:href="#ad"/><use transform="matrix(0.05,0,0,0.05,12.949999999999998,0)" xlink:href="#K"/><use transform="matrix(0.05,0,0,0.05,22.95,0)" xlink:href="#ae"/></g><path fill="#2e2f27" d="M233-177c-1 41-23 64-60 70L243 0h-38l-65-103H63V0H30v-248c88 3 205-21 203 71zM63-129c60-2 137 13 137-47 0-61-80-42-137-45v92" id="af"/><g id="l"><use transform="matrix(0.07469135802469125,0,0,0.07469135802469125,0,0)" xlink:href="#af"/><use transform="matrix(0.07469135802469125,0,0,0.07469135802469125,19.345061728395034,0)" xlink:href="#Q"/><use transform="matrix(0.07469135802469125,0,0,0.07469135802469125,34.28333333333328,0)" xlink:href="#R"/><use transform="matrix(0.07469135802469125,0,0,0.07469135802469125,49.22160493827153,0)" xlink:href="#S"/><use transform="matrix(0.07469135802469125,0,0,0.07469135802469125,64.15987654320978,0)" xlink:href="#T"/></g><g id="m"><use transform="matrix(0.07469135802469125,0,0,0.07469135802469125,0,0)" xlink:href="#U"/><use transform="matrix(0.07469135802469125,0,0,0.07469135802469125,8.888271604938259,0)" xlink:href="#W"/><use transform="matrix(0.07469135802469125,0,0,0.07469135802469125,14.788888888888867,0)" xlink:href="#V"/><use transform="matrix(0.07469135802469125,0,0,0.07469135802469125,29.727160493827114,0)" xlink:href="#S"/><use transform="matrix(0.07469135802469125,0,0,0.07469135802469125,44.665432098765365,0)" xlink:href="#Q"/><use transform="matrix(0.07469135802469125,0,0,0.07469135802469125,59.603703703703616,0)" xlink:href="#X"/><use transform="matrix(0.07469135802469125,0,0,0.07469135802469125,73.04814814814804,0)" xlink:href="#Q"/><use transform="matrix(0.07469135802469125,0,0,0.07469135802469125,87.9864197530863,0)" xlink:href="#S"/><use transform="matrix(0.07469135802469125,0,0,0.07469135802469125,102.92469135802455,0)" xlink:href="#Y"/></g><path fill="#fff" d="M205 0l-28-72H64L36 0H1l101-248h38L239 0h-34zm-38-99l-47-123c-12 45-31 82-46 123h93" id="ag"/><g id="n"><use transform="matrix(0.05,0,0,0.05,0,0)" xlink:href="#ag"/><use transform="matrix(0.05,0,0,0.05,12,0)" xlink:href="#aa"/><use transform="matrix(0.05,0,0,0.05,21,0)" xlink:href="#H"/><use transform="matrix(0.05,0,0,0.05,26,0)" xlink:href="#ad"/><use transform="matrix(0.05,0,0,0.05,29.950000000000003,0)" xlink:href="#ac"/><use transform="matrix(0.05,0,0,0.05,38.95,0)" xlink:href="#K"/></g><path fill="#fff" d="M190 0L58-211 59 0H30v-248h39L202-35l-2-213h31V0h-41" id="ah"/><g id="o"><use transform="matrix(0.05,0,0,0.05,0,0)" xlink:href="#ah"/><use transform="matrix(0.05,0,0,0.05,12.950000000000001,0)" xlink:href="#I"/><use transform="matrix(0.05,0,0,0.05,22.950000000000003,0)" xlink:href="#H"/></g><g id="p"><use transform="matrix(0.05,0,0,0.05,0,0)" xlink:href="#Z"/><use transform="matrix(0.05,0,0,0.05,10,0)" xlink:href="#aa"/><use transform="matrix(0.05,0,0,0.05,19,0)" xlink:href="#H"/><use transform="matrix(0.05,0,0,0.05,24,0)" xlink:href="#ad"/><use transform="matrix(0.05,0,0,0.05,27.950000000000003,0)" xlink:href="#ac"/><use transform="matrix(0.05,0,0,0.05,36.95,0)" xlink:href="#K"/></g><path fill="#fff" d="M160-131c35 5 61 23 61 61C221 17 115-2 30 0v-248c76 3 177-17 177 60 0 33-19 50-47 57zm-97-11c50-1 110 9 110-42 0-47-63-36-110-37v79zm0 115c55-2 124 14 124-45 0-56-70-42-124-44v89" id="ai"/><path fill="#fff" d="M24 0v-261h32V0H24" id="aj"/><path fill="#fff" d="M143 0L79-87 56-68V0H24v-261h32v163l83-92h37l-77 82L181 0h-38" id="ak"/><path fill="#fff" d="M135-143c-3-34-86-38-87 0 15 53 115 12 119 90S17 21 10-45l28-5c4 36 97 45 98 0-10-56-113-15-118-90-4-57 82-63 122-42 12 7 21 19 24 35" id="al"/><g id="q"><use transform="matrix(0.05,0,0,0.05,0,0)" xlink:href="#ai"/><use transform="matrix(0.05,0,0,0.05,12,0)" xlink:href="#aj"/><use transform="matrix(0.05,0,0,0.05,15.949999999999998,0)" xlink:href="#Z"/><use transform="matrix(0.05,0,0,0.05,25.950000000000003,0)" xlink:href="#aa"/><use transform="matrix(0.05,0,0,0.05,34.95,0)" xlink:href="#ak"/><use transform="matrix(0.05,0,0,0.05,43.95,0)" xlink:href="#aj"/><use transform="matrix(0.05,0,0,0.05,47.900000000000006,0)" xlink:href="#ad"/><use transform="matrix(0.05,0,0,0.05,51.85,0)" xlink:href="#al"/><use transform="matrix(0.05,0,0,0.05,60.85,0)" xlink:href="#H"/><use transform="matrix(0.05,0,0,0.05,65.85000000000001,0)" xlink:href="#K"/><use transform="matrix(0.05,0,0,0.05,75.85000000000001,0)" xlink:href="#L"/></g><path fill="#2e2f27" d="M210-169c-67 3-38 105-44 169h-31v-121c0-29-5-50-35-48C34-165 62-65 56 0H25l-1-190h30c1 10-1 24 2 32 10-44 99-50 107 0 11-21 27-35 58-36 85-2 47 119 55 194h-31v-121c0-29-5-49-35-48" id="am"/><path fill="#2e2f27" d="M108 0H70L1-190h34L89-25l56-165h34" id="an"/><g id="r"><use transform="matrix(0.07469135802469125,0,0,0.07469135802469125,0,0)" xlink:href="#af"/><use transform="matrix(0.07469135802469125,0,0,0.07469135802469125,19.345061728395034,0)" xlink:href="#Q"/><use transform="matrix(0.07469135802469125,0,0,0.07469135802469125,34.28333333333328,0)" xlink:href="#am"/><use transform="matrix(0.07469135802469125,0,0,0.07469135802469125,56.616049382715964,0)" xlink:href="#N"/><use transform="matrix(0.07469135802469125,0,0,0.07469135802469125,71.55432098765421,0)" xlink:href="#an"/><use transform="matrix(0.07469135802469125,0,0,0.07469135802469125,84.99876543209864,0)" xlink:href="#Q"/><use transform="matrix(0.07469135802469125,0,0,0.07469135802469125,99.93703703703689,0)" xlink:href="#S"/></g><g id="s"><use transform="matrix(0.07469135802469125,0,0,0.07469135802469125,0,0)" xlink:href="#U"/><use transform="matrix(0.07469135802469125,0,0,0.07469135802469125,8.888271604938259,0)" xlink:href="#V"/><use transform="matrix(0.07469135802469125,0,0,0.07469135802469125,23.826543209876508,0)" xlink:href="#N"/><use transform="matrix(0.07469135802469125,0,0,0.07469135802469125,38.764814814814756,0)" xlink:href="#O"/></g></defs></g></svg>