<svg xmlns="http://www.w3.org/2000/svg" xmlns:xlink="http://www.w3.org/1999/xlink" xmlns:lucid="lucid" width="1243" height="1442.5"><g transform="translate(1481.5 61)" lucid:page-tab-id="0_0"><path d="M-1500-500H0v2000h-1500z" fill="#fff"/><path d="M-1460 86a6 6 0 0 1 6-6h1188a6 6 0 0 1 6 6v1268a6 6 0 0 1-6 6h-1188a6 6 0 0 1-6-6z" stroke="#000" stroke-opacity="0" stroke-width="3" fill="#baedce"/><path d="M-1380 386a6 6 0 0 1 6-6h1068a6 6 0 0 1 6 6v930.6a6 6 0 0 1-6 6h-1068a6 6 0 0 1-6-6z" stroke="#1b6a3a" stroke-width="2" fill="#fff"/><path d="M-1400 363.4a6 6 0 0 1 6-6h1068a6 6 0 0 1 6 6V1294a6 6 0 0 1-6 6h-1068a6 6 0 0 1-6-6z" stroke="#1b6a3a" stroke-width="2" fill="#fff"/><path d="M-1420 343.4a6 6 0 0 1 6-6h1068a6 6 0 0 1 6 6V1274a6 6 0 0 1-6 6h-1068a6 6 0 0 1-6-6z" stroke="#1b6a3a" stroke-width="2" fill="#fff"/><path d="M-1380 666a6 6 0 0 1 6-6h388a6 6 0 0 1 6 6v573.2a6 6 0 0 1-6 6h-388a6 6 0 0 1-6-6z" fill="#baedce"/><path d="M-1354.1 660h19.9m9.94 0h19.9m9.95 0h19.9m9.94 0h19.9m9.94 0h19.9m9.95 0h19.9m9.94 0h19.9m9.95 0h19.9m9.95 0h19.9m9.94 0h19.9m9.96 0h19.9m9.94 0h19.9m9.95 0h9.95l.94.07.9.22.88.35.8.5.72.6.6.72.5.8.37.88.23.9.07.95v10.06m0 10.05v20.13m0 10.05v20.1m0 10.07v20.1m0 10.07v20.1m0 10.07v20.1m0 10.05v20.12m0 10.05v20.12m0 10.05v20.1m0 10.06v20.1m0 10.07v20.1m0 10.07v20.1m0 10.07v20.1m0 10.06v20.12m0 10.05v20.1m0 10.07v20.1m0 10.07v20.1m0 10.07v20.12m0 10.05v20.12m0 10.04v10.06l-.07.94-.22.9-.35.88-.5.8-.6.72-.72.6-.8.5-.88.37-.9.23-.95.07h-9.95m-9.95 0h-19.9m-9.94 0h-19.9m-9.95 0h-19.9m-9.94 0h-19.9m-9.94 0h-19.9m-9.95 0h-19.9m-9.94 0h-19.9m-9.95 0h-19.9m-9.95 0h-19.9m-9.94 0h-19.9m-9.96 0h-19.9m-9.94 0h-19.9m-9.95 0h-9.95l-.94-.07-.9-.22-.88-.35-.8-.5-.72-.6-.6-.72-.5-.8-.37-.88-.23-.9-.07-.95v-10.06m0-10.05v-20.13m0-10.05v-20.1m0-10.07v-20.1m0-10.07v-20.1m0-10.07v-20.1m0-10.05v-20.12m0-10.05v-20.1m0-10.07v-20.1m0-10.06v-20.1m0-10.07v-20.1m0-10.07v-20.1m0-10.06V867.1m0-10.05v-20.12m0-10.05v-20.1m0-10.07v-20.1m0-10.07v-20.1m0-10.07v-20.12m0-10.05V686.1m0-10.04V666l.07-.94.22-.9.35-.88.5-.8.6-.72.72-.6.8-.5.88-.37.9-.23.95-.07h9.95" stroke="#1b6a3a" stroke-width="2" fill="none"/><path d="M-1360 1146a6 6 0 0 1 6-6h119.77a6 6 0 0 1 6 6v68a6 6 0 0 1-6 6H-1354a6 6 0 0 1-6-6z" stroke="#000" stroke-opacity="0" stroke-width="3" fill="#1b6a3a"/><use xlink:href="#a" transform="matrix(1,0,0,1,-1348,1152) translate(32 31.9)"/><path d="M-1131.77 1146a6 6 0 0 1 6-6H-1006a6 6 0 0 1 6 6v68a6 6 0 0 1-6 6h-119.77a6 6 0 0 1-6-6z" stroke="#000" stroke-opacity="0" stroke-width="3" fill="#1b6a3a"/><use xlink:href="#b" transform="matrix(1,0,0,1,-1119.7647058823532,1152) translate(13.049999999999997 21.4)"/><use xlink:href="#c" transform="matrix(1,0,0,1,-1119.7647058823532,1152) translate(34.025 43)"/><path d="M-1360 1026a6 6 0 0 1 6-6h119.77a6 6 0 0 1 6 6v68a6 6 0 0 1-6 6H-1354a6 6 0 0 1-6-6z" stroke="#000" stroke-opacity="0" stroke-width="3" fill="#1b6a3a"/><use xlink:href="#d" transform="matrix(1,0,0,1,-1348,1032) translate(32 21.4)"/><use xlink:href="#e" transform="matrix(1,0,0,1,-1348,1032) translate(18.549999999999997 43)"/><path d="M-1131.77 1026a6 6 0 0 1 6-6H-1006a6 6 0 0 1 6 6v68a6 6 0 0 1-6 6h-119.77a6 6 0 0 1-6-6z" stroke="#000" stroke-opacity="0" stroke-width="3" fill="#1b6a3a"/><use xlink:href="#f" transform="matrix(1,0,0,1,-1119.7647058823532,1032) translate(15.574999999999996 21.4)"/><use xlink:href="#e" transform="matrix(1,0,0,1,-1119.7647058823532,1032) translate(18.549999999999997 43)"/><path d="M-1131.77 886a6 6 0 0 1 6-6H-1006a6 6 0 0 1 6 6v68a6 6 0 0 1-6 6h-119.77a6 6 0 0 1-6-6z" stroke="#000" stroke-opacity="0" stroke-width="3" fill="#1b6a3a"/><use xlink:href="#b" transform="matrix(1,0,0,1,-1119.7647058823532,892) translate(13.049999999999997 21.4)"/><use xlink:href="#g" transform="matrix(1,0,0,1,-1119.7647058823532,892) translate(14.049999999999997 43)"/><path d="M-1360 880.8a6 6 0 0 1 6-6h119.77a6 6 0 0 1 6 6v68a6 6 0 0 1-6 6H-1354a6 6 0 0 1-6-6z" stroke="#000" stroke-opacity="0" stroke-width="3" fill="#1b6a3a"/><use xlink:href="#h" transform="matrix(1,0,0,1,-1348,886.8000000000467) translate(16.049999999999997 31.9)"/><path d="M-1360 760.8a6 6 0 0 1 6-6h119.77a6 6 0 0 1 6 6v68a6 6 0 0 1-6 6H-1354a6 6 0 0 1-6-6z" stroke="#000" stroke-opacity="0" stroke-width="3" fill="#1b6a3a"/><use xlink:href="#i" transform="matrix(1,0,0,1,-1348,766.8000000000466) translate(20.549999999999997 21.4)"/><use xlink:href="#e" transform="matrix(1,0,0,1,-1348,766.8000000000466) translate(18.549999999999997 43)"/><path d="M-1131.77 760.8a6 6 0 0 1 6-6H-1006a6 6 0 0 1 6 6v68a6 6 0 0 1-6 6h-119.77a6 6 0 0 1-6-6z" stroke="#000" stroke-opacity="0" stroke-width="3" fill="#1b6a3a"/><use xlink:href="#j" transform="matrix(1,0,0,1,-1119.7647058823532,766.8000000000466) translate(15.574999999999996 31.9)"/><path d="M-1065.88 1101v20.5" stroke="#5e5e5e" stroke-width="2" fill="none"/><path d="M-1064.88 1101.03h-2V1100h2z" stroke="#5e5e5e" stroke-width=".05" fill="#5e5e5e"/><path d="M-1065.88 1136.76l-4.64-14.26h9.27z" stroke="#5e5e5e" stroke-width="2" fill="#5e5e5e"/><path d="M-1294.12 1101v20.5" stroke="#5e5e5e" stroke-width="2" fill="none"/><path d="M-1293.12 1101.03h-2V1100h2z" stroke="#5e5e5e" stroke-width=".05" fill="#5e5e5e"/><path d="M-1294.12 1136.76l-4.63-14.26h9.27z" stroke="#5e5e5e" stroke-width="2" fill="#5e5e5e"/><path d="M-1294.12 835.8v20.5" stroke="#5e5e5e" stroke-width="2" fill="none"/><path d="M-1293.12 835.83h-2v-1.03h2z" stroke="#5e5e5e" stroke-width=".05" fill="#5e5e5e"/><path d="M-1294.12 871.56l-4.63-14.26h9.27z" stroke="#5e5e5e" stroke-width="2" fill="#5e5e5e"/><path d="M-1065.88 835.8v25.7" stroke="#5e5e5e" stroke-width="2" fill="none"/><path d="M-1064.88 835.83h-2v-1.03h2z" stroke="#5e5e5e" stroke-width=".05" fill="#5e5e5e"/><path d="M-1065.88 876.76l-4.64-14.26h9.27z" stroke="#5e5e5e" stroke-width="2" fill="#5e5e5e"/><path d="M-1132.77 794.8h-33a6 6 0 0 0-6 6V974a6 6 0 0 0 6 6h93.9a6 6 0 0 1 6 6v15.5" stroke="#5e5e5e" stroke-width="2" fill="none"/><path d="M-1131.77 795.8h-1.02v-2h1.03z" stroke="#5e5e5e" stroke-width=".05" fill="#5e5e5e"/><path d="M-1065.88 1016.76l-4.64-14.26h9.27z" stroke="#5e5e5e" stroke-width="2" fill="#5e5e5e"/><path d="M-1132.77 793.43h-33a6 6 0 0 1-6-6v-33.1a.88.88 0 0 1 .9-.9.88.88 0 0 1 .87.9V974a6 6 0 0 1-6 6h-112.12a6 6 0 0 0-6 6v15.5" stroke="#5e5e5e" stroke-width="2" fill="none"/><path d="M-1131.77 794.43h-1.02v-2h1.03z" stroke="#5e5e5e" stroke-width=".05" fill="#5e5e5e"/><path d="M-1294.12 1016.76l-4.63-14.26h9.27z" stroke="#5e5e5e" stroke-width="2" fill="#5e5e5e"/><path d="M-1132.77 794.8h-76.96" stroke="#5e5e5e" stroke-width="2" fill="none"/><path d="M-1131.77 795.8h-1.02v-2h1.03z" stroke="#5e5e5e" stroke-width=".05" fill="#5e5e5e"/><path d="M-1225 794.8l14.27-4.63v9.26z" stroke="#5e5e5e" stroke-width="2" fill="#5e5e5e"/><path d="M-1380 686a6 6 0 0 1 6-6h108a6 6 0 0 1 6 6v28a6 6 0 0 1-6 6h-108a6 6 0 0 1-6-6z" stroke="#000" stroke-opacity="0" stroke-width="3" fill="#fff" fill-opacity="0"/><use xlink:href="#k" transform="matrix(1,0,0,1,-1375,685) translate(0 21.51111111111108)"/><path d="M-900 666a6 6 0 0 1 6-6h208a6 6 0 0 1 6 6v573.2a6 6 0 0 1-6 6h-208a6 6 0 0 1-6-6z" fill="#baedce"/><path d="M-874.2 660h19.82m9.9 0h19.8m9.92 0h19.8m9.9 0h19.82m9.9 0h19.82m9.9 0h19.8m9.92 0h9.9l.94.07.9.22.88.35.8.5.72.6.6.72.5.8.37.88.23.9.07.95v10.06m0 10.05v20.13m0 10.05v20.1m0 10.07v20.1m0 10.07v20.1m0 10.07v20.1m0 10.05v20.12m0 10.05v20.12m0 10.05v20.1m0 10.06v20.1m0 10.07v20.1m0 10.07v20.1m0 10.07v20.1m0 10.06v20.12m0 10.05v20.1m0 10.07v20.1m0 10.07v20.1m0 10.07v20.12m0 10.05v20.12m0 10.04v10.06l-.07.94-.22.9-.35.88-.5.8-.6.72-.72.6-.8.5-.88.37-.9.23-.95.07h-9.9m-9.9 0h-19.82m-9.9 0h-19.8m-9.92 0h-19.8m-9.9 0h-19.82m-9.9 0h-19.82m-9.9 0h-19.8m-9.92 0h-9.9l-.94-.07-.9-.22-.88-.35-.8-.5-.72-.6-.6-.72-.5-.8-.37-.88-.23-.9-.07-.95v-10.06m0-10.05v-20.13m0-10.05v-20.1m0-10.07v-20.1m0-10.07v-20.1m0-10.07v-20.1m0-10.05v-20.12m0-10.05v-20.1m0-10.07v-20.1m0-10.06v-20.1m0-10.07v-20.1m0-10.07v-20.1m0-10.06V867.1m0-10.05v-20.12m0-10.05v-20.1m0-10.07v-20.1m0-10.07v-20.1m0-10.07v-20.12m0-10.05V686.1m0-10.04V666l.07-.94.22-.9.35-.88.5-.8.6-.72.72-.6.8-.5.88-.37.9-.23.95-.07h9.9" stroke="#1b6a3a" stroke-width="2" fill="none"/><path d="M-831.76 1146a6 6 0 0 1 6-6H-706a6 6 0 0 1 6 6v68a6 6 0 0 1-6 6h-119.76a6 6 0 0 1-6-6z" stroke="#000" stroke-opacity="0" stroke-width="3" fill="#1b6a3a"/><use xlink:href="#b" transform="matrix(1,0,0,1,-819.764705882353,1152) translate(13.049999999999997 21.4)"/><use xlink:href="#c" transform="matrix(1,0,0,1,-819.764705882353,1152) translate(34.025 43)"/><path d="M-831.76 1026a6 6 0 0 1 6-6H-706a6 6 0 0 1 6 6v68a6 6 0 0 1-6 6h-119.76a6 6 0 0 1-6-6z" stroke="#000" stroke-opacity="0" stroke-width="3" fill="#1b6a3a"/><use xlink:href="#f" transform="matrix(1,0,0,1,-819.764705882353,1032) translate(15.574999999999996 21.4)"/><use xlink:href="#e" transform="matrix(1,0,0,1,-819.764705882353,1032) translate(18.549999999999997 43)"/><path d="M-831.76 886a6 6 0 0 1 6-6H-706a6 6 0 0 1 6 6v68a6 6 0 0 1-6 6h-119.76a6 6 0 0 1-6-6z" stroke="#000" stroke-opacity="0" stroke-width="3" fill="#1b6a3a"/><use xlink:href="#b" transform="matrix(1,0,0,1,-819.764705882353,892) translate(13.049999999999997 21.4)"/><use xlink:href="#g" transform="matrix(1,0,0,1,-819.764705882353,892) translate(14.049999999999997 43)"/><path d="M-831.76 760.8a6 6 0 0 1 6-6H-706a6 6 0 0 1 6 6v68a6 6 0 0 1-6 6h-119.76a6 6 0 0 1-6-6z" stroke="#000" stroke-opacity="0" stroke-width="3" fill="#1b6a3a"/><use xlink:href="#l" transform="matrix(1,0,0,1,-819.764705882353,766.8000000000466) translate(23.124999999999996 21.4)"/><use xlink:href="#m" transform="matrix(1,0,0,1,-819.764705882353,766.8000000000466) translate(15.574999999999996 43)"/><path d="M-765.88 1101v20.5" stroke="#5e5e5e" stroke-width="2" fill="none"/><path d="M-764.88 1101.03h-2V1100h2z" stroke="#5e5e5e" stroke-width=".05" fill="#5e5e5e"/><path d="M-765.88 1136.76l-4.64-14.26h9.27z" stroke="#5e5e5e" stroke-width="2" fill="#5e5e5e"/><path d="M-765.88 835.8v25.7" stroke="#5e5e5e" stroke-width="2" fill="none"/><path d="M-764.88 835.83h-2v-1.03h2z" stroke="#5e5e5e" stroke-width=".05" fill="#5e5e5e"/><path d="M-765.88 876.76l-4.64-14.26h9.27z" stroke="#5e5e5e" stroke-width="2" fill="#5e5e5e"/><path d="M-832.76 794.8h-33a6 6 0 0 0-6 6V974a6 6 0 0 0 6 6h93.88a6 6 0 0 1 6 6v15.5" stroke="#5e5e5e" stroke-width="2" fill="none"/><path d="M-831.76 795.8h-1.03v-2h1.03z" stroke="#5e5e5e" stroke-width=".05" fill="#5e5e5e"/><path d="M-765.88 1016.76l-4.64-14.26h9.27z" stroke="#5e5e5e" stroke-width="2" fill="#5e5e5e"/><path d="M-900 686a6 6 0 0 1 6-6h168a6 6 0 0 1 6 6v28a6 6 0 0 1-6 6h-168a6 6 0 0 1-6-6z" stroke="#000" stroke-opacity="0" stroke-width="3" fill="#fff" fill-opacity="0"/><use xlink:href="#n" transform="matrix(1,0,0,1,-895,685) translate(0 21.51111111111108)"/><use xlink:href="#o" transform="matrix(1,0,0,1,-895,685) translate(49.22160493827153 21.51111111111108)"/><path d="M-600 666a6 6 0 0 1 6-6h208a6 6 0 0 1 6 6v573.2a6 6 0 0 1-6 6h-208a6 6 0 0 1-6-6z" fill="#baedce"/><path d="M-574.2 660h19.82m9.9 0h19.8m9.92 0h19.8m9.9 0h19.82m9.9 0h19.82m9.9 0h19.8m9.92 0h9.9l.94.07.9.22.88.35.8.5.72.6.6.72.5.8.37.88.23.9.07.95v10.06m0 10.05v20.13m0 10.05v20.1m0 10.07v20.1m0 10.07v20.1m0 10.07v20.1m0 10.05v20.12m0 10.05v20.12m0 10.05v20.1m0 10.06v20.1m0 10.07v20.1m0 10.07v20.1m0 10.07v20.1m0 10.06v20.12m0 10.05v20.1m0 10.07v20.1m0 10.07v20.1m0 10.07v20.12m0 10.05v20.12m0 10.04v10.06l-.07.94-.22.9-.35.88-.5.8-.6.72-.72.6-.8.5-.88.37-.9.23-.95.07h-9.9m-9.9 0h-19.82m-9.9 0h-19.8m-9.92 0h-19.8m-9.9 0h-19.82m-9.9 0h-19.82m-9.9 0h-19.8m-9.92 0h-9.9l-.94-.07-.9-.22-.88-.35-.8-.5-.72-.6-.6-.72-.5-.8-.37-.88-.23-.9-.07-.95v-10.06m0-10.05v-20.13m0-10.05v-20.1m0-10.07v-20.1m0-10.07v-20.1m0-10.07v-20.1m0-10.05v-20.12m0-10.05v-20.1m0-10.07v-20.1m0-10.06v-20.1m0-10.07v-20.1m0-10.07v-20.1m0-10.06V867.1m0-10.05v-20.12m0-10.05v-20.1m0-10.07v-20.1m0-10.07v-20.1m0-10.07v-20.12m0-10.05V686.1m0-10.04V666l.07-.94.22-.9.35-.88.5-.8.6-.72.72-.6.8-.5.88-.37.9-.23.95-.07h9.9" stroke="#1b6a3a" stroke-width="2" fill="none"/><path d="M-531.76 1146a6 6 0 0 1 6-6H-406a6 6 0 0 1 6 6v68a6 6 0 0 1-6 6h-119.76a6 6 0 0 1-6-6z" stroke="#000" stroke-opacity="0" stroke-width="3" fill="#1b6a3a"/><use xlink:href="#b" transform="matrix(1,0,0,1,-519.764705882353,1152) translate(13.049999999999997 21.4)"/><use xlink:href="#c" transform="matrix(1,0,0,1,-519.764705882353,1152) translate(34.025 43)"/><path d="M-531.76 1026a6 6 0 0 1 6-6H-406a6 6 0 0 1 6 6v68a6 6 0 0 1-6 6h-119.76a6 6 0 0 1-6-6z" stroke="#000" stroke-opacity="0" stroke-width="3" fill="#1b6a3a"/><use xlink:href="#f" transform="matrix(1,0,0,1,-519.764705882353,1032) translate(15.574999999999996 21.4)"/><use xlink:href="#e" transform="matrix(1,0,0,1,-519.764705882353,1032) translate(18.549999999999997 43)"/><path d="M-531.76 886a6 6 0 0 1 6-6H-406a6 6 0 0 1 6 6v68a6 6 0 0 1-6 6h-119.76a6 6 0 0 1-6-6z" stroke="#000" stroke-opacity="0" stroke-width="3" fill="#1b6a3a"/><use xlink:href="#b" transform="matrix(1,0,0,1,-519.764705882353,892) translate(13.049999999999997 21.4)"/><use xlink:href="#g" transform="matrix(1,0,0,1,-519.764705882353,892) translate(14.049999999999997 43)"/><path d="M-531.76 760.8a6 6 0 0 1 6-6H-406a6 6 0 0 1 6 6v68a6 6 0 0 1-6 6h-119.76a6 6 0 0 1-6-6z" stroke="#000" stroke-opacity="0" stroke-width="3" fill="#1b6a3a"/><use xlink:href="#l" transform="matrix(1,0,0,1,-519.764705882353,766.8000000000466) translate(23.124999999999996 21.4)"/><use xlink:href="#m" transform="matrix(1,0,0,1,-519.764705882353,766.8000000000466) translate(15.574999999999996 43)"/><path d="M-465.88 1101v20.5" stroke="#5e5e5e" stroke-width="2" fill="none"/><path d="M-464.88 1101.03h-2V1100h2z" stroke="#5e5e5e" stroke-width=".05" fill="#5e5e5e"/><path d="M-465.88 1136.76l-4.64-14.26h9.27z" stroke="#5e5e5e" stroke-width="2" fill="#5e5e5e"/><path d="M-465.88 835.8v25.7" stroke="#5e5e5e" stroke-width="2" fill="none"/><path d="M-464.88 835.83h-2v-1.03h2z" stroke="#5e5e5e" stroke-width=".05" fill="#5e5e5e"/><path d="M-465.88 876.76l-4.64-14.26h9.27z" stroke="#5e5e5e" stroke-width="2" fill="#5e5e5e"/><path d="M-532.76 794.8h-33a6 6 0 0 0-6 6V974a6 6 0 0 0 6 6h93.88a6 6 0 0 1 6 6v15.5" stroke="#5e5e5e" stroke-width="2" fill="none"/><path d="M-531.76 795.8h-1.03v-2h1.03z" stroke="#5e5e5e" stroke-width=".05" fill="#5e5e5e"/><path d="M-465.88 1016.76l-4.64-14.26h9.27z" stroke="#5e5e5e" stroke-width="2" fill="#5e5e5e"/><path d="M-600 686a6 6 0 0 1 6-6h168a6 6 0 0 1 6 6v28a6 6 0 0 1-6 6h-168a6 6 0 0 1-6-6z" stroke="#000" stroke-opacity="0" stroke-width="3" fill="#fff" fill-opacity="0"/><use xlink:href="#p" transform="matrix(1,0,0,1,-595,685) translate(0 21.51111111111108)"/><path d="M-1420 346a6 6 0 0 1 6-6h179.77a6 6 0 0 1 6 6v28a6 6 0 0 1-6 6H-1414a6 6 0 0 1-6-6z" stroke="#000" stroke-opacity="0" stroke-width="3" fill="#fff" fill-opacity="0"/><use xlink:href="#q" transform="matrix(1,0,0,1,-1415,345) translate(0 21.51111111111108)"/><use xlink:href="#r" transform="matrix(1,0,0,1,-1415,345) translate(129.81358024691338 21.51111111111108)"/><path d="M-940 506a6 6 0 0 1 6-6h119.76a6 6 0 0 1 6 6v68a6 6 0 0 1-6 6H-934a6 6 0 0 1-6-6z" stroke="#000" stroke-opacity="0" stroke-width="3" fill="#1b6a3a"/><use xlink:href="#s" transform="matrix(1,0,0,1,-928,512) translate(11.099999999999994 21.4)"/><use xlink:href="#m" transform="matrix(1,0,0,1,-928,512) translate(15.574999999999996 43)"/><path d="M-940 386a6 6 0 0 1 6-6h119.76a6 6 0 0 1 6 6v68a6 6 0 0 1-6 6H-934a6 6 0 0 1-6-6z" stroke="#000" stroke-opacity="0" stroke-width="3" fill="#1b6a3a"/><use xlink:href="#t" transform="matrix(1,0,0,1,-928,392) translate(2.0999999999999943 31.9)"/><path d="M-740 386a6 6 0 0 1 6-6h119.76a6 6 0 0 1 6 6v68a6 6 0 0 1-6 6H-734a6 6 0 0 1-6-6z" stroke="#000" stroke-opacity="0" stroke-width="3" fill="#1b6a3a"/><use xlink:href="#u" transform="matrix(1,0,0,1,-728,392) translate(7.399999999999999 21.4)"/><use xlink:href="#v" transform="matrix(1,0,0,1,-728,392) translate(42.025 43)"/><path d="M-874.12 461v20.5" stroke="#5e5e5e" stroke-width="2" fill="none"/><path d="M-873.12 461.03h-2V460h2z" stroke="#5e5e5e" stroke-width=".05" fill="#5e5e5e"/><path d="M-874.12 496.76l-4.63-14.26h9.27z" stroke="#5e5e5e" stroke-width="2" fill="#5e5e5e"/><path d="M-874.12 42v59.5" stroke="#5e5e5e" stroke-width="2" fill="none"/><path d="M-873.12 42.03h-2V41h2z" stroke="#5e5e5e" stroke-width=".05" fill="#5e5e5e"/><path d="M-874.12 116.76l-4.63-14.26h9.27z" stroke="#5e5e5e" stroke-width="2" fill="#5e5e5e"/><path d="M-807.24 420h48.74" stroke="#5e5e5e" stroke-width="2" fill="none"/><path d="M-807.2 421h-1.03v-2h1.02z" stroke="#5e5e5e" stroke-width=".05" fill="#5e5e5e"/><path d="M-743.24 420l-14.26 4.63v-9.26z" stroke="#5e5e5e" stroke-width="2" fill="#5e5e5e"/><path d="M-874.12 581v13a6 6 0 0 0 6 6h396.24a6 6 0 0 1 6 6v130.3" stroke="#5e5e5e" stroke-width="2" fill="none"/><path d="M-873.12 581.03h-2V580h2z" stroke="#5e5e5e" stroke-width=".05" fill="#5e5e5e"/><path d="M-465.88 751.56l-4.64-14.26h9.27z" stroke="#5e5e5e" stroke-width="2" fill="#5e5e5e"/><path d="M-874.12 581v33a6 6 0 0 0 6 6h96.24a6 6 0 0 1 6 6v110.3" stroke="#5e5e5e" stroke-width="2" fill="none"/><path d="M-873.12 581.03h-2V580h2z" stroke="#5e5e5e" stroke-width=".05" fill="#5e5e5e"/><path d="M-765.88 751.56l-4.64-14.26h9.27z" stroke="#5e5e5e" stroke-width="2" fill="#5e5e5e"/><path d="M-874.12 581v53a6 6 0 0 1-6 6h-179.76a6 6 0 0 0-6 6v90.3" stroke="#5e5e5e" stroke-width="2" fill="none"/><path d="M-873.12 581.03h-2V580h2z" stroke="#5e5e5e" stroke-width=".05" fill="#5e5e5e"/><path d="M-1065.88 751.56l-4.64-14.26h9.27z" stroke="#5e5e5e" stroke-width="2" fill="#5e5e5e"/><path d="M-940 246a6 6 0 0 1 6-6h119.76a6 6 0 0 1 6 6v68a6 6 0 0 1-6 6H-934a6 6 0 0 1-6-6z" stroke="#000" stroke-opacity="0" stroke-width="3" fill="#1b6a3a"/><use xlink:href="#w" transform="matrix(1,0,0,1,-928,252) translate(7.049999999999997 21.4)"/><use xlink:href="#x" transform="matrix(1,0,0,1,-928,252) translate(27.025 43)"/><path d="M-874.12 321v40.5" stroke="#5e5e5e" stroke-width="2" fill="none"/><path d="M-873.12 321.03h-2V320h2z" stroke="#5e5e5e" stroke-width=".05" fill="#5e5e5e"/><path d="M-874.12 376.76l-4.63-14.26h9.27z" stroke="#5e5e5e" stroke-width="2" fill="#5e5e5e"/><path d="M-940 126a6 6 0 0 1 6-6h119.76a6 6 0 0 1 6 6v68a6 6 0 0 1-6 6H-934a6 6 0 0 1-6-6z" stroke="#000" stroke-opacity="0" stroke-width="3" fill="#1b6a3a"/><g><use xlink:href="#y" transform="matrix(1,0,0,1,-928,132) translate(26.5 21.4)"/><use xlink:href="#z" transform="matrix(1,0,0,1,-928,132) translate(1.5499999999999972 43)"/></g><path d="M-874.12 201v20.5" stroke="#5e5e5e" stroke-width="2" fill="none"/><path d="M-873.12 201.03h-2V200h2z" stroke="#5e5e5e" stroke-width=".05" fill="#5e5e5e"/><path d="M-874.12 236.76l-4.63-14.26h9.27z" stroke="#5e5e5e" stroke-width="2" fill="#5e5e5e"/><path d="M-740 126a6 6 0 0 1 6-6h119.76a6 6 0 0 1 6 6v68a6 6 0 0 1-6 6H-734a6 6 0 0 1-6-6z" stroke="#000" stroke-opacity="0" stroke-width="3" fill="#1b6a3a"/><g><use xlink:href="#y" transform="matrix(1,0,0,1,-728,132) translate(26.5 21.4)"/><use xlink:href="#A" transform="matrix(1,0,0,1,-728,132) translate(17 43)"/></g><path d="M-807.24 160h48.74" stroke="#5e5e5e" stroke-width="2" fill="none"/><path d="M-807.2 161h-1.03v-2h1.02z" stroke="#5e5e5e" stroke-width=".05" fill="#5e5e5e"/><path d="M-743.24 160l-14.26 4.63v-9.26z" stroke="#5e5e5e" stroke-width="2" fill="#5e5e5e"/><path d="M-1460 86a6 6 0 0 1 6-6h168a6 6 0 0 1 6 6v28a6 6 0 0 1-6 6h-168a6 6 0 0 1-6-6z" stroke="#000" stroke-opacity="0" stroke-width="3" fill="#fff" fill-opacity="0"/><g><use xlink:href="#B" transform="matrix(1,0,0,1,-1455,85) translate(0 21.51111111111108)"/><use xlink:href="#C" transform="matrix(1,0,0,1,-1455,85) translate(101.5055555555554 21.51111111111108)"/></g><path d="M-940-34a6 6 0 0 1 6-6h119.76a6 6 0 0 1 6 6v68a6 6 0 0 1-6 6H-934a6 6 0 0 1-6-6z" stroke="#2e2f27" stroke-width="2" fill="#fff"/><g><use xlink:href="#D" transform="matrix(1,0,0,1,-935,-35) translate(17.124999999999993 38.4625)"/></g><defs><path fill="#fff" d="M33 0v-248h34V0H33" id="E"/><path fill="#fff" d="M117-194c89-4 53 116 60 194h-32v-121c0-31-8-49-39-48C34-167 62-67 57 0H25l-1-190h30c1 10-1 24 2 32 11-22 29-35 61-36" id="F"/><path fill="#fff" d="M85-194c31 0 48 13 60 33l-1-100h32l1 261h-30c-2-10 0-23-3-31C134-8 116 4 85 4 32 4 16-35 15-94c0-66 23-100 70-100zm9 24c-40 0-46 34-46 75 0 40 6 74 45 74 42 0 51-32 51-76 0-42-9-74-50-73" id="G"/><path fill="#fff" d="M100-194c63 0 86 42 84 106H49c0 40 14 67 53 68 26 1 43-12 49-29l28 8c-11 28-37 45-77 45C44 4 14-33 15-96c1-61 26-98 85-98zm52 81c6-60-76-77-97-28-3 7-6 17-6 28h103" id="H"/><path fill="#fff" d="M141 0L90-78 38 0H4l68-98-65-92h35l48 74 47-74h35l-64 92 68 98h-35" id="I"/><g id="a"><use transform="matrix(0.05,0,0,0.05,0,0)" xlink:href="#E"/><use transform="matrix(0.05,0,0,0.05,5,0)" xlink:href="#F"/><use transform="matrix(0.05,0,0,0.05,15,0)" xlink:href="#G"/><use transform="matrix(0.05,0,0,0.05,25,0)" xlink:href="#H"/><use transform="matrix(0.05,0,0,0.05,35,0)" xlink:href="#I"/></g><path fill="#fff" d="M30-248c118-7 216 8 213 122C240-48 200 0 122 0H30v-248zM63-27c89 8 146-16 146-99s-60-101-146-95v194" id="J"/><path fill="#fff" d="M100-194c62-1 85 37 85 99 1 63-27 99-86 99S16-35 15-95c0-66 28-99 85-99zM99-20c44 1 53-31 53-75 0-43-8-75-51-75s-53 32-53 75 10 74 51 75" id="K"/><path fill="#fff" d="M96-169c-40 0-48 33-48 73s9 75 48 75c24 0 41-14 43-38l32 2c-6 37-31 61-74 61-59 0-76-41-82-99-10-93 101-131 147-64 4 7 5 14 7 22l-32 3c-4-21-16-35-41-35" id="L"/><path fill="#fff" d="M84 4C-5 8 30-112 23-190h32v120c0 31 7 50 39 49 72-2 45-101 50-169h31l1 190h-30c-1-10 1-25-2-33-11 22-28 36-60 37" id="M"/><path fill="#fff" d="M210-169c-67 3-38 105-44 169h-31v-121c0-29-5-50-35-48C34-165 62-65 56 0H25l-1-190h30c1 10-1 24 2 32 10-44 99-50 107 0 11-21 27-35 58-36 85-2 47 119 55 194h-31v-121c0-29-5-49-35-48" id="N"/><path fill="#fff" d="M59-47c-2 24 18 29 38 22v24C64 9 27 4 27-40v-127H5v-23h24l9-43h21v43h35v23H59v120" id="O"/><g id="b"><use transform="matrix(0.05,0,0,0.05,0,0)" xlink:href="#J"/><use transform="matrix(0.05,0,0,0.05,12.950000000000001,0)" xlink:href="#K"/><use transform="matrix(0.05,0,0,0.05,22.950000000000003,0)" xlink:href="#L"/><use transform="matrix(0.05,0,0,0.05,31.950000000000003,0)" xlink:href="#M"/><use transform="matrix(0.05,0,0,0.05,41.95,0)" xlink:href="#N"/><use transform="matrix(0.05,0,0,0.05,56.900000000000006,0)" xlink:href="#H"/><use transform="matrix(0.05,0,0,0.05,66.9,0)" xlink:href="#F"/><use transform="matrix(0.05,0,0,0.05,76.9,0)" xlink:href="#O"/></g><path fill="#fff" d="M135-143c-3-34-86-38-87 0 15 53 115 12 119 90S17 21 10-45l28-5c4 36 97 45 98 0-10-56-113-15-118-90-4-57 82-63 122-42 12 7 21 19 24 35" id="P"/><path fill="#fff" d="M114-163C36-179 61-72 57 0H25l-1-190h30c1 12-1 29 2 39 6-27 23-49 58-41v29" id="Q"/><g id="c"><use transform="matrix(0.05,0,0,0.05,0,0)" xlink:href="#P"/><use transform="matrix(0.05,0,0,0.05,9,0)" xlink:href="#O"/><use transform="matrix(0.05,0,0,0.05,14,0)" xlink:href="#K"/><use transform="matrix(0.05,0,0,0.05,24,0)" xlink:href="#Q"/><use transform="matrix(0.05,0,0,0.05,29.950000000000003,0)" xlink:href="#H"/></g><g id="d"><use transform="matrix(0.05,0,0,0.05,0,0)" xlink:href="#E"/><use transform="matrix(0.05,0,0,0.05,5,0)" xlink:href="#F"/><use transform="matrix(0.05,0,0,0.05,15,0)" xlink:href="#G"/><use transform="matrix(0.05,0,0,0.05,25,0)" xlink:href="#H"/><use transform="matrix(0.05,0,0,0.05,35,0)" xlink:href="#I"/></g><path fill="#fff" d="M141-36C126-15 110 5 73 4 37 3 15-17 15-53c-1-64 63-63 125-63 3-35-9-54-41-54-24 1-41 7-42 31l-33-3c5-37 33-52 76-52 45 0 72 20 72 64v82c-1 20 7 32 28 27v20c-31 9-61-2-59-35zM48-53c0 20 12 33 32 33 41-3 63-29 60-74-43 2-92-5-92 41" id="R"/><path fill="#fff" d="M177-190C167-65 218 103 67 71c-23-6-38-20-44-43l32-5c15 47 100 32 89-28v-30C133-14 115 1 83 1 29 1 15-40 15-95c0-56 16-97 71-98 29-1 48 16 59 35 1-10 0-23 2-32h30zM94-22c36 0 50-32 50-73 0-42-14-75-50-75-39 0-46 34-46 75s6 73 46 73" id="S"/><g id="e"><use transform="matrix(0.05,0,0,0.05,0,0)" xlink:href="#N"/><use transform="matrix(0.05,0,0,0.05,14.950000000000001,0)" xlink:href="#R"/><use transform="matrix(0.05,0,0,0.05,24.950000000000003,0)" xlink:href="#F"/><use transform="matrix(0.05,0,0,0.05,34.95,0)" xlink:href="#R"/><use transform="matrix(0.05,0,0,0.05,44.95,0)" xlink:href="#S"/><use transform="matrix(0.05,0,0,0.05,54.95,0)" xlink:href="#H"/><use transform="matrix(0.05,0,0,0.05,64.95,0)" xlink:href="#Q"/></g><path fill="#fff" d="M185-189c-5-48-123-54-124 2 14 75 158 14 163 119 3 78-121 87-175 55-17-10-28-26-33-46l33-7c5 56 141 63 141-1 0-78-155-14-162-118-5-82 145-84 179-34 5 7 8 16 11 25" id="T"/><path fill="#fff" d="M179-190L93 31C79 59 56 82 12 73V49c39 6 53-20 64-50L1-190h34L92-34l54-156h33" id="U"/><g id="f"><use transform="matrix(0.05,0,0,0.05,0,0)" xlink:href="#T"/><use transform="matrix(0.05,0,0,0.05,12,0)" xlink:href="#M"/><use transform="matrix(0.05,0,0,0.05,22,0)" xlink:href="#N"/><use transform="matrix(0.05,0,0,0.05,36.95,0)" xlink:href="#N"/><use transform="matrix(0.05,0,0,0.05,51.900000000000006,0)" xlink:href="#R"/><use transform="matrix(0.05,0,0,0.05,61.900000000000006,0)" xlink:href="#Q"/><use transform="matrix(0.05,0,0,0.05,67.85000000000001,0)" xlink:href="#U"/></g><g id="g"><use transform="matrix(0.05,0,0,0.05,0,0)" xlink:href="#N"/><use transform="matrix(0.05,0,0,0.05,14.950000000000001,0)" xlink:href="#H"/><use transform="matrix(0.05,0,0,0.05,24.950000000000003,0)" xlink:href="#O"/><use transform="matrix(0.05,0,0,0.05,29.950000000000003,0)" xlink:href="#R"/><use transform="matrix(0.05,0,0,0.05,39.95,0)" xlink:href="#P"/><use transform="matrix(0.05,0,0,0.05,48.95,0)" xlink:href="#O"/><use transform="matrix(0.05,0,0,0.05,53.95,0)" xlink:href="#K"/><use transform="matrix(0.05,0,0,0.05,63.95,0)" xlink:href="#Q"/><use transform="matrix(0.05,0,0,0.05,69.9,0)" xlink:href="#H"/></g><path fill="#fff" d="M205 0l-28-72H64L36 0H1l101-248h38L239 0h-34zm-38-99l-47-123c-12 45-31 82-46 123h93" id="V"/><path fill="#fff" d="M24-231v-30h32v30H24zM24 0v-190h32V0H24" id="W"/><path fill="#fff" d="M115-194c53 0 69 39 70 98 0 66-23 100-70 100C84 3 66-7 56-30L54 0H23l1-261h32v101c10-23 28-34 59-34zm-8 174c40 0 45-34 45-75 0-40-5-75-45-74-42 0-51 32-51 76 0 43 10 73 51 73" id="X"/><g id="h"><use transform="matrix(0.05,0,0,0.05,0,0)" xlink:href="#V"/><use transform="matrix(0.05,0,0,0.05,12,0)" xlink:href="#O"/><use transform="matrix(0.05,0,0,0.05,17,0)" xlink:href="#O"/><use transform="matrix(0.05,0,0,0.05,22,0)" xlink:href="#Q"/><use transform="matrix(0.05,0,0,0.05,27.950000000000003,0)" xlink:href="#W"/><use transform="matrix(0.05,0,0,0.05,31.899999999999995,0)" xlink:href="#X"/><use transform="matrix(0.05,0,0,0.05,41.9,0)" xlink:href="#M"/><use transform="matrix(0.05,0,0,0.05,51.900000000000006,0)" xlink:href="#O"/><use transform="matrix(0.05,0,0,0.05,56.900000000000006,0)" xlink:href="#H"/><use transform="matrix(0.05,0,0,0.05,66.9,0)" xlink:href="#P"/></g><g id="i"><use transform="matrix(0.05,0,0,0.05,0,0)" xlink:href="#V"/><use transform="matrix(0.05,0,0,0.05,12,0)" xlink:href="#O"/><use transform="matrix(0.05,0,0,0.05,17,0)" xlink:href="#O"/><use transform="matrix(0.05,0,0,0.05,22,0)" xlink:href="#Q"/><use transform="matrix(0.05,0,0,0.05,27.950000000000003,0)" xlink:href="#W"/><use transform="matrix(0.05,0,0,0.05,31.899999999999995,0)" xlink:href="#X"/><use transform="matrix(0.05,0,0,0.05,41.9,0)" xlink:href="#M"/><use transform="matrix(0.05,0,0,0.05,51.900000000000006,0)" xlink:href="#O"/><use transform="matrix(0.05,0,0,0.05,56.900000000000006,0)" xlink:href="#H"/></g><path fill="#fff" d="M63-220v92h138v28H63V0H30v-248h175v28H63" id="Y"/><path fill="#fff" d="M108 0H70L1-190h34L89-25l56-165h34" id="Z"/><path fill="#fff" d="M206 0h-36l-40-164L89 0H53L-1-190h32L70-26l43-164h34l41 164 42-164h31" id="aa"/><g id="j"><use transform="matrix(0.05,0,0,0.05,0,0)" xlink:href="#Y"/><use transform="matrix(0.05,0,0,0.05,10.950000000000001,0)" xlink:href="#H"/><use transform="matrix(0.05,0,0,0.05,20.950000000000003,0)" xlink:href="#H"/><use transform="matrix(0.05,0,0,0.05,30.950000000000003,0)" xlink:href="#G"/><use transform="matrix(0.05,0,0,0.05,40.95,0)" xlink:href="#Z"/><use transform="matrix(0.05,0,0,0.05,49.95,0)" xlink:href="#W"/><use transform="matrix(0.05,0,0,0.05,53.900000000000006,0)" xlink:href="#H"/><use transform="matrix(0.05,0,0,0.05,63.900000000000006,0)" xlink:href="#aa"/></g><path fill="#1b6a3a" d="M233-177c-1 41-23 64-60 70L243 0h-38l-65-103H63V0H30v-248c88 3 205-21 203 71zM63-129c60-2 137 13 137-47 0-61-80-42-137-45v92" id="ab"/><path fill="#1b6a3a" d="M100-194c63 0 86 42 84 106H49c0 40 14 67 53 68 26 1 43-12 49-29l28 8c-11 28-37 45-77 45C44 4 14-33 15-96c1-61 26-98 85-98zm52 81c6-60-76-77-97-28-3 7-6 17-6 28h103" id="ac"/><path fill="#1b6a3a" d="M141-36C126-15 110 5 73 4 37 3 15-17 15-53c-1-64 63-63 125-63 3-35-9-54-41-54-24 1-41 7-42 31l-33-3c5-37 33-52 76-52 45 0 72 20 72 64v82c-1 20 7 32 28 27v20c-31 9-61-2-59-35zM48-53c0 20 12 33 32 33 41-3 63-29 60-74-43 2-92-5-92 41" id="ad"/><path fill="#1b6a3a" d="M85-194c31 0 48 13 60 33l-1-100h32l1 261h-30c-2-10 0-23-3-31C134-8 116 4 85 4 32 4 16-35 15-94c0-66 23-100 70-100zm9 24c-40 0-46 34-46 75 0 40 6 74 45 74 42 0 51-32 51-76 0-42-9-74-50-73" id="ae"/><path fill="#1b6a3a" d="M179-190L93 31C79 59 56 82 12 73V49c39 6 53-20 64-50L1-190h34L92-34l54-156h33" id="af"/><g id="k"><use transform="matrix(0.07469135802469125,0,0,0.07469135802469125,0,0)" xlink:href="#ab"/><use transform="matrix(0.07469135802469125,0,0,0.07469135802469125,19.345061728395034,0)" xlink:href="#ac"/><use transform="matrix(0.07469135802469125,0,0,0.07469135802469125,34.28333333333328,0)" xlink:href="#ad"/><use transform="matrix(0.07469135802469125,0,0,0.07469135802469125,49.22160493827153,0)" xlink:href="#ae"/><use transform="matrix(0.07469135802469125,0,0,0.07469135802469125,64.15987654320978,0)" xlink:href="#af"/></g><path fill="#fff" d="M240 0l2-218c-23 76-54 145-80 218h-23L58-218 59 0H30v-248h44l77 211c21-75 51-140 76-211h43V0h-30" id="ag"/><path fill="#fff" d="M24 0v-261h32V0H24" id="ah"/><g id="l"><use transform="matrix(0.05,0,0,0.05,0,0)" xlink:href="#ag"/><use transform="matrix(0.05,0,0,0.05,14.950000000000001,0)" xlink:href="#W"/><use transform="matrix(0.05,0,0,0.05,18.900000000000002,0)" xlink:href="#F"/><use transform="matrix(0.05,0,0,0.05,28.900000000000002,0)" xlink:href="#W"/><use transform="matrix(0.05,0,0,0.05,32.85,0)" xlink:href="#N"/><use transform="matrix(0.05,0,0,0.05,47.800000000000004,0)" xlink:href="#R"/><use transform="matrix(0.05,0,0,0.05,57.800000000000004,0)" xlink:href="#ah"/></g><g id="m"><use transform="matrix(0.05,0,0,0.05,0,0)" xlink:href="#Y"/><use transform="matrix(0.05,0,0,0.05,10.950000000000001,0)" xlink:href="#H"/><use transform="matrix(0.05,0,0,0.05,20.950000000000003,0)" xlink:href="#H"/><use transform="matrix(0.05,0,0,0.05,30.950000000000003,0)" xlink:href="#G"/><use transform="matrix(0.05,0,0,0.05,40.95,0)" xlink:href="#Z"/><use transform="matrix(0.05,0,0,0.05,49.95,0)" xlink:href="#W"/><use transform="matrix(0.05,0,0,0.05,53.900000000000006,0)" xlink:href="#H"/><use transform="matrix(0.05,0,0,0.05,63.900000000000006,0)" xlink:href="#aa"/></g><path fill="#1b6a3a" d="M190 0L58-211 59 0H30v-248h39L202-35l-2-213h31V0h-41" id="ai"/><path fill="#1b6a3a" d="M100-194c62-1 85 37 85 99 1 63-27 99-86 99S16-35 15-95c0-66 28-99 85-99zM99-20c44 1 53-31 53-75 0-43-8-75-51-75s-53 32-53 75 10 74 51 75" id="aj"/><path fill="#1b6a3a" d="M59-47c-2 24 18 29 38 22v24C64 9 27 4 27-40v-127H5v-23h24l9-43h21v43h35v23H59v120" id="ak"/><g id="n"><use transform="matrix(0.07469135802469125,0,0,0.07469135802469125,0,0)" xlink:href="#ai"/><use transform="matrix(0.07469135802469125,0,0,0.07469135802469125,19.345061728395034,0)" xlink:href="#aj"/><use transform="matrix(0.07469135802469125,0,0,0.07469135802469125,34.28333333333328,0)" xlink:href="#ak"/></g><path fill="#1b6a3a" d="M114-163C36-179 61-72 57 0H25l-1-190h30c1 12-1 29 2 39 6-27 23-49 58-41v29" id="al"/><g id="o"><use transform="matrix(0.07469135802469125,0,0,0.07469135802469125,0,0)" xlink:href="#al"/><use transform="matrix(0.07469135802469125,0,0,0.07469135802469125,8.888271604938259,0)" xlink:href="#ac"/><use transform="matrix(0.07469135802469125,0,0,0.07469135802469125,23.826543209876508,0)" xlink:href="#ad"/><use transform="matrix(0.07469135802469125,0,0,0.07469135802469125,38.764814814814756,0)" xlink:href="#ae"/><use transform="matrix(0.07469135802469125,0,0,0.07469135802469125,53.70308641975301,0)" xlink:href="#af"/></g><path fill="#1b6a3a" d="M210-169c-67 3-38 105-44 169h-31v-121c0-29-5-50-35-48C34-165 62-65 56 0H25l-1-190h30c1 10-1 24 2 32 10-44 99-50 107 0 11-21 27-35 58-36 85-2 47 119 55 194h-31v-121c0-29-5-49-35-48" id="am"/><path fill="#1b6a3a" d="M108 0H70L1-190h34L89-25l56-165h34" id="an"/><g id="p"><use transform="matrix(0.07469135802469125,0,0,0.07469135802469125,0,0)" xlink:href="#ab"/><use transform="matrix(0.07469135802469125,0,0,0.07469135802469125,19.345061728395034,0)" xlink:href="#ac"/><use transform="matrix(0.07469135802469125,0,0,0.07469135802469125,34.28333333333328,0)" xlink:href="#am"/><use transform="matrix(0.07469135802469125,0,0,0.07469135802469125,56.616049382715964,0)" xlink:href="#aj"/><use transform="matrix(0.07469135802469125,0,0,0.07469135802469125,71.55432098765421,0)" xlink:href="#an"/><use transform="matrix(0.07469135802469125,0,0,0.07469135802469125,84.99876543209864,0)" xlink:href="#ac"/><use transform="matrix(0.07469135802469125,0,0,0.07469135802469125,99.93703703703689,0)" xlink:href="#ae"/></g><path fill="#2e2f27" d="M30-248c118-7 216 8 213 122C240-48 200 0 122 0H30v-248zM63-27c89 8 146-16 146-99s-60-101-146-95v194" id="ao"/><path fill="#2e2f27" d="M100-194c62-1 85 37 85 99 1 63-27 99-86 99S16-35 15-95c0-66 28-99 85-99zM99-20c44 1 53-31 53-75 0-43-8-75-51-75s-53 32-53 75 10 74 51 75" id="ap"/><path fill="#2e2f27" d="M96-169c-40 0-48 33-48 73s9 75 48 75c24 0 41-14 43-38l32 2c-6 37-31 61-74 61-59 0-76-41-82-99-10-93 101-131 147-64 4 7 5 14 7 22l-32 3c-4-21-16-35-41-35" id="aq"/><path fill="#2e2f27" d="M84 4C-5 8 30-112 23-190h32v120c0 31 7 50 39 49 72-2 45-101 50-169h31l1 190h-30c-1-10 1-25-2-33-11 22-28 36-60 37" id="ar"/><path fill="#2e2f27" d="M210-169c-67 3-38 105-44 169h-31v-121c0-29-5-50-35-48C34-165 62-65 56 0H25l-1-190h30c1 10-1 24 2 32 10-44 99-50 107 0 11-21 27-35 58-36 85-2 47 119 55 194h-31v-121c0-29-5-49-35-48" id="as"/><path fill="#2e2f27" d="M100-194c63 0 86 42 84 106H49c0 40 14 67 53 68 26 1 43-12 49-29l28 8c-11 28-37 45-77 45C44 4 14-33 15-96c1-61 26-98 85-98zm52 81c6-60-76-77-97-28-3 7-6 17-6 28h103" id="at"/><path fill="#2e2f27" d="M117-194c89-4 53 116 60 194h-32v-121c0-31-8-49-39-48C34-167 62-67 57 0H25l-1-190h30c1 10-1 24 2 32 11-22 29-35 61-36" id="au"/><path fill="#2e2f27" d="M59-47c-2 24 18 29 38 22v24C64 9 27 4 27-40v-127H5v-23h24l9-43h21v43h35v23H59v120" id="av"/><g id="q"><use transform="matrix(0.07469135802469125,0,0,0.07469135802469125,0,0)" xlink:href="#ao"/><use transform="matrix(0.07469135802469125,0,0,0.07469135802469125,19.345061728395034,0)" xlink:href="#ap"/><use transform="matrix(0.07469135802469125,0,0,0.07469135802469125,34.28333333333328,0)" xlink:href="#aq"/><use transform="matrix(0.07469135802469125,0,0,0.07469135802469125,47.727777777777696,0)" xlink:href="#ar"/><use transform="matrix(0.07469135802469125,0,0,0.07469135802469125,62.666049382715954,0)" xlink:href="#as"/><use transform="matrix(0.07469135802469125,0,0,0.07469135802469125,84.99876543209864,0)" xlink:href="#at"/><use transform="matrix(0.07469135802469125,0,0,0.07469135802469125,99.93703703703689,0)" xlink:href="#au"/><use transform="matrix(0.07469135802469125,0,0,0.07469135802469125,114.87530864197514,0)" xlink:href="#av"/></g><path fill="#2e2f27" d="M160-131c35 5 61 23 61 61C221 17 115-2 30 0v-248c76 3 177-17 177 60 0 33-19 50-47 57zm-97-11c50-1 110 9 110-42 0-47-63-36-110-37v79zm0 115c55-2 124 14 124-45 0-56-70-42-124-44v89" id="aw"/><g id="r"><use transform="matrix(0.07469135802469125,0,0,0.07469135802469125,0,0)" xlink:href="#ao"/><use transform="matrix(0.07469135802469125,0,0,0.07469135802469125,19.345061728395034,0)" xlink:href="#aw"/></g><path fill="#fff" d="M212-179c-10-28-35-45-73-45-59 0-87 40-87 99 0 60 29 101 89 101 43 0 62-24 78-52l27 14C228-24 195 4 139 4 59 4 22-46 18-125c-6-104 99-153 187-111 19 9 31 26 39 46" id="ax"/><g id="s"><use transform="matrix(0.05,0,0,0.05,0,0)" xlink:href="#ax"/><use transform="matrix(0.05,0,0,0.05,12.950000000000001,0)" xlink:href="#K"/><use transform="matrix(0.05,0,0,0.05,22.950000000000003,0)" xlink:href="#N"/><use transform="matrix(0.05,0,0,0.05,37.900000000000006,0)" xlink:href="#X"/><use transform="matrix(0.05,0,0,0.05,47.900000000000006,0)" xlink:href="#W"/><use transform="matrix(0.05,0,0,0.05,51.85,0)" xlink:href="#F"/><use transform="matrix(0.05,0,0,0.05,61.85,0)" xlink:href="#W"/><use transform="matrix(0.05,0,0,0.05,65.80000000000001,0)" xlink:href="#F"/><use transform="matrix(0.05,0,0,0.05,75.80000000000001,0)" xlink:href="#S"/></g><path fill="#fff" d="M197 0v-115H63V0H30v-248h33v105h134v-105h34V0h-34" id="ay"/><g id="t"><use transform="matrix(0.05,0,0,0.05,0,0)" xlink:href="#Y"/><use transform="matrix(0.05,0,0,0.05,10.950000000000001,0)" xlink:href="#H"/><use transform="matrix(0.05,0,0,0.05,20.950000000000003,0)" xlink:href="#H"/><use transform="matrix(0.05,0,0,0.05,30.950000000000003,0)" xlink:href="#G"/><use transform="matrix(0.05,0,0,0.05,40.95,0)" xlink:href="#ay"/><use transform="matrix(0.05,0,0,0.05,53.900000000000006,0)" xlink:href="#R"/><use transform="matrix(0.05,0,0,0.05,63.900000000000006,0)" xlink:href="#F"/><use transform="matrix(0.05,0,0,0.05,73.9,0)" xlink:href="#G"/><use transform="matrix(0.05,0,0,0.05,83.9,0)" xlink:href="#ah"/><use transform="matrix(0.05,0,0,0.05,87.85000000000001,0)" xlink:href="#H"/><use transform="matrix(0.05,0,0,0.05,97.85000000000001,0)" xlink:href="#Q"/></g><path fill="#fff" d="M127-220V0H93v-220H8v-28h204v28h-85" id="az"/><g id="u"><use transform="matrix(0.05,0,0,0.05,0,0)" xlink:href="#az"/><use transform="matrix(0.05,0,0,0.05,10.3,0)" xlink:href="#Q"/><use transform="matrix(0.05,0,0,0.05,16.25,0)" xlink:href="#R"/><use transform="matrix(0.05,0,0,0.05,26.25,0)" xlink:href="#F"/><use transform="matrix(0.05,0,0,0.05,36.25,0)" xlink:href="#P"/><use transform="matrix(0.05,0,0,0.05,45.25,0)" xlink:href="#R"/><use transform="matrix(0.05,0,0,0.05,55.25,0)" xlink:href="#L"/><use transform="matrix(0.05,0,0,0.05,64.25,0)" xlink:href="#O"/><use transform="matrix(0.05,0,0,0.05,69.25,0)" xlink:href="#W"/><use transform="matrix(0.05,0,0,0.05,73.2,0)" xlink:href="#K"/><use transform="matrix(0.05,0,0,0.05,83.2,0)" xlink:href="#F"/></g><g id="v"><use transform="matrix(0.05,0,0,0.05,0,0)" xlink:href="#ah"/><use transform="matrix(0.05,0,0,0.05,3.95,0)" xlink:href="#K"/><use transform="matrix(0.05,0,0,0.05,13.949999999999998,0)" xlink:href="#S"/></g><path fill="#fff" d="M30-248c87 1 191-15 191 75 0 78-77 80-158 76V0H30v-248zm33 125c57 0 124 11 124-50 0-59-68-47-124-48v98" id="aA"/><g id="w"><use transform="matrix(0.05,0,0,0.05,0,0)" xlink:href="#aA"/><use transform="matrix(0.05,0,0,0.05,12,0)" xlink:href="#H"/><use transform="matrix(0.05,0,0,0.05,22,0)" xlink:href="#Q"/><use transform="matrix(0.05,0,0,0.05,27.950000000000003,0)" xlink:href="#P"/><use transform="matrix(0.05,0,0,0.05,36.95,0)" xlink:href="#W"/><use transform="matrix(0.05,0,0,0.05,40.900000000000006,0)" xlink:href="#P"/><use transform="matrix(0.05,0,0,0.05,49.900000000000006,0)" xlink:href="#O"/><use transform="matrix(0.05,0,0,0.05,54.900000000000006,0)" xlink:href="#H"/><use transform="matrix(0.05,0,0,0.05,64.9,0)" xlink:href="#F"/><use transform="matrix(0.05,0,0,0.05,74.9,0)" xlink:href="#L"/><use transform="matrix(0.05,0,0,0.05,83.9,0)" xlink:href="#H"/></g><g id="x"><use transform="matrix(0.05,0,0,0.05,0,0)" xlink:href="#H"/><use transform="matrix(0.05,0,0,0.05,10,0)" xlink:href="#F"/><use transform="matrix(0.05,0,0,0.05,20,0)" xlink:href="#S"/><use transform="matrix(0.05,0,0,0.05,30,0)" xlink:href="#W"/><use transform="matrix(0.05,0,0,0.05,33.95,0)" xlink:href="#F"/><use transform="matrix(0.05,0,0,0.05,43.95,0)" xlink:href="#H"/></g><path fill="#fff" d="M160-131c35 5 61 23 61 61C221 17 115-2 30 0v-248c76 3 177-17 177 60 0 33-19 50-47 57zm-97-11c50-1 110 9 110-42 0-47-63-36-110-37v79zm0 115c55-2 124 14 124-45 0-56-70-42-124-44v89" id="aB"/><path fill="#fff" d="M143 0L79-87 56-68V0H24v-261h32v163l83-92h37l-77 82L181 0h-38" id="aC"/><g id="y"><use transform="matrix(0.05,0,0,0.05,0,0)" xlink:href="#aB"/><use transform="matrix(0.05,0,0,0.05,12,0)" xlink:href="#M"/><use transform="matrix(0.05,0,0,0.05,22,0)" xlink:href="#L"/><use transform="matrix(0.05,0,0,0.05,31,0)" xlink:href="#aC"/><use transform="matrix(0.05,0,0,0.05,40,0)" xlink:href="#H"/><use transform="matrix(0.05,0,0,0.05,50,0)" xlink:href="#O"/></g><g id="z"><use transform="matrix(0.05,0,0,0.05,0,0)" xlink:href="#N"/><use transform="matrix(0.05,0,0,0.05,14.950000000000001,0)" xlink:href="#R"/><use transform="matrix(0.05,0,0,0.05,24.950000000000003,0)" xlink:href="#F"/><use transform="matrix(0.05,0,0,0.05,34.95,0)" xlink:href="#R"/><use transform="matrix(0.05,0,0,0.05,44.95,0)" xlink:href="#S"/><use transform="matrix(0.05,0,0,0.05,54.95,0)" xlink:href="#H"/><use transform="matrix(0.05,0,0,0.05,64.95,0)" xlink:href="#N"/><use transform="matrix(0.05,0,0,0.05,79.9,0)" xlink:href="#H"/><use transform="matrix(0.05,0,0,0.05,89.9,0)" xlink:href="#F"/><use transform="matrix(0.05,0,0,0.05,99.9,0)" xlink:href="#O"/></g><g id="A"><use transform="matrix(0.05,0,0,0.05,0,0)" xlink:href="#G"/><use transform="matrix(0.05,0,0,0.05,10,0)" xlink:href="#R"/><use transform="matrix(0.05,0,0,0.05,20,0)" xlink:href="#O"/><use transform="matrix(0.05,0,0,0.05,25,0)" xlink:href="#R"/><use transform="matrix(0.05,0,0,0.05,35,0)" xlink:href="#X"/><use transform="matrix(0.05,0,0,0.05,45,0)" xlink:href="#R"/><use transform="matrix(0.05,0,0,0.05,55,0)" xlink:href="#P"/><use transform="matrix(0.05,0,0,0.05,64,0)" xlink:href="#H"/></g><path fill="#1b6a3a" d="M212-179c-10-28-35-45-73-45-59 0-87 40-87 99 0 60 29 101 89 101 43 0 62-24 78-52l27 14C228-24 195 4 139 4 59 4 22-46 18-125c-6-104 99-153 187-111 19 9 31 26 39 46" id="aD"/><path fill="#1b6a3a" d="M117-194c89-4 53 116 60 194h-32v-121c0-31-8-49-39-48C34-167 62-67 57 0H25l-1-190h30c1 10-1 24 2 32 11-22 29-35 61-36" id="aE"/><g id="B"><use transform="matrix(0.07469135802469125,0,0,0.07469135802469125,0,0)" xlink:href="#aD"/><use transform="matrix(0.07469135802469125,0,0,0.07469135802469125,19.345061728395034,0)" xlink:href="#aj"/><use transform="matrix(0.07469135802469125,0,0,0.07469135802469125,34.28333333333328,0)" xlink:href="#aE"/><use transform="matrix(0.07469135802469125,0,0,0.07469135802469125,49.22160493827153,0)" xlink:href="#ak"/><use transform="matrix(0.07469135802469125,0,0,0.07469135802469125,56.69074074074066,0)" xlink:href="#ac"/><use transform="matrix(0.07469135802469125,0,0,0.07469135802469125,71.6290123456789,0)" xlink:href="#aE"/><use transform="matrix(0.07469135802469125,0,0,0.07469135802469125,86.56728395061715,0)" xlink:href="#ak"/></g><g id="C"><use transform="matrix(0.07469135802469125,0,0,0.07469135802469125,0,0)" xlink:href="#aE"/><use transform="matrix(0.07469135802469125,0,0,0.07469135802469125,14.93827160493825,0)" xlink:href="#aj"/><use transform="matrix(0.07469135802469125,0,0,0.07469135802469125,29.8765432098765,0)" xlink:href="#ae"/><use transform="matrix(0.07469135802469125,0,0,0.07469135802469125,44.814814814814746,0)" xlink:href="#ac"/></g><path fill="#2e2f27" d="M24-248c120-7 223 5 221 122C244-46 201 0 124 0H24v-248zM76-40c74 7 117-18 117-86 0-67-45-88-117-82v168" id="aF"/><path fill="#2e2f27" d="M110-194c64 0 96 36 96 99 0 64-35 99-97 99-61 0-95-36-95-99 0-62 34-99 96-99zm-1 164c35 0 45-28 45-65 0-40-10-65-43-65-34 0-45 26-45 65 0 36 10 65 43 65" id="aG"/><path fill="#2e2f27" d="M190-63c-7 42-38 67-86 67-59 0-84-38-90-98-12-110 154-137 174-36l-49 2c-2-19-15-32-35-32-30 0-35 28-38 64-6 74 65 87 74 30" id="aH"/><path fill="#2e2f27" d="M85 4C-2 5 27-109 22-190h50c7 57-23 150 33 157 60-5 35-97 40-157h50l1 190h-47c-2-12 1-28-3-38-12 25-28 42-61 42" id="aI"/><path fill="#2e2f27" d="M220-157c-53 9-28 100-34 157h-49v-107c1-27-5-49-29-50C55-147 81-57 75 0H25l-1-190h47c2 12-1 28 3 38 10-53 101-56 108 0 13-22 24-43 59-42 82 1 51 116 57 194h-49v-107c-1-25-5-48-29-50" id="aJ"/><path fill="#2e2f27" d="M185-48c-13 30-37 53-82 52C43 2 14-33 14-96s30-98 90-98c62 0 83 45 84 108H66c0 31 8 55 39 56 18 0 30-7 34-22zm-45-69c5-46-57-63-70-21-2 6-4 13-4 21h74" id="aK"/><path fill="#2e2f27" d="M135-194c87-1 58 113 63 194h-50c-7-57 23-157-34-157-59 0-34 97-39 157H25l-1-190h47c2 12-1 28 3 38 12-26 28-41 61-42" id="aL"/><path fill="#2e2f27" d="M115-3C79 11 28 4 28-45v-112H4v-33h27l15-45h31v45h36v33H77v99c-1 23 16 31 38 25v30" id="aM"/><g id="D"><use transform="matrix(0.05,0,0,0.05,0,0)" xlink:href="#aF"/><use transform="matrix(0.05,0,0,0.05,12.950000000000001,0)" xlink:href="#aG"/><use transform="matrix(0.05,0,0,0.05,23.900000000000002,0)" xlink:href="#aH"/><use transform="matrix(0.05,0,0,0.05,33.900000000000006,0)" xlink:href="#aI"/><use transform="matrix(0.05,0,0,0.05,44.85000000000001,0)" xlink:href="#aJ"/><use transform="matrix(0.05,0,0,0.05,60.85,0)" xlink:href="#aK"/><use transform="matrix(0.05,0,0,0.05,70.85000000000001,0)" xlink:href="#aL"/><use transform="matrix(0.05,0,0,0.05,81.80000000000001,0)" xlink:href="#aM"/></g></defs></g></svg>