<svg version="1.1" viewBox="0.0 0.0 600.0 371.0" fill="none" stroke="none" stroke-linecap="square" stroke-miterlimit="10" width="600" height="371" xmlns:xlink="http://www.w3.org/1999/xlink" xmlns="http://www.w3.org/2000/svg"><path fill="#ffffff" d="M0 0L600.0 0L600.0 371.0L0 371.0L0 0Z" fill-rule="nonzero"/><path stroke="#cccccc" stroke-width="1.0" stroke-linecap="butt" d="M121.5 61.5L121.5 300.5" fill-rule="nonzero"/><path stroke="#cccccc" stroke-width="1.0" stroke-linecap="butt" d="M191.5 61.5L191.5 300.5" fill-rule="nonzero"/><path stroke="#cccccc" stroke-width="1.0" stroke-linecap="butt" d="M262.5 61.5L262.5 300.5" fill-rule="nonzero"/><path stroke="#cccccc" stroke-width="1.0" stroke-linecap="butt" d="M332.5 61.5L332.5 300.5" fill-rule="nonzero"/><path stroke="#cccccc" stroke-width="1.0" stroke-linecap="butt" d="M402.5 61.5L402.5 300.5" fill-rule="nonzero"/><path stroke="#cccccc" stroke-width="1.0" stroke-linecap="butt" d="M472.5 61.5L472.5 300.5" fill-rule="nonzero"/><path stroke="#cccccc" stroke-width="1.0" stroke-linecap="butt" d="M542.5 61.5L542.5 300.5" fill-rule="nonzero"/><path stroke="#333333" stroke-width="1.0" stroke-linecap="butt" d="M77.5 300.5L581.5 300.5" fill-rule="nonzero"/><path stroke="#cccccc" stroke-width="1.0" stroke-linecap="butt" d="M77.5 240.5L581.5 240.5" fill-rule="nonzero"/><path stroke="#cccccc" stroke-width="1.0" stroke-linecap="butt" d="M77.5 181.5L581.5 181.5" fill-rule="nonzero"/><path stroke="#cccccc" stroke-width="1.0" stroke-linecap="butt" d="M77.5 121.5L581.5 121.5" fill-rule="nonzero"/><path stroke="#cccccc" stroke-width="1.0" stroke-linecap="butt" d="M77.5 61.5L581.5 61.5" fill-rule="nonzero"/><path stroke="#eeeeee" stroke-width="1.0" stroke-linecap="butt" d="M79.53425 272.52335L79.53425 288.52335" fill-rule="nonzero"/><path stroke="#eeeeee" stroke-width="1.0" stroke-linecap="butt" d="M248.05049 271.33066L248.05049 287.33066" fill-rule="nonzero"/><path stroke="#eeeeee" stroke-width="1.0" stroke-linecap="butt" d="M528.9109 254.63333L528.9109 270.63333" fill-rule="nonzero"/><path stroke="#eeeeee" stroke-width="1.0" stroke-linecap="butt" d="M568.2313 224.81667L568.2313 240.81667" fill-rule="nonzero"/><path stroke="#eeeeee" stroke-width="1.0" stroke-linecap="butt" d="M579.46576 117.47667L579.46576 133.47667" fill-rule="nonzero"/><clipPath id="id_0"><path d="M77.55 61.916668L581.45 61.916668L581.45 300.45L77.55 300.45L77.55 61.916668Z" clip-rule="nonzero"/></clipPath><path stroke="#3c78d8" stroke-width="1.0" stroke-linecap="butt" clip-path="url(#id_0)" d="M79.53425 288.52335L248.05049 287.33066L528.9109 270.63333L568.2313 240.81667L579.46576 133.47667" fill-rule="nonzero"/><path fill="#3c78d8" clip-path="url(#id_0)" d="M81.53425 288.52335C81.53425 289.6279 80.63882 290.52335 79.53425 290.52335C78.42968 290.52335 77.53425 289.6279 77.53425 288.52335C77.53425 287.41876 78.42968 286.52335 79.53425 286.52335C80.63882 286.52335 81.53425 287.41876 81.53425 288.52335Z" fill-rule="nonzero"/><path fill="#3c78d8" clip-path="url(#id_0)" d="M250.05049 287.33066C250.05049 288.43524 249.15506 289.33066 248.05049 289.33066C246.94592 289.33066 246.05049 288.43524 246.05049 287.33066C246.05049 286.2261 246.94592 285.33066 248.05049 285.33066C249.15506 285.33066 250.05049 286.2261 250.05049 287.33066Z" fill-rule="nonzero"/><path fill="#ff0000" clip-path="url(#id_0)" d="M534.9109 270.63333C534.9109 273.94705 532.2246 276.63333 528.9109 276.63333C525.59717 276.63333 522.9109 273.94705 522.9109 270.63333C522.9109 267.3196 525.59717 264.63333 528.9109 264.63333C532.2246 264.63333 534.9109 267.3196 534.9109 270.63333Z" fill-rule="nonzero"/><path fill="#3c78d8" clip-path="url(#id_0)" d="M570.2313 240.81667C570.2313 241.92123 569.3359 242.81667 568.2313 242.81667C567.1268 242.81667 566.2313 241.92123 566.2313 240.81667C566.2313 239.7121 567.1268 238.81667 568.2313 238.81667C569.3359 238.81667 570.2313 239.7121 570.2313 240.81667Z" fill-rule="nonzero"/><path fill="#3c78d8" clip-path="url(#id_0)" d="M581.46576 133.47667C581.46576 134.58124 580.5703 135.47667 579.46576 135.47667C578.3612 135.47667 577.46576 134.58124 577.46576 133.47667C577.46576 132.3721 578.3612 131.47667 579.46576 131.47667C580.5703 131.47667 581.46576 132.3721 581.46576 133.47667Z" fill-rule="nonzero"/><path stroke="#ffffff" stroke-width="3.0" stroke-linejoin="round" stroke-linecap="round" d="M77.003 270.52335L75.95612 270.52335L75.95612 263.8046Q75.5655 264.16397 74.9405 264.53897Q74.33112 264.89835 73.84675 265.07022L73.84675 264.0546Q74.72175 263.63272 75.378 263.0546Q76.04987 262.46085 76.33112 261.89835L77.003 261.89835L77.003 270.52335ZM80.03425 266.28897Q80.03425 264.75772 80.34675 263.83585Q80.65925 262.89835 81.26862 262.39835Q81.89362 261.89835 82.83112 261.89835Q83.51862 261.89835 84.03425 262.1796Q84.5655 262.46085 84.90925 262.9921Q85.253 263.50772 85.4405 264.25772Q85.628 265.00772 85.628 266.28897Q85.628 267.8046 85.3155 268.72647Q85.01862 269.64835 84.39362 270.16397Q83.78425 270.66397 82.83112 270.66397Q81.59675 270.66397 80.878 269.77335Q80.03425 268.71085 80.03425 266.28897ZM81.11237 266.28897Q81.11237 268.39835 81.61237 269.10147Q82.11237 269.8046 82.83112 269.8046Q83.5655 269.8046 84.04987 269.10147Q84.54987 268.39835 84.54987 266.28897Q84.54987 264.16397 84.04987 263.47647Q83.5655 262.77335 82.8155 262.77335Q82.09675 262.77335 81.65925 263.38272Q81.11237 264.16397 81.11237 266.28897Z" fill-rule="nonzero"/><path fill="#3c78d8" d="M77.003 270.52335L75.95612 270.52335L75.95612 263.8046Q75.5655 264.16397 74.9405 264.53897Q74.33112 264.89835 73.84675 265.07022L73.84675 264.0546Q74.72175 263.63272 75.378 263.0546Q76.04987 262.46085 76.33112 261.89835L77.003 261.89835L77.003 270.52335ZM80.03425 266.28897Q80.03425 264.75772 80.34675 263.83585Q80.65925 262.89835 81.26862 262.39835Q81.89362 261.89835 82.83112 261.89835Q83.51862 261.89835 84.03425 262.1796Q84.5655 262.46085 84.90925 262.9921Q85.253 263.50772 85.4405 264.25772Q85.628 265.00772 85.628 266.28897Q85.628 267.8046 85.3155 268.72647Q85.01862 269.64835 84.39362 270.16397Q83.78425 270.66397 82.83112 270.66397Q81.59675 270.66397 80.878 269.77335Q80.03425 268.71085 80.03425 266.28897ZM81.11237 266.28897Q81.11237 268.39835 81.61237 269.10147Q82.11237 269.8046 82.83112 269.8046Q83.5655 269.8046 84.04987 269.10147Q84.54987 268.39835 84.54987 266.28897Q84.54987 264.16397 84.04987 263.47647Q83.5655 262.77335 82.8155 262.77335Q82.09675 262.77335 81.65925 263.38272Q81.11237 264.16397 81.11237 266.28897Z" fill-rule="nonzero"/><path stroke="#ffffff" stroke-width="3.0" stroke-linejoin="round" stroke-linecap="round" d="M245.51924 269.33066L244.47237 269.33066L244.47237 262.6119Q244.08174 262.97128 243.45674 263.34628Q242.84737 263.70566 242.36299 263.87753L242.36299 262.8619Q243.23799 262.44003 243.89424 261.8619Q244.56612 261.26816 244.84737 260.70566L245.51924 260.70566L245.51924 269.33066ZM252.51924 269.33066L251.47237 269.33066L251.47237 262.6119Q251.08174 262.97128 250.45674 263.34628Q249.84737 263.70566 249.36299 263.87753L249.36299 262.8619Q250.23799 262.44003 250.89424 261.8619Q251.56612 261.26816 251.84737 260.70566L252.51924 260.70566L252.51924 269.33066Z" fill-rule="nonzero"/><path fill="#3c78d8" d="M245.51924 269.33066L244.47237 269.33066L244.47237 262.6119Q244.08174 262.97128 243.45674 263.34628Q242.84737 263.70566 242.36299 263.87753L242.36299 262.8619Q243.23799 262.44003 243.89424 261.8619Q244.56612 261.26816 244.84737 260.70566L245.51924 260.70566L245.51924 269.33066ZM252.51924 269.33066L251.47237 269.33066L251.47237 262.6119Q251.08174 262.97128 250.45674 263.34628Q249.84737 263.70566 249.36299 263.87753L249.36299 262.8619Q250.23799 262.44003 250.89424 261.8619Q251.56612 261.26816 251.84737 260.70566L252.51924 260.70566L252.51924 269.33066Z" fill-rule="nonzero"/><path stroke="#ffffff" stroke-width="3.0" stroke-linejoin="round" stroke-linecap="round" d="M527.95776 251.6177L527.95776 252.63333L522.27026 252.63333Q522.27026 252.25833 522.39526 251.89896Q522.614 251.32083 523.08276 250.75833Q523.56714 250.19583 524.4734 249.46146Q525.87964 248.3052 526.364 247.63333Q526.864 246.96146 526.864 246.3677Q526.864 245.7427 526.4109 245.32083Q525.95776 244.88333 525.239 244.88333Q524.4734 244.88333 524.02026 245.33646Q523.56714 245.78958 523.5515 246.60208L522.4734 246.4927Q522.58276 245.27396 523.3015 244.64896Q524.0359 244.00833 525.27026 244.00833Q526.50464 244.00833 527.2234 244.69583Q527.94214 245.38333 527.94214 246.39896Q527.94214 246.91458 527.7234 247.41458Q527.52026 247.89896 527.02026 248.46146Q526.5359 249.00833 525.4109 249.96146Q524.45776 250.75833 524.1765 251.0552Q523.9109 251.33646 523.739 251.6177L527.95776 251.6177ZM529.4109 250.38333L530.52026 250.28958Q530.64526 251.10208 531.08276 251.50833Q531.5359 251.91458 532.1765 251.91458Q532.9265 251.91458 533.45776 251.33646Q533.989 250.75833 533.989 249.82083Q533.989 248.91458 533.4734 248.39896Q532.9734 247.8677 532.14526 247.8677Q531.64526 247.8677 531.2234 248.10208Q530.81714 248.33646 530.58276 248.69583L529.5984 248.57083L530.4265 244.16458L534.70776 244.16458L534.70776 245.16458L531.27026 245.16458L530.81714 247.47708Q531.58276 246.9302 532.4265 246.9302Q533.5515 246.9302 534.31714 247.71146Q535.0984 248.4927 535.0984 249.72708Q535.0984 250.88333 534.4265 251.7427Q533.5984 252.77396 532.1765 252.77396Q531.00464 252.77396 530.25464 252.1177Q529.52026 251.46146 529.4109 250.38333Z" fill-rule="nonzero"/><path fill="#ff0000" d="M527.95776 251.6177L527.95776 252.63333L522.27026 252.63333Q522.27026 252.25833 522.39526 251.89896Q522.614 251.32083 523.08276 250.75833Q523.56714 250.19583 524.4734 249.46146Q525.87964 248.3052 526.364 247.63333Q526.864 246.96146 526.864 246.3677Q526.864 245.7427 526.4109 245.32083Q525.95776 244.88333 525.239 244.88333Q524.4734 244.88333 524.02026 245.33646Q523.56714 245.78958 523.5515 246.60208L522.4734 246.4927Q522.58276 245.27396 523.3015 244.64896Q524.0359 244.00833 525.27026 244.00833Q526.50464 244.00833 527.2234 244.69583Q527.94214 245.38333 527.94214 246.39896Q527.94214 246.91458 527.7234 247.41458Q527.52026 247.89896 527.02026 248.46146Q526.5359 249.00833 525.4109 249.96146Q524.45776 250.75833 524.1765 251.0552Q523.9109 251.33646 523.739 251.6177L527.95776 251.6177ZM529.4109 250.38333L530.52026 250.28958Q530.64526 251.10208 531.08276 251.50833Q531.5359 251.91458 532.1765 251.91458Q532.9265 251.91458 533.45776 251.33646Q533.989 250.75833 533.989 249.82083Q533.989 248.91458 533.4734 248.39896Q532.9734 247.8677 532.14526 247.8677Q531.64526 247.8677 531.2234 248.10208Q530.81714 248.33646 530.58276 248.69583L529.5984 248.57083L530.4265 244.16458L534.70776 244.16458L534.70776 245.16458L531.27026 245.16458L530.81714 247.47708Q531.58276 246.9302 532.4265 246.9302Q533.5515 246.9302 534.31714 247.71146Q535.0984 248.4927 535.0984 249.72708Q535.0984 250.88333 534.4265 251.7427Q533.5984 252.77396 532.1765 252.77396Q531.00464 252.77396 530.25464 252.1177Q529.52026 251.46146 529.4109 250.38333Z" fill-rule="nonzero"/><path stroke="#ffffff" stroke-width="3.0" stroke-linejoin="round" stroke-linecap="round" d="M561.7313 220.56667L562.8407 220.47292Q562.9657 221.28542 563.4032 221.69167Q563.8563 222.09792 564.49695 222.09792Q565.24695 222.09792 565.7782 221.51979Q566.30945 220.94167 566.30945 220.00417Q566.30945 219.09792 565.7938 218.58229Q565.2938 218.05104 564.4657 218.05104Q563.9657 218.05104 563.5438 218.28542Q563.1376 218.51979 562.9032 218.87917L561.9188 218.75417L562.74695 214.34792L567.0282 214.34792L567.0282 215.34792L563.5907 215.34792L563.1376 217.66042Q563.9032 217.11354 564.74695 217.11354Q565.87195 217.11354 566.6376 217.89479Q567.4188 218.67604 567.4188 219.91042Q567.4188 221.06667 566.74695 221.92604Q565.9188 222.95729 564.49695 222.95729Q563.3251 222.95729 562.5751 222.30104Q561.8407 221.64479 561.7313 220.56667ZM568.7313 218.58229Q568.7313 217.05104 569.0438 216.12917Q569.3563 215.19167 569.9657 214.69167Q570.5907 214.19167 571.5282 214.19167Q572.2157 214.19167 572.7313 214.47292Q573.2626 214.75417 573.6063 215.28542Q573.9501 215.80104 574.1376 216.55104Q574.3251 217.30104 574.3251 218.58229Q574.3251 220.09792 574.0126 221.01979Q573.7157 221.94167 573.0907 222.45729Q572.4813 222.95729 571.5282 222.95729Q570.2938 222.95729 569.5751 222.06667Q568.7313 221.00417 568.7313 218.58229ZM569.80945 218.58229Q569.80945 220.69167 570.30945 221.39479Q570.80945 222.09792 571.5282 222.09792Q572.2626 222.09792 572.74695 221.39479Q573.24695 220.69167 573.24695 218.58229Q573.24695 216.45729 572.74695 215.76979Q572.2626 215.06667 571.5126 215.06667Q570.7938 215.06667 570.3563 215.67604Q569.80945 216.45729 569.80945 218.58229Z" fill-rule="nonzero"/><path fill="#3c78d8" d="M561.7313 220.56667L562.8407 220.47292Q562.9657 221.28542 563.4032 221.69167Q563.8563 222.09792 564.49695 222.09792Q565.24695 222.09792 565.7782 221.51979Q566.30945 220.94167 566.30945 220.00417Q566.30945 219.09792 565.7938 218.58229Q565.2938 218.05104 564.4657 218.05104Q563.9657 218.05104 563.5438 218.28542Q563.1376 218.51979 562.9032 218.87917L561.9188 218.75417L562.74695 214.34792L567.0282 214.34792L567.0282 215.34792L563.5907 215.34792L563.1376 217.66042Q563.9032 217.11354 564.74695 217.11354Q565.87195 217.11354 566.6376 217.89479Q567.4188 218.67604 567.4188 219.91042Q567.4188 221.06667 566.74695 221.92604Q565.9188 222.95729 564.49695 222.95729Q563.3251 222.95729 562.5751 222.30104Q561.8407 221.64479 561.7313 220.56667ZM568.7313 218.58229Q568.7313 217.05104 569.0438 216.12917Q569.3563 215.19167 569.9657 214.69167Q570.5907 214.19167 571.5282 214.19167Q572.2157 214.19167 572.7313 214.47292Q573.2626 214.75417 573.6063 215.28542Q573.9501 215.80104 574.1376 216.55104Q574.3251 217.30104 574.3251 218.58229Q574.3251 220.09792 574.0126 221.01979Q573.7157 221.94167 573.0907 222.45729Q572.4813 222.95729 571.5282 222.95729Q570.2938 222.95729 569.5751 222.06667Q568.7313 221.00417 568.7313 218.58229ZM569.80945 218.58229Q569.80945 220.69167 570.30945 221.39479Q570.80945 222.09792 571.5282 222.09792Q572.2626 222.09792 572.74695 221.39479Q573.24695 220.69167 573.24695 218.58229Q573.24695 216.45729 572.74695 215.76979Q572.2626 215.06667 571.5126 215.06667Q570.7938 215.06667 570.3563 215.67604Q569.80945 216.45729 569.80945 218.58229Z" fill-rule="nonzero"/><path stroke="#ffffff" stroke-width="3.0" stroke-linejoin="round" stroke-linecap="round" d="M573.4345 115.47667L572.38763 115.47667L572.38763 108.75792Q571.997 109.117294 571.372 109.492294Q570.76263 109.85167 570.27826 110.023544L570.27826 109.00792Q571.15326 108.586044 571.8095 108.00792Q572.4814 107.41417 572.76263 106.85167L573.4345 106.85167L573.4345 115.47667ZM579.84076 115.47667L579.84076 113.41417L576.122 113.41417L576.122 112.44542L580.0439 106.88292L580.90326 106.88292L580.90326 112.44542L582.0595 112.44542L582.0595 113.41417L580.90326 113.41417L580.90326 115.47667L579.84076 115.47667ZM579.84076 112.44542L579.84076 108.586044L577.15326 112.44542L579.84076 112.44542ZM583.46576 111.242294Q583.46576 109.711044 583.77826 108.78917Q584.09076 107.85167 584.70013 107.35167Q585.32513 106.85167 586.26263 106.85167Q586.95013 106.85167 587.46576 107.13292Q587.997 107.41417 588.34076 107.94542Q588.6845 108.461044 588.872 109.211044Q589.0595 109.961044 589.0595 111.242294Q589.0595 112.75792 588.747 113.679794Q588.45013 114.60167 587.82513 115.117294Q587.21576 115.617294 586.26263 115.617294Q585.02826 115.617294 584.3095 114.72667Q583.46576 113.66417 583.46576 111.242294ZM584.5439 111.242294Q584.5439 113.35167 585.0439 114.054794Q585.5439 114.75792 586.26263 114.75792Q586.997 114.75792 587.4814 114.054794Q587.9814 113.35167 587.9814 111.242294Q587.9814 109.117294 587.4814 108.429794Q586.997 107.72667 586.247 107.72667Q585.52826 107.72667 585.09076 108.336044Q584.5439 109.117294 584.5439 111.242294Z" fill-rule="nonzero"/><path fill="#3c78d8" d="M573.4345 115.47667L572.38763 115.47667L572.38763 108.75792Q571.997 109.117294 571.372 109.492294Q570.76263 109.85167 570.27826 110.023544L570.27826 109.00792Q571.15326 108.586044 571.8095 108.00792Q572.4814 107.41417 572.76263 106.85167L573.4345 106.85167L573.4345 115.47667ZM579.84076 115.47667L579.84076 113.41417L576.122 113.41417L576.122 112.44542L580.0439 106.88292L580.90326 106.88292L580.90326 112.44542L582.0595 112.44542L582.0595 113.41417L580.90326 113.41417L580.90326 115.47667L579.84076 115.47667ZM579.84076 112.44542L579.84076 108.586044L577.15326 112.44542L579.84076 112.44542ZM583.46576 111.242294Q583.46576 109.711044 583.77826 108.78917Q584.09076 107.85167 584.70013 107.35167Q585.32513 106.85167 586.26263 106.85167Q586.95013 106.85167 587.46576 107.13292Q587.997 107.41417 588.34076 107.94542Q588.6845 108.461044 588.872 109.211044Q589.0595 109.961044 589.0595 111.242294Q589.0595 112.75792 588.747 113.679794Q588.45013 114.60167 587.82513 115.117294Q587.21576 115.617294 586.26263 115.617294Q585.02826 115.617294 584.3095 114.72667Q583.46576 113.66417 583.46576 111.242294ZM584.5439 111.242294Q584.5439 113.35167 585.0439 114.054794Q585.5439 114.75792 586.26263 114.75792Q586.997 114.75792 587.4814 114.054794Q587.9814 113.35167 587.9814 111.242294Q587.9814 109.117294 587.4814 108.429794Q586.997 107.72667 586.247 107.72667Q585.52826 107.72667 585.09076 108.336044Q584.5439 109.117294 584.5439 111.242294Z" fill-rule="nonzero"/><path fill="#000000" d="M283.10938 349.45L283.10938 341.8719L280.28125 341.8719L280.28125 340.85626L287.09375 340.85626L287.09375 341.8719L284.25 341.8719L284.25 349.45L283.10938 349.45ZM287.79688 349.45L287.79688 340.85626L288.84375 340.85626L288.84375 343.9344Q289.57812 343.09064 290.70312 343.09064Q291.40625 343.09064 291.90625 343.3719Q292.42188 343.6375 292.64062 344.1219Q292.85938 344.59064 292.85938 345.5125L292.85938 349.45L291.8125 349.45L291.8125 345.5125Q291.8125 344.71564 291.46875 344.35626Q291.125 343.9969 290.5 343.9969Q290.03125 343.9969 289.60938 344.2469Q289.20312 344.48126 289.01562 344.90314Q288.84375 345.3094 288.84375 346.04376L288.84375 349.45L287.79688 349.45ZM294.78125 349.45L294.78125 343.23126L295.73438 343.23126L295.73438 344.16876Q296.09375 343.5125 296.39062 343.3094Q296.70312 343.09064 297.07812 343.09064Q297.60938 343.09064 298.15625 343.41876L297.79688 344.40314Q297.40625 344.16876 297.03125 344.16876Q296.67188 344.16876 296.39062 344.3875Q296.125 344.59064 296.01562 344.96564Q295.82812 345.52814 295.82812 346.1844L295.82812 349.45L294.78125 349.45ZM298.40625 346.34064Q298.40625 344.60626 299.35938 343.77814Q300.15625 343.09064 301.3125 343.09064Q302.59375 343.09064 303.40625 343.9344Q304.23438 344.7625 304.23438 346.2469Q304.23438 347.45 303.875 348.1375Q303.51562 348.825 302.8125 349.21564Q302.125 349.59064 301.3125 349.59064Q300.01562 349.59064 299.20312 348.7625Q298.40625 347.91876 298.40625 346.34064ZM299.48438 346.34064Q299.48438 347.52814 300.0 348.1219Q300.53125 348.71564 301.3125 348.71564Q302.10938 348.71564 302.625 348.1219Q303.14062 347.52814 303.14062 346.3094Q303.14062 345.15314 302.60938 344.5594Q302.09375 343.96564 301.3125 343.96564Q300.53125 343.96564 300.0 344.5594Q299.48438 345.1375 299.48438 346.34064ZM309.875 349.45L309.875 348.52814Q309.14062 349.59064 307.89062 349.59064Q307.34375 349.59064 306.85938 349.3875Q306.39062 349.16876 306.15625 348.85626Q305.92188 348.52814 305.82812 348.0594Q305.76562 347.7625 305.76562 347.075L305.76562 343.23126L306.82812 343.23126L306.82812 346.6844Q306.82812 347.4969 306.89062 347.79376Q306.98438 348.2 307.29688 348.45Q307.625 348.6844 308.10938 348.6844Q308.57812 348.6844 308.98438 348.45Q309.40625 348.2 309.57812 347.77814Q309.76562 347.35626 309.76562 346.5594L309.76562 343.23126L310.8125 343.23126L310.8125 349.45L309.875 349.45ZM312.59375 349.96564L313.625 350.1219Q313.6875 350.59064 313.98438 350.8094Q314.375 351.10626 315.04688 351.10626Q315.78125 351.10626 316.17188 350.8094Q316.57812 350.5125 316.71875 349.9969Q316.8125 349.66876 316.79688 348.6375Q316.10938 349.45 315.07812 349.45Q313.79688 349.45 313.09375 348.52814Q312.39062 347.59064 312.39062 346.3094Q312.39062 345.41876 312.70312 344.66876Q313.03125 343.90314 313.64062 343.4969Q314.25 343.09064 315.07812 343.09064Q316.1875 343.09064 316.90625 343.98126L316.90625 343.23126L317.875 343.23126L317.875 348.60626Q317.875 350.0594 317.57812 350.66876Q317.28125 351.27814 316.64062 351.6219Q316.0 351.98126 315.0625 351.98126Q313.95312 351.98126 313.26562 351.48126Q312.57812 350.98126 312.59375 349.96564ZM313.46875 346.23126Q313.46875 347.45 313.95312 348.0125Q314.4375 348.575 315.17188 348.575Q315.90625 348.575 316.39062 348.0125Q316.89062 347.45 316.89062 346.2625Q316.89062 345.1219 316.375 344.54376Q315.875 343.96564 315.15625 343.96564Q314.45312 343.96564 313.95312 344.54376Q313.46875 345.10626 313.46875 346.23126ZM319.79688 349.45L319.79688 340.85626L320.84375 340.85626L320.84375 343.9344Q321.57812 343.09064 322.70312 343.09064Q323.40625 343.09064 323.90625 343.3719Q324.42188 343.6375 324.64062 344.1219Q324.85938 344.59064 324.85938 345.5125L324.85938 349.45L323.8125 349.45L323.8125 345.5125Q323.8125 344.71564 323.46875 344.35626Q323.125 343.9969 322.5 343.9969Q322.03125 343.9969 321.60938 344.2469Q321.20312 344.48126 321.01562 344.90314Q320.84375 345.3094 320.84375 346.04376L320.84375 349.45L319.79688 349.45ZM326.79688 351.84064L326.79688 343.23126L327.75 343.23126L327.75 344.02814Q328.09375 343.5594 328.51562 343.325Q328.95312 343.09064 329.5625 343.09064Q330.35938 343.09064 330.96875 343.4969Q331.57812 343.90314 331.875 344.65314Q332.1875 345.40314 332.1875 346.29376Q332.1875 347.2469 331.84375 348.0125Q331.51562 348.77814 330.85938 349.1844Q330.20312 349.59064 329.48438 349.59064Q328.95312 349.59064 328.53125 349.3719Q328.10938 349.1375 327.84375 348.8094L327.84375 351.84064L326.79688 351.84064ZM327.75 346.3719Q327.75 347.575 328.23438 348.15314Q328.71875 348.71564 329.40625 348.71564Q330.10938 348.71564 330.60938 348.1219Q331.10938 347.52814 331.10938 346.27814Q331.10938 345.09064 330.625 344.5125Q330.14062 343.91876 329.45312 343.91876Q328.78125 343.91876 328.26562 344.54376Q327.75 345.16876 327.75 346.3719ZM337.875 349.45L337.875 348.52814Q337.14062 349.59064 335.89062 349.59064Q335.34375 349.59064 334.85938 349.3875Q334.39062 349.16876 334.15625 348.85626Q333.92188 348.52814 333.82812 348.0594Q333.76562 347.7625 333.76562 347.075L333.76562 343.23126L334.82812 343.23126L334.82812 346.6844Q334.82812 347.4969 334.89062 347.79376Q334.98438 348.2 335.29688 348.45Q335.625 348.6844 336.10938 348.6844Q336.57812 348.6844 336.98438 348.45Q337.40625 348.2 337.57812 347.77814Q337.76562 347.35626 337.76562 346.5594L337.76562 343.23126L338.8125 343.23126L338.8125 349.45L337.875 349.45ZM343.09375 348.5125L343.25 349.4344Q342.79688 349.52814 342.45312 349.52814Q341.875 349.52814 341.5625 349.35626Q341.25 349.16876 341.10938 348.8719Q340.98438 348.575 340.98438 347.6219L340.98438 344.04376L340.21875 344.04376L340.21875 343.23126L340.98438 343.23126L340.98438 341.6844L342.03125 341.0594L342.03125 343.23126L343.09375 343.23126L343.09375 344.04376L342.03125 344.04376L342.03125 347.6844Q342.03125 348.1375 342.07812 348.2625Q342.14062 348.3875 342.26562 348.46564Q342.39062 348.54376 342.625 348.54376Q342.8125 348.54376 343.09375 348.5125ZM348.8125 351.98126Q347.9375 350.8719 347.32812 349.40314Q346.73438 347.91876 346.73438 346.34064Q346.73438 344.95 347.17188 343.66876Q347.70312 342.1844 348.8125 340.71564L349.5625 340.71564Q348.85938 341.9344 348.625 342.45Q348.26562 343.2625 348.0625 344.1375Q347.8125 345.23126 347.8125 346.34064Q347.8125 349.16876 349.5625 351.98126L348.8125 351.98126ZM357.4375 348.52814Q358.23438 349.075 358.89062 349.325L358.5625 350.1219Q357.64062 349.77814 356.71875 349.0594Q355.76562 349.59064 354.60938 349.59064Q353.4375 349.59064 352.48438 349.02814Q351.54688 348.46564 351.03125 347.45Q350.51562 346.4344 350.51562 345.15314Q350.51562 343.8875 351.03125 342.84064Q351.54688 341.79376 352.5 341.2469Q353.45312 340.7 354.625 340.7Q355.8125 340.7 356.76562 341.27814Q357.73438 341.84064 358.23438 342.85626Q358.73438 343.8719 358.73438 345.15314Q358.73438 346.21564 358.40625 347.0594Q358.09375 347.90314 357.4375 348.52814ZM354.9375 347.075Q355.92188 347.35626 356.5625 347.90314Q357.5625 346.98126 357.5625 345.15314Q357.5625 344.10626 357.20312 343.325Q356.84375 342.54376 356.15625 342.1219Q355.48438 341.6844 354.64062 341.6844Q353.35938 341.6844 352.51562 342.5594Q351.6875 343.41876 351.6875 345.15314Q351.6875 346.825 352.51562 347.73126Q353.34375 348.6219 354.64062 348.6219Q355.25 348.6219 355.78125 348.3875Q355.25 348.04376 354.65625 347.90314L354.9375 347.075ZM359.92188 349.45L359.92188 340.85626L363.17188 340.85626Q364.01562 340.85626 364.46875 340.9344Q365.10938 341.04376 365.53125 341.34064Q365.96875 341.6375 366.21875 342.16876Q366.48438 342.7 366.48438 343.34064Q366.48438 344.4344 365.78125 345.2Q365.09375 345.95 363.26562 345.95L361.0625 345.95L361.0625 349.45L359.92188 349.45ZM361.0625 344.95L363.28125 344.95Q364.39062 344.95 364.84375 344.54376Q365.3125 344.1219 365.3125 343.3719Q365.3125 342.84064 365.03125 342.46564Q364.76562 342.075 364.32812 341.95Q364.03125 341.8719 363.26562 341.8719L361.0625 341.8719L361.0625 344.95ZM367.54688 346.6844L368.60938 346.59064Q368.6875 347.2469 368.96875 347.65314Q369.25 348.0594 369.82812 348.325Q370.42188 348.575 371.15625 348.575Q371.79688 348.575 372.29688 348.3875Q372.79688 348.1844 373.03125 347.85626Q373.28125 347.5125 373.28125 347.1219Q373.28125 346.71564 373.04688 346.41876Q372.8125 346.10626 372.28125 345.90314Q371.92188 345.7625 370.73438 345.48126Q369.5625 345.2 369.09375 344.95Q368.46875 344.6219 368.17188 344.15314Q367.875 343.66876 367.875 343.075Q367.875 342.4344 368.23438 341.8719Q368.60938 341.29376 369.3125 341.0125Q370.03125 340.71564 370.89062 340.71564Q371.84375 340.71564 372.57812 341.02814Q373.3125 341.325 373.70312 341.9344Q374.09375 342.52814 374.125 343.27814L373.03125 343.35626Q372.9375 342.54376 372.42188 342.1375Q371.92188 341.71564 370.9375 341.71564Q369.90625 341.71564 369.4375 342.09064Q368.96875 342.46564 368.96875 342.9969Q368.96875 343.46564 369.29688 343.7625Q369.625 344.0594 371.0 344.3719Q372.39062 344.6844 372.90625 344.91876Q373.65625 345.27814 374.01562 345.8094Q374.375 346.325 374.375 347.02814Q374.375 347.71564 373.98438 348.325Q373.59375 348.91876 372.85938 349.2625Q372.125 349.59064 371.20312 349.59064Q370.03125 349.59064 369.23438 349.2625Q368.45312 348.91876 368.0 348.23126Q367.5625 347.54376 367.54688 346.6844ZM376.48438 351.98126L375.73438 351.98126Q377.48438 349.16876 377.48438 346.34064Q377.48438 345.2469 377.23438 344.15314Q377.03125 343.27814 376.67188 342.46564Q376.4375 341.95 375.73438 340.71564L376.48438 340.71564Q377.57812 342.1844 378.10938 343.66876Q378.5625 344.95 378.5625 346.34064Q378.5625 347.91876 377.95312 349.40314Q377.34375 350.8719 376.48438 351.98126Z" fill-rule="nonzero"/><path fill="#000000" d="M27.565638 259.5271L27.471888 258.51147Q28.190638 258.38647 28.518763 258.0271Q28.831263 257.6521 28.831263 257.0896Q28.831263 256.60522 28.612513 256.24585Q28.378138 255.87083 28.018763 255.63646Q27.643763 255.40208 27.018763 255.24583Q26.378138 255.08958 25.721888 255.08958Q25.643763 255.08958 25.503138 255.08958Q26.003138 255.40208 26.331263 255.94896Q26.643763 256.49585 26.643763 257.13647Q26.643763 258.2146 25.878138 258.94897Q25.096888 259.68335 23.831263 259.68335Q22.518763 259.68335 21.721888 258.91772Q20.925013 258.13647 20.925013 256.98022Q20.925013 256.1521 21.378138 255.46458Q21.831263 254.76146 22.675013 254.40208Q23.503138 254.04271 25.081263 254.04271Q26.721888 254.04271 27.706263 254.40208Q28.675013 254.74583 29.190638 255.46458Q29.690638 256.16772 29.690638 257.10522Q29.690638 258.12085 29.143763 258.76147Q28.581263 259.4021 27.565638 259.5271ZM23.768763 255.21458Q22.862513 255.21458 22.331263 255.69896Q21.800013 256.16772 21.800013 256.85522Q21.800013 257.55835 22.378138 258.0896Q22.940638 258.60522 23.862513 258.60522Q24.675013 258.60522 25.190638 258.10522Q25.706263 257.60522 25.706263 256.88647Q25.706263 256.1521 25.190638 255.68333Q24.675013 255.21458 23.768763 255.21458ZM27.300013 252.68333L27.206263 251.57396Q28.018763 251.44896 28.425013 251.01146Q28.831263 250.55833 28.831263 249.91771Q28.831263 249.16771 28.253138 248.63646Q27.675013 248.10521 26.737513 248.10521Q25.831263 248.10521 25.315638 248.62083Q24.784388 249.12083 24.784388 249.94896Q24.784388 250.44896 25.018763 250.87083Q25.253138 251.27708 25.612513 251.51146L25.487513 252.49583L21.081263 251.66771L21.081263 247.38646L22.081263 247.38646L22.081263 250.82396L24.393763 251.27708Q23.846888 250.51146 23.846888 249.66771Q23.846888 248.54271 24.628138 247.77708Q25.409388 246.99583 26.643763 246.99583Q27.800013 246.99583 28.659388 247.66771Q29.690638 248.49583 29.690638 249.91771Q29.690638 251.08958 29.034388 251.83958Q28.378138 252.57396 27.300013 252.68333ZM31.940638 242.38646L23.331263 242.38646L23.331263 241.43333L24.128138 241.43333Q23.659388 241.08958 23.425013 240.66771Q23.190638 240.23021 23.190638 239.62083Q23.190638 238.82396 23.596888 238.21458Q24.003138 237.60521 24.753138 237.30833Q25.503138 236.99583 26.393763 236.99583Q27.346888 236.99583 28.112513 237.33958Q28.878138 237.66771 29.284388 238.32396Q29.690638 238.98021 29.690638 239.69896Q29.690638 240.23021 29.471888 240.65208Q29.237513 241.07396 28.909388 241.33958L31.940638 241.33958L31.940638 242.38646ZM26.471888 241.43333Q27.675013 241.43333 28.253138 240.94896Q28.815638 240.46458 28.815638 239.77708Q28.815638 239.07396 28.221888 238.57396Q27.628138 238.07396 26.378138 238.07396Q25.190638 238.07396 24.612513 238.55833Q24.018763 239.04271 24.018763 239.73021Q24.018763 240.40208 24.643763 240.91771Q25.268763 241.43333 26.471888 241.43333ZM27.550013 231.13646L27.675013 230.04271Q28.628138 230.29271 29.159388 230.99583Q29.690638 231.69896 29.690638 232.77708Q29.690638 234.13646 28.846888 234.94896Q28.003138 235.74583 26.487513 235.74583Q24.925013 235.74583 24.065638 234.93333Q23.190638 234.12083 23.190638 232.83958Q23.190638 231.58958 24.034388 230.80833Q24.878138 230.01146 26.425013 230.01146Q26.518763 230.01146 26.706263 230.01146L26.706263 234.65208Q27.737513 234.58958 28.284388 234.07396Q28.815638 233.55833 28.815638 232.77708Q28.815638 232.19896 28.518763 231.79271Q28.206263 231.37083 27.550013 231.13646ZM25.846888 234.58958L25.846888 231.12083Q25.050013 231.18333 24.659388 231.51146Q24.050013 232.02708 24.050013 232.82396Q24.050013 233.55833 24.534388 234.05833Q25.018763 234.54271 25.846888 234.58958ZM29.550013 228.40208L23.331263 228.40208L23.331263 227.44896L24.268763 227.44896Q23.612513 227.08958 23.409388 226.79271Q23.190638 226.48021 23.190638 226.10521Q23.190638 225.57396 23.518763 225.02708L24.503138 225.38646Q24.268763 225.77708 24.268763 226.15208Q24.268763 226.51146 24.487513 226.79271Q24.690638 227.05833 25.065638 227.16771Q25.628138 227.35521 26.284388 227.35521L29.550013 227.35521L29.550013 228.40208ZM27.268763 220.32396L27.409388 219.29271Q28.471888 219.46458 29.081263 220.16771Q29.690638 220.87083 29.690638 221.88646Q29.690638 223.16771 28.862513 223.94896Q28.018763 224.71458 26.456263 224.71458Q25.456263 224.71458 24.706263 224.38646Q23.940638 224.04271 23.565638 223.37083Q23.190638 222.68333 23.190638 221.87083Q23.190638 220.87083 23.706263 220.23021Q24.206263 219.57396 25.159388 219.38646L25.315638 220.41771Q24.690638 220.55833 24.378138 220.93333Q24.050013 221.30833 24.050013 221.83958Q24.050013 222.63646 24.628138 223.13646Q25.190638 223.63646 26.425013 223.63646Q27.690638 223.63646 28.253138 223.15208Q28.815638 222.66771 28.815638 221.90208Q28.815638 221.27708 28.440638 220.87083Q28.065638 220.44896 27.268763 220.32396ZM27.550013 214.13646L27.675013 213.04271Q28.628138 213.29271 29.159388 213.99583Q29.690638 214.69896 29.690638 215.77708Q29.690638 217.13646 28.846888 217.94896Q28.003138 218.74583 26.487513 218.74583Q24.925013 218.74583 24.065638 217.93333Q23.190638 217.12083 23.190638 215.83958Q23.190638 214.58958 24.034388 213.80833Q24.878138 213.01146 26.425013 213.01146Q26.518763 213.01146 26.706263 213.01146L26.706263 217.65208Q27.737513 217.58958 28.284388 217.07396Q28.815638 216.55833 28.815638 215.77708Q28.815638 215.19896 28.518763 214.79271Q28.206263 214.37083 27.550013 214.13646ZM25.846888 217.58958L25.846888 214.12083Q25.050013 214.18333 24.659388 214.51146Q24.050013 215.02708 24.050013 215.82396Q24.050013 216.55833 24.534388 217.05833Q25.018763 217.54271 25.846888 217.58958ZM29.550013 211.38646L23.331263 211.38646L23.331263 210.44896L24.206263 210.44896Q23.190638 209.76146 23.190638 208.46458Q23.190638 207.90208 23.393763 207.43333Q23.596888 206.94896 23.925013 206.71458Q24.253138 206.48021 24.690638 206.38646Q24.987513 206.33958 25.721888 206.33958L29.550013 206.33958L29.550013 207.38646L25.768763 207.38646Q25.112513 207.38646 24.800013 207.51146Q24.487513 207.63646 24.300013 207.94896Q24.096888 208.26146 24.096888 208.68333Q24.096888 209.35521 24.534388 209.85521Q24.956263 210.33958 26.143763 210.33958L29.550013 210.33958L29.550013 211.38646ZM28.612513 202.08958L29.534388 201.93333Q29.628138 202.38646 29.628138 202.73021Q29.628138 203.30833 29.456263 203.62083Q29.268763 203.93333 28.971888 204.07396Q28.675013 204.19896 27.721888 204.19896L24.143763 204.19896L24.143763 204.96458L23.331263 204.96458L23.331263 204.19896L21.784388 204.19896L21.159388 203.15208L23.331263 203.15208L23.331263 202.08958L24.143763 202.08958L24.143763 203.15208L27.784388 203.15208Q28.237513 203.15208 28.362513 203.10521Q28.487513 203.04271 28.565638 202.91771Q28.643763 202.79271 28.643763 202.55833Q28.643763 202.37083 28.612513 202.08958ZM22.175013 201.38646L20.956263 201.38646L20.956263 200.32396L22.175013 200.32396L22.175013 201.38646ZM29.550013 201.38646L23.331263 201.38646L23.331263 200.32396L29.550013 200.32396L29.550013 201.38646ZM29.550013 198.41771L20.956263 198.41771L20.956263 197.35521L29.550013 197.35521L29.550013 198.41771ZM27.550013 191.13646L27.675013 190.04271Q28.628138 190.29271 29.159388 190.99583Q29.690638 191.69896 29.690638 192.77708Q29.690638 194.13646 28.846888 194.94896Q28.003138 195.74583 26.487513 195.74583Q24.925013 195.74583 24.065638 194.93333Q23.190638 194.12083 23.190638 192.83958Q23.190638 191.58958 24.034388 190.80833Q24.878138 190.01146 26.425013 190.01146Q26.518763 190.01146 26.706263 190.01146L26.706263 194.65208Q27.737513 194.58958 28.284388 194.07396Q28.815638 193.55833 28.815638 192.77708Q28.815638 192.19896 28.518763 191.79271Q28.206263 191.37083 27.550013 191.13646ZM25.846888 194.58958L25.846888 191.12083Q25.050013 191.18333 24.659388 191.51146Q24.050013 192.02708 24.050013 192.82396Q24.050013 193.55833 24.534388 194.05833Q25.018763 194.54271 25.846888 194.58958ZM29.550013 185.41771L20.956263 185.41771L20.956263 184.35521L29.550013 184.35521L29.550013 185.41771ZM28.784388 178.32396Q29.284388 178.91771 29.487513 179.46458Q29.690638 179.99583 29.690638 180.62083Q29.690638 181.65208 29.190638 182.19896Q28.690638 182.74583 27.909388 182.74583Q27.456263 182.74583 27.081263 182.54271Q26.690638 182.33958 26.471888 181.99583Q26.237513 181.65208 26.128138 181.23021Q26.034388 180.93333 25.956263 180.29271Q25.815638 179.02708 25.596888 178.41771Q25.378138 178.41771 25.331263 178.41771Q24.675013 178.41771 24.409388 178.71458Q24.065638 179.12083 24.065638 179.91771Q24.065638 180.65208 24.331263 181.01146Q24.581263 181.37083 25.237513 181.54271L25.096888 182.57396Q24.440638 182.43333 24.034388 182.10521Q23.628138 181.77708 23.409388 181.16771Q23.190638 180.55833 23.190638 179.76146Q23.190638 178.96458 23.378138 178.46458Q23.565638 177.96458 23.846888 177.73021Q24.128138 177.49583 24.565638 177.40208Q24.831263 177.35521 25.534388 177.35521L26.940638 177.35521Q28.409388 177.35521 28.800013 177.29271Q29.190638 177.21458 29.550013 177.01146L29.550013 178.12083Q29.221888 178.27708 28.784388 178.32396ZM26.425013 178.41771Q26.659388 178.99583 26.831263 180.13646Q26.925013 180.79271 27.050013 181.05833Q27.159388 181.32396 27.378138 181.48021Q27.596888 181.62083 27.878138 181.62083Q28.300013 181.62083 28.581263 181.30833Q28.862513 180.98021 28.862513 180.37083Q28.862513 179.76146 28.596888 179.29271Q28.331263 178.80833 27.862513 178.58958Q27.503138 178.41771 26.815638 178.41771L26.425013 178.41771ZM28.612513 173.08958L29.534388 172.93333Q29.628138 173.38646 29.628138 173.73021Q29.628138 174.30833 29.456263 174.62083Q29.268763 174.93333 28.971888 175.07396Q28.675013 175.19896 27.721888 175.19896L24.143763 175.19896L24.143763 175.96458L23.331263 175.96458L23.331263 175.19896L21.784388 175.19896L21.159388 174.15208L23.331263 174.15208L23.331263 173.08958L24.143763 173.08958L24.143763 174.15208L27.784388 174.15208Q28.237513 174.15208 28.362513 174.10521Q28.487513 174.04271 28.565638 173.91771Q28.643763 173.79271 28.643763 173.55833Q28.643763 173.37083 28.612513 173.08958ZM27.550013 168.13646L27.675013 167.04271Q28.628138 167.29271 29.159388 167.99583Q29.690638 168.69896 29.690638 169.77708Q29.690638 171.13646 28.846888 171.94896Q28.003138 172.74583 26.487513 172.74583Q24.925013 172.74583 24.065638 171.93333Q23.190638 171.12083 23.190638 169.83958Q23.190638 168.58958 24.034388 167.80833Q24.878138 167.01146 26.425013 167.01146Q26.518763 167.01146 26.706263 167.01146L26.706263 171.65208Q27.737513 171.58958 28.284388 171.07396Q28.815638 170.55833 28.815638 169.77708Q28.815638 169.19896 28.518763 168.79271Q28.206263 168.37083 27.550013 168.13646ZM25.846888 171.58958L25.846888 168.12083Q25.050013 168.18333 24.659388 168.51146Q24.050013 169.02708 24.050013 169.82396Q24.050013 170.55833 24.534388 171.05833Q25.018763 171.54271 25.846888 171.58958ZM29.550013 165.38646L23.331263 165.38646L23.331263 164.44896L24.206263 164.44896Q23.190638 163.76146 23.190638 162.46458Q23.190638 161.90208 23.393763 161.43333Q23.596888 160.94896 23.925013 160.71458Q24.253138 160.48021 24.690638 160.38646Q24.987513 160.33958 25.721888 160.33958L29.550013 160.33958L29.550013 161.38646L25.768763 161.38646Q25.112513 161.38646 24.800013 161.51146Q24.487513 161.63646 24.300013 161.94896Q24.096888 162.26146 24.096888 162.68333Q24.096888 163.35521 24.534388 163.85521Q24.956263 164.33958 26.143763 164.33958L29.550013 164.33958L29.550013 165.38646ZM27.268763 154.32396L27.409388 153.29271Q28.471888 153.46458 29.081263 154.16771Q29.690638 154.87083 29.690638 155.88646Q29.690638 157.16771 28.862513 157.94896Q28.018763 158.71458 26.456263 158.71458Q25.456263 158.71458 24.706263 158.38646Q23.940638 158.04271 23.565638 157.37083Q23.190638 156.68333 23.190638 155.87083Q23.190638 154.87083 23.706263 154.23021Q24.206263 153.57396 25.159388 153.38646L25.315638 154.41771Q24.690638 154.55833 24.378138 154.93333Q24.050013 155.30833 24.050013 155.83958Q24.050013 156.63646 24.628138 157.13646Q25.190638 157.63646 26.425013 157.63646Q27.690638 157.63646 28.253138 157.15208Q28.815638 156.66771 28.815638 155.90208Q28.815638 155.27708 28.440638 154.87083Q28.065638 154.44896 27.268763 154.32396ZM31.940638 152.43333L30.956263 152.55833Q31.050013 152.21458 31.050013 151.94896Q31.050013 151.60521 30.925013 151.40208Q30.815638 151.18333 30.612513 151.04271Q30.440638 150.94896 29.815638 150.71458Q29.737513 150.69896 29.565638 150.62083L23.331263 152.99583L23.331263 151.85521L26.925013 150.55833Q27.612513 150.30833 28.378138 150.10521Q27.643763 149.91771 26.956263 149.66771L23.331263 148.33958L23.331263 147.29271L29.659388 149.65208Q30.675013 150.04271 31.065638 150.24583Q31.596888 150.52708 31.831263 150.90208Q32.08126 151.26146 32.08126 151.76146Q32.08126 152.05833 31.940638 152.43333ZM22.175013 143.38646L20.956263 143.38646L20.956263 142.32396L22.175013 142.32396L22.175013 143.38646ZM29.550013 143.38646L23.331263 143.38646L23.331263 142.32396L29.550013 142.32396L29.550013 143.38646ZM29.550013 140.38646L23.331263 140.38646L23.331263 139.44896L24.206263 139.44896Q23.190638 138.76146 23.190638 137.46458Q23.190638 136.90208 23.393763 136.43333Q23.596888 135.94896 23.925013 135.71458Q24.253138 135.48021 24.690638 135.38646Q24.987513 135.33958 25.721888 135.33958L29.550013 135.33958L29.550013 136.38646L25.768763 136.38646Q25.112513 136.38646 24.800013 136.51146Q24.487513 136.63646 24.300013 136.94896Q24.096888 137.26146 24.096888 137.68333Q24.096888 138.35521 24.534388 138.85521Q24.956263 139.33958 26.143763 139.33958L29.550013 139.33958L29.550013 140.38646ZM29.550013 130.38646L23.331263 130.38646L23.331263 129.44896L24.206263 129.44896Q23.737513 129.15208 23.471888 128.66771Q23.190638 128.18333 23.190638 127.558334Q23.190638 126.870834 23.471888 126.433334Q23.753138 125.98021 24.268763 125.808334Q23.190638 125.058334 23.190638 123.88646Q23.190638 122.94896 23.706263 122.464584Q24.206263 121.964584 25.284388 121.964584L29.550013 121.964584L29.550013 123.01146L25.628138 123.01146Q25.003138 123.01146 24.721888 123.120834Q24.440638 123.214584 24.268763 123.48021Q24.096888 123.745834 24.096888 124.120834Q24.096888 124.777084 24.534388 125.214584Q24.971888 125.63646 25.940638 125.63646L29.550013 125.63646L29.550013 126.69896L25.503138 126.69896Q24.800013 126.69896 24.456263 126.964584Q24.096888 127.214584 24.096888 127.79271Q24.096888 128.24583 24.331263 128.62083Q24.565638 128.99583 25.018763 129.16771Q25.471888 129.33958 26.315638 129.33958L29.550013 129.33958L29.550013 130.38646ZM27.690638 120.808334L27.534388 119.777084Q28.159388 119.683334 28.487513 119.29271Q28.815638 118.88646 28.815638 118.152084Q28.815638 117.433334 28.534388 117.089584Q28.237513 116.73021 27.831263 116.73021Q27.471888 116.73021 27.268763 117.04271Q27.128138 117.26146 26.909388 118.120834Q26.612513 119.277084 26.409388 119.73021Q26.190638 120.16771 25.815638 120.402084Q25.440638 120.63646 24.971888 120.63646Q24.565638 120.63646 24.206263 120.44896Q23.846888 120.26146 23.612513 119.933334Q23.440638 119.683334 23.315638 119.26146Q23.190638 118.839584 23.190638 118.339584Q23.190638 117.620834 23.409388 117.07396Q23.612513 116.51146 23.971888 116.245834Q24.331263 115.98021 24.925013 115.88646L25.065638 116.91771Q24.596888 116.98021 24.331263 117.32396Q24.050013 117.652084 24.050013 118.277084Q24.050013 118.995834 24.300013 119.308334Q24.534388 119.620834 24.862513 119.620834Q25.065638 119.620834 25.221888 119.495834Q25.393763 119.35521 25.503138 119.089584Q25.565638 118.933334 25.768763 118.152084Q26.081263 117.027084 26.268763 116.589584Q26.456263 116.152084 26.815638 115.902084Q27.175013 115.652084 27.721888 115.652084Q28.253138 115.652084 28.721888 115.964584Q29.175013 116.26146 29.440638 116.839584Q29.690638 117.41771 29.690638 118.152084Q29.690638 119.370834 29.190638 120.01146Q28.675013 120.63646 27.690638 120.808334Z" fill-rule="nonzero"/><path fill="#000000" d="M65.05 300.21564Q65.05 298.6844 65.3625 297.7625Q65.675 296.825 66.28438 296.325Q66.90938 295.825 67.84688 295.825Q68.53438 295.825 69.05 296.10626Q69.58125 296.3875 69.925 296.91876Q70.26875 297.4344 70.45625 298.1844Q70.64375 298.9344 70.64375 300.21564Q70.64375 301.73126 70.33125 302.65314Q70.03438 303.575 69.40938 304.09064Q68.8 304.59064 67.84688 304.59064Q66.6125 304.59064 65.89375 303.7Q65.05 302.6375 65.05 300.21564ZM66.12813 300.21564Q66.12813 302.325 66.62813 303.02814Q67.12813 303.73126 67.84688 303.73126Q68.58125 303.73126 69.06563 303.02814Q69.56563 302.325 69.56563 300.21564Q69.56563 298.09064 69.06563 297.40314Q68.58125 296.7 67.83125 296.7Q67.1125 296.7 66.675 297.3094Q66.12813 298.09064 66.12813 300.21564Z" fill-rule="nonzero"/><path fill="#000000" d="M58.05 242.56667L59.159374 242.47292Q59.284374 243.28542 59.721874 243.69167Q60.175 244.09792 60.815624 244.09792Q61.565624 244.09792 62.096874 243.51979Q62.628124 242.94167 62.628124 242.00417Q62.628124 241.09792 62.1125 240.58229Q61.6125 240.05104 60.784374 240.05104Q60.284374 240.05104 59.8625 240.28542Q59.45625 240.51979 59.221874 240.87917L58.2375 240.75417L59.065624 236.34792L63.346874 236.34792L63.346874 237.34792L59.909374 237.34792L59.45625 239.66042Q60.221874 239.11354 61.065624 239.11354Q62.190624 239.11354 62.95625 239.89479Q63.7375 240.67604 63.7375 241.91042Q63.7375 243.06667 63.065624 243.92604Q62.2375 244.95729 60.815624 244.95729Q59.64375 244.95729 58.89375 244.30104Q58.159374 243.64479 58.05 242.56667ZM65.05 240.58229Q65.05 239.05104 65.3625 238.12917Q65.675 237.19167 66.28438 236.69167Q66.90938 236.19167 67.84688 236.19167Q68.53438 236.19167 69.05 236.47292Q69.58125 236.75417 69.925 237.28542Q70.26875 237.80104 70.45625 238.55104Q70.64375 239.30104 70.64375 240.58229Q70.64375 242.09792 70.33125 243.01979Q70.03438 243.94167 69.40938 244.45729Q68.8 244.95729 67.84688 244.95729Q66.6125 244.95729 65.89375 244.06667Q65.05 243.00417 65.05 240.58229ZM66.12813 240.58229Q66.12813 242.69167 66.62813 243.39479Q67.12813 244.09792 67.84688 244.09792Q68.58125 244.09792 69.06563 243.39479Q69.56563 242.69167 69.56563 240.58229Q69.56563 238.45729 69.06563 237.76979Q68.58125 237.06667 67.83125 237.06667Q67.1125 237.06667 66.675 237.67604Q66.12813 238.45729 66.12813 240.58229Z" fill-rule="nonzero"/><path fill="#000000" d="M55.01875 185.18333L53.971874 185.18333L53.971874 178.46458Q53.58125 178.82396 52.95625 179.19896Q52.346874 179.55833 51.8625 179.73021L51.8625 178.71458Q52.7375 178.29271 53.39375 177.71458Q54.065624 177.12083 54.346874 176.55833L55.01875 176.55833L55.01875 185.18333ZM58.05 180.94896Q58.05 179.41771 58.3625 178.49583Q58.675 177.55833 59.284374 177.05833Q59.909374 176.55833 60.846874 176.55833Q61.534374 176.55833 62.05 176.83958Q62.58125 177.12083 62.925 177.65208Q63.26875 178.16771 63.45625 178.91771Q63.64375 179.66771 63.64375 180.94896Q63.64375 182.46458 63.33125 183.38646Q63.034374 184.30833 62.409374 184.82396Q61.8 185.32396 60.846874 185.32396Q59.6125 185.32396 58.89375 184.43333Q58.05 183.37083 58.05 180.94896ZM59.128124 180.94896Q59.128124 183.05833 59.628124 183.76146Q60.128124 184.46458 60.846874 184.46458Q61.58125 184.46458 62.065624 183.76146Q62.565624 183.05833 62.565624 180.94896Q62.565624 178.82396 62.065624 178.13646Q61.58125 177.43333 60.83125 177.43333Q60.1125 177.43333 59.675 178.04271Q59.128124 178.82396 59.128124 180.94896ZM65.05 180.94896Q65.05 179.41771 65.3625 178.49583Q65.675 177.55833 66.28438 177.05833Q66.90938 176.55833 67.84688 176.55833Q68.53438 176.55833 69.05 176.83958Q69.58125 177.12083 69.925 177.65208Q70.26875 178.16771 70.45625 178.91771Q70.64375 179.66771 70.64375 180.94896Q70.64375 182.46458 70.33125 183.38646Q70.03438 184.30833 69.40938 184.82396Q68.8 185.32396 67.84688 185.32396Q66.6125 185.32396 65.89375 184.43333Q65.05 183.37083 65.05 180.94896ZM66.12813 180.94896Q66.12813 183.05833 66.62813 183.76146Q67.12813 184.46458 67.84688 184.46458Q68.58125 184.46458 69.06563 183.76146Q69.56563 183.05833 69.56563 180.94896Q69.56563 178.82396 69.06563 178.13646Q68.58125 177.43333 67.83125 177.43333Q67.1125 177.43333 66.675 178.04271Q66.12813 178.82396 66.12813 180.94896Z" fill-rule="nonzero"/><path fill="#000000" d="M55.01875 125.55L53.971874 125.55L53.971874 118.83125Q53.58125 119.19063 52.95625 119.56563Q52.346874 119.925 51.8625 120.09688L51.8625 119.08125Q52.7375 118.65938 53.39375 118.08125Q54.065624 117.4875 54.346874 116.925L55.01875 116.925L55.01875 125.55ZM58.05 123.3L59.159374 123.20625Q59.284374 124.01875 59.721874 124.425Q60.175 124.83125 60.815624 124.83125Q61.565624 124.83125 62.096874 124.25313Q62.628124 123.675 62.628124 122.7375Q62.628124 121.83125 62.1125 121.31563Q61.6125 120.78438 60.784374 120.78438Q60.284374 120.78438 59.8625 121.01875Q59.45625 121.25313 59.221874 121.6125L58.2375 121.4875L59.065624 117.08125L63.346874 117.08125L63.346874 118.08125L59.909374 118.08125L59.45625 120.39375Q60.221874 119.84688 61.065624 119.84688Q62.190624 119.84688 62.95625 120.62813Q63.7375 121.40938 63.7375 122.64375Q63.7375 123.8 63.065624 124.65938Q62.2375 125.69063 60.815624 125.69063Q59.64375 125.69063 58.89375 125.03438Q58.159374 124.37813 58.05 123.3ZM65.05 121.31563Q65.05 119.78438 65.3625 118.8625Q65.675 117.925 66.28438 117.425Q66.90938 116.925 67.84688 116.925Q68.53438 116.925 69.05 117.20625Q69.58125 117.4875 69.925 118.01875Q70.26875 118.53438 70.45625 119.28438Q70.64375 120.03438 70.64375 121.31563Q70.64375 122.83125 70.33125 123.75313Q70.03438 124.675 69.40938 125.19063Q68.8 125.69063 67.84688 125.69063Q66.6125 125.69063 65.89375 124.8Q65.05 123.7375 65.05 121.31563ZM66.12813 121.31563Q66.12813 123.425 66.62813 124.12813Q67.12813 124.83125 67.84688 124.83125Q68.58125 124.83125 69.06563 124.12813Q69.56563 123.425 69.56563 121.31563Q69.56563 119.19063 69.06563 118.50313Q68.58125 117.8 67.83125 117.8Q67.1125 117.8 66.675 118.40938Q66.12813 119.19063 66.12813 121.31563Z" fill-rule="nonzero"/><path fill="#000000" d="M56.596874 64.90104L56.596874 65.916664L50.909374 65.916664Q50.909374 65.541664 51.034374 65.18229Q51.253124 64.604164 51.721874 64.041664Q52.20625 63.479164 53.1125 62.74479Q54.51875 61.58854 55.003124 60.916664Q55.503124 60.24479 55.503124 59.65104Q55.503124 59.02604 55.05 58.604164Q54.596874 58.166664 53.878124 58.166664Q53.1125 58.166664 52.659374 58.61979Q52.20625 59.072914 52.190624 59.885414L51.1125 59.77604Q51.221874 58.55729 51.940624 57.93229Q52.675 57.291664 53.909374 57.291664Q55.14375 57.291664 55.8625 57.979164Q56.58125 58.666664 56.58125 59.68229Q56.58125 60.197914 56.3625 60.697914Q56.159374 61.18229 55.659374 61.74479Q55.175 62.291664 54.05 63.24479Q53.096874 64.041664 52.815624 64.33854Q52.55 64.61979 52.378124 64.90104L56.596874 64.90104ZM58.05 61.68229Q58.05 60.15104 58.3625 59.229164Q58.675 58.291664 59.284374 57.791664Q59.909374 57.291664 60.846874 57.291664Q61.534374 57.291664 62.05 57.572914Q62.58125 57.854164 62.925 58.385414Q63.26875 58.90104 63.45625 59.65104Q63.64375 60.40104 63.64375 61.68229Q63.64375 63.197914 63.33125 64.11979Q63.034374 65.041664 62.409374 65.55729Q61.8 66.05729 60.846874 66.05729Q59.6125 66.05729 58.89375 65.166664Q58.05 64.104164 58.05 61.68229ZM59.128124 61.68229Q59.128124 63.791664 59.628124 64.49479Q60.128124 65.197914 60.846874 65.197914Q61.58125 65.197914 62.065624 64.49479Q62.565624 63.791664 62.565624 61.68229Q62.565624 59.55729 62.065624 58.86979Q61.58125 58.166664 60.83125 58.166664Q60.1125 58.166664 59.675 58.77604Q59.128124 59.55729 59.128124 61.68229ZM65.05 61.68229Q65.05 60.15104 65.3625 59.229164Q65.675 58.291664 66.28438 57.791664Q66.90938 57.291664 67.84688 57.291664Q68.53438 57.291664 69.05 57.572914Q69.58125 57.854164 69.925 58.385414Q70.26875 58.90104 70.45625 59.65104Q70.64375 60.40104 70.64375 61.68229Q70.64375 63.197914 70.33125 64.11979Q70.03438 65.041664 69.40938 65.55729Q68.8 66.05729 67.84688 66.05729Q66.6125 66.05729 65.89375 65.166664Q65.05 64.104164 65.05 61.68229ZM66.12813 61.68229Q66.12813 63.791664 66.62813 64.49479Q67.12813 65.197914 67.84688 65.197914Q68.58125 65.197914 69.06563 64.49479Q69.56563 63.791664 69.56563 61.68229Q69.56563 59.55729 69.06563 58.86979Q68.58125 58.166664 67.83125 58.166664Q67.1125 58.166664 66.675 58.77604Q66.12813 59.55729 66.12813 61.68229Z" fill-rule="nonzero"/><path fill="#000000" d="M111.72581 309.98126L111.72581 308.96564L117.28831 308.96564L117.28831 309.79376Q116.47581 310.66876 115.66331 312.1219Q114.86643 313.5594 114.42893 315.09064Q114.10081 316.16876 114.02268 317.45L112.92893 317.45Q112.94456 316.4344 113.31956 314.9969Q113.71018 313.5594 114.41331 312.23126Q115.13206 310.90314 115.94456 309.98126L111.72581 309.98126ZM118.66331 315.2L119.77268 315.10626Q119.89768 315.91876 120.33518 316.325Q120.78831 316.73126 121.42893 316.73126Q122.17893 316.73126 122.71018 316.15314Q123.24143 315.575 123.24143 314.6375Q123.24143 313.73126 122.72581 313.21564Q122.22581 312.6844 121.39768 312.6844Q120.89768 312.6844 120.47581 312.91876Q120.06956 313.15314 119.83518 313.5125L118.85081 313.3875L119.67893 308.98126L123.96018 308.98126L123.96018 309.98126L120.52268 309.98126L120.06956 312.29376Q120.83518 311.7469 121.67893 311.7469Q122.80393 311.7469 123.56956 312.52814Q124.35081 313.3094 124.35081 314.54376Q124.35081 315.7 123.67893 316.5594Q122.85081 317.59064 121.42893 317.59064Q120.25706 317.59064 119.50706 316.9344Q118.77268 316.27814 118.66331 315.2ZM125.66331 313.21564Q125.66331 311.6844 125.97581 310.7625Q126.28831 309.825 126.89768 309.325Q127.52268 308.825 128.46017 308.825Q129.14767 308.825 129.6633 309.10626Q130.19455 309.3875 130.5383 309.91876Q130.88205 310.4344 131.06955 311.1844Q131.25705 311.9344 131.25705 313.21564Q131.25705 314.73126 130.94455 315.65314Q130.64767 316.575 130.02267 317.09064Q129.4133 317.59064 128.46017 317.59064Q127.22581 317.59064 126.50706 316.7Q125.66331 315.6375 125.66331 313.21564ZM126.74143 313.21564Q126.74143 315.325 127.24143 316.02814Q127.74143 316.73126 128.46017 316.73126Q129.19455 316.73126 129.67892 316.02814Q130.17892 315.325 130.17892 313.21564Q130.17892 311.09064 129.67892 310.40314Q129.19455 309.7 128.44455 309.7Q127.72581 309.7 127.28831 310.3094Q126.74143 311.09064 126.74143 313.21564Z" fill-rule="nonzero"/><path fill="#000000" d="M182.34715 317.45L181.30028 317.45L181.30028 310.73126Q180.90965 311.09064 180.28465 311.46564Q179.67528 311.825 179.1909 311.9969L179.1909 310.98126Q180.0659 310.5594 180.72215 309.98126Q181.39403 309.3875 181.67528 308.825L182.34715 308.825L182.34715 317.45ZM185.3784 313.21564Q185.3784 311.6844 185.6909 310.7625Q186.0034 309.825 186.61278 309.325Q187.23778 308.825 188.17528 308.825Q188.86278 308.825 189.3784 309.10626Q189.90965 309.3875 190.2534 309.91876Q190.59715 310.4344 190.78465 311.1844Q190.97215 311.9344 190.97215 313.21564Q190.97215 314.73126 190.65965 315.65314Q190.36278 316.575 189.73778 317.09064Q189.1284 317.59064 188.17528 317.59064Q186.9409 317.59064 186.22215 316.7Q185.3784 315.6375 185.3784 313.21564ZM186.45653 313.21564Q186.45653 315.325 186.95653 316.02814Q187.45653 316.73126 188.17528 316.73126Q188.90965 316.73126 189.39403 316.02814Q189.89403 315.325 189.89403 313.21564Q189.89403 311.09064 189.39403 310.40314Q188.90965 309.7 188.15965 309.7Q187.4409 309.7 187.0034 310.3094Q186.45653 311.09064 186.45653 313.21564ZM192.3784 313.21564Q192.3784 311.6844 192.6909 310.7625Q193.0034 309.825 193.61278 309.325Q194.23778 308.825 195.17528 308.825Q195.86278 308.825 196.3784 309.10626Q196.90965 309.3875 197.2534 309.91876Q197.59715 310.4344 197.78465 311.1844Q197.97215 311.9344 197.97215 313.21564Q197.97215 314.73126 197.65965 315.65314Q197.36278 316.575 196.73778 317.09064Q196.1284 317.59064 195.17528 317.59064Q193.9409 317.59064 193.22215 316.7Q192.3784 315.6375 192.3784 313.21564ZM193.45653 313.21564Q193.45653 315.325 193.95653 316.02814Q194.45653 316.73126 195.17528 316.73126Q195.90965 316.73126 196.39403 316.02814Q196.89403 315.325 196.89403 313.21564Q196.89403 311.09064 196.39403 310.40314Q195.90965 309.7 195.15965 309.7Q194.4409 309.7 194.0034 310.3094Q193.45653 311.09064 193.45653 313.21564ZM199.3784 313.21564Q199.3784 311.6844 199.6909 310.7625Q200.0034 309.825 200.61278 309.325Q201.23778 308.825 202.17528 308.825Q202.86278 308.825 203.3784 309.10626Q203.90965 309.3875 204.2534 309.91876Q204.59715 310.4344 204.78465 311.1844Q204.97215 311.9344 204.97215 313.21564Q204.97215 314.73126 204.65965 315.65314Q204.36278 316.575 203.73778 317.09064Q203.1284 317.59064 202.17528 317.59064Q200.9409 317.59064 200.22215 316.7Q199.3784 315.6375 199.3784 313.21564ZM200.45653 313.21564Q200.45653 315.325 200.95653 316.02814Q201.45653 316.73126 202.17528 316.73126Q202.90965 316.73126 203.39403 316.02814Q203.89403 315.325 203.89403 313.21564Q203.89403 311.09064 203.39403 310.40314Q202.90965 309.7 202.15965 309.7Q201.4409 309.7 201.0034 310.3094Q200.45653 311.09064 200.45653 313.21564Z" fill-rule="nonzero"/><path fill="#000000" d="M252.56226 317.45L251.51538 317.45L251.51538 310.73126Q251.12476 311.09064 250.49976 311.46564Q249.89038 311.825 249.406 311.9969L249.406 310.98126Q250.281 310.5594 250.93726 309.98126Q251.60913 309.3875 251.89038 308.825L252.56226 308.825L252.56226 317.45ZM261.14038 316.4344L261.14038 317.45L255.45288 317.45Q255.45288 317.075 255.57788 316.71564Q255.79663 316.1375 256.26538 315.575Q256.74976 315.0125 257.656 314.27814Q259.06226 313.1219 259.54663 312.45Q260.04663 311.77814 260.04663 311.1844Q260.04663 310.5594 259.5935 310.1375Q259.14038 309.7 258.42163 309.7Q257.656 309.7 257.20288 310.15314Q256.74976 310.60626 256.73413 311.41876L255.656 311.3094Q255.76538 310.09064 256.48413 309.46564Q257.2185 308.825 258.45288 308.825Q259.68726 308.825 260.406 309.5125Q261.12476 310.2 261.12476 311.21564Q261.12476 311.73126 260.906 312.23126Q260.70288 312.71564 260.20288 313.27814Q259.7185 313.825 258.5935 314.77814Q257.64038 315.575 257.35913 315.8719Q257.0935 316.15314 256.92163 316.4344L261.14038 316.4344ZM262.5935 315.2L263.70288 315.10626Q263.82788 315.91876 264.26538 316.325Q264.7185 316.73126 265.35913 316.73126Q266.10913 316.73126 266.64038 316.15314Q267.17163 315.575 267.17163 314.6375Q267.17163 313.73126 266.656 313.21564Q266.156 312.6844 265.32788 312.6844Q264.82788 312.6844 264.406 312.91876Q263.99976 313.15314 263.76538 313.5125L262.781 313.3875L263.60913 308.98126L267.89038 308.98126L267.89038 309.98126L264.45288 309.98126L263.99976 312.29376Q264.76538 311.7469 265.60913 311.7469Q266.73413 311.7469 267.49976 312.52814Q268.281 313.3094 268.281 314.54376Q268.281 315.7 267.60913 316.5594Q266.781 317.59064 265.35913 317.59064Q264.18726 317.59064 263.43726 316.9344Q262.70288 316.27814 262.5935 315.2ZM269.5935 313.21564Q269.5935 311.6844 269.906 310.7625Q270.2185 309.825 270.82788 309.325Q271.45288 308.825 272.39038 308.825Q273.07788 308.825 273.5935 309.10626Q274.12476 309.3875 274.4685 309.91876Q274.81226 310.4344 274.99976 311.1844Q275.18726 311.9344 275.18726 313.21564Q275.18726 314.73126 274.87476 315.65314Q274.57788 316.575 273.95288 317.09064Q273.3435 317.59064 272.39038 317.59064Q271.156 317.59064 270.43726 316.7Q269.5935 315.6375 269.5935 313.21564ZM270.67163 313.21564Q270.67163 315.325 271.17163 316.02814Q271.67163 316.73126 272.39038 316.73126Q273.12476 316.73126 273.60913 316.02814Q274.10913 315.325 274.10913 313.21564Q274.10913 311.09064 273.60913 310.40314Q273.12476 309.7 272.37476 309.7Q271.656 309.7 271.2185 310.3094Q270.67163 311.09064 270.67163 313.21564Z" fill-rule="nonzero"/><path fill="#000000" d="M322.77734 317.45L321.73047 317.45L321.73047 310.73126Q321.33984 311.09064 320.71484 311.46564Q320.10547 311.825 319.6211 311.9969L319.6211 310.98126Q320.4961 310.5594 321.15234 309.98126Q321.82422 309.3875 322.10547 308.825L322.77734 308.825L322.77734 317.45ZM325.8086 315.2L326.91797 315.10626Q327.04297 315.91876 327.48047 316.325Q327.9336 316.73126 328.57422 316.73126Q329.32422 316.73126 329.85547 316.15314Q330.38672 315.575 330.38672 314.6375Q330.38672 313.73126 329.8711 313.21564Q329.3711 312.6844 328.54297 312.6844Q328.04297 312.6844 327.6211 312.91876Q327.21484 313.15314 326.98047 313.5125L325.9961 313.3875L326.82422 308.98126L331.10547 308.98126L331.10547 309.98126L327.66797 309.98126L327.21484 312.29376Q327.98047 311.7469 328.82422 311.7469Q329.94922 311.7469 330.71484 312.52814Q331.4961 313.3094 331.4961 314.54376Q331.4961 315.7 330.82422 316.5594Q329.9961 317.59064 328.57422 317.59064Q327.40234 317.59064 326.65234 316.9344Q325.91797 316.27814 325.8086 315.2ZM332.8086 313.21564Q332.8086 311.6844 333.1211 310.7625Q333.4336 309.825 334.04297 309.325Q334.66797 308.825 335.60547 308.825Q336.29297 308.825 336.8086 309.10626Q337.33984 309.3875 337.6836 309.91876Q338.02734 310.4344 338.21484 311.1844Q338.40234 311.9344 338.40234 313.21564Q338.40234 314.73126 338.08984 315.65314Q337.79297 316.575 337.16797 317.09064Q336.5586 317.59064 335.60547 317.59064Q334.3711 317.59064 333.65234 316.7Q332.8086 315.6375 332.8086 313.21564ZM333.88672 313.21564Q333.88672 315.325 334.38672 316.02814Q334.88672 316.73126 335.60547 316.73126Q336.33984 316.73126 336.82422 316.02814Q337.32422 315.325 337.32422 313.21564Q337.32422 311.09064 336.82422 310.40314Q336.33984 309.7 335.58984 309.7Q334.8711 309.7 334.4336 310.3094Q333.88672 311.09064 333.88672 313.21564ZM339.8086 313.21564Q339.8086 311.6844 340.1211 310.7625Q340.4336 309.825 341.04297 309.325Q341.66797 308.825 342.60547 308.825Q343.29297 308.825 343.8086 309.10626Q344.33984 309.3875 344.6836 309.91876Q345.02734 310.4344 345.21484 311.1844Q345.40234 311.9344 345.40234 313.21564Q345.40234 314.73126 345.08984 315.65314Q344.79297 316.575 344.16797 317.09064Q343.5586 317.59064 342.60547 317.59064Q341.3711 317.59064 340.65234 316.7Q339.8086 315.6375 339.8086 313.21564ZM340.88672 313.21564Q340.88672 315.325 341.38672 316.02814Q341.88672 316.73126 342.60547 316.73126Q343.33984 316.73126 343.82422 316.02814Q344.32422 315.325 344.32422 313.21564Q344.32422 311.09064 343.82422 310.40314Q343.33984 309.7 342.58984 309.7Q341.8711 309.7 341.4336 310.3094Q340.88672 311.09064 340.88672 313.21564Z" fill-rule="nonzero"/><path fill="#000000" d="M392.99246 317.45L391.9456 317.45L391.9456 310.73126Q391.55496 311.09064 390.92996 311.46564Q390.3206 311.825 389.8362 311.9969L389.8362 310.98126Q390.7112 310.5594 391.36746 309.98126Q392.03934 309.3875 392.3206 308.825L392.99246 308.825L392.99246 317.45ZM396.0862 309.98126L396.0862 308.96564L401.6487 308.96564L401.6487 309.79376Q400.8362 310.66876 400.0237 312.1219Q399.22684 313.5594 398.78934 315.09064Q398.4612 316.16876 398.3831 317.45L397.28934 317.45Q397.30496 316.4344 397.67996 314.9969Q398.0706 313.5594 398.7737 312.23126Q399.49246 310.90314 400.30496 309.98126L396.0862 309.98126ZM403.0237 315.2L404.1331 315.10626Q404.2581 315.91876 404.6956 316.325Q405.1487 316.73126 405.78934 316.73126Q406.53934 316.73126 407.0706 316.15314Q407.60184 315.575 407.60184 314.6375Q407.60184 313.73126 407.0862 313.21564Q406.5862 312.6844 405.7581 312.6844Q405.2581 312.6844 404.8362 312.91876Q404.42996 313.15314 404.1956 313.5125L403.2112 313.3875L404.03934 308.98126L408.3206 308.98126L408.3206 309.98126L404.8831 309.98126L404.42996 312.29376Q405.1956 311.7469 406.03934 311.7469Q407.16434 311.7469 407.92996 312.52814Q408.7112 313.3094 408.7112 314.54376Q408.7112 315.7 408.03934 316.5594Q407.2112 317.59064 405.78934 317.59064Q404.61746 317.59064 403.86746 316.9344Q403.1331 316.27814 403.0237 315.2ZM410.0237 313.21564Q410.0237 311.6844 410.3362 310.7625Q410.6487 309.825 411.2581 309.325Q411.8831 308.825 412.8206 308.825Q413.5081 308.825 414.0237 309.10626Q414.55496 309.3875 414.8987 309.91876Q415.24246 310.4344 415.42996 311.1844Q415.61746 311.9344 415.61746 313.21564Q415.61746 314.73126 415.30496 315.65314Q415.0081 316.575 414.3831 317.09064Q413.7737 317.59064 412.8206 317.59064Q411.5862 317.59064 410.86746 316.7Q410.0237 315.6375 410.0237 313.21564ZM411.10184 313.21564Q411.10184 315.325 411.60184 316.02814Q412.10184 316.73126 412.8206 316.73126Q413.55496 316.73126 414.03934 316.02814Q414.53934 315.325 414.53934 313.21564Q414.53934 311.09064 414.03934 310.40314Q413.55496 309.7 412.80496 309.7Q412.0862 309.7 411.6487 310.3094Q411.10184 311.09064 411.10184 313.21564Z" fill-rule="nonzero"/><path fill="#000000" d="M464.78568 316.4344L464.78568 317.45L459.09818 317.45Q459.09818 317.075 459.22318 316.71564Q459.44193 316.1375 459.91068 315.575Q460.39505 315.0125 461.3013 314.27814Q462.70755 313.1219 463.19193 312.45Q463.69193 311.77814 463.69193 311.1844Q463.69193 310.5594 463.2388 310.1375Q462.78568 309.7 462.06693 309.7Q461.3013 309.7 460.84818 310.15314Q460.39505 310.60626 460.37943 311.41876L459.3013 311.3094Q459.41068 310.09064 460.12943 309.46564Q460.8638 308.825 462.09818 308.825Q463.33255 308.825 464.0513 309.5125Q464.77005 310.2 464.77005 311.21564Q464.77005 311.73126 464.5513 312.23126Q464.34818 312.71564 463.84818 313.27814Q463.3638 313.825 462.2388 314.77814Q461.28568 315.575 461.00443 315.8719Q460.7388 316.15314 460.56693 316.4344L464.78568 316.4344ZM466.2388 313.21564Q466.2388 311.6844 466.5513 310.7625Q466.8638 309.825 467.47318 309.325Q468.09818 308.825 469.03568 308.825Q469.72318 308.825 470.2388 309.10626Q470.77005 309.3875 471.1138 309.91876Q471.45755 310.4344 471.64505 311.1844Q471.83255 311.9344 471.83255 313.21564Q471.83255 314.73126 471.52005 315.65314Q471.22318 316.575 470.59818 317.09064Q469.9888 317.59064 469.03568 317.59064Q467.8013 317.59064 467.08255 316.7Q466.2388 315.6375 466.2388 313.21564ZM467.31693 313.21564Q467.31693 315.325 467.81693 316.02814Q468.31693 316.73126 469.03568 316.73126Q469.77005 316.73126 470.25443 316.02814Q470.75443 315.325 470.75443 313.21564Q470.75443 311.09064 470.25443 310.40314Q469.77005 309.7 469.02005 309.7Q468.3013 309.7 467.8638 310.3094Q467.31693 311.09064 467.31693 313.21564ZM473.2388 313.21564Q473.2388 311.6844 473.5513 310.7625Q473.8638 309.825 474.47318 309.325Q475.09818 308.825 476.03568 308.825Q476.72318 308.825 477.2388 309.10626Q477.77005 309.3875 478.1138 309.91876Q478.45755 310.4344 478.64505 311.1844Q478.83255 311.9344 478.83255 313.21564Q478.83255 314.73126 478.52005 315.65314Q478.22318 316.575 477.59818 317.09064Q476.9888 317.59064 476.03568 317.59064Q474.8013 317.59064 474.08255 316.7Q473.2388 315.6375 473.2388 313.21564ZM474.31693 313.21564Q474.31693 315.325 474.81693 316.02814Q475.31693 316.73126 476.03568 316.73126Q476.77005 316.73126 477.25443 316.02814Q477.75443 315.325 477.75443 313.21564Q477.75443 311.09064 477.25443 310.40314Q476.77005 309.7 476.02005 309.7Q475.3013 309.7 474.8638 310.3094Q474.31693 311.09064 474.31693 313.21564ZM480.2388 313.21564Q480.2388 311.6844 480.5513 310.7625Q480.8638 309.825 481.47318 309.325Q482.09818 308.825 483.03568 308.825Q483.72318 308.825 484.2388 309.10626Q484.77005 309.3875 485.1138 309.91876Q485.45755 310.4344 485.64505 311.1844Q485.83255 311.9344 485.83255 313.21564Q485.83255 314.73126 485.52005 315.65314Q485.22318 316.575 484.59818 317.09064Q483.9888 317.59064 483.03568 317.59064Q481.8013 317.59064 481.08255 316.7Q480.2388 315.6375 480.2388 313.21564ZM481.31693 313.21564Q481.31693 315.325 481.81693 316.02814Q482.31693 316.73126 483.03568 316.73126Q483.77005 316.73126 484.25443 316.02814Q484.75443 315.325 484.75443 313.21564Q484.75443 311.09064 484.25443 310.40314Q483.77005 309.7 483.02005 309.7Q482.3013 309.7 481.8638 310.3094Q481.31693 311.09064 481.31693 313.21564Z" fill-rule="nonzero"/><path fill="#000000" d="M535.0008 316.4344L535.0008 317.45L529.3133 317.45Q529.3133 317.075 529.4383 316.71564Q529.65704 316.1375 530.1258 315.575Q530.61017 315.0125 531.5164 314.27814Q532.92267 313.1219 533.40704 312.45Q533.90704 311.77814 533.90704 311.1844Q533.90704 310.5594 533.4539 310.1375Q533.0008 309.7 532.28204 309.7Q531.5164 309.7 531.0633 310.15314Q530.61017 310.60626 530.59454 311.41876L529.5164 311.3094Q529.6258 310.09064 530.34454 309.46564Q531.0789 308.825 532.3133 308.825Q533.54767 308.825 534.2664 309.5125Q534.98517 310.2 534.98517 311.21564Q534.98517 311.73126 534.7664 312.23126Q534.5633 312.71564 534.0633 313.27814Q533.5789 313.825 532.4539 314.77814Q531.5008 315.575 531.21954 315.8719Q530.9539 316.15314 530.78204 316.4344L535.0008 316.4344ZM542.0008 316.4344L542.0008 317.45L536.3133 317.45Q536.3133 317.075 536.4383 316.71564Q536.65704 316.1375 537.1258 315.575Q537.61017 315.0125 538.5164 314.27814Q539.92267 313.1219 540.40704 312.45Q540.90704 311.77814 540.90704 311.1844Q540.90704 310.5594 540.4539 310.1375Q540.0008 309.7 539.28204 309.7Q538.5164 309.7 538.0633 310.15314Q537.61017 310.60626 537.59454 311.41876L536.5164 311.3094Q536.6258 310.09064 537.34454 309.46564Q538.0789 308.825 539.3133 308.825Q540.54767 308.825 541.2664 309.5125Q541.98517 310.2 541.98517 311.21564Q541.98517 311.73126 541.7664 312.23126Q541.5633 312.71564 541.0633 313.27814Q540.5789 313.825 539.4539 314.77814Q538.5008 315.575 538.21954 315.8719Q537.9539 316.15314 537.78204 316.4344L542.0008 316.4344ZM543.4539 315.2L544.5633 315.10626Q544.6883 315.91876 545.1258 316.325Q545.5789 316.73126 546.21954 316.73126Q546.96954 316.73126 547.5008 316.15314Q548.03204 315.575 548.03204 314.6375Q548.03204 313.73126 547.5164 313.21564Q547.0164 312.6844 546.1883 312.6844Q545.6883 312.6844 545.2664 312.91876Q544.86017 313.15314 544.6258 313.5125L543.6414 313.3875L544.46954 308.98126L548.7508 308.98126L548.7508 309.98126L545.3133 309.98126L544.86017 312.29376Q545.6258 311.7469 546.46954 311.7469Q547.59454 311.7469 548.36017 312.52814Q549.1414 313.3094 549.1414 314.54376Q549.1414 315.7 548.46954 316.5594Q547.6414 317.59064 546.21954 317.59064Q545.04767 317.59064 544.29767 316.9344Q543.5633 316.27814 543.4539 315.2ZM550.4539 313.21564Q550.4539 311.6844 550.7664 310.7625Q551.0789 309.825 551.6883 309.325Q552.3133 308.825 553.2508 308.825Q553.9383 308.825 554.4539 309.10626Q554.98517 309.3875 555.3289 309.91876Q555.67267 310.4344 555.86017 311.1844Q556.04767 311.9344 556.04767 313.21564Q556.04767 314.73126 555.73517 315.65314Q555.4383 316.575 554.8133 317.09064Q554.2039 317.59064 553.2508 317.59064Q552.0164 317.59064 551.29767 316.7Q550.4539 315.6375 550.4539 313.21564ZM551.53204 313.21564Q551.53204 315.325 552.03204 316.02814Q552.53204 316.73126 553.2508 316.73126Q553.98517 316.73126 554.46954 316.02814Q554.96954 315.325 554.96954 313.21564Q554.96954 311.09064 554.46954 310.40314Q553.98517 309.7 553.23517 309.7Q552.5164 309.7 552.0789 310.3094Q551.53204 311.09064 551.53204 313.21564Z" fill-rule="nonzero"/><path fill="#757575" d="M20.01875 37.55L20.01875 23.2375L21.909374 23.2375L21.909374 35.8625L28.95625 35.8625L28.95625 37.55L20.01875 37.55ZM37.64375 36.26875Q36.659374 37.096874 35.753124 37.440624Q34.846874 37.784374 33.815624 37.784374Q32.1125 37.784374 31.190624 36.95625Q30.26875 36.1125 30.26875 34.815624Q30.26875 34.05 30.6125 33.425Q30.971874 32.8 31.534374 32.425Q32.096874 32.034374 32.8 31.83125Q33.315624 31.70625 34.3625 31.565624Q36.4875 31.315624 37.4875 30.971874Q37.503124 30.6125 37.503124 30.503124Q37.503124 29.440624 37.003124 28.9875Q36.33125 28.39375 35.003124 28.39375Q33.753124 28.39375 33.159374 28.83125Q32.58125 29.26875 32.3 30.378124L30.58125 30.14375Q30.815624 29.034374 31.346874 28.3625Q31.878124 27.675 32.89375 27.315624Q33.909374 26.940624 35.253124 26.940624Q36.58125 26.940624 37.409374 27.253124Q38.2375 27.565624 38.628124 28.05Q39.01875 28.51875 39.175 29.2375Q39.26875 29.690624 39.26875 30.8625L39.26875 33.20625Q39.26875 35.659374 39.378124 36.315624Q39.4875 36.95625 39.83125 37.55L37.9875 37.55Q37.721874 37.003124 37.64375 36.26875ZM37.4875 32.346874Q36.534374 32.7375 34.6125 33.003124Q33.534374 33.159374 33.08125 33.3625Q32.64375 33.55 32.39375 33.925Q32.14375 34.3 32.14375 34.76875Q32.14375 35.471874 32.675 35.940624Q33.20625 36.409374 34.2375 36.409374Q35.253124 36.409374 36.034374 35.971874Q36.83125 35.51875 37.20625 34.753124Q37.4875 34.14375 37.4875 32.9875L37.4875 32.346874ZM45.70625 35.971874L45.95625 37.534374Q45.221874 37.690624 44.628124 37.690624Q43.675 37.690624 43.14375 37.39375Q42.628124 37.08125 42.409374 36.596874Q42.190624 36.096874 42.190624 34.51875L42.190624 28.55L40.909374 28.55L40.909374 27.175L42.190624 27.175L42.190624 24.6125L43.940624 23.55L43.940624 27.175L45.70625 27.175L45.70625 28.55L43.940624 28.55L43.940624 34.6125Q43.940624 35.3625 44.034374 35.58125Q44.128124 35.784374 44.33125 35.925Q44.55 36.05 44.940624 36.05Q45.221874 36.05 45.70625 35.971874ZM54.971874 34.20625L56.784374 34.440624Q56.3625 36.01875 55.190624 36.909374Q54.034374 37.784374 52.221874 37.784374Q49.95625 37.784374 48.6125 36.39375Q47.284374 34.9875 47.284374 32.45625Q47.284374 29.83125 48.628124 28.39375Q49.971874 26.940624 52.128124 26.940624Q54.20625 26.940624 55.51875 28.3625Q56.846874 29.76875 56.846874 32.346874Q56.846874 32.503124 56.83125 32.815624L49.096874 32.815624Q49.190624 34.51875 50.065624 35.425Q50.940624 36.33125 52.2375 36.33125Q53.20625 36.33125 53.878124 35.83125Q54.565624 35.315624 54.971874 34.20625ZM49.190624 31.3625L54.9875 31.3625Q54.878124 30.065624 54.33125 29.409374Q53.4875 28.39375 52.14375 28.39375Q50.940624 28.39375 50.1125 29.20625Q49.284374 30.003124 49.190624 31.3625ZM58.8625 37.55L58.8625 27.175L60.45625 27.175L60.45625 28.659374Q61.596874 26.940624 63.753124 26.940624Q64.69063 26.940624 65.47188 27.284374Q66.26875 27.6125 66.65938 28.159374Q67.05 28.70625 67.20625 29.45625Q67.3 29.95625 67.3 31.175L67.3 37.55L65.53438 37.55L65.53438 31.2375Q65.53438 30.159374 65.33125 29.628124Q65.12813 29.096874 64.59688 28.784374Q64.08125 28.471874 63.378124 28.471874Q62.253124 28.471874 61.440624 29.190624Q60.628124 29.89375 60.628124 31.878124L60.628124 37.55L58.8625 37.55ZM76.64375 33.753124L78.3625 33.971874Q78.08125 35.76875 76.90938 36.784374Q75.75313 37.784374 74.05 37.784374Q71.925 37.784374 70.62813 36.39375Q69.33125 35.003124 69.33125 32.409374Q69.33125 30.721874 69.87813 29.471874Q70.44063 28.20625 71.58125 27.58125Q72.72188 26.940624 74.06563 26.940624Q75.75313 26.940624 76.81563 27.8Q77.89375 28.659374 78.20625 30.221874L76.4875 30.4875Q76.25313 29.440624 75.62813 28.925Q75.00313 28.39375 74.12813 28.39375Q72.8 28.39375 71.97188 29.346874Q71.14375 30.3 71.14375 32.346874Q71.14375 34.440624 71.94063 35.39375Q72.7375 36.33125 74.03438 36.33125Q75.06563 36.33125 75.75313 35.70625Q76.45625 35.065624 76.64375 33.753124ZM79.78438 41.55L79.59688 39.89375Q80.175 40.05 80.59688 40.05Q81.19063 40.05 81.53438 39.846874Q81.89375 39.659374 82.1125 39.315624Q82.28438 39.05 82.65938 38.003124Q82.70625 37.846874 82.81563 37.565624L78.87813 27.175L80.76875 27.175L82.925 33.190624Q83.34688 34.33125 83.675 35.58125Q83.9875 34.378124 84.39375 33.221874L86.6125 27.175L88.37813 27.175L84.425 37.721874Q83.8 39.440624 83.44063 40.08125Q82.97188 40.95625 82.3625 41.346874Q81.76875 41.753124 80.925 41.753124Q80.40938 41.753124 79.78438 41.55ZM98.75313 37.55L94.8 27.175L96.65938 27.175L98.89375 33.39375Q99.25313 34.39375 99.55 35.471874Q99.78438 34.659374 100.20625 33.503124L102.50313 27.175L104.31563 27.175L100.39375 37.55L98.75313 37.55ZM112.97188 34.20625L114.78438 34.440624Q114.3625 36.01875 113.19063 36.909374Q112.03438 37.784374 110.22188 37.784374Q107.95625 37.784374 106.6125 36.39375Q105.28438 34.9875 105.28438 32.45625Q105.28438 29.83125 106.62813 28.39375Q107.97188 26.940624 110.12813 26.940624Q112.20625 26.940624 113.51875 28.3625Q114.84688 29.76875 114.84688 32.346874Q114.84688 32.503124 114.83125 32.815624L107.09688 32.815624Q107.19063 34.51875 108.06563 35.425Q108.94063 36.33125 110.2375 36.33125Q111.20625 36.33125 111.87813 35.83125Q112.56563 35.315624 112.97188 34.20625ZM107.19063 31.3625L112.9875 31.3625Q112.87813 30.065624 112.33125 29.409374Q111.4875 28.39375 110.14375 28.39375Q108.94063 28.39375 108.1125 29.20625Q107.28438 30.003124 107.19063 31.3625ZM116.84688 37.55L116.84688 27.175L118.425 27.175L118.425 28.753124Q119.03438 27.64375 119.55 27.3Q120.06563 26.940624 120.675 26.940624Q121.56563 26.940624 122.4875 27.503124L121.87813 29.14375Q121.2375 28.753124 120.59688 28.753124Q120.01875 28.753124 119.55 29.1125Q119.09688 29.45625 118.89375 30.065624Q118.6125 31.003124 118.6125 32.1125L118.6125 37.55L116.84688 37.55ZM123.15938 34.45625L124.90938 34.175Q125.05 35.221874 125.72188 35.784374Q126.39375 36.33125 127.59688 36.33125Q128.8 36.33125 129.37813 35.846874Q129.97188 35.346874 129.97188 34.690624Q129.97188 34.096874 129.45625 33.753124Q129.09688 33.51875 127.65938 33.159374Q125.72188 32.659374 124.97188 32.315624Q124.2375 31.95625 123.84688 31.33125Q123.45625 30.690624 123.45625 29.925Q123.45625 29.2375 123.76875 28.64375Q124.09688 28.05 124.64375 27.659374Q125.05 27.3625 125.75313 27.159374Q126.47188 26.940624 127.28438 26.940624Q128.50313 26.940624 129.425 27.3Q130.34688 27.64375 130.78438 28.253124Q131.22188 28.846874 131.39375 29.846874L129.675 30.08125Q129.55 29.284374 128.9875 28.846874Q128.425 28.39375 127.40938 28.39375Q126.19063 28.39375 125.675 28.8Q125.15938 29.190624 125.15938 29.721874Q125.15938 30.065624 125.37813 30.346874Q125.58125 30.628124 126.05 30.815624Q126.31563 30.909374 127.59688 31.253124Q129.47188 31.753124 130.20625 32.08125Q130.94063 32.39375 131.3625 33.003124Q131.78438 33.596874 131.78438 34.503124Q131.78438 35.378124 131.26875 36.159374Q130.75313 36.940624 129.78438 37.3625Q128.81563 37.784374 127.59688 37.784374Q125.58125 37.784374 124.51875 36.940624Q123.45625 36.096874 123.15938 34.45625ZM140.65938 37.55L140.65938 36.01875Q139.45625 37.784374 137.37813 37.784374Q136.45625 37.784374 135.65938 37.440624Q134.8625 37.08125 134.47188 36.55Q134.09688 36.01875 133.94063 35.2375Q133.83125 34.721874 133.83125 33.596874L133.83125 27.175L135.58125 27.175L135.58125 32.925Q135.58125 34.3 135.69063 34.784374Q135.8625 35.471874 136.39375 35.878124Q136.94063 36.26875 137.72188 36.26875Q138.51875 36.26875 139.20625 35.8625Q139.90938 35.45625 140.19063 34.76875Q140.4875 34.065624 140.4875 32.7375L140.4875 27.175L142.2375 27.175L142.2375 37.55L140.65938 37.55ZM144.15938 34.45625L145.90938 34.175Q146.05 35.221874 146.72188 35.784374Q147.39375 36.33125 148.59688 36.33125Q149.8 36.33125 150.37813 35.846874Q150.97188 35.346874 150.97188 34.690624Q150.97188 34.096874 150.45625 33.753124Q150.09688 33.51875 148.65938 33.159374Q146.72188 32.659374 145.97188 32.315624Q145.2375 31.95625 144.84688 31.33125Q144.45625 30.690624 144.45625 29.925Q144.45625 29.2375 144.76875 28.64375Q145.09688 28.05 145.64375 27.659374Q146.05 27.3625 146.75313 27.159374Q147.47188 26.940624 148.28438 26.940624Q149.50313 26.940624 150.425 27.3Q151.34688 27.64375 151.78438 28.253124Q152.22188 28.846874 152.39375 29.846874L150.675 30.08125Q150.55 29.284374 149.9875 28.846874Q149.425 28.39375 148.40938 28.39375Q147.19063 28.39375 146.675 28.8Q146.15938 29.190624 146.15938 29.721874Q146.15938 30.065624 146.37813 30.346874Q146.58125 30.628124 147.05 30.815624Q147.31563 30.909374 148.59688 31.253124Q150.47188 31.753124 151.20625 32.08125Q151.94063 32.39375 152.3625 33.003124Q152.78438 33.596874 152.78438 34.503124Q152.78438 35.378124 152.26875 36.159374Q151.75313 36.940624 150.78438 37.3625Q149.81563 37.784374 148.59688 37.784374Q146.58125 37.784374 145.51875 36.940624Q144.45625 36.096874 144.15938 34.45625ZM164.70625 35.971874L164.95625 37.534374Q164.22188 37.690624 163.62813 37.690624Q162.675 37.690624 162.14375 37.39375Q161.62813 37.08125 161.40938 36.596874Q161.19063 36.096874 161.19063 34.51875L161.19063 28.55L159.90938 28.55L159.90938 27.175L161.19063 27.175L161.19063 24.6125L162.94063 23.55L162.94063 27.175L164.70625 27.175L164.70625 28.55L162.94063 28.55L162.94063 34.6125Q162.94063 35.3625 163.03438 35.58125Q163.12813 35.784374 163.33125 35.925Q163.55 36.05 163.94063 36.05Q164.22188 36.05 164.70625 35.971874ZM166.8625 37.55L166.8625 23.2375L168.62813 23.2375L168.62813 28.3625Q169.8625 26.940624 171.7375 26.940624Q172.87813 26.940624 173.72188 27.39375Q174.58125 27.846874 174.94063 28.659374Q175.31563 29.45625 175.31563 30.971874L175.31563 37.55L173.56563 37.55L173.56563 30.971874Q173.56563 29.659374 172.9875 29.065624Q172.40938 28.45625 171.37813 28.45625Q170.59688 28.45625 169.89375 28.8625Q169.20625 29.26875 168.90938 29.971874Q168.62813 30.659374 168.62813 31.878124L168.62813 37.55L166.8625 37.55ZM177.84688 37.55L177.84688 27.175L179.425 27.175L179.425 28.753124Q180.03438 27.64375 180.55 27.3Q181.06563 26.940624 181.675 26.940624Q182.56563 26.940624 183.4875 27.503124L182.87813 29.14375Q182.2375 28.753124 181.59688 28.753124Q181.01875 28.753124 180.55 29.1125Q180.09688 29.45625 179.89375 30.065624Q179.6125 31.003124 179.6125 32.1125L179.6125 37.55L177.84688 37.55ZM184.22188 32.3625Q184.22188 29.4875 185.81563 28.096874Q187.15938 26.940624 189.08125 26.940624Q191.22188 26.940624 192.56563 28.346874Q193.925 29.753124 193.925 32.221874Q193.925 34.221874 193.33125 35.378124Q192.7375 36.51875 191.58125 37.159374Q190.44063 37.784374 189.08125 37.784374Q186.89375 37.784374 185.55 36.39375Q184.22188 34.9875 184.22188 32.3625ZM186.01875 32.3625Q186.01875 34.3625 186.87813 35.346874Q187.75313 36.33125 189.08125 36.33125Q190.39375 36.33125 191.25313 35.346874Q192.12813 34.346874 192.12813 32.3Q192.12813 30.378124 191.25313 29.39375Q190.37813 28.39375 189.08125 28.39375Q187.75313 28.39375 186.87813 29.39375Q186.01875 30.378124 186.01875 32.3625ZM202.65938 37.55L202.65938 36.01875Q201.45625 37.784374 199.37813 37.784374Q198.45625 37.784374 197.65938 37.440624Q196.8625 37.08125 196.47188 36.55Q196.09688 36.01875 195.94063 35.2375Q195.83125 34.721874 195.83125 33.596874L195.83125 27.175L197.58125 27.175L197.58125 32.925Q197.58125 34.3 197.69063 34.784374Q197.8625 35.471874 198.39375 35.878124Q198.94063 36.26875 199.72188 36.26875Q200.51875 36.26875 201.20625 35.8625Q201.90938 35.45625 202.19063 34.76875Q202.4875 34.065624 202.4875 32.7375L202.4875 27.175L204.2375 27.175L204.2375 37.55L202.65938 37.55ZM206.55 38.409374L208.25313 38.659374Q208.3625 39.45625 208.84688 39.815624Q209.50313 40.3 210.64375 40.3Q211.8625 40.3 212.51875 39.815624Q213.19063 39.33125 213.425 38.45625Q213.56563 37.909374 213.55 36.190624Q212.39375 37.55 210.675 37.55Q208.53438 37.55 207.3625 36.003124Q206.19063 34.45625 206.19063 32.3Q206.19063 30.815624 206.72188 29.565624Q207.26875 28.315624 208.28438 27.628124Q209.31563 26.940624 210.69063 26.940624Q212.51875 26.940624 213.72188 28.425L213.72188 27.175L215.33125 27.175L215.33125 36.14375Q215.33125 38.565624 214.83125 39.565624Q214.34688 40.58125 213.26875 41.159374Q212.20625 41.753124 210.64375 41.753124Q208.8 41.753124 207.64375 40.925Q206.50313 40.096874 206.55 38.409374ZM208.00313 32.175Q208.00313 34.221874 208.81563 35.159374Q209.62813 36.096874 210.84688 36.096874Q212.05 36.096874 212.8625 35.159374Q213.69063 34.221874 213.69063 32.2375Q213.69063 30.33125 212.84688 29.3625Q212.00313 28.39375 210.81563 28.39375Q209.64375 28.39375 208.81563 29.346874Q208.00313 30.3 208.00313 32.175ZM217.8625 37.55L217.8625 23.2375L219.62813 23.2375L219.62813 28.3625Q220.8625 26.940624 222.7375 26.940624Q223.87813 26.940624 224.72188 27.39375Q225.58125 27.846874 225.94063 28.659374Q226.31563 29.45625 226.31563 30.971874L226.31563 37.55L224.56563 37.55L224.56563 30.971874Q224.56563 29.659374 223.9875 29.065624Q223.40938 28.45625 222.37813 28.45625Q221.59688 28.45625 220.89375 28.8625Q220.20625 29.26875 219.90938 29.971874Q219.62813 30.659374 219.62813 31.878124L219.62813 37.55L217.8625 37.55ZM228.8625 41.51875L228.8625 27.175L230.47188 27.175L230.47188 28.51875Q231.03438 27.7375 231.7375 27.346874Q232.45625 26.940624 233.47188 26.940624Q234.8 26.940624 235.81563 27.628124Q236.83125 28.315624 237.34688 29.565624Q237.87813 30.8 237.87813 32.284374Q237.87813 33.878124 237.3 35.159374Q236.7375 36.425 235.64375 37.1125Q234.55 37.784374 233.34688 37.784374Q232.47188 37.784374 231.76875 37.409374Q231.08125 37.034374 230.62813 36.471874L230.62813 41.51875L228.8625 41.51875ZM230.45625 32.425Q230.45625 34.425 231.26875 35.378124Q232.08125 36.33125 233.2375 36.33125Q234.40938 36.33125 235.2375 35.346874Q236.08125 34.3625 236.08125 32.26875Q236.08125 30.3 235.25313 29.315624Q234.44063 28.315624 233.31563 28.315624Q232.19063 28.315624 231.31563 29.378124Q230.45625 30.425 230.45625 32.425ZM246.65938 37.55L246.65938 36.01875Q245.45625 37.784374 243.37813 37.784374Q242.45625 37.784374 241.65938 37.440624Q240.8625 37.08125 240.47188 36.55Q240.09688 36.01875 239.94063 35.2375Q239.83125 34.721874 239.83125 33.596874L239.83125 27.175L241.58125 27.175L241.58125 32.925Q241.58125 34.3 241.69063 34.784374Q241.8625 35.471874 242.39375 35.878124Q242.94063 36.26875 243.72188 36.26875Q244.51875 36.26875 245.20625 35.8625Q245.90938 35.45625 246.19063 34.76875Q246.4875 34.065624 246.4875 32.7375L246.4875 27.175L248.2375 27.175L248.2375 37.55L246.65938 37.55ZM254.70625 35.971874L254.95625 37.534374Q254.22188 37.690624 253.62813 37.690624Q252.675 37.690624 252.14375 37.39375Q251.62813 37.08125 251.40938 36.596874Q251.19063 36.096874 251.19063 34.51875L251.19063 28.55L249.90938 28.55L249.90938 27.175L251.19063 27.175L251.19063 24.6125L252.94063 23.55L252.94063 27.175L254.70625 27.175L254.70625 28.55L252.94063 28.55L252.94063 34.6125Q252.94063 35.3625 253.03438 35.58125Q253.12813 35.784374 253.33125 35.925Q253.55 36.05 253.94063 36.05Q254.22188 36.05 254.70625 35.971874ZM264.78436 37.55L261.6125 27.175L263.425 27.175L265.08124 33.159374L265.6906 35.39375Q265.7375 35.221874 266.22186 33.253124L267.8781 27.175L269.6906 27.175L271.2375 33.190624L271.7531 35.175L272.34686 33.175L274.1281 27.175L275.83124 27.175L272.59686 37.55L270.76874 37.55L269.1125 31.33125L268.72186 29.565624L266.6125 37.55L264.78436 37.55ZM276.8781 25.253124L276.8781 23.2375L278.64374 23.2375L278.64374 25.253124L276.8781 25.253124ZM276.8781 37.55L276.8781 27.175L278.64374 27.175L278.64374 37.55L276.8781 37.55ZM284.70624 35.971874L284.95624 37.534374Q284.22186 37.690624 283.6281 37.690624Q282.675 37.690624 282.14374 37.39375Q281.6281 37.08125 281.40936 36.596874Q281.1906 36.096874 281.1906 34.51875L281.1906 28.55L279.90936 28.55L279.90936 27.175L281.1906 27.175L281.1906 24.6125L282.9406 23.55L282.9406 27.175L284.70624 27.175L284.70624 28.55L282.9406 28.55L282.9406 34.6125Q282.9406 35.3625 283.03436 35.58125Q283.1281 35.784374 283.33124 35.925Q283.55 36.05 283.9406 36.05Q284.22186 36.05 284.70624 35.971874ZM286.8625 37.55L286.8625 23.2375L288.6281 23.2375L288.6281 28.3625Q289.8625 26.940624 291.7375 26.940624Q292.8781 26.940624 293.72186 27.39375Q294.58124 27.846874 294.9406 28.659374Q295.3156 29.45625 295.3156 30.971874L295.3156 37.55L293.5656 37.55L293.5656 30.971874Q293.5656 29.659374 292.9875 29.065624Q292.40936 28.45625 291.3781 28.45625Q290.59686 28.45625 289.89374 28.8625Q289.20624 29.26875 288.90936 29.971874Q288.6281 30.659374 288.6281 31.878124L288.6281 37.55L286.8625 37.55ZM312.6125 35.8625L312.6125 37.55L303.15936 37.55Q303.14374 36.909374 303.3625 36.33125Q303.72186 35.3625 304.51874 34.425Q305.3156 33.4875 306.8156 32.253124Q309.15936 30.346874 309.97186 29.2375Q310.8 28.1125 310.8 27.1125Q310.8 26.065624 310.05 25.346874Q309.3 24.628124 308.09686 24.628124Q306.83124 24.628124 306.0656 25.39375Q305.3 26.159374 305.3 27.503124L303.4875 27.315624Q303.675 25.3 304.8781 24.2375Q306.09686 23.175 308.14374 23.175Q310.1906 23.175 311.39374 24.315624Q312.59686 25.45625 312.59686 27.14375Q312.59686 28.003124 312.2375 28.846874Q311.89374 29.675 311.08124 30.596874Q310.26874 31.503124 308.3781 33.1125Q306.78436 34.440624 306.33124 34.909374Q305.89374 35.378124 305.59686 35.8625L312.6125 35.8625ZM320.01874 37.55L320.01874 34.128124L313.8 34.128124L313.8 32.503124L320.33124 23.2375L321.76874 23.2375L321.76874 32.503124L323.70624 32.503124L323.70624 34.128124L321.76874 34.128124L321.76874 37.55L320.01874 37.55ZM320.01874 32.503124L320.01874 26.05L315.53436 32.503124L320.01874 32.503124ZM334.7531 37.55L330.8 27.175L332.65936 27.175L334.89374 33.39375Q335.2531 34.39375 335.55 35.471874Q335.78436 34.659374 336.20624 33.503124L338.5031 27.175L340.3156 27.175L336.39374 37.55L334.7531 37.55ZM341.1906 33.253124L341.1906 31.4875L346.58124 31.4875L346.58124 33.253124L341.1906 33.253124ZM355.64374 33.753124L357.3625 33.971874Q357.08124 35.76875 355.90936 36.784374Q354.7531 37.784374 353.05 37.784374Q350.925 37.784374 349.6281 36.39375Q348.33124 35.003124 348.33124 32.409374Q348.33124 30.721874 348.8781 29.471874Q349.4406 28.20625 350.58124 27.58125Q351.72186 26.940624 353.0656 26.940624Q354.7531 26.940624 355.8156 27.8Q356.89374 28.659374 357.20624 30.221874L355.4875 30.4875Q355.2531 29.440624 354.6281 28.925Q354.0031 28.39375 353.1281 28.39375Q351.8 28.39375 350.97186 29.346874Q350.14374 30.3 350.14374 32.346874Q350.14374 34.440624 350.9406 35.39375Q351.7375 36.33125 353.03436 36.33125Q354.0656 36.33125 354.7531 35.70625Q355.45624 35.065624 355.64374 33.753124ZM358.8625 41.51875L358.8625 27.175L360.47186 27.175L360.47186 28.51875Q361.03436 27.7375 361.7375 27.346874Q362.45624 26.940624 363.47186 26.940624Q364.8 26.940624 365.8156 27.628124Q366.83124 28.315624 367.34686 29.565624Q367.8781 30.8 367.8781 32.284374Q367.8781 33.878124 367.3 35.159374Q366.7375 36.425 365.64374 37.1125Q364.55 37.784374 363.34686 37.784374Q362.47186 37.784374 361.76874 37.409374Q361.08124 37.034374 360.6281 36.471874L360.6281 41.51875L358.8625 41.51875ZM360.45624 32.425Q360.45624 34.425 361.26874 35.378124Q362.08124 36.33125 363.2375 36.33125Q364.40936 36.33125 365.2375 35.346874Q366.08124 34.3625 366.08124 32.26875Q366.08124 30.3 365.2531 29.315624Q364.4406 28.315624 363.3156 28.315624Q362.1906 28.315624 361.3156 29.378124Q360.45624 30.425 360.45624 32.425ZM376.65936 37.55L376.65936 36.01875Q375.45624 37.784374 373.3781 37.784374Q372.45624 37.784374 371.65936 37.440624Q370.8625 37.08125 370.47186 36.55Q370.09686 36.01875 369.9406 35.2375Q369.83124 34.721874 369.83124 33.596874L369.83124 27.175L371.58124 27.175L371.58124 32.925Q371.58124 34.3 371.6906 34.784374Q371.8625 35.471874 372.39374 35.878124Q372.9406 36.26875 373.72186 36.26875Q374.51874 36.26875 375.20624 35.8625Q375.90936 35.45625 376.1906 34.76875Q376.4875 34.065624 376.4875 32.7375L376.4875 27.175L378.2375 27.175L378.2375 37.55L376.65936 37.55ZM387.28436 37.55L387.28436 28.55L385.7375 28.55L385.7375 27.175L387.28436 27.175L387.28436 26.08125Q387.28436 25.034374 387.47186 24.51875Q387.72186 23.83125 388.3625 23.409374Q389.0031 22.9875 390.15936 22.9875Q390.90936 22.9875 391.8 23.159374L391.53436 24.690624Q390.9875 24.596874 390.5031 24.596874Q389.70624 24.596874 389.3625 24.940624Q389.03436 25.284374 389.03436 26.221874L389.03436 27.175L391.0656 27.175L391.0656 28.55L389.03436 28.55L389.03436 37.55L387.28436 37.55ZM392.83124 37.55L392.83124 23.2375L394.58124 23.2375L394.58124 37.55L392.83124 37.55ZM403.64374 36.26875Q402.65936 37.096874 401.7531 37.440624Q400.84686 37.784374 399.8156 37.784374Q398.1125 37.784374 397.1906 36.95625Q396.26874 36.1125 396.26874 34.815624Q396.26874 34.05 396.6125 33.425Q396.97186 32.8 397.53436 32.425Q398.09686 32.034374 398.8 31.83125Q399.3156 31.70625 400.3625 31.565624Q402.4875 31.315624 403.4875 30.971874Q403.5031 30.6125 403.5031 30.503124Q403.5031 29.440624 403.0031 28.9875Q402.33124 28.39375 401.0031 28.39375Q399.7531 28.39375 399.15936 28.83125Q398.58124 29.26875 398.3 30.378124L396.58124 30.14375Q396.8156 29.034374 397.34686 28.3625Q397.8781 27.675 398.89374 27.315624Q399.90936 26.940624 401.2531 26.940624Q402.58124 26.940624 403.40936 27.253124Q404.2375 27.565624 404.6281 28.05Q405.01874 28.51875 405.175 29.2375Q405.26874 29.690624 405.26874 30.8625L405.26874 33.20625Q405.26874 35.659374 405.3781 36.315624Q405.4875 36.95625 405.83124 37.55L403.9875 37.55Q403.72186 37.003124 403.64374 36.26875ZM403.4875 32.346874Q402.53436 32.7375 400.6125 33.003124Q399.53436 33.159374 399.08124 33.3625Q398.64374 33.55 398.39374 33.925Q398.14374 34.3 398.14374 34.76875Q398.14374 35.471874 398.675 35.940624Q399.20624 36.409374 400.2375 36.409374Q401.2531 36.409374 402.03436 35.971874Q402.83124 35.51875 403.20624 34.753124Q403.4875 34.14375 403.4875 32.9875L403.4875 32.346874ZM410.7531 37.55L406.8 27.175L408.65936 27.175L410.89374 33.39375Q411.2531 34.39375 411.55 35.471874Q411.78436 34.659374 412.20624 33.503124L414.5031 27.175L416.3156 27.175L412.39374 37.55L410.7531 37.55ZM417.22186 32.3625Q417.22186 29.4875 418.8156 28.096874Q420.15936 26.940624 422.08124 26.940624Q424.22186 26.940624 425.5656 28.346874Q426.925 29.753124 426.925 32.221874Q426.925 34.221874 426.33124 35.378124Q425.7375 36.51875 424.58124 37.159374Q423.4406 37.784374 422.08124 37.784374Q419.89374 37.784374 418.55 36.39375Q417.22186 34.9875 417.22186 32.3625ZM419.01874 32.3625Q419.01874 34.3625 419.8781 35.346874Q420.7531 36.33125 422.08124 36.33125Q423.39374 36.33125 424.2531 35.346874Q425.1281 34.346874 425.1281 32.3Q425.1281 30.378124 424.2531 29.39375Q423.3781 28.39375 422.08124 28.39375Q420.7531 28.39375 419.8781 29.39375Q419.01874 30.378124 419.01874 32.3625ZM428.84686 37.55L428.84686 27.175L430.425 27.175L430.425 28.753124Q431.03436 27.64375 431.55 27.3Q432.0656 26.940624 432.675 26.940624Q433.5656 26.940624 434.4875 27.503124L433.8781 29.14375Q433.2375 28.753124 432.59686 28.753124Q432.01874 28.753124 431.55 29.1125Q431.09686 29.45625 430.89374 30.065624Q430.6125 31.003124 430.6125 32.1125L430.6125 37.55L428.84686 37.55ZM436.3625 37.55L436.3625 35.55L438.3625 35.55L438.3625 37.55L436.3625 37.55Z" fill-rule="nonzero"/></svg>