<svg xmlns="http://www.w3.org/2000/svg" xmlns:xlink="http://www.w3.org/1999/xlink" xmlns:lucid="lucid" width="984.65" height="548.33"><g transform="translate(-78.5 -218.5)" lucid:page-tab-id="0_0"><path d="M0 0h1870.87v1322.84H0z" fill="#fff"/><path d="M840 426a6 6 0 0 1 6-6h109.65a6 6 0 0 1 6 6v53.33a6 6 0 0 1-6 6H846a6 6 0 0 1-6-6z" stroke="#3788a5" stroke-width="3" fill="#3788a5"/><use xlink:href="#a" transform="matrix(1,0,0,1,852,432) translate(3.2749999999999986 24.9)"/><path d="M600 246a6 6 0 0 1 6-6h109.65a6 6 0 0 1 6 6v53.33a6 6 0 0 1-6 6H606a6 6 0 0 1-6-6z" stroke="#3788a5" stroke-width="3" fill="#3788a5"/><use xlink:href="#b" transform="matrix(1,0,0,1,612,252) translate(30.049999999999997 24.9)"/><path d="M340 426a6 6 0 0 1 6-6h109.65a6 6 0 0 1 6 6v53.33a6 6 0 0 1-6 6H346a6 6 0 0 1-6-6z" stroke="#3788a5" stroke-width="3" fill="#3788a5"/><use xlink:href="#c" transform="matrix(1,0,0,1,352,432) translate(24.049999999999997 24.9)"/><path d="M500 566a6 6 0 0 1 6-6h109.65a6 6 0 0 1 6 6v53.33a6 6 0 0 1-6 6H506a6 6 0 0 1-6-6z" stroke="#3788a5" stroke-width="3" fill="#3788a5"/><use xlink:href="#a" transform="matrix(1,0,0,1,512,572) translate(3.2749999999999986 24.9)"/><path d="M180 566a6 6 0 0 1 6-6h109.65a6 6 0 0 1 6 6v53.33a6 6 0 0 1-6 6H186a6 6 0 0 1-6-6z" stroke="#3788a5" stroke-width="3" fill="#3788a5"/><use xlink:href="#a" transform="matrix(1,0,0,1,192,572) translate(3.2749999999999986 24.9)"/><path d="M760 566a6 6 0 0 1 6-6h109.65a6 6 0 0 1 6 6v53.33a6 6 0 0 1-6 6H766a6 6 0 0 1-6-6z" stroke="#3788a5" stroke-width="3" fill="#3788a5"/><use xlink:href="#d" transform="matrix(1,0,0,1,772,572.0000000000001) translate(22.025 24.9)"/><path d="M920 566a6 6 0 0 1 6-6h109.65a6 6 0 0 1 6 6v53.33a6 6 0 0 1-6 6H926a6 6 0 0 1-6-6z" stroke="#3788a5" stroke-width="3" fill="#3788a5"/><use xlink:href="#e" transform="matrix(1,0,0,1,932,572) translate(30.15 24.9)"/><path d="M100 686a6 6 0 0 1 6-6h109.65a6 6 0 0 1 6 6v53.33a6 6 0 0 1-6 6H106a6 6 0 0 1-6-6z" stroke="#3788a5" stroke-width="3" fill="#3788a5"/><use xlink:href="#f" transform="matrix(1,0,0,1,112,692.0000000000001) translate(37.65 24.9)"/><path d="M260 686a6 6 0 0 1 6-6h109.65a6 6 0 0 1 6 6v53.33a6 6 0 0 1-6 6H266a6 6 0 0 1-6-6z" stroke="#3788a5" stroke-width="3" fill="#3788a5"/><use xlink:href="#g" transform="matrix(1,0,0,1,272,692.0000000000001) translate(36.65 24.9)"/><path d="M420 686a6 6 0 0 1 6-6h109.65a6 6 0 0 1 6 6v53.33a6 6 0 0 1-6 6H426a6 6 0 0 1-6-6z" stroke="#3788a5" stroke-width="3" fill="#3788a5"/><use xlink:href="#h" transform="matrix(1,0,0,1,432,692) translate(37.65 24.9)"/><path d="M580 686a6 6 0 0 1 6-6h109.65a6 6 0 0 1 6 6v53.33a6 6 0 0 1-6 6H586a6 6 0 0 1-6-6z" stroke="#3788a5" stroke-width="3" fill="#3788a5"/><use xlink:href="#i" transform="matrix(1,0,0,1,592,692.0000000000001) translate(36.65 24.9)"/><path d="M240 627.38l-78.34 50.58" stroke="#3788a5" stroke-width="2" fill="none"/><path d="M240.5 628.23l-.9-1.4h3.07zM162.05 678.5h-3.07l2.16-1.4z" stroke="#3788a5" stroke-width=".05" fill="#3788a5"/><path d="M241.65 627.4l72.78 50.53" stroke="#3788a5" stroke-width="2" fill="none"/><path d="M241.1 628.24l-2.03-1.4h3zM317 678.5h-3l.98-1.4z" stroke="#3788a5" stroke-width=".05" fill="#3788a5"/><path d="M561.66 627.38L640 677.96" stroke="#3788a5" stroke-width="2" fill="none"/><path d="M561.14 628.23l-2.16-1.4h3.07zM642.67 678.5h-3.07l.9-1.4z" stroke="#3788a5" stroke-width=".05" fill="#3788a5"/><path d="M560 627.38l-78.33 50.58" stroke="#3788a5" stroke-width="2" fill="none"/><path d="M560.5 628.23l-.9-1.4h3.07zM482.05 678.5h-3.07l2.16-1.4z" stroke="#3788a5" stroke-width=".05" fill="#3788a5"/><path d="M399.9 487.24L241.75 558.1" stroke="#3788a5" stroke-width="2" fill="none"/><path d="M400.3 488.17l-.6-1.34h3.57zM241.95 558.5h-3.57l2.97-1.33z" stroke="#3788a5" stroke-width=".05" fill="#3788a5"/><path d="M401.74 487.24L559.9 558.1" stroke="#3788a5" stroke-width="2" fill="none"/><path d="M401.35 488.17l-2.97-1.34h3.57zM563.27 558.5h-3.57l.6-1.33z" stroke="#3788a5" stroke-width=".05" fill="#3788a5"/><path d="M905.74 487.52l74.36 70.3" stroke="#3788a5" stroke-width="2" fill="none"/><path d="M905.07 488.26l-1.5-1.43h2.85zM982.28 558.5h-2.87l1.37-1.43z" stroke="#3788a5" stroke-width=".05" fill="#3788a5"/><path d="M900.08 487.5l-78.5 70.33" stroke="#3788a5" stroke-width="2" fill="none"/><path d="M900.73 488.26l-1.28-1.43h2.87zM822.2 558.5h-2.87l1.6-1.43z" stroke="#3788a5" stroke-width=".05" fill="#3788a5"/><path d="M661.73 307.25l238.2 110.83" stroke="#3788a5" stroke-width="2" fill="none"/><path d="M661.33 308.17l-2.88-1.34h3.5zM903.2 418.5h-3.5l.62-1.34z" stroke="#3788a5" stroke-width=".05" fill="#3788a5"/><path d="M659.9 307.23L401.75 418.1" stroke="#3788a5" stroke-width="2" fill="none"/><path d="M660.28 308.16l-.57-1.33h3.66zM401.94 418.5h-3.65l3.07-1.32z" stroke="#3788a5" stroke-width=".05" fill="#3788a5"/><defs><path fill="#fff" d="M212-179c-10-28-35-45-73-45-59 0-87 40-87 99 0 60 29 101 89 101 43 0 62-24 78-52l27 14C228-24 195 4 139 4 59 4 22-46 18-125c-6-104 99-153 187-111 19 9 31 26 39 46" id="j"/><path fill="#fff" d="M140-251c81 0 123 46 123 126C263-46 219 4 140 4 59 4 17-45 17-125s42-126 123-126zm0 227c63 0 89-41 89-101s-29-99-89-99c-61 0-89 39-89 99S79-25 140-24" id="k"/><path fill="#fff" d="M190 0L58-211 59 0H30v-248h39L202-35l-2-213h31V0h-41" id="l"/><path fill="#fff" d="M127-220V0H93v-220H8v-28h204v28h-85" id="m"/><path fill="#fff" d="M205 0l-28-72H64L36 0H1l101-248h38L239 0h-34zm-38-99l-47-123c-12 45-31 82-46 123h93" id="n"/><path fill="#fff" d="M33 0v-248h34V0H33" id="o"/><path fill="#fff" d="M185-189c-5-48-123-54-124 2 14 75 158 14 163 119 3 78-121 87-175 55-17-10-28-26-33-46l33-7c5 56 141 63 141-1 0-78-155-14-162-118-5-82 145-84 179-34 5 7 8 16 11 25" id="p"/><g id="a"><use transform="matrix(0.05,0,0,0.05,0,0)" xlink:href="#j"/><use transform="matrix(0.05,0,0,0.05,12.950000000000001,0)" xlink:href="#k"/><use transform="matrix(0.05,0,0,0.05,26.950000000000003,0)" xlink:href="#l"/><use transform="matrix(0.05,0,0,0.05,39.900000000000006,0)" xlink:href="#m"/><use transform="matrix(0.05,0,0,0.05,49.50000000000001,0)" xlink:href="#n"/><use transform="matrix(0.05,0,0,0.05,61.5,0)" xlink:href="#o"/><use transform="matrix(0.05,0,0,0.05,66.5,0)" xlink:href="#l"/><use transform="matrix(0.05,0,0,0.05,79.45,0)" xlink:href="#p"/></g><path fill="#fff" d="M30-248c118-7 216 8 213 122C240-48 200 0 122 0H30v-248zM63-27c89 8 146-16 146-99s-60-101-146-95v194" id="q"/><g id="b"><use transform="matrix(0.05,0,0,0.05,0,0)" xlink:href="#n"/><use transform="matrix(0.05,0,0,0.05,12,0)" xlink:href="#l"/><use transform="matrix(0.05,0,0,0.05,24.950000000000003,0)" xlink:href="#q"/></g><path fill="#fff" d="M233-177c-1 41-23 64-60 70L243 0h-38l-65-103H63V0H30v-248c88 3 205-21 203 71zM63-129c60-2 137 13 137-47 0-61-80-42-137-45v92" id="r"/><path fill="#fff" d="M194 0L95-120 63-95V0H30v-248h33v124l119-124h40L117-140 236 0h-42" id="s"/><g id="c"><use transform="matrix(0.05,0,0,0.05,0,0)" xlink:href="#r"/><use transform="matrix(0.05,0,0,0.05,12.950000000000001,0)" xlink:href="#n"/><use transform="matrix(0.05,0,0,0.05,24.950000000000003,0)" xlink:href="#l"/><use transform="matrix(0.05,0,0,0.05,37.900000000000006,0)" xlink:href="#s"/></g><path fill="#fff" d="M85-194c31 0 48 13 60 33l-1-100h32l1 261h-30c-2-10 0-23-3-31C134-8 116 4 85 4 32 4 16-35 15-94c0-66 23-100 70-100zm9 24c-40 0-46 34-46 75 0 40 6 74 45 74 42 0 51-32 51-76 0-42-9-74-50-73" id="t"/><path fill="#fff" d="M100-194c63 0 86 42 84 106H49c0 40 14 67 53 68 26 1 43-12 49-29l28 8c-11 28-37 45-77 45C44 4 14-33 15-96c1-61 26-98 85-98zm52 81c6-60-76-77-97-28-3 7-6 17-6 28h103" id="u"/><path fill="#fff" d="M101-234c-31-9-42 10-38 44h38v23H63V0H32v-167H5v-23h27c-7-52 17-82 69-68v24" id="v"/><path fill="#fff" d="M141-36C126-15 110 5 73 4 37 3 15-17 15-53c-1-64 63-63 125-63 3-35-9-54-41-54-24 1-41 7-42 31l-33-3c5-37 33-52 76-52 45 0 72 20 72 64v82c-1 20 7 32 28 27v20c-31 9-61-2-59-35zM48-53c0 20 12 33 32 33 41-3 63-29 60-74-43 2-92-5-92 41" id="w"/><path fill="#fff" d="M84 4C-5 8 30-112 23-190h32v120c0 31 7 50 39 49 72-2 45-101 50-169h31l1 190h-30c-1-10 1-25-2-33-11 22-28 36-60 37" id="x"/><path fill="#fff" d="M24 0v-261h32V0H24" id="y"/><path fill="#fff" d="M59-47c-2 24 18 29 38 22v24C64 9 27 4 27-40v-127H5v-23h24l9-43h21v43h35v23H59v120" id="z"/><g id="d"><use transform="matrix(0.05,0,0,0.05,0,0)" xlink:href="#t"/><use transform="matrix(0.05,0,0,0.05,10,0)" xlink:href="#u"/><use transform="matrix(0.05,0,0,0.05,20,0)" xlink:href="#v"/><use transform="matrix(0.05,0,0,0.05,25,0)" xlink:href="#w"/><use transform="matrix(0.05,0,0,0.05,35,0)" xlink:href="#x"/><use transform="matrix(0.05,0,0,0.05,45,0)" xlink:href="#y"/><use transform="matrix(0.05,0,0,0.05,48.95,0)" xlink:href="#z"/></g><path fill="#fff" d="M109-170H84l-4-78h32zm-65 0H19l-4-78h33" id="A"/><path fill="#fff" d="M100-194c62-1 85 37 85 99 1 63-27 99-86 99S16-35 15-95c0-66 28-99 85-99zM99-20c44 1 53-31 53-75 0-43-8-75-51-75s-53 32-53 75 10 74 51 75" id="B"/><g id="e"><use transform="matrix(0.05,0,0,0.05,0,0)" xlink:href="#A"/><use transform="matrix(0.05,0,0,0.05,6.3500000000000005,0)" xlink:href="#v"/><use transform="matrix(0.05,0,0,0.05,11.350000000000001,0)" xlink:href="#B"/><use transform="matrix(0.05,0,0,0.05,21.35,0)" xlink:href="#B"/><use transform="matrix(0.05,0,0,0.05,31.35,0)" xlink:href="#A"/></g><g id="f"><use transform="matrix(0.05,0,0,0.05,0,0)" xlink:href="#A"/><use transform="matrix(0.05,0,0,0.05,6.3500000000000005,0)" xlink:href="#w"/><use transform="matrix(0.05,0,0,0.05,16.35,0)" xlink:href="#A"/></g><g id="g"><use transform="matrix(0.05,0,0,0.05,0,0)" xlink:href="#A"/><use transform="matrix(0.05,0,0,0.05,6.3500000000000005,0)" xlink:href="#n"/><use transform="matrix(0.05,0,0,0.05,18.35,0)" xlink:href="#A"/></g><path fill="#fff" d="M115-194c53 0 69 39 70 98 0 66-23 100-70 100C84 3 66-7 56-30L54 0H23l1-261h32v101c10-23 28-34 59-34zm-8 174c40 0 45-34 45-75 0-40-5-75-45-74-42 0-51 32-51 76 0 43 10 73 51 73" id="C"/><g id="h"><use transform="matrix(0.05,0,0,0.05,0,0)" xlink:href="#A"/><use transform="matrix(0.05,0,0,0.05,6.3500000000000005,0)" xlink:href="#C"/><use transform="matrix(0.05,0,0,0.05,16.35,0)" xlink:href="#A"/></g><path fill="#fff" d="M160-131c35 5 61 23 61 61C221 17 115-2 30 0v-248c76 3 177-17 177 60 0 33-19 50-47 57zm-97-11c50-1 110 9 110-42 0-47-63-36-110-37v79zm0 115c55-2 124 14 124-45 0-56-70-42-124-44v89" id="D"/><g id="i"><use transform="matrix(0.05,0,0,0.05,0,0)" xlink:href="#A"/><use transform="matrix(0.05,0,0,0.05,6.3500000000000005,0)" xlink:href="#D"/><use transform="matrix(0.05,0,0,0.05,18.35,0)" xlink:href="#A"/></g></defs></g></svg>