<svg xmlns="http://www.w3.org/2000/svg" xmlns:xlink="http://www.w3.org/1999/xlink" xmlns:lucid="lucid" width="903" height="463"><g transform="translate(1981.5 561.5)" lucid:page-tab-id="0_0"><path d="M-2000-1000h1000V0h-1000z" fill="#fff"/><path d="M-1420-314a6 6 0 0 1 6-6h308a6 6 0 0 1 6 6v188a6 6 0 0 1-6 6h-308a6 6 0 0 1-6-6z" stroke="#000" stroke-opacity="0" stroke-width="3" fill="#baedce"/><path d="M-1420-314a6 6 0 0 1 6-6h168a6 6 0 0 1 6 6v28a6 6 0 0 1-6 6h-168a6 6 0 0 1-6-6z" stroke="#000" stroke-opacity="0" stroke-width="3" fill="#fff" fill-opacity="0"/><use xlink:href="#a" transform="matrix(1,0,0,1,-1415,-315) translate(0 21.51111111111108)"/><use xlink:href="#b" transform="matrix(1,0,0,1,-1415,-315) translate(101.5055555555554 21.51111111111108)"/><path d="M-1960-534a6 6 0 0 1 6-6h308a6 6 0 0 1 6 6v348.3a6 6 0 0 1-6 6h-308a6 6 0 0 1-6-6z" stroke="#000" stroke-opacity="0" stroke-width="3" fill="#baedce"/><path d="M-1940-334a6 6 0 0 1 6-6h259.77a6 6 0 0 1 6 6v128a6 6 0 0 1-6 6H-1934a6 6 0 0 1-6-6z" stroke="#000" stroke-opacity="0" stroke-width="3" fill="#1b6a3a"/><use xlink:href="#c" transform="matrix(1,0,0,1,-1928,-328) translate(0 14.4)"/><path d="M-1960-534a6 6 0 0 1 6-6h168a6 6 0 0 1 6 6v28a6 6 0 0 1-6 6h-168a6 6 0 0 1-6-6z" stroke="#000" stroke-opacity="0" stroke-width="3" fill="#fff" fill-opacity="0"/><use xlink:href="#a" transform="matrix(1,0,0,1,-1955,-535) translate(0 21.51111111111108)"/><use xlink:href="#b" transform="matrix(1,0,0,1,-1955,-535) translate(101.5055555555554 21.51111111111108)"/><path d="M-1940-494a6 6 0 0 1 6-6h259.77a6 6 0 0 1 6 6v128a6 6 0 0 1-6 6H-1934a6 6 0 0 1-6-6z" stroke="#000" stroke-opacity="0" stroke-width="3" fill="#1b6a3a"/><use xlink:href="#c" transform="matrix(1,0,0,1,-1928,-488) translate(0 14.4)"/><path d="M-1920-454a6 6 0 0 1 6-6h159.77a6 6 0 0 1 6 6v68a6 6 0 0 1-6 6H-1914a6 6 0 0 1-6-6z" stroke="#000" stroke-opacity="0" stroke-width="3" fill="#fff"/><use xlink:href="#d" transform="matrix(1,0,0,1,-1908,-448) translate(0 14.4)"/><use xlink:href="#e" transform="matrix(1,0,0,1,-1908,-448) translate(67.95 14.4)"/><path d="M-1920-294a6 6 0 0 1 6-6h159.77a6 6 0 0 1 6 6v68a6 6 0 0 1-6 6H-1914a6 6 0 0 1-6-6z" stroke="#000" stroke-opacity="0" stroke-width="3" fill="#fff"/><use xlink:href="#d" transform="matrix(1,0,0,1,-1908,-288) translate(0 14.4)"/><use xlink:href="#f" transform="matrix(1,0,0,1,-1908,-288) translate(67.95 14.4)"/><path d="M-1420-534a6 6 0 0 1 6-6h308a6 6 0 0 1 6 6v188a6 6 0 0 1-6 6h-308a6 6 0 0 1-6-6z" stroke="#000" stroke-opacity="0" stroke-width="3" fill="#baedce"/><path d="M-1400-274a6 6 0 0 1 6-6h259.77a6 6 0 0 1 6 6v128a6 6 0 0 1-6 6H-1394a6 6 0 0 1-6-6z" stroke="#000" stroke-opacity="0" stroke-width="3" fill="#1b6a3a"/><use xlink:href="#c" transform="matrix(1,0,0,1,-1388,-268) translate(0 14.4)"/><path d="M-1420-534a6 6 0 0 1 6-6h168a6 6 0 0 1 6 6v28a6 6 0 0 1-6 6h-168a6 6 0 0 1-6-6z" stroke="#000" stroke-opacity="0" stroke-width="3" fill="#fff" fill-opacity="0"/><use xlink:href="#a" transform="matrix(1,0,0,1,-1415,-535) translate(0 21.51111111111108)"/><use xlink:href="#b" transform="matrix(1,0,0,1,-1415,-535) translate(101.5055555555554 21.51111111111108)"/><path d="M-1400-494a6 6 0 0 1 6-6h259.77a6 6 0 0 1 6 6v128a6 6 0 0 1-6 6H-1394a6 6 0 0 1-6-6z" stroke="#000" stroke-opacity="0" stroke-width="3" fill="#1b6a3a"/><use xlink:href="#c" transform="matrix(1,0,0,1,-1388,-488) translate(0 14.4)"/><path d="M-1380-454a6 6 0 0 1 6-6h159.77a6 6 0 0 1 6 6v68a6 6 0 0 1-6 6H-1374a6 6 0 0 1-6-6z" stroke="#000" stroke-opacity="0" stroke-width="3" fill="#fff"/><use xlink:href="#d" transform="matrix(1,0,0,1,-1368,-448) translate(0 14.4)"/><use xlink:href="#e" transform="matrix(1,0,0,1,-1368,-448) translate(67.95 14.4)"/><path d="M-1380-234a6 6 0 0 1 6-6h159.77a6 6 0 0 1 6 6v68a6 6 0 0 1-6 6H-1374a6 6 0 0 1-6-6z" stroke="#000" stroke-opacity="0" stroke-width="3" fill="#fff"/><use xlink:href="#d" transform="matrix(1,0,0,1,-1368,-228) translate(0 14.4)"/><use xlink:href="#f" transform="matrix(1,0,0,1,-1368,-228) translate(67.95 14.4)"/><path d="M-1529-365.82l-.08 1.06-.26 1.07-.42 1.02-.57.94-.72.84-.83.7-.94.58-1.02.43-1.06.26-1.06.08H-1639v-2h102.96l.82-.06.76-.18.73-.3.67-.4.6-.52.5-.6.4-.67.3-.7.2-.77.06-.82v-23.36h2zm90.5-73.18h-85.46l-.82.06-.76.2-.73.3-.67.4-.6.5-.5.6-.4.67-.3.73-.2.76-.06.82v23.37h-2v-23.44l.08-1.06.26-1.06.42-1.02.57-.94.72-.83.83-.72.94-.57 1.02-.42 1.06-.26 1.06-.08h85.54z" stroke="#7b7d68" stroke-width=".05" fill="#7b7d68"/><path d="M-1638.97-358.86h-1.03v-2h1.03z" fill="#7b7d68"/><path d="M-1638.95-358.83h-1.08v-2.05h1.08zm-1.02-2v1.95h.97v-1.95z" stroke="#7b7d68" stroke-width=".05" fill="#7b7d68"/><path d="M-1423.24-440l-14.26 4.63v-9.26z" fill="#7b7d68"/><path d="M-1420-440l-18.5 6v-12zm-16.5 3.26l10.03-3.26-10.03-3.26z" stroke="#7b7d68" stroke-width=".05" fill="#7b7d68"/><g><use xlink:href="#g" transform="matrix(1,0,0,1,-1595.3827160493827,-410.59409899631083) translate(0 14.222222222222223)"/><use xlink:href="#h" transform="matrix(1,0,0,1,-1595.3827160493827,-410.59409899631083) translate(83.50617283950618 14.222222222222223)"/></g><path d="M-1639-359.86h103a6 6 0 0 1 6 6V-226a6 6 0 0 0 6 6h85.5" stroke="#7b7d68" stroke-width="2" fill="none"/><path d="M-1638.97-358.86h-1.03v-2h1.03z" stroke="#7b7d68" stroke-width=".05" fill="#7b7d68"/><path d="M-1423.24-220l-14.26 4.63v-9.26z" stroke="#7b7d68" stroke-width="2" fill="#7b7d68"/><defs><path fill="#1b6a3a" d="M212-179c-10-28-35-45-73-45-59 0-87 40-87 99 0 60 29 101 89 101 43 0 62-24 78-52l27 14C228-24 195 4 139 4 59 4 22-46 18-125c-6-104 99-153 187-111 19 9 31 26 39 46" id="i"/><path fill="#1b6a3a" d="M100-194c62-1 85 37 85 99 1 63-27 99-86 99S16-35 15-95c0-66 28-99 85-99zM99-20c44 1 53-31 53-75 0-43-8-75-51-75s-53 32-53 75 10 74 51 75" id="j"/><path fill="#1b6a3a" d="M117-194c89-4 53 116 60 194h-32v-121c0-31-8-49-39-48C34-167 62-67 57 0H25l-1-190h30c1 10-1 24 2 32 11-22 29-35 61-36" id="k"/><path fill="#1b6a3a" d="M59-47c-2 24 18 29 38 22v24C64 9 27 4 27-40v-127H5v-23h24l9-43h21v43h35v23H59v120" id="l"/><path fill="#1b6a3a" d="M100-194c63 0 86 42 84 106H49c0 40 14 67 53 68 26 1 43-12 49-29l28 8c-11 28-37 45-77 45C44 4 14-33 15-96c1-61 26-98 85-98zm52 81c6-60-76-77-97-28-3 7-6 17-6 28h103" id="m"/><g id="a"><use transform="matrix(0.07469135802469125,0,0,0.07469135802469125,0,0)" xlink:href="#i"/><use transform="matrix(0.07469135802469125,0,0,0.07469135802469125,19.345061728395034,0)" xlink:href="#j"/><use transform="matrix(0.07469135802469125,0,0,0.07469135802469125,34.28333333333328,0)" xlink:href="#k"/><use transform="matrix(0.07469135802469125,0,0,0.07469135802469125,49.22160493827153,0)" xlink:href="#l"/><use transform="matrix(0.07469135802469125,0,0,0.07469135802469125,56.69074074074066,0)" xlink:href="#m"/><use transform="matrix(0.07469135802469125,0,0,0.07469135802469125,71.6290123456789,0)" xlink:href="#k"/><use transform="matrix(0.07469135802469125,0,0,0.07469135802469125,86.56728395061715,0)" xlink:href="#l"/></g><path fill="#1b6a3a" d="M85-194c31 0 48 13 60 33l-1-100h32l1 261h-30c-2-10 0-23-3-31C134-8 116 4 85 4 32 4 16-35 15-94c0-66 23-100 70-100zm9 24c-40 0-46 34-46 75 0 40 6 74 45 74 42 0 51-32 51-76 0-42-9-74-50-73" id="n"/><g id="b"><use transform="matrix(0.07469135802469125,0,0,0.07469135802469125,0,0)" xlink:href="#k"/><use transform="matrix(0.07469135802469125,0,0,0.07469135802469125,14.93827160493825,0)" xlink:href="#j"/><use transform="matrix(0.07469135802469125,0,0,0.07469135802469125,29.8765432098765,0)" xlink:href="#n"/><use transform="matrix(0.07469135802469125,0,0,0.07469135802469125,44.814814814814746,0)" xlink:href="#m"/></g><path fill="#fff" d="M115-194c55 1 70 41 70 98S169 2 115 4C84 4 66-9 55-30l1 105H24l-1-265h31l2 30c10-21 28-34 59-34zm-8 174c40 0 45-34 45-75s-6-73-45-74c-42 0-51 32-51 76 0 43 10 73 51 73" id="o"/><path fill="#fff" d="M114-163C36-179 61-72 57 0H25l-1-190h30c1 12-1 29 2 39 6-27 23-49 58-41v29" id="p"/><path fill="#fff" d="M100-194c62-1 85 37 85 99 1 63-27 99-86 99S16-35 15-95c0-66 28-99 85-99zM99-20c44 1 53-31 53-75 0-43-8-75-51-75s-53 32-53 75 10 74 51 75" id="q"/><path fill="#fff" d="M59-47c-2 24 18 29 38 22v24C64 9 27 4 27-40v-127H5v-23h24l9-43h21v43h35v23H59v120" id="r"/><path fill="#fff" d="M117-194c89-4 53 116 60 194h-32v-121c0-31-8-49-39-48C34-167 62-67 57 0H25l-1-190h30c1 10-1 24 2 32 11-22 29-35 61-36" id="s"/><g id="c"><use transform="matrix(0.05,0,0,0.05,0,0)" xlink:href="#o"/><use transform="matrix(0.05,0,0,0.05,10,0)" xlink:href="#p"/><use transform="matrix(0.05,0,0,0.05,15.949999999999998,0)" xlink:href="#q"/><use transform="matrix(0.05,0,0,0.05,25.950000000000003,0)" xlink:href="#r"/><use transform="matrix(0.05,0,0,0.05,30.950000000000003,0)" xlink:href="#q"/><use transform="matrix(0.05,0,0,0.05,40.95,0)" xlink:href="#s"/></g><path fill="#2e2f27" d="M135-143c-3-34-86-38-87 0 15 53 115 12 119 90S17 21 10-45l28-5c4 36 97 45 98 0-10-56-113-15-118-90-4-57 82-63 122-42 12 7 21 19 24 35" id="t"/><path fill="#2e2f27" d="M96-169c-40 0-48 33-48 73s9 75 48 75c24 0 41-14 43-38l32 2c-6 37-31 61-74 61-59 0-76-41-82-99-10-93 101-131 147-64 4 7 5 14 7 22l-32 3c-4-21-16-35-41-35" id="u"/><path fill="#2e2f27" d="M106-169C34-169 62-67 57 0H25v-261h32l-1 103c12-21 28-36 61-36 89 0 53 116 60 194h-32v-121c2-32-8-49-39-48" id="v"/><path fill="#2e2f27" d="M100-194c63 0 86 42 84 106H49c0 40 14 67 53 68 26 1 43-12 49-29l28 8c-11 28-37 45-77 45C44 4 14-33 15-96c1-61 26-98 85-98zm52 81c6-60-76-77-97-28-3 7-6 17-6 28h103" id="w"/><path fill="#2e2f27" d="M210-169c-67 3-38 105-44 169h-31v-121c0-29-5-50-35-48C34-165 62-65 56 0H25l-1-190h30c1 10-1 24 2 32 10-44 99-50 107 0 11-21 27-35 58-36 85-2 47 119 55 194h-31v-121c0-29-5-49-35-48" id="x"/><path fill="#2e2f27" d="M141-36C126-15 110 5 73 4 37 3 15-17 15-53c-1-64 63-63 125-63 3-35-9-54-41-54-24 1-41 7-42 31l-33-3c5-37 33-52 76-52 45 0 72 20 72 64v82c-1 20 7 32 28 27v20c-31 9-61-2-59-35zM48-53c0 20 12 33 32 33 41-3 63-29 60-74-43 2-92-5-92 41" id="y"/><g id="d"><use transform="matrix(0.05,0,0,0.05,0,0)" xlink:href="#t"/><use transform="matrix(0.05,0,0,0.05,9,0)" xlink:href="#u"/><use transform="matrix(0.05,0,0,0.05,18,0)" xlink:href="#v"/><use transform="matrix(0.05,0,0,0.05,28,0)" xlink:href="#w"/><use transform="matrix(0.05,0,0,0.05,38,0)" xlink:href="#x"/><use transform="matrix(0.05,0,0,0.05,52.95,0)" xlink:href="#y"/></g><path fill="#2e2f27" d="M205 0l-28-72H64L36 0H1l101-248h38L239 0h-34zm-38-99l-47-123c-12 45-31 82-46 123h93" id="z"/><use transform="matrix(0.05,0,0,0.05,0,0)" xlink:href="#z" id="e"/><path fill="#2e2f27" d="M160-131c35 5 61 23 61 61C221 17 115-2 30 0v-248c76 3 177-17 177 60 0 33-19 50-47 57zm-97-11c50-1 110 9 110-42 0-47-63-36-110-37v79zm0 115c55-2 124 14 124-45 0-56-70-42-124-44v89" id="A"/><use transform="matrix(0.05,0,0,0.05,0,0)" xlink:href="#A" id="f"/><path fill="#2e2f27" d="M147 0H94L2-248h55l64 206c17-72 42-137 63-206h54" id="B"/><path fill="#2e2f27" d="M25-224v-37h50v37H25zM25 0v-190h50V0H25" id="C"/><path fill="#2e2f27" d="M135-150c-39-12-60 13-60 57V0H25l-1-190h47c2 13-1 29 3 40 6-28 27-53 61-41v41" id="D"/><path fill="#2e2f27" d="M115-3C79 11 28 4 28-45v-112H4v-33h27l15-45h31v45h36v33H77v99c-1 23 16 31 38 25v30" id="E"/><path fill="#2e2f27" d="M85 4C-2 5 27-109 22-190h50c7 57-23 150 33 157 60-5 35-97 40-157h50l1 190h-47c-2-12 1-28-3-38-12 25-28 42-61 42" id="F"/><path fill="#2e2f27" d="M133-34C117-15 103 5 69 4 32 3 11-16 11-54c-1-60 55-63 116-61 1-26-3-47-28-47-18 1-26 9-28 27l-52-2c7-38 36-58 82-57s74 22 75 68l1 82c-1 14 12 18 25 15v27c-30 8-71 5-69-32zm-48 3c29 0 43-24 42-57-32 0-66-3-65 30 0 17 8 27 23 27" id="G"/><path fill="#2e2f27" d="M25 0v-261h50V0H25" id="H"/><path fill="#2e2f27" d="M12 0v-35l95-120H19v-35h142v35L67-36h103V0H12" id="I"/><path fill="#2e2f27" d="M185-48c-13 30-37 53-82 52C43 2 14-33 14-96s30-98 90-98c62 0 83 45 84 108H66c0 31 8 55 39 56 18 0 30-7 34-22zm-45-69c5-46-57-63-70-21-2 6-4 13-4 21h74" id="J"/><g id="g"><use transform="matrix(0.04938271604938272,0,0,0.04938271604938272,0,0)" xlink:href="#B"/><use transform="matrix(0.04938271604938272,0,0,0.04938271604938272,11.506172839506174,0)" xlink:href="#C"/><use transform="matrix(0.04938271604938272,0,0,0.04938271604938272,16.444444444444446,0)" xlink:href="#D"/><use transform="matrix(0.04938271604938272,0,0,0.04938271604938272,23.358024691358025,0)" xlink:href="#E"/><use transform="matrix(0.04938271604938272,0,0,0.04938271604938272,29.23456790123457,0)" xlink:href="#F"/><use transform="matrix(0.04938271604938272,0,0,0.04938271604938272,40.04938271604939,0)" xlink:href="#G"/><use transform="matrix(0.04938271604938272,0,0,0.04938271604938272,49.92592592592593,0)" xlink:href="#H"/><use transform="matrix(0.04938271604938272,0,0,0.04938271604938272,54.8641975308642,0)" xlink:href="#C"/><use transform="matrix(0.04938271604938272,0,0,0.04938271604938272,59.802469135802475,0)" xlink:href="#I"/><use transform="matrix(0.04938271604938272,0,0,0.04938271604938272,68.69135802469137,0)" xlink:href="#J"/></g><path fill="#2e2f27" d="M114-157C55-157 80-60 75 0H25v-261h50l-1 109c12-26 28-41 61-42 86-1 58 113 63 194h-50c-7-57 23-157-34-157" id="K"/><path fill="#2e2f27" d="M110-194c64 0 96 36 96 99 0 64-35 99-97 99-61 0-95-36-95-99 0-62 34-99 96-99zm-1 164c35 0 45-28 45-65 0-40-10-65-43-65-34 0-45 26-45 65 0 36 10 65 43 65" id="L"/><path fill="#2e2f27" d="M137-138c1-29-70-34-71-4 15 46 118 7 119 86 1 83-164 76-172 9l43-7c4 19 20 25 44 25 33 8 57-30 24-41C81-84 22-81 20-136c-2-80 154-74 161-7" id="M"/><g id="h"><use transform="matrix(0.04938271604938272,0,0,0.04938271604938272,0,0)" xlink:href="#K"/><use transform="matrix(0.04938271604938272,0,0,0.04938271604938272,10.814814814814815,0)" xlink:href="#L"/><use transform="matrix(0.04938271604938272,0,0,0.04938271604938272,21.62962962962963,0)" xlink:href="#M"/><use transform="matrix(0.04938271604938272,0,0,0.04938271604938272,31.506172839506174,0)" xlink:href="#E"/><use transform="matrix(0.04938271604938272,0,0,0.04938271604938272,37.382716049382715,0)" xlink:href="#M"/></g></defs></g></svg>